<svg width="95" height="86" viewBox="0 0 95 86" fill="none" xmlns="http://www.w3.org/2000/svg">
<path fill-rule="evenodd" clip-rule="evenodd" d="M21.456 75.3555C20.2802 75.3555 19.2724 76.1837 19.0458 77.3321C18.8153 78.4844 19.4325 79.6368 20.5146 80.0821C21.5966 80.5314 22.8466 80.1524 23.499 79.1798C24.1513 78.2032 24.0224 76.9025 23.1943 76.0743C22.7334 75.6134 22.1084 75.3555 21.456 75.3555ZM53.749 26.3555C54.1826 25.9219 54.8857 25.9219 55.3193 26.3555C55.7529 26.7891 55.7529 27.4922 55.3193 27.9258L46.0029 37.2422H46.0068C45.6826 37.5665 45.2451 37.7462 44.792 37.7462C44.335 37.7462 43.8975 37.5665 43.5772 37.2422L39.417 33.082H39.4131C38.999 32.6445 39.0107 31.957 39.4365 31.5312C39.8623 31.1055 40.5498 31.0977 40.9834 31.5117L44.7881 35.3164L53.749 26.3555ZM47.3662 17.1328C42.7803 17.1328 38.4521 19.2656 35.6592 22.9062C32.8701 26.5468 31.9287 31.2773 33.1162 35.7072C34.3037 40.1369 37.4834 43.7658 41.7217 45.5197C45.96 47.2736 50.7725 46.9572 54.7447 44.6643C58.7169 42.3713 61.397 38.3596 61.9947 33.8123C62.5924 29.2654 61.0416 24.6951 57.7994 21.4533C55.0338 18.6838 51.2807 17.1289 47.3662 17.1328ZM56.2295 23.0273C52.0029 18.8007 45.3745 18.1484 40.4015 21.4687C35.4327 24.7929 33.4992 31.164 35.7882 36.6877C38.0734 42.2111 43.9484 45.3518 49.8112 44.1838C55.6784 43.0197 59.9012 37.8713 59.9012 31.8908C59.9051 28.5666 58.585 25.375 56.2295 23.0273ZM47.3662 51.4293C47.0654 51.4411 46.7763 51.3278 46.5576 51.1168C46.3428 50.9098 46.2217 50.6208 46.2217 50.32C46.2217 50.0192 46.3427 49.734 46.5576 49.5231C46.7763 49.3121 47.0654 49.2028 47.3662 49.2106C47.667 49.2028 47.956 49.3121 48.1748 49.5231C48.3896 49.734 48.5107 50.0192 48.5107 50.32C48.5107 50.6208 48.3896 50.9098 48.1748 51.1168C47.956 51.3278 47.667 51.4411 47.3662 51.4293ZM28.9322 32.9993C28.3306 32.9798 27.8541 32.4876 27.8541 31.886C27.8541 31.2884 28.3306 30.7962 28.9322 30.7766C29.233 30.7688 29.522 30.8821 29.7408 31.0891C29.9556 31.3001 30.0767 31.5852 30.0767 31.886C30.0767 32.1868 29.9556 32.4759 29.7408 32.6829C29.522 32.8938 29.233 33.0071 28.9322 32.9993ZM47.3662 14.5653C47.0654 14.5732 46.7763 14.4599 46.5576 14.2528C46.3428 14.0419 46.2217 13.7567 46.2217 13.456C46.2217 13.1552 46.3427 12.8661 46.5576 12.6552C46.7763 12.4481 47.0654 12.3349 47.3662 12.3427C47.667 12.3349 47.956 12.4481 48.1748 12.6552C48.3896 12.8661 48.5107 13.1552 48.5107 13.456C48.5107 13.7567 48.3896 14.0419 48.1748 14.2528C47.956 14.4599 47.667 14.5731 47.3662 14.5653ZM65.8002 32.9993C65.4994 33.0072 65.2064 32.8939 64.9916 32.6829C64.7768 32.4759 64.6557 32.1868 64.6557 31.886C64.6557 31.5853 64.7767 31.3001 64.9916 31.0892C65.2064 30.8821 65.4994 30.7689 65.8002 30.7767C66.101 30.7689 66.39 30.8821 66.6049 31.0892C66.8236 31.3001 66.9447 31.5853 66.9447 31.886C66.9447 32.1868 66.8236 32.4759 66.6049 32.6829C66.39 32.8939 66.101 33.0071 65.8002 32.9993ZM4.67919 60.9373C3.50729 60.9373 2.49559 61.7655 2.26899 62.9178C2.03852 64.0662 2.65571 65.2186 3.73779 65.6678C4.82369 66.1171 6.06979 65.7382 6.72219 64.7616C7.37453 63.785 7.24563 62.4882 6.4175 61.6561C5.95656 61.1952 5.33159 60.9373 4.67919 60.9373ZM1.36669 60.0897C2.56199 58.8944 4.30809 58.4374 5.93699 58.8944C7.56589 59.3475 8.81979 60.6444 9.22219 62.285H25.9682V55.5897L21.5815 51.203C21.5502 51.1717 21.5268 51.1444 21.4995 51.1131C20.8237 50.3436 20.8588 49.1834 21.5854 48.4608L25.1792 44.867H25.1753C23.9956 42.8475 23.0933 40.6756 22.5034 38.41H17.4214V38.4022C16.9097 38.4022 16.4175 38.1991 16.0542 37.8358C16.0229 37.8085 15.9956 37.7772 15.9722 37.746C15.6557 37.3944 15.4839 36.9374 15.4839 36.4648V27.3125C15.4839 26.8008 15.687 26.3086 16.0542 25.9453C16.4175 25.582 16.9097 25.3789 17.4214 25.3789H22.5034C23.0932 23.1172 23.9917 20.9453 25.1753 18.9258L21.5815 15.332H21.5854C21.5541 15.3007 21.5229 15.2695 21.4995 15.2382C20.8237 14.4687 20.8588 13.3085 21.5854 12.5859L28.0542 6.10541C28.0815 6.07807 28.1128 6.05072 28.144 6.02729C28.9097 5.3437 30.0737 5.38276 30.7963 6.10541L34.3901 9.69921C35.3979 9.10937 36.4448 8.58981 37.5268 8.14061C38.6049 7.69139 39.7143 7.3203 40.8432 7.02731V1.94141C40.8471 1.42579 41.0503 0.93361 41.4175 0.57031C41.7807 0.20312 42.2768 0 42.7925 0H51.9409C53.0151 0 53.8823 0.871091 53.8862 1.9453V7.0273C56.1479 7.61714 58.3198 8.5156 60.3393 9.6992L63.9331 6.1054C63.9643 6.07806 63.9956 6.04681 64.0268 6.02337C64.7924 5.34368 65.9526 5.38275 66.6752 6.1054L73.1557 12.5742C73.9135 13.332 73.9135 14.5625 73.1557 15.3203L69.5619 18.9141C70.7455 20.9336 71.6439 23.1055 72.2377 25.3711H77.3197C77.8314 25.3711 78.3236 25.5742 78.6869 25.9375C78.7142 25.9649 78.7416 25.9961 78.7689 26.0274C79.0814 26.3789 79.2572 26.8359 79.2572 27.3086V36.4609C79.2572 36.9726 79.0502 37.4648 78.6869 37.8281C78.3236 38.1913 77.8314 38.3945 77.3197 38.3945V38.3984H72.2299C71.6401 40.664 70.7416 42.832 69.558 44.8515L73.1557 48.4531C73.519 48.8203 73.726 49.3125 73.726 49.8281C73.726 50.3398 73.519 50.8359 73.1557 51.1992L68.769 55.5859V62.2812H85.507C86.0695 59.9843 88.2609 58.4648 90.6125 58.75C92.9602 59.0312 94.7297 61.0273 94.7297 63.3945C94.7297 65.7617 92.9602 67.7539 90.6125 68.039C88.2609 68.3202 86.0695 66.8046 85.507 64.5038H67.652C67.0387 64.5038 66.5426 64.0077 66.5426 63.3944V57.7889C65.7731 58.4295 64.6403 58.3787 63.9332 57.6678L60.3394 54.074C59.7769 54.4021 59.2066 54.7068 58.6206 54.9959V68.0739L69.8936 74.5817C69.917 74.5543 69.9444 74.5309 69.9717 74.5035H69.9678C71.6358 72.8473 74.2725 72.6832 76.128 74.1285C77.9835 75.5738 78.4757 78.1715 77.2725 80.191C76.0733 82.2144 73.5577 83.023 71.4014 82.0855C69.2451 81.148 68.1241 78.7535 68.7881 76.4957L57.0501 69.7184C56.6556 69.5387 56.4017 69.1442 56.4017 68.7106V55.9526C55.5775 56.2651 54.7376 56.5308 53.8861 56.7534V61.8354V61.8315C53.89 62.3471 53.683 62.8432 53.3197 63.2065C53.2884 63.2339 53.2611 63.2612 53.2298 63.2885C52.8783 63.601 52.4212 63.7768 51.9486 63.7768H48.4759V76.0388C50.7767 76.6013 52.2962 78.7927 52.015 81.1443C51.7299 83.4959 49.7338 85.2654 47.3666 85.2654C44.9994 85.2654 43.0033 83.4959 42.7221 81.1443C42.437 78.7927 43.9565 76.6013 46.2573 76.0388V63.7768H42.7925C42.2769 63.7768 41.7808 63.5737 41.4175 63.2065C41.3863 63.1753 41.3628 63.1479 41.3355 63.1167C41.023 62.7612 40.8511 62.3042 40.8511 61.8315V56.7534C39.9996 56.5307 39.1597 56.2651 38.3355 55.9526V68.7106C38.3394 69.1442 38.0855 69.5387 37.6871 69.7184L25.9451 76.4957C26.6131 78.7613 25.4881 81.1715 23.324 82.1129C21.1599 83.0582 18.6287 82.2418 17.4256 80.2145C16.2186 78.1833 16.7107 75.57 18.5779 74.1207C20.4412 72.6715 23.0935 72.8355 24.7654 74.5035C24.7927 74.5269 24.8162 74.5543 24.8435 74.5816L36.1135 68.0738V54.9998C35.5276 54.7147 34.9573 54.4061 34.3947 54.0779L30.8009 57.6717C30.0939 58.3788 28.9611 58.4335 28.1915 57.7928V63.3983C28.1915 64.0116 27.6954 64.5077 27.0821 64.5077H9.22711C8.87945 65.9296 7.88331 67.1054 6.54351 67.6874C5.19971 68.2695 3.66071 68.1913 2.38731 67.4726C1.11001 66.7538 0.242806 65.4804 0.0435064 64.0312C-0.155714 62.582 0.336477 61.121 1.37161 60.0859L1.36669 60.0897ZM91.7887 61.6561C90.9567 60.8279 89.6559 60.699 88.6832 61.3514C87.7066 62.0037 87.3277 63.2537 87.773 64.3397C88.2223 65.4217 89.3746 66.0389 90.5269 65.8085C91.6792 65.5819 92.5074 64.5702 92.5074 63.3983C92.5074 62.7459 92.2496 62.1171 91.7887 61.6561ZM75.0187 76.074C74.1867 75.2459 72.8859 75.1169 71.9093 75.7693C70.9327 76.4177 70.5538 77.6716 71.003 78.7537C71.4523 79.8396 72.6046 80.4568 73.7569 80.2264C74.9092 79.9998 75.7374 78.9881 75.7374 77.8123C75.7374 77.1599 75.4796 76.535 75.0187 76.074ZM49.1047 78.8435C48.2766 78.0153 46.9758 77.8864 45.9992 78.5388C45.0265 79.1911 44.6476 80.4411 45.0969 81.5232C45.5461 82.6091 46.6985 83.2224 47.8469 82.9959C48.9992 82.7654 49.8274 81.7537 49.8274 80.5818C49.8274 79.9294 49.5695 79.3045 49.1047 78.8435ZM50.5578 14.8555C53.9875 15.5 57.1476 17.168 59.6164 19.6407C62.0852 22.1095 63.7531 25.2657 64.4016 28.6993C64.511 29.3008 65.0852 29.6993 65.6868 29.5899C65.9759 29.5352 66.2337 29.3712 66.3977 29.129C66.5657 28.8868 66.6282 28.5899 66.5774 28.3008C65.8548 24.4258 63.9719 20.8555 61.1868 18.0708C58.3977 15.2817 54.8313 13.4028 50.9568 12.6763C50.3553 12.567 49.7771 12.9654 49.6677 13.567C49.5583 14.1685 49.9562 14.7422 50.5578 14.8555ZM64.4018 35.0785C63.7533 38.5082 62.0854 41.6683 59.6166 44.1371C57.1478 46.6059 53.9877 48.2738 50.558 48.9223C50.2689 48.977 50.0111 49.141 49.8432 49.3832C49.6791 49.6254 49.6127 49.9223 49.6674 50.2113C49.7767 50.8129 50.3549 51.2113 50.9565 51.0981C54.8315 50.3754 58.3979 48.4965 61.1865 45.7075C63.9756 42.9184 65.8545 39.352 66.5771 35.4775C66.6864 34.8759 66.288 34.2978 65.6864 34.1884C65.0849 34.079 64.5106 34.4774 64.4012 35.0751L64.4018 35.0785ZM44.1788 48.9225C40.7452 48.274 37.589 46.6061 35.1202 44.1373C32.6475 41.6685 30.9796 38.5084 30.3311 35.0787C30.2217 34.4771 29.6475 34.0787 29.0459 34.1881C28.4443 34.2974 28.0459 34.8756 28.1553 35.4772C28.8779 39.3522 30.7608 42.9186 33.5459 45.7072C36.335 48.4963 39.9014 50.3752 43.7799 51.0978C44.3814 51.211 44.9557 50.8126 45.0651 50.211C45.1783 49.6095 44.7803 49.0319 44.1788 48.9225ZM30.3308 28.6995C30.9792 25.2659 32.6472 22.1097 35.1199 19.6409C37.5887 17.1682 40.7449 15.5003 44.1785 14.8557C44.78 14.7424 45.1785 14.1682 45.0652 13.5666C44.9558 12.965 44.3816 12.5666 43.78 12.676C39.9011 13.4025 36.3347 15.2815 33.546 18.0705C30.7608 20.8557 28.878 24.4221 28.1554 28.3005C28.046 28.902 28.4445 29.4763 29.046 29.5896C29.6476 29.6989 30.2214 29.301 30.3308 28.6995ZM51.6628 2.21948H43.069V7.89528C43.069 8.41481 42.7096 8.86403 42.2057 8.97728C39.6002 9.56322 37.1159 10.5906 34.858 12.0164C34.4166 12.3211 33.8228 12.2664 33.4439 11.8875L29.4283 7.87577L23.3502 13.9539L27.3658 17.9617C27.7291 18.3289 27.7916 18.8953 27.5181 19.3289C26.8033 20.4656 26.1822 21.657 25.6704 22.8992C25.1665 24.1062 24.7681 25.3562 24.4751 26.6336C24.3931 27.1805 23.9283 27.5828 23.3774 27.5828H17.7055V36.1766H23.3774C23.8931 36.1766 24.3423 36.536 24.4555 37.0399C25.0415 39.6454 26.0688 42.1297 27.4946 44.3876C27.7993 44.829 27.7486 45.4228 27.3696 45.8017L23.354 49.8173L29.4321 55.8954L33.4399 51.8954C33.8032 51.5321 34.3696 51.4696 34.8071 51.743C35.9399 52.4618 37.1353 53.0789 38.3736 53.5946C39.5844 54.0946 40.8344 54.4931 42.1119 54.786C42.6548 54.8681 43.0572 55.3329 43.0572 55.8837V61.5556H51.651V55.8837H51.6549C51.6549 55.3681 52.0103 54.9189 52.5181 54.8056C55.1236 54.2197 57.6079 53.1923 59.8619 51.7665C60.3034 51.4618 60.901 51.5165 61.2799 51.8954L65.2916 55.911L71.3697 49.8329L67.358 45.8173C66.9948 45.4501 66.9323 44.8838 67.2057 44.4501C68.6237 42.204 69.6549 39.7353 70.2487 37.1454C70.3268 36.6025 70.7956 36.1962 71.3464 36.1962H77.0183V27.5907H71.366C70.8465 27.5907 70.4012 27.2313 70.2879 26.7274C69.6981 24.1219 68.6707 21.6376 67.2488 19.3836C66.9402 18.9422 66.9949 18.3445 67.3738 17.9656L71.3855 13.95L65.3074 7.87194L61.2957 11.8836V11.8875C60.9324 12.2508 60.366 12.3133 59.9285 12.0399C57.6863 10.618 55.2137 9.59068 52.6277 8.99689C52.0808 8.91876 51.6785 8.45001 51.6785 7.89919L51.6628 2.21948Z" fill="black"/>
</svg>
