<svg width="62" height="62" viewBox="0 0 62 62" fill="none" xmlns="http://www.w3.org/2000/svg">
<path d="M60.4225 52.7355C55.4959 47.8089 50.2048 42.5212 44.9355 37.2546C42.7364 35.0575 40.5427 32.8652 38.3796 30.7035L48.9495 20.1336C49.5357 19.5474 50.2572 19.2761 51.0793 19.3386C51.3016 19.3543 51.5233 19.3624 51.7464 19.3624C54.2454 19.3624 56.5954 18.3894 58.3621 16.622C61.4901 13.4947 61.996 8.54839 59.565 4.86075C59.3855 4.59011 59.0924 4.43031 58.7551 4.43983C58.4301 4.44935 58.1336 4.62615 57.9718 4.90767L54.8975 10.2327C54.5194 10.8876 53.8115 11.2942 53.0499 11.2942C52.6807 11.2942 52.3148 11.1963 51.9939 11.0107L50.2034 9.97775C49.1889 9.39159 48.8394 8.08871 49.4248 7.07347L52.3223 2.05575C52.4916 1.76199 52.4896 1.39955 52.3155 1.10783C52.1414 0.816111 51.8184 0.623671 51.4852 0.650871C49.0855 0.716831 46.8272 1.68855 45.1279 3.38787C43.2518 5.26399 42.2576 7.86091 42.4011 10.5129C42.4446 11.3221 42.1767 12.0232 41.6035 12.5964L30.9492 23.25C29.4464 21.6221 28.472 19.886 27.8382 17.6985L24.7055 6.88443C24.2669 5.37007 23.3774 4.28003 22.0623 3.64287C18.6576 1.99319 15.6676 1.19215 12.9218 1.19215C10.1943 1.19215 7.74627 1.99319 5.43835 3.64083C5.16499 3.83599 5.01743 4.16307 5.05075 4.49627C5.08407 4.83083 5.29419 5.12119 5.60087 5.25855L14.2675 9.13115L14.5789 10.7788L12.4702 16.2358C10.7335 15.566 8.99407 14.8969 7.25259 14.2278C5.29215 13.4743 3.33171 12.7209 1.37943 11.9681C1.06459 11.8464 0.710313 11.9028 0.449873 12.1164C0.188753 12.3292 0.0622726 12.6658 0.118713 12.9976C1.07819 18.6919 3.90359 22.6115 8.97571 25.2791L8.40587 26.754C8.30727 27.0097 8.32563 27.2967 8.45619 27.5381C8.58675 27.7795 8.81727 27.9515 9.08587 28.0079L22.9633 30.9381C23.0456 30.9551 23.1238 30.9768 23.204 30.9972L12.3696 41.8296C11.7957 42.4036 11.0946 42.6742 10.2854 42.6279C7.61911 42.4811 5.04735 43.4678 3.16035 45.3548C0.0330324 48.4827 -0.472208 53.4291 1.95879 57.1167C2.13763 57.3873 2.44227 57.5614 2.76867 57.537C3.09371 57.5274 3.38951 57.3506 3.55203 57.0691L6.62631 51.744C7.00439 51.0892 7.71227 50.6826 8.47455 50.6826C8.84379 50.6826 9.20963 50.7805 9.52991 50.9654L11.3204 51.999C12.3349 52.5852 12.6838 53.8881 12.0983 54.9033L9.20147 59.921C9.03147 60.2148 9.03419 60.5779 9.20827 60.8696C9.37759 61.1532 9.68359 61.3266 10.0134 61.3266C10.0216 61.3266 10.0304 61.3266 10.0392 61.3266C12.4396 61.26 14.6979 60.2876 16.3959 58.5896C18.3148 56.6713 19.3049 54.0166 19.1132 51.3068C19.0547 50.4799 19.3219 49.7632 19.9081 49.177L31.2437 37.8408L53.2811 59.8782C54.2311 60.8288 55.5 61.3524 56.8518 61.3524C58.2036 61.3524 59.4725 60.8288 60.4232 59.8782C61.3738 58.9276 61.8974 57.6594 61.8974 56.3068C61.8967 54.9543 61.3731 53.6854 60.4225 52.7355ZM42.9274 13.9204C43.8794 12.9684 44.3446 11.7553 44.2718 10.4109C44.1576 8.28931 44.9525 6.21259 46.4526 4.71183C47.3746 3.78975 48.5028 3.13559 49.7315 2.79355L47.8017 6.13575C46.6994 8.04519 47.3563 10.4966 49.265 11.5989L51.0555 12.6325C51.6614 12.982 52.3502 13.167 53.0486 13.167C54.4779 13.167 55.8073 12.4013 56.5193 11.1691L58.7368 7.32847C59.7676 10.0335 59.1502 13.184 57.0381 15.2967C55.4979 16.8362 53.3892 17.625 51.2119 17.4693C49.8383 17.3775 48.5932 17.8406 47.6262 18.8082L37.0543 29.3788C35.4298 27.755 33.8297 26.1556 32.261 24.5876L42.9274 13.9204ZM9.63735 23.5159C5.69879 21.3922 3.38135 18.4954 2.31307 14.3352C3.73359 14.8826 5.15683 15.4293 6.58007 15.9767C8.30999 16.6418 10.0399 17.3068 11.7651 17.9718C11.64 18.3105 11.5148 18.6505 11.3897 18.9918C11.2945 19.2509 11.198 19.5127 11.1021 19.7738L9.90935 22.8597C9.81959 23.0786 9.72983 23.2996 9.63735 23.5159ZM29.9184 36.5148L18.5828 47.8517C17.609 48.8248 17.1459 50.0651 17.2432 51.438C17.3975 53.6059 16.6053 55.7288 15.0706 57.2629C14.1492 58.1843 13.021 58.8392 11.7916 59.1805L13.7214 55.839C14.8237 53.9289 14.1668 51.4788 12.2574 50.3759L10.467 49.3416C9.86107 48.9921 9.17223 48.8078 8.47455 48.8078C7.04519 48.8078 5.71579 49.5735 5.00383 50.8056L2.78567 54.6463C1.75479 51.9412 2.37223 48.7908 4.48499 46.6774C5.99459 45.1684 8.05907 44.3817 10.1841 44.4966C11.5312 44.5748 12.7456 44.1015 13.6942 43.1522L25.0455 31.8017C25.0788 31.8241 25.1114 31.8479 25.1448 31.871C25.2434 31.9417 25.3413 32.0138 25.4378 32.0914C25.4814 32.1267 25.5256 32.1621 25.5691 32.1981C25.7051 32.3137 25.839 32.4348 25.971 32.566L29.9184 36.5148ZM59.0972 58.5529C58.5001 59.1499 57.7025 59.4783 56.8504 59.4783C55.9991 59.4783 55.2014 59.1499 54.6044 58.5529L27.2949 31.2441C27.1467 31.0958 26.9957 30.9557 26.842 30.8225C26.8067 30.7919 26.7706 30.7647 26.7346 30.7354C26.6142 30.6341 26.4932 30.5348 26.3688 30.443C26.332 30.4158 26.294 30.3914 26.2572 30.3648C26.1314 30.2744 26.0043 30.1874 25.8744 30.1058C25.839 30.084 25.8023 30.0629 25.7656 30.0418C25.6337 29.9623 25.4997 29.8861 25.363 29.8154C25.3494 29.8079 25.3358 29.7998 25.3222 29.7923C25.3168 29.7896 25.3107 29.7896 25.3052 29.7868C24.7041 29.4822 24.0595 29.2551 23.3475 29.1048L10.5472 26.4018L11.6372 23.5818C12.0616 22.553 12.4587 21.5031 12.8429 20.4613L16.4197 11.2052C16.4829 11.042 16.4992 10.8652 16.4659 10.6931L16.013 8.30155C15.9559 8.00031 15.7553 7.74599 15.4745 7.62087L7.97951 4.26915C9.52787 3.46131 11.1578 3.06487 12.9211 3.06487C15.3779 3.06487 18.1006 3.80539 21.2456 5.32859C22.0746 5.72979 22.6179 6.40911 22.9062 7.40531L26.039 18.22C26.8169 20.9053 28.1 23.0766 30.0768 25.0513C30.1407 25.1152 30.2074 25.1819 30.272 25.2472C30.272 25.2472 30.2733 25.2485 30.274 25.2499L36.392 31.3658L36.3933 31.3665C38.7699 33.7424 41.1866 36.1571 43.6108 38.5799C48.8795 43.8451 54.1712 49.1335 59.0972 54.0601C59.6942 54.6572 60.0226 55.4548 60.0226 56.3061C60.0233 57.1582 59.6942 57.9558 59.0972 58.5529Z" fill="black"/>
<path d="M56.8658 53.9547C56.2457 53.9547 55.6616 54.1954 55.2236 54.6347C54.7844 55.0733 54.543 55.6567 54.543 56.2769C54.543 56.8971 54.7844 57.4812 55.2236 57.9191C55.6622 58.3584 56.2457 58.5998 56.8658 58.5998C57.486 58.5998 58.0701 58.3584 58.508 57.9191C58.9473 57.4805 59.1887 56.8971 59.1887 56.2769C59.1887 55.6567 58.9473 55.0726 58.508 54.6347C58.0701 54.1954 57.486 53.9547 56.8658 53.9547ZM57.5146 56.9256C57.1678 57.2731 56.5632 57.2724 56.2171 56.9256C56.0437 56.7522 55.9478 56.5217 55.9478 56.2769C55.9478 56.0321 56.0437 55.8016 56.2171 55.6282C56.3905 55.4548 56.621 55.3596 56.8658 55.3596C57.1106 55.3596 57.3412 55.4548 57.5146 55.6282C57.688 55.8016 57.7838 56.0321 57.7838 56.2769C57.7838 56.5217 57.688 56.7522 57.5146 56.9256Z" fill="black"/>
<path d="M24.0536 19.1156L16.8844 16.7757C16.5165 16.6547 16.1194 16.8566 15.9983 17.2252L13.8142 23.9157C13.6938 24.285 13.8951 24.6814 14.2636 24.8018L21.4329 27.1423C21.5036 27.1654 21.5777 27.177 21.6512 27.177C21.7606 27.177 21.8694 27.1512 21.9694 27.1008C22.1353 27.0158 22.2611 26.8696 22.3189 26.6922L24.5031 20.001C24.5609 19.8235 24.5459 19.631 24.4616 19.4644C24.3773 19.2978 24.2311 19.1727 24.0536 19.1156ZM17.1162 18.3295L18.6911 18.8436L18.4008 19.7344L17.4318 19.4114L16.9877 20.7442L17.9656 21.0692L17.667 21.9845L16.73 21.6724L16.286 23.0052L17.2318 23.32L16.9449 24.1986L15.37 23.6845L17.1162 18.3295ZM21.2017 25.5885L18.279 24.6352L18.5633 23.7641L19.5608 24.0959L20.0049 22.7631L18.9992 22.4286L19.2977 21.5133L20.2626 21.8349L20.7066 20.5021L19.7329 20.1778L20.026 19.2802L22.9486 20.2335L21.2017 25.5885Z" fill="black"/>
</svg>
