<svg width="80" height="80" viewBox="0 0 80 80" fill="none" xmlns="http://www.w3.org/2000/svg">
<path d="M77.0317 10.6366H71.9653C70.7114 10.6366 69.6411 11.4179 69.2036 12.5194L66.2505 11.371C67.4966 9.9452 67.4419 7.7694 66.0864 6.4101L64.9458 5.2695L66.2466 3.9687C67.2115 3.00386 68.3443 2.5312 69.7114 2.5312H78.7348C79.434 2.5312 80.0004 1.96479 80.0004 1.2656C80.0004 0.56638 79.434 0 78.7348 0H69.7114C67.6684 0 65.9028 0.730469 64.4575 2.1758L63.1567 3.4766L62.0161 2.336C60.5981 0.918 58.2895 0.918 56.8716 2.336L53.0005 6.2071L48.606 4.4962C46.1763 3.55089 43.4849 4.29308 42.0552 6.3009L39.3169 10.1486H29.4302C28.731 10.1486 28.1646 10.715 28.1646 11.4142C28.1646 12.1134 28.731 12.6798 29.4302 12.6798H37.5161L33.6606 18.1017C32.2114 20.1369 32.8403 22.3751 34.2075 23.5314C34.4927 23.7736 34.8247 23.9767 35.1841 24.133C34.4809 25.2189 34.4145 26.5978 34.9848 27.7424L19.5158 43.2114C19.4065 43.3207 19.3127 43.4535 19.2502 43.602L16.2619 50.4887C16.0549 50.9652 16.1604 51.5199 16.5275 51.8871C16.7697 52.1293 17.094 52.2582 17.4221 52.2582C17.594 52.2582 17.7619 52.223 17.926 52.1527L24.8127 49.1644C24.9611 49.1019 25.0939 49.0081 25.2033 48.8988L40.6723 33.4298C41.184 33.6837 41.7426 33.8165 42.3012 33.8165C43.2309 33.8165 44.1645 33.461 44.8715 32.754L51.4809 26.1446C54.3754 27.2423 55.4418 27.7852 58.0082 29.6954V77.4724L2.5312 77.4763V12.6913H7.6523C8.35152 12.6913 8.9179 12.1249 8.9179 11.4257C8.9179 10.7265 8.35149 10.1601 7.6523 10.1601H1.2656C0.56638 10.1601 0 10.7265 0 11.4257V78.7417C0 79.4409 0.56641 80.0073 1.2656 80.0073H59.2856C59.9848 80.0073 60.5512 79.4409 60.5512 78.7417V31.6207C60.727 31.7535 60.9067 31.8941 61.0942 32.0348C62.3247 32.9801 63.6801 33.441 65.2348 33.441H69.0551C69.3285 34.8004 70.5278 35.8277 71.9653 35.8277H77.0317C78.6684 35.8277 80.0005 34.4957 80.0005 32.8589V13.6049C80.0005 11.9682 78.6685 10.6366 77.0317 10.6366ZM35.7267 19.578L44.1212 7.777C44.8907 6.6989 46.3243 6.3317 47.6954 6.86294L51.0548 8.17154L37.8358 21.3905C37.0741 22.1484 36.3124 22.0038 35.8514 21.6132C35.3787 21.2148 35.0975 20.4687 35.7303 19.582L35.7267 19.578ZM24.3167 46.223L22.2073 44.1136L36.6483 29.6726L38.7577 31.782L24.3167 46.223ZM19.8675 48.5628L20.8401 46.3206L22.1096 47.5901L19.8675 48.5628ZM43.0905 30.9688C42.6569 31.4024 41.9577 31.3985 41.5241 30.9688L37.4577 26.9024C37.0241 26.4688 37.0241 25.7696 37.4577 25.336L39.6179 23.1758L39.6218 23.1719L58.6648 4.12889C59.0984 3.6953 59.7976 3.6992 60.2312 4.12889L64.2976 8.19529C64.5046 8.40232 64.6179 8.67967 64.6179 8.97654C64.6179 9.27341 64.5046 9.55076 64.2976 9.75779L56.3484 17.707L49.5828 16.9804C47.0047 16.5507 45.3445 18.1366 44.8875 19.8046C44.4109 21.5468 45.0906 23.7499 47.3094 24.5858C47.8758 24.8007 48.3992 24.9921 48.8836 25.1757L43.0905 30.9688ZM62.6295 30.0274C56.524 25.3399 56.4107 25.2735 50.5745 23.1055C49.8753 22.8438 49.0901 22.5547 48.1995 22.2188C47.2307 21.8555 47.1956 20.9493 47.3284 20.4727C47.4104 20.1758 47.7815 19.2344 49.1878 19.4805C49.2151 19.4844 49.2425 19.4883 49.2737 19.4922L56.6799 20.2891C57.0588 20.3281 57.4377 20.1953 57.7111 19.9258L64.3127 13.3242L68.9963 15.1484V30.9104H65.2307C64.2424 30.9104 63.4147 30.629 62.6295 30.0274ZM77.4695 32.8555C77.4695 33.0938 77.2703 33.2969 77.0281 33.2969H71.9617C71.7234 33.2969 71.5203 33.0977 71.5203 32.8555V13.6015C71.5203 13.3632 71.7195 13.1601 71.9617 13.1601H77.0281C77.2663 13.1601 77.4695 13.3593 77.4695 13.6015V32.8555ZM9.61448 22.7465V32.3637C9.61448 33.0629 10.1809 33.6293 10.8801 33.6293H14.4231V44.2073C14.4231 44.9065 14.9895 45.4729 15.6887 45.4729C16.3879 45.4729 16.9543 44.9065 16.9543 44.2073V33.6293H20.4973C21.1965 33.6293 21.7629 33.0629 21.7629 32.3637V22.7465C21.7629 22.0473 21.1965 21.4809 20.4973 21.4809H10.8801C10.1809 21.4809 9.61448 22.0473 9.61448 22.7465ZM12.1457 24.0121H19.2316V31.098H12.1457V24.0121ZM15.6887 54.1681C14.9895 54.1681 14.4231 54.7345 14.4231 55.4337V58.2384H10.8801C10.1809 58.2384 9.61448 58.8048 9.61448 59.504V69.1212C9.61448 69.8204 10.1809 70.3868 10.8801 70.3868H20.4973C21.1965 70.3868 21.7629 69.8204 21.7629 69.1212V65.5782H38.4659V69.1212C38.4659 69.8204 39.0323 70.3868 39.7315 70.3868H49.3487C50.0479 70.3868 50.6143 69.8204 50.6143 69.1212V59.504C50.6143 58.8048 50.0479 58.2384 49.3487 58.2384H45.8057V51.7267H49.169C49.8682 51.7267 50.4346 51.1603 50.4346 50.4611V43.6603C51.7744 43.1486 52.7315 41.8478 52.7315 40.3322C52.7315 38.3674 51.1338 36.7697 49.169 36.7697C47.2042 36.7697 45.6065 38.3674 45.6065 40.3322C45.6065 41.8517 46.5635 43.1486 47.9034 43.6603V49.1955H44.5401C43.8409 49.1955 43.2745 49.7619 43.2745 50.4611V58.2345H39.7315C39.0323 58.2345 38.4659 58.8009 38.4659 59.5001V63.0431H31.38V56.172H38.3331C39.0323 56.172 39.5987 55.6056 39.5987 54.9064V48.4025C40.9425 47.8908 41.8956 46.59 41.8956 45.0744C41.8956 43.1096 40.2979 41.5119 38.3331 41.5119C36.3683 41.5119 34.7706 43.1096 34.7706 45.0744C34.7706 46.5939 35.7276 47.8908 37.0675 48.4025V53.6408H30.1144C29.4152 53.6408 28.8488 54.2072 28.8488 54.9064V63.0431H21.7629V59.5001C21.7629 58.8009 21.1965 58.2345 20.4973 58.2345H16.9543V55.4298C16.9543 54.7306 16.3879 54.1642 15.6887 54.1642V54.1681ZM49.1657 39.3011C49.736 39.3011 50.1969 39.7659 50.1969 40.3323C50.1969 40.9026 49.732 41.3635 49.1657 41.3635C48.5954 41.3635 48.1345 40.8987 48.1345 40.3323C48.1345 39.762 48.5993 39.3011 49.1657 39.3011ZM40.9938 60.7661H48.0797V67.852H40.9938V60.7661ZM38.3297 44.0431C38.9 44.0431 39.3609 44.5079 39.3609 45.0743C39.3609 45.6446 38.896 46.1055 38.3297 46.1055C37.7594 46.1055 37.2985 45.6406 37.2985 45.0743C37.2985 44.504 37.7633 44.0431 38.3297 44.0431ZM19.2317 67.8521H12.1458V60.7662H19.2317V67.8521ZM22.1848 9.86809C20.9504 8.58289 20.384 6.82899 20.6262 5.06339C20.8684 3.29779 21.8879 1.76259 23.4192 0.85639C24.0207 0.50092 24.7981 0.70014 25.1536 1.3017C25.5091 1.90326 25.3098 2.6806 24.7083 3.0361C23.8411 3.54782 23.2669 4.415 23.1302 5.4111C22.9974 6.39548 23.3059 7.3681 23.9817 8.0908C26.5051 10.3877 26.9895 14.1142 25.1223 16.9775C24.8801 17.3486 24.4739 17.5517 24.0598 17.5517C23.8216 17.5517 23.5833 17.4853 23.3723 17.3486C22.7864 16.9658 22.6223 16.1845 23.0012 15.5986C24.1887 13.7744 23.8723 11.3955 22.2512 9.9424C22.2278 9.91896 22.2044 9.89943 22.1809 9.87599L22.1848 9.86809ZM16.0364 9.86809C14.802 8.58289 14.2356 6.82899 14.4778 5.06339C14.72 3.29779 15.7395 1.76259 17.2708 0.85639C17.8723 0.50092 18.6497 0.70014 19.0052 1.3017C19.3607 1.90326 19.1614 2.6806 18.5599 3.0361C17.6966 3.54782 17.1185 4.415 16.9818 5.4111C16.849 6.39548 17.1575 7.3681 17.8333 8.0908C20.3567 10.3877 20.8411 14.1142 18.9739 16.9775C18.7317 17.3486 18.3255 17.5517 17.9114 17.5517C17.6732 17.5517 17.4349 17.4853 17.2239 17.3486C16.638 16.9658 16.4739 16.1845 16.8528 15.5986C18.0403 13.7744 17.7278 11.3955 16.1028 9.9424C16.0794 9.91896 16.056 9.89943 16.0325 9.87599L16.0364 9.86809ZM9.88798 9.86809C8.65358 8.58289 8.08718 6.82899 8.32938 5.06339C8.57157 3.29779 9.59108 1.76259 11.1224 0.85639C11.7239 0.50092 12.5013 0.70014 12.8568 1.3017C13.2122 1.90326 13.013 2.6806 12.4115 3.0361C11.5482 3.54782 10.9701 4.415 10.8334 5.4111C10.6966 6.39548 11.0091 7.3681 11.6849 8.0908C14.2083 10.3877 14.6927 14.1142 12.8255 16.9775C12.5833 17.3486 12.1771 17.5517 11.763 17.5517C11.5247 17.5517 11.2865 17.4853 11.0755 17.3486C10.4896 16.9658 10.3255 16.1845 10.7044 15.5986C11.8919 13.7744 11.5794 11.3955 9.95444 9.9424C9.931 9.91896 9.90757 9.89943 9.88413 9.87599L9.88798 9.86809Z" fill="black"/>
</svg>
