<svg width="83" height="79" viewBox="0 0 83 79" fill="none" xmlns="http://www.w3.org/2000/svg">
<path d="M82.225 25.2558H79.6011V16.58C79.6014 16.2837 79.5433 15.9903 79.4302 15.7164C79.317 15.4426 79.1511 15.1937 78.9418 14.984C78.7325 14.7743 78.4839 14.6079 78.2103 14.4943C77.9367 14.3806 77.6433 14.322 77.347 14.3217H74.0505C73.9033 13.4874 73.454 12.7365 72.7884 12.2124C72.1228 11.6883 71.2875 11.4276 70.4419 11.4803C69.5963 11.5329 68.7997 11.8951 68.2042 12.4977C67.6087 13.1003 67.256 13.9011 67.2134 14.7472C67.1708 15.5934 67.4413 16.4256 67.9733 17.0849C68.5053 17.7443 69.2615 18.1846 70.0975 18.3219C70.9335 18.4592 71.7908 18.2838 72.5057 17.8291C73.2206 17.3745 73.743 16.6725 73.9732 15.8572H77.347C77.5369 15.8577 77.7188 15.9334 77.8531 16.0677C77.9874 16.2019 78.063 16.3839 78.0636 16.5737V25.2496H59.682V6.63613C59.6826 6.44626 59.7583 6.26432 59.8925 6.13006C60.0268 5.9958 60.2087 5.92013 60.3986 5.91958H63.7306C63.9193 6.74559 64.4057 7.47316 65.0968 7.96336C65.7879 8.45355 66.6353 8.67203 67.4773 8.57707C68.3192 8.48212 69.0967 8.08038 69.6613 7.44857C70.2258 6.81676 70.5379 5.99915 70.5379 5.15186C70.5379 4.30456 70.2258 3.48695 69.6613 2.85514C69.0967 2.22333 68.3192 1.8216 67.4773 1.72664C66.6353 1.63168 65.7879 1.85016 65.0968 2.34036C64.4057 2.83055 63.9193 3.55812 63.7306 4.38413H60.4007C59.8037 4.38524 59.2316 4.62285 58.8095 5.04495C58.3874 5.46704 58.1498 6.0392 58.1487 6.63613V25.2558H52.3829V11.1088C52.3831 11.005 52.3623 10.9023 52.3217 10.8068C52.2811 10.7113 52.2216 10.625 52.1468 10.5531L48.4262 7.00171C49.1057 6.18623 49.4558 5.14628 49.4079 4.08594C49.3601 3.0256 48.9177 2.02142 48.1675 1.27046C47.4174 0.519508 46.4137 0.075996 45.3534 0.0269626C44.2932 -0.0220708 43.2528 0.326915 42.4366 1.00543C41.6204 1.68395 41.0872 2.64301 40.9417 3.69441C40.7961 4.74581 41.0488 5.81364 41.6501 6.68834C42.2513 7.56305 43.1578 8.18147 44.1915 8.42226C45.2253 8.66305 46.3117 8.50882 47.2376 7.98983L50.8474 11.443V25.2642H43.095V13.4611C43.095 13.2572 43.014 13.0616 42.8698 12.9174C42.7256 12.7733 42.5301 12.6923 42.3262 12.6923C42.1223 12.6923 41.9268 12.7733 41.7826 12.9174C41.6384 13.0616 41.5574 13.2572 41.5574 13.4611V25.2642H35.19V20.1941C35.1954 20.0899 35.1796 19.9857 35.1435 19.8878C35.1074 19.7899 35.0517 19.7004 34.9799 19.6247C34.9081 19.5491 34.8216 19.4888 34.7257 19.4476C34.6299 19.4065 34.5266 19.3852 34.4223 19.3852C34.318 19.3852 34.2147 19.4065 34.1189 19.4476C34.023 19.4888 33.9365 19.5491 33.8647 19.6247C33.7929 19.7004 33.7372 19.7899 33.7011 19.8878C33.665 19.9857 33.6491 20.0899 33.6546 20.1941V25.2558H27.4459V12.3476C27.4465 12.1579 27.5222 11.9762 27.6565 11.8423C27.7908 11.7083 27.9728 11.6331 28.1625 11.6331H30.3789C30.6785 12.4231 31.2584 13.0753 32.0079 13.4653C32.7574 13.8553 33.6242 13.9558 34.4431 13.7478C35.262 13.5398 35.9758 13.0377 36.4483 12.3373C36.9208 11.6369 37.1191 10.7871 37.0054 9.94984C36.8916 9.11262 36.4738 8.34653 35.8315 7.79757C35.1892 7.24861 34.3674 6.95517 33.5227 6.97319C32.6779 6.9912 31.8694 7.3194 31.2511 7.89524C30.6328 8.47107 30.248 9.25428 30.17 10.0956H28.1541C27.5568 10.0961 26.9841 10.3335 26.5616 10.7557C26.139 11.1778 25.9011 11.7503 25.9 12.3476V25.2558H19.6872V8.4536C20.7333 8.26201 21.67 7.68618 22.3133 6.83922C22.9565 5.99226 23.2598 4.9354 23.1636 3.87622C23.0675 2.81704 22.5787 1.83211 21.7934 1.11489C21.0081 0.397667 19.983 0 18.9195 0C17.8559 0 16.8308 0.397667 16.0455 1.11489C15.2602 1.83211 14.7715 2.81704 14.6753 3.87622C14.5791 4.9354 14.8824 5.99226 15.5256 6.83922C16.1689 7.68618 17.1056 8.26201 18.1517 8.4536V25.2558H10.9341V14.9276C10.9344 14.7893 10.8973 14.6536 10.8267 14.5348C10.7561 14.416 10.6546 14.3185 10.533 14.2528L6.73925 12.1846C6.85514 11.8378 6.91439 11.4745 6.91473 11.1088C6.91774 10.3058 6.64117 9.52686 6.13249 8.90558C5.62381 8.28429 4.91474 7.85944 4.12699 7.70392C3.33923 7.54841 2.52191 7.67194 1.81529 8.0533C1.10868 8.43467 0.556834 9.0501 0.254478 9.79396C-0.047878 10.5378 -0.0818934 11.3637 0.15827 12.1299C0.398434 12.8961 0.897799 13.5549 1.57066 13.993C2.24352 14.4312 3.04792 14.6215 3.8458 14.5313C4.64368 14.4411 5.38528 14.076 5.94332 13.4987L9.39861 15.3788V25.2516H3.90441C3.8031 25.2511 3.70268 25.2706 3.60893 25.309C3.51518 25.3474 3.42993 25.4039 3.3581 25.4753C3.28627 25.5468 3.22927 25.6317 3.19038 25.7253C3.15148 25.8188 3.13146 25.9191 3.13146 26.0204V52.8292C3.13146 52.9304 3.1515 53.0306 3.19042 53.124C3.22934 53.2175 3.28637 53.3023 3.35823 53.3735C3.43009 53.4448 3.51535 53.5012 3.60909 53.5393C3.70283 53.5775 3.8032 53.5967 3.90441 53.5959H6.62017V63.7528C5.79416 63.9415 5.0666 64.4279 4.5764 65.119C4.08621 65.8101 3.86773 66.6575 3.96268 67.4995C4.05764 68.3414 4.45938 69.1189 5.09118 69.6835C5.72299 70.248 6.54061 70.5601 7.3879 70.5601C8.2352 70.5601 9.05281 70.248 9.68462 69.6835C10.3164 69.1189 10.7182 68.3414 10.8131 67.4995C10.9081 66.6575 10.6896 65.8101 10.1994 65.119C9.7092 64.4279 8.98164 63.9415 8.15563 63.7528V53.5959H14.2912V65.2737C14.2907 65.4261 14.3358 65.5753 14.4207 65.7019L18.4066 71.6682C17.6946 72.4595 17.3041 73.4883 17.3118 74.5527C17.3195 75.6171 17.7249 76.6402 18.4484 77.421C19.1718 78.2018 20.161 78.6839 21.2218 78.7727C22.2825 78.8615 23.3381 78.5505 24.1813 77.9008C25.0244 77.2511 25.5942 76.3096 25.7788 75.2613C25.9633 74.213 25.7493 73.1336 25.1787 72.235C24.6081 71.3364 23.7221 70.6836 22.6949 70.4048C21.6676 70.126 20.5732 70.2414 19.6266 70.7282L15.8266 65.0418V53.5959H21.4253V65.775C21.4198 65.8792 21.4357 65.9834 21.4718 66.0813C21.5079 66.1792 21.5636 66.2687 21.6354 66.3443C21.7072 66.42 21.7937 66.4803 21.8896 66.5214C21.9854 66.5626 22.0887 66.5839 22.193 66.5839C22.2973 66.5839 22.4006 66.5626 22.4964 66.5214C22.5923 66.4803 22.6788 66.42 22.7506 66.3443C22.8224 66.2687 22.8781 66.1792 22.9142 66.0813C22.9503 65.9834 22.9662 65.8792 22.9607 65.775V53.5959H27.6172V63.0154C27.6183 63.6123 27.8559 64.1845 28.278 64.6066C28.7001 65.0287 29.2723 65.2663 29.8692 65.2674H35.4637C35.6705 66.0872 36.172 66.8022 36.8724 67.2758C37.5728 67.7495 38.4231 67.9487 39.261 67.8354C40.0989 67.722 40.8657 67.3041 41.4151 66.6615C41.9645 66.0188 42.258 65.1963 42.2397 64.351C42.2213 63.5056 41.8923 62.6967 41.3155 62.0785C40.7386 61.4603 39.9544 61.0761 39.1123 60.9993C38.2703 60.9225 37.4295 61.1584 36.7503 61.6621C36.0712 62.1657 35.6013 62.9018 35.4303 63.7299H29.8713C29.6816 63.7299 29.4997 63.6546 29.3654 63.5207C29.231 63.3868 29.1553 63.2051 29.1547 63.0154V53.5959H45.1046V72.5874C45.1046 72.7775 45.0291 72.9597 44.8948 73.0941C44.7604 73.2285 44.5781 73.304 44.3881 73.304H37.6655C37.5681 72.4628 37.1643 71.687 36.5314 71.1244C35.8985 70.5619 35.0807 70.252 34.2339 70.2539C33.3871 70.2557 32.5707 70.5693 31.9402 71.1346C31.3098 71.6999 30.9095 72.4775 30.8158 73.3191C30.722 74.1607 30.9413 75.0073 31.4319 75.6976C31.9224 76.3878 32.6498 76.8733 33.4754 77.0615C34.301 77.2497 35.167 77.1274 35.9082 76.718C36.6494 76.3085 37.214 75.6406 37.4942 74.8415H44.3881C44.9856 74.841 45.5584 74.6032 45.9806 74.1806C46.4029 73.7579 46.6401 73.1849 46.6401 72.5874V53.5959H50.5738V63.4478C50.5683 63.552 50.5842 63.6562 50.6203 63.7541C50.6564 63.852 50.7121 63.9415 50.7839 64.0171C50.8557 64.0928 50.9422 64.1531 51.0381 64.1942C51.1339 64.2354 51.2372 64.2567 51.3415 64.2567C51.4458 64.2567 51.5491 64.2354 51.6449 64.1942C51.7408 64.1531 51.8273 64.0928 51.8991 64.0171C51.9709 63.9415 52.0266 63.852 52.0627 63.7541C52.0988 63.6562 52.1147 63.552 52.1092 63.4478V53.5959H55.7421V66.6587C55.7427 66.839 55.8062 67.0134 55.9217 67.1517L60.0142 72.0464C59.3997 72.9114 59.1308 73.9749 59.2601 75.0281C59.3895 76.0812 59.9078 77.048 60.7134 77.7386C61.519 78.4292 62.5536 78.7938 63.6142 78.7607C64.6748 78.7277 65.6847 78.2994 66.4457 77.56C67.2067 76.8205 67.6638 75.8233 67.7274 74.7642C67.7909 73.705 67.4562 72.6603 66.7891 71.8352C66.1219 71.0101 65.1705 70.4642 64.1215 70.3046C63.0724 70.145 62.0017 70.3832 61.1193 70.9726L57.2796 66.3767V53.5959H62.0844V61.4423C62.079 61.5465 62.0948 61.6507 62.131 61.7486C62.1671 61.8465 62.2228 61.936 62.2946 62.0117C62.3664 62.0873 62.4529 62.1476 62.5487 62.1888C62.6446 62.2299 62.7478 62.2512 62.8522 62.2512C62.9565 62.2512 63.0597 62.2299 63.1556 62.1888C63.2515 62.1476 63.3379 62.0873 63.4097 62.0117C63.4816 61.936 63.5372 61.8465 63.5734 61.7486C63.6095 61.6507 63.6253 61.5465 63.6199 61.4423V53.5959H76.5114V63.6233C76.5109 63.813 76.4351 63.9947 76.3008 64.1286C76.1665 64.2626 75.9846 64.3378 75.7949 64.3378H74.2719H74.2364C74.0076 63.5231 73.4867 62.8213 72.7733 62.3662C72.0598 61.9112 71.2038 61.7348 70.3686 61.8709C69.5334 62.0069 68.7776 62.4457 68.2454 63.1036C67.7132 63.7615 67.4419 64.5923 67.4834 65.4375C67.5248 66.2827 67.8761 67.083 68.4701 67.6856C69.0641 68.2883 69.8593 68.6511 70.7038 68.7047C71.5483 68.7583 72.383 68.499 73.0484 67.9764C73.7139 67.4537 74.1636 66.7043 74.3116 65.8711H75.7949C76.3923 65.8722 76.9658 65.6361 77.3892 65.2146C77.8127 64.7931 78.0515 64.2208 78.0531 63.6233V53.5959H82.2312C82.3321 53.5961 82.432 53.5765 82.5253 53.5381C82.6185 53.4997 82.7033 53.4433 82.7747 53.3721C82.8461 53.3008 82.9028 53.2162 82.9414 53.1231C82.9801 53.0299 83 52.93 83 52.8292V26.0204C82.9995 25.9193 82.979 25.8193 82.9397 25.7261C82.9004 25.6329 82.8431 25.5483 82.7711 25.4773C82.6992 25.4063 82.6138 25.3501 82.5201 25.3121C82.4264 25.2741 82.3261 25.255 82.225 25.2558ZM70.6579 16.839C70.2798 16.839 69.9103 16.7269 69.5959 16.5169C69.2816 16.3069 69.0366 16.0083 68.8919 15.6591C68.7472 15.3098 68.7094 14.9254 68.7831 14.5547C68.8569 14.1839 69.0389 13.8433 69.3063 13.5759C69.5736 13.3086 69.9142 13.1266 70.285 13.0528C70.6558 12.9791 71.0401 13.0169 71.3894 13.1616C71.7387 13.3063 72.0372 13.5513 72.2472 13.8656C72.4573 14.1799 72.5694 14.5495 72.5694 14.9276C72.5688 15.4344 72.3673 15.9202 72.0089 16.2786C71.6506 16.6369 71.1647 16.8385 70.6579 16.839ZM67.0898 3.24978C67.468 3.24936 67.8379 3.36117 68.1525 3.57105C68.4672 3.78093 68.7125 4.07944 68.8575 4.4288C69.0024 4.77816 69.0404 5.16267 68.9667 5.53366C68.8931 5.90464 68.711 6.24543 68.4435 6.51288C68.1761 6.78033 67.8353 6.96242 67.4643 7.03611C67.0933 7.1098 66.7088 7.07177 66.3594 6.92683C66.0101 6.7819 65.7116 6.53658 65.5017 6.22192C65.2918 5.90725 65.18 5.5374 65.1804 5.15917C65.181 4.65294 65.3823 4.1676 65.7403 3.80964C66.0982 3.45168 66.5836 3.25033 67.0898 3.24978ZM42.439 4.27341C42.439 3.73628 42.5983 3.21122 42.8967 2.76461C43.1951 2.31801 43.6193 1.96992 44.1155 1.76437C44.6117 1.55882 45.1578 1.50504 45.6846 1.60983C46.2114 1.71462 46.6953 1.97327 47.0751 2.35308C47.4549 2.73288 47.7136 3.21679 47.8184 3.74359C47.9231 4.2704 47.8694 4.81645 47.6638 5.31269C47.4583 5.80893 47.1102 6.23308 46.6636 6.53149C46.217 6.8299 45.6919 6.98918 45.1548 6.98918C44.433 6.98752 43.7413 6.69992 43.2311 6.18934C42.7209 5.67877 42.4338 4.98684 42.4327 4.26506L42.439 4.27341ZM33.6128 8.53298C33.9907 8.53547 34.3593 8.64989 34.6722 8.8618C34.985 9.0737 35.2281 9.37359 35.3706 9.72356C35.5131 10.0735 35.5487 10.4579 35.4728 10.8281C35.397 11.1983 35.2131 11.5377 34.9445 11.8034C34.6758 12.0691 34.3344 12.2493 33.9634 12.3211C33.5924 12.3929 33.2085 12.3531 32.8601 12.2068C32.5117 12.0605 32.2145 11.8142 32.006 11.499C31.7975 11.1839 31.6871 10.814 31.6888 10.4361C31.689 10.1846 31.7389 9.93569 31.8354 9.70349C31.932 9.4713 32.0733 9.26041 32.2515 9.08288C32.4296 8.90536 32.6409 8.76468 32.8734 8.66889C33.1059 8.5731 33.355 8.52408 33.6065 8.52463L33.6128 8.53298ZM16.1943 4.26506C16.1943 3.72793 16.3536 3.20286 16.652 2.75626C16.9504 2.30965 17.3745 1.96157 17.8708 1.75602C18.367 1.55047 18.9131 1.49669 19.4399 1.60148C19.9667 1.70626 20.4506 1.96491 20.8304 2.34472C21.2102 2.72453 21.4688 3.20843 21.5736 3.73524C21.6784 4.26204 21.6246 4.80809 21.4191 5.30433C21.2135 5.80058 20.8655 6.22472 20.4188 6.52313C19.9722 6.82154 19.4472 6.98082 18.9101 6.98082C18.1908 6.97752 17.502 6.69034 16.9934 6.18175C16.4848 5.67316 16.1976 4.98431 16.1943 4.26506ZM3.4678 13.0182C3.08966 13.0182 2.72001 12.906 2.40562 12.6959C2.09123 12.4858 1.84624 12.1871 1.70162 11.8377C1.55701 11.4883 1.51928 11.1039 1.5932 10.733C1.66713 10.3622 1.84938 10.0216 2.11692 9.75433C2.38445 9.48709 2.72524 9.30521 3.09617 9.23169C3.4671 9.15817 3.8515 9.19632 4.20074 9.34132C4.54998 9.48631 4.84837 9.73164 5.05815 10.0463C5.26794 10.3609 5.37969 10.7306 5.37928 11.1088C5.37873 11.6154 5.17709 12.101 4.81868 12.4591C4.46027 12.8171 3.97439 13.0182 3.4678 13.0182ZM9.30043 67.1099C9.30084 67.4882 9.18903 67.858 8.97915 68.1727C8.76928 68.4873 8.47076 68.7327 8.1214 68.8776C7.77204 69.0225 7.38753 69.0606 7.01655 68.9869C6.64556 68.9132 6.30478 68.7311 6.03732 68.4636C5.76987 68.1962 5.58778 67.8554 5.51409 67.4844C5.4404 67.1134 5.47843 66.7289 5.62337 66.3796C5.7683 66.0302 6.01363 65.7317 6.32829 65.5218C6.64295 65.3119 7.0128 65.2001 7.39103 65.2005C7.8971 65.2016 8.38212 65.4032 8.73996 65.761C9.0978 66.1189 9.29932 66.6039 9.30043 67.1099ZM24.2977 74.5156C24.2977 75.0527 24.1384 75.5778 23.84 76.0244C23.5416 76.471 23.1175 76.8191 22.6212 77.0247C22.125 77.2302 21.5789 77.284 21.0521 77.1792C20.5253 77.0744 20.0414 76.8158 19.6616 76.436C19.2818 76.0561 19.0232 75.5722 18.9184 75.0454C18.8136 74.5186 18.8674 73.9726 19.0729 73.4763C19.2785 72.9801 19.6265 72.5559 20.0731 72.2575C20.5198 71.9591 21.0448 71.7999 21.5819 71.7999C22.3012 71.8031 22.99 72.0903 23.4986 72.5989C24.0072 73.1075 24.2944 73.7964 24.2977 74.5156ZM38.8062 62.5224C39.1838 62.5224 39.553 62.6344 39.867 62.8442C40.181 63.054 40.4257 63.3522 40.5702 63.7011C40.7147 64.05 40.7525 64.4339 40.6789 64.8043C40.6052 65.1747 40.4233 65.5149 40.1563 65.7819C39.8893 66.0489 39.549 66.2308 39.1787 66.3045C38.8083 66.3782 38.4244 66.3403 38.0755 66.1958C37.7266 66.0513 37.4284 65.8066 37.2186 65.4926C37.0088 65.1786 36.8968 64.8094 36.8968 64.4318C36.8979 63.9257 37.0994 63.4407 37.4572 63.0828C37.8151 62.725 38.3001 62.5235 38.8062 62.5224ZM34.2437 75.6124C33.8656 75.6124 33.4961 75.5003 33.1817 75.2902C32.8674 75.0802 32.6224 74.7816 32.4777 74.4324C32.333 74.0831 32.2952 73.6988 32.3689 73.328C32.4427 72.9572 32.6247 72.6166 32.8921 72.3493C33.1594 72.0819 33.5 71.8999 33.8708 71.8261C34.2416 71.7524 34.6259 71.7902 34.9752 71.9349C35.3244 72.0796 35.623 72.3246 35.833 72.6389C36.043 72.9533 36.1552 73.3228 36.1552 73.7009C36.1546 74.2077 35.953 74.6935 35.5947 75.0519C35.2363 75.4102 34.7505 75.6118 34.2437 75.6124ZM66.2061 74.5156C66.2061 75.0523 66.0471 75.5769 65.7492 76.0233C65.4512 76.4697 65.0277 76.8178 64.532 77.0236C64.0364 77.2295 63.4909 77.2839 62.9644 77.1799C62.4379 77.076 61.9539 76.8184 61.5737 76.4396C61.1935 76.0608 60.934 75.5779 60.8281 75.0518C60.7221 74.5257 60.7744 73.98 60.9783 73.4836C61.1823 72.9871 61.5288 72.5623 61.974 72.2626C62.4192 71.9629 62.9432 71.8019 63.4799 71.7999C64.201 71.8004 64.8925 72.0864 65.4034 72.5952C65.9142 73.1041 66.2028 73.7946 66.2061 74.5156ZM70.9274 67.1851C70.5495 67.1843 70.1804 67.0715 69.8666 66.861C69.5528 66.6504 69.3084 66.3516 69.1644 66.0023C69.0204 65.6529 68.9831 65.2687 69.0573 64.8982C69.1315 64.5277 69.3139 64.1875 69.5814 63.9206C69.8489 63.6537 70.1895 63.472 70.5602 63.3986C70.9309 63.3252 71.315 63.3633 71.664 63.5081C72.0131 63.6529 72.3113 63.8979 72.5212 64.2121C72.731 64.5264 72.843 64.8958 72.843 65.2737C72.8428 65.5249 72.793 65.7737 72.6966 66.0058C72.6002 66.2379 72.459 66.4486 72.2811 66.6261C72.1032 66.8036 71.8921 66.9444 71.6598 67.0403C71.4276 67.1362 71.1787 67.1854 70.9274 67.1851ZM81.4562 52.0604H4.66691V26.7934H58.5915C58.6931 26.8415 58.804 26.8665 58.9164 26.8665C59.0288 26.8665 59.1397 26.8415 59.2412 26.7934H78.519C78.6177 26.8371 78.7244 26.8599 78.8324 26.8602C78.9396 26.8599 79.0457 26.8371 79.1436 26.7934H81.4562V52.0604Z" fill="black"/>
<path d="M49.2024 32.519H36.925C36.824 32.5188 36.7239 32.5385 36.6305 32.577C36.5371 32.6155 36.4522 32.6722 36.3808 32.7436C36.3094 32.815 36.2527 32.8999 36.2142 32.9933C36.1757 33.0867 36.156 33.1868 36.1563 33.2878V45.5652C36.1563 45.7691 36.2372 45.9646 36.3814 46.1088C36.5256 46.2529 36.7211 46.3339 36.925 46.3339H49.2024C49.4063 46.3339 49.6018 46.2529 49.746 46.1088C49.8901 45.9646 49.9711 45.7691 49.9711 45.5652V33.2878C49.9711 33.0839 49.8901 32.8884 49.746 32.7442C49.6018 32.6 49.4063 32.519 49.2024 32.519ZM48.4336 44.7985H37.6917V34.0545H48.4336V44.7985Z" fill="black"/>
<path d="M75.3221 32.519H56.3117C56.1078 32.519 55.9123 32.6 55.7681 32.7442C55.624 32.8884 55.543 33.0839 55.543 33.2878V45.5652C55.543 45.769 55.624 45.9646 55.7681 46.1088C55.9123 46.2529 56.1078 46.3339 56.3117 46.3339H75.3221C75.526 46.3339 75.7215 46.2529 75.8657 46.1088C76.0099 45.9646 76.0909 45.769 76.0909 45.5652V33.2878C76.0909 33.0839 76.0099 32.8884 75.8657 32.7442C75.7215 32.6 75.526 32.519 75.3221 32.519ZM74.5533 44.7985H57.0722V34.0545H74.5533V44.7985Z" fill="black"/>
<path d="M29.8208 32.519H10.7979C10.6971 32.519 10.5972 32.5389 10.5041 32.5776C10.4109 32.6163 10.3263 32.6729 10.2551 32.7443C10.1838 32.8157 10.1274 32.9005 10.089 32.9938C10.0506 33.087 10.031 33.187 10.0313 33.2878V45.5652C10.031 45.666 10.0506 45.7659 10.089 45.8592C10.1274 45.9525 10.1838 46.0372 10.2551 46.1086C10.3263 46.18 10.4109 46.2367 10.5041 46.2754C10.5972 46.314 10.6971 46.3339 10.7979 46.3339H29.8187C29.9196 46.3339 30.0195 46.314 30.1126 46.2754C30.2058 46.2367 30.2904 46.18 30.3616 46.1086C30.4328 46.0372 30.4892 45.9525 30.5277 45.8592C30.5661 45.7659 30.5857 45.666 30.5854 45.5652V33.2878C30.5857 33.1871 30.5661 33.0874 30.5279 32.9943C30.4896 32.9011 30.4333 32.8165 30.3623 32.7451C30.2913 32.6737 30.207 32.617 30.1141 32.5782C30.0211 32.5394 29.9215 32.5193 29.8208 32.519ZM29.052 44.7985H11.5688V34.0545H29.052V44.7985Z" fill="black"/>
</svg>
