<?xml version="1.0" encoding="UTF-8"?>
<svg id="Layer_2" data-name="Layer 2" xmlns="http://www.w3.org/2000/svg" xmlns:xlink="http://www.w3.org/1999/xlink" viewBox="0 0 865.26 357.38">
  <defs>
    <style>
      .cls-1 {
        stroke: #fff;
        stroke-miterlimit: 10;
      }

      .cls-1, .cls-2 {
        fill: #fff;
      }

      .cls-3 {
        fill: url(#radial-gradient);
      }

      .cls-4 {
        fill: #fc0200;
      }
    </style>
    <radialGradient id="radial-gradient" cx="373.37" cy="131.97" fx="373.37" fy="131.97" r="140.23" gradientTransform="translate(-266.37 151.12) rotate(-20.85) scale(1 1.31)" gradientUnits="userSpaceOnUse">
      <stop offset=".17" stop-color="#fc0200"/>
      <stop offset=".47" stop-color="#f2ee10"/>
      <stop offset=".49" stop-color="#ebee10"/>
      <stop offset=".52" stop-color="#d8ee11"/>
      <stop offset=".55" stop-color="#baef12"/>
      <stop offset=".59" stop-color="#90f014"/>
      <stop offset=".63" stop-color="#5af116"/>
      <stop offset=".67" stop-color="#1af319"/>
      <stop offset=".67" stop-color="#19f21a"/>
      <stop offset=".69" stop-color="#17ee54"/>
      <stop offset=".71" stop-color="#15ea86"/>
      <stop offset=".74" stop-color="#13e7ae"/>
      <stop offset=".76" stop-color="#11e5ce"/>
      <stop offset=".78" stop-color="#10e3e4"/>
      <stop offset=".79" stop-color="#10e2f2"/>
      <stop offset=".81" stop-color="#10e2f7"/>
      <stop offset=".86" stop-color="#0db0f5"/>
      <stop offset="1" stop-color="#050ef1"/>
    </radialGradient>
  </defs>
  <g id="Layer_1-2" data-name="Layer 1">
    <g>
      <g>
        <g>
          <path class="cls-2" d="M491.99,181.32c-10.38,3.13-31.13,7.73-55.35,7.73-27.14,0-49.49-5.43-67.05-18.6-15.43-11.7-25.01-30.51-25.01-52.46,0-42.01,36.99-72.73,97.12-72.73,20.75,0,37.25,3.55,44.97,6.48l-5.85,14.84c-9.58-3.55-21.55-6.06-39.65-6.06-43.64,0-72.11,21.32-72.11,56.63s27.14,56.84,69.18,56.84c15.17,0,25.54-1.67,30.87-3.76v-42.01h-36.19v-14.63h59.07v67.71Z"/>
          <path class="cls-2" d="M527.11,48.83c14.1-1.88,30.87-3.13,49.22-3.13,33.26,0,56.94,6.27,72.64,17.55,16.23,11.49,25.54,27.79,25.54,50.57s-9.31,41.8-25.81,54.75c-17.03,13.17-44.7,20.27-79.56,20.27-16.76,0-30.33-.63-42.04-1.67V48.83ZM550.25,173.38c5.85.63,14.37.84,23.42.84,49.76,0,76.37-21.73,76.37-59.77.27-33.23-23.68-54.34-72.64-54.34-11.97,0-21.02.84-27.14,1.88v111.39Z"/>
          <path class="cls-2" d="M701.38,165.44c10.38,5.22,25.28,9.2,41.24,9.2,23.68,0,37.52-9.82,37.52-24.03,0-12.96-9.58-20.69-33.79-27.79-29.27-8.36-47.36-20.48-47.36-40.12,0-21.94,23.15-38.24,58.01-38.24,18.09,0,31.66,3.34,39.38,6.9l-6.39,14.84c-5.59-2.72-17.56-6.69-33.79-6.69-24.48,0-33.79,11.49-33.79,21.11,0,13.17,10.91,19.64,35.65,27.17,30.33,9.2,45.5,20.69,45.5,41.38,0,21.73-20.22,40.75-62.53,40.75-17.29,0-36.19-4.18-45.77-9.2l6.12-15.26Z"/>
          <path class="cls-2" d="M858.63,46.74v140.86h-23.42V46.74h23.42Z"/>
        </g>
        <g>
          <path class="cls-2" d="M368.68,236.94c-1.61.6-4.74,1.42-8.06,1.42-4.25,0-7.5-1.08-9.89-3.36-2.24-2.13-3.51-5.45-3.51-9.26.04-7.99,5.67-13.06,14-13.06,3.1,0,5.52.63,6.68,1.2l-1.01,3.7c-1.38-.63-3.06-1.08-5.71-1.08-5.38,0-9.14,3.17-9.14,9.03s3.51,9.11,8.73,9.11c1.68,0,2.87-.22,3.47-.49v-6.31h-4.44v-3.62h8.88v12.73Z"/>
          <path class="cls-2" d="M372.97,225.78c0-2.46-.04-4.26-.15-5.86h3.96l.19,3.44h.11c.9-2.54,3.02-3.85,5-3.85.45,0,.71.04,1.08.11v4.29c-.41-.07-.82-.11-1.38-.11-2.17,0-3.7,1.38-4.11,3.47-.07.41-.11.9-.11,1.38v9.44h-4.59v-12.32Z"/>
          <path class="cls-2" d="M390.61,214.85c0,1.34-1.01,2.46-2.61,2.46s-2.54-1.12-2.54-2.46c0-1.42,1.04-2.5,2.58-2.5s2.54,1.08,2.58,2.5ZM385.72,238.1v-18.18h4.59v18.18h-4.59Z"/>
          <path class="cls-2" d="M394.74,225.33c0-2.09-.07-3.84-.15-5.41h3.99l.22,2.72h.11c.82-1.42,2.8-3.13,5.82-3.13,3.17,0,6.46,2.05,6.46,7.8v10.79h-4.59v-10.26c0-2.61-.97-4.59-3.47-4.59-1.83,0-3.1,1.31-3.58,2.69-.15.37-.22.93-.22,1.46v10.71h-4.59v-12.77Z"/>
          <path class="cls-2" d="M432.4,211.6v21.39c0,1.87.07,3.88.15,5.11h-4.07l-.22-2.88h-.07c-1.08,2.02-3.28,3.29-5.9,3.29-4.37,0-7.8-3.7-7.8-9.29-.04-6.08,3.77-9.71,8.14-9.71,2.5,0,4.29,1.01,5.11,2.35h.08v-10.26h4.59ZM427.81,227.5c0-.37-.04-.86-.11-1.23-.41-1.75-1.87-3.21-3.96-3.21-2.95,0-4.59,2.61-4.59,5.97s1.64,5.79,4.55,5.79c1.87,0,3.51-1.27,3.96-3.25.11-.41.15-.86.15-1.34v-2.72Z"/>
          <path class="cls-2" d="M441.71,214.85c0,1.34-1.01,2.46-2.61,2.46s-2.54-1.12-2.54-2.46c0-1.42,1.04-2.5,2.58-2.5s2.54,1.08,2.58,2.5ZM436.82,238.1v-18.18h4.59v18.18h-4.59Z"/>
          <path class="cls-2" d="M445.83,225.33c0-2.09-.07-3.84-.15-5.41h3.99l.22,2.72h.11c.82-1.42,2.8-3.13,5.82-3.13,3.17,0,6.46,2.05,6.46,7.8v10.79h-4.59v-10.26c0-2.61-.97-4.59-3.47-4.59-1.83,0-3.1,1.31-3.58,2.69-.15.37-.22.93-.22,1.46v10.71h-4.59v-12.77Z"/>
          <path class="cls-2" d="M483.17,235.45c0,3.81-.78,6.53-2.69,8.25-1.87,1.68-4.52,2.2-7.02,2.2-2.31,0-4.78-.52-6.34-1.46l1.01-3.47c1.16.67,3.1,1.38,5.3,1.38,2.99,0,5.22-1.57,5.22-5.49v-1.57h-.07c-1.04,1.6-2.87,2.69-5.3,2.69-4.52,0-7.73-3.73-7.73-8.88,0-5.97,3.88-9.59,8.25-9.59,2.8,0,4.4,1.34,5.26,2.84h.07l.19-2.43h3.99c-.08,1.23-.15,2.72-.15,5.23v10.3ZM478.58,227.2c0-.45-.04-.86-.15-1.23-.49-1.68-1.79-2.95-3.73-2.95-2.58,0-4.48,2.24-4.48,5.93,0,3.1,1.57,5.6,4.44,5.6,1.72,0,3.21-1.12,3.73-2.8.15-.45.19-1.08.19-1.61v-2.95Z"/>
          <path class="cls-2" d="M509.94,233.73c0,1.64.08,3.25.3,4.37h-4.14l-.34-2.02h-.11c-1.08,1.42-2.99,2.43-5.38,2.43-3.66,0-5.71-2.65-5.71-5.41,0-4.55,4.07-6.9,10.79-6.87v-.3c0-1.19-.49-3.17-3.69-3.17-1.79,0-3.66.56-4.89,1.34l-.9-2.99c1.34-.82,3.69-1.61,6.57-1.61,5.82,0,7.5,3.7,7.5,7.69v6.53ZM505.46,229.22c-3.25-.04-6.34.63-6.34,3.4,0,1.79,1.16,2.61,2.61,2.61,1.87,0,3.17-1.19,3.62-2.5.11-.34.11-.67.11-1.01v-2.5Z"/>
          <path class="cls-2" d="M514.21,225.33c0-2.09-.07-3.84-.15-5.41h3.99l.22,2.72h.11c.82-1.42,2.8-3.13,5.82-3.13,3.17,0,6.46,2.05,6.46,7.8v10.79h-4.59v-10.26c0-2.61-.97-4.59-3.47-4.59-1.83,0-3.1,1.31-3.58,2.69-.15.37-.22.93-.22,1.46v10.71h-4.59v-12.77Z"/>
          <path class="cls-2" d="M551.87,211.6v21.39c0,1.87.07,3.88.15,5.11h-4.07l-.22-2.88h-.07c-1.08,2.02-3.28,3.29-5.9,3.29-4.37,0-7.8-3.7-7.8-9.29-.04-6.08,3.77-9.71,8.14-9.71,2.5,0,4.29,1.01,5.11,2.35h.08v-10.26h4.59ZM547.28,227.5c0-.37-.04-.86-.11-1.23-.41-1.75-1.87-3.21-3.96-3.21-2.95,0-4.59,2.61-4.59,5.97s1.64,5.79,4.55,5.79c1.87,0,3.51-1.27,3.96-3.25.11-.41.15-.86.15-1.34v-2.72Z"/>
          <path class="cls-2" d="M564.71,213.28c2.05-.3,4.59-.52,7.31-.52,4.7,0,7.91.97,10.23,2.91,2.46,1.98,3.96,5,3.96,9.26,0,4.52-1.53,7.84-3.92,10-2.5,2.28-6.5,3.44-11.38,3.44-2.65,0-4.67-.15-6.2-.34v-24.75ZM569.3,234.63c.63.11,1.61.11,2.54.11,5.97.04,9.52-3.29,9.52-9.67.04-5.53-3.17-8.73-8.92-8.73-1.46,0-2.46.11-3.14.26v18.03Z"/>
          <path class="cls-2" d="M594.61,214.85c0,1.34-1.01,2.46-2.61,2.46s-2.54-1.12-2.54-2.46c0-1.42,1.04-2.5,2.58-2.5s2.54,1.08,2.58,2.5ZM589.72,238.1v-18.18h4.59v18.18h-4.59Z"/>
          <path class="cls-2" d="M612.1,237.54c-.97.45-2.87.93-5.15.93-5.67,0-9.37-3.66-9.37-9.29s3.73-9.67,10.11-9.67c1.68,0,3.4.37,4.44.82l-.82,3.47c-.75-.37-1.83-.71-3.47-.71-3.51,0-5.6,2.57-5.56,5.9,0,3.73,2.43,5.86,5.56,5.86,1.57,0,2.72-.34,3.62-.71l.63,3.4Z"/>
          <path class="cls-2" d="M619.78,214.85c0,1.34-1.01,2.46-2.61,2.46s-2.54-1.12-2.54-2.46c0-1.42,1.04-2.5,2.58-2.5s2.54,1.08,2.58,2.5ZM614.9,238.1v-18.18h4.59v18.18h-4.59Z"/>
          <path class="cls-2" d="M623.91,225.33c0-2.09-.07-3.84-.15-5.41h3.99l.22,2.72h.11c.82-1.42,2.8-3.13,5.82-3.13,3.17,0,6.46,2.05,6.46,7.8v10.79h-4.59v-10.26c0-2.61-.97-4.59-3.47-4.59-1.83,0-3.1,1.31-3.58,2.69-.15.37-.22.93-.22,1.46v10.71h-4.59v-12.77Z"/>
          <path class="cls-2" d="M661.25,235.45c0,3.81-.78,6.53-2.69,8.25-1.87,1.68-4.52,2.2-7.02,2.2-2.31,0-4.78-.52-6.34-1.46l1.01-3.47c1.16.67,3.1,1.38,5.3,1.38,2.99,0,5.22-1.57,5.22-5.49v-1.57h-.07c-1.04,1.6-2.87,2.69-5.3,2.69-4.52,0-7.73-3.73-7.73-8.88,0-5.97,3.88-9.59,8.25-9.59,2.8,0,4.4,1.34,5.26,2.84h.07l.19-2.43h3.99c-.08,1.23-.15,2.72-.15,5.23v10.3ZM656.66,227.2c0-.45-.04-.86-.15-1.23-.49-1.68-1.79-2.95-3.73-2.95-2.58,0-4.48,2.24-4.48,5.93,0,3.1,1.57,5.6,4.44,5.6,1.72,0,3.21-1.12,3.73-2.8.15-.45.19-1.08.19-1.61v-2.95Z"/>
          <path class="cls-2" d="M674.02,233.1c1.46.86,3.73,1.61,6.08,1.61,2.91,0,4.55-1.38,4.55-3.43,0-1.9-1.27-3.02-4.44-4.18-4.18-1.49-6.83-3.69-6.83-7.31,0-4.14,3.43-7.24,8.92-7.24,2.72,0,4.7.6,6.01,1.27l-1.08,3.69c-.93-.48-2.69-1.19-5.04-1.19-2.91,0-4.14,1.53-4.14,3.02,0,1.94,1.46,2.84,4.81,4.14,4.37,1.64,6.46,3.84,6.46,7.46,0,4.07-3.06,7.58-9.52,7.58-2.69,0-5.45-.75-6.83-1.61l1.04-3.81Z"/>
          <path class="cls-2" d="M696.16,230.3c.11,3.29,2.65,4.7,5.6,4.7,2.13,0,3.62-.34,5.04-.82l.67,3.13c-1.57.67-3.73,1.16-6.34,1.16-5.9,0-9.37-3.62-9.37-9.18,0-5.04,3.06-9.78,8.88-9.78s7.84,4.85,7.84,8.85c0,.86-.08,1.53-.15,1.94h-12.17ZM704.15,227.09c.04-1.68-.71-4.44-3.77-4.44-2.84,0-4.03,2.58-4.22,4.44h7.99Z"/>
          <path class="cls-2" d="M711.81,225.78c0-2.46-.04-4.26-.15-5.86h3.96l.19,3.44h.11c.9-2.54,3.02-3.85,5-3.85.45,0,.71.04,1.08.11v4.29c-.41-.07-.82-.11-1.38-.11-2.17,0-3.7,1.38-4.11,3.47-.07.41-.11.9-.11,1.38v9.44h-4.59v-12.32Z"/>
          <path class="cls-2" d="M728.54,219.92l2.95,9.22c.52,1.61.9,3.06,1.23,4.55h.11c.34-1.49.75-2.91,1.23-4.55l2.91-9.22h4.81l-6.94,18.18h-4.52l-6.76-18.18h4.96Z"/>
          <path class="cls-2" d="M749.13,214.85c0,1.34-1.01,2.46-2.61,2.46s-2.54-1.12-2.54-2.46c0-1.42,1.04-2.5,2.58-2.5s2.54,1.08,2.58,2.5ZM744.24,238.1v-18.18h4.59v18.18h-4.59Z"/>
          <path class="cls-2" d="M766.62,237.54c-.97.45-2.87.93-5.15.93-5.67,0-9.37-3.66-9.37-9.29s3.73-9.67,10.11-9.67c1.68,0,3.4.37,4.44.82l-.82,3.47c-.75-.37-1.83-.71-3.47-.71-3.51,0-5.6,2.57-5.56,5.9,0,3.73,2.43,5.86,5.56,5.86,1.57,0,2.72-.34,3.62-.71l.63,3.4Z"/>
          <path class="cls-2" d="M772.44,230.3c.11,3.29,2.65,4.7,5.6,4.7,2.13,0,3.62-.34,5.04-.82l.67,3.13c-1.57.67-3.73,1.16-6.34,1.16-5.9,0-9.37-3.62-9.37-9.18,0-5.04,3.06-9.78,8.88-9.78s7.84,4.85,7.84,8.85c0,.86-.08,1.53-.15,1.94h-12.17ZM780.43,227.09c.04-1.68-.71-4.44-3.77-4.44-2.84,0-4.03,2.58-4.22,4.44h7.99Z"/>
          <path class="cls-2" d="M787.75,233.84c1.01.63,2.99,1.34,4.63,1.34,2.02,0,2.91-.86,2.91-2.05s-.75-1.83-2.99-2.65c-3.55-1.19-5-3.13-5-5.3,0-3.21,2.65-5.67,6.87-5.67,2.02,0,3.77.49,4.85,1.08l-.93,3.21c-.75-.45-2.24-1.04-3.84-1.04s-2.54.82-2.54,1.94.86,1.68,3.17,2.54c3.32,1.16,4.81,2.84,4.85,5.52,0,3.32-2.58,5.71-7.39,5.71-2.2,0-4.18-.52-5.52-1.27l.93-3.36Z"/>
          <path class="cls-2" d="M816,212.94v25.16h-4.59v-25.16h4.59Z"/>
          <path class="cls-2" d="M820.65,225.33c0-2.09-.07-3.84-.15-5.41h3.99l.22,2.72h.11c.82-1.42,2.8-3.13,5.82-3.13,3.17,0,6.46,2.05,6.46,7.8v10.79h-4.59v-10.26c0-2.61-.97-4.59-3.47-4.59-1.83,0-3.1,1.31-3.58,2.69-.15.37-.22.93-.22,1.46v10.71h-4.59v-12.77Z"/>
          <path class="cls-2" d="M854.9,237.54c-.97.45-2.87.93-5.15.93-5.67,0-9.37-3.66-9.37-9.29s3.73-9.67,10.11-9.67c1.68,0,3.4.37,4.44.82l-.82,3.47c-.75-.37-1.83-.71-3.47-.71-3.51,0-5.6,2.57-5.56,5.9,0,3.73,2.43,5.86,5.56,5.86,1.57,0,2.72-.34,3.62-.71l.63,3.4Z"/>
          <path class="cls-2" d="M857.88,235.56c0-1.72,1.19-2.95,2.84-2.95s2.84,1.19,2.84,2.95-1.12,2.95-2.87,2.95c-1.64,0-2.8-1.27-2.8-2.95Z"/>
        </g>
        <g>
          <path class="cls-2" d="M366.26,294.98c0,2.02.09,4,.37,5.37h-5.1l-.41-2.48h-.14c-1.33,1.75-3.67,2.98-6.61,2.98-4.5,0-7.02-3.26-7.02-6.66,0-5.6,5-8.49,13.27-8.45v-.37c0-1.47-.6-3.9-4.55-3.9-2.2,0-4.5.69-6.01,1.65l-1.1-3.67c1.65-1.01,4.55-1.97,8.08-1.97,7.16,0,9.23,4.54,9.23,9.46v8.04ZM360.75,289.43c-3.99-.05-7.81.78-7.81,4.18,0,2.2,1.42,3.21,3.21,3.21,2.3,0,3.9-1.47,4.45-3.08.14-.41.14-.83.14-1.24v-3.08Z"/>
          <path class="cls-2" d="M392.89,294.2c1.79,1.05,4.59,1.97,7.48,1.97,3.58,0,5.6-1.7,5.6-4.22,0-2.34-1.56-3.72-5.46-5.14-5.14-1.84-8.4-4.54-8.4-9,0-5.1,4.22-8.91,10.97-8.91,3.35,0,5.79.73,7.39,1.56l-1.33,4.54c-1.15-.6-3.31-1.47-6.2-1.47-3.58,0-5.1,1.88-5.1,3.72,0,2.39,1.79,3.49,5.92,5.1,5.37,2.02,7.94,4.73,7.94,9.18,0,5.01-3.76,9.32-11.71,9.32-3.31,0-6.7-.92-8.4-1.97l1.29-4.68Z"/>
          <path class="cls-2" d="M427.21,271.75c0,1.65-1.24,3.03-3.21,3.03s-3.12-1.38-3.12-3.03c0-1.74,1.29-3.08,3.17-3.08s3.12,1.33,3.17,3.08ZM421.2,300.35v-22.36h5.65v22.36h-5.65Z"/>
          <path class="cls-2" d="M437.65,267.75h5.65v32.6h-5.65v-32.6Z"/>
          <path class="cls-2" d="M460.15,271.75c0,1.65-1.24,3.03-3.21,3.03s-3.12-1.38-3.12-3.03c0-1.74,1.29-3.08,3.17-3.08s3.12,1.33,3.17,3.08ZM454.13,300.35v-22.36h5.65v22.36h-5.65Z"/>
          <path class="cls-2" d="M477.06,272.25v5.74h5.37v4.22h-5.37v9.87c0,2.76.73,4.13,2.89,4.13,1.01,0,1.56-.04,2.2-.23l.09,4.27c-.83.32-2.34.6-4.09.6-2.11,0-3.81-.69-4.87-1.84-1.24-1.29-1.79-3.35-1.79-6.29v-10.51h-3.17v-4.22h3.17v-4.18l5.56-1.56Z"/>
          <path class="cls-2" d="M491.3,285.2c0-3.03-.05-5.23-.18-7.21h4.87l.23,4.22h.14c1.1-3.12,3.72-4.73,6.15-4.73.55,0,.87.04,1.33.14v5.28c-.5-.09-1.01-.14-1.7-.14-2.66,0-4.55,1.7-5.05,4.27-.09.51-.14,1.1-.14,1.7v11.62h-5.65v-15.15Z"/>
          <path class="cls-2" d="M533.74,288.97c0,8.22-5.79,11.89-11.48,11.89-6.29,0-11.2-4.31-11.2-11.52s4.82-11.85,11.57-11.85,11.11,4.68,11.11,11.48ZM516.89,289.2c0,4.32,2.16,7.58,5.55,7.58,3.21,0,5.46-3.12,5.46-7.67,0-3.49-1.56-7.53-5.42-7.53s-5.6,3.9-5.6,7.62Z"/>
          <path class="cls-2" d="M543.2,284.65c0-2.57-.09-4.73-.18-6.66h4.91l.28,3.35h.14c1.01-1.75,3.44-3.86,7.16-3.86,3.9,0,7.94,2.53,7.94,9.6v13.27h-5.65v-12.63c0-3.21-1.19-5.65-4.27-5.65-2.25,0-3.81,1.61-4.41,3.3-.18.46-.28,1.15-.28,1.79v13.18h-5.65v-15.7Z"/>
          <path class="cls-2" d="M580.13,271.75c0,1.65-1.24,3.03-3.21,3.03s-3.12-1.38-3.12-3.03c0-1.74,1.29-3.08,3.17-3.08s3.12,1.33,3.17,3.08ZM574.12,300.35v-22.36h5.65v22.36h-5.65Z"/>
          <path class="cls-2" d="M607.06,299.66c-1.19.55-3.54,1.15-6.34,1.15-6.98,0-11.52-4.5-11.52-11.43s4.59-11.89,12.44-11.89c2.07,0,4.18.46,5.46,1.01l-1.01,4.27c-.92-.46-2.25-.87-4.27-.87-4.32,0-6.89,3.17-6.84,7.25,0,4.59,2.98,7.21,6.84,7.21,1.93,0,3.35-.41,4.45-.87l.78,4.18Z"/>
          <path class="cls-2" d="M616.32,295.12c1.24.78,3.67,1.65,5.69,1.65,2.48,0,3.58-1.06,3.58-2.53s-.92-2.25-3.67-3.26c-4.36-1.47-6.15-3.86-6.15-6.52,0-3.95,3.26-6.98,8.45-6.98,2.48,0,4.64.6,5.97,1.33l-1.15,3.95c-.92-.55-2.75-1.29-4.73-1.29s-3.12,1.01-3.12,2.39,1.06,2.07,3.9,3.12c4.09,1.42,5.92,3.49,5.97,6.79,0,4.09-3.17,7.03-9.09,7.03-2.71,0-5.14-.64-6.79-1.56l1.15-4.13Z"/>
          <path class="cls-2" d="M672.65,299.66c-1.19.55-3.54,1.15-6.34,1.15-6.98,0-11.52-4.5-11.52-11.43s4.59-11.89,12.44-11.89c2.07,0,4.18.46,5.46,1.01l-1.01,4.27c-.92-.46-2.25-.87-4.27-.87-4.32,0-6.89,3.17-6.84,7.25,0,4.59,2.98,7.21,6.84,7.21,1.93,0,3.35-.41,4.45-.87l.78,4.18Z"/>
          <path class="cls-2" d="M702.43,288.97c0,8.22-5.79,11.89-11.48,11.89-6.29,0-11.2-4.31-11.2-11.52s4.82-11.85,11.57-11.85,11.11,4.68,11.11,11.48ZM685.58,289.2c0,4.32,2.16,7.58,5.55,7.58,3.21,0,5.46-3.12,5.46-7.67,0-3.49-1.56-7.53-5.42-7.53s-5.6,3.9-5.6,7.62Z"/>
          <path class="cls-2" d="M711.89,284.65c0-2.57-.09-4.73-.18-6.66h4.82l.28,3.31h.14c1.06-1.74,3.08-3.81,6.89-3.81,2.94,0,5.23,1.65,6.2,4.13h.09c.78-1.24,1.7-2.16,2.71-2.8,1.29-.87,2.71-1.33,4.59-1.33,3.67,0,7.44,2.53,7.44,9.69v13.18h-5.51v-12.35c0-3.72-1.29-5.92-3.99-5.92-1.93,0-3.35,1.38-3.95,2.98-.18.5-.28,1.24-.28,1.88v13.41h-5.51v-12.95c0-3.12-1.24-5.33-3.86-5.33-2.11,0-3.54,1.65-4.09,3.17-.18.6-.28,1.24-.28,1.88v13.22h-5.51v-15.7Z"/>
          <path class="cls-2" d="M755.57,285.43c0-2.94-.09-5.33-.18-7.44h4.96l.28,3.45h.09c1.65-2.53,4.27-3.95,7.67-3.95,5.14,0,9.41,4.41,9.41,11.39,0,8.08-5.1,11.98-10.19,11.98-2.8,0-5.14-1.19-6.29-2.98h-.09v11.57h-5.65v-24.01ZM761.22,290.99c0,.55.05,1.06.14,1.56.6,2.3,2.57,3.95,5,3.95,3.58,0,5.69-2.98,5.69-7.39,0-3.95-1.93-7.16-5.56-7.16-2.34,0-4.5,1.7-5.1,4.18-.09.46-.18.96-.18,1.42v3.44Z"/>
          <path class="cls-2" d="M804.78,294.98c0,2.02.09,4,.37,5.37h-5.1l-.41-2.48h-.14c-1.33,1.75-3.67,2.98-6.61,2.98-4.5,0-7.02-3.26-7.02-6.66,0-5.6,5-8.49,13.27-8.45v-.37c0-1.47-.6-3.9-4.55-3.9-2.2,0-4.5.69-6.01,1.65l-1.1-3.67c1.65-1.01,4.55-1.97,8.08-1.97,7.16,0,9.23,4.54,9.23,9.46v8.04ZM799.27,289.43c-3.99-.05-7.81.78-7.81,4.18,0,2.2,1.42,3.21,3.21,3.21,2.3,0,3.9-1.47,4.45-3.08.14-.41.14-.83.14-1.24v-3.08Z"/>
          <path class="cls-2" d="M815.43,284.65c0-2.57-.09-4.73-.18-6.66h4.91l.28,3.35h.14c1.01-1.75,3.44-3.86,7.16-3.86,3.9,0,7.94,2.53,7.94,9.6v13.27h-5.65v-12.63c0-3.21-1.19-5.65-4.27-5.65-2.25,0-3.81,1.61-4.41,3.3-.18.46-.28,1.15-.28,1.79v13.18h-5.65v-15.7Z"/>
          <path class="cls-2" d="M849.14,277.99l4,11.98c.46,1.38.96,3.08,1.29,4.32h.14c.32-1.24.73-2.94,1.19-4.36l3.49-11.94h6.01l-5.6,15.24c-3.08,8.36-5.14,12.08-7.76,14.37-2.25,1.93-4.54,2.66-5.92,2.85l-1.29-4.73c.96-.23,2.11-.73,3.26-1.56,1.1-.69,2.34-2.02,3.12-3.54.23-.41.32-.73.32-1.01,0-.23-.05-.55-.28-1.1l-8.22-20.52h6.24Z"/>
        </g>
        <line class="cls-1" x1="347.45" y1="258.05" x2="863.53" y2="258.05"/>
      </g>
      <g>
        <path class="cls-3" d="M276.54,134.86c-2.77-8.36-5.95-16.42-9.49-24.17l-153.63.18s134.32,154.55,59.64,234.56c0,0-20.08,2.39-45.5-7.68-44.54-17.65-86.02-59.74-105.51-118.56-6.88-20.78-10.43-41.64-10.96-61.68-.18-15.54.13-31.78,3.87-48.74l98.47,2.11s-59-53.42-31.18-88.68C89.29,13.24,101.94,5.47,122.55.03c0,0,.15,0,.41-.01-12.16-.19-24.29,1.56-36.1,5.48C13.79,29.7-19.75,126.86,11.94,222.52c31.69,95.65,116.61,153.57,189.68,129.36,73.07-24.21,106.61-121.37,74.92-217.03Z"/>
        <g>
          <path class="cls-4" d="M118.23,102.77c-.87-1.09-2.45-1.27-3.54-.4-1.09.87-1.27,2.45-.4,3.54.87,1.09,2.45,1.27,3.54.4s1.27-2.45.4-3.54Z"/>
          <path class="cls-4" d="M111.55,96.55l-20.99-26.34c-.41-.51-1.14-.59-1.65-.19s-.59,1.14-.19,1.65l20.99,26.34c.41.51,1.14.59,1.65.19s.59-1.14.19-1.65Z"/>
          <path class="cls-4" d="M122.23,62.04c.07-.65-.39-1.23-1.04-1.3-.65-.07-1.23.39-1.3,1.04l-3.79,33.47c-.04.32.06.63.25.87s.47.4.79.44c.65.07,1.23-.39,1.3-1.04l3.79-33.47Z"/>
          <path class="cls-4" d="M114.87,95.41l-16.43-51.7c-.19-.61-.86-.96-1.48-.77-.62.2-.96.86-.77,1.48l16.43,51.7c.04.14.11.27.2.38.3.37.8.54,1.28.39.62-.2.96-.86.77-1.48Z"/>
          <path class="cls-4" d="M121.91,97.05l26.42-47.38c.31-.57.11-1.29-.46-1.6-.57-.32-1.28-.11-1.6.45l-26.42,47.38c-.24.43-.18.95.11,1.31.09.12.21.22.35.29.57.32,1.28.11,1.6-.45Z"/>
          <path class="cls-4" d="M177.67,85.04c-.2-.61-.86-.96-1.48-.76l-51.7,16.43c-.62.2-.96.86-.77,1.48.04.14.11.27.2.38.3.37.8.54,1.28.39l51.7-16.43c.62-.2.96-.86.77-1.48Z"/>
          <path class="cls-4" d="M122.4,99.45c.41.51,1.14.59,1.65.19L211.51,29.39c.51-.41.59-1.14.19-1.65-.41-.51-1.14-.59-1.65-.19l-87.45,70.25c-.51.41-.59,1.14-.19,1.65Z"/>
          <path class="cls-4" d="M160.36,105.3c-.01-.65-.55-1.16-1.2-1.15l-33.67.74c-.65.01-1.16.55-1.15,1.2,0,.32.15.62.36.82s.51.33.84.33l33.67-.74c.65-.01,1.16-.55,1.15-1.2Z"/>
          <path class="cls-4" d="M149.65,44.4c.46.57,1.29.67,1.86.21.57-.46.67-1.29.21-1.86-.46-.57-1.29-.67-1.86-.21-.57.46-.67,1.29-.21,1.86Z"/>
          <path class="cls-4" d="M164.96,106.13c.53.51,1.37.49,1.87-.04s.49-1.37-.04-1.87-1.37-.49-1.87.04-.49,1.37.04,1.87Z"/>
        </g>
      </g>
    </g>
  </g>
</svg>