<?xml version="1.0" encoding="UTF-8"?>
<svg id="Layer_2" data-name="Layer 2" xmlns="http://www.w3.org/2000/svg" xmlns:xlink="http://www.w3.org/1999/xlink" viewBox="0 0 1357.41 237.6">
  <defs>
    <style>
      .cls-1 {
        fill: url(#radial-gradient-10);
      }

      .cls-2 {
        fill: url(#radial-gradient-9);
      }

      .cls-3 {
        fill: url(#radial-gradient-14);
      }

      .cls-4 {
        fill: #fff;
      }

      .cls-5 {
        fill: url(#radial-gradient-16);
      }

      .cls-6 {
        fill: url(#radial-gradient-18);
      }

      .cls-7 {
        fill: url(#radial-gradient-5);
      }

      .cls-8 {
        fill: url(#radial-gradient);
      }

      .cls-9 {
        fill: url(#radial-gradient-3);
      }

      .cls-10 {
        fill: url(#radial-gradient-24);
      }

      .cls-11 {
        fill: url(#radial-gradient-20);
      }

      .cls-12 {
        fill: url(#radial-gradient-11);
      }

      .cls-13 {
        fill: url(#radial-gradient-8);
      }

      .cls-14 {
        fill: url(#radial-gradient-2);
      }

      .cls-15 {
        fill: url(#radial-gradient-23);
      }

      .cls-16 {
        fill: url(#radial-gradient-21);
      }

      .cls-17 {
        fill: url(#radial-gradient-4);
      }

      .cls-18 {
        fill: url(#radial-gradient-22);
      }

      .cls-19 {
        fill: url(#radial-gradient-12);
      }

      .cls-20 {
        fill: url(#radial-gradient-19);
      }

      .cls-21 {
        fill: url(#radial-gradient-15);
      }

      .cls-22 {
        fill: url(#radial-gradient-6);
      }

      .cls-23 {
        fill: url(#radial-gradient-7);
      }

      .cls-24 {
        fill: url(#radial-gradient-17);
      }

      .cls-25 {
        fill: url(#radial-gradient-13);
      }
    </style>
    <radialGradient id="radial-gradient" cx="99.09" cy="117.62" fx="99.09" fy="117.62" r="151.49" gradientUnits="userSpaceOnUse">
      <stop offset=".34" stop-color="#fc0200"/>
      <stop offset=".43" stop-color="#f2ee10"/>
      <stop offset=".51" stop-color="#1af319"/>
      <stop offset=".58" stop-color="#10e2f7"/>
      <stop offset=".73" stop-color="#050ef1"/>
    </radialGradient>
    <radialGradient id="radial-gradient-2" cx="99.09" cy="117.62" fx="99.09" fy="117.62" r="151.49" xlink:href="#radial-gradient"/>
    <radialGradient id="radial-gradient-3" cx="99.09" cy="117.62" fx="99.09" fy="117.62" r="151.49" xlink:href="#radial-gradient"/>
    <radialGradient id="radial-gradient-4" cx="99.09" cy="117.62" fx="99.09" fy="117.62" r="151.49" xlink:href="#radial-gradient"/>
    <radialGradient id="radial-gradient-5" cx="99.09" fx="99.09" r="151.49" xlink:href="#radial-gradient"/>
    <radialGradient id="radial-gradient-6" cx="99.09" cy="117.62" fx="99.09" fy="117.62" r="151.49" xlink:href="#radial-gradient"/>
    <radialGradient id="radial-gradient-7" cx="99.09" cy="117.62" fx="99.09" fy="117.62" r="151.49" xlink:href="#radial-gradient"/>
    <radialGradient id="radial-gradient-8" cx="99.09" cy="117.62" fx="99.09" fy="117.62" r="151.49" xlink:href="#radial-gradient"/>
    <radialGradient id="radial-gradient-9" cx="99.09" fx="99.09" r="151.49" xlink:href="#radial-gradient"/>
    <radialGradient id="radial-gradient-10" cx="99.09" cy="117.62" fx="99.09" fy="117.62" r="151.49" xlink:href="#radial-gradient"/>
    <radialGradient id="radial-gradient-11" cx="99.09" fx="99.09" r="151.49" xlink:href="#radial-gradient"/>
    <radialGradient id="radial-gradient-12" cx="99.09" cy="117.62" fx="99.09" fy="117.62" r="151.49" xlink:href="#radial-gradient"/>
    <radialGradient id="radial-gradient-13" cx="99.09" cy="117.62" fx="99.09" fy="117.62" r="151.49" xlink:href="#radial-gradient"/>
    <radialGradient id="radial-gradient-14" cx="99.09" cy="117.62" fx="99.09" fy="117.62" r="151.49" xlink:href="#radial-gradient"/>
    <radialGradient id="radial-gradient-15" cx="99.09" cy="117.62" fx="99.09" fy="117.62" r="151.49" xlink:href="#radial-gradient"/>
    <radialGradient id="radial-gradient-16" cx="99.09" fx="99.09" r="151.49" xlink:href="#radial-gradient"/>
    <radialGradient id="radial-gradient-17" cx="99.09" cy="117.62" fx="99.09" fy="117.62" r="151.49" xlink:href="#radial-gradient"/>
    <radialGradient id="radial-gradient-18" cx="99.09" cy="117.62" fx="99.09" fy="117.62" r="151.49" xlink:href="#radial-gradient"/>
    <radialGradient id="radial-gradient-19" cx="99.09" cy="117.62" fx="99.09" fy="117.62" r="151.49" xlink:href="#radial-gradient"/>
    <radialGradient id="radial-gradient-20" cx="99.09" cy="117.62" fx="99.09" fy="117.62" r="151.49" xlink:href="#radial-gradient"/>
    <radialGradient id="radial-gradient-21" cx="99.09" cy="117.62" fx="99.09" fy="117.62" r="151.49" xlink:href="#radial-gradient"/>
    <radialGradient id="radial-gradient-22" cx="99.09" cy="117.62" fx="99.09" fy="117.62" r="151.49" xlink:href="#radial-gradient"/>
    <radialGradient id="radial-gradient-23" cx="99.09" cy="117.62" fx="99.09" fy="117.62" r="151.49" xlink:href="#radial-gradient"/>
    <radialGradient id="radial-gradient-24" cx="99.09" cy="117.62" fx="99.09" fy="117.62" r="151.49" xlink:href="#radial-gradient"/>
  </defs>
  <g id="Layer_1-2" data-name="Layer 1">
    <g>
      <g>
        <path class="cls-8" d="M100.07,178.18c-.65,1.03-.09,2.21.76,2.68l101.77,56.74v-7.91l-100.16-51.95c-.62-.36-1.81-.46-2.37.43Z"/>
        <path class="cls-14" d="M113.72,176.07c-.37.67-.74,2.18,1.25,3.12l87.63,39.43v-7.91l-85.89-35.37c-1.12-.47-2.33-.49-3,.74Z"/>
        <path class="cls-9" d="M126.41,170.81c-.47,1.2-.13,2.73,1.24,3.17l74.96,25.67v-7.91l-72.92-22.05c-1.41-.49-2.85,0-3.28,1.12Z"/>
        <path class="cls-17" d="M137.19,162.31c-.3.88-.08,2.83,1.9,3.35l63.51,15.01v-7.91l-61.03-12.01c-2.6-.56-3.98.38-4.38,1.57Z"/>
        <path class="cls-7" d="M144.89,151.27c-.17.91.25,2.94,2.45,3.28l55.26,7.14v-7.91l-54.44-4.8c-1.72-.18-3,.84-3.28,2.29Z"/>
        <path class="cls-22" d="M147.39,138.74c0,1.57,1.11,2.82,2.53,2.84l52.69,1.15v-7.91l-52.69,1.02c-1.42.03-2.54,1.28-2.53,2.89Z"/>
        <path class="cls-23" d="M144.82,126.07c.19,2.19,2.11,2.61,3.27,2.5l54.51-4.82v-7.9l-55.13,7.13c-1.03.14-2.85.79-2.65,3.09Z"/>
        <path class="cls-13" d="M137.01,115.01c.46,1.98,2.28,2.18,3.87,1.89l61.72-12.08v-7.9l-63.08,14.91c-1.46.28-2.87,1.66-2.51,3.19Z"/>
        <path class="cls-2" d="M125.8,109.54c.42,1.27,1.49,1.88,3.55,1.27l73.25-24.95v-7.91l-75.1,28.53c-.86.29-2.23,1.47-1.7,3.07Z"/>
        <path class="cls-1" d="M114.9,103.37c.49,1.22,1.93,1.35,3.12.79l84.59-37.24v-7.91l-86.54,41.55c-1.05.46-1.63,1.67-1.17,2.82Z"/>
        <path class="cls-12" d="M101.9,99.58c.47.77,1.62,1.07,2.79.32l97.91-51.93v-7.91l-99.91,56.94c-1.31.66-1.18,1.94-.79,2.58Z"/>
        <path class="cls-19" d="M93.96,94.41c-.82.53-1.02,1.41-.66,1.93.38.55,1.12.76,1.78.36L202.6,29.02v-7.91l-108.64,73.3Z"/>
        <path class="cls-25" d="M102.53,59.43c.65-1.03.09-2.21-.76-2.68L0,0v7.91l100.16,51.95c.62.36,1.81.46,2.37-.43Z"/>
        <path class="cls-3" d="M88.89,61.53c.37-.67.74-2.18-1.25-3.12L0,18.99v7.91l85.89,35.37c1.12.47,2.33.49,3-.74Z"/>
        <path class="cls-21" d="M76.2,66.8c.47-1.2.13-2.73-1.24-3.17L0,37.96v7.91l72.92,22.05c1.41.49,2.85,0,3.28-1.12Z"/>
        <path class="cls-5" d="M65.41,75.3c.3-.88.08-2.83-1.9-3.35L0,56.94v7.91l61.03,12.01c2.6.56,3.98-.38,4.38-1.57Z"/>
        <path class="cls-24" d="M57.72,86.33c.17-.91-.25-2.94-2.45-3.28L0,75.91v7.91l54.44,4.8c1.72.18,3-.84,3.28-2.29Z"/>
        <path class="cls-6" d="M55.22,98.87c0-1.57-1.11-2.82-2.53-2.84l-52.69-1.15v7.91l52.69-1.02c1.42-.03,2.54-1.28,2.53-2.89Z"/>
        <path class="cls-20" d="M57.78,111.53c-.19-2.19-2.11-2.61-3.27-2.5L0,113.85v7.9l55.13-7.13c1.03-.14,2.85-.79,2.65-3.09Z"/>
        <path class="cls-11" d="M65.6,122.6c-.46-1.98-2.28-2.18-3.87-1.89L0,132.79v7.9l63.08-14.91c1.46-.28,2.87-1.66,2.51-3.19Z"/>
        <path class="cls-16" d="M77.23,127.74c-.43-1.27-1.49-1.88-3.55-1.27L0,151.74v7.91l75.53-28.85c.86-.29,2.23-1.47,1.7-3.07Z"/>
        <path class="cls-18" d="M87.71,134.23c-.49-1.22-1.93-1.35-3.12-.79L0,170.68v7.91l86.54-41.55c1.06-.46,1.63-1.67,1.17-2.82Z"/>
        <path class="cls-15" d="M100.7,138.02c-.47-.77-1.62-1.07-2.79-.32L0,189.62v7.91l99.91-56.94c1.31-.66,1.18-1.94.79-2.58Z"/>
        <path class="cls-10" d="M109.3,141.26c-.38-.55-1.12-.76-1.78-.36L0,208.58v7.91l108.64-73.3c.82-.53,1.02-1.41.66-1.93Z"/>
      </g>
      <g>
        <g>
          <path class="cls-4" d="M264.8,132.46c10.89,2.33,27.25,4.86,40.68,4.86,15.19,0,28.36-3.82,28.36-16.52,0-11.58-9.45-13.11-28.24-18.01-36.27-10.47-45.05-18.32-45.05-41.87,0-28.44,24.93-37.4,54.25-37.4,15.6,0,30.82,2.68,44.03,5.96l-4.21,23.17c-10.31-2.56-26.86-6.01-40.74-6.01s-24.32,3.05-24.32,12.87c0,8.57,4.15,10.07,32.42,17.98,30.36,8.65,41.48,14.28,41.48,43.64,0,31.78-27.28,40.06-55.17,40.06-16.56,0-34.45-2.64-47.7-4.86l4.2-23.88Z"/>
          <path class="cls-4" d="M381.85,159.09V24.98h29.25v134.11h-29.25Z"/>
          <path class="cls-4" d="M522.44,136v23.09h-87.86V24.98h29.25v111.02h58.61Z"/>
          <path class="cls-4" d="M538.38,159.09V24.98h29.25v134.11h-29.25Z"/>
          <path class="cls-4" d="M649.81,48.07v111.02h-29.25V48.07h-37.55v-23.09h104.27v23.09h-37.48Z"/>
          <path class="cls-4" d="M764.1,24.98c24.15,0,39.99,15.75,39.99,41.91,0,18.88-7.81,31.25-20.44,36.91l28.34,55.29h-31.36l-25.79-50.18h-22.22v50.18h-29.25V24.98h60.73ZM732.74,85.74h26.54c9.29,0,15.55-5.68,15.55-18.89s-6.11-18.82-15.55-18.82h-26.54v37.71Z"/>
          <path class="cls-4" d="M940.93,92.13c0,38.12-6.54,68.49-57.22,68.49s-57.23-30.37-57.23-68.49,6.54-68.58,57.23-68.58,57.22,30.47,57.22,68.58ZM855.74,92.13c0,34.55,3.23,45.5,27.97,45.5s27.97-10.95,27.97-45.5-3.24-45.5-27.97-45.5-27.97,10.95-27.97,45.5Z"/>
          <path class="cls-4" d="M1044.01,159.09l-53.88-83.81v83.81h-29.25V25h29.62l53.89,83.79V24.98h29.25v134.11h-29.62Z"/>
          <path class="cls-4" d="M1096.67,159.09V24.98h29.25v134.11h-29.25Z"/>
          <path class="cls-4" d="M1242.47,155.15c-14.88,3.22-29.02,5.47-41.64,5.47-32.61-.19-54.78-15.64-54.78-68.69s22.5-68.6,55.16-68.6c12.52,0,26.53,2.24,41.27,5.44l-4.06,22.91c-14-2.8-25.45-5.26-34.55-5.26-19.03,0-28.57,9.83-28.57,45.51s9.55,45.56,28.59,45.56c9.09,0,20.53-2.45,34.51-5.25l4.06,22.91Z"/>
          <path class="cls-4" d="M1258.75,132.46c10.9,2.33,27.25,4.86,40.68,4.86,15.19,0,28.36-3.82,28.36-16.52,0-11.58-9.45-13.11-28.24-18.01-36.27-10.47-45.05-18.32-45.05-41.87,0-28.44,24.93-37.4,54.25-37.4,15.6,0,30.82,2.68,44.03,5.96l-4.21,23.17c-10.32-2.56-26.86-6.01-40.74-6.01s-24.32,3.05-24.32,12.87c0,8.57,4.15,10.07,32.42,17.98,30.36,8.65,41.48,14.28,41.48,43.64,0,31.78-27.28,40.06-55.17,40.06-16.56,0-34.45-2.64-47.7-4.86l4.2-23.88Z"/>
        </g>
        <g>
          <path class="cls-4" d="M263.31,193.22h5.06v18.4h11.47v4.6h-16.53v-23Z"/>
          <path class="cls-4" d="M286.94,193.22h17.35v4.5h-12.32v4.67h10.84v4.5h-10.84v4.83h12.49v4.5h-17.51v-23Z"/>
          <path class="cls-4" d="M320.13,193.05h4.67l9.86,23.17h-5.29l-2.1-5.16h-9.73l-2.1,5.16h-5.16l9.86-23.17ZM325.45,206.59l-3.06-7.46-3.06,7.46h6.11Z"/>
          <path class="cls-4" d="M341.5,193.22h8.97c7.23,0,12.22,4.96,12.22,11.43v.07c0,6.47-4.99,11.5-12.22,11.5h-8.97v-23ZM346.56,197.78v13.87h3.91c4.11,0,6.93-2.79,6.93-6.87v-.07c0-4.08-2.83-6.93-6.93-6.93h-3.91Z"/>
          <path class="cls-4" d="M370.71,193.22h5.06v23h-5.06v-23Z"/>
          <path class="cls-4" d="M384.81,193.22h4.67l10.78,14.16v-14.16h4.99v23h-4.31l-11.14-14.62v14.62h-5v-23Z"/>
          <path class="cls-4" d="M413.04,204.78v-.07c0-6.54,5.09-11.9,12.06-11.9,4.11,0,6.67,1.12,9.04,3.15l-3.19,3.85c-1.74-1.48-3.38-2.33-6.01-2.33-3.68,0-6.6,3.25-6.6,7.16v.07c0,4.21,2.89,7.29,6.97,7.29,1.87,0,3.48-.46,4.76-1.38v-3.29h-5.09v-4.37h9.99v9.99c-2.37,2-5.62,3.65-9.83,3.65-7.16,0-12.09-4.99-12.09-11.83Z"/>
          <path class="cls-4" d="M461.62,197.88h-7v-4.67h19.06v4.67h-7v18.34h-5.06v-18.34Z"/>
          <path class="cls-4" d="M480.84,193.22h5.06v9.1h9.33v-9.1h5.06v23h-5.06v-9.23h-9.33v9.23h-5.06v-23Z"/>
          <path class="cls-4" d="M509.11,193.22h17.35v4.5h-12.32v4.67h10.84v4.5h-10.84v4.83h12.49v4.5h-17.52v-23Z"/>
          <path class="cls-4" d="M547.56,193.22h17.51v4.6h-12.45v4.9h10.97v4.6h-10.97v8.9h-5.06v-23Z"/>
          <path class="cls-4" d="M572.04,206.36v-13.14h5.06v13.01c0,3.78,1.84,5.69,4.96,5.69s4.96-1.84,4.96-5.52v-13.18h5.06v12.98c0,6.97-3.91,10.38-10.09,10.38s-9.96-3.42-9.96-10.22Z"/>
          <path class="cls-4" d="M605.89,197.88h-7v-4.67h19.06v4.67h-7v18.34h-5.06v-18.34Z"/>
          <path class="cls-4" d="M624.76,206.36v-13.14h5.06v13.01c0,3.78,1.84,5.69,4.96,5.69s4.96-1.84,4.96-5.52v-13.18h5.06v12.98c0,6.97-3.91,10.38-10.09,10.38s-9.96-3.42-9.96-10.22Z"/>
          <path class="cls-4" d="M653.25,193.22h10.52c2.92,0,5.16.79,6.7,2.33,1.31,1.31,1.97,3.06,1.97,5.26v.07c0,3.71-2,6.05-4.93,7.13l5.62,8.22h-5.92l-4.93-7.36h-3.98v7.36h-5.06v-23ZM663.44,204.39c2.5,0,3.88-1.28,3.88-3.25v-.07c0-2.2-1.48-3.29-3.98-3.29h-5.03v6.6h5.13Z"/>
          <path class="cls-4" d="M680.3,193.22h17.35v4.5h-12.32v4.67h10.84v4.5h-10.84v4.83h12.49v4.5h-17.52v-23Z"/>
          <path class="cls-4" d="M716.98,193.22h5.42l4.76,15.57,5.16-15.64h4.34l5.16,15.64,4.76-15.57h5.29l-7.85,23.17h-4.4l-5.19-15.05-5.19,15.05h-4.4l-7.85-23.17Z"/>
          <path class="cls-4" d="M759.14,193.22h5.06v23h-5.06v-23Z"/>
          <path class="cls-4" d="M778.6,197.88h-7v-4.67h19.06v4.67h-7v18.34h-5.06v-18.34Z"/>
          <path class="cls-4" d="M797.82,193.22h5.06v9.1h9.33v-9.1h5.06v23h-5.06v-9.23h-9.33v9.23h-5.06v-23Z"/>
          <path class="cls-4" d="M847.12,193.05h4.67l9.86,23.17h-5.29l-2.1-5.16h-9.73l-2.1,5.16h-5.16l9.86-23.17ZM852.44,206.59l-3.06-7.46-3.06,7.46h6.11Z"/>
          <path class="cls-4" d="M868.48,193.22h8.97c7.23,0,12.22,4.96,12.22,11.43v.07c0,6.47-4.99,11.5-12.22,11.5h-8.97v-23ZM873.54,197.78v13.87h3.91c4.11,0,6.93-2.79,6.93-6.87v-.07c0-4.08-2.83-6.93-6.93-6.93h-3.91Z"/>
          <path class="cls-4" d="M894.02,193.22h5.59l6.01,16.2,6.01-16.2h5.45l-9.3,23.17h-4.47l-9.3-23.17Z"/>
          <path class="cls-4" d="M928.53,193.05h4.67l9.86,23.17h-5.29l-2.1-5.16h-9.73l-2.1,5.16h-5.16l9.86-23.17ZM933.85,206.59l-3.06-7.46-3.06,7.46h6.11Z"/>
          <path class="cls-4" d="M949.89,193.22h4.67l10.78,14.16v-14.16h4.99v23h-4.31l-11.14-14.62v14.62h-5v-23Z"/>
          <path class="cls-4" d="M978.12,204.78v-.07c0-6.54,4.93-11.9,11.99-11.9,4.3,0,6.97,1.45,9.07,3.55l-3.22,3.71c-1.81-1.61-3.55-2.6-5.88-2.6-3.88,0-6.67,3.22-6.67,7.16v.07c0,3.94,2.73,7.23,6.67,7.23,2.63,0,4.24-1.02,6.05-2.69l3.22,3.25c-2.37,2.53-4.96,4.11-9.43,4.11-6.77,0-11.8-5.22-11.8-11.83Z"/>
          <path class="cls-4" d="M1006.68,193.22h17.35v4.5h-12.32v4.67h10.84v4.5h-10.84v4.83h12.49v4.5h-17.52v-23Z"/>
          <path class="cls-4" d="M1031.99,193.22h8.97c7.23,0,12.22,4.96,12.22,11.43v.07c0,6.47-4.99,11.5-12.22,11.5h-8.97v-23ZM1037.05,197.78v13.87h3.91c4.11,0,6.93-2.79,6.93-6.87v-.07c0-4.08-2.83-6.93-6.93-6.93h-3.91Z"/>
          <path class="cls-4" d="M1074.35,193.22h5.06v23h-5.06v-23Z"/>
          <path class="cls-4" d="M1087.43,204.78v-.07c0-6.54,4.93-11.9,11.99-11.9,4.3,0,6.97,1.45,9.07,3.55l-3.22,3.71c-1.81-1.61-3.55-2.6-5.88-2.6-3.88,0-6.67,3.22-6.67,7.16v.07c0,3.94,2.73,7.23,6.67,7.23,2.63,0,4.24-1.02,6.05-2.69l3.22,3.25c-2.37,2.53-4.96,4.11-9.43,4.11-6.77,0-11.8-5.22-11.8-11.83Z"/>
          <path class="cls-4" d="M1129.13,193.22h9.4c5.49,0,8.81,3.22,8.81,7.95v.07c0,5.36-4.14,8.08-9.3,8.08h-3.85v6.9h-5.06v-23ZM1138.2,204.81c2.53,0,4.01-1.51,4.01-3.48v-.07c0-2.27-1.58-3.48-4.11-3.48h-3.91v7.03h4.01Z"/>
          <path class="cls-4" d="M1159.96,193.05h4.67l9.86,23.17h-5.29l-2.1-5.16h-9.73l-2.1,5.16h-5.16l9.86-23.17ZM1165.28,206.59l-3.06-7.46-3.06,7.46h6.11Z"/>
          <path class="cls-4" d="M1178.83,204.78v-.07c0-6.54,4.93-11.9,11.99-11.9,4.3,0,6.97,1.45,9.07,3.55l-3.22,3.71c-1.81-1.61-3.55-2.6-5.88-2.6-3.88,0-6.67,3.22-6.67,7.16v.07c0,3.94,2.73,7.23,6.67,7.23,2.63,0,4.24-1.02,6.05-2.69l3.22,3.25c-2.37,2.53-4.96,4.11-9.43,4.11-6.77,0-11.8-5.22-11.8-11.83Z"/>
          <path class="cls-4" d="M1207.39,193.22h5.06v10.05l9.27-10.05h6.21l-9.4,9.76,9.79,13.24h-6.08l-7.13-9.79-2.66,2.76v7.03h-5.06v-23Z"/>
          <path class="cls-4" d="M1241.89,193.05h4.67l9.86,23.17h-5.29l-2.1-5.16h-9.73l-2.1,5.16h-5.16l9.86-23.17ZM1247.22,206.59l-3.06-7.46-3.06,7.46h6.11Z"/>
          <path class="cls-4" d="M1260.76,204.78v-.07c0-6.54,5.09-11.9,12.06-11.9,4.11,0,6.67,1.12,9.04,3.15l-3.19,3.85c-1.74-1.48-3.38-2.33-6.01-2.33-3.68,0-6.6,3.25-6.6,7.16v.07c0,4.21,2.89,7.29,6.97,7.29,1.87,0,3.48-.46,4.76-1.38v-3.29h-5.09v-4.37h9.99v9.99c-2.37,2-5.62,3.65-9.83,3.65-7.16,0-12.09-4.99-12.09-11.83Z"/>
          <path class="cls-4" d="M1291.06,193.22h5.06v23h-5.06v-23Z"/>
          <path class="cls-4" d="M1305.16,193.22h4.67l10.78,14.16v-14.16h4.99v23h-4.31l-11.14-14.62v14.62h-4.99v-23Z"/>
          <path class="cls-4" d="M1333.39,204.78v-.07c0-6.54,5.09-11.9,12.06-11.9,4.11,0,6.67,1.12,9.04,3.15l-3.19,3.85c-1.74-1.48-3.38-2.33-6.01-2.33-3.68,0-6.6,3.25-6.6,7.16v.07c0,4.21,2.89,7.29,6.97,7.29,1.87,0,3.48-.46,4.76-1.38v-3.29h-5.09v-4.37h9.99v9.99c-2.37,2-5.62,3.65-9.83,3.65-7.16,0-12.09-4.99-12.09-11.83Z"/>
        </g>
      </g>
    </g>
  </g>
</svg>