<svg width="70" height="70" viewBox="0 0 70 70" fill="none" xmlns="http://www.w3.org/2000/svg">
<g clip-path="url(#clip0_2791_9262)">
<path d="M1.12038 43.599L6.76961 44.814C7.14833 45.9028 7.59017 46.9759 8.09513 48.0174L4.95491 52.8776C4.59197 53.4457 4.67087 54.1873 5.14427 54.645L15.3381 64.8388C15.8115 65.3122 16.5532 65.3911 17.1055 65.0282L21.9657 61.888C23.0072 62.3929 24.0803 62.8348 25.1691 63.2135L26.3841 68.8627C26.5261 69.5255 27.11 69.9831 27.7728 69.9831H42.1957C42.8584 69.9831 43.4423 69.5097 43.5843 68.8627L44.7994 63.2135C45.8882 62.8348 46.9612 62.3929 48.0027 61.888L52.8629 65.0282C53.431 65.3911 54.1727 65.3122 54.6303 64.8388L64.8242 54.645C65.2976 54.1716 65.3765 53.4299 65.0135 52.8776L61.8733 48.0174C62.3783 46.9759 62.8201 45.9028 63.1988 44.814L68.8481 43.599C69.5108 43.4569 69.9684 42.8731 69.9684 42.2103V27.7874C69.9684 27.1247 69.495 26.5408 68.8481 26.3988L63.1988 25.1837C62.8201 24.0949 62.3783 23.0219 61.8733 21.9804L65.0135 17.1201C65.3765 16.5521 65.2976 15.8262 64.8242 15.3528L54.6303 5.15892C54.1569 4.68552 53.4152 4.60662 52.8629 4.96956L48.0027 8.10978C46.9612 7.60482 45.8882 7.16298 44.7994 6.78426L43.5843 1.13503C43.4423 0.488048 42.8584 0.0146484 42.1957 0.0146484H27.7728C27.11 0.0146484 26.5261 0.488048 26.3841 1.13503L25.1691 6.78426C24.0803 7.16298 23.0072 7.60482 21.9657 8.10978L17.1055 4.96956C16.5374 4.60662 15.7958 4.68552 15.3381 5.15892L5.14427 15.3528C4.67087 15.8262 4.59197 16.5679 4.95491 17.1201L8.09513 21.9804C7.59017 23.0219 7.14833 24.0949 6.76961 25.1837L1.12038 26.3988C0.457619 26.5408 0 27.1247 0 27.7874V42.2103C0 42.8731 0.473399 43.4569 1.12038 43.599ZM2.8404 28.9236L8.15825 27.7874C8.66321 27.677 9.05771 27.314 9.21551 26.8248C9.67313 25.3573 10.2728 23.9213 10.9829 22.5485C11.2196 22.0908 11.188 21.5543 10.9197 21.1283L7.96889 16.5521L16.5532 7.96776L21.1294 10.9186C21.5555 11.2027 22.1078 11.2184 22.5496 10.9817C23.9225 10.2716 25.3584 9.672 26.826 9.1986C27.3151 9.0408 27.6781 8.6463 27.7885 8.14134L28.9247 2.82349H41.0595L42.1957 8.14134C42.3061 8.6463 42.6691 9.0408 43.1582 9.1986C44.6258 9.672 46.0775 10.2559 47.4346 10.9817C47.8922 11.2184 48.4288 11.1869 48.8548 10.9186L53.431 7.96776L62.0153 16.5521L59.0645 21.1283C58.7804 21.5543 58.7647 22.1066 59.0014 22.5485C59.7114 23.9213 60.3111 25.3573 60.7845 26.8248C60.9423 27.314 61.3368 27.677 61.8417 27.7874L67.1596 28.9236V41.0584L61.8417 42.1945C61.3368 42.305 60.9423 42.6679 60.7845 43.1571C60.3269 44.6247 59.7272 46.0764 59.0014 47.4335C58.7647 47.8911 58.7962 48.4276 59.0645 48.8537L62.0153 53.4299L53.431 62.0142L48.8548 59.0633C48.4288 58.7793 47.8765 58.7635 47.4346 59.0002C46.0618 59.7103 44.6258 60.31 43.1582 60.7834C42.6691 60.9412 42.3061 61.3357 42.1957 61.8406L41.0595 67.1585H28.9247L27.7885 61.8406C27.6781 61.3357 27.3151 60.9412 26.826 60.7834C25.3584 60.3257 23.9067 59.7261 22.5496 59.0002C22.092 58.7635 21.5555 58.7951 21.1294 59.0633L16.5532 62.0142L7.96889 53.4299L10.9197 48.8537C11.2038 48.4276 11.2196 47.8753 10.9829 47.4335C10.2728 46.0606 9.67313 44.6247 9.19973 43.1571C9.04193 42.6679 8.64743 42.305 8.14247 42.1945L2.82462 41.0584V28.9236H2.8404ZM35 55.2919C46.188 55.2919 55.2931 46.1869 55.2931 34.9989C55.2931 23.8109 46.188 14.7058 35 14.7058C23.812 14.7058 14.7069 23.8109 14.7069 34.9989C14.7069 46.1869 23.812 55.2919 35 55.2919ZM35 17.5462C44.6258 17.5462 52.4527 25.3731 52.4527 34.9989C52.4527 44.6247 44.6258 52.4515 35 52.4515C25.3742 52.4515 17.5473 44.6247 17.5473 34.9989C17.5473 25.3731 25.3742 17.5462 35 17.5462ZM24.0171 37.4921C24.4116 36.8136 25.2795 36.5769 25.9581 36.9714L31.0866 39.938L43.7421 27.2825C44.2944 26.7302 45.1939 26.7302 45.7462 27.2825C46.2985 27.8348 46.2985 28.7342 45.7462 29.2865L32.3332 42.6995C32.0649 42.9678 31.702 43.1098 31.3233 43.1098C31.0866 43.1098 30.8341 43.0467 30.6132 42.9204L24.5379 39.4173C23.8593 39.0228 23.6226 38.1549 24.0171 37.4763V37.4921Z" fill="#25223F"/>
</g>
<defs>
<clipPath id="clip0_2791_9262">
<rect width="70" height="70" fill="white"/>
</clipPath>
</defs>
</svg>
