<svg width="74" height="74" viewBox="0 0 74 74" fill="none" xmlns="http://www.w3.org/2000/svg">
<path d="M54.4203 58.9692C54.2688 58.9591 54.1168 58.979 53.973 59.0276C53.8292 59.0763 53.6964 59.1528 53.5822 59.2528C53.4679 59.3527 53.3745 59.4742 53.3072 59.6103C53.24 59.7464 53.2001 59.8944 53.1901 60.0459C53.18 60.1973 53.1998 60.3493 53.2485 60.4931C53.2971 60.6369 53.3736 60.7697 53.4736 60.8839C53.5736 60.9982 53.6951 61.0916 53.8311 61.1589C53.9672 61.2262 54.1152 61.266 54.2667 61.2761C54.3141 61.2794 54.3615 61.2811 54.4101 61.2811C55.6482 61.2811 57.1347 60.2581 58.1374 59.273C58.6946 58.7259 60.4798 56.8159 60.0626 55.2097C59.987 54.9182 59.8006 54.6677 59.5431 54.5115C59.2856 54.3552 58.9773 54.3057 58.6839 54.3733C58.3904 54.4409 58.1348 54.6203 57.9716 54.8734C57.8084 55.1265 57.7504 55.4333 57.8099 55.7286C57.555 56.4639 57.1085 57.118 56.5165 57.6233C55.9583 58.2602 55.2317 58.7267 54.4203 58.9692Z" fill="black"/>
<path d="M37 0C28.2805 0.000546406 19.8412 3.08038 13.1709 8.69622C6.50065 14.3121 2.02787 22.1031 0.541584 30.6951C-0.944703 39.287 0.650995 48.1278 5.0472 55.658C9.44341 63.1882 16.3577 68.924 24.5704 71.8536V69.3756C24.4464 69.3279 24.3252 69.2747 24.2019 69.2256C24.3216 69.18 24.4419 69.1342 24.5704 69.0882V66.7023C23.4768 67.0328 22.4119 67.4516 21.3861 67.9545C18.1313 66.3058 15.1553 64.1567 12.5667 61.5854C13.1712 61.4289 13.7206 61.108 14.154 60.6585C15.5535 59.1815 15.2978 56.7635 15.1233 55.7924C15.0405 54.9961 15.1124 54.1913 15.3351 53.4223L15.3622 53.2947C15.4708 52.8365 15.6101 52.3862 15.7792 51.9467C15.0112 51.8271 14.2719 51.5667 13.5986 51.1784C13.3944 51.7122 13.2276 52.2595 13.0993 52.8165L13.0728 52.9424C12.7784 54.0025 12.7016 55.1112 12.847 56.2017C13.0745 57.4647 12.9283 58.5893 12.4755 59.0675C12.2692 59.2349 12.0267 59.3519 11.7672 59.4089C11.5077 59.466 11.2385 59.4616 10.981 59.396C10.8428 59.3796 10.7028 59.3883 10.5677 59.4216C7.39468 55.7031 5.0482 51.3528 3.68373 46.6588C2.31925 41.9649 1.96794 37.0345 2.65308 32.1945C2.75965 32.2328 2.87132 32.2549 2.98442 32.2604C4.13897 32.299 7.88831 32.5918 8.02042 34.7304C7.88331 36.3875 7.90449 38.054 8.08366 39.7071C8.30084 41.6012 9.42396 42.9131 10.6316 44.0201C10.8441 43.2323 11.207 42.493 11.7002 41.8429C10.9983 41.2186 10.5327 40.3717 10.3815 39.4446C10.2166 37.916 10.1998 36.3751 10.3312 34.8433C10.3349 34.8003 10.336 34.7571 10.3346 34.714C10.2449 31.8798 7.52643 30.0986 3.06234 29.949C3.05264 29.9487 3.04367 29.9511 3.03401 29.951C3.36264 28.3703 3.80223 26.8147 4.34952 25.2958C4.80452 25.6504 5.35908 25.8537 5.93545 25.8773C5.97158 25.8784 6.00656 25.8793 6.04215 25.8793C7.91767 25.8793 9.66164 24.0893 10.9777 22.5183C11.9933 21.3059 13.2659 20.7176 14.74 20.0364C14.9828 19.9244 15.2272 19.8112 15.4728 19.6946C16.7273 19.0987 18.4775 18.0683 19.186 16.0124C19.5539 14.7009 19.5846 13.3178 19.2752 11.9913C19.2442 11.8092 19.2154 11.5746 19.1821 11.3115C19.0016 9.88391 18.8009 8.62971 18.26 7.83356C22.568 5.05247 27.4424 3.26808 32.5277 2.61056C32.7752 3.13817 32.9005 3.71478 32.8944 4.29752C32.9012 5.39054 32.8679 6.13747 32.3733 6.54594C31.9244 6.86175 31.4292 7.10611 30.9054 7.27031C30.5961 7.38774 30.2878 7.50574 29.9937 7.64067C28.5188 8.23335 27.1637 9.0887 25.9942 10.1652C25.079 11.1009 24.8148 12.0237 25.21 12.9082C25.3299 13.1764 25.5474 13.389 25.8184 13.5027C26.0894 13.6164 26.3935 13.6226 26.6689 13.5201C26.9443 13.4176 27.1703 13.2141 27.3011 12.951C27.4319 12.6878 27.4575 12.3847 27.3729 12.1034C27.4542 11.988 27.5461 11.8805 27.6473 11.7821C28.6233 10.9152 29.7431 10.2252 30.9563 9.74313C31.2047 9.62908 31.4649 9.53141 31.7263 9.43205C32.489 9.18494 33.2051 8.81239 33.8451 8.32971C35.2244 7.19125 35.2142 5.51078 35.2069 4.282C35.2087 3.63724 35.112 2.99598 34.9202 2.3804C35.6089 2.33946 36.3013 2.3125 37 2.3125C40.0406 2.31253 43.068 2.71336 46.0038 3.50463C44.85 4.71236 43.6624 6.59546 44.2288 8.92762C44.2367 8.95952 44.2469 8.99396 44.2571 9.02501C44.5027 9.75839 44.6049 10.8108 44.3587 11.1478C44.2825 11.2523 44.0764 11.2765 43.9048 11.2771C42.9631 11.2045 36.5862 10.8458 36.1159 14.6222L36.1199 14.6225C36.1081 14.6937 36.1002 14.7655 36.0962 14.8376C36.012 16.2722 35.6976 16.9166 35.452 17.2012C35.256 17.3439 35.0467 17.4675 34.827 17.5701C34.2116 17.8245 33.6772 18.2418 33.2812 18.7772C32.8378 19.4281 32.5646 20.1798 32.4866 20.9635C33.6266 19.8124 35.1642 19.1417 36.7835 19.0891C36.935 18.9805 37.0743 18.8556 37.1988 18.7168C38.2573 17.4914 38.368 15.5955 38.4047 14.9728L38.407 14.9341L38.4103 14.9079C38.5504 13.7852 41.6595 13.4118 43.7586 13.5854C43.7845 13.5876 43.8111 13.5887 43.837 13.5893C44.2951 13.6266 44.7551 13.5467 45.1737 13.3573C45.5924 13.1678 45.956 12.8749 46.2303 12.5062C47.264 11.0832 46.6492 8.89798 46.4657 8.33877C46.048 6.48654 47.7462 4.93269 48.5683 4.30337C53.9547 6.22142 58.786 9.43626 62.6355 13.664C66.485 17.8917 69.2343 23.0023 70.6406 28.5444C68.7278 27.6986 66.4542 28.0723 65.0769 28.3004C64.6857 28.3651 64.1787 28.4486 63.8885 28.4639C62.7415 27.2655 61.1719 26.5625 59.5142 26.5045C58.9764 26.4718 58.4385 26.5659 57.9438 26.7793C57.4492 26.9927 57.0116 27.3194 56.6664 27.733C56.3132 28.1475 56.0619 28.6389 55.9326 29.1679C55.8033 29.6969 55.7996 30.2488 55.9218 30.7795C56.0402 31.2031 56.2069 31.6117 56.4186 31.9973C56.5811 32.3049 56.7203 32.6242 56.8353 32.9525C56.6639 33.0525 56.4731 33.1149 56.2758 33.1354C55.6914 33.2374 55.0899 33.1276 54.5792 32.8258C54.412 32.6488 54.1926 32.5297 53.9531 32.4858C54.5 33.3593 54.8247 34.3535 54.8985 35.3814C55.2249 35.4416 55.556 35.4726 55.8879 35.4739C56.1289 35.4746 56.3697 35.4579 56.6083 35.424C57.0942 35.3864 57.5635 35.2304 57.9753 34.9696C58.387 34.7089 58.7287 34.3513 58.9705 33.9281C59.4673 32.9441 58.9264 31.8505 58.4917 30.972C58.3708 30.7454 58.2657 30.5108 58.1772 30.2697C58.1354 30.0878 58.1367 29.8986 58.1811 29.7172C58.2255 29.5359 58.3118 29.3675 58.433 29.2255C58.5472 29.085 58.6936 28.9742 58.8598 28.9025C59.026 28.8308 59.2071 28.8003 59.3877 28.8137C60.3813 28.8681 61.6471 29.2865 62.2343 30.0975C62.8914 31.0053 64.0793 30.8092 65.454 30.5819C68.2944 30.1122 70.5341 29.9809 71.3697 32.8391C71.3915 32.9129 71.4205 32.9844 71.4564 33.0524C72.3441 40.6939 70.6605 48.4132 66.6716 54.9911C62.6828 61.569 56.616 66.6303 49.4297 69.3756V71.8536C57.6424 68.924 64.5566 63.1882 68.9529 55.658C73.3491 48.1278 74.9448 39.287 73.4585 30.6951C71.9722 22.1031 67.4994 14.3121 60.8291 8.69622C54.1588 3.08038 45.7196 0.000546406 37 0ZM16.8876 11.6012C16.9255 11.9007 16.9599 12.168 16.9943 12.3752C17.2281 13.3221 17.23 14.3115 17 15.2593C16.6674 16.2231 15.9143 16.9248 14.4797 17.606C14.242 17.7192 14.0049 17.8287 13.7701 17.9374C12.1881 18.6682 10.5531 19.4239 9.2049 21.0332C7.33051 23.2704 6.39671 23.5814 6.02014 23.5662C5.94392 23.5634 5.76608 23.5572 5.5137 23.2077C5.44878 23.1202 5.37166 23.0424 5.28469 22.9767C7.72352 17.4896 11.5372 12.7248 16.3568 9.14318C16.6227 9.50885 16.8151 11.0244 16.8876 11.6012Z" fill="black"/>
<path d="M41.0469 25.4378C41.0472 24.6872 40.8388 23.9513 40.4449 23.3124C40.051 22.6734 39.4871 22.1566 38.8164 21.8197C38.1456 21.4828 37.3944 21.3391 36.6467 21.4046C35.8989 21.4701 35.1842 21.7423 34.5822 22.1908C33.9803 22.6392 33.515 23.2462 33.2382 23.944C32.9615 24.6417 32.8842 25.4026 33.0151 26.1417C33.146 26.8808 33.4799 27.569 33.9794 28.1292C34.4789 28.6895 35.1244 29.0998 35.8437 29.3142V72.844C35.8437 73.1507 35.9656 73.4448 36.1824 73.6616C36.3992 73.8784 36.6933 74.0003 37 74.0003C37.3067 74.0003 37.6008 73.8784 37.8176 73.6616C38.0344 73.4448 38.1562 73.1507 38.1562 72.844V29.3142C38.9906 29.0645 39.7224 28.5526 40.243 27.8544C40.7637 27.1561 41.0456 26.3088 41.0469 25.4378ZM37 27.1722C36.657 27.1722 36.3216 27.0705 36.0364 26.8799C35.7512 26.6893 35.5289 26.4184 35.3976 26.1015C35.2664 25.7846 35.232 25.4359 35.2989 25.0994C35.3659 24.763 35.5311 24.454 35.7736 24.2114C36.0162 23.9689 36.3252 23.8037 36.6616 23.7368C36.9981 23.6698 37.3468 23.7042 37.6637 23.8355C37.9806 23.9667 38.2515 24.189 38.4421 24.4742C38.6327 24.7595 38.7344 25.0948 38.7344 25.4378C38.7339 25.8976 38.551 26.3385 38.2258 26.6636C37.9007 26.9888 37.4598 27.1717 37 27.1722Z" fill="black"/>
<path d="M27.9714 38.9941C28.7138 38.3951 29.2204 37.5528 29.4017 36.6163C29.583 35.6798 29.4272 34.7093 28.962 33.8766C28.4968 33.0438 27.752 32.4024 26.8595 32.0658C25.967 31.7292 24.9842 31.719 24.0849 32.0372C23.1856 32.3553 22.4278 32.9812 21.9454 33.8042C21.4631 34.6271 21.2874 35.5942 21.4493 36.5342C21.6112 37.4743 22.1003 38.3268 22.8302 38.941C23.5601 39.5552 24.4836 39.8915 25.4375 39.8904C25.5706 39.8904 25.7019 39.8831 25.8318 39.8705L30.7908 52.026C31.0741 52.7193 31.2195 53.4613 31.2188 54.2103V72.8435C31.2188 73.1502 31.3406 73.4443 31.5574 73.6611C31.7742 73.878 32.0683 73.9998 32.375 73.9998C32.6817 73.9998 32.9758 73.878 33.1926 73.6611C33.4094 73.4443 33.5313 73.1502 33.5313 72.8435V54.2103C33.5323 53.1618 33.3286 52.1231 32.9317 51.1526L27.9714 38.9941ZM23.7031 35.8436C23.7031 35.5005 23.8049 35.1652 23.9954 34.88C24.186 34.5948 24.4569 34.3725 24.7738 34.2412C25.0907 34.11 25.4394 34.0756 25.7759 34.1425C26.1123 34.2094 26.4213 34.3746 26.6639 34.6172C26.9065 34.8597 27.0716 35.1688 27.1386 35.5052C27.2055 35.8417 27.1711 36.1904 27.0399 36.5073C26.9086 36.8242 26.6863 37.0951 26.4011 37.2857C26.1159 37.4762 25.7805 37.5779 25.4375 37.5779C24.9777 37.5774 24.5368 37.3946 24.2117 37.0694C23.8865 36.7443 23.7036 36.3034 23.7031 35.8436Z" fill="black"/>
<path d="M27.4813 52.1976L20.4865 47.2585C20.8702 46.3627 20.9186 45.3586 20.6229 44.43C20.3272 43.5014 19.7071 42.7102 18.8761 42.2012C18.045 41.6921 17.0585 41.4992 16.0969 41.6576C15.1353 41.8161 14.2629 42.3154 13.6392 43.0642C13.0154 43.813 12.682 44.7613 12.6999 45.7357C12.7178 46.7101 13.0858 47.6455 13.7367 48.3709C14.3875 49.0962 15.2777 49.5631 16.2445 49.6861C17.2113 49.8092 18.19 49.5801 19.0018 49.0409L26.1478 54.0867C26.3744 54.247 26.5594 54.4592 26.6871 54.7057C26.8148 54.9521 26.8815 55.2256 26.8817 55.5032V72.8436C26.8817 73.1502 27.0035 73.4443 27.2204 73.6612C27.4372 73.878 27.7313 73.9998 28.038 73.9998C28.3446 73.9998 28.6387 73.878 28.8556 73.6612C29.0724 73.4443 29.1942 73.1502 29.1942 72.8436V55.5032C29.1939 54.8554 29.0382 54.2171 28.7401 53.6419C28.4421 53.0667 28.0104 52.5715 27.4813 52.1976ZM15.0302 45.6717C15.0302 45.3287 15.1319 44.9934 15.3225 44.7082C15.513 44.4229 15.7839 44.2006 16.1008 44.0694C16.4177 43.9381 16.7665 43.9038 17.1029 43.9707C17.4393 44.0376 17.7484 44.2028 17.9909 44.4453C18.2335 44.6879 18.3987 44.9969 18.4656 45.3334C18.5325 45.6698 18.4982 46.0185 18.3669 46.3354C18.2356 46.6524 18.0133 46.9232 17.7281 47.1138C17.4429 47.3044 17.1076 47.4061 16.7645 47.4061C16.3047 47.4056 15.8639 47.2227 15.5387 46.8976C15.2136 46.5724 15.0307 46.1316 15.0302 45.6717Z" fill="black"/>
<path d="M48.5625 39.8903C49.5201 39.8926 50.4476 39.5559 51.1809 38.94C51.9142 38.3241 52.4059 37.4686 52.569 36.525C52.7321 35.5813 52.5561 34.6104 52.0721 33.7841C51.5882 32.9578 50.8275 32.3293 49.9247 32.0099C49.0219 31.6906 48.0352 31.7009 47.1393 32.0391C46.2434 32.3773 45.4961 33.0216 45.0295 33.8579C44.563 34.6942 44.4074 35.6686 44.5903 36.6086C44.7731 37.5486 45.2826 38.3936 46.0286 38.994L41.0683 51.153C40.6713 52.1233 40.4677 53.1618 40.4688 54.2102V72.8434C40.4688 73.1501 40.5906 73.4442 40.8074 73.661C41.0242 73.8779 41.3183 73.9997 41.625 73.9997C41.9317 73.9997 42.2258 73.8779 42.4426 73.661C42.6594 73.4442 42.7813 73.1501 42.7813 72.8434V54.2102C42.7805 53.4614 42.9258 52.7196 43.2092 52.0264L48.1683 39.8704C48.2981 39.883 48.4294 39.8903 48.5625 39.8903ZM48.5625 34.1091C48.9055 34.1091 49.2408 34.2108 49.5261 34.4014C49.8113 34.592 50.0336 34.8628 50.1648 35.1797C50.2961 35.4967 50.3305 35.8454 50.2635 36.1818C50.1966 36.5183 50.0314 36.8273 49.7889 37.0699C49.5463 37.3124 49.2373 37.4776 48.9009 37.5445C48.5644 37.6114 48.2157 37.5771 47.8988 37.4458C47.5819 37.3145 47.311 37.0922 47.1204 36.807C46.9298 36.5218 46.8281 36.1865 46.8281 35.8435C46.8286 35.3836 47.0115 34.9428 47.3367 34.6176C47.6618 34.2925 48.1027 34.1096 48.5625 34.1091Z" fill="black"/>
<path d="M57.2344 49.7185C58.105 49.719 58.9527 49.4389 59.6516 48.9197C60.3505 48.4005 60.8635 47.6698 61.1144 46.8361C61.3653 46.0024 61.3408 45.11 61.0445 44.2912C60.7482 43.4725 60.196 42.7711 59.4696 42.291C58.7433 41.8109 57.8815 41.5778 57.0122 41.626C56.1429 41.6743 55.3123 42.0016 54.6436 42.5591C53.9749 43.1167 53.5037 43.875 53.2999 44.7215C53.0962 45.568 53.1707 46.4576 53.5124 47.2584L46.5176 52.1975C45.9885 52.5714 45.5568 53.0666 45.2588 53.6418C44.9607 54.217 44.805 54.8553 44.8047 55.5031V72.8435C44.8047 73.1501 44.9265 73.4442 45.1433 73.6611C45.3602 73.8779 45.6543 73.9997 45.9609 73.9997C46.2676 73.9997 46.5617 73.8779 46.7785 73.6611C46.9954 73.4442 47.1172 73.1501 47.1172 72.8435V55.5031C47.1174 55.2255 47.1841 54.952 47.3118 54.7056C47.4395 54.4591 47.6245 54.2468 47.8511 54.0866L54.9971 49.0407C55.6593 49.4832 56.438 49.7191 57.2344 49.7185ZM57.2344 43.9372C57.5774 43.9372 57.9127 44.039 58.1979 44.2295C58.4831 44.4201 58.7054 44.691 58.8367 45.0079C58.968 45.3248 59.0023 45.6735 58.9354 46.01C58.8685 46.3464 58.7033 46.6555 58.4607 46.898C58.2182 47.1406 57.9092 47.3057 57.5727 47.3727C57.2363 47.4396 56.8876 47.4052 56.5706 47.274C56.2537 47.1427 55.9829 46.9204 55.7923 46.6352C55.6017 46.35 55.5 46.0146 55.5 45.6716C55.5005 45.2118 55.6834 44.7709 56.0085 44.4458C56.3337 44.1206 56.7745 43.9378 57.2344 43.9372Z" fill="black"/>
</svg>
