<svg width="90" height="64" viewBox="0 0 90 64" fill="none" xmlns="http://www.w3.org/2000/svg">
<path d="M89.656 37.4965C86.9568 52.1255 68 63.4655 45 63.4655C22 63.4655 3.039 52.1255 0.344 37.4965C5.3323 50.7975 23.457 60.6845 45 60.6845C66.539 60.6845 84.664 50.7978 89.656 37.4965ZM45 1.56246C20.754 1.56246 1.027 14.3635 1.027 30.0935C1.027 45.8275 20.754 58.6285 45 58.6285C69.246 58.6285 88.973 45.8275 88.973 30.0975C88.973 14.3635 69.246 1.56246 45 1.56246ZM45 0.535156C69.852 0.535156 90 13.7692 90 30.0942C90 46.4222 69.852 59.6562 45 59.6562C20.148 59.6562 0 46.4222 0 30.0972C0 13.7692 20.148 0.535156 45 0.535156ZM86.234 31.6912L80.3551 35.2068L83.609 37.5701L84.2653 38.0544L83.5582 38.4802L77.691 41.9841L80.9722 44.3669L81.6402 44.8513L71.7925 50.7888L71.0972 51.2146L68.523 52.7693L67.8159 53.1833L65.2418 54.738L64.5347 55.1716L63.8668 54.6872L60.5229 52.2536L53.9487 56.1833L53.2808 55.699L50.0386 53.3357L44.1597 56.8513L43.4526 57.277L42.7847 56.7927L39.5308 54.4294L36.9449 55.9841L36.2379 56.3981L35.5699 55.9137L28.398 50.7028L25.9019 52.1989L25.1949 52.6247L24.5386 52.1403L9.5386 41.2303L8.87063 40.746L9.57766 40.3319L12.0738 38.8358L4.85106 33.5702L4.18309 33.0858L4.90184 32.66L7.47604 31.1248L4.28464 28.8006L3.61667 28.3163L4.33542 27.8905L10.2026 24.3866L6.94872 22.0116L6.28075 21.535L6.98778 21.1092L12.8667 17.5936L9.61278 15.2303L8.95653 14.746L9.66356 14.3202L25.4016 4.89439L26.1203 4.46861L26.7883 4.96469L30.0305 7.328H30.0422L35.9094 3.8124L36.6164 3.38662L37.2844 3.871L40.5383 6.2343L46.4172 2.7187L47.1125 2.29292L47.7805 2.7773L51.0344 5.1406L53.6203 3.5937L54.3273 3.16792L54.9836 3.6523L62.1555 8.8632L64.7414 7.3163L65.4484 6.89052L66.1164 7.3749L81.1044 18.2849L81.7723 18.7693L81.077 19.1951L78.4872 20.7615L81.7411 23.1248L82.3974 23.6013L85.6513 25.9646L86.3192 26.4607L85.6122 26.8865L83.038 28.4217L86.2802 30.785L86.9482 31.2694L86.234 31.6912ZM81.6871 24.0271L79.1012 25.574L82.3551 27.9373L84.9293 26.3904L81.6871 24.0271ZM79.0621 29.906L81.648 28.3591L78.3941 25.9958L75.8121 27.5388L79.0621 29.9021V29.906ZM73.7379 43.48L76.3121 41.9331L73.0582 39.5698L70.484 41.1128L73.734 43.4761L73.7379 43.48ZM74.4059 48.3277L76.984 46.7769L73.6871 44.3785L71.1012 45.9215L74.4059 48.3277ZM53.3669 50.4683L55.9411 48.9214L52.6872 46.5581L50.113 48.105L53.363 50.4683H53.3669ZM24.5349 46.9488L27.1208 45.4019L27.1169 45.3979L23.8747 43.0463L23.8708 43.0424L21.2849 44.5893L21.2888 44.5932L24.531 46.9488L24.5349 46.9488ZM20.6208 44.1011L23.1911 42.562L19.9489 40.1987L17.363 41.7456L20.6169 44.1011H20.6208ZM11.4372 29.6401L8.85127 31.187L12.1638 33.5893L14.7458 32.0463L11.4372 29.6401ZM14.1638 22.9057L11.5779 24.4526L14.781 26.7768L17.3669 25.2299L14.1677 22.9057H14.1638ZM22.7849 7.35866L20.2068 8.90946L23.449 11.265H23.4568L26.0388 9.72196L22.7849 7.35866ZM37.1949 9.11646L34.6207 10.6634L37.8512 13.015L40.4332 11.472L37.1949 9.11646ZM47.6869 8.02666L45.101 9.56186L48.3627 11.9447L50.9486 10.3978L47.6869 8.02666ZM54.9057 8.90947L52.3198 10.4564L55.5698 12.8197L58.1518 11.265L54.9096 8.90947H54.9057ZM73.2337 13.5189L70.6478 15.0658L73.9056 17.4252L76.4837 15.8822L73.2337 13.5189ZM73.8548 18.3353L71.2689 19.8822L71.2728 19.8861L74.5267 22.2377L77.1126 20.7025L73.8587 18.3392L73.8548 18.3353ZM49.4448 47.6203L52.019 46.0734L48.7651 43.7101L46.1909 45.257L49.4409 47.6203H49.4448ZM38.9528 48.7101L41.5387 47.1632L38.2848 44.7999H38.273L35.6949 46.3429L38.9488 48.7101H38.9528ZM27.8278 44.9796L30.4098 43.4366L27.1598 41.0733L24.5739 42.6202L24.5778 42.6241L27.82 44.9796H27.8278ZM23.9059 42.1358L26.4918 40.5889L23.2457 38.2256L20.6598 39.7725L23.902 42.1358H23.9059ZM19.3239 35.378L16.738 36.9249L19.9919 39.2882L22.5661 37.7413L22.5739 37.7374L19.3278 35.378L19.3239 35.378ZM18.0231 25.71L15.4372 27.2569L18.7419 29.6553L21.3278 28.1084L18.027 25.7061L18.0231 25.71ZM27.3239 15.026L24.7497 16.5729L27.9606 18.9167L30.5465 17.3698L27.3239 15.026ZM41.0939 11.9518L38.508 13.4987L41.7892 15.8737L44.3673 14.3307L41.0978 11.9518H41.0939ZM45.7384 14.3932L48.9845 16.7565L48.9884 16.7526L51.5626 15.2057L48.3243 12.8463L45.7384 14.3932ZM67.3554 17.0338L70.6132 19.3932L73.1913 17.8502L69.9413 15.4869L67.3554 17.0338ZM68.5663 30.9948L71.1522 29.4479L67.8983 27.0846L65.3124 28.6276L68.5624 30.9909L68.5663 30.9948ZM61.8983 40.1667L58.6483 37.8034L56.0624 39.3503L59.3163 41.7097L61.8983 40.1667ZM41.6173 41.9245L44.1915 40.3776L40.9532 38.0143L38.3673 39.5612L41.6173 41.9245ZM34.4064 41.0456L36.9884 39.4987L33.7384 37.1354L31.1525 38.6823L34.4025 41.0456H34.4064ZM31.2033 17.8546L28.6174 19.3898L31.9104 21.7843L34.4924 20.2374L31.2151 17.8546H31.2033ZM39.1564 18.3311L42.4025 20.6944L44.9884 19.1475L41.7384 16.7842L39.1564 18.3311ZM52.2344 15.6905L49.6602 17.2374L49.6563 17.2413L52.9024 19.6007L55.4883 18.0538L52.2461 15.6905L52.2344 15.6905ZM43.5742 35.5655L43.5663 35.5616L40.3241 33.1983L37.7382 34.7452L40.9765 37.1085L40.9805 37.1124L43.5742 35.5655ZM25.9882 26.2061L25.9921 26.21L29.2343 28.5733L31.8202 27.0186L28.578 24.6631L28.5741 24.6592L25.9882 26.2061ZM29.2812 24.2334H29.2851L32.5273 26.5967L35.1132 25.0498L31.871 22.6865L31.8671 22.6826L29.2812 24.2334ZM42.3672 21.6006L39.7813 23.1436L43.0274 25.503L45.6172 23.96L42.3672 21.5967V21.6006ZM52.8672 20.5108L50.2852 22.0538L53.5274 24.4171L56.1133 22.8702L52.8672 20.5108ZM57.4024 28.1749L54.8165 29.7218L58.0704 32.089L60.6446 30.5421L57.4024 28.1788V28.1749ZM50.1563 31.628L46.9063 29.2647L44.3204 30.8116L44.3243 30.8155L47.5665 33.1788L50.1563 31.628ZM39.6603 32.7139V32.71L36.4064 30.3584L33.8205 31.9053L37.0744 34.2608L37.0783 34.2647L39.6603 32.7139ZM33.2033 27.085L36.4455 29.4366L39.0314 27.8897L35.7892 25.5342L33.2033 27.085ZM32.4962 27.5108L29.9103 29.0577L33.1525 31.4132L35.7384 29.8663L32.4962 27.5108ZM40.3634 32.292L42.9532 30.7412H42.9493L39.6954 28.3857L37.1095 29.9326L40.3517 32.2881L40.3634 32.292ZM43.6564 30.3232L46.2384 28.7802L42.9923 26.4208L40.4064 27.9677L43.6486 30.3193L43.6564 30.3232ZM46.9455 28.3544L49.5275 26.8075L46.2814 24.4442L43.6955 25.9872L46.9455 28.3544ZM50.8635 31.2021L53.4455 29.6552L50.1955 27.2919L47.6135 28.8388L50.8635 31.2021ZM50.9065 26.874L54.1565 29.2373L56.7424 27.6904L53.4924 25.3271L50.9065 26.874ZM51.5276 31.6865L54.7815 34.0537L57.3596 32.5029L54.1135 30.1435L51.5276 31.6865ZM60.0276 25.7217L56.7776 23.3584L54.1917 24.9053L57.4417 27.2686L60.0276 25.7217ZM49.5786 22.4795L46.9927 24.0264L50.2388 26.3897L52.8208 24.8467L49.5786 22.4795ZM39.0746 23.5693H39.0707L36.4848 25.1162L39.7387 27.4795L42.3246 25.9326L39.0746 23.5693ZM38.4105 23.0849L35.1605 20.7216L32.5785 22.2685H32.5824L35.8246 24.6318L38.4105 23.0849ZM29.1957 29.4794L26.6215 31.0146L26.6176 31.0185L29.8637 33.3779L32.4496 31.831L29.2074 29.4794L29.1957 29.4794ZM25.9105 31.4403L23.3285 32.9833L26.5707 35.3466L29.1566 33.7997L25.9105 31.4403ZM30.5316 33.8661L33.7816 36.2294L36.3636 34.6864L36.3558 34.6825L33.1136 32.327L30.5394 33.8622L30.5316 33.8661ZM34.4496 36.7138L37.6996 39.0771L40.2816 37.5341L40.2777 37.5302L37.0355 35.1669L34.4496 36.7138ZM44.2738 35.1435L46.8715 33.5888L43.6215 31.2255L41.0277 32.7763L41.0316 32.7802L44.2738 35.1435ZM44.9379 35.6279H44.9418L48.1957 37.9912L50.7816 36.4365L47.5394 34.0732L44.9379 35.6279ZM51.4887 36.0263L54.0746 34.4794H54.0785L50.8246 32.1122L48.2348 33.6591L51.4887 36.0263ZM55.4457 34.5341L58.6996 36.9013L61.2855 35.3583L58.0277 32.9872L55.4457 34.5341ZM59.3637 37.3857L62.602 39.7412L65.1918 38.1982L61.9457 35.8388L59.3637 37.3857ZM61.9926 34.9326L64.5668 33.3857L61.3129 31.0224L58.7387 32.5693L61.9887 34.9326H61.9926ZM61.3676 30.1162L63.9496 28.5732L60.6957 26.206L58.1137 27.749L61.3676 30.1162ZM64.6488 28.1435L67.2347 26.6005L63.9847 24.2411L61.4027 25.7841L64.6488 28.1435ZM63.3246 23.7529L60.0746 21.3896L57.4887 22.9365L60.7387 25.2998L63.3246 23.7529ZM64.0316 23.3272L66.6097 21.7842L63.3597 19.4209L60.7777 20.9639L64.0277 23.3272H64.0316ZM62.6957 18.9366L59.4418 16.5694L56.8715 18.1124L60.1137 20.4757H60.1176L62.6957 18.9366ZM56.1527 18.5381L53.5668 20.085L56.8207 22.4522L59.4027 20.9092L59.3949 20.9053L56.1527 18.5381ZM48.9496 17.6631L46.3676 19.2061L49.6215 21.5694L52.1957 20.0225L48.9496 17.6631ZM45.6605 19.6319L43.0746 21.1788L46.3246 23.5421L48.8988 21.9952L45.6605 19.6319ZM38.4496 18.753L35.8676 20.2999L39.1176 22.6632L41.7035 21.1202L38.4496 18.753ZM37.7856 18.2686L34.5083 15.8858L31.9224 17.4288L35.1997 19.8116L37.7856 18.2686ZM27.9106 19.8116L25.3247 21.3585L28.6138 23.7491L31.1997 22.2022L27.9106 19.8116ZM24.6176 21.7843L22.0317 23.3195L25.3208 25.7218L27.9067 24.1749L24.6176 21.7843ZM22.7035 28.171L25.9496 30.5304L25.9535 30.5265L28.5277 28.9796L25.2855 26.628L25.2816 26.6241L22.7035 28.171ZM21.9964 28.5929L19.4105 30.1398L22.6605 32.4992L25.2425 30.9562L21.9964 28.5929ZM22.6175 33.4093L20.0316 34.9562L23.2777 37.3156L25.8597 35.7726L22.6175 33.4093ZM23.9495 37.8038L27.1995 40.1671L29.7815 38.6241L26.5393 36.2608L23.9534 37.8077L23.9495 37.8038ZM30.4886 38.1983L33.0745 36.6514L29.8245 34.2881L27.2425 35.8311L30.4847 38.1944L30.4886 38.1983ZM35.0745 41.5303L38.3284 43.8936L40.9104 42.3506L37.6565 39.9873L35.0745 41.5303ZM44.9026 39.9561L47.4885 38.4092L44.2463 36.0459L41.6604 37.5928L44.9026 39.9561ZM45.5667 40.4405L48.8206 42.8155L51.4065 41.2608L48.1526 38.8975L45.5667 40.4405ZM52.1136 40.8429L54.6995 39.2882L51.4456 36.9249L48.8597 38.4718L52.1136 40.8429ZM55.4066 38.8741L57.9925 37.3272L54.7347 34.9561L52.1527 36.4991L55.4066 38.8741ZM63.2816 40.2335L66.5199 42.589L69.1097 41.046L65.8636 38.6866L63.2816 40.2335ZM65.9027 37.7726L68.4769 36.2374L65.2347 33.8741L62.6527 35.4171L65.8949 37.7765L65.9027 37.7726ZM65.2855 32.964L67.8675 31.421L64.6136 29.0538L62.0394 30.6007L65.2855 32.964ZM67.9417 26.1749L70.5237 24.6319L67.2776 22.2686L64.6995 23.8116L67.9417 26.1749ZM71.2347 24.2061L73.8206 22.6592L70.5706 20.2998L67.9847 21.8467L71.2308 24.2061H71.2347ZM66.6605 17.4483L64.0707 18.9991L67.3207 21.3624L69.9066 19.8155L66.6605 17.4483ZM65.9886 16.9678L65.9808 16.9639L62.7386 14.6006L60.1566 16.1553L63.4027 18.5147L65.9886 16.9678ZM58.7777 16.0889L55.5394 13.7334L52.9535 15.2803L56.1957 17.6319L58.7777 16.0889ZM54.8597 13.2373L51.6175 10.8779L49.0316 12.4248L49.0355 12.4287L52.2777 14.7803H52.2894L54.8597 13.2373ZM45.0316 14.8154L42.4496 16.3584L45.6996 18.7178L48.2816 17.1748L45.0316 14.8154ZM37.8011 13.9248L35.2152 15.46H35.2113L38.4925 17.8467L41.0784 16.2998L41.0745 16.2959L37.8011 13.9248ZM33.8441 15.4014L30.6175 13.0537L28.0316 14.5967L31.2543 16.9405L33.8441 15.4014ZM29.9496 12.5694L26.7035 10.21L24.1137 11.753L27.3637 14.1163L29.9496 12.5694ZM24.0316 16.9952L21.4574 18.5421L24.6683 20.8741L27.2542 19.3272L24.0316 16.9952ZM20.7504 18.964L18.1645 20.5109L21.3676 22.8429L23.9653 21.296L20.7504 18.964ZM21.3246 23.7413L18.7387 25.2882L22.0356 27.6866L24.6137 26.1436L21.3246 23.7413ZM16.1176 32.1085L19.3637 34.4718L21.9496 32.9249L18.6996 30.5616L16.1176 32.1085ZM31.1136 43.0145L33.6956 41.4715L30.4456 39.1082L27.8636 40.6512L31.1136 43.0145ZM31.7816 43.4988L35.0316 45.8621L37.6175 44.3191L34.3636 41.9558L31.7816 43.4988ZM42.2466 46.7411L44.8286 45.198L41.5747 42.8308H41.5708L38.9849 44.3777L42.2466 46.7411ZM45.5318 44.7762L45.5357 44.7723L48.1099 43.2371L44.856 40.8621L42.274 42.4051L45.5318 44.7762ZM52.731 45.6512L55.3169 44.1043L52.0747 41.741L49.4888 43.2879L52.731 45.6512ZM56.024 43.6824L58.6099 42.1355L55.3677 39.7722L52.77 41.3191L56.024 43.6824ZM56.6881 44.1668L59.9303 46.5301L62.528 44.9832L59.2858 42.6199L56.6881 44.1668ZM63.235 44.5614L65.817 43.0184L62.567 40.6551L59.9928 42.2098L63.235 44.5614ZM67.192 43.0809L70.442 45.4442L73.024 43.8973L69.774 41.534L67.192 43.0809ZM69.8092 40.62L72.3951 39.0848L69.1529 36.7215L66.5709 38.2645L69.8092 40.62ZM69.1959 35.8036L71.7701 34.2606L68.5318 31.9051L65.9459 33.452L69.1959 35.8036ZM72.4811 33.8388L75.0631 32.2958L71.8209 29.9325L69.235 31.4794L72.4811 33.8388ZM71.86 29.0263L74.442 27.4833L71.192 25.12L68.61 26.663L71.86 29.0263ZM75.1569 27.0615L77.7389 25.5185L74.485 23.1435L71.903 24.6982L75.1569 27.0615ZM72.5671 13.0345L69.3249 10.6712L66.739 12.2181L69.9812 14.5814L72.5671 13.0345ZM66.0319 12.6399L63.446 14.1868L66.6882 16.5423L66.696 16.5462L69.2741 15.0032L66.0319 12.6399ZM65.3561 12.1555L62.1139 9.79225L59.528 11.3391L62.7819 13.7024L65.3561 12.1555ZM58.8327 11.761L56.2429 13.304L59.4929 15.6673L62.0749 14.1126L58.8327 11.761ZM54.2429 8.42512L50.9851 6.05402L48.3992 7.60092L51.6609 9.97202L54.2429 8.42512ZM44.3952 9.98372H44.3874L41.8015 11.5267L45.0749 13.9056L47.6569 12.3626L44.3952 9.98372ZM43.7311 9.51105L40.5006 7.15556L37.9147 8.69855L41.1413 11.0463L41.1453 11.0424L43.7311 9.51105ZM33.9109 11.0853L31.3249 12.6322H31.321L34.5476 14.9799L34.5555 14.976L37.1414 13.4407L33.9109 11.0853ZM33.2468 10.6009L29.9929 8.24538L27.4187 9.78058L27.4109 9.78448L30.6609 12.1478L30.6687 12.1439L33.2468 10.6009ZM23.407 12.1751L20.8328 13.722L24.0867 16.0853L26.6609 14.5384L23.4109 12.1751H23.407ZM20.1258 14.1478L17.5399 15.6947L20.7938 18.058L23.3797 16.5111L20.1258 14.1478ZM16.8328 16.1166L14.2469 17.6635L17.5008 20.0268L20.0867 18.4799L16.8328 16.1166ZM17.4578 20.933L14.8758 22.476L18.0711 24.8041L20.657 23.2689L17.4578 20.933ZM14.7312 27.6713L12.1453 29.2182L15.4539 31.6244L18.0359 30.0814L14.7312 27.6713ZM12.8289 34.0736L16.0711 36.4369L18.657 34.89L15.407 32.5267L12.8289 34.0736ZM16.032 37.347L13.4578 38.8939L16.7 41.2494L19.2742 39.7142L16.032 37.347ZM25.2 47.437L25.2039 47.4409L28.4461 49.8042L31.032 48.2573L27.7781 45.894L25.2 47.437ZM31.7391 47.8315L34.325 46.2846L31.0711 43.9174L28.4891 45.4604L28.493 45.4643L31.7391 47.8315ZM32.4071 48.3081L35.661 50.6831L38.2469 49.1362L34.9891 46.7651L32.4071 48.3081ZM36.3251 51.1558L39.5673 53.5191L42.1493 51.9761L38.9032 49.6167L36.3251 51.1558ZM42.8642 51.5581L45.4462 50.0034L42.204 47.6401H42.1961L39.6141 49.1909L42.8642 51.5581ZM46.1533 49.5893L48.7392 48.0424L45.4892 45.6791L42.9033 47.226L46.1533 49.5893ZM46.8212 50.0776L50.0634 52.4409L52.6454 50.8862L49.4071 48.5307L46.8212 50.0776ZM56.6493 48.4995L59.2352 46.9526L55.993 44.5893L53.4071 46.1362L56.6493 48.4995ZM57.3173 48.9839L60.5595 51.3472L63.1572 49.8003L59.9033 47.437L57.3173 48.9839ZM63.8525 49.3784L66.4502 47.8315L63.1963 45.4682L60.6104 47.0151L63.8525 49.3784ZM67.1455 47.4096L69.7314 45.8627L66.4853 43.5033L63.9033 45.0463L67.1455 47.4096ZM73.1143 38.6518L75.6846 37.1088L72.4463 34.7533L69.8604 36.2963L73.1143 38.6518ZM76.3995 36.6909L78.9815 35.1479L75.7276 32.7846L73.1534 34.3276L76.3995 36.6909ZM75.7706 31.8745L78.3565 30.3276L75.1104 27.9682L72.5284 29.5112L75.7706 31.8745ZM77.7823 21.1865L75.1964 22.7334L78.4503 25.0967L81.0362 23.5498L77.7823 21.1865ZM80.4073 18.7334L77.1534 16.3701L77.1495 16.3662L74.5636 17.9131H74.5675L77.8214 20.2764L80.4073 18.7334ZM62.8213 9.3701L66.0752 11.7334L68.6494 10.1865L65.4072 7.8232L62.8213 9.3701ZM61.4463 9.3076L58.1963 6.9443L55.6182 8.4873H55.6221L58.8643 10.8506L61.4463 9.3076ZM51.6885 5.6318L54.9502 8.0029L57.5283 6.4599H57.5244L54.2705 4.0966L51.6885 5.6318ZM44.4893 4.76071L47.7276 7.11621L50.3253 5.56931L47.0831 3.21771L44.4893 4.76071ZM41.2041 6.73341L44.4346 9.08891L47.0205 7.54201L43.7822 5.18651L43.7783 5.19041L41.2041 6.73341ZM33.9971 5.8506L37.2471 8.2139L39.833 6.6709L36.5791 4.3076L33.9971 5.8506ZM30.7119 7.8233L33.9541 10.1749L36.54 8.6397H36.5439L33.2939 6.2764L33.29 6.2803L30.7119 7.8233ZM23.5088 6.94439H23.5049L26.7471 9.29989L26.7549 9.29598L29.3291 7.76078L26.0869 5.39748L23.5088 6.94439ZM16.9111 10.8741L20.165 13.2374L22.7392 11.6905H22.7431L19.4931 9.32719L16.9111 10.8741ZM13.6181 12.8429L16.872 15.2062L19.4579 13.6593L16.204 11.296L13.6181 12.8429ZM13.579 17.1749L16.1649 15.628L12.911 13.2647L10.3251 14.8116L13.579 17.1749ZM10.954 19.6202L10.9501 19.6241L14.2079 21.9952L16.7899 20.4522L13.536 18.0889L10.954 19.6202ZM10.9111 23.964L13.497 22.4171L13.5009 22.4132L10.2431 20.0421L7.66106 21.5851L10.9111 23.964ZM8.29386 26.4132L11.4931 28.7374L14.0751 27.1944L10.872 24.8702L8.29386 26.4132ZM8.18448 30.7023L10.7704 29.1554L7.58288 26.839L7.57506 26.8429L4.98917 28.3781L8.18448 30.7023ZM5.55948 33.1476L8.87588 35.5578L11.454 34.0148L8.14148 31.6125L5.55948 33.1476ZM12.79 38.4093L15.3642 36.8624L12.1142 34.4991L9.53608 36.0421L12.79 38.4093ZM10.247 40.8116L13.4892 43.1749L15.9931 41.671L12.7509 39.3194L10.247 40.8116ZM14.165 43.6632L17.4072 46.0265L19.9189 44.5265L19.915 44.5226H19.9033L16.6611 42.171L14.165 43.6632ZM18.0752 46.5109L21.3174 48.8664L21.3252 48.8703L23.8291 47.3742L23.8252 47.3703L20.583 45.0187L20.5791 45.0148L18.0752 46.5109ZM27.7393 50.2257L24.4854 47.8624H24.4815L21.9854 49.3546L21.9893 49.3585L25.2315 51.7218L27.7393 50.2257ZM29.1143 50.2765L32.3682 52.6515L34.9541 51.1046L31.7002 48.7296L29.1143 50.2765ZM38.8604 53.9445L35.6182 51.5812L33.0323 53.1281L36.2745 55.4914L38.8604 53.9445ZM46.0674 54.8273L42.8174 52.464L40.2432 54.007L43.4854 56.3703L46.0674 54.8273ZM49.3682 52.8546L46.1143 50.503L43.5323 52.046L46.7706 54.4015L49.3682 52.8546ZM53.9815 55.2765L56.5635 53.7335L53.3213 51.3741L53.3174 51.378L50.7315 52.9249L53.9815 55.2765ZM59.8526 51.7726L56.6104 49.4093L54.0362 50.9562H54.0323L57.2706 53.3117L57.2745 53.3078L59.8526 51.7726ZM67.1534 52.7101L63.8214 50.2843L61.2237 51.8312L64.5675 54.2648L67.1534 52.7101ZM70.4268 50.7335L67.1143 48.3194L64.5166 49.8663L67.8486 52.2921L70.4268 50.7335ZM73.708 48.753L70.3994 46.3468L67.8135 47.8937L71.1377 50.3078L73.708 48.753ZM76.9814 42.4092L74.3955 43.9561H74.3916L77.6846 46.3506H77.6885L80.2627 44.8037L76.9814 42.4092ZM79.6103 39.9639L76.3603 37.6006H76.3564L73.7822 39.1358L77.0361 41.4991L79.6103 39.9639ZM79.6493 35.6319L77.0673 37.1749L80.3173 39.5382L82.9032 37.9952L79.6493 35.6319ZM82.2743 33.1788L79.0282 30.8194L76.4462 32.3624L79.6884 34.7257L82.2743 33.1788ZM85.5673 31.2061L82.3173 28.8428L79.7314 30.3897L82.9814 32.753L85.5673 31.2061Z" fill="black"/>
</svg>
