<svg width="74" height="54" viewBox="0 0 74 54" fill="none" xmlns="http://www.w3.org/2000/svg">
<path d="M66.0229 40.7742V9.08184C66.0229 6.55018 63.976 4.48844 61.4562 4.48844H12.5406C10.0237 4.48844 7.974 6.54725 7.974 9.08184L7.97692 40.7742C7.97692 41.1031 8.24263 41.3733 8.57257 41.3733H65.4301C65.7571 41.3704 66.0229 41.1031 66.0229 40.7742ZM64.8345 40.175H9.16473V9.08194C9.16473 7.20816 10.6801 5.68685 12.54 5.68685H61.4556C63.3185 5.68685 64.8309 7.21109 64.8309 9.08194L64.8345 40.175ZM72.1341 44.1634H69.9909V9.08171C69.9909 4.35027 66.163 0.5 61.4592 0.5H12.5406C7.83676 0.5 4.00894 4.35034 4.00894 9.08171V44.1634H1.86578C0.837996 44.1634 0 45.0063 0 46.0401V47.7172C0 50.9067 2.5782 53.5 5.74914 53.5H68.2509C71.4218 53.5 74 50.9067 74 47.7172V46.0401C74 45.0063 73.1618 44.1634 72.1341 44.1634ZM5.19982 9.08171C5.19982 5.01108 8.49335 1.6953 12.5432 1.6953H61.4588C65.5057 1.6953 68.8021 5.00814 68.8021 9.08171V44.1634H5.19937L5.19982 9.08171ZM46.4829 45.3619L46.0683 46.522C45.7033 47.547 44.731 48.2371 43.6478 48.2371L30.3509 48.2342C29.2677 48.2342 28.2953 47.544 27.9304 46.5191L27.5157 45.359L46.4829 45.3619ZM72.8083 47.7173C72.8083 50.246 70.7644 52.3048 68.2475 52.3048H5.74876C3.23478 52.3048 1.18796 50.246 1.18796 47.7173V46.0403C1.18796 45.6644 1.49163 45.3619 1.86536 45.3619H26.2518L26.8095 46.9243C27.3438 48.4221 28.7687 49.4295 30.3512 49.4295H43.6481C45.2306 49.4295 46.6555 48.4221 47.1898 46.9243C47.1898 46.9243 47.5665 45.864 47.7475 45.3619H72.1339C72.5077 45.3619 72.8113 45.6673 72.8113 46.0403L72.8083 47.7173ZM38.7137 15.0791C38.7078 15.0762 38.7078 15.0703 38.702 15.0674L26.5353 8.37998C26.3601 8.28306 26.1411 8.28306 25.9659 8.37998L13.7993 15.0674C13.7934 15.0703 13.7905 15.0762 13.7876 15.0791C13.7029 15.1291 13.6328 15.1996 13.5803 15.2818C13.5774 15.2877 13.5745 15.2906 13.5715 15.2935C13.519 15.3816 13.4898 15.4815 13.4927 15.5931V28.9619C13.4927 29.1822 13.6124 29.3819 13.8022 29.4876L25.9689 36.1692C25.9776 36.175 25.9864 36.1721 25.9951 36.175C26.074 36.2161 26.1616 36.2426 26.2521 36.2426C26.3455 36.2455 26.4302 36.2161 26.512 36.175C26.5207 36.1721 26.5295 36.1721 26.5382 36.1692L38.7049 29.4876C38.8976 29.3819 39.0144 29.1822 39.0144 28.9619L39.0115 15.5931C39.0202 15.3699 38.8918 15.1819 38.7137 15.0791ZM26.2517 9.58704L37.1776 15.5931L26.2517 21.5933L15.3259 15.5931L26.2517 9.58704ZM14.6808 16.6004L22.4007 20.8414L25.6564 22.63V34.6364L14.6804 28.6069L14.6808 16.6004ZM37.8234 28.6069L26.8475 34.6364L26.8446 22.63C27.3263 22.3657 28.3366 21.8106 29.5716 21.1321L30.0739 20.856C30.3425 20.7092 30.6199 20.5565 30.9031 20.4008L37.8202 16.6004L37.8234 28.6069ZM45.5314 16.2832H54.3053C55.2309 16.2832 55.9842 15.5254 55.9842 14.5944V12.6208C55.9842 11.6898 55.2309 10.932 54.3053 10.932L45.5314 10.9291C44.6058 10.9291 43.8525 11.6868 43.8525 12.6178V14.5915C43.8525 15.5254 44.6058 16.2832 45.5314 16.2832ZM45.0438 12.6208C45.0438 12.3506 45.2628 12.1274 45.5343 12.1274H54.3082C54.5768 12.1274 54.7958 12.3476 54.7958 12.6208V14.5944C54.7958 14.8646 54.5768 15.0878 54.3082 15.0878H45.5313C45.2627 15.0878 45.0408 14.8675 45.0408 14.5944L45.0438 12.6208ZM59.9148 20.6183H44.4488C43.675 20.6154 43.6663 19.4259 44.4488 19.42H59.9148C60.6886 19.4229 60.6974 20.6124 59.9148 20.6183ZM59.9148 24.9503H44.4488C43.675 24.9473 43.6663 23.7579 44.4488 23.752H59.9148C60.6886 23.7549 60.6974 24.9473 59.9148 24.9503ZM59.9148 29.2852H44.4488C43.675 29.2823 43.6663 28.0928 44.4488 28.0869H59.9148C60.6886 28.0898 60.6974 29.2793 59.9148 29.2852ZM59.9148 33.6172H44.4488C43.675 33.6142 43.6663 32.4248 44.4488 32.4189H59.9148C60.6886 32.4218 60.6974 33.6142 59.9148 33.6172Z" fill="black"/>
</svg>
