<svg width="85" height="85" viewBox="0 0 85 85" fill="none" xmlns="http://www.w3.org/2000/svg">
<path d="M80.2632 0H4.73682C2.125 0 0 2.125 0 4.73682V80.0932C0 82.705 2.125 84.83 4.73682 84.83H80.2632C82.875 84.83 85 82.705 85 80.0932V4.73682C85 2.125 82.875 0 80.2632 0ZM82.6818 80.0932C82.6818 81.43 81.5923 82.5118 80.2632 82.5118H4.73682C3.4 82.5118 2.31818 81.4223 2.31818 80.0932V4.73682C2.31818 3.4 3.40773 2.31818 4.73682 2.31818H80.2632C81.6 2.31818 82.6818 3.40773 82.6818 4.73682V80.0932Z" fill="black"/>
<path d="M74.1745 17.9504L67.0191 10.7949C66.5168 10.2927 66.9881 10.4549 11.6454 10.4549C11.0041 10.4549 10.4863 10.9727 10.4863 11.614L10.5095 66.269C10.6022 66.7558 10.4554 66.5086 15.9341 71.9718C17.92 73.9577 18.1209 74.3595 18.8009 74.3595H73.3554C73.9968 74.3595 74.5145 73.8418 74.5145 73.2004C74.4913 17.9736 74.6768 18.4449 74.1745 17.9427V17.9504ZM26.0413 27.7022C29.3563 28.9849 28.4368 33.8995 24.8822 33.8995C21.3277 33.8995 20.4081 28.9849 23.7231 27.7022C24.4959 27.4008 25.2686 27.4008 26.0413 27.7022ZM58.9595 57.1199C55.6445 55.8372 56.5641 50.9227 60.1186 50.9227C63.6731 50.9227 64.5927 55.8372 61.2777 57.1199C60.505 57.4213 59.7322 57.4213 58.9595 57.1199ZM72.1963 19.2563V40.7536H60.1572V30.6849C60.1572 30.0436 59.6395 29.5258 58.9981 29.5258H47.9172C47.3841 27.0299 45.1586 25.1522 42.5004 25.1522C39.4481 25.1522 36.96 27.6327 36.96 30.6849C36.96 33.7372 39.4404 36.2177 42.5004 36.2177C45.1586 36.2177 47.3763 34.3399 47.9172 31.844H57.8391V41.9127C57.8391 42.554 58.3568 43.0718 58.9981 43.0718H72.1963V72.0413H61.2777V59.5308C63.7736 58.9977 65.6591 56.7799 65.6591 54.1295C65.6591 51.0772 63.1786 48.5968 60.1186 48.5968C57.0586 48.5968 54.5781 51.0772 54.5781 54.1295C54.5781 56.7799 56.4559 58.9977 58.9595 59.5308V72.0413H27.1618V63.1163C27.1618 61.5863 24.8436 61.5863 24.8436 63.1163V72.0413H19.2877L12.8045 65.5658V43.5663H24.975V54.1295C24.975 54.7708 25.4927 55.2886 26.1341 55.2886H37.0836C37.6168 57.7845 39.8422 59.6622 42.5004 59.6622C45.5527 59.6622 48.0409 57.1818 48.0409 54.1295C48.0409 51.0772 45.5604 48.5968 42.5004 48.5968C39.8422 48.5968 37.6245 50.4745 37.0836 52.9704H27.2931V42.4072C27.2931 41.7658 26.7754 41.2481 26.1341 41.2481H12.8045V12.7808H23.7231V25.2913C21.2272 25.8245 19.3418 28.0422 19.3418 30.6927C19.3418 33.7449 21.8222 36.2254 24.8822 36.2254C27.9422 36.2254 30.4227 33.7449 30.4227 30.6927C30.4227 28.0422 28.545 25.8245 26.0413 25.2913V12.7808H57.8391V21.1572C57.8391 22.6872 60.1572 22.6872 60.1572 21.1572V12.7808H65.7131L72.1963 19.2563ZM45.7227 30.6927C45.7227 32.3927 44.3241 33.9072 42.5004 33.9072C40.6768 33.9072 39.2781 32.4699 39.2781 30.6927C39.2781 28.9154 40.7231 27.4781 42.5004 27.4781C44.2777 27.4781 45.7227 28.9772 45.7227 30.6927ZM39.2859 54.1372C39.2859 52.4372 40.6845 50.9227 42.5081 50.9227C44.3318 50.9227 45.7304 52.3599 45.7304 54.1372C45.7304 55.9145 44.2854 57.3518 42.5081 57.3518C40.7309 57.3518 39.2859 55.8527 39.2859 54.1372Z" fill="black"/>
</svg>
