<svg width="80" height="82" viewBox="0 0 80 82" fill="none" xmlns="http://www.w3.org/2000/svg">
<path fill-rule="evenodd" clip-rule="evenodd" d="M8.53657 64.961H28.5013V44.5944C28.5013 44.1331 28.8746 43.7573 29.3328 43.7573H50.6512C51.1094 43.7573 51.4828 44.1331 51.4828 44.5944V64.961H71.4475C73.7759 64.961 75.8904 65.9211 77.4246 67.462C78.9587 69.0064 79.9091 71.1349 79.9091 73.4788C79.9091 75.8226 78.9587 77.9512 77.4246 79.4956C75.8904 81.0399 73.7759 81.9966 71.4475 81.9966L8.53749 82C3.88411 82 0.0758992 78.1665 0.0758992 73.4822C0.0758992 68.7945 3.88411 64.961 8.53749 64.961L8.53657 64.961ZM26.5462 8.41193H53.4343V11.6611C53.4343 12.1224 53.8077 12.4982 54.2659 12.4982H60.3685V12.5871L60.3583 12.611V12.7989C60.3583 13.8546 60.7826 14.8113 61.4715 15.5014L61.5089 15.539L61.536 15.5629L61.6073 15.6347L61.6344 15.6586L61.6378 15.662H61.6412L61.665 15.6825L61.6786 15.6962L61.6989 15.7133L61.7125 15.7235L61.7159 15.7269L61.7397 15.7474L61.7431 15.7509L61.7499 15.7543L61.7736 15.7748L61.7838 15.785L61.8109 15.8055L61.8177 15.8124L61.8449 15.8329L61.8517 15.8397L61.8585 15.8431L61.8822 15.8636L61.8924 15.8704L61.923 15.8944L61.9569 15.9183L61.9671 15.9251L61.9908 15.9422L61.9976 15.949L62.0044 15.9524L62.0316 15.9695L62.0485 15.9798L62.0689 15.9934L62.0757 15.9969L62.0859 16.0037L62.1402 16.0379L62.1436 16.0413L62.1945 16.072H62.1979L62.225 16.0891L62.259 16.1062L62.3099 16.1369L62.3404 16.154L62.3438 16.1574L62.3608 16.1677L62.371 16.1745L62.3913 16.1848L62.4015 16.1882L62.4321 16.2053H62.4355L62.4626 16.219L62.466 16.2224L62.4898 16.2326L62.4966 16.236L62.5203 16.2463L62.5509 16.26L62.5746 16.2702L62.5814 16.2736L62.5984 16.2804L62.6052 16.2839L62.6289 16.2941L62.6425 16.3009L62.6731 16.3146H62.6764L62.7002 16.3249L62.7138 16.3317L62.7375 16.3419L62.7681 16.3556L62.7885 16.3624L62.8054 16.3693L62.8258 16.3761L62.8122 16.4L62.8428 16.4103H62.8462L62.8767 16.4205H62.8801L62.8971 16.4274L62.9072 16.4308L62.931 16.4376L62.9514 16.4444C62.9785 16.4547 63.0057 16.4615 63.0362 16.4718H63.0396L63.0702 16.482L63.1041 16.4923L63.1109 16.4957L63.1347 16.5025L63.1414 16.506L63.1652 16.5128H63.1686L63.2025 16.5196L63.2229 16.5264L63.2365 16.5299L63.2602 16.5367L63.2704 16.5401L63.2976 16.547V23.0967C62.5237 23.2607 61.8313 23.6537 61.2916 24.1969C60.5653 24.9281 60.1105 25.9428 60.1105 27.0566V32.5882L53.9094 36.8078C53.6718 36.9684 53.5428 37.2314 53.5428 37.5014V41.5706C53.5428 41.7243 53.5835 41.8644 53.6548 41.9874L55.3892 45.2708C55.6031 45.6774 56.1054 45.8346 56.5127 45.6159C56.9166 45.4007 57.0728 44.895 56.8555 44.485L55.6099 42.1241L63.8678 40.0809L72.1257 42.1241L70.8801 44.485C70.6662 44.8916 70.819 45.4007 71.2229 45.6159C71.6268 45.8312 72.1291 45.6774 72.3464 45.2708L74.0808 41.9874C74.152 41.8644 74.1928 41.7209 74.1928 41.5706V37.5014C74.1928 37.2314 74.0638 36.9718 73.8262 36.8078L68.1444 32.9401C68.1512 32.8957 68.1546 32.8512 68.1546 32.8034V27.0532C68.1546 25.9394 67.7032 24.928 66.9734 24.1934C66.4337 23.6502 65.7413 23.2573 64.9675 23.0933L64.9607 16.5537L65.0014 16.5435L65.0116 16.5401L65.0489 16.5298C65.0795 16.523 65.1066 16.5127 65.1372 16.5059L65.1406 16.5025C65.1677 16.4956 65.1949 16.4854 65.222 16.4786L65.2288 16.4751H65.2322L65.2831 16.4581L65.2899 16.4546L65.3204 16.4444H65.3238L65.3612 16.4307L65.368 16.4273L65.4019 16.4136L65.4121 16.4102L65.4494 16.3966L65.4902 16.3795H65.4935L65.5275 16.3658L65.5343 16.3624L65.5445 16.359L65.575 16.3453H65.5784L65.6157 16.3282L65.67 16.3009L65.7006 16.2872L65.704 16.2838L65.7413 16.2667L65.7515 16.2633L65.7787 16.2496L65.7888 16.2462L65.7922 16.2428L65.8228 16.2291L65.8296 16.2257L65.833 16.2223L65.8669 16.2052L65.8771 16.2018C65.9008 16.1881 65.928 16.1745 65.9551 16.1608L65.9925 16.1403L65.9993 16.1369L66.0366 16.1164L66.0638 16.0993L66.0739 16.0925L66.0807 16.0891L66.1079 16.072L66.1215 16.0651L66.1486 16.0481L66.152 16.0446L66.1758 16.0276L66.1826 16.0241L66.1995 16.0139L66.2063 16.0105L66.2301 15.9934L66.298 15.9524L66.3115 15.9421L66.3353 15.9251L66.3421 15.9216H66.3455L66.3794 15.8977L66.3862 15.8943C66.41 15.8772 66.4337 15.8601 66.4541 15.8431L66.488 15.8157L66.4914 15.8123L66.522 15.7884L66.5254 15.785L66.5559 15.7611L66.5627 15.7542L66.5899 15.7337L66.6204 15.703L66.6272 15.6996L66.6306 15.6961L66.6611 15.6688L66.6645 15.6654L66.6917 15.6415L66.7053 15.6278L66.729 15.6073L66.7663 15.5697L66.7935 15.5458L66.8308 15.5082C67.5164 14.8181 67.9441 13.8614 67.9441 12.8057V12.5255H74.2605C74.7187 12.5255 75.0921 12.1497 75.0921 11.6884V8.43921H79.1684C79.6266 8.43921 80 8.06337 80 7.60212L79.983 0.837084C79.983 0.375836 79.6097 0 79.1515 0L0.831562 0.00341647C0.373357 0.00341647 0 0.379253 0 0.840501V7.57816C0 8.03941 0.373357 8.41525 0.831562 8.41525H4.90452V11.6645C4.90452 12.1257 5.27788 12.5015 5.73609 12.5015H11.8387V12.6211L11.8251 12.6451V12.7988C11.8251 13.8545 12.2494 14.8112 12.9384 15.5014L12.9757 15.5389L13.0029 15.5629L13.0062 15.5663L13.0368 15.5936L13.0809 15.638L13.1047 15.6585H13.1081L13.1318 15.679L13.1454 15.6927L13.1692 15.7132L13.176 15.72L13.1997 15.7405L13.2065 15.7439L13.2167 15.7542L13.2438 15.7747L13.2506 15.7781L13.2846 15.8054L13.288 15.8089L13.3151 15.8294L13.3253 15.8396C13.3491 15.8567 13.3728 15.8738 13.3932 15.8909L13.4271 15.9148L13.4339 15.9216L13.4611 15.9421L13.4746 15.9489L13.5018 15.966L13.5154 15.9729L13.5425 15.9899L13.5527 15.9968L13.5799 16.0139L13.5866 16.0173L13.6138 16.0344L13.624 16.0412L13.6308 16.0446L13.6613 16.0651L13.6647 16.0685L13.6987 16.089L13.7054 16.0959L13.7394 16.1164L13.7428 16.1198C13.7801 16.1403 13.8208 16.1642 13.8582 16.1847L13.8616 16.1881L13.8989 16.2086H13.9023C13.9261 16.2223 13.9532 16.2325 13.977 16.2462L13.9905 16.253L14.0279 16.2701L14.0686 16.2906L14.1059 16.3077L14.1093 16.3111H14.1127C14.1399 16.3214 14.1636 16.335 14.1908 16.3453L14.1942 16.3487C14.2383 16.3658 14.279 16.3829 14.3232 16.3999H14.3266L14.3673 16.4136L14.3741 16.417C14.4012 16.4273 14.4284 16.4375 14.4555 16.4444H14.4589L14.4895 16.4546L14.5065 16.458L14.5098 16.4614C14.537 16.4717 14.5675 16.4785 14.5947 16.4854H14.5981L14.6354 16.4956L14.649 16.499L14.6863 16.5093L14.7271 16.5195L14.7373 16.5229L14.7678 16.5298L14.7746 16.5332H14.7814V23.083C14.0075 23.247 13.3151 23.6399 12.7754 24.1831C12.0491 24.9143 11.5943 25.9291 11.5943 27.0429V32.5744L5.39319 36.794C5.1556 36.9546 5.02662 37.2177 5.02662 37.4876L5.00965 37.5047V41.5739C5.00965 41.7277 5.05038 41.8677 5.12166 41.9907L6.85607 45.2742C7.0699 45.6807 7.57223 45.8379 7.97955 45.6192C8.38345 45.404 8.53959 44.8983 8.32236 44.4883L7.07671 42.1274L15.3346 40.0842L23.5926 42.1274L22.3469 44.4883C22.1331 44.8949 22.2858 45.404 22.6897 45.6192C23.0936 45.8345 23.596 45.6807 23.8132 45.2742L25.5476 41.9907C25.6189 41.8677 25.6596 41.7242 25.6596 41.5739V37.5047C25.6596 37.2348 25.5306 36.9751 25.293 36.8111L19.6112 32.9434C19.618 32.899 19.6214 32.8546 19.6214 32.8067V27.0565C19.6214 25.9427 19.17 24.9313 18.4402 24.1968C17.9006 23.6535 17.2047 23.2606 16.4343 23.0966L16.4309 16.5536L16.4648 16.5468L16.492 16.54L16.509 16.5366L16.5293 16.5331H16.5327L16.5667 16.5263H16.5701L16.5768 16.5229L16.6074 16.5161L16.6278 16.5092L16.6345 16.5058L16.6617 16.499L16.6685 16.4956L16.7024 16.4853L16.733 16.4751H16.7364C16.7567 16.4682 16.7805 16.4614 16.8009 16.4546L16.8348 16.4443L16.8586 16.4375L16.8755 16.4306L16.8993 16.4238H16.9027L16.9638 16.4033H16.9672L16.9909 16.3931L17.0045 16.3862L17.0249 16.3794L17.0283 16.376L17.0588 16.3623H17.0622L17.0758 16.3555L17.0995 16.3452L17.1539 16.3179L17.1844 16.3042L17.1878 16.3008L17.2149 16.2906L17.2421 16.2769L17.2523 16.2701L17.276 16.2598L17.3066 16.2461L17.3202 16.2393L17.3439 16.2256L17.3575 16.2188L17.3813 16.2051L17.3914 16.1983L17.422 16.1812L17.4322 16.1744L17.439 16.171L17.4695 16.1539L17.4763 16.1505L17.4865 16.1436L17.517 16.1266L17.551 16.1061L17.5645 16.0958L17.5951 16.0753L17.6019 16.0719L17.629 16.0548L17.6528 16.0411L17.6596 16.0377L17.6833 16.0206L17.6867 16.0172L17.7105 16.0001L17.7139 15.9967L17.741 15.9762L17.7648 15.9591L17.7716 15.9523L17.7919 15.9386L17.7953 15.9352L17.8191 15.9181H17.8225L17.853 15.8942L17.8632 15.8874L17.887 15.8669L17.8938 15.8601L17.9243 15.8396L17.9345 15.8293L17.9617 15.8088L17.9684 15.802L17.999 15.7781L18.0024 15.7746L18.0329 15.7507L18.0397 15.7439L18.0635 15.7234L18.0737 15.7131L18.094 15.6961L18.1042 15.6858L18.1348 15.6585L18.1381 15.6551L18.1653 15.6311L18.1789 15.6175L18.2026 15.597L18.24 15.5594L18.2671 15.5355L18.3045 15.4979C18.9901 14.8077 19.4177 13.8511 19.4177 12.7953V12.5117H25.7342C26.1924 12.5117 26.5657 12.1359 26.5657 11.6747L26.5462 8.41193ZM6.56852 8.41193H24.8866V10.8241L18.353 10.8275H6.56548L6.56852 8.41193ZM17.7321 12.4983V12.6555L17.7491 12.6657V12.8331C17.7491 13.4276 17.5115 13.9641 17.1246 14.3536L17.0737 14.4048L16.8497 14.5927L16.7071 14.6884L16.6121 14.7431L16.327 14.8661L16.1369 14.9207L16.1097 14.9276L16.086 14.9344L16.0317 14.9481L15.9502 14.9583L15.9197 14.9481L15.7296 14.972H15.6753L15.6481 14.9686H15.5124L15.2137 14.931L15.1322 14.9105L14.9184 14.849L14.7758 14.7875L14.7419 14.7807L14.6231 14.7294L14.5518 14.6884L14.3889 14.5791L14.1445 14.3741L14.1106 14.3399C13.7237 13.9504 13.4861 13.414 13.4861 12.8195V12.8092H13.4895V12.5017L17.7321 12.4983ZM14.5043 32.6157V38.5675L6.67409 40.5047V37.9422L13.1773 33.5176C13.201 33.504 13.2214 33.4869 13.2452 33.4732L14.5043 32.6157ZM13.2451 31.454V27.0534C13.2451 26.4008 13.5099 25.8097 13.9375 25.3792C14.3652 24.9487 14.9524 24.6822 15.6007 24.6822C16.249 24.6822 16.8362 24.9487 17.2639 25.3792C17.6915 25.8097 17.9563 26.4008 17.9563 27.0534V31.8162L15.8315 30.371L15.8146 30.3608L15.8112 30.3573L15.7976 30.3471L15.784 30.3403L15.7772 30.3334L15.7501 30.3198L15.7467 30.3163L15.7365 30.3095L15.7162 30.2993H15.7128L15.6924 30.289H15.689L15.6754 30.2822H15.672L15.6585 30.2753L15.6551 30.2719H15.6517L15.6347 30.2651L15.6211 30.2583L15.6177 30.2548H15.6143L15.5872 30.2412H15.5804L15.5668 30.2378L15.5532 30.2309H15.5464L15.5295 30.2275L15.5159 30.2207H15.5057L15.4921 30.2173H15.4887L15.4718 30.2138H15.4684C15.4548 30.2104 15.4412 30.2104 15.431 30.207L15.4107 30.2036H15.2885L15.2478 30.2104C15.2342 30.2138 15.2206 30.2138 15.2104 30.2173H15.207L15.1901 30.2207H15.1867L15.1731 30.2241L15.1663 30.2207H15.1629L15.1493 30.2275L15.1358 30.2309H15.129L15.1154 30.2378H15.112L15.0984 30.2412H15.0916L15.0645 30.2548H15.0611L15.0577 30.2583L15.0441 30.2651L15.0136 30.2685H15.0102L14.9898 30.2788H14.9864L14.9728 30.2856H14.9694L14.9491 30.2958H14.9457L14.9253 30.3061L14.9151 30.3129L14.9117 30.3163L14.8846 30.33L14.8778 30.3368L14.8642 30.3437L14.8506 30.3539L14.8473 30.3573L14.8303 30.3676L13.2451 31.454ZM23.9943 37.9423V40.5048L16.164 38.5676V32.6158L17.4232 33.4734C17.4436 33.4904 17.4674 33.5041 17.4911 33.5178L23.9943 37.9423ZM55.0982 8.41175H73.4164V10.8239H55.0948L55.0982 8.41175ZM66.2618 12.4981V12.6519L66.2754 12.6655V12.7612V12.7544V12.8261C66.2754 13.4206 66.0378 13.9571 65.6509 14.3466C65.264 14.7361 64.7311 14.9752 64.1405 14.9752H64.0319L63.7332 14.9376L63.6517 14.9171L63.4379 14.8556L63.1528 14.7326L63.0578 14.678L62.9152 14.5823L62.8949 14.5584L62.6912 14.3876L62.6403 14.3363C62.2534 13.9468 62.0158 13.4104 62.0158 12.8159V12.8056L62.0192 12.809V12.6895V12.6929V12.5186L62.0293 12.5084V12.5015H66.2618L66.2618 12.4981ZM63.0341 32.6155V38.5674L55.2038 40.5046V37.9421L61.707 33.5175C61.7308 33.5038 61.7511 33.4867 61.7749 33.473L63.0341 32.6155ZM61.7749 31.4539V27.0532C61.7749 26.4006 62.0396 25.8095 62.4673 25.379C62.8949 24.9485 63.4821 24.682 64.1304 24.682C64.7787 24.682 65.3659 24.9485 65.7936 25.379C66.2212 25.8095 66.486 26.4006 66.486 27.0532V31.8161L64.3613 30.3708L64.3443 30.3606L64.3409 30.3572L64.3273 30.3469L64.3138 30.3401L64.307 30.3333L64.2798 30.3196L64.2764 30.3162L64.2662 30.3093L64.2459 30.2991H64.2425L64.2221 30.2888H64.2187L64.2018 30.282H64.1984L64.178 30.2718H64.1746L64.1576 30.2649L64.1441 30.2581L64.1407 30.2547H64.1373L64.1101 30.241H64.1033L64.0897 30.2376L64.0762 30.2308H64.0694L64.0524 30.2273L64.0388 30.2205H64.0286L64.0151 30.2171H64.0117L63.9947 30.2137H63.9913C63.9777 30.2103 63.9642 30.2103 63.954 30.2068H63.9506L63.9302 30.2034H63.9099L63.9065 30.2068H63.8046L63.7843 30.2103H63.7809C63.7673 30.2137 63.7537 30.2137 63.7435 30.2171H63.7401L63.7232 30.2205H63.7198L63.7062 30.2239H63.696L63.6824 30.2308L63.6689 30.2342H63.6621L63.6485 30.241H63.6451L63.6315 30.2444L63.618 30.241H63.6146L63.5874 30.2547H63.584L63.5806 30.2581L63.567 30.2649L63.5501 30.2718H63.5467L63.5263 30.282H63.5229L63.5093 30.2888H63.5059L63.4856 30.2991H63.4822L63.4618 30.3093L63.4516 30.3162L63.4482 30.3196L63.4211 30.3333L63.4143 30.3401L63.4007 30.3469L63.3871 30.3572L63.3838 30.3606L63.3668 30.3708L61.7749 31.4539ZM72.524 37.9421V40.5047L64.6937 38.5674V32.6156L65.953 33.4732C65.9733 33.4903 65.9971 33.5039 66.0208 33.5176L72.524 37.9421ZM42.7712 45.4315L42.7542 52.6817C42.7542 53.143 42.3842 53.5154 41.926 53.5154C41.7563 53.5154 41.5968 53.4641 41.4678 53.3753L39.9744 52.4802L38.447 53.3993C38.0533 53.635 37.5442 53.5052 37.31 53.1123C37.2251 52.9688 37.1878 52.8082 37.1946 52.651L37.2116 45.4384H30.1687L30.1653 64.961H49.8207V45.4314L42.7712 45.4315ZM38.8645 45.4315L38.8509 51.2091L39.5467 50.7923C39.7979 50.642 40.1237 50.6317 40.3919 50.7923L41.1013 51.216L41.1148 45.4315L38.8645 45.4315ZM78.3247 1.67444V6.73799H1.66437V1.67444H78.3247ZM67.6268 75.5087C68.214 75.5087 68.7469 75.2696 69.1338 74.8801C69.5207 74.4906 69.7583 73.9576 69.7583 73.363C69.7583 72.772 69.5207 72.2355 69.1338 71.846C68.7469 71.4565 68.2174 71.2173 67.6268 71.2173C67.0396 71.2173 66.5067 71.4565 66.1198 71.846C65.7328 72.2355 65.4953 72.7685 65.4953 73.363C65.4953 73.9541 65.7328 74.4906 66.1198 74.8801C66.5067 75.2696 67.0396 75.5087 67.6268 75.5087ZM70.3081 76.0657C70.9938 75.3755 71.418 74.4188 71.418 73.3665C71.418 72.3108 70.9937 71.3575 70.3081 70.6674C69.6225 69.9772 68.6722 69.5502 67.6268 69.5502C66.578 69.5502 65.631 69.9772 64.9455 70.6674C64.2599 71.3575 63.8356 72.3142 63.8356 73.3665C63.8356 74.4222 64.2599 75.3755 64.9455 76.0657C65.6311 76.7558 66.5814 77.1829 67.6268 77.1829C68.6756 77.1829 69.6226 76.7558 70.3081 76.0657ZM49.2035 75.5087C49.7906 75.5087 50.3236 75.2696 50.7105 74.8801C51.0974 74.4906 51.335 73.9576 51.335 73.363C51.335 72.772 51.0974 72.2355 50.7105 71.846C50.3236 71.4565 49.794 71.2173 49.2035 71.2173C48.6163 71.2173 48.0834 71.4565 47.6964 71.846C47.3095 72.2355 47.0719 72.7685 47.0719 73.363C47.0719 73.9541 47.3095 74.4906 47.6964 74.8801C48.0834 75.2696 48.6163 75.5087 49.2035 75.5087ZM51.8848 76.0657C52.5704 75.3755 52.9946 74.4188 52.9946 73.3665C52.9946 72.3108 52.5704 71.3575 51.8848 70.6674C51.1992 69.9772 50.2488 69.5502 49.2035 69.5502C48.1547 69.5502 47.2077 69.9772 46.5221 70.6674C45.8365 71.3575 45.4123 72.3142 45.4123 73.3665C45.4123 74.4222 45.8365 75.3755 46.5221 76.0657C47.2077 76.7558 48.1581 77.1829 49.2035 77.1829C50.2522 77.1829 51.1992 76.7558 51.8848 76.0657ZM30.7801 75.5087C31.3673 75.5087 31.9002 75.2696 32.2871 74.8801C32.6741 74.4906 32.9117 73.9576 32.9117 73.363C32.9117 72.772 32.6741 72.2355 32.2871 71.846C31.9002 71.4565 31.3707 71.2173 30.7801 71.2173C30.1929 71.2173 29.66 71.4565 29.2731 71.846C28.8862 72.2355 28.6486 72.7685 28.6486 73.363C28.6486 73.9541 28.8862 74.4906 29.2731 74.8801C29.66 75.2696 30.1929 75.5087 30.7801 75.5087ZM33.4615 76.0657C34.1471 75.3755 34.5713 74.4188 34.5713 73.3665C34.5713 72.3108 34.147 71.3575 33.4615 70.6674C32.7758 69.9772 31.8255 69.5502 30.7801 69.5502C29.7314 69.5502 28.7843 69.9772 28.0988 70.6674C27.4132 71.3575 26.9889 72.3142 26.9889 73.3665C26.9889 74.4222 27.4132 75.3755 28.0988 76.0657C28.7844 76.7558 29.7347 77.1829 30.7801 77.1829C31.8289 77.1829 32.7759 76.7558 33.4615 76.0657ZM12.3568 75.5087C12.944 75.5087 13.4769 75.2696 13.8638 74.8801C14.2507 74.4906 14.4883 73.9576 14.4883 73.363C14.4883 72.772 14.2507 72.2355 13.8638 71.846C13.4802 71.4565 12.9474 71.2173 12.3568 71.2173C11.7696 71.2173 11.2367 71.4565 10.8498 71.846C10.4628 72.2355 10.2252 72.7685 10.2252 73.363C10.2252 73.9541 10.4628 74.4906 10.8498 74.8801C11.2367 75.2696 11.7696 75.5087 12.3568 75.5087ZM15.0381 76.0657C15.7237 75.3755 16.148 74.4188 16.148 73.3665C16.148 72.3108 15.7237 71.3575 15.0381 70.6674C14.3525 69.9772 13.4021 69.5502 12.3568 69.5502C11.308 69.5502 10.361 69.9772 9.67544 70.6674C8.98983 71.3575 8.56559 72.3142 8.56559 73.3665C8.56559 74.4222 8.98986 75.3755 9.67544 76.0657C10.3611 76.7558 11.3114 77.1829 12.3568 77.1829C13.4055 77.1829 14.3525 76.7558 15.0381 76.0657ZM71.4453 66.6358H8.53875C4.7984 66.6358 1.74031 69.7177 1.74031 73.4794C1.74031 77.2446 4.80179 80.323 8.53875 80.323H71.4453C73.3154 80.323 75.0125 79.5508 76.2479 78.3106C77.48 77.0703 78.2471 75.3586 78.2471 73.476C78.2471 71.5935 77.4834 69.8851 76.2479 68.6415C75.0158 67.408 73.3154 66.6358 71.4453 66.6358Z" fill="black"/>
</svg>
