<svg width="69" height="68" viewBox="0 0 69 68" fill="none" xmlns="http://www.w3.org/2000/svg">
<path d="M19.2931 18.7498L19.9788 19.9403L18.7205 20.6636L18.0348 19.4731L19.2931 18.7498ZM22.3145 20.7993L30.0602 34.2111L26.0367 36.5318L18.291 23.1199L22.3145 20.7993ZM32.396 35.929L35.0558 40.5327L29.0204 44.0213L26.3607 39.4176L26.549 38.4456L31.4692 35.605L32.4035 35.929H32.396ZM39.4711 53.4849L38.032 54.3137L32.2754 44.3453L33.7146 43.5165L39.4711 53.4849ZM46.4859 49.062C47.0887 49.062 47.5785 49.5518 47.5785 50.1546C47.5785 50.7573 47.0887 51.2471 46.4859 51.2471C45.8832 51.2471 45.3934 50.7573 45.3934 50.1546C45.3934 49.5518 45.8832 49.062 46.4859 49.062ZM46.4859 33.2466C47.0887 33.2466 47.5785 33.7364 47.5785 34.3392C47.5785 34.9419 47.0887 35.4317 46.4859 35.4317C45.8832 35.4317 45.3934 34.9419 45.3934 34.3392C45.3934 33.7364 45.8832 33.2466 46.4859 33.2466ZM60.056 33.2466C60.6588 33.2466 61.1485 33.7364 61.1485 34.3392C61.1485 34.9419 60.6588 35.4317 60.056 35.4317C59.4532 35.4317 58.9634 34.9419 58.9634 34.3392C58.9634 33.7364 59.4532 33.2466 60.056 33.2466ZM19.813 51.2471C19.2102 51.2471 18.7205 50.7573 18.7205 50.1546C18.7205 49.5518 19.2102 49.062 19.813 49.062C20.4158 49.062 20.9055 49.5518 20.9055 50.1546C20.9055 50.7573 20.4158 51.2471 19.813 51.2471ZM36.8189 13.9728C37.3388 13.6714 38.0094 13.8522 38.3108 14.3721L40.6013 18.3354L40.0211 18.6669L36.1031 20.9273L35.5229 21.2589L33.2323 17.2956C32.931 16.7757 33.1118 16.1051 33.6317 15.8037L36.8189 13.9653V13.9728ZM60.3348 12.4734C55.3016 6.49834 48.3319 2.42205 40.7068 1.01306C35.8846 0.123957 33.5639 1.62337 32.4563 3.04743C30.5123 5.54896 30.9041 9.76088 33.3906 13.7467L32.6748 14.1612C31.2432 14.99 30.7459 16.8285 31.5747 18.2676L34.34 23.0597C34.5208 23.3686 34.8372 23.5419 35.1688 23.5419C35.3345 23.5419 35.4928 23.4967 35.6435 23.4138L36.2236 23.0823L37.2559 24.868C37.4367 25.1769 37.7532 25.3502 38.0847 25.3502C38.2505 25.3502 38.4087 25.305 38.5594 25.2221C39.019 24.9584 39.1697 24.3707 38.906 23.9186L37.8737 22.1329L40.1342 20.8294L41.1664 22.6151C41.3473 22.924 41.6637 23.0898 41.9952 23.0898C42.161 23.0898 42.3192 23.0521 42.4699 22.9617C42.9295 22.698 43.0802 22.1103 42.8165 21.6582L41.7843 19.8725L42.3644 19.5334C42.8241 19.2697 42.9823 18.682 42.711 18.2299L39.9458 13.4378C39.5465 12.7446 38.8985 12.2473 38.1224 12.0364C37.3463 11.8254 36.5401 11.9309 35.8394 12.3378L35.0256 12.8124C32.9686 9.53483 32.509 6.09146 33.9406 4.24545C35.0558 2.80632 37.2634 2.35424 40.3301 2.91934C55.392 5.70719 66.3173 18.8704 66.3173 34.2111C66.3173 51.7595 52.039 66.0378 34.4907 66.0378C16.9423 66.0378 2.68656 51.7369 2.68656 34.1885C2.68656 28.5525 4.18597 22.9994 7.02656 18.132C8.41295 15.7585 10.5604 14.5304 12.7831 14.8242C14.4859 15.0578 15.9703 16.1654 16.9347 17.9059L16.2491 18.2977C15.7895 18.5614 15.6388 19.1491 15.9025 19.6012L17.0704 21.6205L16.5203 21.937C16.0607 22.2007 15.9025 22.7884 16.1737 23.2405L24.6955 38.001L24.4243 39.4025C24.379 39.6285 24.4243 39.8621 24.5373 40.058L27.8526 45.7995C28.0334 46.1084 28.3498 46.2817 28.6814 46.2817C28.8471 46.2817 29.0054 46.2365 29.1561 46.1536L30.6253 45.3022L32.8707 49.1976H22.6687C22.2693 48.0072 21.1391 47.1482 19.8205 47.1482C18.1629 47.1482 16.8142 48.4969 16.8142 50.1546C16.8142 51.8122 18.1629 53.1609 19.8205 53.1609C21.1391 53.1609 22.2693 52.302 22.6687 51.1115H33.9783L36.8566 56.0995C36.9846 56.318 37.1881 56.4762 37.4367 56.544C37.5196 56.5666 37.6025 56.5741 37.6854 56.5741C37.8511 56.5741 38.0169 56.5289 38.1601 56.4461L38.8834 56.0316L40.7068 59.1887C40.8876 59.4976 41.2041 59.6709 41.5356 59.6709C41.7014 59.6709 41.8596 59.6257 42.0103 59.5428C42.4699 59.2791 42.6206 58.6914 42.3644 58.2393L40.541 55.0823L41.2644 54.6679C41.724 54.4041 41.8747 53.8164 41.611 53.3643L40.315 51.119H43.6453C44.0447 52.3095 45.1749 53.1684 46.4935 53.1684C48.1511 53.1684 49.4998 51.8197 49.4998 50.1621C49.4998 48.836 48.6409 47.7133 47.4504 47.314V37.1873C48.3395 36.8859 49.0402 36.1852 49.3416 35.2961H57.2154C57.6147 36.4866 58.7374 37.3455 60.0635 37.3455C61.7212 37.3455 63.0699 35.9968 63.0699 34.3392C63.0699 32.6815 61.7212 31.3328 60.0635 31.3328C58.7374 31.3328 57.6147 32.1918 57.2154 33.3822H49.3416C48.9423 32.1918 47.8196 31.3328 46.4935 31.3328C44.8358 31.3328 43.4871 32.6815 43.4871 34.3392C43.4871 35.6653 44.3461 36.7879 45.5366 37.1873V47.314C44.6475 47.6153 43.9467 48.3161 43.6453 49.2052H39.2074L35.3722 42.5671L36.8415 41.7157C37.3011 41.4519 37.4518 40.8642 37.1881 40.4122L33.8728 34.6707C33.7598 34.4748 33.5714 34.3166 33.3604 34.2487L32.0193 33.7816L23.4975 19.0211C23.3694 18.8025 23.1584 18.6443 22.9173 18.5765C22.6762 18.5087 22.4125 18.5464 22.194 18.6745L21.6439 18.9909L20.4761 16.9716C20.348 16.7531 20.137 16.5949 19.8959 16.5271C19.6472 16.4592 19.3911 16.4969 19.1725 16.625L18.5999 16.9565C17.3341 14.6961 15.36 13.2495 13.0468 12.9405C10.0329 12.5337 7.16972 14.1159 5.38399 17.175C2.3701 22.3363 0.780273 28.221 0.780273 34.196C0.780273 43.2075 4.29146 51.6841 10.6658 58.0585C17.0402 64.4329 25.5093 67.944 34.5283 67.944C43.5474 67.944 52.0164 64.4329 58.3908 58.0585C64.7652 51.6841 68.2764 43.2151 68.2764 34.196C68.2764 26.2619 65.4659 18.5464 60.3574 12.4809" fill="black"/>
</svg>
