<svg width="77" height="77" viewBox="0 0 77 77" fill="none" xmlns="http://www.w3.org/2000/svg">
<path d="M74.1148 0.241211H2.56582C1.27879 0.241211 0.237305 1.28269 0.237305 2.56973V74.1187C0.237305 75.4058 1.27879 76.4473 2.56582 76.4473H74.1148C75.4019 76.4473 76.4434 75.4058 76.4434 74.1187V2.56973C76.4434 1.28269 75.4019 0.241211 74.1148 0.241211ZM74.1148 75.1772H25.0043V66.007C25.0043 65.6599 24.7164 65.372 24.3692 65.372H14.3016V58.9453C15.9866 58.6405 17.2736 57.1756 17.2736 55.3975C17.2736 53.4076 15.6563 51.7904 13.6665 51.7904C11.6767 51.7904 10.0594 53.4076 10.0594 55.3975C10.0594 57.1671 11.3465 58.6405 13.0315 58.9453V66.007C13.0315 66.3542 13.3193 66.6421 13.6665 66.6421H23.7342V75.1772H2.56582C1.98158 75.1772 1.50741 74.703 1.50741 74.1187V23.1538H22.0238C22.3709 23.1538 22.6588 22.8659 22.6588 22.5188V11.1979H35.1566C35.4445 13.0608 37.0448 14.4917 38.9838 14.4917C41.1261 14.4917 42.8704 12.7475 42.8704 10.6052C42.8704 8.463 41.1261 6.71873 38.9838 6.71873C37.0702 6.71873 35.4868 8.10737 35.1651 9.92785H22.0238C21.6766 9.92785 21.3887 10.2157 21.3887 10.5629V21.8837H1.50741V2.56973C1.50741 1.98548 1.98158 1.51131 2.56582 1.51131H51.3123V11.0201C51.3123 11.3673 51.6002 11.6552 51.9473 11.6552H62.0065V18.0819C60.3215 18.3867 59.0345 19.8516 59.0345 21.6297C59.0345 23.6195 60.6518 25.2368 62.6416 25.2368C64.6314 25.2368 66.2487 23.6195 66.2487 21.6297C66.2487 19.86 64.9616 18.3867 63.2766 18.0819V11.0201C63.2766 10.673 62.9888 10.3851 62.6416 10.3851H52.5824V1.51131H74.1148C74.6991 1.51131 75.1733 1.98548 75.1733 2.56973V53.6617H54.6569C54.3097 53.6617 54.0218 53.9495 54.0218 54.2967V65.6175H45.7916C45.5037 63.7547 43.9034 62.3237 41.9644 62.3237C39.8221 62.3237 38.0778 64.068 38.0778 66.2103C38.0778 68.3525 39.8221 70.0968 41.9644 70.0968C43.878 70.0968 45.4614 68.7081 45.7831 66.8876H54.6569C55.0041 66.8876 55.2919 66.5997 55.2919 66.2526V54.9318H75.1733V74.1187C75.1733 74.703 74.6991 75.1772 74.1148 75.1772ZM13.675 57.7344C12.3879 57.7344 11.338 56.6845 11.338 55.3975C11.338 54.1104 12.3879 53.0605 13.675 53.0605C14.962 53.0605 16.012 54.1104 16.012 55.3975C16.012 56.6845 14.962 57.7344 13.675 57.7344ZM38.9923 7.98883C40.4318 7.98883 41.6087 9.16579 41.6087 10.6052C41.6087 12.0447 40.4318 13.2216 38.9923 13.2216C37.5529 13.2216 36.3759 12.0447 36.3759 10.6052C36.3759 9.16579 37.5529 7.98883 38.9923 7.98883ZM62.6501 19.2927C63.9371 19.2927 64.9871 20.3427 64.9871 21.6297C64.9871 22.9167 63.9371 23.9667 62.6501 23.9667C61.363 23.9667 60.3131 22.9167 60.3131 21.6297C60.3131 20.3427 61.363 19.2927 62.6501 19.2927ZM41.9559 68.8182C40.508 68.8182 39.3395 67.6412 39.3395 66.2018C39.3395 64.7623 40.5164 63.5854 41.9559 63.5854C43.3953 63.5854 44.5723 64.7623 44.5723 66.2018C44.5723 67.6497 43.3953 68.8182 41.9559 68.8182Z" fill="black"/>
<path d="M40.7027 50.842V57.2603C40.7027 57.6074 40.9906 57.8953 41.3378 57.8953C41.6849 57.8953 41.9728 57.6074 41.9728 57.2603V50.842H46.6976V57.2603C46.6976 57.6074 46.9855 57.8953 47.3326 57.8953C47.6798 57.8953 47.9677 57.6074 47.9677 57.2603V50.842H50.2031C50.5502 50.842 50.8381 50.5541 50.8381 50.207V47.9716H57.2564C57.6035 47.9716 57.8914 47.6837 57.8914 47.3366C57.8914 46.9894 57.6035 46.7015 57.2564 46.7015H50.8381V41.9767H57.2564C57.6035 41.9767 57.8914 41.6888 57.8914 41.3417C57.8914 40.9945 57.6035 40.7066 57.2564 40.7066H50.8381V35.9818H57.2564C57.6035 35.9818 57.8914 35.694 57.8914 35.3468C57.8914 34.9996 57.6035 34.7118 57.2564 34.7118H50.8381V29.987H57.2564C57.6035 29.987 57.8914 29.6991 57.8914 29.3519C57.8914 29.0048 57.6035 28.7169 57.2564 28.7169H50.8381V26.4815C50.8381 26.1343 50.5502 25.8464 50.2031 25.8464H47.9677V19.4282C47.9677 19.081 47.6798 18.7932 47.3326 18.7932C46.9855 18.7932 46.6976 19.081 46.6976 19.4282V25.8464H41.9728V19.4282C41.9728 19.081 41.6849 18.7932 41.3378 18.7932C40.9906 18.7932 40.7027 19.081 40.7027 19.4282V25.8464H35.9779V19.4282C35.9779 19.081 35.6901 18.7932 35.3429 18.7932C34.9957 18.7932 34.7078 19.081 34.7078 19.4282V25.8464H29.9831V19.4282C29.9831 19.081 29.6952 18.7932 29.348 18.7932C29.0009 18.7932 28.713 19.081 28.713 19.4282V25.8464H26.4776C26.1304 25.8464 25.8425 26.1343 25.8425 26.4815V28.7169H19.4243C19.0771 28.7169 18.7892 29.0048 18.7892 29.3519C18.7892 29.6991 19.0771 29.987 19.4243 29.987H25.8425V34.7118H19.4243C19.0771 34.7118 18.7892 34.9996 18.7892 35.3468C18.7892 35.694 19.0771 35.9818 19.4243 35.9818H25.8425V40.7066H19.4243C19.0771 40.7066 18.7892 40.9945 18.7892 41.3417C18.7892 41.6888 19.0771 41.9767 19.4243 41.9767H25.8425V46.7015H19.4243C19.0771 46.7015 18.7892 46.9894 18.7892 47.3366C18.7892 47.6837 19.0771 47.9716 19.4243 47.9716H25.8425V50.207C25.8425 50.5541 26.1304 50.842 26.4776 50.842H28.713V57.2603C28.713 57.6074 29.0009 57.8953 29.348 57.8953C29.6952 57.8953 29.9831 57.6074 29.9831 57.2603V50.842H34.7078V57.2603C34.7078 57.6074 34.9957 57.8953 35.3429 57.8953C35.6901 57.8953 35.9779 57.6074 35.9779 57.2603V50.842H40.7027ZM27.1126 27.1165H49.568V49.5719H27.1126V27.1165Z" fill="black"/>
<path d="M33.5902 43.7295H43.0905C43.4377 43.7295 43.7256 43.4416 43.7256 43.0944V33.5941C43.7256 33.2469 43.4377 32.959 43.0905 32.959H33.5902C33.243 32.959 32.9551 33.2469 32.9551 33.5941V43.0944C32.9551 43.4416 33.243 43.7295 33.5902 43.7295ZM34.2252 34.2291H42.4555V42.4594H34.2252V34.2291Z" fill="black"/>
</svg>
