<svg width="74" height="82" viewBox="0 0 74 82" fill="none" xmlns="http://www.w3.org/2000/svg">
<path d="M62.903 81.9597H16.243C14.263 81.9597 12.153 82.1197 10.203 81.7997C5.02304 80.9497 1.08304 76.4097 0.823042 71.1797C0.733042 69.3597 0.813041 67.4997 0.813041 65.6697V14.1697C0.813041 12.9097 0.753042 11.6097 0.923042 10.3497C1.68304 4.7597 6.35304 0.849698 11.903 0.559698C15.653 0.469698 19.413 0.559698 23.163 0.559698H57.323C59.483 0.559698 61.793 0.389697 63.923 0.699697C69.143 1.4497 73.223 5.9397 73.643 11.1797C73.783 12.8797 73.693 14.6397 73.693 16.3597V67.7597C73.693 71.6697 73.763 74.8397 71.023 78.0197C68.883 80.5097 66.123 81.7297 62.903 81.9597ZM11.893 3.4697C4.43304 4.2097 3.67304 9.6597 3.68304 15.8497V66.6097C3.68304 68.1497 3.60304 69.7397 3.75304 71.2697C4.37304 77.6097 9.14304 79.0697 14.413 79.0697H59.693C63.363 79.0697 66.443 79.0697 68.963 75.8497C71.303 72.8597 70.783 69.3497 70.773 65.8097V18.3897C70.773 14.0997 71.523 9.4397 68.213 6.0997C66.013 3.8797 63.633 3.4797 60.633 3.4797H60.253V9.7297C60.253 10.8297 60.343 11.9997 60.203 13.0897C59.993 14.6897 57.723 14.6297 57.423 13.0897C57.223 12.0497 57.353 10.8097 57.353 9.7497V3.4597H17.293V9.6497C17.293 10.6797 17.393 11.8297 17.243 12.8497C16.983 14.5397 15.323 14.2797 14.393 13.3297C14.293 10.0497 14.393 6.7397 14.393 3.4597C13.563 3.4597 12.733 3.4597 11.893 3.4597V3.4697Z" fill="black"/>
<path d="M27.123 30.8297C25.153 29.1697 27.363 27.4497 28.423 25.9397L36.713 14.0597C37.333 13.1597 37.803 12.1197 38.803 11.5897C39.473 11.5497 40.193 11.7897 40.463 12.4597C40.793 13.2997 39.013 21.3497 38.253 23.0397H44.053C45.103 23.0397 46.323 22.9297 47.353 23.1297C50.083 23.6797 47.013 26.7397 46.363 27.5897L42.363 32.9897C40.523 35.4997 38.063 39.3897 35.973 41.5997C35.043 42.0297 33.773 41.6097 33.763 40.4397C33.733 38.2897 35.223 33.4497 35.523 30.8297H30.243C29.213 30.8297 28.173 30.8797 27.143 30.8297H27.123ZM35.953 20.2797C34.543 22.0697 31.743 25.9197 30.623 27.9097H35.033C36.263 27.9097 38.883 27.4597 38.773 29.4197C38.733 30.0197 37.953 33.3897 38.083 33.6297L38.243 33.3297C40.263 31.3697 42.153 28.1897 43.843 25.8797H39.043C37.523 25.8897 35.043 26.3797 35.203 24.0997C35.243 23.5197 36.023 20.4397 35.953 20.2797Z" fill="black"/>
<path d="M58.033 67.9197H21.123C14.883 67.9197 12.793 68.3297 12.793 61.6597V53.8197C12.783 50.6797 13.183 48.2097 16.793 47.7097C19.583 47.5997 22.403 47.7097 25.193 47.7097H52.953C56.403 47.7097 61.703 46.7197 61.863 51.7597C61.953 54.3397 61.873 56.9497 61.873 59.5297C61.873 62.7397 62.743 67.7597 58.013 67.9197H58.033ZM17.293 50.6197C15.183 50.7597 15.763 52.9997 15.763 54.5297V62.4497C15.763 63.5397 15.533 64.3097 16.513 64.9997H57.363C59.493 64.9397 58.923 63.5597 58.923 61.9397V53.6597C58.923 52.2597 59.473 50.6997 57.623 50.6097C56.083 50.5397 54.523 50.6097 52.983 50.6097H17.303L17.293 50.6197Z" fill="black"/>
<path d="M45.553 61.3397V54.0097H48.483V61.3397H45.553Z" fill="black"/>
<path d="M52.263 61.3397V54.0097H55.203V61.3397H52.263Z" fill="black"/>
<path d="M19.033 58.6297V55.7197H31.883C31.883 56.6897 31.923 57.6597 31.883 58.6297H19.033Z" fill="black"/>
</svg>
