<svg width="81" height="78" viewBox="0 0 81 78" fill="none" xmlns="http://www.w3.org/2000/svg">
<path d="M9.20323 38.7436H28.6859M9.20323 50.5358H28.6859M9.20323 62.3279H28.6859M36.3764 15.3436C36.3764 16.3745 35.5407 17.2102 34.5099 17.2102H2.86655C1.83568 17.2102 1 16.3745 1 15.3436V3.69566C1 2.66479 1.83568 1.8291 2.86655 1.8291H34.5099C35.5407 1.8291 36.3764 2.66479 36.3764 3.69566V15.3436ZM36.3764 74.817C36.3764 75.8479 35.5407 76.6836 34.5099 76.6836H2.86655C1.83568 76.6836 1 75.8479 1 74.817V26.2545C1 25.2237 1.83568 24.388 2.86655 24.388H34.5099C35.5407 24.388 36.3764 25.2237 36.3764 26.2545V74.817ZM79.4434 15.3436C79.4434 16.3745 78.6077 17.2102 77.5768 17.2102H45.9335C44.9026 17.2102 44.0669 16.3745 44.0669 15.3436V3.69566C44.0669 2.66479 44.9026 1.8291 45.9335 1.8291H77.5768C78.6077 1.8291 79.4434 2.66479 79.4434 3.69566V15.3436ZM79.4434 37.9025C79.4434 38.9333 78.6077 39.769 77.5768 39.769H45.9335C44.9026 39.769 44.0669 38.9333 44.0669 37.9025V26.2545C44.0669 25.2237 44.9026 24.388 45.9335 24.388H77.5768C78.6077 24.388 79.4434 25.2237 79.4434 26.2545V37.9025ZM79.4434 74.817C79.4434 75.8479 78.6077 76.6836 77.5768 76.6836H45.9335C44.9026 76.6836 44.0669 75.8479 44.0669 74.817V49.8388C44.0669 48.8079 44.9026 47.9723 45.9335 47.9723H77.5768C78.6077 47.9723 79.4434 48.8079 79.4434 49.8388V74.817Z" stroke="black" stroke-width="2" stroke-miterlimit="10" stroke-linecap="round" stroke-linejoin="round"/>
</svg>
