<svg width="84" height="65" viewBox="0 0 84 65" fill="none" xmlns="http://www.w3.org/2000/svg">
<path d="M42.02 29.9303C41.49 29.9303 40.97 29.8903 40.44 29.7903C35.13 28.9303 31.49 23.8903 32.35 18.5803C33.21 13.2703 38.25 9.63026 43.56 10.4903C46.14 10.9003 48.38 12.3103 49.93 14.4203C51.45 16.5503 52.08 19.1303 51.65 21.7103C51.24 24.2903 49.83 26.5303 47.72 28.0803C46.02 29.2903 44.05 29.9403 42.02 29.9403V29.9303ZM41.96 12.2703C40.32 12.2703 38.74 12.7803 37.39 13.7503C35.69 14.9803 34.56 16.8003 34.23 18.8703C33.9 20.9403 34.39 23.0303 35.6 24.7303C36.83 26.4303 38.65 27.5603 40.72 27.8903C42.79 28.2203 44.88 27.7303 46.58 26.5203C48.28 25.2903 49.41 23.4703 49.74 21.4003C50.07 19.3303 49.58 17.2403 48.37 15.5403C47.14 13.8403 45.32 12.7103 43.25 12.3803C42.82 12.3003 42.39 12.2603 41.96 12.2603V12.2703Z" fill="black"/>
<path d="M8.82 40.1603C8.59 40.1603 8.33 40.0603 8.16 39.8703C-2.72 28.9903 -2.72 11.2603 8.16 0.360254C8.53 -0.00974587 9.14 -0.00974587 9.51 0.360254C9.88 0.730254 9.88 1.34025 9.51 1.71025C-0.63 11.8703 -0.63 28.3703 9.51 38.5303C9.88 38.9003 9.88 39.5103 9.51 39.8803C9.33 40.0903 9.08 40.1703 8.83 40.1703L8.82 40.1603Z" fill="black"/>
<path d="M16.75 34.5503C16.52 34.5503 16.26 34.4503 16.09 34.2603C8.3 26.4703 8.3 13.7903 16.09 6.00025C16.46 5.63025 17.07 5.63025 17.44 6.00025C17.81 6.37025 17.81 6.98026 17.44 7.35026C10.39 14.4003 10.39 25.8703 17.44 32.9203C17.81 33.2903 17.81 33.9003 17.44 34.2703C17.24 34.4803 17.01 34.5603 16.76 34.5603L16.75 34.5503Z" fill="black"/>
<path d="M24.67 28.9303C24.44 28.9303 24.18 28.8303 24.01 28.6403C21.74 26.3703 20.47 23.3303 20.47 20.1003C20.47 16.8703 21.72 13.8503 24.01 11.5603C24.38 11.1903 24.99 11.1903 25.36 11.5603C25.73 11.9303 25.73 12.5403 25.36 12.9103C21.4 16.8703 21.4 23.3003 25.36 27.2903C25.73 27.6603 25.73 28.2703 25.36 28.6403C25.16 28.8403 24.91 28.9303 24.68 28.9303H24.67Z" fill="black"/>
<path d="M75.14 40.1603C74.91 40.1603 74.65 40.0602 74.48 39.8703C74.11 39.5003 74.11 38.8903 74.48 38.5203C84.62 28.3803 84.62 11.8603 74.48 1.70025C74.11 1.33025 74.11 0.720254 74.48 0.350254C74.85 -0.0197461 75.46 -0.0197461 75.83 0.350254C86.71 11.2703 86.71 28.9802 75.83 39.8602C75.62 40.0702 75.38 40.1502 75.15 40.1502L75.14 40.1603Z" fill="black"/>
<path d="M67.21 34.5503C66.98 34.5503 66.72 34.4503 66.55 34.2603C66.18 33.8903 66.18 33.2803 66.55 32.9103C73.6 25.8603 73.6 14.3903 66.55 7.34025C66.18 6.97025 66.18 6.36026 66.55 5.99026C66.92 5.62026 67.53 5.62026 67.9 5.99026C75.69 13.7803 75.69 26.4603 67.9 34.2503C67.7 34.4603 67.47 34.5403 67.22 34.5403L67.21 34.5503Z" fill="black"/>
<path d="M59.34 28.9303C59.11 28.9303 58.85 28.8303 58.68 28.6403C58.31 28.2703 58.31 27.6603 58.68 27.2903C62.64 23.3303 62.64 16.9003 58.68 12.9103C58.31 12.5403 58.31 11.9303 58.68 11.5603C59.05 11.1903 59.66 11.1903 60.03 11.5603C64.74 16.2703 64.74 23.9203 60.03 28.6103C59.82 28.8203 59.58 28.9203 59.35 28.9203L59.34 28.9303Z" fill="black"/>
<path d="M41.98 64.4403C41.45 64.4403 41.02 64.0103 41.02 63.4803V28.9703C41.02 28.4403 41.45 28.0103 41.98 28.0103C42.51 28.0103 42.94 28.4403 42.94 28.9703V63.5003C42.94 64.0303 42.51 64.4403 41.98 64.4403Z" fill="black"/>
</svg>
