<?xml version="1.0" encoding="UTF-8"?>
<svg id="Layer_6" xmlns="http://www.w3.org/2000/svg" version="1.1" viewBox="0 0 5040 5040">
  <!-- Generator: Adobe Illustrator 29.8.1, SVG Export Plug-In . SVG Version: 2.1.1 Build 2)  -->
  <defs>
    <style>
      .st0, .st1 {
        fill: #fff;
      }

      .st2 {
        fill: #004c90;
      }

      .st1 {
        stroke: #004c8f;
        stroke-miterlimit: 10;
        stroke-width: 39.7px;
      }
    </style>
  </defs>
  <circle class="st2" cx="2520" cy="2500" r="1714.4"/>
  <g>
    <path class="st0" d="M3365.3,1910.3c-46.8-110.6-113.7-209.9-199-295.2-27.1-27.1-55.6-52.3-85.4-75.7-9.4-7.4-19-14.6-28.7-21.6-56.2-40.5-116.7-74.6-181-101.8-30.7-13-61.9-24.2-93.5-33.8-12.2-3.7-24.4-7.1-36.8-10.2-75-19.3-152.4-29-231.2-29s-161.8,10.4-239.4,31.1c-12.3,3.3-24.5,6.8-36.7,10.6-28.8,9-57.3,19.4-85.4,31.3-67,28.3-129.9,64.1-188,106.9-9.6,7-19.1,14.3-28.4,21.7-27.4,21.8-53.7,45.3-78.8,70.4-85.3,85.3-152.3,184.6-199,295.2-48.4,114.5-73,236.1-73,361.5s24.6,247,73,361.5c46.8,110.6,113.7,209.9,199,295.2,85.3,85.3,184.6,152.3,295.2,199,114.5,48.4,236.1,73,361.5,73s247-24.6,361.5-73c110.6-46.8,209.9-113.7,295.2-199,85.3-85.3,152.3-184.6,199-295.2,48.4-114.5,73-236.1,73-361.5s-24.6-247-73-361.5ZM2509.6,3164.9c-492.5,0-893.1-400.7-893.1-893.1s131.8-534.8,337.2-698.6c9.3-7.4,18.8-14.7,28.4-21.7,82.5-60.6,175.7-107.3,276.2-136.8,13.3-3.9,26.7-7.5,40.2-10.8,67.7-16.5,138.4-25.2,211.1-25.2s138,8.1,203.3,23.3c13.5,3.2,26.9,6.6,40.2,10.4,101.1,28.7,194.9,74.8,278.1,134.8,9.6,7,19.2,14.1,28.5,21.5,208.7,163.6,343,418,343,703.1,0,492.5-400.7,893.1-893.1,893.1Z"/>
    <path class="st0" d="M2317.5,3071.1c-98.1-39.7-188.1-110.3-263-207.9-122.5-159.6-190-372.1-190-598.3s67.5-438.7,190-598.3c74.1-96.5,163-166.6,259.8-206.6,14.6-6,29.3-11.4,44.2-16-14.1-7-27.4-15-39.7-23.9-12.7,4.7-25.3,10-37.8,15.7-13.2,6-26.2,12.6-39.1,19.7-80.9,44.6-153.5,108.3-215.7,189.4-62,80.7-110.6,174.7-144.5,279.2-35.1,108-52.8,222.7-52.8,340.8s17.8,232.8,52.8,340.8c33.9,104.5,82.6,198.4,144.5,279.2,62.2,81.1,134.8,144.8,215.7,189.4,14.2,7.8,28.6,15,43.1,21.5,12.4,5.6,24.9,10.7,37.5,15.3,1.7-1.3,3.4-2.6,5.2-3.8,10.4-7.6,21.6-14.5,33.4-20.7-14.7-4.5-29.3-9.6-43.7-15.5ZM3134.3,1924.1c-33.9-104.5-82.6-198.4-144.5-279.2-62.2-81.1-134.8-144.8-215.7-189.4-14.3-7.9-28.8-15.1-43.4-21.7-12.5-5.6-25.1-10.7-37.8-15.4-12.2,9-25.4,17.1-39.4,24.3,14.9,4.5,29.7,9.7,44.3,15.6,98.4,39.7,188.7,110.3,263.9,208.2,122.5,159.6,190,372.1,190,598.3s-67.5,438.7-190,598.3c-73.2,95.3-160.7,164.8-256.2,205-14.3,6.1-28.9,11.4-43.6,16.1.1,0,.3.1.4.2,13.7,7,26.6,14.9,38.6,23.7,12.6-4.8,25-10.1,37.4-15.9,12-5.6,24-11.7,35.8-18.2,80.9-44.6,153.5-108.3,215.7-189.4,62-80.7,110.6-174.7,144.5-279.2,35.1-108,52.8-222.6,52.8-340.8s-17.8-232.8-52.8-340.8Z"/>
    <path class="st0" d="M2766.3,1688.9c-38.1-89.7-83.9-156.6-134.4-197.9-12.2-10-24.7-18.5-37.4-25.5-28.2,7.8-58.4,12-89.9,12s-58.4-3.8-85.4-10.8c-12.7,7.1-25.1,15.8-37.2,25.9-49.7,41.5-94.7,107.8-132.4,196.3-65.5,154.2-101.6,358.7-101.6,576s36.1,421.9,101.6,576c37.8,88.9,83.1,155.4,133,196.8,11.9,9.9,24.1,18.4,36.6,25.4,2.9-.9,5.9-1.7,8.9-2.4,19.8-5.2,40.6-8.6,62.1-10-22.1-3-44-11.7-65.4-25.9-12.7-8.4-25.2-18.7-37.5-31-39.1-38.9-74.4-95-104.9-166.8-63.7-149.9-98.8-349.5-98.8-562.1s35.1-412.2,98.8-562.1c30.5-71.8,65.8-127.9,104.9-166.8,12.5-12.4,25.1-22.8,37.9-31.3,27-17.8,54.7-26.8,82.7-26.8s54.6,8.6,81,25.7c13.4,8.6,26.6,19.4,39.6,32.4,39.1,38.9,74.4,95,104.9,166.8,63.7,149.9,98.8,349.5,98.8,562.1s-35.1,412.3-98.8,562.1c-30.5,71.8-65.8,127.9-104.9,166.8-11.4,11.3-22.9,21-34.6,29-21.4,14.7-43.2,23.9-65.3,27.4,24.9,1.1,48.8,4.8,71.6,10.8,0,0,0,0,0,0,12.3-7.3,24.5-16,36.3-26.1,48.6-41.6,92.7-107.1,129.6-194,65.5-154.2,101.6-358.7,101.6-576s-36.1-421.9-101.6-576Z"/>
    <path class="st0" d="M3052.2,1517.8c-5.2,9.9-12.2,19.7-20.9,29.4-2.4,2.6-4.8,5.2-7.4,7.8-27.4,27.3-67.1,52-118,73.5-106.8,45-249.3,69.8-401.1,69.8s-294.3-24.8-401.1-69.8c-50.9-21.4-90.6-46.1-118-73.5-1.2-1.2-2.3-2.3-3.4-3.5-9-9.4-16.4-18.9-22-28.5-9.6,7-19.1,14.3-28.4,21.7,6.1,9.7,13.5,19.2,22,28.5,30.5,33,76.4,62.9,136.1,88,111.1,46.8,258.5,72.6,414.9,72.6s303.8-25.8,414.9-72.6c62.4-26.3,109.8-57.8,140.1-92.6,8.3-9.5,15.4-19.3,21.1-29.2-9.4-7.4-19-14.6-28.7-21.6Z"/>
    <path class="st0" d="M2740.9,1372.1c-8.3,10.6-17.6,20.6-27.9,29.9-6.4,5.8-13.1,11.3-20.2,16.5-12.2,9-25.4,17.1-39.4,24.3-18.3,9.3-38,17-58.8,22.7-28.2,7.8-58.4,12-89.9,12s-58.4-3.8-85.4-10.8c-21.5-5.6-41.9-13.2-60.8-22.7-14.1-7-27.4-15-39.7-23.9-7.1-5.1-13.9-10.6-20.4-16.3-10.4-9.2-19.9-19.1-28.3-29.7-12.3,3.3-24.5,6.8-36.7,10.6,7.4,10.4,15.7,20.3,24.9,29.9,7.1,7.4,14.7,14.4,22.8,21.2.8.7,1.6,1.3,2.4,2,9.8,8,20,15.4,30.8,22.2,21,13.3,43.7,24.2,67.8,32.6,14,4.9,28.4,9,43.2,12.1,25.6,5.5,52.2,8.3,79.4,8.3s57.2-3.2,84.4-9.4c14.7-3.4,29-7.6,42.9-12.7,23.3-8.5,45.4-19.4,65.7-32.6,9.8-6.3,19.2-13.2,28.1-20.5,1.6-1.3,3.2-2.7,4.8-4,8-6.9,15.6-14,22.6-21.5,9-9.6,17.2-19.7,24.5-30.1-12.2-3.7-24.4-7.1-36.8-10.2Z"/>
    <path class="st0" d="M3061.1,3009.5c-5.2-9.9-12.2-19.7-20.9-29.4-2.4-2.6-4.8-5.2-7.4-7.8-27.4-27.3-67.1-52-118-73.5-106.8-45-249.3-69.8-401.1-69.8s-294.3,24.8-401.1,69.8c-50.9,21.4-90.6,46.1-118,73.5-1.2,1.2-2.3,2.3-3.4,3.5-9,9.4-16.4,18.9-22,28.5-9.6-7-19.1-14.3-28.4-21.7,6.1-9.7,13.5-19.2,22-28.5,30.5-33,76.4-62.9,136.1-88,111.1-46.8,258.5-72.6,414.9-72.6s303.8,25.8,414.9,72.6c62.4,26.3,109.8,57.8,140.1,92.6,8.3,9.5,15.4,19.3,21.1,29.2-9.4,7.4-19,14.6-28.7,21.6Z"/>
    <path class="st0" d="M2762.1,3115c-7-7.4-14.5-14.6-22.6-21.5-.4-.4-.8-.7-1.2-1.1-1.2-1-2.3-2-3.5-2.9-9-7.3-18.4-14.2-28.2-20.5-.4-.3-.8-.5-1.2-.8-20-12.8-41.7-23.5-64.6-31.8-1.4-.5-2.8-1-4.2-1.5-12.6-4.4-25.5-8.2-38.7-11.2-1.3-.3-2.6-.6-3.9-.9-25.9-5.6-52.9-8.6-80.4-8.6s-53.8,2.8-79.4,8.3c-3.1.7-6.3,1.4-9.4,2.1-11.5,2.8-22.8,6.1-33.9,10-2.8,1-5.5,2-8.2,3-21,7.9-41,17.8-59.5,29.6-1.9,1.2-3.9,2.5-5.8,3.7-8.7,5.7-17,11.9-25,18.4-.8.7-1.6,1.3-2.4,2-1.7,1.4-3.3,2.8-5,4.2-6.3,5.5-12.2,11.1-17.8,17-9.2,9.5-17.5,19.5-24.9,29.9,12.2,3.8,24.4,7.3,36.7,10.6,8.4-10.5,17.9-20.5,28.3-29.7,4.8-4.3,9.9-8.4,15.2-12.4,1.7-1.3,3.4-2.6,5.2-3.8,10.4-7.6,21.6-14.5,33.4-20.7,2.1-1.1,4.2-2.2,6.3-3.2,16.3-8.1,33.6-14.9,51.9-20.2,2.9-.9,5.9-1.7,8.9-2.4,19.8-5.2,40.6-8.6,62.1-10,7.7-.5,15.5-.8,23.3-.8s10.1.1,15.2.3c24.9,1.1,48.8,4.8,71.6,10.8,0,0,0,0,0,0,1,.3,2.1.5,3.1.8,20.6,5.7,40.2,13.3,58.4,22.5.1,0,.3.1.4.2,13.7,7,26.6,14.9,38.6,23.7.3.2.5.4.8.6,7.1,5.2,13.8,10.7,20.2,16.5,10.3,9.3,19.6,19.3,27.9,29.9,12.3-3.1,24.6-6.6,36.8-10.2-7.3-10.5-15.4-20.5-24.5-30.1Z"/>
    <rect class="st0" x="2493.6" y="1513.1" width="31.1" height="1316.1"/>
  </g>
  <rect class="st2" x="1332.1" y="1780.6" width="2425.1" height="977.3"/>
  <g>
    <path class="st0" d="M3646.3,2067.3c-21.7-56.8-66.1-107.5-120.2-144.1-156.2-99.2-394.2-106.3-555.1-16.6-87.8,44.8-145.4,133.4-163.4,224.5-32.5,149.8-24.2,328.1,91.2,440.4,134.6,118,330.5,144.1,504.7,95.6,8.2-1.6,34.5-8.2,52.6-17.8l5.1-2.2c54.1-22.5,105.7-59.1,144.2-108.7,88.9-129.9,95-324.7,40.9-471.1ZM3362.6,2403.7c-6.1,28.4-25.2,57.9-55.3,68.5-48,21.1-112.9,15.3-157.4-9.4-37.3-26.1-42.1-69.7-46.9-111-3.7-81.4-9.5-167.6,13.3-242.1,17.9-46.1,67.2-58,111.7-61.4,46.9,0,92.4,7.1,121.4,44.9,18,27.1,16.9,62.6,20.4,94.5-1.3,67.3,4.8,147.5-7.2,216Z"/>
    <path class="st0" d="M1938.7,2477c-39.6-2.4-84.1,1-122.5-3.7l1.1-414.5,2.4-3.5,118.9-1.2c1.3-67.3,2.4-139.5-1.3-200.8l-452.9-1.3-74.6,1.3c-1.2,62.6-1.2,135.7,0,199.5,40.9,1.3,79.3,0,118.9,3.7v401.4l-1.1,16.5-119,2.4c-2.5,66-2.5,129.8,0,194.8h529.9v-194.8Z"/>
    <path class="st0" d="M2493.9,2486.2c-113,30.8-235.6,7.3-317.3-77.8-9.5-11.8-15.6-25.8-25.2-37.7l-162.2,1.2c-2.5,95.6-3.7,205.4,0,299.9l180.2-1.1,2.4-56.7c20.5,9.4,40.9,21.2,61.3,31.8,125,52,285.9,63.8,409.7,0,90.2-49.5,138.3-145.1,125-248-13.2-100.2-109.3-191.2-206.6-215.9l-290.8-83.9-21.6-10.7c-9.6-8.2-15.7-18.7-13.3-31.8,22.8-38.9,75.8-27.1,115.4-26.1,84.1,11.8,170.6,40.2,219.9,117,52.8,0,114.1,1,171.8-1.3,2.4-96.8-1-181.7-2.4-279.8-54.1-1.3-120.2-1.3-174.2,1.3-2.4,14,2.3,34-3.7,48.2l-55.2-29.5c-132.2-55.4-317.3-61.3-437.4,24.9-78.2,56.6-102.1,158.3-81.7,247.9,15.6,85,97.3,147.5,175.4,177,106.9,37.8,218.7,65.1,326.9,101.6,10.8,4.8,25.1,15.5,22.8,28.5,0,10.5-10.9,16.5-19.3,21Z"/>
  </g>
  <path class="st1" d="M2520,4980c-168,0-336-16.9-499.4-50.4-159.4-32.6-316.2-81.3-466-144.7-147-62.2-288.8-139.1-421.4-228.7-131.2-88.7-254.6-190.5-366.8-302.6-112.1-112.1-213.9-235.5-302.6-366.8-89.6-132.6-166.5-274.4-228.7-421.4-63.4-149.8-112.1-306.6-144.7-466-33.4-163.4-50.4-331.4-50.4-499.4s16.9-336,50.4-499.4c32.6-159.4,81.3-316.2,144.7-466,62.2-147,139.1-288.8,228.7-421.4,88.7-131.2,190.5-254.6,302.6-366.8,112.1-112.1,235.5-213.9,366.8-302.6,132.6-89.6,274.4-166.5,421.4-228.7,149.8-63.4,306.6-112,466-144.7,163.4-33.4,331.4-50.4,499.4-50.4s336,16.9,499.4,50.4c159.4,32.6,316.2,81.3,466,144.7,147,62.2,288.8,139.1,421.4,228.7,131.2,88.7,254.6,190.5,366.8,302.6,112.1,112.1,213.9,235.5,302.6,366.8,89.6,132.6,166.5,274.4,228.7,421.4,63.4,149.8,112,306.6,144.7,466,33.4,163.4,50.4,331.4,50.4,499.4s-16.9,336-50.4,499.4c-32.6,159.4-81.3,316.2-144.7,466-62.2,147-139.1,288.8-228.7,421.4-88.7,131.2-190.5,254.6-302.6,366.8-112.1,112.1-235.5,213.9-366.8,302.6-132.6,89.6-274.4,166.5-421.4,228.7-149.8,63.4-306.6,112-466,144.7-163.4,33.4-331.4,50.4-499.4,50.4ZM2520,789.3c-943.3,0-1710.7,767.4-1710.7,1710.7s767.4,1710.7,1710.7,1710.7,1710.7-767.4,1710.7-1710.7-767.4-1710.7-1710.7-1710.7Z"/>
  <g>
    <path class="st2" d="M1091.6,926.1l-90.3,94.4-63.8-60.9c-18.5-17.7-31.1-27.8-37.6-30.1-6.5-2.4-13.1-.1-19.7,6.8-7.4,7.8-9.4,15.4-5.8,22.8,3.6,7.4,14.7,20,33.2,37.8l170.4,162.9c17.8,17,30.4,27.1,37.9,30.2,7.4,3.1,14.7,1,21.7-6.3,6.7-7,8.4-14.2,5-21.6-3.4-7.4-15.1-20.7-35.3-39.9l-46.1-44.1,90.3-94.4,14.3,13.7c38,36.3,62.4,64.7,73.2,85.2,10.8,20.5,13.5,45.5,8.1,75.1-5.4,29.6-20.8,57.7-46.3,84.3-26.4,27.7-53.3,45.6-80.6,53.9-27.3,8.3-52.6,6.8-76.1-4.5-23.5-11.3-53.2-34.1-89.1-68.5l-107.2-102.4c-26.4-25.3-45.4-45.1-56.9-59.5-11.5-14.4-19.1-31.9-22.8-52.5-3.7-20.6-1.6-42.1,6.5-64.6,8.1-22.5,21.9-44,41.5-64.5,26.6-27.8,54-45.6,82.1-53.3,28.2-7.7,53.1-6.7,74.7,3.2,21.6,9.8,49.6,31.1,83.8,63.8l34.8,33.3Z"/>
    <path class="st2" d="M1143.8,604.2l182.1-119.6,55.7,84.9-72.9,47.9,52.8,80.4,68.2-44.8,53,80.7-68.2,44.8,61.2,93.3,80.1-52.6,55.7,84.9-189.3,124.3-278.5-424.1Z"/>
    <path class="st2" d="M1565.3,359.3l86.7-32.1c57.8-21.4,97.8-33.7,119.9-36.8,22.1-3.1,43.1,2.2,62.8,16,19.8,13.7,37.2,40.9,52.2,81.4,13.7,37,18.4,63.6,14,79.7-4.4,16.1-19.5,30.4-45.3,42.9,26.5-2.9,45.8-.8,57.9,6.3,12.1,7.1,20.8,14.5,26,22.3,5.2,7.8,14.9,30.9,29.1,69.2l46.5,125.5-113.8,42.2-58.6-158.1c-9.4-25.5-17.3-40.5-23.5-45.1-6.2-4.6-17.8-3.8-34.7,2.5l79.5,214.5-122.5,45.4-176.4-475.8ZM1717.9,395.3l39.2,105.8c13.8-5.1,22.7-10.6,26.8-16.5,4.1-5.9,2.3-19.3-5.5-40.2l-9.7-26.2c-5.6-15.1-11.9-24-19-26.7-7.1-2.7-17.7-1.5-31.9,3.8Z"/>
    <path class="st2" d="M2370.7,163.9l12.2,100.8-77,9.3,48.8,402.9-129.7,15.7-48.8-402.9-76.7,9.3-12.2-100.8,283.4-34.3Z"/>
    <path class="st2" d="M2740.4,174.2l-35.2,506.2-130.3-9.1,35.2-506.2,130.3,9.1Z"/>
    <path class="st2" d="M2996.2,212.3l214.3,55-25.2,98.4-87.8-22.5-23.9,93.2,78.1,20-24,93.5-78.1-20-52.9,206.4-126.5-32.4,126-491.5Z"/>
    <path class="st2" d="M3551.7,406.9l-213.3,460.4-118.5-54.9,213.3-460.4,118.5,54.9Z"/>
    <path class="st2" d="M3778.3,534.2l177.4,126.3-58.9,82.7-71-50.6-55.8,78.4,66.5,47.3-56,78.6-66.5-47.3-64.7,90.9,78.1,55.6-58.9,82.7-184.5-131.4,294.3-413.3Z"/>
    <path class="st2" d="M4159.7,838.3l64.8,73.1c41.8,47.2,68,81.1,78.3,101.6,10.4,20.5,14.4,39.6,12.1,57.1-2.3,17.5-8.7,32.8-19,45.9-10.4,13-33.5,35.5-69.5,67.4l-133,117.9c-34.1,30.2-58.3,48.8-72.6,55.8-14.3,7-28.2,9.4-41.7,7.3-13.5-2.1-26.7-7.9-39.5-17.2-12.9-9.3-29.7-25.7-50.4-49l-109.3-123.3,379.7-336.6ZM4181.3,993.6l-249.8,221.4c12.5,14.1,23,20.2,31.6,18.4,8.6-1.8,25.5-13.9,50.9-36.4l147.5-130.8c17.2-15.2,27.7-25.6,31.6-30.9,3.9-5.4,5.2-11,4.1-16.9-1.2-5.9-6.5-14.2-15.9-24.8Z"/>
  </g>
  <g>
    <path class="st2" d="M1199.8,4044.5l-99.6-99.9,66.6-66.4c19.4-19.3,30.4-32.4,33.1-39.4,2.7-6.9.4-14-6.9-21.3-8.2-8.2-16.3-10.5-24.4-6.9-8.1,3.6-21.8,15.1-41.2,34.5l-178.1,177.6c-18.6,18.6-29.7,31.8-33.2,39.7-3.5,7.9-1.4,15.7,6.4,23.4,7.4,7.4,15.1,9.5,23.1,6.1,8-3.4,22.5-15.6,43.6-36.6l48.2-48.1,99.6,99.9-14.9,14.9c-39.7,39.6-70.6,64.8-92.8,75.8-22.2,10.9-49.1,13-80.8,6.3-31.6-6.8-61.5-24.2-89.6-52.4-29.2-29.3-47.9-58.6-56.3-88.2-8.3-29.5-6.2-56.7,6.3-81.5,12.6-24.8,37.6-56,75.2-93.4l112-111.7c27.6-27.5,49.3-47.3,65-59.1,15.7-11.9,34.6-19.5,56.8-22.8,22.2-3.3,45.2-.3,69.2,9,24,9.4,46.8,24.9,68.4,46.5,29.3,29.4,47.8,59.3,55.6,89.8,7.7,30.4,6.1,57.1-4.9,80-11,22.9-34.3,52.2-70.1,87.9l-36.4,36.3Z"/>
    <path class="st2" d="M1595.9,4397.7c-27.4,47-47.8,79.7-61.4,97.9-13.6,18.3-30.9,32.1-52,41.5-21.1,9.4-44.1,12.6-69,9.7-24.9-2.9-50.6-12-77-27.4-25.1-14.6-45.2-31.8-60.4-51.6-15.2-19.8-24.1-41.4-26.8-64.9-2.6-23.5.5-45.5,9.4-66.1,8.9-20.6,27.4-55,55.4-103.2l46.6-80.1c27.4-47,47.8-79.7,61.4-97.9,13.6-18.3,30.9-32.1,52-41.5,21.1-9.4,44.1-12.6,69-9.7,24.9,2.9,50.6,12,77,27.4,25.1,14.6,45.2,31.8,60.4,51.6,15.2,19.8,24.1,41.4,26.8,64.9,2.6,23.5-.5,45.5-9.4,66.1-8.9,20.6-27.4,55-55.4,103.2l-46.6,80.1ZM1563.5,4173c12.7-21.8,19.6-36.4,20.7-43.9,1.1-7.5-2.1-13.4-9.6-17.8-6.4-3.7-12.7-4.1-18.9-1.1-6.2,2.9-16.4,16.5-30.4,40.6l-127.2,218.5c-15.8,27.2-24.5,44.6-25.9,52.2-1.5,7.6,1.8,13.8,9.9,18.6,8.3,4.8,15.7,4.3,22.3-1.7,6.6-6,17.9-22.7,33.9-50.3l125.1-215.1Z"/>
    <path class="st2" d="M2300.1,4285l-129.3,525.8-119.7-29.4,87.1-355-134.9,343.3-84.9-20.9,35-359.2-85.5,346.8-119.7-29.4,129.3-525.8,177.2,43.6c-2.5,32.9-6.3,71.5-11.2,115.8l-13.4,138.5,91.8-237.8,178.2,43.8Z"/>
    <path class="st2" d="M2441.5,4290.1l141.9-4.8c38.4-1.3,68,.7,88.8,6,20.8,5.3,36.6,13.5,47.4,24.5,10.8,11,18.3,24.5,22.5,40.6,4.2,16,6.9,41,8.1,74.9l1.6,47.1c1.2,34.5-1.6,59.8-8.2,75.9-6.6,16.1-19.3,28.7-38.1,37.8-18.8,9.1-43.6,14.2-74.4,15.2l-37.8,1.3,7.3,217.9-140.9,4.8-18.2-541.2ZM2585.6,4377.9l4.6,137.7c4,0,7.5,0,10.4,0,12.9-.4,21.8-3.9,26.6-10.4,4.8-6.5,6.9-19.8,6.2-39.9l-1.5-44.5c-.6-18.5-3.9-30.4-9.9-35.8-6-5.4-18.1-7.8-36.4-7.1Z"/>
    <path class="st2" d="M3094.7,4195.7l222,500.4-138.9,38.4-33.2-91.8-48.6,13.4,17.8,96.1-140.5,38.9-75-541,196.4-54.3ZM3115.5,4551.2c-23.2-57.2-50.3-128.4-81.3-213.5,13.8,103.8,25.3,179.2,34.5,226.4l46.8-12.9Z"/>
    <path class="st2" d="M3549.3,3971.4l269.4,469.7-107.2,61.5-186.1-177,122.5,213.5-102.3,58.7-269.4-469.7,102.3-58.7,189.9,172.2-121.3-211.5,102.3-58.7Z"/>
    <path class="st2" d="M3881.6,3672.5l165.7,320.1,136,141.1-94.1,90.6-136-141.1-311.1-180,93.3-89.9c87.9,62.1,145.5,105.3,172.7,129.9-34.5-47-74.4-107.3-119.8-180.9l93.3-89.9Z"/>
  </g>
  <g>
    <path class="st0" d="M1611.9,3374.1v325h-81.1v-174.3c0-25.2-.6-40.3-1.8-45.4-1.2-5.1-4.5-8.9-9.9-11.5-5.4-2.6-17.5-3.9-36.2-3.9h-8v-37.9c39.2-8.4,69-25.8,89.3-52h47.8Z"/>
    <path class="st0" d="M1795.8,3514.9c12.3,4.2,21.5,10.9,27.5,20.4,6,9.4,9,31.6,9,66.4s-2.9,45.9-8.8,60.2c-5.9,14.3-16.1,25.1-30.5,32.5-14.5,7.4-33,11.1-55.6,11.1s-45.9-4.3-60.5-12.9c-14.7-8.6-24.3-19.2-28.9-31.7-4.6-12.5-6.9-34.2-6.9-65.1v-25.7h81.1v52.8c0,14.1.8,23,2.5,26.8,1.7,3.8,5.4,5.7,11.1,5.7s10.4-2.4,12.4-7.2c2-4.8,3-17.4,3-37.7v-22.5c0-12.4-1.4-21.5-4.2-27.3-2.8-5.8-7-9.5-12.4-11.3-5.5-1.8-16.1-2.8-31.9-3.1v-47.2c19.3,0,31.2-.7,35.7-2.2,4.5-1.5,7.8-4.7,9.8-9.6,2-4.9,3-12.7,3-23.3v-18.1c0-11.4-1.2-18.9-3.5-22.5-2.3-3.6-6-5.4-10.9-5.4s-9.5,1.9-11.5,5.7c-2.1,3.8-3.1,11.9-3.1,24.4v26.7h-81.1v-27.7c0-31,7.1-52,21.3-62.9,14.2-10.9,36.7-16.4,67.7-16.4s64.9,7.6,78.7,22.7c13.8,15.1,20.7,36.1,20.7,63s-2.5,31.3-7.4,39.4c-5,8.1-13.7,15.5-26.1,22.2Z"/>
    <path class="st0" d="M2026.9,3374.1v212.4h23.1v55.4h-23.1v57.2h-81.1v-57.2h-96.4v-55.4l70.1-212.4h107.4ZM1945.8,3586.5v-138.3l-35.8,138.3h35.8Z"/>
    <path class="st0" d="M2221.6,3514.7c11.9,4.8,21.1,12,27.5,21.6,6.4,9.6,9.6,32.4,9.6,68.4s-2.5,45.6-7.6,58c-5.1,12.5-15,22.7-29.7,30.6-14.7,8-34.5,12-59.2,12s-43.2-3.8-57.2-11.4c-14.1-7.6-24.1-17.7-30.2-30.3-6.1-12.6-9.1-33.5-9.1-62.9s1.5-36.8,4.5-51.2c3-14.5,12.5-26,28.4-34.7-10-4.8-17.6-12.5-22.6-23-5-10.5-7.5-23.8-7.5-40,0-28,7.8-48.9,23.3-62.9,15.5-14,38.7-21,69.7-21s60.4,7.4,74.1,22.3c13.7,14.8,20.5,36,20.5,63.6s-2.2,30.2-6.7,37.9c-4.5,7.8-13.7,15.4-27.6,23.1ZM2177.6,3580.1c0-12.4-1.3-20.7-3.8-24.8-2.5-4.1-6.6-6.1-12-6.1s-9.2,2-11.5,5.9c-2.3,3.9-3.5,12.3-3.5,25v42.2c0,14.1,1.3,23.1,3.9,27.1,2.6,4,6.7,6,12.3,6s9.6-2,11.6-6.1c2-4.1,3-13.3,3-27.6v-41.6ZM2176,3445c0-11-1-18.2-2.9-21.8-1.9-3.5-5.7-5.3-11.1-5.3s-9,1.9-10.8,5.7c-1.9,3.8-2.8,10.9-2.8,21.4v24.7c0,9.8,1.1,16.5,3.2,20.3,2.1,3.7,5.8,5.6,10.8,5.6s9-1.8,10.8-5.5c1.9-3.7,2.8-11.3,2.8-22.8v-22.3Z"/>
    <path class="st0" d="M2463.7,3374.1v52h-100.6v55.2c12.6-14.9,28.8-22.3,48.6-22.3s39.2,6.3,50.7,18.8c11.4,12.5,17.2,36.6,17.2,72.2v46.4c0,23-1.1,39.9-3.3,50.7-2.2,10.8-6.9,20.7-14.2,29.9-7.2,9.2-17.3,16.2-30.2,21.1-12.9,4.9-28.7,7.3-47.3,7.3s-39.3-3.6-55.2-10.9c-15.9-7.3-27.2-18.2-33.9-32.6-6.7-14.5-10-36.8-10-67.1v-17.7h81.1v20.3c0,21,.7,35.9,2.2,44.8,1.5,8.8,6.6,13.2,15.3,13.2s7.3-1.3,9.7-3.8c2.5-2.5,3.8-5.3,4-8.2.2-2.9.4-15.7.7-38.3v-64.4c0-12.2-1.3-20.5-3.8-24.9-2.5-4.4-6.8-6.6-12.6-6.6s-6.9,1.1-9.4,3.4c-2.5,2.3-4.2,4.7-4.9,7.3-.7,2.6-1.1,8.7-1.1,18.2h-80.3l3.4-163.8h174.1Z"/>
    <path class="st0" d="M2568.5,3487.5v66h-61.2v-66h61.2ZM2568.5,3632.9v66.2h-61.2v-66.2h61.2Z"/>
    <path class="st0" d="M2765.3,3643.7v55.4h-178.5v-46.4c52.9-86.5,84.3-140,94.3-160.5,10-20.5,15-36.6,15-48.1s-1.5-15.4-4.5-19.8c-3-4.3-7.6-6.5-13.8-6.5s-10.8,2.4-13.8,7.2c-3,4.8-4.5,14.4-4.5,28.7v30.9h-72.7v-11.8c0-18.2.9-32.6,2.8-43.1,1.9-10.5,6.5-20.8,13.9-31,7.4-10.2,16.9-17.9,28.7-23.1,11.8-5.2,25.9-7.8,42.4-7.8,32.3,0,56.6,8,73.2,24,16.5,16,24.8,36.2,24.8,60.7s-4.7,38.3-14,59c-9.3,20.7-36.7,64.8-82.2,132.1h88.9Z"/>
    <path class="st0" d="M2988.1,3484.1v108.4c0,24.6-1.3,42.6-4,53.8-2.7,11.2-8.2,21.8-16.7,31.5-8.4,9.8-18.6,16.8-30.5,21.1-11.9,4.3-25.2,6.4-40,6.4s-35.5-2.2-48.4-6.7c-12.8-4.5-23.1-11.5-30.7-21-7.6-9.5-13-19.5-16.3-30-3.2-10.5-4.8-27.2-4.8-50.1v-113.4c0-29.8,2.6-52.2,7.7-67.1,5.2-14.9,15.4-26.8,30.7-35.7,15.3-9,33.9-13.5,55.7-13.5s33.7,3.1,47.8,9.3c14.1,6.2,24.6,13.8,31.5,22.8,7,9,11.7,19.1,14.2,30.3,2.5,11.2,3.7,29.2,3.7,53.8ZM2907,3456.8c0-17.3-.8-28.1-2.5-32.4-1.7-4.3-5.6-6.5-11.7-6.5s-10,2.3-11.9,6.9c-1.9,4.6-2.9,15.3-2.9,32v158.6c0,18.9.9,30.2,2.7,34.1,1.8,3.9,5.7,5.8,11.7,5.8s10-2.3,11.8-6.8c1.9-4.5,2.8-14.8,2.8-30.7v-161Z"/>
    <path class="st0" d="M3142.3,3374.1v325h-81.1v-174.3c0-25.2-.6-40.3-1.8-45.4-1.2-5.1-4.5-8.9-9.9-11.5-5.4-2.6-17.5-3.9-36.2-3.9h-8v-37.9c39.2-8.4,69-25.8,89.3-52h47.8Z"/>
    <path class="st0" d="M3368.5,3460.4h-81.1c0-15.1-.2-24.7-.5-28.6-.3-3.9-1.9-7.3-4.8-9.9-2.9-2.7-6.8-4-11.7-4s-7.6,1.3-10.2,3.8c-2.7,2.5-4.2,5.8-4.6,9.8-.4,4-.6,12.1-.6,24.3v51.8c4.1-8.7,10.2-15.2,18.3-19.6,8-4.3,17.9-6.5,29.7-6.5s28,4,39.3,12c11.4,8,18.6,17.7,21.7,28.9,3.1,11.2,4.6,26.4,4.6,45.6v25.9c0,22.8-.9,39.7-2.6,50.8-1.7,11.1-6.4,21.4-14,30.8-7.6,9.4-17.9,16.8-31.1,22-13.2,5.2-28.5,7.8-46.1,7.8s-39.7-3-53.6-9c-13.9-6-24.7-14.7-32.2-26-7.6-11.3-12-23.2-13.3-35.6-1.3-12.4-1.9-36.6-1.9-72.5v-45c0-38.7.6-64.5,1.7-77.6,1.1-13,5.8-25.4,14-37,8.2-11.6,19.3-20.4,33.4-26.2,14.1-5.8,30.4-8.7,48.9-8.7s41.4,3.7,56,11c14.6,7.4,25,17.7,31.3,31.1,6.3,13.4,9.4,30.2,9.4,50.6ZM3287.4,3561.8c0-11.5-1.3-19.4-3.8-23.7-2.5-4.3-6.7-6.4-12.4-6.4s-9.7,2-12.3,6.1c-2.6,4.1-3.9,12.1-3.9,24v58.8c0,14.3,1.2,23.7,3.7,28.1,2.5,4.4,6.6,6.6,12.3,6.6s7.1-1.7,10.8-5.1c3.7-3.4,5.6-12.6,5.6-27.6v-60.8Z"/>
  </g>
</svg>