<svg width="70" height="70" viewBox="0 0 70 70" fill="none" xmlns="http://www.w3.org/2000/svg">
<g clip-path="url(#clip0_2791_9255)">
<path d="M62.2909 16.876L52.8324 7.7091H48.6338V0H46.033V7.7091H40.4115V0H37.8107V7.7091H32.1893V0H29.5885V7.7091H23.967V0H21.3662V7.7091H17.1559L7.7091 17.1559V21.3662H0V23.967H7.7091V29.5885H0V32.1893H7.7091V37.8107H0V40.4115H7.7091V46.033H0V48.6338H7.7091V52.8441L17.1559 62.2909H21.3662V70H23.967V62.2909H29.5885V70H32.1893V62.2909H37.8107V70H40.4115V62.2909H46.033V70H48.6338V62.2909H52.8441L62.2909 52.8441V48.6338H70V46.033H62.2909V40.4115H70V37.8107H62.2909V32.1893H70V29.5885H62.2909V23.967H70V21.3662H62.2909V16.876ZM59.6901 51.7477L51.7711 59.6784H18.2639L10.3332 51.7477V18.2406L18.2639 10.3099H51.7944L59.7018 17.9723V51.7477H59.6901Z" fill="#25223F"/>
</g>
<defs>
<clipPath id="clip0_2791_9255">
<rect width="70" height="70" fill="white"/>
</clipPath>
</defs>
</svg>
