<svg width="70" height="79" viewBox="0 0 70 79" fill="none" xmlns="http://www.w3.org/2000/svg">
<g clip-path="url(#clip0_2791_9257)">
<path d="M61.6654 40.6615C61.0288 40.6615 60.5298 40.1509 60.5298 39.4995V28.1433C60.5298 27.7296 60.7535 27.3334 61.1148 27.1222C61.4761 26.9109 61.9063 26.9109 62.2676 27.1486C62.8526 27.5183 63.4634 27.7032 64.1258 27.7032C66.1216 27.7032 67.7475 26.0394 67.7475 23.997C67.7475 21.9547 66.1216 20.3173 64.1258 20.3173C63.4203 20.3173 62.8096 20.4757 62.2676 20.8279C61.9321 21.0391 61.4761 21.0567 61.1148 20.8543C60.7535 20.643 60.5298 20.2557 60.5298 19.8331V9.65659H53.3982C53.5359 10.1408 53.5789 10.6514 53.5789 11.1619C53.5789 14.4984 50.9293 17.1833 47.6946 17.1833C44.46 17.1833 41.8276 14.4719 41.8276 11.1619C41.8276 10.6514 41.8964 10.1408 42.0083 9.65659H32.5453V18.1341C32.7002 18.0901 32.8636 18.0637 33.0013 18.0372C33.8615 17.9404 34.3863 17.9668 35.0401 18.1077C35.995 18.2925 36.8983 18.7327 37.6209 19.3841C37.7155 19.4282 37.8962 19.613 38.0252 19.7539C39.135 20.8631 39.7716 22.4212 39.7716 24.0146C39.7716 24.5956 39.677 25.1943 39.4963 25.7753C39.4017 26.1714 39.221 26.5588 39.0232 26.9109L38.9113 27.1222C38.6188 27.6592 38.3263 28.0025 38.051 28.2314C38.008 28.2578 37.9822 28.3018 37.9392 28.3282C37.7155 28.5571 37.5091 28.7419 37.2596 28.9092C37.0789 29.0677 36.8295 29.2085 36.5542 29.3494C36.3305 29.4902 36.081 29.6047 35.7885 29.6927C35.5649 29.7895 35.2208 29.8776 34.8853 29.904C34.3863 30.0184 33.3712 30.0448 32.5539 29.86V39.4907C32.5539 40.1421 32.0636 40.6527 31.427 40.6527C30.7904 40.6527 30.2914 40.1421 30.2914 39.4907V28.1609C30.2914 27.7472 30.5151 27.3775 30.8592 27.1662C31.2033 26.9549 31.6507 26.9549 31.9948 27.1662C32.8292 27.6768 33.7411 27.7912 34.5756 27.6327C34.825 27.6063 34.9111 27.5887 35.0315 27.5359C35.238 27.4655 35.3068 27.4391 35.3928 27.3775C35.4616 27.3334 35.5305 27.2806 35.5993 27.263C35.6939 27.219 35.8057 27.1486 35.9176 27.0517C36.124 26.9109 36.2101 26.8228 36.3219 26.7084L36.3907 26.638C36.4337 26.5676 36.5026 26.5235 36.5456 26.4795C36.6144 26.4355 36.7262 26.2947 36.8209 26.1538L36.9585 25.9249C37.165 25.5816 37.251 25.3703 37.294 25.159C37.4317 24.7453 37.4747 24.3932 37.4747 24.0498C37.4747 23.0551 37.0875 22.1043 36.4079 21.4353C36.3391 21.3649 36.2961 21.2944 36.2273 21.2768C35.6853 20.8103 35.1605 20.555 34.6014 20.4405C34.1454 20.3437 33.6981 20.3437 33.2852 20.3965C32.855 20.4669 32.3991 20.6254 31.969 20.9071C31.6335 21.1184 31.1775 21.1184 30.8334 20.9071C30.4721 20.6958 30.2656 20.3261 30.2656 19.9123V8.55619C30.2656 7.90475 30.7646 7.39417 31.4012 7.39417H43.7202C44.1245 7.39417 44.5117 7.62305 44.7181 7.99278C44.9246 8.36252 44.8988 8.80268 44.6751 9.17241C44.288 9.79744 44.0901 10.5193 44.0901 11.2324C44.0901 13.2747 45.716 14.9385 47.686 14.9385C49.6561 14.9385 51.3078 13.2747 51.3078 11.2324C51.3078 10.5105 51.1013 9.79744 50.7228 9.19002C50.4991 8.84669 50.4733 8.38013 50.6798 8.01039C50.8862 7.64066 51.2648 7.41177 51.6777 7.41177H61.6568C62.2934 7.41177 62.7924 7.92236 62.7924 8.5738V18.2133C63.2225 18.1165 63.6526 18.0725 64.1086 18.0725C67.369 18.0725 69.9928 20.7574 69.9928 24.0762C69.9928 27.3951 67.3432 30.0976 64.1086 30.0976C63.6526 30.0976 63.2225 30.0536 62.7924 29.9392V39.4907C62.8182 40.1157 62.3192 40.6527 61.6826 40.6527L61.6654 40.6615Z" fill="#25223F"/>
<path d="M31.3982 71.6574H1.15118C0.51458 71.6574 0.015625 71.1468 0.015625 70.4954V59.1656C0.015625 58.7519 0.239295 58.3822 0.583402 58.1709C0.944714 57.9596 1.37485 57.9596 1.71896 58.1709C2.55342 58.6815 3.4653 58.7959 4.29976 58.6375C4.52343 58.611 4.63526 58.5934 4.77291 58.523C4.97937 58.4526 5.04819 58.4262 5.13422 58.3646C5.20304 58.3205 5.27186 58.2677 5.34068 58.2501C5.43531 58.2061 5.54715 58.1533 5.65898 58.0652C5.86545 57.9244 5.95147 57.8364 6.06331 57.7219L6.13213 57.6515C6.17514 57.6075 6.22676 57.5371 6.28698 57.493C6.3558 57.4226 6.46763 57.3082 6.56226 57.1497L6.69991 56.9208C6.69991 56.9208 6.81174 56.736 6.81174 56.7095C6.90637 56.5511 6.9924 56.3662 7.03541 56.1285C7.17305 55.7324 7.24188 55.3891 7.24188 55.0105C7.24188 54.0158 6.85475 53.065 6.17514 52.396C6.10632 52.3256 6.06331 52.2551 5.99449 52.2111C5.45252 51.7445 4.92775 51.4892 4.36858 51.3748C3.89543 51.278 3.43949 51.278 3.03517 51.3308C2.63084 51.4012 2.1749 51.5597 1.74476 51.8414C1.40926 52.0527 0.953317 52.0527 0.60921 51.8414C0.247897 51.6301 0.041433 51.2604 0.041433 50.8466V39.5169C0.041433 38.8654 0.540388 38.3549 1.17699 38.3549C1.81359 38.3549 2.31254 38.8654 2.31254 39.5169V49.1564C2.46739 49.1124 2.63084 49.086 2.76848 49.0596C3.55993 48.9891 4.12771 48.9891 4.80732 49.13C5.76222 49.3149 6.63969 49.755 7.38812 50.4065C7.45694 50.4505 7.61179 50.5913 7.79245 50.7762C8.90219 51.8854 9.53879 53.4436 9.53879 55.0369C9.53879 55.618 9.44416 56.2166 9.2635 56.7976C9.16888 57.1937 8.98822 57.5811 8.79036 57.9332L8.67852 58.1445C8.38603 58.6551 8.09354 58.9984 7.81825 59.2537C7.77524 59.2977 7.74943 59.3241 7.70642 59.3505C7.49996 59.5618 7.27629 59.7643 7.02681 59.9315C6.82034 60.09 6.55366 60.2484 6.30418 60.3717C6.08051 60.5125 5.83104 60.627 5.53855 60.715C5.28907 60.8118 4.97077 60.8999 4.63526 60.9263C4.13631 61.0407 3.12119 61.0671 2.30394 60.8823V69.3422H30.2799V59.148C30.2799 58.7343 30.5035 58.3381 30.8648 58.1269C31.2261 57.9156 31.6563 57.942 32.0176 58.1533C32.6026 58.523 33.2134 58.7079 33.8758 58.7079C35.8716 58.7079 37.4975 57.0441 37.4975 55.0017C37.4975 52.9594 35.8716 51.322 33.8758 51.322C33.1704 51.322 32.5596 51.4804 32.0176 51.8326C31.6821 52.0439 31.2261 52.0615 30.8648 51.859C30.5035 51.6477 30.2799 51.2604 30.2799 50.8378V39.5257C30.2799 38.8742 30.7788 38.3637 31.4154 38.3637C32.052 38.3637 32.551 38.8742 32.551 39.5257V49.1652C32.9811 49.0684 33.4112 49.0243 33.8672 49.0243C37.1276 49.0243 39.7514 51.7093 39.7514 55.0281C39.7514 58.3469 37.1018 61.0495 33.8672 61.0495C33.4112 61.0495 32.9811 61.0055 32.551 60.8911V70.5042C32.551 71.1468 32.052 71.6838 31.4154 71.6838L31.3982 71.6574Z" fill="#25223F"/>
<path d="M16.2763 48.0215C13.0159 48.0215 10.392 45.3101 10.392 42.0001C10.392 41.5335 10.435 41.0934 10.5297 40.6532H1.13555C0.498955 40.6532 0 40.1514 0 39.5V8.5039C0 7.85246 0.498955 7.34188 1.13555 7.34188H10.5727C10.4781 6.90172 10.435 6.46156 10.435 6.0214C10.435 2.68498 13.0847 0 16.3193 0C19.5539 0 22.2035 2.71139 22.2035 6.0214C22.2035 6.46156 22.1605 6.90172 22.0659 7.31547H31.3912C32.0278 7.31547 32.5267 7.82605 32.5267 8.47749V18.117C32.6816 18.073 32.845 18.0466 32.9999 18.0202C33.8601 17.9233 34.3849 17.9497 35.0387 18.0906C35.9936 18.2755 36.8969 18.7156 37.6195 19.3671C37.7141 19.4111 37.8948 19.5959 38.0238 19.7368C39.1336 20.846 39.7702 22.4042 39.7702 23.9975C39.7702 24.5786 39.6756 25.1772 39.4949 25.7582C39.4003 26.1543 39.2196 26.5417 39.0218 26.8938L38.9099 27.1051C38.6174 27.6421 38.3249 27.9854 38.0496 28.2143C38.0066 28.2407 37.9808 28.2847 37.9378 28.3111C37.7141 28.54 37.5077 28.7249 37.2582 28.8921C37.0775 29.0506 36.8281 29.1914 36.5528 29.3323C36.3291 29.4731 36.0796 29.5876 35.7871 29.6756C35.5635 29.7725 35.2194 29.8605 34.8839 29.8869C34.3591 30.0013 33.344 30.0278 32.5267 29.8429V38.2499C32.5267 38.3644 32.5009 38.5052 32.4579 38.6197L32.0536 39.8257C31.8987 40.2923 31.4686 40.6092 30.9868 40.6092H21.997C22.0917 41.0494 22.1519 41.5159 22.1519 41.9561C22.1519 45.3101 19.5281 48.0215 16.2677 48.0215H16.2763ZM2.2625 38.338H12.1986C12.6029 38.338 12.99 38.5669 13.1965 38.9366C13.403 39.3063 13.3772 39.7465 13.1707 40.1162C12.8352 40.6532 12.6459 41.3223 12.6459 42.0177C12.6459 44.0601 14.2718 45.7239 16.2677 45.7239C18.2635 45.7239 19.8894 44.0601 19.8894 42.0177C19.8894 41.3487 19.7087 40.6972 19.3646 40.1162C19.1582 39.7729 19.141 39.3063 19.3388 38.9542C19.5453 38.6109 19.9066 38.3732 20.3367 38.3732H30.161L30.2556 38.1179V28.1351C30.2556 27.7213 30.4879 27.3252 30.8492 27.1139C31.2105 26.9026 31.6407 26.929 32.002 27.1403C32.7934 27.6509 33.7483 27.7917 34.5828 27.6069C34.8322 27.5805 34.9183 27.5628 35.0387 27.51C35.2452 27.4396 35.314 27.4132 35.4 27.3516C35.4688 27.3076 35.5377 27.2547 35.6065 27.2371C35.7011 27.1931 35.813 27.1227 35.9248 27.0259C36.1312 26.885 36.2173 26.797 36.3291 26.6825L36.3979 26.6121C36.4409 26.5417 36.5098 26.4977 36.5528 26.4536C36.6216 26.4096 36.7334 26.2688 36.8281 26.1279L36.9657 25.899C37.1722 25.5557 37.2582 25.3444 37.3012 25.1332C37.4389 24.7194 37.4819 24.3673 37.4819 24.024C37.4819 23.0292 37.0948 22.0784 36.4151 21.4094C36.3463 21.339 36.3033 21.2686 36.2345 21.2509C35.6925 20.7844 35.1678 20.5291 34.6086 20.4146C34.1526 20.3178 33.7053 20.3178 33.2924 20.3706C32.8364 20.4411 32.3891 20.6259 31.9762 20.8812C31.6407 21.1101 31.1847 21.1101 30.8234 20.9076C30.4879 20.6699 30.2642 20.2738 30.2642 19.8512V9.65712H20.4142C20.0098 9.65712 19.6227 9.42824 19.4162 9.07611C19.2098 8.73278 19.2098 8.26621 19.4421 7.91409C19.7776 7.33307 19.941 6.70805 19.941 6.039C19.941 3.99666 18.3151 2.33285 16.3193 2.33285C14.3235 2.33285 12.6976 3.99666 12.6976 6.039C12.6976 6.70805 12.8524 7.33307 13.1965 7.91409C13.403 8.25741 13.4202 8.72398 13.2223 9.07611C13.0245 9.42824 12.6373 9.65712 12.2244 9.65712H2.2625V38.338Z" fill="#25223F"/>
<path d="M46.5497 78.9999C43.2893 78.9999 40.6655 76.2885 40.6655 72.9785C40.6655 72.5119 40.7085 72.0718 40.8032 71.6316H31.409C30.7724 71.6316 30.2735 71.1298 30.2735 70.4784C30.2735 69.8269 30.7724 69.3164 31.409 69.3164H42.4807C42.885 69.3164 43.2721 69.5452 43.4786 69.915C43.6851 70.2847 43.6592 70.7249 43.4528 71.0946C43.1173 71.6316 42.928 72.3006 42.928 72.9961C42.928 75.0384 44.5539 76.7022 46.5497 76.7022C48.5456 76.7022 50.1715 75.0384 50.1715 72.9961C50.1715 72.3271 49.9908 71.6756 49.6467 71.077C49.4402 70.7337 49.423 70.2671 49.6209 69.915C49.8274 69.5716 50.1887 69.334 50.6188 69.334H60.4431L60.5377 69.0787V59.1398C60.5377 58.7261 60.7614 58.3299 61.1055 58.1187C61.4668 57.9074 61.8969 57.9338 62.2582 58.1451C63.0755 58.6557 64.0046 58.7701 64.839 58.6117C65.0627 58.5852 65.1745 58.5676 65.295 58.5148C65.5014 58.4444 65.5703 58.418 65.6563 58.3564C65.7251 58.3123 65.7939 58.2595 65.8628 58.2419C65.9574 58.1979 66.0692 58.1275 66.1811 58.0306C66.3875 57.8898 66.4736 57.8018 66.5854 57.6873L66.6542 57.6169C66.6972 57.5465 66.766 57.5024 66.8091 57.4584C66.8779 57.388 66.9897 57.2736 67.0843 57.1327L67.222 56.9038C67.222 56.9038 67.3338 56.719 67.3338 56.6926C67.4284 56.5341 67.5145 56.3228 67.5575 56.1115C67.6951 55.6978 67.7381 55.3457 67.7381 55.0023C67.7381 54.0076 67.351 53.0568 66.6714 52.3878C66.6026 52.3174 66.5596 52.2469 66.4908 52.2029C65.9488 51.7363 65.424 51.4811 64.8649 51.3666C64.3917 51.2698 63.9358 51.2698 63.5314 51.3226C63.1013 51.393 62.6454 51.5515 62.241 51.8332C61.9055 52.0621 61.4496 52.0621 61.0883 51.8596C60.727 51.6483 60.5033 51.261 60.5033 50.8384V40.6267H50.6532C50.2489 40.6267 49.8618 40.3978 49.6553 40.0457C49.4489 39.7024 49.4489 39.2358 49.6811 38.8837C50.0166 38.3026 50.1801 37.704 50.1801 37.0086C50.1801 34.9662 48.5542 33.3024 46.5584 33.3024C44.5625 33.3024 42.9366 34.9662 42.9366 37.0086C42.9366 37.6776 43.0915 38.3026 43.4356 38.8837C43.642 39.227 43.6593 39.6936 43.4614 40.0457C43.2549 40.389 42.8936 40.6267 42.4635 40.6267H31.366C30.7294 40.6267 30.2305 40.1161 30.2305 39.4647C30.2305 38.8132 30.7294 38.3026 31.366 38.3026H40.8032C40.7085 37.8889 40.6655 37.4487 40.6655 37.0086C40.6655 33.6722 43.3151 30.9872 46.5497 30.9872C49.7844 30.9872 52.434 33.6986 52.434 37.0086C52.434 37.4487 52.391 37.8889 52.2963 38.3026H61.6216C62.2582 38.3026 62.7572 38.8132 62.7572 39.4647V49.1042C62.912 49.0602 63.0755 49.0338 63.2303 49.0074C64.0218 48.9369 64.5896 48.9369 65.2692 49.0778C66.2241 49.2626 67.1016 49.7028 67.85 50.3542C67.9188 50.3983 68.0736 50.5391 68.2543 50.724C69.364 51.8332 70.0007 53.3913 70.0007 54.9847C70.0007 55.5657 69.906 56.1644 69.7254 56.7454C69.6307 57.1415 69.4501 57.5289 69.2522 57.881L69.1404 58.0923C68.8479 58.6028 68.5554 58.9462 68.2801 59.2015C68.2371 59.2455 68.2113 59.2719 68.1683 59.2983C67.9618 59.5096 67.7381 59.7121 67.4887 59.8793C67.308 60.0378 67.0585 60.205 66.7832 60.3195C66.5338 60.4603 66.2843 60.5748 66.0176 60.6628C65.7939 60.7596 65.4498 60.8477 65.1315 60.8741C64.6068 60.9885 63.5917 61.0149 62.7744 60.8301V69.2371C62.7744 69.3516 62.7486 69.4924 62.7056 69.6069L62.3013 70.8129C62.1464 71.2795 61.7163 71.5964 61.2345 71.5964H52.2447C52.3394 72.0365 52.3996 72.5031 52.3996 72.9433C52.4512 76.2885 49.8016 78.9999 46.5411 78.9999H46.5497Z" fill="#25223F"/>
</g>
<defs>
<clipPath id="clip0_2791_9257">
<rect width="70" height="79" fill="white"/>
</clipPath>
</defs>
</svg>
