<svg width="84" height="60" viewBox="0 0 84 60" fill="none" xmlns="http://www.w3.org/2000/svg">
<g clip-path="url(#clip0_2791_9234)">
<path d="M6.82161 11.54C5.234 11.54 3.93318 12.8279 3.93318 14.4225V53.4276H2.88843C1.30082 53.4276 0 54.7155 0 56.31V57.1175C0 58.7019 1.29057 60 2.88843 60H81.1116C82.6992 60 84 58.7121 84 57.1175V56.31C83.9898 54.7155 82.6992 53.4276 81.1116 53.4276H80.0668V2.88245C80.0668 1.29813 78.7762 0 77.1784 0H25.2174C23.6298 0 22.329 1.2879 22.329 2.88245V11.5503H6.82161V11.54ZM25.2174 1.92164H77.1784C77.711 1.92164 78.1412 2.35094 78.1412 2.88245V53.4276H73.8086V24.5417C73.8086 23.4787 72.9482 22.6201 71.8829 22.6201H55.003C53.9378 22.6201 53.0774 23.4787 53.0774 24.5417V53.4276H24.2546V2.88245C24.2546 2.35094 24.6848 1.92164 25.2174 1.92164ZM55.003 53.4276V24.5417H71.8829V53.4276H55.003ZM5.84855 14.4225C5.84855 13.891 6.27875 13.4617 6.81136 13.4617H22.329V53.4174H5.84855V14.4225ZM82.0641 57.1073C82.0641 57.6388 81.6339 58.0681 81.1013 58.0681H2.88843C2.35581 58.0681 1.92562 57.6388 1.92562 57.1073V56.2998C1.92562 55.7683 2.35581 55.339 2.88843 55.339H81.1116C81.6442 55.339 82.0744 55.7683 82.0744 56.2998V57.1073H82.0641ZM17.3101 16.4668H12.6702C11.6049 16.4668 10.7445 17.3254 10.7445 18.3884V23.0187C10.7445 24.0818 11.6049 24.9404 12.6702 24.9404H17.3101C18.3753 24.9404 19.2357 24.0818 19.2357 23.0187V18.3884C19.2357 17.3254 18.3753 16.4668 17.3101 16.4668ZM17.3101 23.0085H12.6702V18.3782H17.3101V23.0085ZM55.003 15.4651H59.643C60.7082 15.4651 61.5686 14.6065 61.5686 13.5434V8.91312C61.5686 7.85009 60.7082 6.99148 59.643 6.99148H55.003C53.9378 6.99148 53.0774 7.85008 53.0774 8.9029V13.5332C53.0774 14.586 53.9481 15.4549 55.003 15.4549V15.4651ZM59.643 8.91312V13.5434H55.003V8.91312H59.643ZM67.2533 15.4651H71.8932C72.9584 15.4651 73.8188 14.6065 73.8188 13.5434V8.91312C73.8188 7.85009 72.9584 6.99148 71.8932 6.99148H67.2533C66.188 6.99148 65.3276 7.85009 65.3276 8.91312V13.5434C65.3276 14.5963 66.188 15.4651 67.2533 15.4651ZM71.8829 8.91312V13.5434H67.243V8.91312H71.8829ZM30.5129 15.4651H35.1528C36.218 15.4651 37.0784 14.6065 37.0784 13.5434V8.91312C37.0784 7.85009 36.218 6.99148 35.1528 6.99148H30.5129C29.4476 6.99148 28.5872 7.85009 28.5872 8.91312V13.5434C28.5872 14.5963 29.4476 15.4651 30.5129 15.4651ZM35.1425 8.91312V13.5434H30.5026V8.91312H35.1425ZM42.7528 15.4651H47.3928C48.458 15.4651 49.3184 14.6065 49.3184 13.5434V8.91312C49.3184 7.85009 48.458 6.99148 47.3928 6.99148H42.7528C41.6876 6.99148 40.8272 7.85009 40.8272 8.91312V13.5434C40.8272 14.5963 41.6978 15.4651 42.7528 15.4651ZM47.3928 8.91312V13.5434H42.7528V8.91312H47.3928ZM30.5129 31.0835H35.1528C36.218 31.0835 37.0784 30.2249 37.0784 29.1618V24.5315C37.0784 23.4685 36.218 22.6099 35.1528 22.6099H30.5129C29.4476 22.6099 28.5872 23.4685 28.5872 24.5315V29.1618C28.5872 30.2249 29.4476 31.0835 30.5129 31.0835ZM35.1425 24.5417V29.1721H30.5026V24.5417H35.1425ZM42.7528 31.0835H47.3928C48.458 31.0835 49.3184 30.2249 49.3184 29.1618V24.5315C49.3184 23.4685 48.458 22.6099 47.3928 22.6099H42.7528C41.6876 22.6099 40.8272 23.4685 40.8272 24.5315V29.1618C40.8272 30.2249 41.6978 31.0835 42.7528 31.0835ZM47.3928 24.5417V29.1721H42.7528V24.5417H47.3928Z" fill="#25223F"/>
</g>
<defs>
<clipPath id="clip0_2791_9234">
<rect width="84" height="60" fill="white"/>
</clipPath>
</defs>
</svg>
