<svg width="70" height="58" viewBox="0 0 70 58" fill="none" xmlns="http://www.w3.org/2000/svg">
<g clip-path="url(#clip0_2791_9251)">
<path d="M35.0052 0C15.8045 0 0 15.8486 0 35.4502C0 43.4582 2.58074 50.9643 7.42221 57.3414C7.74222 57.8327 8.2274 57.9895 8.71258 57.9895C9.03259 57.9895 9.3526 57.8223 9.68294 57.6655C10.323 57.1741 10.4881 56.0346 10.0029 55.376C5.48149 49.6575 3.23109 42.7996 3.23109 35.4502C3.22076 17.8035 17.4252 3.27217 35.0052 3.27217C52.5852 3.27217 66.7792 17.6467 66.7792 35.4502C66.7792 42.7996 64.3637 49.6575 60.0074 55.376C59.5222 56.0242 59.5222 57.1741 60.3274 57.6655C60.9674 58.1568 62.1029 58.1568 62.5881 57.3414C67.4296 51.1316 70.0103 43.4582 70.0103 35.4502C70 15.8486 54.1955 0 35.0052 0Z" fill="#25223F"/>
<path d="M51.7821 16.0045L39.5184 28.4136C38.228 27.5982 36.6176 27.1069 34.9969 27.1069C30.4755 27.1069 26.7695 30.8599 26.7695 35.4389C26.7695 40.0178 30.4755 43.6036 34.9969 43.6036C39.5184 43.6036 43.2243 39.8505 43.2243 35.2716C43.2243 33.6407 42.7392 32.0099 41.7688 30.6926L54.0325 18.2835C54.6725 17.6353 54.6725 16.6526 54.0325 15.994C53.3925 15.3354 52.4221 15.3459 51.7717 15.994L51.7821 16.0045ZM35.0073 40.3419C32.2613 40.3419 30.0109 38.0524 30.0109 35.282C30.0109 32.5117 32.2717 30.2222 35.0073 30.2222C37.7428 30.2222 40.0036 32.5117 40.0036 35.282C40.0036 38.0524 37.7428 40.3419 35.0073 40.3419Z" fill="#25223F"/>
<path d="M50.9754 54.5616H19.0362C18.0658 54.5616 17.4258 55.2097 17.4258 56.1924C17.4258 57.1751 18.0658 57.8233 19.0362 57.8233H50.9754C51.9458 57.8233 52.5858 57.1751 52.5858 56.1924C52.5858 55.2097 51.9458 54.5616 50.9754 54.5616Z" fill="#25223F"/>
</g>
<defs>
<clipPath id="clip0_2791_9251">
<rect width="70" height="58" fill="white"/>
</clipPath>
</defs>
</svg>
