<svg width="81" height="76" viewBox="0 0 81 76" fill="none" xmlns="http://www.w3.org/2000/svg">
<path d="M76.742 33.0876C76.5802 33.0876 76.4184 33.0067 76.2566 32.9258C75.8521 32.6022 75.6903 32.0359 76.0139 31.6314C82.9712 21.1955 76.1757 13.5911 76.0948 13.5102C75.7712 13.1057 75.7712 12.5394 76.1757 12.2158C76.5802 11.8923 77.1465 11.8923 77.4701 12.2967C77.551 12.3776 85.3172 21.1146 77.551 32.6831C77.3083 32.9258 77.0656 33.0876 76.742 33.0876Z" fill="black"/>
<path d="M71.9705 29.3664C71.8087 29.3664 71.6469 29.2855 71.4852 29.2046C71.0807 28.881 70.9189 28.3147 71.2425 27.9102C75.2874 21.762 71.4042 17.3935 71.3234 17.3126C70.9998 16.9081 70.9998 16.3418 71.4042 16.0182C71.8087 15.6946 72.375 15.6946 72.6986 16.0991C72.7795 16.18 77.6334 21.6811 72.7795 28.9619C72.5368 29.2046 72.2132 29.3664 71.9705 29.3664Z" fill="black"/>
<path d="M67.035 26.3728C66.8732 26.3728 66.7114 26.2919 66.5496 26.211C66.1451 25.8874 65.9833 25.3212 66.3069 24.9167C68.1676 22.1661 66.3878 20.2246 66.3878 20.2246C66.0642 19.8201 66.0642 19.2538 66.4687 18.9302C66.8732 18.6066 67.4395 18.6066 67.7631 19.0111C68.7338 20.0628 69.9473 22.8942 67.844 26.0492C67.6013 26.2919 67.3586 26.3728 67.035 26.3728Z" fill="black"/>
<path d="M4.25765 33.0874C3.93405 33.0874 3.69136 32.9256 3.44866 32.6829C-4.31755 21.0336 3.44866 12.3775 3.52956 12.2966C3.85316 11.8921 4.50034 11.8921 4.82393 12.2157C5.22842 12.5393 5.22842 13.1865 4.90483 13.5101C4.58124 13.8337 -1.97151 21.2763 4.98573 31.6313C5.30932 32.0358 5.14753 32.602 4.74303 32.9256C4.66214 33.0874 4.41944 33.0874 4.25765 33.0874Z" fill="black"/>
<path d="M9.02969 29.3664C8.70609 29.3664 8.4634 29.2046 8.22071 28.9619C3.36682 21.6811 8.22071 16.0991 8.3016 16.0991C8.6252 15.6946 9.27238 15.6946 9.59597 16.0182C10.0005 16.3418 10.0005 16.989 9.67687 17.3126C9.51507 17.4744 5.71286 21.8429 9.75777 27.9102C10.0814 28.3147 9.91957 28.881 9.51507 29.2046C9.43418 29.2855 9.19148 29.3664 9.02969 29.3664Z" fill="black"/>
<path d="M13.965 26.3732C13.6414 26.3732 13.3987 26.2114 13.156 25.9687C11.0526 22.8136 12.2661 19.9822 13.2369 18.9305C13.5605 18.526 14.2077 18.526 14.5313 18.8496C14.9358 19.1732 14.9358 19.8204 14.6122 20.144C14.5313 20.2249 12.9133 22.1665 14.6931 24.8361C15.0167 25.2406 14.8549 25.8069 14.4504 26.1305C14.3695 26.3732 14.1268 26.3732 13.965 26.3732Z" fill="black"/>
<path d="M41.3087 34.0582C37.7492 34.0582 34.4324 32.6829 31.8436 30.1751C26.7471 24.9167 26.7471 16.4224 31.9245 11.2449C34.4324 8.73708 37.8301 7.36182 41.3896 7.36182C44.9491 7.36182 48.2659 8.73708 50.8547 11.2449C53.3625 13.7528 54.7378 17.1505 54.7378 20.71C54.7378 24.2695 53.3625 27.5863 50.8547 30.1751C48.2659 32.602 44.8682 34.0582 41.3087 34.0582ZM41.3087 9.22247C38.2346 9.22247 35.3223 10.4359 33.2189 12.6202C28.7695 17.0696 28.7695 24.3504 33.2189 28.8807C35.4031 31.065 38.2346 32.2784 41.3087 32.2784C44.3828 32.2784 47.2952 31.065 49.3985 28.8807C51.5828 26.6965 52.7962 23.865 52.7962 20.7909C52.7962 17.7168 51.5828 14.8044 49.3985 12.7011C47.2952 10.4359 44.3828 9.22247 41.3087 9.22247Z" fill="black"/>
<path d="M41.3084 24.9977C40.1758 24.9977 39.1241 24.5932 38.3152 23.7033C36.6163 22.0045 36.6163 19.3348 38.3152 17.636C40.014 15.9371 42.6837 15.9371 44.3825 17.636C46.0814 19.3348 46.0814 22.0045 44.3825 23.7033C43.5735 24.5123 42.441 24.9977 41.3084 24.9977ZM41.3084 18.2831C40.6612 18.2831 40.0949 18.5258 39.6095 19.0112C38.6388 19.982 38.6388 21.5191 39.6095 22.4089C40.5803 23.3797 42.1174 23.3797 43.0073 22.4089C43.978 21.4382 43.978 19.9011 43.0073 19.0112C42.6028 18.5258 41.9556 18.2831 41.3084 18.2831Z" fill="black"/>
<path d="M41.3082 29.2853C39.124 29.2853 36.9397 28.4763 35.2409 26.7774C34.8364 26.3729 34.8364 25.8066 35.2409 25.4831C35.5645 25.1595 36.2116 25.1595 36.5352 25.4831C39.124 28.0718 43.4116 28.0718 46.0003 25.4831C46.3239 25.1595 46.9711 25.1595 47.2947 25.4831C47.6992 25.8875 47.6992 26.4538 47.2947 26.7774C45.7576 28.3954 43.5734 29.2853 41.3082 29.2853Z" fill="black"/>
<path d="M56.2744 41.3389H26.423C23.996 41.3389 21.9736 39.6401 21.65 37.2131L17.2006 9.14149C16.7961 6.87634 17.5242 4.53029 18.9804 2.75054C20.5174 0.970777 22.7017 0 25.0477 0H57.7306C60.0766 0 62.2609 1.05168 63.7979 2.75054C65.335 4.53029 65.9822 6.87634 65.5777 9.14149L61.1283 37.2131C60.7238 39.6401 58.7013 41.3389 56.2744 41.3389ZM24.9668 1.86066C23.1871 1.86066 21.4882 2.66964 20.3556 3.96401C19.2231 5.33928 18.6568 7.11903 18.9804 8.89879L23.4298 36.9704C23.6725 38.4266 24.8859 39.4783 26.423 39.4783H56.2744C57.7306 39.4783 59.0249 38.4266 59.2676 36.9704L63.717 8.89879C63.9597 7.19993 63.4743 5.33928 62.3418 4.04491C61.2092 2.75054 59.5103 1.94155 57.7306 1.94155H24.9668V1.86066Z" fill="black"/>
<path d="M36.8607 40.4491H35V50.5614H36.8607V40.4491Z" fill="black"/>
<path d="M47.7005 40.4491H45.8398V50.5614H47.7005V40.4491Z" fill="black"/>
<path d="M61.6957 64.7993H59.835V59.2982C59.835 54.9297 56.2755 51.4511 51.9879 51.4511H30.7117C26.3432 51.4511 22.8646 55.0106 22.8646 59.2982V64.7993H21.0039V59.2982C21.0039 53.959 25.3724 49.5905 30.7117 49.5905H51.9879C57.3272 49.5905 61.6957 53.959 61.6957 59.2982V64.7993Z" fill="black"/>
<path d="M72.5363 75.8827H8.46498C5.14815 75.8827 2.47852 73.2131 2.47852 69.8963C2.47852 66.5794 5.14815 63.9098 8.46498 63.9098H72.4554C75.7722 63.9098 78.4418 66.5794 78.4418 69.8963C78.5228 73.2131 75.7722 75.8827 72.5363 75.8827ZM8.46498 65.7704C6.19983 65.7704 4.33917 67.6311 4.33917 69.8963C4.33917 72.1614 6.19983 74.0221 8.46498 74.0221H72.4554C74.7205 74.0221 76.5812 72.1614 76.5812 69.8963C76.5812 67.6311 74.7205 65.7704 72.4554 65.7704H8.46498Z" fill="black"/>
</svg>
