<svg width="80" height="70" viewBox="0 0 80 70" fill="none" xmlns="http://www.w3.org/2000/svg">
<path fill-rule="evenodd" clip-rule="evenodd" d="M72.4413 37.684V42.8072C72.4413 44.1605 71.5178 45.3371 70.1693 45.5872L67.6162 46.0905C66.3313 46.3438 66.2844 47.3705 65.8193 48.4037C65.662 48.7804 65.5114 49.1204 65.3675 49.4204C65.0831 50.017 65.1266 50.6437 65.4947 51.1937L66.9704 53.3869C67.7166 54.5036 67.5258 55.9669 66.5755 56.9102L59.301 64.1567C58.3373 65.1167 56.8282 65.2967 55.7139 64.5134L53.5623 63.0767C52.4782 62.3534 51.7019 63.0468 50.6445 63.4467C50.2831 63.5967 49.9352 63.7301 49.6005 63.8467C48.9748 64.0667 48.5666 64.5367 48.4394 65.19L47.9274 67.78C47.663 69.0934 46.4885 70 45.1434 70H34.8571C33.4986 70 32.3174 69.0767 32.0665 67.7367L31.5645 65.1901C31.3102 63.9101 30.2796 63.8635 29.2423 63.4001C28.8642 63.2434 28.5229 63.0934 28.2218 62.9501C27.6228 62.6668 26.9937 62.7101 26.4416 63.0768L24.2399 64.5468C23.1189 65.2901 21.65 65.1001 20.6996 64.1535L13.4251 56.9069C12.4614 55.9469 12.2807 54.447 13.0671 53.3337L14.5093 51.1904C14.8773 50.6404 14.9242 50.0138 14.6364 49.4171L13.7329 47.2438C13.5087 46.6205 13.0403 46.2138 12.3845 46.0871L9.78445 45.5771C8.46604 45.3138 7.55588 44.1438 7.55588 42.8039V37.6806C7.55588 37.0573 8.0645 36.5507 8.69021 36.5507H10.3801V31.3075H6.52529C5.69879 33.5841 2.75755 34.2607 1.02085 32.5308C-1.07718 30.4408 0.415195 26.8509 3.38322 26.8509C4.81206 26.8509 6.05681 27.7509 6.52529 29.0475H11.5144C12.1401 29.0475 12.6487 29.5542 12.6487 30.1775V36.5473H16.4131V21.8106H6.48494C5.65845 24.0905 2.7172 24.7638 0.980501 23.0339C-1.11752 20.9439 0.374848 17.354 3.34288 17.354C4.77171 17.354 6.01646 18.254 6.48494 19.554H17.5473C18.173 19.554 18.6816 20.0606 18.6816 20.6839V36.5573H20.8499C21.4756 36.5573 21.9842 37.064 21.9842 37.6873C21.9842 42.1472 23.6171 46.2273 26.3208 49.3675V30.1943C26.3208 28.5177 27.512 27.091 29.1282 26.751V18.9878C29.1282 17.1278 30.9987 15.7845 33.2908 15.0078V8.72126L31.4438 7.65795C29.6335 8.95789 27.0838 7.66795 27.0838 5.4313C27.0838 2.99798 30.0518 1.76801 31.7852 3.49137C32.354 4.05803 32.6618 4.86137 32.5782 5.70471L34.9239 7.05465C35.302 7.23798 35.563 7.62464 35.563 8.07129V14.4212C36.5869 14.2245 37.7012 14.0945 38.8757 14.0445V5.2451C37.1323 4.45844 36.6973 2.16847 38.0626 0.805207C39.7925 -0.918067 42.7639 0.308551 42.7639 2.74514C42.7639 3.84182 42.1148 4.80846 41.1444 5.2451V14.0445C42.3156 14.0945 43.4299 14.2245 44.4571 14.4212V8.07129C44.4571 7.62463 44.7181 7.23798 45.0962 7.05465L47.4419 5.70471C47.1876 3.14143 50.3096 1.68149 52.1266 3.49137C53.8565 5.21465 52.6252 8.17463 50.1791 8.17463C49.5802 8.17463 49.0247 7.98463 48.5697 7.65797L46.7226 8.72129V15.0078C49.0147 15.7845 50.8853 17.1312 50.8853 18.9878V26.751C52.4981 27.0877 53.6926 28.5143 53.6926 30.1943V49.3607C56.3963 46.2207 58.0293 42.1409 58.0293 37.6805C58.0293 37.0572 58.5379 36.5505 59.1636 36.5505H61.3285L61.3218 20.6805C61.3218 20.0572 61.8304 19.5506 62.4562 19.5506H73.5151C74.3416 17.2706 77.2828 16.5973 79.0195 18.3273C81.1175 20.4172 79.6252 24.0071 76.6571 24.0071C75.2283 24.0071 73.9835 23.1071 73.5151 21.8072L63.5869 21.8105V36.5532H67.3513V30.1834C67.3513 29.5601 67.8599 29.0535 68.4856 29.0535H73.4747C74.3012 26.7735 77.2425 26.1002 78.9792 27.8301C81.0772 29.9201 79.5848 33.51 76.6168 33.51C75.1879 33.51 73.9432 32.61 73.4747 31.31H69.6199V36.5532H71.3098C71.9322 36.5532 72.4408 37.0599 72.4408 37.6832L72.4413 37.684ZM30.8449 36.054V47.3408C30.8449 47.9641 31.3535 48.4708 31.9793 48.4708C32.605 48.4708 33.1136 47.9641 33.1136 47.3408V36.054C33.1136 35.4307 32.605 34.924 31.9793 34.924C31.3535 34.9274 30.8449 35.4307 30.8449 36.054ZM3.38268 29.1141C2.42901 29.1141 1.95051 30.2675 2.6231 30.9407C3.29569 31.6107 4.45678 31.1341 4.45678 30.1841C4.45678 29.5941 3.97495 29.1141 3.38268 29.1141ZM3.34253 19.6107C2.38886 19.6107 1.91035 20.7641 2.58295 21.4374C3.25553 22.1073 4.41662 21.6307 4.41662 20.6807C4.41662 20.0907 3.93479 19.6107 3.34253 19.6107ZM77.3764 29.4273C76.7038 28.7573 75.5427 29.234 75.5427 30.184C75.5427 31.1339 76.7005 31.6106 77.3764 30.9406C77.7947 30.5239 77.7947 29.8439 77.3764 29.4273ZM77.4166 19.9239C76.744 19.2506 75.5829 19.7306 75.5829 20.6806C75.5829 21.6305 76.7407 22.1072 77.4166 21.4372C77.8348 21.0206 77.8348 20.3405 77.4166 19.9239ZM41.1346 18.9906C41.1346 19.6139 40.626 20.1205 40.0003 20.1205C39.3745 20.1205 38.8659 19.6139 38.8659 18.9906V16.3073C37.6714 16.364 36.5538 16.5106 35.5532 16.7273V18.9905C35.5532 19.6139 35.0446 20.1205 34.4189 20.1205C33.7932 20.1205 33.2846 19.6138 33.2846 18.9905V17.4239C32.1067 17.9206 31.3873 18.4773 31.3873 18.9905C31.3873 19.5405 32.2038 20.1338 33.5222 20.6538C37.0591 22.0471 42.9278 22.0471 46.4648 20.6538C47.7832 20.1338 48.5997 19.5372 48.5997 18.9905C48.5997 18.4772 47.8836 17.9206 46.7024 17.4239V18.9905C46.7024 19.6139 46.1938 20.1205 45.5681 20.1205C44.9424 20.1205 44.4338 19.6138 44.4338 18.9905V16.7273C43.4332 16.5106 42.3156 16.364 41.1211 16.3073L41.1311 18.9906H41.1346ZM28.5869 51.5702C35.219 56.9868 44.7821 56.9868 51.414 51.5702V30.1937C51.414 29.5971 50.9857 29.0838 50.4101 28.9638C47.4855 33.547 32.5111 33.5504 29.5866 28.9638C29.0111 29.0838 28.5828 29.5971 28.5828 30.1937L28.5869 51.5702ZM48.5803 27.621L48.6104 27.441V22.1344C44.4144 24.5677 35.5907 24.5677 31.3941 22.1344L31.3975 27.5143C31.518 28.1076 32.3043 28.6243 33.529 29.1076C37.0659 30.5009 42.9347 30.5009 46.4716 29.1076C47.6461 28.641 48.423 28.1176 48.5803 27.621ZM53.3285 52.9142C53.3084 52.9342 53.285 52.9508 53.2649 52.9708C49.7047 56.0375 45.0635 57.8907 39.9977 57.8907C29.2566 57.8907 20.3358 49.5275 19.743 38.8148H9.8251V42.8081C9.8251 43.0714 9.96899 43.3147 10.23 43.3647L12.8199 43.8747C14.2554 44.1581 15.3797 45.1213 15.8682 46.4947L16.6814 48.448C17.3104 49.7647 17.2 51.2313 16.3835 52.4446L14.9146 54.6279C14.7707 54.8512 14.8377 55.1245 15.025 55.3112L22.2996 62.5577C22.4903 62.7477 22.7681 62.8144 22.9856 62.6677L25.1773 61.2045C26.3953 60.3912 27.8676 60.2812 29.1893 60.9078L31.1502 61.7178C32.5289 62.2045 33.4992 63.3244 33.7803 64.7544L34.2923 67.3343C34.3458 67.5943 34.5867 67.7377 34.8544 67.7377H45.1406C45.405 67.7377 45.6493 67.5943 45.7028 67.3343L46.2148 64.7544C46.4992 63.3244 47.4662 62.2078 48.8448 61.7178L50.8057 60.9078C52.1275 60.2812 53.5997 60.3912 54.8178 61.2045L57.0095 62.6677C57.2337 62.8111 57.5081 62.7444 57.6955 62.5577L64.97 55.3112C65.1607 55.1212 65.2243 54.8445 65.0804 54.6279L63.6115 52.4446C62.7951 51.2313 62.6847 49.7647 63.3137 48.448L64.1268 46.4947C64.6153 45.1213 65.7397 44.1547 67.1752 43.8747L69.7651 43.3647C70.0261 43.3114 70.1699 43.0714 70.1699 42.8081V38.8148H60.252C59.9442 44.4447 57.3238 49.448 53.3285 52.9142Z" fill="black"/>
</svg>
