<svg width="90" height="86" viewBox="0 0 90 86" fill="none" xmlns="http://www.w3.org/2000/svg">
<path fill-rule="evenodd" clip-rule="evenodd" d="M46.738 40.1319H43.262V41.9029C43.2621 42.1269 43.1891 42.3449 43.0541 42.5237C42.9191 42.7026 42.7295 42.8325 42.514 42.8939C42.1867 42.9867 41.8652 43.0985 41.551 43.2289C41.2593 43.35 40.974 43.4859 40.696 43.6359C40.4976 43.7677 40.2596 43.8268 40.0226 43.8029C39.7855 43.779 39.5641 43.6737 39.396 43.5049L38.145 42.2559L35.687 44.7139L36.94 45.9669C37.0977 46.125 37.1996 46.3301 37.2305 46.5513C37.2613 46.7724 37.2194 46.9976 37.111 47.1929C36.7871 47.7774 36.5295 48.3962 36.343 49.0379C36.2892 49.2627 36.1613 49.463 35.9799 49.6065C35.7986 49.7499 35.5742 49.8283 35.343 49.8289H33.567V53.3049H35.338C35.5619 53.305 35.7796 53.3781 35.9583 53.5131C36.1369 53.648 36.2667 53.8375 36.328 54.0529C36.4219 54.3802 36.5341 54.7021 36.664 55.0169C36.7852 55.3085 36.921 55.5939 37.071 55.8719C37.2029 56.0703 37.2619 56.3082 37.238 56.5453C37.2141 56.7823 37.1088 57.0037 36.94 57.1719L35.687 58.4249L38.145 60.8829L39.4 59.6249C39.558 59.4669 39.7631 59.3647 39.9843 59.3339C40.2056 59.303 40.4309 59.3451 40.626 59.4538C41.2105 59.7777 41.8293 60.0353 42.471 60.2219C42.6959 60.2757 42.8962 60.4035 43.0396 60.5849C43.1831 60.7663 43.2614 60.9906 43.262 61.2219V62.9929H46.738V61.2269C46.7379 61.0028 46.8109 60.7848 46.9459 60.606C47.0809 60.4271 47.2705 60.2972 47.486 60.2359C47.8133 60.143 48.1348 60.0312 48.449 59.9008C48.7407 59.7797 49.026 59.6438 49.304 59.4939C49.5024 59.362 49.7404 59.3029 49.9774 59.3268C50.2145 59.3507 50.4359 59.456 50.604 59.6249L51.857 60.8779L54.315 58.4199L53.06 57.1669C52.9023 57.0087 52.8004 56.8036 52.7695 56.5824C52.7387 56.3613 52.7806 56.1361 52.889 55.9409C53.2129 55.3563 53.4705 54.7375 53.657 54.0959C53.7108 53.871 53.8387 53.6707 54.0201 53.5272C54.2014 53.3838 54.4258 53.3055 54.657 53.3049H56.428V49.8269H54.662C54.4379 49.8269 54.22 49.7539 54.0411 49.619C53.8623 49.484 53.7323 49.2944 53.671 49.0789C53.5777 48.7517 53.4659 48.4302 53.336 48.1159C53.2148 47.8242 53.079 47.5388 52.929 47.2609C52.7971 47.0624 52.7381 46.8245 52.762 46.5874C52.7859 46.3504 52.8912 46.129 53.06 45.9609L54.313 44.7079L51.855 42.2559L50.6 43.5049C50.4419 43.6625 50.2367 43.7645 50.0156 43.7953C49.7944 43.8262 49.5692 43.7842 49.374 43.6758C48.7895 43.352 48.1707 43.0944 47.529 42.9079C47.3041 42.854 47.1038 42.7262 46.9604 42.5448C46.8169 42.3634 46.7386 42.1391 46.738 41.9079V40.1319ZM42.9 38.0709H47.1C47.3231 38.0709 47.544 38.1151 47.75 38.2009C47.9559 38.2867 48.1429 38.4125 48.3 38.5709C48.3294 38.5996 48.3568 38.6303 48.382 38.6629C48.6503 38.9701 48.7984 39.364 48.799 39.7719V41.1559C48.9457 41.2099 49.0923 41.2672 49.239 41.3279C49.3857 41.3885 49.53 41.4522 49.672 41.5189L50.654 40.5379C50.9726 40.2203 51.4042 40.042 51.854 40.042C52.3038 40.042 52.7354 40.2203 53.054 40.5379L56.023 43.5069C56.3405 43.8255 56.5188 44.257 56.5188 44.7069C56.5188 45.1567 56.3405 45.5882 56.023 45.9069L55.042 46.8889C55.109 47.0319 55.173 47.1769 55.233 47.3219C55.293 47.4669 55.351 47.6139 55.405 47.7619H56.791C57.2414 47.763 57.673 47.9428 57.991 48.2619C58.0186 48.2897 58.0446 48.3191 58.069 48.3499C58.3399 48.6574 58.4896 49.053 58.49 49.4629V53.6629C58.4899 53.886 58.4457 54.1069 58.3599 54.3128C58.2741 54.5188 58.1484 54.7057 57.99 54.8629C57.9613 54.8923 57.9305 54.9197 57.898 54.9449C57.5908 55.2131 57.1969 55.3612 56.789 55.3619H55.408C55.354 55.5089 55.296 55.6559 55.236 55.8019C55.176 55.9479 55.112 56.0909 55.045 56.2349L56.026 57.2159C56.3435 57.5345 56.5218 57.966 56.5218 58.4159C56.5218 58.8657 56.3435 59.2972 56.026 59.6159L53.057 62.5849C53.027 62.6139 52.996 62.6409 52.965 62.6669C52.6416 62.948 52.2236 63.096 51.7953 63.0807C51.3671 63.0655 50.9606 62.8883 50.658 62.5849L49.676 61.6039C49.532 61.6705 49.3877 61.7342 49.243 61.7949C49.097 61.8549 48.951 61.9128 48.803 61.9669V63.3559C48.803 63.5791 48.759 63.8002 48.6736 64.0064C48.5882 64.2127 48.4629 64.4001 48.3051 64.5579C48.1472 64.7158 47.9598 64.841 47.7536 64.9264C47.5473 65.0119 47.3262 65.0559 47.103 65.0559H42.9C42.6769 65.0558 42.456 65.0116 42.25 64.9258C42.0441 64.84 41.8571 64.7142 41.7 64.5559C41.3809 64.2379 41.2011 63.8063 41.2 63.3559V61.9729C41.052 61.9189 40.906 61.8609 40.76 61.8008C40.614 61.7408 40.471 61.6768 40.327 61.6098L39.345 62.5909C39.0264 62.9084 38.5948 63.0867 38.145 63.0867C37.6952 63.0867 37.2636 62.9084 36.945 62.5909L33.976 59.6218C33.6585 59.3032 33.4802 58.8717 33.4802 58.4219C33.4802 57.972 33.6585 57.5405 33.976 57.2219L34.957 56.2409C34.8903 56.0969 34.8267 55.9529 34.766 55.8089C34.706 55.6619 34.648 55.5159 34.594 55.3679H33.206C32.7551 55.3679 32.3227 55.1887 32.0039 54.8699C31.6851 54.5511 31.506 54.1187 31.506 53.6679V49.4679C31.5061 49.2447 31.5503 49.0238 31.6361 48.8179C31.7219 48.6119 31.8476 48.425 32.006 48.2679C32.324 47.9488 32.7556 47.769 33.206 47.7679H34.592C34.646 47.6199 34.704 47.4739 34.764 47.3279C34.824 47.1819 34.888 47.0379 34.955 46.8949L33.974 45.9129C33.9464 45.8853 33.9204 45.8563 33.896 45.8259C33.6137 45.5015 33.4648 45.0823 33.4793 44.6525C33.4937 44.2228 33.6705 43.8145 33.974 43.5099L36.943 40.5409C37.2616 40.2233 37.6932 40.045 38.143 40.045C38.5928 40.045 39.0244 40.2233 39.343 40.5409L40.325 41.5219C40.469 41.4552 40.6133 41.3915 40.758 41.3309C40.904 41.2709 41.05 41.2129 41.198 41.1589V39.7709C41.1991 39.3204 41.3789 38.8888 41.698 38.5709C41.7259 38.5433 41.7553 38.5172 41.786 38.4929C42.0935 38.2219 42.4892 38.0722 42.899 38.0719L42.9 38.0709ZM47.486 49.0789C48.0619 49.6541 48.4205 50.4113 48.5007 51.2213C48.5809 52.0314 48.3777 52.8442 47.9257 53.5212C47.4737 54.1982 46.801 54.6975 46.0221 54.934C45.2433 55.1706 44.4065 55.1297 43.6543 54.8184C42.9022 54.5071 42.2813 53.9446 41.8975 53.2268C41.5136 52.5089 41.3906 51.6802 41.5493 50.8819C41.7081 50.0835 42.1387 49.3649 42.7679 48.8484C43.3972 48.332 44.186 48.0498 45 48.0499C45.4617 48.0494 45.9189 48.14 46.3455 48.3166C46.7721 48.4932 47.1597 48.7522 47.486 49.0789ZM45 45.9889C46.2898 45.989 47.5396 46.4364 48.5365 47.2547C49.5334 48.0731 50.2157 49.2117 50.4672 50.4767C50.7187 51.7417 50.5238 53.0548 49.9158 54.1922C49.3077 55.3297 48.324 56.2211 47.1324 56.7146C45.9408 57.2081 44.615 57.2732 43.3807 56.8987C42.1465 56.5243 41.0803 55.7335 40.3638 54.6611C39.6472 53.5887 39.3247 52.301 39.4511 51.0175C39.5775 49.7339 40.145 48.5339 41.057 47.6219C41.5743 47.1033 42.1889 46.6921 42.8655 46.4119C43.5422 46.1316 44.2676 45.9879 45 45.9889ZM75.312 82.6959V70.4879L64.747 64.3879V76.5979L70.488 79.9118L70.545 79.9428L75.312 82.6959ZM87.939 64.3889L77.373 70.4889V82.6959L82.141 79.9439L87.941 76.5969V64.3889H87.939ZM89.473 61.7149C89.5414 61.7531 89.6051 61.799 89.663 61.8519L89.673 61.8609L89.679 61.8659L89.688 61.8749L89.7 61.8868L89.713 61.9008C89.7768 61.9701 89.8306 62.0478 89.873 62.1319L89.882 62.1488V62.1589V62.1669C89.9438 62.3011 89.9758 62.4471 89.976 62.5948V77.1749C89.9761 77.3721 89.9196 77.5652 89.8132 77.7312C89.7069 77.8973 89.5552 78.0294 89.376 78.1119L83.17 81.7208L76.92 85.3318C76.7497 85.4472 76.5487 85.5089 76.343 85.5089C76.1373 85.5089 75.9363 85.4472 75.766 85.3318L69.514 81.7229C69.4961 81.7128 69.4787 81.7018 69.462 81.6898L63.205 78.0779C63.0485 77.9881 62.9185 77.8586 62.8281 77.7025C62.7376 77.5464 62.69 77.3692 62.69 77.1889V62.6088C62.6897 62.4115 62.7461 62.2182 62.8525 62.0519C62.9588 61.8856 63.1107 61.7534 63.29 61.6709L69.517 58.0709L75.831 54.4258C75.9893 54.3341 76.1693 54.2863 76.3523 54.2873C76.5353 54.2884 76.7147 54.3383 76.872 54.4319L83.172 58.0709L83.225 58.1039L89.474 61.7119L89.473 61.7149ZM76.343 68.7149L65.769 62.6088L70.544 59.8559L76.344 56.5089L82.144 59.8559L82.201 59.8868L86.92 62.6119L76.343 68.7149ZM12.626 82.6989V70.4879L2.061 64.3879V76.5979L12.626 82.6989ZM25.253 64.3889L14.688 70.4889V82.6959L19.455 79.9439L25.255 76.5969V64.3889H25.253ZM26.787 61.7149C26.8554 61.7531 26.9191 61.799 26.977 61.8519L26.987 61.8609V61.8659L27 61.8759L27.012 61.8879L27.025 61.9019C27.0888 61.9711 27.1426 62.0488 27.185 62.1329L27.194 62.1498L27.199 62.1599V62.1679C27.2612 62.3019 27.2933 62.448 27.293 62.5958V77.1758C27.2931 77.3731 27.2366 77.5662 27.1303 77.7322C27.0239 77.8983 26.8722 78.0304 26.693 78.1129L20.465 81.7079L14.214 85.3168C14.0439 85.4326 13.8428 85.4943 13.637 85.4939C13.4221 85.4943 13.2124 85.4279 13.037 85.3038L0.519001 78.0779C0.361777 77.9886 0.230954 77.8594 0.139805 77.7032C0.0486564 77.5471 0.000424065 77.3696 9.64547e-07 77.1889V62.6088C-0.000268974 62.4115 0.0561252 62.2182 0.162484 62.0519C0.268842 61.8856 0.420695 61.7534 0.600001 61.6709L13.144 54.4289C13.2998 54.3389 13.4766 54.2915 13.6565 54.2915C13.8364 54.2915 14.0132 54.3389 14.169 54.4289L20.482 58.0739L20.535 58.1068L26.784 61.7149H26.787ZM13.657 68.7149L3.083 62.6088L13.655 56.5089L19.455 59.8568L19.512 59.8879L24.231 62.6129L13.657 68.7149ZM43.969 28.4149V16.2008L33.4 10.1008V22.3109L39.141 25.6258L39.198 25.6559L43.965 28.4088L43.969 28.4149ZM56.6 10.1008L46.035 16.2008V28.4088L50.8 25.6559L56.6 22.3088V10.1008ZM58.134 7.42685C58.2026 7.46507 58.2664 7.5114 58.324 7.56485L58.333 7.57385L58.339 7.57885L58.348 7.58885L58.363 7.60385L58.378 7.61885C58.4416 7.68823 58.4954 7.76595 58.538 7.84985L58.547 7.86785V7.87785V7.88485C58.6087 8.01912 58.6407 8.16509 58.641 8.31285V22.8928C58.6411 23.0902 58.5847 23.2835 58.4784 23.4497C58.372 23.616 58.2202 23.7482 58.041 23.8309L51.813 27.4258L45.562 31.0348C45.3914 31.1496 45.1905 31.2108 44.985 31.2108C44.7795 31.2108 44.5786 31.1496 44.408 31.0348L38.171 27.4359L38.119 27.4028L31.862 23.7908C31.7056 23.7008 31.5756 23.5711 31.4852 23.4149C31.3948 23.2586 31.3472 23.0814 31.347 22.9009V8.32085C31.3468 8.12361 31.4032 7.93047 31.5096 7.76436C31.616 7.59826 31.7678 7.46619 31.947 7.38385L38.174 3.78385L44.488 0.13885C44.6463 0.0468968 44.8263 -0.00103797 45.0093 1.70465e-05C45.1924 0.00107207 45.3718 0.0510785 45.529 0.14485L51.829 3.78385L51.882 3.81585L58.131 7.42385L58.134 7.42685ZM45 14.4258L34.426 8.32085L39.2 5.56385L45 2.21785L50.8 5.56585L50.857 5.59685L55.576 8.32085L45 14.4258ZM23.11 55.5809C23.0437 55.7003 22.9543 55.8053 22.847 55.8898C22.7397 55.9742 22.6166 56.0365 22.485 56.0729C22.3534 56.1092 22.2158 56.119 22.0804 56.1017C21.9449 56.0843 21.8143 56.0401 21.6961 55.9717C21.5779 55.9032 21.4745 55.8119 21.392 55.7031C21.3095 55.5943 21.2495 55.4701 21.2155 55.3378C21.1815 55.2056 21.1742 55.0678 21.194 54.9327C21.2139 54.7976 21.2604 54.6678 21.331 54.5508L35.547 29.9279C35.6884 29.7023 35.9118 29.5404 36.1702 29.4763C36.4286 29.4121 36.7018 29.4507 36.9323 29.5839C37.1628 29.7171 37.3326 29.9345 37.406 30.1904C37.4795 30.4463 37.4508 30.7207 37.326 30.9559L23.11 55.5809ZM59.216 68.8679C59.4838 68.8762 59.7377 68.9884 59.9242 69.1808C60.1106 69.3731 60.2149 69.6305 60.2149 69.8984C60.2149 70.1662 60.1106 70.4236 59.9242 70.6159C59.7377 70.8083 59.4838 70.9205 59.216 70.9288H30.784C30.5163 70.9205 30.2623 70.8083 30.0758 70.6159C29.8894 70.4236 29.7851 70.1662 29.7851 69.8984C29.7851 69.6305 29.8894 69.3731 30.0758 69.1808C30.2623 68.9884 30.5163 68.8762 30.784 68.8679H59.216ZM52.752 31.0949C52.6251 30.8594 52.5949 30.5839 52.6677 30.3265C52.7406 30.0692 52.9107 29.8503 53.1421 29.7163C53.3735 29.5823 53.648 29.5436 53.9075 29.6085C54.1669 29.6733 54.3909 29.8367 54.532 30.0638L68.669 54.5559C68.7396 54.6728 68.7861 54.8026 68.806 54.9377C68.8258 55.0728 68.8185 55.2106 68.7845 55.3428C68.7505 55.4751 68.6905 55.5993 68.608 55.7081C68.5255 55.8169 68.4221 55.9082 68.3039 55.9767C68.1858 56.0451 68.0551 56.0893 67.9196 56.1067C67.7842 56.124 67.6466 56.1142 67.515 56.0779C67.3834 56.0415 67.2603 55.9792 67.153 55.8948C67.0457 55.8103 66.9563 55.7053 66.89 55.5859L52.752 31.0949Z" fill="black"/>
</svg>
