<svg width="73" height="73" viewBox="0 0 73 73" fill="none" xmlns="http://www.w3.org/2000/svg">
<path d="M47.8105 56.2077C46.4766 56.1985 45.37 55.175 45.2594 53.8472H33.2725C31.5021 53.8379 30.0698 52.4087 30.0605 50.6383V47.9519C30.0667 46.1815 31.499 44.7461 33.2725 44.7369H45.2594C45.3301 43.8609 45.8434 43.0833 46.621 42.6745C47.3986 42.2657 48.33 42.2872 49.0891 42.7267L56.6195 47.079V47.0759C57.4125 47.5339 57.9012 48.3791 57.9012 49.292C57.9012 50.2049 57.4125 51.0501 56.6195 51.5081L49.0891 55.8603V55.8572C48.7019 56.0847 48.2592 56.2046 47.8105 56.2077ZM46.4027 51.5019L46.4058 51.4989C47.039 51.5019 47.5553 52.0183 47.5584 52.6546V53.6443C47.5553 53.7334 47.6045 53.8164 47.6844 53.8625C47.7613 53.9086 47.8596 53.9086 47.9395 53.8625L55.4699 49.5103V49.5134C55.5468 49.4673 55.596 49.3843 55.596 49.2921C55.596 49.1999 55.5468 49.1169 55.4699 49.0708L47.9395 44.7185V44.7216C47.8596 44.6755 47.7613 44.6755 47.6844 44.7216C47.6045 44.7677 47.5553 44.8507 47.5584 44.9398V45.9295C47.5584 46.2769 47.4016 46.6057 47.1342 46.8239C46.8668 47.0452 46.5134 47.1313 46.1752 47.0606C46.1138 47.0483 46.0554 47.0422 45.9939 47.0422H33.2721C32.768 47.0422 32.3623 47.451 32.3623 47.9551V50.6384C32.3623 51.1425 32.768 51.5482 33.2721 51.5482H45.9907C46.0491 51.5512 46.1106 51.5451 46.169 51.5297C46.2458 51.5143 46.3258 51.5021 46.4026 51.499L46.4027 51.5019Z" fill="black"/>
<path d="M25.1884 68.5088C24.7396 68.5088 24.2971 68.3889 23.9098 68.1645L16.3794 63.8123C15.5864 63.3543 15.0977 62.5091 15.0977 61.5962C15.0977 60.6833 15.5864 59.8381 16.3794 59.3801L23.9098 55.0279C24.6689 54.5884 25.6002 54.5699 26.3779 54.9787C27.1555 55.3875 27.6688 56.1651 27.7395 57.0411H39.7264C41.4999 57.0473 42.9383 58.4827 42.9414 60.2592V62.9332C42.9383 64.7067 41.4999 66.1452 39.7264 66.1513H27.7395C27.675 66.9904 27.1986 67.7434 26.467 68.1584C26.0798 68.3859 25.6371 68.5088 25.1884 68.5088ZM25.1884 56.983C25.1423 56.9861 25.0993 56.9984 25.0593 57.023L17.5289 61.3752C17.4521 61.4213 17.406 61.5043 17.406 61.5934C17.406 61.6856 17.4521 61.7686 17.5289 61.8147L25.0593 66.1669C25.1392 66.21 25.2345 66.21 25.3144 66.1639C25.3913 66.1208 25.4404 66.0348 25.4404 65.9456V64.9559C25.4404 64.6086 25.5972 64.2828 25.8646 64.0615C26.132 63.8433 26.4855 63.7572 26.8236 63.8249C26.8851 63.8372 26.9435 63.8464 27.005 63.8433H39.7268C40.2278 63.8402 40.6335 63.4345 40.6335 62.9335V60.2595C40.6335 59.7554 40.2247 59.3466 39.7206 59.3466H27.0019C26.9435 59.3466 26.882 59.3528 26.8236 59.365C26.4855 59.4357 26.1321 59.3466 25.8646 59.1284C25.5941 58.9101 25.4404 58.5813 25.4404 58.234V57.2473C25.4466 57.1551 25.3974 57.0691 25.3144 57.026H25.3114C25.2745 57.0045 25.2314 56.9891 25.1884 56.9861L25.1884 56.983Z" fill="black"/>
<path d="M65.9898 72.9993H7.01296C3.14322 72.9962 0.00510053 69.858 0.00195312 65.9883V7.01143C0.00502735 3.1417 3.14322 0.00357465 7.01296 0.000427246H65.9898C69.8596 0.00350147 72.9977 3.1417 73.0008 7.01143V65.9883C72.9978 69.858 69.8596 72.9962 65.9898 72.9993ZM7.01296 2.30543C4.41572 2.3085 2.31026 4.41396 2.30719 7.0112V65.9881C2.31027 68.5853 4.41572 70.6908 7.01296 70.6938H65.9898C68.5871 70.6908 70.6925 68.5853 70.6956 65.9881V7.0112C70.6925 4.41396 68.5871 2.3085 65.9898 2.30543H7.01296Z" fill="black"/>
<path d="M39.2785 40.188H33.7213C31.1363 40.1849 29.0402 38.0887 29.0371 35.5038V1.15301C29.0371 0.516767 29.5535 0.000427246 30.1897 0.000427246H42.81C43.1143 0.000427246 43.4094 0.123373 43.6245 0.338529C43.8397 0.553686 43.9627 0.848755 43.9627 1.15308V35.5102C43.9565 38.0951 41.8633 40.1849 39.2785 40.188ZM31.3423 2.30504V35.5094C31.3484 36.8188 32.4119 37.8791 33.7212 37.8822H39.2784C40.5908 37.8791 41.6543 36.8156 41.6573 35.5032V2.30519L31.3423 2.30504Z" fill="black"/>
<path d="M36.5002 25.1026C35.864 25.1026 35.3477 24.5893 35.3477 23.9531V1.15246C35.3477 0.516218 35.864 -0.00012207 36.5002 -0.00012207C37.1364 -0.00012207 37.6528 0.516249 37.6528 1.15246V23.9531C37.6528 24.2573 37.5299 24.5493 37.3147 24.7676C37.0996 24.9828 36.8046 25.1026 36.5002 25.1026Z" fill="black"/>
<path d="M12.4297 37.2378H1.15258C0.51634 37.2378 0 36.7214 0 36.0852C0 35.4459 0.516371 34.9326 1.15258 34.9326H11.277V20.7937C11.277 20.3787 11.4952 20.0007 11.8548 19.7948L19.4683 15.3995L19.4652 1.15356C19.4652 0.517316 19.9816 0.000976562 20.6178 0.000976562C21.2571 0.000976562 21.7703 0.517348 21.7703 1.15356V16.0605C21.7703 16.4723 21.5521 16.8534 21.1956 17.0594L13.5822 21.4546V36.0822C13.5822 36.3896 13.4623 36.6816 13.2441 36.8968C13.0289 37.115 12.7371 37.2378 12.4297 37.2378Z" fill="black"/>
<path d="M71.8465 37.2374H60.5662C59.93 37.2374 59.4167 36.721 59.4167 36.0848V21.4572L51.8064 17.062H51.8033C51.4467 16.853 51.2285 16.4749 51.2285 16.0631V1.15301C51.2285 0.516767 51.7418 0.000427246 52.3811 0.000427246C53.0173 0.000427246 53.5337 0.516799 53.5337 1.15301V15.3966L61.144 19.7919C61.5006 19.9978 61.7188 20.3789 61.7219 20.7908V34.9297H71.8463C72.4825 34.9297 72.9989 35.4461 72.9989 36.0823C72.9989 36.7185 72.4825 37.2349 71.8463 37.2349L71.8465 37.2374Z" fill="black"/>
</svg>
