<?xml version="1.0" standalone="no"?>
<!DOCTYPE svg PUBLIC "-//W3C//DTD SVG 1.1//EN" "http://www.w3.org/Graphics/SVG/1.1/DTD/svg11.dtd" >
<svg xmlns="http://www.w3.org/2000/svg" xmlns:xlink="http://www.w3.org/1999/xlink" version="1.1">
<metadata>
Created by FontForge 20201107 at Wed May 18 20:30:18 2022
 By 
Copyright 2022 The Spline Sans Mono Project Authors (https://github.com/SorkinType/SplineSansMono)
</metadata>
<defs>
<font id="SplineSansMono-Bold" horiz-adv-x="1200" >
  <font-face 
    font-family="Spline Sans Mono"
    font-weight="700"
    font-stretch="normal"
    units-per-em="2000"
    panose-1="2 6 6 9 3 5 2 8 1 4"
    ascent="1600"
    descent="-400"
    x-height="1091"
    cap-height="1454"
    bbox="-66 -598 2350 2024"
    underline-thickness="50"
    underline-position="-125"
    unicode-range="U+000D-FB02"
  />
<missing-glyph 
d="M59 -241v1769h1083v-1769h-1083zM169 -129h863v1557h-863v-1557z" />
    <glyph glyph-name=".notdef" 
d="M59 -241v1769h1083v-1769h-1083zM169 -129h863v1557h-863v-1557z" />
    <glyph glyph-name=".null" horiz-adv-x="0" 
 />
    <glyph glyph-name="nonmarkingreturn" horiz-adv-x="666" 
 />
    <glyph glyph-name="CR" unicode="&#xd;" 
 />
    <glyph glyph-name="space" unicode=" " 
 />
    <glyph glyph-name="exclam" unicode="!" 
d="M496 599l-38 635l-28 466h340l-28 -466l-38 -635h-208zM600 -15q-79 0 -135.5 59t-56.5 159q0 98 56.5 156.5t135.5 58.5q80 0 136 -58.5t56 -156.5q0 -100 -56 -159t-136 -59z" />
    <glyph glyph-name="quotedbl" unicode="&#x22;" 
d="M237 708l-34 848h281l-34 -848h-213zM749 708l-34 848h281l-34 -848h-213z" />
    <glyph glyph-name="numbersign" unicode="#" 
d="M540 20l316 1404h217l-316 -1404h-217zM55 353v165h986v-165h-986zM127 20l316 1404h217l-316 -1404h-217zM139 896v165h1006v-165h-1006z" />
    <glyph glyph-name="dollar" unicode="$" 
d="M484 -178v217h251v-217h-251zM484 1414v223h251v-223h-251zM618 13q-142 0 -256 51t-182.5 156.5t-76.5 267.5h276q8 -72 39 -120.5t84 -73t124 -24.5q57 0 97.5 16t62 46.5t21.5 74.5q0 46 -26 77.5t-85 61.5t-157 69q-115 47 -202.5 103t-136.5 136.5t-49 200.5
q0 132 60 218.5t163.5 129t233.5 42.5q215 0 321.5 -109t119.5 -321h-273q-1 55 -19 93.5t-54.5 58.5t-95.5 20q-75 0 -122.5 -32.5t-47.5 -97.5q0 -42 21.5 -74.5t72 -62.5t137.5 -66l161 -69t137.5 -77t96 -111t35.5 -171q1 -205 -127.5 -309t-352.5 -104z" />
    <glyph glyph-name="percent" unicode="%" 
d="M256 0l527 1454h155l-525 -1454h-157zM280 859q45 0 68.5 55t23.5 158q0 101 -24.5 155t-70.5 54q-43 0 -66.5 -54t-23.5 -155q0 -103 24 -158t69 -55zM277 668q-131 0 -201 105t-70 304q0 194 70.5 296t203.5 102t203 -102t70 -296q0 -199 -71 -304t-205 -105zM921 172
q45 0 69 55t24 158q0 102 -24.5 156t-71.5 54q-43 0 -66.5 -54t-23.5 -156q0 -103 24 -158t69 -55zM918 -19q-133 0 -203 105t-70 304q0 194 71 296t205 102q133 0 203 -102t70 -296q0 -199 -71 -304t-205 -105z" />
    <glyph glyph-name="ampersand" unicode="&#x26;" 
d="M550 -19q-113 0 -205 33t-157.5 90.5t-100.5 133t-35 160.5q0 132 52 209t128 110.5t146 34.5l179 51q65 35 94.5 89t37 109.5t7.5 92.5q0 39 -12 70.5t-39 50.5t-73 19q-42 0 -72 -20t-45.5 -52t-15.5 -68q0 -77 44.5 -147t95.5 -136l11 -19l301 -400l72 -93l229 -299
h-297l-85 119l-75 106l-363 494l-10 17q-40 51 -80.5 104t-67.5 121t-27 163q0 104 48.5 184t137.5 125.5t211 45.5q96 0 179 -45.5t133.5 -124.5t50.5 -180q0 -97 -44 -168t-128 -116t-206 -64l-178 -52q-36 -18 -55.5 -54t-27.5 -85t-8 -108q0 -64 34.5 -121.5t96.5 -93
t144 -35.5q49 0 84.5 10.5t63 27.5t50.5 37l90 99q18 32 27.5 79.5t13 103t3.5 110.5l250 1q0 -97 -21.5 -193t-58 -172t-81.5 -115l-92 -77q-51 -84 -146 -123t-208 -39z" />
    <glyph glyph-name="quotesingle" unicode="'" 
d="M493 708l-34 848h281l-34 -848h-213z" />
    <glyph glyph-name="parenleft" unicode="(" 
d="M706 -250q-107 66 -188 172t-135.5 236.5t-82 272t-27.5 277.5q0 134 27.5 274.5t82 271.5t135.5 238.5t188 173.5h306q-107 -72 -192 -180.5t-144 -239t-90 -269t-31 -269.5q0 -185 54.5 -365t157 -333.5t245.5 -259.5h-306z" />
    <glyph glyph-name="parenright" unicode=")" 
d="M270 -250q143 106 245.5 259.5t157 333.5t54.5 365q0 131 -31 269.5t-90 269t-144 239t-192 180.5h306q107 -66 188 -173.5t136 -238.5t82.5 -271.5t27.5 -274.5q0 -136 -27.5 -277.5t-82.5 -272t-136 -236.5t-188 -172h-306z" />
    <glyph glyph-name="asterisk" unicode="*" 
d="M407 388l-244 178l337 316l-461 53l94 287l405 -222l-86 454h302l-92 -454l405 222l94 -287l-461 -53l337 -316l-244 -178l-193 422z" />
    <glyph glyph-name="plus" unicode="+" 
d="M463 196l-1 326q0 43 22.5 75t64.5 35l-87 70v176v445h279v-1127h-278zM59 632v259h1083v-259h-1083z" />
    <glyph glyph-name="comma" unicode="," 
d="M456 -598v235h44q32 0 50 30t25.5 84t7.5 125q0 60 20.5 92t69.5 32h-218v418h356v-518q0 -152 -28.5 -264t-93 -173t-171.5 -61h-62z" />
    <glyph glyph-name="hyphen" unicode="-" 
d="M180 572v286h840v-286h-840z" />
    <glyph glyph-name="period" unicode="." 
d="M601 -15q-80 0 -136.5 59t-56.5 159q0 98 56.5 156.5t136.5 58.5q79 0 135 -58.5t56 -156.5q0 -100 -56 -159t-135 -59z" />
    <glyph glyph-name="slash" unicode="/" 
d="M153 -195l643 1886h251l-643 -1886h-251z" />
    <glyph glyph-name="zero" unicode="0" 
d="M600 -30q-173 0 -290.5 75.5t-177 241.5t-59.5 440q0 269 60 435.5t177.5 243.5t289.5 77q173 0 290 -77t177 -243.5t60 -435.5q0 -274 -59.5 -440t-177 -241.5t-290.5 -75.5zM600 258q58 0 101 16.5t71.5 65t42.5 141.5t14 246q0 150 -14 243t-42.5 141.5t-71.5 66
t-101 17.5t-101 -17.5t-71.5 -66t-42.5 -141.5t-14 -243q0 -153 14 -246t42.5 -141.5t71.5 -65t101 -16.5zM600 577q-55 0 -79.5 32.5t-24.5 117.5t24.5 117t79.5 32q56 0 80 -32t24 -117t-24 -117.5t-80 -32.5z" />
    <glyph glyph-name="one" unicode="1" 
d="M479 77l2 843q0 98 10.5 159t22.5 106l19 269h277v-1377h-331zM144 0v269h969v-269h-969zM73 993v315q58 -23 131 -23t143 21t121 58.5t65 89.5l-19 -269q-26 -73 -72.5 -120.5t-107 -70.5t-127.5 -23t-134 22z" />
    <glyph glyph-name="two" unicode="2" 
d="M28 0l108 135t88 109.5t74.5 92.5t66.5 83t65.5 80.5t70.5 85.5q97 117 157 192.5t88.5 137.5t28.5 135q0 77 -43.5 118.5t-141.5 41.5q-60 0 -108.5 -24.5t-77.5 -72.5t-29 -119q0 -18 2 -37.5t6 -39.5h-292q-5 29 -8 56.5t-3 52.5q0 115 37 201t105.5 142.5t163.5 85
t212 28.5q228 0 360.5 -102.5t132.5 -296.5q0 -125 -37.5 -218.5t-95.5 -170t-118 -151.5q-51 -63 -89 -108t-69.5 -81t-62 -72t-65.5 -81q44 44 91 55t126 11h338v-269h-1081z" />
    <glyph glyph-name="three" unicode="3" 
d="M609 -22q-114 0 -213.5 30.5t-173.5 92t-112 153t-29 214.5h294q-4 -115 62 -167.5t178 -52.5q92 0 162.5 44.5t70.5 138.5q0 101 -68 149t-166 48h-158l2 246h146q71 0 114 25.5t62.5 65.5t19.5 82q0 90 -55 131t-130 41q-82 0 -135 -43.5t-48 -144.5h-301q1 146 53 247
t160 153.5t273 52.5q163 0 268.5 -47.5t156.5 -136.5t51 -213q0 -76 -33.5 -146.5t-96 -120.5t-150.5 -66q149 -10 243 -94.5t94 -251.5q0 -127 -64.5 -224t-185.5 -151.5t-291 -54.5z" />
    <glyph glyph-name="four" unicode="4" 
d="M30 214l410 1240h361l-345 -915l-31 -55h755l-1 -270h-1149zM706 0l1 410l89 74q-45 0 -63.5 27t-22 66t-3.5 75l-1 258l290 5v-915h-290z" />
    <glyph glyph-name="five" unicode="5" 
d="M586 -21q-160 0 -280 59t-183 166t-53 250h300q5 -61 32 -102.5t75 -62t114 -20.5q77 0 127.5 27.5t75.5 80t25 127.5q0 118 -59 165.5t-152 47.5q-99 0 -151.5 -37.5t-88.5 -74.5l-271 82l94 767h860v-287h-611l-92 -429q38 103 122.5 163.5t245.5 60.5q77 0 152.5 -23
t137.5 -75t99 -138t37 -212q0 -163 -69 -283.5t-194 -186t-293 -65.5z" />
    <glyph glyph-name="six" unicode="6" 
d="M619 -22q-154 0 -276.5 71.5t-194 209t-71.5 333.5q0 158 48.5 298.5t121.5 255t148 194t128 114.5h420q-50 -37 -120.5 -96.5t-146 -135t-141 -162t-107.5 -178t-45 -180.5l-9 7q12 30 35.5 77.5t64 94.5t104 79t155.5 32q122 0 216.5 -52t148.5 -159t54 -271
q0 -114 -41.5 -211t-115 -169t-170 -112t-206.5 -40zM617 258q75 0 124.5 36t74.5 93t25 121q0 85 -26 141t-74 83.5t-114 27.5q-57 0 -101 -10.5t-77 -29t-58 -42.5q-9 -20 -10.5 -65.5t-1.5 -64.5q0 -75 25.5 -141.5t78.5 -107.5t134 -41z" />
    <glyph glyph-name="seven" unicode="7" 
d="M267 0l436 1040q41 105 124.5 134t171.5 12l9 -8h-926v276h958h112l-542 -1454h-343z" />
    <glyph glyph-name="eight" unicode="8" 
d="M601 -22q-151 0 -272.5 48t-192.5 140.5t-71 225.5q0 173 94.5 262.5t243.5 102.5q-87 14 -151 62.5t-98.5 118t-34.5 145.5q0 184 121 292.5t361 108.5t360 -109.5t120 -291.5q0 -78 -35 -147.5t-98.5 -118t-148.5 -62.5q152 -12 244 -104t92 -259q0 -133 -71 -225.5
t-192 -140.5t-271 -48zM601 248q97 0 168.5 45.5t71.5 138.5q0 100 -68 146t-172 46q-105 0 -173.5 -45t-68.5 -147q0 -93 71.5 -138.5t170.5 -45.5zM601 877q66 0 108 25t62 64.5t20 81.5q0 86 -54 128.5t-136 42.5q-86 0 -139 -42.5t-53 -128.5q0 -43 19.5 -82t62 -64
t110.5 -25z" />
    <glyph glyph-name="nine" unicode="9" 
d="M263 0q51 37 121.5 97t145 136.5t139 163t105.5 177.5t43 179l12 1q-13 -32 -34.5 -80.5t-60.5 -96.5t-101.5 -80t-157.5 -32q-119 0 -216 54.5t-154 163.5t-57 272q0 116 42 211.5t116 165t170.5 107t205.5 37.5q153 0 275.5 -71t194 -207.5t71.5 -335.5
q0 -157 -47.5 -298t-119 -255.5t-145 -194t-126.5 -114.5h-422zM573 697q56 0 100 10t77.5 29t58.5 46q8 20 9 63.5t1 63.5q0 79 -26 144t-78 104t-131 39q-76 0 -125.5 -33t-74.5 -87.5t-25 -118.5q0 -125 58 -192.5t156 -67.5z" />
    <glyph glyph-name="colon" unicode=":" 
d="M601 -15q-80 0 -136.5 59t-56.5 159q0 98 56.5 156.5t136.5 58.5q79 0 135 -58.5t56 -156.5q0 -100 -56 -159t-135 -59zM601 722q-80 0 -136.5 59t-56.5 159q0 98 56.5 156.5t136.5 58.5q79 0 135 -58.5t56 -156.5q0 -100 -56 -159t-135 -59z" />
    <glyph glyph-name="semicolon" unicode=";" 
d="M611 722q-80 0 -136.5 59t-56.5 159q0 98 56.5 156.5t136.5 58.5q79 0 135 -58.5t56 -156.5q0 -100 -56 -159t-135 -59zM456 -598v235h44q32 0 50 30t25.5 84t7.5 125q0 60 20.5 92t69.5 32h-218v418h356v-518q0 -152 -28.5 -264t-93 -173t-171.5 -61h-62z" />
    <glyph glyph-name="less" unicode="&#x3c;" 
d="M993 128l-826 496v286l826 486v-313l-337 -203l-209 -115v-6l209 -113l337 -205v-313z" />
    <glyph glyph-name="equal" unicode="=" 
d="M182 379v261h836v-261h-836zM182 843v261h836v-261h-836z" />
    <glyph glyph-name="greater" unicode="&#x3e;" 
d="M207 128v313l337 205l209 113v6l-209 115l-337 203v313l826 -486v-286z" />
    <glyph glyph-name="question" unicode="?" 
d="M431 539q-9 29 -12 67.5t-3 104.5q0 73 30.5 123.5t79 87t102.5 68t102.5 65.5t79 79t30.5 109q0 52 -25.5 99.5t-78 77.5t-132.5 30q-92 0 -153 -40t-89.5 -107.5t-24.5 -150.5h-273q-14 109 8.5 209.5t86.5 179t173.5 124t268.5 45.5q149 0 253 -40t169 -106.5
t94.5 -146.5t29.5 -160q0 -95 -32.5 -160.5t-84 -111t-109.5 -80t-109.5 -67.5t-84 -73t-32.5 -98v-68.5t4 -59.5h-268zM570 -15q-79 0 -135.5 59t-56.5 159q0 98 56.5 156.5t135.5 58.5q80 0 136 -58.5t56 -156.5q0 -100 -56 -159t-136 -59z" />
    <glyph glyph-name="at" unicode="@" 
d="M606 -316q-305 0 -446.5 199.5t-141.5 616.5q0 448 150 662t475 214q280 0 409 -169t129 -502q0 -332 -75.5 -482t-245.5 -150q-92 0 -128 63t-20 195q3 23 8 52.5t10 69.5h-8q-38 -190 -88 -280.5t-118 -90.5q-109 0 -161 93t-52 287q0 272 90 402t241 130q53 0 91 -16
t56 -30h134q-25 -320 -37 -466.5t-12 -132.5q0 -75 12 -75q71 0 110.5 98.5t39.5 328.5q0 242 -97 374t-291 132q-232 0 -348 -174t-116 -542q0 -344 111.5 -491.5t333.5 -147.5q138 0 276 104l10 -175q-116 -97 -301 -97zM560 301q69 0 105 108.5t43 335.5q-29 39 -66 39
q-64 0 -94.5 -77.5t-30.5 -239.5q0 -166 43 -166z" />
    <glyph glyph-name="A" unicode="A" 
d="M-11 0l363 1454h496l363 -1454h-334l-107 470l177 -132h-647l10 252h569l-110 -116l-94 473l-65 297h-20l-65 -297l-202 -947h-334z" />
    <glyph glyph-name="B" unicode="B" 
d="M150 0v1454h460q159 0 261 -45t150.5 -125t48.5 -186q0 -134 -72.5 -215.5t-195.5 -92.5q109 -11 182.5 -53t111.5 -114.5t38 -178.5q0 -140 -62 -239.5t-180 -152t-287 -52.5h-455zM461 234h127q86 0 150.5 47t64.5 172q0 80 -35 119t-87.5 52t-105.5 13h-114v-403z
M461 853h105q61 0 106 22.5t70.5 66.5t25.5 106q0 96 -61 135t-149 39h-97v-369z" />
    <glyph glyph-name="C" unicode="C" 
d="M610 -29q-177 0 -297 90.5t-180.5 261t-60.5 411.5q0 242 62 408.5t186.5 252.5t310.5 86q148 0 253 -70.5t158.5 -198.5t45.5 -301h-290q-5 81 -23 143t-56.5 96.5t-107.5 34.5q-72 0 -122.5 -47t-76 -148t-24.5 -263q2 -230 57.5 -344.5t158.5 -114.5q65 0 102.5 19.5
t53.5 58t15 94.5h311q2 -102 -32.5 -187.5t-98.5 -148.5t-152 -98t-193 -35z" />
    <glyph glyph-name="D" unicode="D" 
d="M416 0l-87 285h147q119 0 196.5 44t116 144t38.5 267q0 165 -35 258t-116.5 131t-220.5 38h-132l93 287h81q324 0 489.5 -177.5t165.5 -532.5q0 -239 -76.5 -405t-223 -252.5t-356.5 -86.5h-80zM101 0v1454h315v-1454h-315z" />
    <glyph glyph-name="E" unicode="E" 
d="M140 0v1454h927v-278h-718l99 74v-432l-99 63h650v-264h-637l86 62v-468l-99 75h750v-286h-959z" />
    <glyph glyph-name="F" unicode="F" 
d="M150 0v1454h942l2 -281h-818l189 187v-635l-188 121h741l-1 -272h-667l115 93v-667h-315z" />
    <glyph glyph-name="G" unicode="G" 
d="M644 -28q-176 0 -306.5 90.5t-202.5 261t-72 411.5q0 237 69.5 403.5t198.5 254t307 88.5q149 1 252.5 -55t159 -165.5t57.5 -270.5h-289q-8 40 -20 85.5t-47 78t-111 32.5q-91 0 -147 -51.5t-82 -152t-26 -247.5q0 -144 25.5 -249t79.5 -162t140 -57q72 0 115.5 21
t68.5 42v209h-198v274h484v-633q-35 -49 -99 -97t-153.5 -79.5t-203.5 -31.5z" />
    <glyph glyph-name="H" unicode="H" 
d="M797 0v1454h315v-1454h-315zM88 0v1454h315v-1454h-315zM311 608v281h538v-281h-538z" />
    <glyph glyph-name="I" unicode="I" 
d="M135 0v269h308v795q0 60 22 87t67 34h-397v269h930v-269h-309v-795q0 -60 -22 -86.5t-67 -34.5h398v-269h-930z" />
    <glyph glyph-name="J" unicode="J" 
d="M560 -30q-120 0 -216 31.5t-164.5 100.5t-106 181t-40.5 272h318q0 -91 14.5 -149.5t42 -91t65 -45.5t81.5 -13q72 0 116.5 26.5t65 82.5t20.5 142v947h324v-927q0 -192 -59 -315.5t-174.5 -182.5t-286.5 -59z" />
    <glyph glyph-name="K" unicode="K" 
d="M381 328l2 396l164 258l284 472h362l-450 -659l-110 -126zM102 0v1454h315v-1454h-315zM860 0l-369 736l217 184l513 -920h-361z" />
    <glyph glyph-name="L" unicode="L" 
d="M210 0v1454h323v-1356l-193 183h754v-281h-884z" />
    <glyph glyph-name="M" unicode="M" 
d="M29 0l40 1454h420l97 -633l11 -141h7l8 141l97 633h422l40 -1454h-265v735l9 530h-17l-77 -374l-96 -523h-254l-93 523l-76 374h-18l10 -530v-735h-265z" />
    <glyph glyph-name="N" unicode="N" 
d="M90 0v1454h398l269 -804l109 -364h6l-58 503v665h296v-1454h-402l-267 804l-104 337h-9l58 -492v-649h-296z" />
    <glyph glyph-name="O" unicode="O" 
d="M600 -30q-178 0 -297.5 90t-179.5 260.5t-60 414.5q0 358 135.5 553t401.5 195t401.5 -195t135.5 -553q0 -244 -60 -414.5t-179.5 -260.5t-297.5 -90zM600 262q107 0 161 114.5t54 358.5q0 239 -54 347.5t-161 108.5q-106 0 -160.5 -108.5t-54.5 -347.5
q0 -244 54.5 -358.5t160.5 -114.5z" />
    <glyph glyph-name="P" unicode="P" 
d="M514 483q-33 0 -55.5 24t-22.5 62l-69 116l69 57h172q81 0 132 24t75 75.5t24 134.5q0 75 -26 123t-78 70.5t-130 22.5h-174l-86 262h68.5h82.5h81h64q254 0 389 -111t135 -351q0 -101 -28 -192.5t-89.5 -163t-161.5 -112.5t-243 -41h-129zM120 0v1454h316v-1454h-316z
" />
    <glyph glyph-name="Q" unicode="Q" 
d="M600 -30q-178 0 -297.5 90t-179.5 260.5t-60 414.5q0 358 135.5 553t401.5 195t401.5 -195t135.5 -553q0 -244 -60 -414.5t-179.5 -260.5t-297.5 -90zM600 262q107 0 161 114.5t54 358.5q0 239 -54 347.5t-161 108.5q-106 0 -160.5 -108.5t-54.5 -347.5
q0 -244 54.5 -358.5t160.5 -114.5zM782 -316l-153 363h241q21 0 50 -12t48 -47l163 -304h-349z" />
    <glyph glyph-name="R" unicode="R" 
d="M883 0l-289 589h-145l-66 15l28 200v32h184q77 0 125.5 24.5t72 70t23.5 109.5q0 73 -30 109t-75 48.5t-92 12.5l-153 1l-72 123l-12 120h77h89h113q205 0 333.5 -106t128.5 -321q0 -72 -23 -141.5t-71 -127t-123.5 -93t-179.5 -39.5l42 16q42 0 75.5 -7t59.5 -26t43 -54
l270 -555h-333zM151 0v1454h316v-1454h-316z" />
    <glyph glyph-name="S" unicode="S" 
d="M609 -20q-158 0 -282.5 52.5t-194 162.5t-63.5 281h305q2 -72 25.5 -123t76 -77.5t139.5 -26.5q63 0 108 18.5t68.5 52.5t23.5 80q0 51 -30.5 81t-93.5 57t-160 68q-122 52 -218.5 112t-151.5 144.5t-55 209.5q0 132 61.5 222.5t172 136.5t257.5 46q227 0 347 -113.5
t135 -335.5h-299q-2 58 -25 98t-63 61t-94 21q-82 0 -133 -31.5t-51 -99.5q0 -52 24 -87t79.5 -66t147.5 -72q87 -38 170 -70.5t149 -75t105.5 -111t39.5 -178.5q1 -140 -66 -238t-184.5 -148.5t-269.5 -50.5z" />
    <glyph glyph-name="T" unicode="T" 
d="M441 0v1048q0 54 23.5 86t75.5 39h-466v281h1052v-281h-366v-1173h-319z" />
    <glyph glyph-name="U" unicode="U" 
d="M600 -20q-156 0 -273.5 63.5t-183 188t-65.5 306.5v918h314v-873q0 -84 13.5 -143t39.5 -96.5t65.5 -54.5t91.5 -17q51 0 90 17t64.5 54t38.5 96.5t13 143.5v871h314v-916q0 -179 -64.5 -304t-182 -189.5t-275.5 -64.5z" />
    <glyph glyph-name="V" unicode="V" 
d="M387 0l-386 1454h334l196 -868l67 -318h6l64 318l197 868h334l-386 -1454h-426z" />
    <glyph glyph-name="W" unicode="W" 
d="M184 0l-214 1454h291l76 -1049q4 -54 9 -107t9 -107h7l31 342l62 571h291l61 -571l31 -342h8q4 54 8.5 107t8.5 107l77 1049h290l-212 -1454h-307l-62 435q-17 122 -26 229t-20 229h-6q-11 -122 -20 -229t-26 -229l-60 -435h-307z" />
    <glyph glyph-name="X" unicode="X" 
d="M2 0l398 724l-390 730h342l139 -303l113 -243l109 241l134 305h343l-386 -730l394 -724h-343l-155 315l-101 227l-96 -229l-158 -313h-343z" />
    <glyph glyph-name="Y" unicode="Y" 
d="M458 453l-458 1001h336l161 -426l97 -259h11l98 258l161 427h336l-458 -1001h-284zM443 0v645h313v-645h-313z" />
    <glyph glyph-name="Z" unicode="Z" 
d="M78 0l557 1084l83 97l-120 -8h-472v281h1017l-561 -1093l-62 -87l137 7h434v-281h-1013z" />
    <glyph glyph-name="bracketleft" unicode="[" 
d="M245 -250v1916h697v-250h-528l108 163v-1732l-108 153h528v-250h-697z" />
    <glyph glyph-name="backslash" unicode="\" 
d="M1047 -195h-251l-643 1886h251z" />
    <glyph glyph-name="bracketright" unicode="]" 
d="M955 -250h-697v250h528l-108 -153v1732l108 -163h-528v250h697v-1916z" />
    <glyph glyph-name="asciicircum" unicode="^" 
d="M121 545l302 909h346l311 -909h-307l-128 486l-45 169h-8l-45 -170l-120 -485h-306z" />
    <glyph glyph-name="underscore" unicode="_" 
d="M-4 -279v228h1208v-228h-1208z" />
    <glyph glyph-name="grave" unicode="`" 
d="M632 1192l-334 631h294l310 -631h-270z" />
    <glyph glyph-name="a" unicode="a" 
d="M449 -12q-150 0 -235 85t-85 229q0 125 74.5 197.5t249.5 110.5q38 8 82 15.5t99.5 14t125.5 12.5v56q0 89 -32 126.5t-117 37.5q-82 0 -123 -40.5t-36 -127.5h-294q-11 126 39.5 217.5t157 141t263.5 49.5q223 0 336 -101.5t113 -296.5v-714h-309l2 255
q-13 -87 -55 -146.5t-107 -90t-149 -30.5zM567 194q43 0 85 19.5t71.5 51.5t36.5 71v172q-25 -5 -52 -10t-50 -9.5t-38 -8.5q-86 -21 -131.5 -58t-45.5 -103q0 -60 36 -92.5t88 -32.5z" />
    <glyph glyph-name="b" unicode="b" 
d="M708 -13q-73 0 -127 28t-88.5 81t-49.5 127l-35 92l45 59q11 -39 32 -68.5t52 -46t72 -16.5q62 0 110.5 36t77 106t28.5 171q0 167 -54.5 234t-136.5 67q-40 0 -79 -20t-66.5 -53t-35.5 -71l-11 44l11 74q23 89 60.5 151.5t98 96t151.5 33.5q99 0 183 -63t135.5 -186.5
t51.5 -305.5q0 -175 -56.5 -303t-152.5 -197.5t-216 -69.5zM146 0v1561h307v-545v-702l-8 -55l-3 -72l-15 -187h-281z" />
    <glyph glyph-name="c" unicode="c" 
d="M629 -19q-167 0 -280.5 71.5t-171 200t-57.5 298.5q0 174 59.5 299.5t172 193.5t270.5 68q161 0 264.5 -59.5t153.5 -162t48 -233.5h-303q-1 55 -12 95t-31.5 66t-50.5 38.5t-69 12.5q-100 0 -148.5 -77.5t-48.5 -235.5q0 -175 53 -253t153 -78q39 0 75 12t58.5 40.5
t20.5 76.5h300q3 -111 -51 -195t-157 -131t-248 -47z" />
    <glyph glyph-name="d" unicode="d" 
d="M492 -13q-115 0 -205.5 68.5t-142.5 194t-52 296.5q0 175 56.5 302t153 195.5t215.5 68.5q74 0 128 -28t89 -81t50 -127l35 -92l-45 -59q-10 40 -31.5 69t-52.5 45.5t-72 16.5q-94 0 -156 -78.5t-62 -230.5q0 -101 26 -169t74 -102t113 -34q39 0 73 20t57.5 53t30.5 71
l11 -44l-11 -74q-23 -88 -60 -151t-91.5 -96.5t-130.5 -33.5zM777 0l-3 348v1213h307v-1561h-304z" />
    <glyph glyph-name="e" unicode="e" 
d="M633 -15q-164 0 -279 66t-175.5 191t-60.5 302q0 185 64 312t180 192t271 65q224 0 338.5 -132.5t114.5 -374.5q0 -27 -1.5 -56t-3.5 -61h-656q7 -92 27.5 -150.5t62 -86t110.5 -27.5q62 0 102 35t47 96h300q-8 -112 -66.5 -195.5t-154.5 -129.5t-220 -46zM419 561
q8 59 40.5 79.5t83.5 20.5h242q-1 105 -38.5 157t-124.5 52q-106 0 -155.5 -72.5t-47.5 -236.5z" />
    <glyph glyph-name="f" unicode="f" 
d="M400 30v681q0 62 27 103t76 49l-103 184v196q0 144 62.5 235.5t167.5 135.5t232 44q55 0 94 -2t69 -5.5t58 -8.5l-1 -267q-21 6 -49.5 10t-64 6.5t-79.5 2.5q-60 0 -100 -14.5t-60 -51.5t-20 -105v-1193h-309zM195 0v218h831v-218h-831zM166 863v229h858v-229h-858z" />
    <glyph glyph-name="g" unicode="g" 
d="M606 -458q-174 0 -296.5 38t-187 108.5t-64.5 167.5q0 63 34.5 106.5t93.5 66t132 20.5l41 5q-14 -12 -24 -26.5t-15.5 -33.5t-5.5 -42q0 -58 32.5 -95.5t95.5 -55.5t156 -18q122 0 187 27.5t64 85.5q0 44 -33.5 63t-121.5 29l-259 32q-134 17 -201.5 51.5t-90 78
t-22.5 85.5q0 58 35 98.5t86.5 65.5t101 36t78.5 8q-28 -14 -50.5 -33t-22.5 -63q0 -34 27 -50.5t110 -27.5l280 -35q153 -19 233.5 -63t110 -108t29.5 -143q0 -92 -44.5 -162.5t-120.5 -118.5t-171.5 -72.5t-196.5 -24.5zM612 384q-222 0 -344 98.5t-122 266.5
q0 167 122.5 265t345.5 96q146 -1 249.5 -45.5t159 -126t55.5 -194.5q0 -166 -122 -263t-344 -97zM613 594q86 0 128 36t42 115q0 80 -42.5 117.5t-129.5 37.5q-79 0 -125 -36t-46 -114q0 -81 46.5 -118.5t126.5 -37.5zM739 1079l-14 10q9 113 51 172.5t103.5 81.5t126.5 22
q20 0 42.5 -2t34.5 -7v-266q-46 11 -91.5 16t-77.5 5q-15 0 -44.5 0.5t-64 -6t-66.5 -26.5z" />
    <glyph glyph-name="h" unicode="h" 
d="M117 0v1561h300v-470l-16 -311l9 -88l-10 71q12 90 47.5 170.5t105.5 130.5t182 50q143 0 231.5 -96.5t88.5 -294.5v-723h-309v607q0 137 -32.5 195t-109.5 58q-55 0 -102 -38.5t-76 -100.5v-721h-309z" />
    <glyph glyph-name="i" unicode="i" 
d="M488 30v649q0 94 27 124.5t82 39.5l-109 78v54l302 116l-2 -1061h-300zM167 0v218h933v-218h-933zM133 843v248h657l-45 -248h-612zM640 1280q-82 0 -139.5 54t-57.5 146q0 93 58 147.5t139 54.5q82 0 139.5 -53.5t57.5 -148.5q0 -92 -58.5 -146t-138.5 -54z" />
    <glyph glyph-name="j" unicode="j" 
d="M485 -446q-110 0 -183.5 13.5t-120.5 27.5v251q37 -10 102.5 -22t126.5 -12q62 0 103.5 13t62.5 53t21 120v686q0 68 27 110t73 50l-100 68v109l309 71v-1069q0 -147 -38 -252t-130 -161t-253 -56zM252 844v248h654l-55 -248h-599zM740 1280q-82 0 -139.5 54t-57.5 146
q0 95 58 148.5t139 53.5q82 0 139.5 -53.5t57.5 -148.5q0 -92 -58.5 -146t-138.5 -54z" />
    <glyph glyph-name="k" unicode="k" 
d="M794 0l-377 595l257 38l129 -125l372 -508h-381zM136 0v1561h304v-794l-18 -169v-8l18 -175v-415h-304zM674 562l-257 33l162 234l174 262h386l-341 -419z" />
    <glyph glyph-name="l" unicode="l" 
d="M762 -16q-133 0 -215 37.5t-119 110.5t-37 177v889q0 38 22.5 64t61.5 33h-364v266h580l-2 -1146q0 -100 33 -134t132 -34q45 0 115 8.5t131 26.5v-251q-73 -22 -165 -34.5t-173 -12.5z" />
    <glyph glyph-name="m" unicode="m" 
d="M55 0v1092h240l18 -322l-6 53q12 135 84.5 213t170.5 78q50 0 87 -25t56.5 -82t13.5 -153l-5 -104v-750h-215v737q0 59 -15 91t-52 32q-49 0 -78 -35.5t-36 -100.5v-724h-263zM894 0v737q0 59 -13.5 91t-50.5 32q-41 0 -73 -31.5t-43 -104.5l-42 -14l37 78
q12 149 84.5 237.5t190.5 88.5q84 0 128.5 -67t44.5 -186v-861h-263z" />
    <glyph glyph-name="n" unicode="n" 
d="M155 0v1092h276l25 -412l-12 83q20 175 97.5 263t219.5 88q156 0 234 -102.5t78 -288.5v-723h-308v627q0 120 -30 173.5t-99 53.5q-57 0 -100.5 -34t-72.5 -96v-724h-308z" />
    <glyph glyph-name="o" unicode="o" 
d="M593 -15q-150 0 -261.5 68t-173 193.5t-61.5 296.5q0 179 65.5 306.5t181 195.5t264.5 68q152 0 263 -69.5t171.5 -195.5t60.5 -296q0 -180 -66 -306.5t-181 -193.5t-263 -67zM602 242q78 0 133 69t55 239q0 173 -56.5 239.5t-135.5 66.5t-133 -66.5t-54 -234.5
q0 -175 57.5 -244t133.5 -69z" />
    <glyph glyph-name="p" unicode="p" 
d="M146 -403v1494h301l6 -173v-630l-12 -95l12 -194v-402h-307zM763 1112q99 0 183 -63t135.5 -186.5t51.5 -305.5q0 -175 -56.5 -303t-152.5 -197.5t-216 -69.5q-73 0 -127 28t-88.5 81t-49.5 127l-35 92l45 59q11 -39 32 -68.5t52 -46t72 -16.5q62 0 110.5 36t77 106
t28.5 171q0 167 -54.5 234t-136.5 67q-40 0 -79 -20t-66.5 -53t-35.5 -71l-11 44l11 74q23 89 60.5 151.5t98 96t151.5 33.5z" />
    <glyph glyph-name="q" unicode="q" 
d="M774 -403v1259l15 235h292v-1494h-307zM502 -13q-115 0 -203 68.5t-137.5 194t-49.5 296.5q0 175 51.5 302t143 195.5t210.5 68.5q74 0 128 -28t89 -81t50 -127l35 -92l-45 -59q-10 40 -31.5 69t-52.5 45.5t-72 16.5q-94 0 -146 -78.5t-52 -230.5q0 -151 51 -228t142 -77
q59 0 104.5 33.5t56.5 90.5l11 -44l-11 -74q-23 -78 -59.5 -137t-89 -91.5t-123.5 -32.5z" />
    <glyph glyph-name="r" unicode="r" 
d="M80 0v218h859v-218h-859zM55 843v249h398v-249h-398zM250 20v659q0 81 23 118.5t83 45.5l-106 65v184h258l19 -299q20 104 67.5 175.5t117.5 108.5t156 37q146 0 223.5 -121.5t67.5 -351.5h-264q-1 110 -36 160t-100 50q-67 0 -127.5 -35t-90.5 -92v-363q0 -59 -19.5 -96
t-56.5 -47l76 -54l3 -144h-294z" />
    <glyph glyph-name="s" unicode="s" 
d="M603 -17q-108 0 -194.5 23t-148 69.5t-96 118t-38.5 167.5h300q9 -78 62.5 -117t119.5 -39q69 0 115.5 20t46.5 78q0 43 -28.5 65t-82 37t-128.5 38t-141 49.5t-117 64t-79.5 92.5t-28.5 134q0 117 55.5 189.5t153 105.5t224.5 33q118 0 213 -31t157 -110t79 -223l-301 2
q-11 64 -35 95.5t-55.5 42t-64.5 10.5q-43 0 -72.5 -11t-44.5 -32t-15 -53q0 -33 24.5 -57.5t76.5 -44.5t132 -43q66 -18 133.5 -38.5t124 -53.5t91 -88.5t34.5 -145.5q0 -175 -127.5 -261t-344.5 -86z" />
    <glyph glyph-name="t" unicode="t" 
d="M691 -17q-117 0 -194.5 36t-116 109t-39.5 185l-2 456q0 25 13 44.5t38.5 32t61.5 17.5l-113 185v33l70 393h230v-1062q0 -96 31.5 -131t122.5 -35q34 0 77.5 4t88.5 12t83 19v-250q-69 -23 -168 -35.5t-183 -12.5zM125 863v229h881v-229h-881z" />
    <glyph glyph-name="u" unicode="u" 
d="M442 -22q-148 0 -227 98.5t-79 297.5v718h308v-674q0 -119 34.5 -152.5t91.5 -33.5q65 0 112 40t73 96v724h308v-1092h-273l-27 412l11 -83q-14 -114 -56.5 -192.5t-111 -118.5t-164.5 -40z" />
    <glyph glyph-name="v" unicode="v" 
d="M423 0l-376 1091h334l153 -576l55 -234h22l55 233l155 577h332l-375 -1091h-355z" />
    <glyph glyph-name="w" unicode="w" 
d="M193 0l-203 1091h275l46 -522l38 -321h7l39 321l49 349h312l50 -349l39 -324l6 1l37 323l47 522h275l-204 -1091h-299l-68 476l-35 306h-7l-36 -306l-67 -476h-301z" />
    <glyph glyph-name="x" unicode="x" 
d="M73 0l387 650l3 -230l-386 671h351l112 -241l62 -148l58 147l112 242h351l-386 -670v231l390 -652h-361l-105 227l-63 148l-62 -149l-102 -226h-361z" />
    <glyph glyph-name="y" unicode="y" 
d="M182 -443v264h100q69 0 110 14.5t63 39t33 53.5q14 34 28.5 50t56.5 22h-151l-375 1091h340l148 -563l58 -212h9l52 211l143 564h338l-359 -1091q-37 -114 -79 -197.5t-99 -138t-138.5 -81t-197.5 -26.5h-80z" />
    <glyph glyph-name="z" unicode="z" 
d="M116 0l493 769q34 53 73.5 82t91.5 45l31 -18q-67 -9 -138 -20.5t-129 -11.5h-371v245h956l-450 -743q-43 -71 -97 -110t-118 -63l-5 44q65 6 136.5 16t120.5 10h378v-245h-972z" />
    <glyph glyph-name="braceleft" unicode="{" 
d="M648 -250q-91 0 -162 20.5t-114.5 64t-54 111t19.5 161.5l98 312q23 74 7 111.5t-49 51.5q-23 10 -53.5 14t-71 4t-95.5 -3v225q52 -3 91.5 -3.5t70 3.5t53.5 12q41 16 55 55t-9 110l-96 309q-29 93 -18 161t54.5 111.5t113.5 64.5t160 21h382v-248h-298
q-94 0 -123.5 -50.5t4.5 -139.5l87 -231q25 -66 11.5 -123t-78 -99.5t-193.5 -64.5q128 -17 192 -59.5t78 -99.5t-9 -120l-87 -244q-22 -62 -15 -104.5t41.5 -63.5t91.5 -21h298v-248h-382z" />
    <glyph glyph-name="bar" unicode="|" 
d="M468 -260v1960h265v-1960h-265z" />
    <glyph glyph-name="braceright" unicode="}" 
d="M552 -250h-382v248h298q58 0 92 21t41.5 63.5t-15.5 104.5l-87 244q-22 63 -8.5 120t77.5 99.5t192 59.5q-129 22 -193.5 64.5t-78 99.5t11.5 123l87 231q34 89 4.5 139.5t-123.5 50.5h-298v248h382q90 0 160 -21t113.5 -64.5t54.5 -111.5t-18 -161l-96 -309
q-22 -71 -8.5 -110t54.5 -55q23 -8 53.5 -12t70.5 -3.5t91 3.5v-225q-54 3 -95 3t-71 -4t-54 -14q-33 -14 -49 -51.5t7 -111.5l98 -312q30 -94 19.5 -161.5t-54 -111t-114 -64t-162.5 -20.5z" />
    <glyph glyph-name="asciitilde" unicode="~" 
d="M801 493q-69 0 -116.5 22t-81.5 55t-61.5 65.5t-56 54.5t-66.5 22q-47 0 -71.5 -23t-30.5 -70.5t2 -123.5h-234q-19 128 3 216t71.5 142t112.5 78t126 24q73 0 121.5 -22t82 -54.5t60 -65.5t54.5 -55t66 -22q52 0 76 23t28 71t-6 121h234q21 -128 -1 -216t-72 -141
t-114 -77t-126 -24z" />
    <glyph glyph-name="uni00A0" unicode="&#xa0;" 
 />
    <glyph glyph-name="exclamdown" unicode="&#xa1;" 
d="M496 1068h208l38 -635l28 -466h-340l28 466zM600 1682q80 0 136 -59t56 -159q0 -97 -56 -156t-136 -59q-79 0 -135.5 59t-56.5 156q0 100 56.5 159t135.5 59z" />
    <glyph glyph-name="cent" unicode="&#xa2;" 
d="M629 -19q-167 0 -280.5 71.5t-171 200t-57.5 298.5q0 174 59.5 299.5t172 193.5t270.5 68q161 0 264.5 -59.5t153.5 -162t48 -233.5h-303q-1 55 -12 95t-31.5 66t-50.5 38.5t-69 12.5q-100 0 -148.5 -77.5t-48.5 -235.5q0 -175 53 -253t153 -78q39 0 75 12t58.5 40.5
t20.5 76.5h300q3 -111 -51 -195t-157 -131t-248 -47zM507 1039v230h251v-230h-251zM507 -203v245h251v-245h-251z" />
    <glyph glyph-name="sterling" unicode="&#xa3;" 
d="M103 0v283q92 34 147.5 83.5t81 105.5t25.5 108q0 56 -19 100.5t-47 85.5t-56 87t-47 103.5t-19 134.5q0 112 56.5 201t165.5 140.5t266 51.5q144 0 246.5 -59t156.5 -158.5t54 -221.5q0 -37 -2.5 -63t-7.5 -47h-316q5 29 6.5 51t1.5 45q0 59 -15.5 98t-48 59t-83.5 20
q-53 0 -93 -13.5t-62 -44.5t-22 -85q0 -58 18.5 -105.5t42 -92t42 -93.5t18.5 -109q0 -110 -29 -168t-64 -93q-39 -40 -112.5 -77t-154.5 -44zM103 0v283h993v-283h-993zM167 551v201h729v-201h-729z" />
    <glyph glyph-name="currency" unicode="&#xa4;" 
d="M599 286q-127 0 -228.5 62.5t-161.5 168t-60 234.5q0 134 59.5 238.5t161.5 164.5t229 60q128 0 230.5 -61.5t162 -166.5t59.5 -235q0 -132 -58.5 -237.5t-160.5 -166.5t-233 -61zM599 532q79 0 138 60t59 159q0 100 -61 158.5t-136 58.5q-79 0 -137.5 -58.5
t-58.5 -158.5q0 -98 60 -158.5t136 -60.5zM263 187l-171 174l277 284l171 -174zM938 187l-277 284l170 174l277 -284zM369 850l-277 284l171 174l277 -284zM831 850l-170 174l277 284l170 -174z" />
    <glyph glyph-name="yen" unicode="&#xa5;" 
d="M408 592l-404 862h354l152 -401l84 -224h12l83 224l152 401h355l-410 -862h-378zM442 0v699h316v-699h-316zM110 591v227h980v-227h-980zM110 177v227h980v-227h-980z" />
    <glyph glyph-name="brokenbar" unicode="&#xa6;" 
d="M468 884v816h265v-816h-265zM468 -260v862h265v-862h-265z" />
    <glyph glyph-name="section" unicode="&#xa7;" 
d="M602 -17q-155 0 -264.5 42.5t-169 127t-66.5 208.5h318q5 -61 48.5 -108.5t139.5 -47.5q51 0 92.5 8.5t66.5 30t25 59.5q0 42 -33 61.5t-91 34.5t-132 40q-82 29 -150 56t-117 59.5t-76 76.5t-27 106q0 107 93.5 164t283.5 57l18 -10q-26 1 -54.5 -15.5t-48 -47.5
t-19.5 -74q0 -38 32.5 -68t92 -53.5t139.5 -42.5q56 -13 124 -34t129.5 -57t101 -93.5t39.5 -143.5q0 -107 -60 -182t-170.5 -114.5t-264.5 -39.5zM669 643l-30 14q68 0 112.5 34.5t44.5 96.5q0 50 -32 75.5t-88.5 41.5t-132.5 36q-104 28 -189.5 73t-135.5 113.5t-50 164.5
q0 109 57.5 180t158 106t230.5 35q119 0 217 -32.5t159.5 -112t72.5 -219.5l-307 3q-5 24 -19 59t-44 62t-86 27q-68 0 -105 -24.5t-37 -71.5q0 -38 27.5 -65t82.5 -47.5t135 -42.5q75 -20 141.5 -42.5t117 -52.5t79.5 -71.5t29 -100.5q0 -92 -60.5 -144t-154 -73.5
t-193.5 -21.5z" />
    <glyph glyph-name="dieresis" unicode="&#xa8;" 
d="M370 1264q-66 0 -116.5 48t-50.5 127q0 72 50.5 122.5t116.5 50.5t117 -50t51 -123q0 -79 -51.5 -127t-116.5 -48zM830 1264q-65 0 -116 48t-51 127q0 73 51 123t116 50q67 0 117 -50.5t50 -122.5q0 -79 -50.5 -127t-116.5 -48z" />
    <glyph glyph-name="copyright" unicode="&#xa9;" 
d="M600 266q-273 0 -420 155.5t-147 448.5q0 288 147 441t421 153q273 0 419.5 -153t146.5 -441q0 -293 -146.5 -448.5t-420.5 -155.5zM600 362q222 0 341.5 130.5t119.5 375.5q0 243 -119 371.5t-341 128.5t-342 -128.5t-120 -371.5q0 -245 119.5 -375.5t341.5 -130.5z
M609 501q-167 0 -249.5 97.5t-82.5 272.5q0 170 81 261.5t247 91.5q152 0 231 -74t76 -190h-218q0 39 -21 64.5t-71 25.5q-58 0 -83 -42t-25 -134q0 -97 25.5 -141.5t83.5 -44.5q47 0 73.5 20t24.5 71h219q-1 -130 -80.5 -204t-230.5 -74z" />
    <glyph glyph-name="ordfeminine" unicode="&#xaa;" 
d="M465 583q-118 0 -200.5 60.5t-82.5 185.5q0 123 78 180t189 77q50 9 103.5 15t102 10t83.5 6v15q0 78 -30 106.5t-99 28.5q-44 0 -74.5 -10.5t-46 -37.5t-14.5 -79h-269q-10 118 40 193.5t146.5 112.5t225.5 37q103 0 195 -27.5t149.5 -97t57.5 -196.5v-569h-282l1 208
q-14 -86 -79.5 -152t-193.5 -66zM568 763q38 0 74.5 13.5t63 37.5t32.5 56v125q-31 -6 -65 -10.5t-63 -10.5q-81 -16 -111.5 -46.5t-30.5 -75.5q0 -43 24 -66t76 -23z" />
    <glyph glyph-name="guillemotleft" unicode="&#xab;" 
d="M345 178l-250 371v8l250 371h272l-161 -260q-36 -58 -71 -79.5t-109 -35.5q75 -13 109.5 -34.5t70.5 -79.5l161 -261h-272zM823 179l-229 370v8l229 370h283l-161 -259q-35 -57 -67.5 -79.5t-102.5 -35.5q71 -13 103.5 -35t66.5 -78l161 -261h-283z" />
    <glyph glyph-name="logicalnot" unicode="&#xac;" 
d="M778 282v224q0 62 44 92.5t111 34.5h-776v264h886v-615h-265z" />
    <glyph glyph-name="uni00AD" unicode="&#xad;" 
d="M180 572v286h840v-286h-840z" />
    <glyph glyph-name="registered" unicode="&#xae;" 
d="M336 526v685h206l-1 -685h-205zM692 526l-93 235h-63l-32 6l14 118v15h87q41 0 68 15.5t27 67.5q0 58 -30 67.5t-58 9.5h-83l-43 63l18 88h24.5h34h73.5q127 0 197 -53.5t70 -166.5q0 -53 -20.5 -99t-70 -76t-136.5 -36l-57 19q76 0 117.5 -4.5t61.5 -16.5t32 -37
l104 -215h-242zM600 266q-273 0 -419.5 155.5t-146.5 448.5q0 288 146.5 441t420.5 153q273 0 419.5 -153t146.5 -441q0 -293 -146.5 -448.5t-420.5 -155.5zM600 362q222 0 341.5 130.5t119.5 375.5q0 243 -119 371.5t-341 128.5t-341.5 -128.5t-119.5 -371.5
q0 -245 119 -375.5t341 -130.5z" />
    <glyph glyph-name="macron" unicode="&#xaf;" 
d="M512 1294v232h612l-3 -232h-609z" />
    <glyph glyph-name="degree" unicode="&#xb0;" 
d="M600 942q-145 0 -230.5 85.5t-85.5 231.5t86 230.5t232 84.5t230.5 -84.5t84.5 -230.5t-85.5 -231.5t-231.5 -85.5zM600 1101q71 0 108.5 41t37.5 117q0 77 -37.5 117.5t-108.5 39.5q-70 1 -107.5 -39.5t-37.5 -117.5q0 -76 37.5 -117t107.5 -41z" />
    <glyph glyph-name="plusminus" unicode="&#xb1;" 
d="M154 -3v265h972v-265h-972zM483 196l-1 326q0 43 22.5 75t64.5 35l-87 70v176v445h279v-1127h-278zM79 632v259h1083v-259h-1083z" />
    <glyph glyph-name="uni00B2" unicode="&#xb2;" 
d="M138 855q23 52 62.5 100t91 95t112 95.5t125.5 101.5q54 44 98.5 76t76.5 60t49.5 58.5t17.5 72.5q0 44 -41 70t-124 26q-110 0 -161.5 -47t-32.5 -129h-230q-29 183 80.5 282t345.5 99q188 0 298 -66t110 -215q0 -72 -25.5 -125.5t-74 -100t-117.5 -99.5
q-65 -49 -108 -82.5t-70 -55.5t-42 -35.5t-24 -24.5q29 23 71 32.5t112 9.5h286v-198h-886z" />
    <glyph glyph-name="uni00B3" unicode="&#xb3;" 
d="M606 847q-251 0 -359 88t-97 234h235q-4 -61 49 -92.5t164 -31.5q104 0 160 29t56 87q0 51 -49 72.5t-165 21.5h-138l1 169h131q92 0 135 25t43 82q0 45 -44.5 69.5t-127.5 24.5q-85 0 -128.5 -27.5t-39.5 -77.5h-238q0 146 99 221t304 75q191 0 299.5 -64.5
t108.5 -183.5q0 -92 -63 -145.5t-178 -70.5q139 -7 214.5 -63.5t75.5 -156.5q0 -130 -121.5 -207.5t-326.5 -77.5z" />
    <glyph glyph-name="acute" unicode="&#xb4;" 
d="M568 1192h-270l310 631h294z" />
    <glyph glyph-name="uni00B5" unicode="&#xb5;" 
d="M590 -11q-43 0 -68.5 12t-39.5 32.5t-22.5 46l-17.5 52.5l-307 242v718h309v-622q0 -61 7 -103t23 -67.5t44 -37t71 -11.5t76 11.5t55.5 44t31.5 94.5v691h309v-1092h-274l-27 246l11 -19q-11 -138 -51.5 -188t-129.5 -50zM135 -324v698l309 13l-2 -711h-307z" />
    <glyph glyph-name="paragraph" unicode="&#xb6;" 
d="M433 0v399q0 42 7 76t41.5 59t116.5 40h-155q-152 0 -238 58t-121.5 159t-35.5 230q0 224 117 328.5t321 104.5h209v-1454h-262zM825 0v1454h261v-1454h-261z" />
    <glyph glyph-name="periodcentered" unicode="&#xb7;" 
d="M601 497q-80 0 -136.5 59t-56.5 159q0 98 56.5 156.5t136.5 58.5q79 0 135 -58.5t56 -156.5q0 -100 -56 -159t-135 -59z" />
    <glyph glyph-name="cedilla" unicode="&#xb8;" 
d="M952 -490q-66 0 -127.5 12t-104.5 31l1 185q34 -13 67.5 -21.5t76.5 -8.5q53 0 77 23.5t24 83.5q0 53 -24.5 96.5t-94.5 88.5h179q59 -25 104 -61.5t71 -87t26 -116.5q0 -105 -80 -165t-195 -60z" />
    <glyph glyph-name="uni00B9" unicode="&#xb9;" 
d="M540 876l2 534q0 53 5.5 100t18.5 107l14 188h212v-929h-252zM183 855v198h902v-198h-902zM160 1431v253q60 -19 127.5 -19t129.5 17t106 48.5t57 74.5l-14 -188q-23 -81 -88.5 -132.5t-150.5 -66.5t-167 13z" />
    <glyph glyph-name="ordmasculine" unicode="&#xba;" 
d="M598 581q-210 0 -328.5 116.5t-118.5 337.5q0 139 56.5 239.5t158 154.5t236.5 54q216 0 331.5 -119.5t115.5 -328.5q0 -147 -57.5 -248.5t-159 -153.5t-234.5 -52zM602 812q74 0 119 46t45 177q0 122 -45 169.5t-122 47.5q-76 0 -120.5 -48.5t-44.5 -168.5
q0 -126 45 -174.5t123 -48.5z" />
    <glyph glyph-name="guillemotright" unicode="&#xbb;" 
d="M95 179l161 261q35 56 67.5 78t102.5 35q-69 13 -102 35.5t-68 79.5l-161 259h283l229 -370v-8l-229 -370h-283zM584 178l161 261q36 58 70.5 79.5t109.5 34.5q-73 14 -108.5 35.5t-71.5 79.5l-161 260h272l250 -371v-8l-250 -371h-272z" />
    <glyph glyph-name="onequarter" unicode="&#xbc;" 
d="M537 845l2 504q0 50 5 94t17 101l13 177h200v-876h-237zM208 825v187h851v-187h-851zM186 1368v239q75 -24 159 -16t148.5 42t80.5 88l-13 -177q-21 -76 -81 -124.5t-138 -63t-156 11.5zM178 -133l342 774h267l-286 -558l-27 -35h612l-1 -181h-907zM722 -265l1 266l68 47
q-37 0 -53 25t-16 83v159l219 3v-583h-219z" />
    <glyph glyph-name="onehalf" unicode="&#xbd;" 
d="M537 845l2 504q0 50 5 94t17 101l13 177h200v-876h-237zM208 825v187h851v-187h-851zM186 1368v239q75 -24 159 -16t148.5 42t80.5 88l-13 -177q-21 -76 -81 -124.5t-138 -63t-156 11.5zM163 -266q22 49 59 94t86 89.5t106 90.5t118 96q51 41 93 71.5t72.5 56.5t47 55.5
t16.5 68.5q0 46 -39.5 71.5t-116.5 25.5q-104 0 -153 -45t-30 -128h-217q-28 173 75.5 266.5t325.5 93.5q177 0 281 -62.5t104 -202.5q0 -68 -24 -118.5t-69.5 -94.5t-110.5 -94q-61 -47 -102 -78.5t-66.5 -52t-39.5 -33.5t-22 -23q26 22 66 31t106 9h270v-187h-836z" />
    <glyph glyph-name="threequarters" unicode="&#xbe;" 
d="M606 817q-237 0 -339 83t-91 221h221q-4 -58 46.5 -87.5t154.5 -29.5q98 0 151 27t53 82q0 48 -46 68.5t-156 20.5h-130l1 159h123q87 0 127.5 24t40.5 77q0 43 -42 66t-120 23q-80 0 -121 -26t-37 -73h-225q0 137 93.5 208t286.5 71q180 0 282.5 -61t102.5 -173
q0 -87 -59.5 -137.5t-167.5 -66.5q131 -6 202 -59.5t71 -147.5q0 -122 -114.5 -195.5t-307.5 -73.5zM181 -133l342 774h267l-286 -558l-27 -35h612l-1 -181h-907zM725 -265l1 266l68 47q-37 0 -53 25t-16 83v159l219 3v-583h-219z" />
    <glyph glyph-name="questiondown" unicode="&#xbf;" 
d="M775 1112q9 -29 12 -67.5t3 -104.5q0 -73 -30.5 -123.5t-79 -87t-102.5 -68t-102.5 -65.5t-79 -79t-30.5 -109q0 -52 25.5 -99.5t78 -77.5t132.5 -30q93 0 153.5 40t89.5 108t24 150h273q14 -109 -8.5 -209.5t-86.5 -179t-173.5 -124t-268.5 -45.5q-149 0 -253 40
t-169 106.5t-94.5 146.5t-29.5 160q0 95 32.5 160.5t84 111t109.5 80t109.5 67.5t84 73t32.5 98v69t-4 59h268zM636 1666q80 0 136 -59t56 -159q0 -97 -56 -156t-136 -59q-79 0 -135.5 59t-56.5 156q0 100 56.5 159t135.5 59z" />
    <glyph glyph-name="Agrave" unicode="&#xc0;" 
d="M-11 0l363 1454h496l363 -1454h-334l-107 470l177 -132h-647l10 252h569l-110 -116l-94 473l-65 297h-20l-65 -297l-202 -947h-334zM444 1591l-235 321h332l204 -321h-301z" />
    <glyph glyph-name="Aacute" unicode="&#xc1;" 
d="M-11 0l363 1454h496l363 -1454h-334l-107 470l177 -132h-647l10 252h569l-110 -116l-94 473l-65 297h-20l-65 -297l-202 -947h-334zM742 1591h-301l204 321h332z" />
    <glyph glyph-name="Acircumflex" unicode="&#xc2;" 
d="M-11 0l363 1454h496l363 -1454h-334l-107 470l177 -132h-647l10 252h569l-110 -116l-94 473l-65 297h-20l-65 -297l-202 -947h-334zM195 1585l272 327h266l270 -327h-258l-145 168l-146 -168h-259z" />
    <glyph glyph-name="Atilde" unicode="&#xc3;" 
d="M-11 0l363 1454h496l363 -1454h-334l-107 470l177 -132h-647l10 252h569l-110 -116l-94 473l-65 297h-20l-65 -297l-202 -947h-334zM750 1562q-67 0 -110 22.5t-72 52.5t-52 52.5t-50 22.5q-37 0 -60.5 -40.5t-9.5 -111.5h-197q-19 168 53 254.5t197 86.5
q67 0 109.5 -22.5t71 -52.5t51 -52.5t49.5 -22.5q38 0 62.5 39.5t11.5 110.5h195q20 -167 -52 -253t-197 -86z" />
    <glyph glyph-name="Adieresis" unicode="&#xc4;" 
d="M-11 0l363 1454h496l363 -1454h-334l-107 470l177 -132h-647l10 252h569l-110 -116l-94 473l-65 297h-20l-65 -297l-202 -947h-334zM359 1572q-66 0 -116.5 48t-50.5 127q0 72 50.5 122.5t116.5 50.5t117 -50t51 -123q0 -79 -51.5 -127t-116.5 -48zM839 1572
q-65 0 -116 48t-51 127q0 73 51 123t116 50q67 0 117 -50.5t50 -122.5q0 -79 -50.5 -127t-116.5 -48z" />
    <glyph glyph-name="Aring" unicode="&#xc5;" 
d="M-11 0l363 1454h496l363 -1454h-334l-107 470l177 -132h-647l10 252h569l-110 -116l-94 473l-65 297h-20l-65 -297l-202 -947h-334zM599 1431q-127 0 -197 70.5t-70 182.5q0 111 69.5 181t197.5 70q127 0 196.5 -70t69.5 -181q0 -112 -69.5 -182.5t-196.5 -70.5z
M599 1577q46 0 74.5 27.5t28.5 79.5q0 50 -28.5 77.5t-74.5 27.5t-74.5 -27.5t-28.5 -77.5q0 -52 28.5 -79.5t74.5 -27.5z" />
    <glyph glyph-name="AE" unicode="&#xc6;" 
d="M13 0l446 1454h159l87 -27l-87 -246h-4l-29 -112l-302 -1069h-270zM618 0v1454h550v-287h-361l61 74v-417l-61 63h305v-286h-315l71 62v-449l-61 75h348v-289h-537zM202 357l110 259h322v-259h-432z" />
    <glyph glyph-name="Ccedilla" unicode="&#xc7;" 
d="M610 -29q-177 0 -297 90.5t-180.5 261t-60.5 411.5q0 242 62 408.5t186.5 252.5t310.5 86q148 0 253 -70.5t158.5 -198.5t45.5 -301h-290q-5 81 -23 143t-56.5 96.5t-107.5 34.5q-72 0 -122.5 -47t-76 -148t-24.5 -263q2 -230 57.5 -344.5t158.5 -114.5q65 0 102.5 19.5
t53.5 58t15 94.5h311q2 -102 -32.5 -187.5t-98.5 -148.5t-152 -98t-193 -35zM630 -505q-54 0 -108 10.5t-104 33.5l1 199q27 -13 58 -21.5t57 -8.5q45 0 68 22t23 66q0 57 -52.5 108.5t-153.5 95.5h260q119 -37 167.5 -106t48.5 -150q0 -115 -72.5 -182t-192.5 -67z" />
    <glyph glyph-name="Egrave" unicode="&#xc8;" 
d="M140 0v1454h927v-278h-718l99 74v-432l-99 63h650v-264h-637l86 62v-468l-99 75h750v-286h-959zM467 1591l-235 321h332l204 -321h-301z" />
    <glyph glyph-name="Eacute" unicode="&#xc9;" 
d="M140 0v1454h927v-278h-718l99 74v-432l-99 63h650v-264h-637l86 62v-468l-99 75h750v-286h-959zM765 1591h-301l204 321h332z" />
    <glyph glyph-name="Ecircumflex" unicode="&#xca;" 
d="M140 0v1454h927v-278h-718l99 74v-432l-99 63h650v-264h-637l86 62v-468l-99 75h750v-286h-959zM218 1585l272 327h266l270 -327h-258l-145 168l-146 -168h-259z" />
    <glyph glyph-name="Edieresis" unicode="&#xcb;" 
d="M140 0v1454h927v-278h-718l99 74v-432l-99 63h650v-264h-637l86 62v-468l-99 75h750v-286h-959zM382 1572q-66 0 -116.5 48t-50.5 127q0 72 50.5 122.5t116.5 50.5t117 -50t51 -123q0 -79 -51.5 -127t-116.5 -48zM862 1572q-65 0 -116 48t-51 127q0 73 51 123t116 50
q67 0 117 -50.5t50 -122.5q0 -79 -50.5 -127t-116.5 -48z" />
    <glyph glyph-name="Igrave" unicode="&#xcc;" 
d="M135 0v269h308v795q0 60 22 87t67 34h-397v269h930v-269h-309v-795q0 -60 -22 -86.5t-67 -34.5h398v-269h-930zM445 1591l-235 321h332l204 -321h-301z" />
    <glyph glyph-name="Iacute" unicode="&#xcd;" 
d="M135 0v269h308v795q0 60 22 87t67 34h-397v269h930v-269h-309v-795q0 -60 -22 -86.5t-67 -34.5h398v-269h-930zM743 1591h-301l204 321h332z" />
    <glyph glyph-name="Icircumflex" unicode="&#xce;" 
d="M135 0v269h308v795q0 60 22 87t67 34h-397v269h930v-269h-309v-795q0 -60 -22 -86.5t-67 -34.5h398v-269h-930zM196 1585l272 327h266l270 -327h-258l-145 168l-146 -168h-259z" />
    <glyph glyph-name="Idieresis" unicode="&#xcf;" 
d="M135 0v269h308v795q0 60 22 87t67 34h-397v269h930v-269h-309v-795q0 -60 -22 -86.5t-67 -34.5h398v-269h-930zM360 1572q-66 0 -116.5 48t-50.5 127q0 72 50.5 122.5t116.5 50.5t117 -50t51 -123q0 -79 -51.5 -127t-116.5 -48zM840 1572q-65 0 -116 48t-51 127
q0 73 51 123t116 50q67 0 117 -50.5t50 -122.5q0 -79 -50.5 -127t-116.5 -48z" />
    <glyph glyph-name="Eth" unicode="&#xd0;" 
d="M416 0l-87 285h147q119 0 196.5 44t116 144t38.5 267q0 165 -35 258t-116.5 131t-220.5 38h-132l93 287h81q324 0 489.5 -177.5t165.5 -532.5q0 -239 -76.5 -405t-223 -252.5t-356.5 -86.5h-80zM101 0v1454h315v-1454h-315zM-7 605v248h635l-3 -248h-632z" />
    <glyph glyph-name="Ntilde" unicode="&#xd1;" 
d="M90 0v1454h398l269 -804l109 -364h6l-58 503v665h296v-1454h-402l-267 804l-104 337h-9l58 -492v-649h-296zM744 1562q-67 0 -110 22.5t-72 52.5t-52 52.5t-50 22.5q-37 0 -60.5 -40.5t-9.5 -111.5h-197q-19 168 53 254.5t197 86.5q67 0 109.5 -22.5t71 -52.5t51 -52.5
t49.5 -22.5q38 0 62.5 39.5t11.5 110.5h195q20 -167 -52 -253t-197 -86z" />
    <glyph glyph-name="Ograve" unicode="&#xd2;" 
d="M600 -30q-178 0 -297.5 90t-179.5 260.5t-60 414.5q0 358 135.5 553t401.5 195t401.5 -195t135.5 -553q0 -244 -60 -414.5t-179.5 -260.5t-297.5 -90zM600 262q107 0 161 114.5t54 358.5q0 239 -54 347.5t-161 108.5q-106 0 -160.5 -108.5t-54.5 -347.5
q0 -244 54.5 -358.5t160.5 -114.5zM446 1591l-235 321h332l204 -321h-301z" />
    <glyph glyph-name="Oacute" unicode="&#xd3;" 
d="M600 -30q-178 0 -297.5 90t-179.5 260.5t-60 414.5q0 358 135.5 553t401.5 195t401.5 -195t135.5 -553q0 -244 -60 -414.5t-179.5 -260.5t-297.5 -90zM600 262q107 0 161 114.5t54 358.5q0 239 -54 347.5t-161 108.5q-106 0 -160.5 -108.5t-54.5 -347.5
q0 -244 54.5 -358.5t160.5 -114.5zM744 1591h-301l204 321h332z" />
    <glyph glyph-name="Ocircumflex" unicode="&#xd4;" 
d="M600 -30q-178 0 -297.5 90t-179.5 260.5t-60 414.5q0 358 135.5 553t401.5 195t401.5 -195t135.5 -553q0 -244 -60 -414.5t-179.5 -260.5t-297.5 -90zM600 262q107 0 161 114.5t54 358.5q0 239 -54 347.5t-161 108.5q-106 0 -160.5 -108.5t-54.5 -347.5
q0 -244 54.5 -358.5t160.5 -114.5zM197 1585l272 327h266l270 -327h-258l-145 168l-146 -168h-259z" />
    <glyph glyph-name="Otilde" unicode="&#xd5;" 
d="M600 -30q-178 0 -297.5 90t-179.5 260.5t-60 414.5q0 358 135.5 553t401.5 195t401.5 -195t135.5 -553q0 -244 -60 -414.5t-179.5 -260.5t-297.5 -90zM600 262q107 0 161 114.5t54 358.5q0 239 -54 347.5t-161 108.5q-106 0 -160.5 -108.5t-54.5 -347.5
q0 -244 54.5 -358.5t160.5 -114.5zM752 1562q-67 0 -110 22.5t-72 52.5t-52 52.5t-50 22.5q-37 0 -60.5 -40.5t-9.5 -111.5h-197q-19 168 53 254.5t197 86.5q67 0 109.5 -22.5t71 -52.5t51 -52.5t49.5 -22.5q38 0 62.5 39.5t11.5 110.5h195q20 -167 -52 -253t-197 -86z" />
    <glyph glyph-name="Odieresis" unicode="&#xd6;" 
d="M600 -30q-178 0 -297.5 90t-179.5 260.5t-60 414.5q0 358 135.5 553t401.5 195t401.5 -195t135.5 -553q0 -244 -60 -414.5t-179.5 -260.5t-297.5 -90zM600 262q107 0 161 114.5t54 358.5q0 239 -54 347.5t-161 108.5q-106 0 -160.5 -108.5t-54.5 -347.5
q0 -244 54.5 -358.5t160.5 -114.5zM361 1572q-66 0 -116.5 48t-50.5 127q0 72 50.5 122.5t116.5 50.5t117 -50t51 -123q0 -79 -51.5 -127t-116.5 -48zM841 1572q-65 0 -116 48t-51 127q0 73 51 123t116 50q67 0 117 -50.5t50 -122.5q0 -79 -50.5 -127t-116.5 -48z" />
    <glyph glyph-name="multiply" unicode="&#xd7;" 
d="M339 271l-202 208l320 304l108 102l295 337l202 -205l-331 -315l-92 -91zM861 271l-301 340l-105 107l-318 299l204 205l291 -337l104 -95l323 -311z" />
    <glyph glyph-name="Oslash" unicode="&#xd8;" 
d="M600 -30q-178 0 -297.5 90t-179.5 260.5t-60 414.5q0 358 135.5 553t401.5 195t401.5 -195t135.5 -553q0 -244 -60 -414.5t-179.5 -260.5t-297.5 -90zM600 262q107 0 161 114.5t54 358.5q0 239 -54 347.5t-161 108.5q-106 0 -160.5 -108.5t-54.5 -347.5
q0 -244 54.5 -358.5t160.5 -114.5zM74 -87l129 246l44 42l557 1107l-2 44l97 183h237l-117 -220l-46 -47l-567 -1128l4 -40l-99 -187h-237z" />
    <glyph glyph-name="Ugrave" unicode="&#xd9;" 
d="M600 -20q-156 0 -273.5 63.5t-183 188t-65.5 306.5v918h314v-873q0 -84 13.5 -143t39.5 -96.5t65.5 -54.5t91.5 -17q51 0 90 17t64.5 54t38.5 96.5t13 143.5v871h314v-916q0 -179 -64.5 -304t-182 -189.5t-275.5 -64.5zM446 1591l-235 321h332l204 -321h-301z" />
    <glyph glyph-name="Uacute" unicode="&#xda;" 
d="M600 -20q-156 0 -273.5 63.5t-183 188t-65.5 306.5v918h314v-873q0 -84 13.5 -143t39.5 -96.5t65.5 -54.5t91.5 -17q51 0 90 17t64.5 54t38.5 96.5t13 143.5v871h314v-916q0 -179 -64.5 -304t-182 -189.5t-275.5 -64.5zM744 1591h-301l204 321h332z" />
    <glyph glyph-name="Ucircumflex" unicode="&#xdb;" 
d="M600 -20q-156 0 -273.5 63.5t-183 188t-65.5 306.5v918h314v-873q0 -84 13.5 -143t39.5 -96.5t65.5 -54.5t91.5 -17q51 0 90 17t64.5 54t38.5 96.5t13 143.5v871h314v-916q0 -179 -64.5 -304t-182 -189.5t-275.5 -64.5zM197 1585l272 327h266l270 -327h-258l-145 168
l-146 -168h-259z" />
    <glyph glyph-name="Udieresis" unicode="&#xdc;" 
d="M600 -20q-156 0 -273.5 63.5t-183 188t-65.5 306.5v918h314v-873q0 -84 13.5 -143t39.5 -96.5t65.5 -54.5t91.5 -17q51 0 90 17t64.5 54t38.5 96.5t13 143.5v871h314v-916q0 -179 -64.5 -304t-182 -189.5t-275.5 -64.5zM361 1572q-66 0 -116.5 48t-50.5 127
q0 72 50.5 122.5t116.5 50.5t117 -50t51 -123q0 -79 -51.5 -127t-116.5 -48zM841 1572q-65 0 -116 48t-51 127q0 73 51 123t116 50q67 0 117 -50.5t50 -122.5q0 -79 -50.5 -127t-116.5 -48z" />
    <glyph glyph-name="Yacute" unicode="&#xdd;" 
d="M458 453l-458 1001h336l161 -426l97 -259h11l98 258l161 427h336l-458 -1001h-284zM443 0v645h313v-645h-313zM743 1591h-301l204 321h332z" />
    <glyph glyph-name="Thorn" unicode="&#xde;" 
d="M553 250q-67 0 -97 33.5t-42 100.5l-46 84l69 57h159q83 0 136.5 23.5t80 71t26.5 120.5q0 116 -61.5 160t-184.5 44h-162l-84 276h68h78.5h78h65.5q259 0 393.5 -111t134.5 -351q0 -100 -28 -191t-89.5 -162.5t-162 -113t-244.5 -41.5h-88zM121 0v1454h316v-1454h-316z
" />
    <glyph glyph-name="germandbls" unicode="&#xdf;" 
d="M101 0v1136q0 161 60 261t169 147t255 47q106 0 207.5 -40t168 -122.5t66.5 -212.5q0 -78 -35.5 -154.5t-110.5 -127t-194 -50.5q117 0 201.5 -32t139 -87t80.5 -124t26 -144q0 -143 -60.5 -257.5t-176 -181t-281.5 -66.5q-31 0 -63.5 2t-64.5 5v252q8 -7 46 -10.5
t67 -3.5q107 0 161.5 68.5t54.5 189.5q0 140 -58.5 192.5t-173.5 52.5h-80v215h66q80 0 122 66.5t42 151.5q0 87 -33.5 135t-125.5 48q-59 0 -96.5 -20.5t-54.5 -66.5t-17 -122v-1147h-307z" />
    <glyph glyph-name="agrave" unicode="&#xe0;" 
d="M449 -12q-150 0 -235 85t-85 229q0 125 74.5 197.5t249.5 110.5q38 8 82 15.5t99.5 14t125.5 12.5v56q0 89 -32 126.5t-117 37.5q-82 0 -123 -40.5t-36 -127.5h-294q-11 126 39.5 217.5t157 141t263.5 49.5q223 0 336 -101.5t113 -296.5v-714h-309l2 255
q-13 -87 -55 -146.5t-107 -90t-149 -30.5zM567 194q43 0 85 19.5t71.5 51.5t36.5 71v172q-25 -5 -52 -10t-50 -9.5t-38 -8.5q-86 -21 -131.5 -58t-45.5 -103q0 -60 36 -92.5t88 -32.5zM775 1284h-289l-246 339h331z" />
    <glyph glyph-name="aacute" unicode="&#xe1;" 
d="M449 -12q-150 0 -235 85t-85 229q0 125 74.5 197.5t249.5 110.5q38 8 82 15.5t99.5 14t125.5 12.5v56q0 89 -32 126.5t-117 37.5q-82 0 -123 -40.5t-36 -127.5h-294q-11 126 39.5 217.5t157 141t263.5 49.5q223 0 336 -101.5t113 -296.5v-714h-309l2 255
q-13 -87 -55 -146.5t-107 -90t-149 -30.5zM567 194q43 0 85 19.5t71.5 51.5t36.5 71v172q-25 -5 -52 -10t-50 -9.5t-38 -8.5q-86 -21 -131.5 -58t-45.5 -103q0 -60 36 -92.5t88 -32.5zM480 1284l204 339h332l-246 -339h-290z" />
    <glyph glyph-name="acircumflex" unicode="&#xe2;" 
d="M449 -12q-150 0 -235 85t-85 229q0 125 74.5 197.5t249.5 110.5q38 8 82 15.5t99.5 14t125.5 12.5v56q0 89 -32 126.5t-117 37.5q-82 0 -123 -40.5t-36 -127.5h-294q-11 126 39.5 217.5t157 141t263.5 49.5q223 0 336 -101.5t113 -296.5v-714h-309l2 255
q-13 -87 -55 -146.5t-107 -90t-149 -30.5zM567 194q43 0 85 19.5t71.5 51.5t36.5 71v172q-25 -5 -52 -10t-50 -9.5t-38 -8.5q-86 -21 -131.5 -58t-45.5 -103q0 -60 36 -92.5t88 -32.5zM229 1282l233 342h313l234 -342h-245l-145 187l-146 -187h-244z" />
    <glyph glyph-name="atilde" unicode="&#xe3;" 
d="M449 -12q-150 0 -235 85t-85 229q0 125 74.5 197.5t249.5 110.5q38 8 82 15.5t99.5 14t125.5 12.5v56q0 89 -32 126.5t-117 37.5q-82 0 -123 -40.5t-36 -127.5h-294q-11 126 39.5 217.5t157 141t263.5 49.5q223 0 336 -101.5t113 -296.5v-714h-309l2 255
q-13 -87 -55 -146.5t-107 -90t-149 -30.5zM567 194q43 0 85 19.5t71.5 51.5t36.5 71v172q-25 -5 -52 -10t-50 -9.5t-38 -8.5q-86 -21 -131.5 -58t-45.5 -103q0 -60 36 -92.5t88 -32.5zM770 1262q-67 0 -110 22.5t-72 52.5t-52 52.5t-50 22.5q-37 0 -60.5 -40.5t-9.5 -111.5
h-207q-19 168 52.5 257.5t207.5 89.5q67 0 109.5 -22.5t71 -52.5t51 -52.5t49.5 -22.5q38 0 62.5 39.5t11.5 110.5h204q19 -172 -52.5 -258.5t-205.5 -86.5z" />
    <glyph glyph-name="adieresis" unicode="&#xe4;" 
d="M449 -12q-150 0 -235 85t-85 229q0 125 74.5 197.5t249.5 110.5q38 8 82 15.5t99.5 14t125.5 12.5v56q0 89 -32 126.5t-117 37.5q-82 0 -123 -40.5t-36 -127.5h-294q-11 126 39.5 217.5t157 141t263.5 49.5q223 0 336 -101.5t113 -296.5v-714h-309l2 255
q-13 -87 -55 -146.5t-107 -90t-149 -30.5zM567 194q43 0 85 19.5t71.5 51.5t36.5 71v172q-25 -5 -52 -10t-50 -9.5t-38 -8.5q-86 -21 -131.5 -58t-45.5 -103q0 -60 36 -92.5t88 -32.5zM389 1264q-66 0 -116.5 48t-50.5 127q0 72 50.5 122.5t116.5 50.5t117 -50t51 -123
q0 -79 -51.5 -127t-116.5 -48zM849 1264q-65 0 -116 48t-51 127q0 73 51 123t116 50q67 0 117 -50.5t50 -122.5q0 -79 -50.5 -127t-116.5 -48z" />
    <glyph glyph-name="aring" unicode="&#xe5;" 
d="M449 -12q-150 0 -235 85t-85 229q0 125 74.5 197.5t249.5 110.5q38 8 82 15.5t99.5 14t125.5 12.5v56q0 89 -32 126.5t-117 37.5q-82 0 -123 -40.5t-36 -127.5h-294q-11 126 39.5 217.5t157 141t263.5 49.5q223 0 336 -101.5t113 -296.5v-714h-309l2 255
q-13 -87 -55 -146.5t-107 -90t-149 -30.5zM567 194q43 0 85 19.5t71.5 51.5t36.5 71v172q-25 -5 -52 -10t-50 -9.5t-38 -8.5q-86 -21 -131.5 -58t-45.5 -103q0 -60 36 -92.5t88 -32.5zM619 1251q-127 0 -197 70.5t-70 182.5q0 111 69.5 181t197.5 70q127 0 196.5 -70
t69.5 -181q0 -112 -69.5 -182.5t-196.5 -70.5zM619 1397q46 0 74.5 27.5t28.5 79.5q0 50 -28.5 77.5t-74.5 27.5t-74.5 -27.5t-28.5 -77.5q0 -52 28.5 -79.5t74.5 -27.5z" />
    <glyph glyph-name="ae" unicode="&#xe6;" 
d="M289 -14q-114 0 -180.5 78t-66.5 231q0 131 54 205.5t166 111.5q46 15 96 24t117 16v30q0 119 -14 153.5t-55 34.5q-31 0 -49 -14t-24.5 -46t-6.5 -85h-268q-8 121 33.5 207.5t118.5 133t172 46.5q87 0 151 -38.5t76 -112.5q18 75 86.5 113.5t149.5 38.5
q155 0 238.5 -135.5t83.5 -386.5q0 -25 -1 -47.5t-3 -57.5h-454q0 -108 12 -164.5t34 -76.5t51 -20q45 0 73 33.5t23 97.5h264q-3 -107 -48 -190.5t-118.5 -131.5t-162.5 -48q-56 0 -124 24.5t-123 85t-74 167.5q-19 -136 -68.5 -206.5t-158.5 -70.5zM374 194q25 0 49 19
t41 51.5t21 71.5v172q-28 -7 -38.5 -12t-36.5 -16q-49 -21 -70.5 -57.5t-21.5 -110.5q0 -54 12.5 -86t43.5 -32zM705 560q5 56 33.5 78.5t83.5 22.5h76q2 115 -24.5 162t-65.5 47q-56 0 -80.5 -78t-22.5 -232z" />
    <glyph glyph-name="ccedilla" unicode="&#xe7;" 
d="M629 -19q-167 0 -280.5 71.5t-171 200t-57.5 298.5q0 174 59.5 299.5t172 193.5t270.5 68q161 0 264.5 -59.5t153.5 -162t48 -233.5h-303q-1 55 -12 95t-31.5 66t-50.5 38.5t-69 12.5q-100 0 -148.5 -77.5t-48.5 -235.5q0 -175 53 -253t153 -78q39 0 75 12t58.5 40.5
t20.5 76.5h300q3 -111 -51 -195t-157 -131t-248 -47zM587 -490q-66 0 -127.5 12t-104.5 31l1 185q34 -13 67.5 -21.5t76.5 -8.5q53 0 77 23.5t24 83.5q0 53 -24.5 96.5t-94.5 88.5h179q59 -25 104 -61.5t71 -87t26 -116.5q0 -105 -80 -165t-195 -60z" />
    <glyph glyph-name="egrave" unicode="&#xe8;" 
d="M633 -15q-164 0 -279 66t-175.5 191t-60.5 302q0 185 64 312t180 192t271 65q224 0 338.5 -132.5t114.5 -374.5q0 -27 -1.5 -56t-3.5 -61h-656q7 -92 27.5 -150.5t62 -86t110.5 -27.5q62 0 102 35t47 96h300q-8 -112 -66.5 -195.5t-154.5 -129.5t-220 -46zM419 561
q8 59 40.5 79.5t83.5 20.5h242q-1 105 -38.5 157t-124.5 52q-106 0 -155.5 -72.5t-47.5 -236.5zM791 1284h-289l-246 339h331z" />
    <glyph glyph-name="eacute" unicode="&#xe9;" 
d="M633 -15q-164 0 -279 66t-175.5 191t-60.5 302q0 185 64 312t180 192t271 65q224 0 338.5 -132.5t114.5 -374.5q0 -27 -1.5 -56t-3.5 -61h-656q7 -92 27.5 -150.5t62 -86t110.5 -27.5q62 0 102 35t47 96h300q-8 -112 -66.5 -195.5t-154.5 -129.5t-220 -46zM419 561
q8 59 40.5 79.5t83.5 20.5h242q-1 105 -38.5 157t-124.5 52q-106 0 -155.5 -72.5t-47.5 -236.5zM496 1284l204 339h332l-246 -339h-290z" />
    <glyph glyph-name="ecircumflex" unicode="&#xea;" 
d="M633 -15q-164 0 -279 66t-175.5 191t-60.5 302q0 185 64 312t180 192t271 65q224 0 338.5 -132.5t114.5 -374.5q0 -27 -1.5 -56t-3.5 -61h-656q7 -92 27.5 -150.5t62 -86t110.5 -27.5q62 0 102 35t47 96h300q-8 -112 -66.5 -195.5t-154.5 -129.5t-220 -46zM419 561
q8 59 40.5 79.5t83.5 20.5h242q-1 105 -38.5 157t-124.5 52q-106 0 -155.5 -72.5t-47.5 -236.5zM245 1282l233 342h313l234 -342h-245l-145 187l-146 -187h-244z" />
    <glyph glyph-name="edieresis" unicode="&#xeb;" 
d="M633 -15q-164 0 -279 66t-175.5 191t-60.5 302q0 185 64 312t180 192t271 65q224 0 338.5 -132.5t114.5 -374.5q0 -27 -1.5 -56t-3.5 -61h-656q7 -92 27.5 -150.5t62 -86t110.5 -27.5q62 0 102 35t47 96h300q-8 -112 -66.5 -195.5t-154.5 -129.5t-220 -46zM419 561
q8 59 40.5 79.5t83.5 20.5h242q-1 105 -38.5 157t-124.5 52q-106 0 -155.5 -72.5t-47.5 -236.5zM405 1264q-66 0 -116.5 48t-50.5 127q0 72 50.5 122.5t116.5 50.5t117 -50t51 -123q0 -79 -51.5 -127t-116.5 -48zM865 1264q-65 0 -116 48t-51 127q0 73 51 123t116 50
q67 0 117 -50.5t50 -122.5q0 -79 -50.5 -127t-116.5 -48z" />
    <glyph glyph-name="igrave" unicode="&#xec;" 
d="M488 30v649q0 94 27 124.5t82 39.5l-109 78v54l302 116l-2 -1061h-300zM167 0v218h933v-218h-933zM133 843v248h657l-45 -248h-612zM793 1284h-289l-246 339h331z" />
    <glyph glyph-name="iacute" unicode="&#xed;" 
d="M488 30v649q0 94 27 124.5t82 39.5l-109 78v54l302 116l-2 -1061h-300zM167 0v218h933v-218h-933zM133 843v248h657l-45 -248h-612zM498 1284l204 339h332l-246 -339h-290z" />
    <glyph glyph-name="icircumflex" unicode="&#xee;" 
d="M488 30v649q0 94 27 124.5t82 39.5l-109 78v54l302 116l-2 -1061h-300zM167 0v218h933v-218h-933zM133 843v248h657l-45 -248h-612zM247 1282l233 342h313l234 -342h-245l-145 187l-146 -187h-244z" />
    <glyph glyph-name="idieresis" unicode="&#xef;" 
d="M488 30v649q0 94 27 124.5t82 39.5l-109 78v54l302 116l-2 -1061h-300zM167 0v218h933v-218h-933zM133 843v248h657l-45 -248h-612zM407 1264q-66 0 -116.5 48t-50.5 127q0 72 50.5 122.5t116.5 50.5t117 -50t51 -123q0 -79 -51.5 -127t-116.5 -48zM867 1264
q-65 0 -116 48t-51 127q0 73 51 123t116 50q67 0 117 -50.5t50 -122.5q0 -79 -50.5 -127t-116.5 -48z" />
    <glyph glyph-name="eth" unicode="&#xf0;" 
d="M608 -15q-155 0 -270 70.5t-178 198t-63 296.5t58.5 283.5t152 173t198.5 58.5q100 0 161 -43.5t95 -102.5q-18 79 -57.5 165t-92.5 170l-200 -93l-60 219l134 47q-46 56 -95 105.5t-98 87.5l370 26q26 -23 52.5 -50.5t53.5 -59.5l208 84l48 -212l-133 -45
q88 -143 149.5 -331t61.5 -410q0 -167 -37.5 -287.5t-105 -198t-157.5 -114.5t-195 -37zM611 242q65 0 105.5 35.5t59 104t18.5 167.5q0 41 -3.5 76t-9.5 65.5t-13 57.5q-17 23 -38 41.5t-49.5 29.5t-70.5 11q-61 0 -104.5 -26.5t-66.5 -88.5t-23 -169q0 -154 47 -229
t148 -75z" />
    <glyph glyph-name="ntilde" unicode="&#xf1;" 
d="M155 0v1092h276l25 -412l-12 83q20 175 97.5 263t219.5 88q156 0 234 -102.5t78 -288.5v-723h-308v627q0 120 -30 173.5t-99 53.5q-57 0 -100.5 -34t-72.5 -96v-724h-308zM771 1262q-67 0 -110 22.5t-72 52.5t-52 52.5t-50 22.5q-37 0 -60.5 -40.5t-9.5 -111.5h-207
q-19 168 52.5 257.5t207.5 89.5q67 0 109.5 -22.5t71 -52.5t51 -52.5t49.5 -22.5q38 0 62.5 39.5t11.5 110.5h204q19 -172 -52.5 -258.5t-205.5 -86.5z" />
    <glyph glyph-name="ograve" unicode="&#xf2;" 
d="M593 -15q-150 0 -261.5 68t-173 193.5t-61.5 296.5q0 179 65.5 306.5t181 195.5t264.5 68q152 0 263 -69.5t171.5 -195.5t60.5 -296q0 -180 -66 -306.5t-181 -193.5t-263 -67zM602 242q78 0 133 69t55 239q0 173 -56.5 239.5t-135.5 66.5t-133 -66.5t-54 -234.5
q0 -175 57.5 -244t133.5 -69zM757 1284h-289l-246 339h331z" />
    <glyph glyph-name="oacute" unicode="&#xf3;" 
d="M593 -15q-150 0 -261.5 68t-173 193.5t-61.5 296.5q0 179 65.5 306.5t181 195.5t264.5 68q152 0 263 -69.5t171.5 -195.5t60.5 -296q0 -180 -66 -306.5t-181 -193.5t-263 -67zM602 242q78 0 133 69t55 239q0 173 -56.5 239.5t-135.5 66.5t-133 -66.5t-54 -234.5
q0 -175 57.5 -244t133.5 -69zM462 1284l204 339h332l-246 -339h-290z" />
    <glyph glyph-name="ocircumflex" unicode="&#xf4;" 
d="M593 -15q-150 0 -261.5 68t-173 193.5t-61.5 296.5q0 179 65.5 306.5t181 195.5t264.5 68q152 0 263 -69.5t171.5 -195.5t60.5 -296q0 -180 -66 -306.5t-181 -193.5t-263 -67zM602 242q78 0 133 69t55 239q0 173 -56.5 239.5t-135.5 66.5t-133 -66.5t-54 -234.5
q0 -175 57.5 -244t133.5 -69zM211 1282l233 342h313l234 -342h-245l-145 187l-146 -187h-244z" />
    <glyph glyph-name="otilde" unicode="&#xf5;" 
d="M593 -15q-150 0 -261.5 68t-173 193.5t-61.5 296.5q0 179 65.5 306.5t181 195.5t264.5 68q152 0 263 -69.5t171.5 -195.5t60.5 -296q0 -180 -66 -306.5t-181 -193.5t-263 -67zM602 242q78 0 133 69t55 239q0 173 -56.5 239.5t-135.5 66.5t-133 -66.5t-54 -234.5
q0 -175 57.5 -244t133.5 -69zM752 1262q-67 0 -110 22.5t-72 52.5t-52 52.5t-50 22.5q-37 0 -60.5 -40.5t-9.5 -111.5h-207q-19 168 52.5 257.5t207.5 89.5q67 0 109.5 -22.5t71 -52.5t51 -52.5t49.5 -22.5q38 0 62.5 39.5t11.5 110.5h204q19 -172 -52.5 -258.5
t-205.5 -86.5z" />
    <glyph glyph-name="odieresis" unicode="&#xf6;" 
d="M593 -15q-150 0 -261.5 68t-173 193.5t-61.5 296.5q0 179 65.5 306.5t181 195.5t264.5 68q152 0 263 -69.5t171.5 -195.5t60.5 -296q0 -180 -66 -306.5t-181 -193.5t-263 -67zM602 242q78 0 133 69t55 239q0 173 -56.5 239.5t-135.5 66.5t-133 -66.5t-54 -234.5
q0 -175 57.5 -244t133.5 -69zM371 1264q-66 0 -116.5 48t-50.5 127q0 72 50.5 122.5t116.5 50.5t117 -50t51 -123q0 -79 -51.5 -127t-116.5 -48zM831 1264q-65 0 -116 48t-51 127q0 73 51 123t116 50q67 0 117 -50.5t50 -122.5q0 -79 -50.5 -127t-116.5 -48z" />
    <glyph glyph-name="divide" unicode="&#xf7;" 
d="M102 629v265h997v-265h-997zM601 981q-71 0 -122 51t-51 130q0 78 51 128t122 50t121.5 -50t50.5 -128q0 -79 -50.5 -130t-121.5 -51zM601 182q-71 0 -122 51t-51 130q0 77 51 128t122 51t121.5 -51t50.5 -128q0 -79 -50.5 -130t-121.5 -51z" />
    <glyph glyph-name="oslash" unicode="&#xf8;" 
d="M593 -15q-150 0 -261.5 68t-173 193.5t-61.5 296.5q0 179 65.5 306.5t181 195.5t264.5 68q152 0 263 -69.5t171.5 -195.5t60.5 -296q0 -180 -66 -306.5t-181 -193.5t-263 -67zM602 242q78 0 133 69t55 239q0 173 -56.5 239.5t-135.5 66.5t-133 -66.5t-54 -234.5
q0 -175 57.5 -244t133.5 -69zM143 -54l150 238l49 34l412 713l5 35l111 178h182l-130 -207l-47 -38l-422 -730l-7 -31l-121 -192h-182z" />
    <glyph glyph-name="ugrave" unicode="&#xf9;" 
d="M442 -22q-148 0 -227 98.5t-79 297.5v718h308v-674q0 -119 34.5 -152.5t91.5 -33.5q65 0 112 40t73 96v724h308v-1092h-273l-27 412l11 -83q-14 -114 -56.5 -192.5t-111 -118.5t-164.5 -40zM754 1284h-289l-246 339h331z" />
    <glyph glyph-name="uacute" unicode="&#xfa;" 
d="M442 -22q-148 0 -227 98.5t-79 297.5v718h308v-674q0 -119 34.5 -152.5t91.5 -33.5q65 0 112 40t73 96v724h308v-1092h-273l-27 412l11 -83q-14 -114 -56.5 -192.5t-111 -118.5t-164.5 -40zM459 1284l204 339h332l-246 -339h-290z" />
    <glyph glyph-name="ucircumflex" unicode="&#xfb;" 
d="M442 -22q-148 0 -227 98.5t-79 297.5v718h308v-674q0 -119 34.5 -152.5t91.5 -33.5q65 0 112 40t73 96v724h308v-1092h-273l-27 412l11 -83q-14 -114 -56.5 -192.5t-111 -118.5t-164.5 -40zM208 1282l233 342h313l234 -342h-245l-145 187l-146 -187h-244z" />
    <glyph glyph-name="udieresis" unicode="&#xfc;" 
d="M442 -22q-148 0 -227 98.5t-79 297.5v718h308v-674q0 -119 34.5 -152.5t91.5 -33.5q65 0 112 40t73 96v724h308v-1092h-273l-27 412l11 -83q-14 -114 -56.5 -192.5t-111 -118.5t-164.5 -40zM368 1264q-66 0 -116.5 48t-50.5 127q0 72 50.5 122.5t116.5 50.5t117 -50
t51 -123q0 -79 -51.5 -127t-116.5 -48zM828 1264q-65 0 -116 48t-51 127q0 73 51 123t116 50q67 0 117 -50.5t50 -122.5q0 -79 -50.5 -127t-116.5 -48z" />
    <glyph glyph-name="yacute" unicode="&#xfd;" 
d="M182 -443v264h100q69 0 110 14.5t63 39t33 53.5q14 34 28.5 50t56.5 22h-151l-375 1091h340l148 -563l58 -212h9l52 211l143 564h338l-359 -1091q-37 -114 -79 -197.5t-99 -138t-138.5 -81t-197.5 -26.5h-80zM452 1284l204 339h332l-246 -339h-290z" />
    <glyph glyph-name="thorn" unicode="&#xfe;" 
d="M709 -13q-73 0 -129 30t-91 85t-47 131l-123 -40l133 181q17 -59 56.5 -95t100.5 -36q63 0 111.5 36t76.5 105.5t28 169.5q0 168 -54.5 235.5t-138.5 67.5q-40 0 -78.5 -20.5t-66 -54t-35.5 -74.5v111q24 95 61.5 160.5t97.5 99t150 33.5q99 0 184 -63.5t137 -187.5
t52 -306q0 -174 -56.5 -301.5t-153 -197t-215.5 -69.5zM145 -403v1964h307v-581v-692l-10 -55l10 -234v-402h-307z" />
    <glyph glyph-name="ydieresis" unicode="&#xff;" 
d="M182 -443v264h100q69 0 110 14.5t63 39t33 53.5q14 34 28.5 50t56.5 22h-151l-375 1091h340l148 -563l58 -212h9l52 211l143 564h338l-359 -1091q-37 -114 -79 -197.5t-99 -138t-138.5 -81t-197.5 -26.5h-80zM361 1264q-66 0 -116.5 48t-50.5 127q0 72 50.5 122.5
t116.5 50.5t117 -50t51 -123q0 -79 -51.5 -127t-116.5 -48zM821 1264q-65 0 -116 48t-51 127q0 73 51 123t116 50q67 0 117 -50.5t50 -122.5q0 -79 -50.5 -127t-116.5 -48z" />
    <glyph glyph-name="Amacron" unicode="&#x100;" 
d="M-11 0l363 1454h496l363 -1454h-334l-107 470l177 -132h-647l10 252h569l-110 -116l-94 473l-65 297h-20l-65 -297l-202 -947h-334zM268 1603v243h662l-3 -243h-659z" />
    <glyph glyph-name="amacron" unicode="&#x101;" 
d="M449 -12q-150 0 -235 85t-85 229q0 125 74.5 197.5t249.5 110.5q38 8 82 15.5t99.5 14t125.5 12.5v56q0 89 -32 126.5t-117 37.5q-82 0 -123 -40.5t-36 -127.5h-294q-11 126 39.5 217.5t157 141t263.5 49.5q223 0 336 -101.5t113 -296.5v-714h-309l2 255
q-13 -87 -55 -146.5t-107 -90t-149 -30.5zM567 194q43 0 85 19.5t71.5 51.5t36.5 71v172q-25 -5 -52 -10t-50 -9.5t-38 -8.5q-86 -21 -131.5 -58t-45.5 -103q0 -60 36 -92.5t88 -32.5zM313 1294v232h612l-3 -232h-609z" />
    <glyph glyph-name="Abreve" unicode="&#x102;" 
d="M-11 0l363 1454h496l363 -1454h-334l-107 470l177 -132h-647l10 252h569l-110 -116l-94 473l-65 297h-20l-65 -297l-202 -947h-334zM600 1581q-166 0 -263 73t-90 258h229q-8 -80 23 -117.5t101 -37.5q69 0 100.5 37.5t23.5 117.5h228q5 -123 -37.5 -195.5t-123.5 -104
t-191 -31.5z" />
    <glyph glyph-name="abreve" unicode="&#x103;" 
d="M449 -12q-150 0 -235 85t-85 229q0 125 74.5 197.5t249.5 110.5q38 8 82 15.5t99.5 14t125.5 12.5v56q0 89 -32 126.5t-117 37.5q-82 0 -123 -40.5t-36 -127.5h-294q-11 126 39.5 217.5t157 141t263.5 49.5q223 0 336 -101.5t113 -296.5v-714h-309l2 255
q-13 -87 -55 -146.5t-107 -90t-149 -30.5zM567 194q43 0 85 19.5t71.5 51.5t36.5 71v172q-25 -5 -52 -10t-50 -9.5t-38 -8.5q-86 -21 -131.5 -58t-45.5 -103q0 -60 36 -92.5t88 -32.5zM619 1260q-167 0 -263.5 91.5t-81.5 249.5h217q-5 -50 9 -87.5t44.5 -58t74.5 -20.5
t74.5 20.5t44.5 58t8 87.5h218q15 -158 -81.5 -249.5t-263.5 -91.5z" />
    <glyph glyph-name="Aogonek" unicode="&#x104;" 
d="M-11 0l363 1454h496l363 -1454h-334l-107 470l177 -132h-647l10 252h569l-110 -116l-94 473l-65 297h-20l-65 -297l-202 -947h-334zM1015 -467q-77 0 -139.5 25t-99 71.5t-36.5 108.5q0 86 56 163.5t167 98.5h236q-102 -52 -150 -88t-48 -96q0 -36 24.5 -57t62.5 -21
q54 0 107 28l2 -192q-43 -20 -86.5 -30.5t-95.5 -10.5z" />
    <glyph glyph-name="aogonek" unicode="&#x105;" 
d="M449 -12q-150 0 -235 85t-85 229q0 125 74.5 197.5t249.5 110.5q38 8 82 15.5t99.5 14t125.5 12.5v56q0 89 -32 126.5t-117 37.5q-82 0 -123 -40.5t-36 -127.5h-294q-11 126 39.5 217.5t157 141t263.5 49.5q223 0 336 -101.5t113 -296.5v-714h-309l2 255
q-13 -87 -55 -146.5t-107 -90t-149 -30.5zM567 194q43 0 85 19.5t71.5 51.5t36.5 71v172q-25 -5 -52 -10t-50 -9.5t-38 -8.5q-86 -21 -131.5 -58t-45.5 -103q0 -60 36 -92.5t88 -32.5zM863 -467q-115 0 -185 55.5t-70 149.5q0 86 71 163.5t234 98.5h154q-102 -52 -147 -88
t-45 -96q0 -36 21.5 -57t59.5 -21q54 0 107 28l2 -192q-43 -20 -96.5 -30.5t-105.5 -10.5z" />
    <glyph glyph-name="Cacute" unicode="&#x106;" 
d="M610 -29q-177 0 -297 90.5t-180.5 261t-60.5 411.5q0 242 62 408.5t186.5 252.5t310.5 86q148 0 253 -70.5t158.5 -198.5t45.5 -301h-290q-5 81 -23 143t-56.5 96.5t-107.5 34.5q-72 0 -122.5 -47t-76 -148t-24.5 -263q2 -230 57.5 -344.5t158.5 -114.5q65 0 102.5 19.5
t53.5 58t15 94.5h311q2 -102 -32.5 -187.5t-98.5 -148.5t-152 -98t-193 -35zM786 1591h-301l204 321h332z" />
    <glyph glyph-name="cacute" unicode="&#x107;" 
d="M629 -19q-167 0 -280.5 71.5t-171 200t-57.5 298.5q0 174 59.5 299.5t172 193.5t270.5 68q161 0 264.5 -59.5t153.5 -162t48 -233.5h-303q-1 55 -12 95t-31.5 66t-50.5 38.5t-69 12.5q-100 0 -148.5 -77.5t-48.5 -235.5q0 -175 53 -253t153 -78q39 0 75 12t58.5 40.5
t20.5 76.5h300q3 -111 -51 -195t-157 -131t-248 -47zM460 1284l204 339h332l-246 -339h-290z" />
    <glyph glyph-name="Cdotaccent" unicode="&#x10a;" 
d="M610 -29q-177 0 -297 90.5t-180.5 261t-60.5 411.5q0 242 62 408.5t186.5 252.5t310.5 86q148 0 253 -70.5t158.5 -198.5t45.5 -301h-290q-5 81 -23 143t-56.5 96.5t-107.5 34.5q-72 0 -122.5 -47t-76 -148t-24.5 -263q2 -230 57.5 -344.5t158.5 -114.5q65 0 102.5 19.5
t53.5 58t15 94.5h311q2 -102 -32.5 -187.5t-98.5 -148.5t-152 -98t-193 -35zM643 1572q-67 0 -120 48t-53 127q0 73 53 123t120 50q69 0 121 -50.5t52 -122.5q0 -79 -52.5 -127t-120.5 -48z" />
    <glyph glyph-name="cdotaccent" unicode="&#x10b;" 
d="M629 -19q-167 0 -280.5 71.5t-171 200t-57.5 298.5q0 174 59.5 299.5t172 193.5t270.5 68q161 0 264.5 -59.5t153.5 -162t48 -233.5h-303q-1 55 -12 95t-31.5 66t-50.5 38.5t-69 12.5q-100 0 -148.5 -77.5t-48.5 -235.5q0 -175 53 -253t153 -78q39 0 75 12t58.5 40.5
t20.5 76.5h300q3 -111 -51 -195t-157 -131t-248 -47zM599 1280q-82 0 -139.5 54t-57.5 146q0 95 58 148.5t139 53.5q82 0 139.5 -53.5t57.5 -148.5q0 -92 -58.5 -146t-138.5 -54z" />
    <glyph glyph-name="Ccaron" unicode="&#x10c;" 
d="M610 -29q-177 0 -297 90.5t-180.5 261t-60.5 411.5q0 242 62 408.5t186.5 252.5t310.5 86q148 0 253 -70.5t158.5 -198.5t45.5 -301h-290q-5 81 -23 143t-56.5 96.5t-107.5 34.5q-72 0 -122.5 -47t-76 -148t-24.5 -263q2 -230 57.5 -344.5t158.5 -114.5q65 0 102.5 19.5
t53.5 58t15 94.5h311q2 -102 -32.5 -187.5t-98.5 -148.5t-152 -98t-193 -35zM511 1585l-272 327h259l146 -168l145 168h258l-270 -327h-266z" />
    <glyph glyph-name="ccaron" unicode="&#x10d;" 
d="M629 -19q-167 0 -280.5 71.5t-171 200t-57.5 298.5q0 174 59.5 299.5t172 193.5t270.5 68q161 0 264.5 -59.5t153.5 -162t48 -233.5h-303q-1 55 -12 95t-31.5 66t-50.5 38.5t-69 12.5q-100 0 -148.5 -77.5t-48.5 -235.5q0 -175 53 -253t153 -78q39 0 75 12t58.5 40.5
t20.5 76.5h300q3 -111 -51 -195t-157 -131t-248 -47zM442 1277l-233 342h244l146 -187l145 187h245l-234 -342h-313z" />
    <glyph glyph-name="Dcaron" unicode="&#x10e;" 
d="M416 0l-87 285h147q119 0 196.5 44t116 144t38.5 267q0 165 -35 258t-116.5 131t-220.5 38h-132l93 287h81q324 0 489.5 -177.5t165.5 -532.5q0 -239 -76.5 -405t-223 -252.5t-356.5 -86.5h-80zM101 0v1454h315v-1454h-315zM430 1585l-272 327h259l146 -168l145 168h258
l-270 -327h-266z" />
    <glyph glyph-name="dcaron" unicode="&#x10f;" 
d="M492 -13q-115 0 -205.5 68.5t-142.5 194t-52 296.5q0 175 56.5 302t153 195.5t215.5 68.5q74 0 128 -28t89 -81t50 -127l35 -92l-45 -59q-10 40 -31.5 69t-52.5 45.5t-72 16.5q-94 0 -156 -78.5t-62 -230.5q0 -101 26 -169t74 -102t113 -34q39 0 73 20t57.5 53t30.5 71
l11 -44l-11 -74q-23 -88 -60 -151t-91.5 -96.5t-130.5 -33.5zM777 0l-3 348v1213h307v-1561h-304zM1180 1175l2 386h244l-27 -386h-219z" />
    <glyph glyph-name="Dcroat" unicode="&#x110;" 
d="M416 0l-87 285h147q119 0 196.5 44t116 144t38.5 267q0 165 -35 258t-116.5 131t-220.5 38h-132l93 287h81q324 0 489.5 -177.5t165.5 -532.5q0 -239 -76.5 -405t-223 -252.5t-356.5 -86.5h-80zM101 0v1454h315v-1454h-315zM-7 605v248h635l-3 -248h-632z" />
    <glyph glyph-name="dcroat" unicode="&#x111;" 
d="M558 1197v226h638l3 -226h-641zM492 -13q-115 0 -205.5 68.5t-142.5 194t-52 296.5q0 175 56.5 302t153 195.5t215.5 68.5q74 0 128 -28t89 -81t50 -127l35 -92l-45 -59q-10 40 -31.5 69t-52.5 45.5t-72 16.5q-94 0 -156 -78.5t-62 -230.5q0 -101 26 -169t74 -102
t113 -34q39 0 73 20t57.5 53t30.5 71l11 -44l-11 -74q-23 -88 -60 -151t-91.5 -96.5t-130.5 -33.5zM777 0l-3 348v1208h307v-1556h-304z" />
    <glyph glyph-name="Emacron" unicode="&#x112;" 
d="M140 0v1454h927v-278h-718l99 74v-432l-99 63h650v-264h-637l86 62v-468l-99 75h750v-286h-959zM291 1603v243h662l-3 -243h-659z" />
    <glyph glyph-name="emacron" unicode="&#x113;" 
d="M633 -15q-164 0 -279 66t-175.5 191t-60.5 302q0 185 64 312t180 192t271 65q224 0 338.5 -132.5t114.5 -374.5q0 -27 -1.5 -56t-3.5 -61h-656q7 -92 27.5 -150.5t62 -86t110.5 -27.5q62 0 102 35t47 96h300q-8 -112 -66.5 -195.5t-154.5 -129.5t-220 -46zM419 561
q8 59 40.5 79.5t83.5 20.5h242q-1 105 -38.5 157t-124.5 52q-106 0 -155.5 -72.5t-47.5 -236.5zM329 1294v232h612l-3 -232h-609z" />
    <glyph glyph-name="Ebreve" unicode="&#x114;" 
d="M140 0v1454h927v-278h-718l99 74v-432l-99 63h650v-264h-637l86 62v-468l-99 75h750v-286h-959zM623 1581q-166 0 -263 73t-90 258h229q-8 -80 23 -117.5t101 -37.5q69 0 100.5 37.5t23.5 117.5h228q5 -123 -37.5 -195.5t-123.5 -104t-191 -31.5z" />
    <glyph glyph-name="ebreve" unicode="&#x115;" 
d="M633 -15q-164 0 -279 66t-175.5 191t-60.5 302q0 185 64 312t180 192t271 65q224 0 338.5 -132.5t114.5 -374.5q0 -27 -1.5 -56t-3.5 -61h-656q7 -92 27.5 -150.5t62 -86t110.5 -27.5q62 0 102 35t47 96h300q-8 -112 -66.5 -195.5t-154.5 -129.5t-220 -46zM419 561
q8 59 40.5 79.5t83.5 20.5h242q-1 105 -38.5 157t-124.5 52q-106 0 -155.5 -72.5t-47.5 -236.5zM635 1260q-167 0 -263.5 91.5t-81.5 249.5h217q-5 -50 9 -87.5t44.5 -58t74.5 -20.5t74.5 20.5t44.5 58t8 87.5h218q15 -158 -81.5 -249.5t-263.5 -91.5z" />
    <glyph glyph-name="Edotaccent" unicode="&#x116;" 
d="M140 0v1454h927v-278h-718l99 74v-432l-99 63h650v-264h-637l86 62v-468l-99 75h750v-286h-959zM622 1572q-67 0 -120 48t-53 127q0 73 53 123t120 50q69 0 121 -50.5t52 -122.5q0 -79 -52.5 -127t-120.5 -48z" />
    <glyph glyph-name="edotaccent" unicode="&#x117;" 
d="M633 -15q-164 0 -279 66t-175.5 191t-60.5 302q0 185 64 312t180 192t271 65q224 0 338.5 -132.5t114.5 -374.5q0 -27 -1.5 -56t-3.5 -61h-656q7 -92 27.5 -150.5t62 -86t110.5 -27.5q62 0 102 35t47 96h300q-8 -112 -66.5 -195.5t-154.5 -129.5t-220 -46zM419 561
q8 59 40.5 79.5t83.5 20.5h242q-1 105 -38.5 157t-124.5 52q-106 0 -155.5 -72.5t-47.5 -236.5zM635 1280q-82 0 -139.5 54t-57.5 146q0 95 58 148.5t139 53.5q82 0 139.5 -53.5t57.5 -148.5q0 -92 -58.5 -146t-138.5 -54z" />
    <glyph glyph-name="Eogonek" unicode="&#x118;" 
d="M140 0v1454h927v-278h-718l99 74v-432l-99 63h650v-264h-637l86 62v-468l-99 75h750v-286h-959zM915 -467q-77 0 -139.5 25t-99 71.5t-36.5 108.5q0 86 56 163.5t167 98.5h236q-102 -52 -150 -88t-48 -96q0 -36 24.5 -57t62.5 -21q54 0 107 28l2 -192
q-43 -20 -86.5 -30.5t-95.5 -10.5z" />
    <glyph glyph-name="eogonek" unicode="&#x119;" 
d="M746 -467q-111 0 -176.5 55t-65.5 134q0 85 39.5 147.5t101 104.5t126.5 65l92 19q-50 -47 -78.5 -91.5t-39.5 -85.5t-11 -79q0 -50 37 -66.5t72 -16.5q21 0 46.5 6.5t49.5 18.5l1 -175q-38 -16 -85 -26t-109 -10zM583 -15q-166 0 -283 66t-179 191.5t-62 303.5
q0 184 66 310.5t186 191.5t281 65q156 0 262.5 -59t161.5 -174t55 -283q0 -21 -1.5 -48.5t-3.5 -62.5l-299 166q-2 110 -47.5 164t-140.5 54q-109 0 -160 -80.5t-51 -228.5q0 -175 55 -255.5t161 -80.5q82 0 124.5 36t50.5 95h298q-9 -113 -68.5 -196.5t-162.5 -129
t-243 -45.5zM356 486l15 91q7 42 38 63t89 21h505l63 -175h-710z" />
    <glyph glyph-name="Ecaron" unicode="&#x11a;" 
d="M140 0v1454h927v-278h-718l99 74v-432l-99 63h650v-264h-637l86 62v-468l-99 75h750v-286h-959zM490 1585l-272 327h259l146 -168l145 168h258l-270 -327h-266z" />
    <glyph glyph-name="ecaron" unicode="&#x11b;" 
d="M633 -15q-164 0 -279 66t-175.5 191t-60.5 302q0 185 64 312t180 192t271 65q224 0 338.5 -132.5t114.5 -374.5q0 -27 -1.5 -56t-3.5 -61h-656q7 -92 27.5 -150.5t62 -86t110.5 -27.5q62 0 102 35t47 96h300q-8 -112 -66.5 -195.5t-154.5 -129.5t-220 -46zM419 561
q8 59 40.5 79.5t83.5 20.5h242q-1 105 -38.5 157t-124.5 52q-106 0 -155.5 -72.5t-47.5 -236.5zM478 1277l-233 342h244l146 -187l145 187h245l-234 -342h-313z" />
    <glyph glyph-name="Gbreve" unicode="&#x11e;" 
d="M644 -28q-176 0 -306.5 90.5t-202.5 261t-72 411.5q0 237 69.5 403.5t198.5 254t307 88.5q149 1 252.5 -55t159 -165.5t57.5 -270.5h-289q-8 40 -20 85.5t-47 78t-111 32.5q-91 0 -147 -51.5t-82 -152t-26 -247.5q0 -144 25.5 -249t79.5 -162t140 -57q72 0 115.5 21
t68.5 42v209h-198v274h484v-633q-35 -49 -99 -97t-153.5 -79.5t-203.5 -31.5zM610 1581q-166 0 -263 73t-90 258h229q-8 -80 23 -117.5t101 -37.5q69 0 100.5 37.5t23.5 117.5h228q5 -123 -37.5 -195.5t-123.5 -104t-191 -31.5z" />
    <glyph glyph-name="gbreve" unicode="&#x11f;" 
d="M600 1260q-167 0 -263.5 91.5t-81.5 249.5h217q-5 -50 9 -87.5t44.5 -58t74.5 -20.5t74.5 20.5t44.5 58t8 87.5h218q15 -158 -81.5 -249.5t-263.5 -91.5zM606 -458q-179 0 -301.5 38t-184.5 108.5t-62 167.5q0 63 34.5 106.5t93.5 66t132 20.5l41 5q-14 -12 -24 -26.5
t-15.5 -33.5t-5.5 -42q0 -58 34.5 -95.5t98 -55.5t151.5 -18q122 0 187 27.5t64 85.5q0 44 -33.5 63t-121.5 29l-259 32q-134 17 -201.5 51.5t-90 78t-22.5 85.5q0 58 35 98.5t86.5 65.5t101 36t78.5 8q-28 -14 -50.5 -33t-22.5 -63q0 -34 27 -50.5t110 -27.5l280 -35
q153 -19 233.5 -63t110 -108t29.5 -143q0 -92 -44.5 -162.5t-120.5 -118.5t-171.5 -72.5t-196.5 -24.5zM612 384q-222 0 -344 98.5t-122 266.5q0 167 122.5 265t345.5 96q131 -1 236 -45.5t166.5 -126t61.5 -194.5q0 -166 -122 -263t-344 -97zM613 594q86 0 128 36t42 115
q0 80 -42.5 117.5t-129.5 37.5q-79 0 -125 -36t-46 -114q0 -81 46.5 -118.5t126.5 -37.5zM829 1059l-26 10q9 123 53.5 186.5t104.5 86.5t115 23q20 0 42.5 -2t34.5 -7v-266q-46 11 -81.5 16t-67.5 5q-25 0 -53.5 -4.5t-59 -16t-62.5 -31.5z" />
    <glyph glyph-name="Gdotaccent" unicode="&#x120;" 
d="M644 -28q-176 0 -306.5 90.5t-202.5 261t-72 411.5q0 237 69.5 403.5t198.5 254t307 88.5q149 1 252.5 -55t159 -165.5t57.5 -270.5h-289q-8 40 -20 85.5t-47 78t-111 32.5q-91 0 -147 -51.5t-82 -152t-26 -247.5q0 -144 25.5 -249t79.5 -162t140 -57q72 0 115.5 21
t68.5 42v209h-198v274h484v-633q-35 -49 -99 -97t-153.5 -79.5t-203.5 -31.5zM609 1572q-67 0 -120 48t-53 127q0 73 53 123t120 50q69 0 121 -50.5t52 -122.5q0 -79 -52.5 -127t-120.5 -48z" />
    <glyph glyph-name="gdotaccent" unicode="&#x121;" 
d="M606 -458q-179 0 -301.5 38t-184.5 108.5t-62 167.5q0 63 34.5 106.5t93.5 66t132 20.5l41 5q-14 -12 -24 -26.5t-15.5 -33.5t-5.5 -42q0 -58 34.5 -95.5t98 -55.5t151.5 -18q122 0 187 27.5t64 85.5q0 44 -33.5 63t-121.5 29l-259 32q-134 17 -201.5 51.5t-90 78
t-22.5 85.5q0 58 35 98.5t86.5 65.5t101 36t78.5 8q-28 -14 -50.5 -33t-22.5 -63q0 -34 27 -50.5t110 -27.5l280 -35q153 -19 233.5 -63t110 -108t29.5 -143q0 -92 -44.5 -162.5t-120.5 -118.5t-171.5 -72.5t-196.5 -24.5zM612 384q-222 0 -344 98.5t-122 266.5
q0 167 122.5 265t345.5 96q131 -1 236 -45.5t166.5 -126t61.5 -194.5q0 -166 -122 -263t-344 -97zM613 594q86 0 128 36t42 115q0 80 -42.5 117.5t-129.5 37.5q-79 0 -125 -36t-46 -114q0 -81 46.5 -118.5t126.5 -37.5zM829 1059l-26 10q9 123 53.5 186.5t104.5 86.5t115 23
q20 0 42.5 -2t34.5 -7v-266q-46 11 -81.5 16t-67.5 5q-25 0 -53.5 -4.5t-59 -16t-62.5 -31.5zM587 1280q-82 0 -139.5 54t-57.5 146q0 95 58 148.5t139 53.5q82 0 139.5 -53.5t57.5 -148.5q0 -92 -58.5 -146t-138.5 -54z" />
    <glyph glyph-name="uni0122" unicode="&#x122;" 
d="M644 -28q-176 0 -306.5 90.5t-202.5 261t-72 411.5q0 237 69.5 403.5t198.5 254t307 88.5q149 1 252.5 -55t159 -165.5t57.5 -270.5h-289q-8 40 -20 85.5t-47 78t-111 32.5q-91 0 -147 -51.5t-82 -152t-26 -247.5q0 -144 25.5 -249t79.5 -162t140 -57q72 0 115.5 21
t68.5 42v209h-198v274h484v-633q-35 -49 -99 -97t-153.5 -79.5t-203.5 -31.5zM506 -526q7 35 13 93t10 125.5t4 128.5v63h276v-73q0 -71 -6.5 -135t-17 -115.5t-22.5 -86.5h-257z" />
    <glyph glyph-name="uni0123" unicode="&#x123;" 
d="M606 -458q-179 0 -301.5 38t-184.5 108.5t-62 167.5q0 63 34.5 106.5t93.5 66t132 20.5l41 5q-14 -12 -24 -26.5t-15.5 -33.5t-5.5 -42q0 -58 34.5 -95.5t98 -55.5t151.5 -18q122 0 187 27.5t64 85.5q0 44 -33.5 63t-121.5 29l-259 32q-134 17 -201.5 51.5t-90 78
t-22.5 85.5q0 58 35 98.5t86.5 65.5t101 36t78.5 8q-28 -14 -50.5 -33t-22.5 -63q0 -34 27 -50.5t110 -27.5l280 -35q153 -19 233.5 -63t110 -108t29.5 -143q0 -92 -44.5 -162.5t-120.5 -118.5t-171.5 -72.5t-196.5 -24.5zM612 384q-222 0 -344 98.5t-122 266.5
q0 167 122.5 265t345.5 96q131 -1 236 -45.5t166.5 -126t61.5 -194.5q0 -166 -122 -263t-344 -97zM613 594q86 0 128 36t42 115q0 80 -42.5 117.5t-129.5 37.5q-79 0 -125 -36t-46 -114q0 -81 46.5 -118.5t126.5 -37.5zM829 1059l-26 10q9 123 53.5 186.5t104.5 86.5t115 23
q20 0 42.5 -2t34.5 -7v-266q-46 11 -81.5 16t-67.5 5q-25 0 -53.5 -4.5t-59 -16t-62.5 -31.5zM423 1275v52q0 53 10.5 113.5t28.5 113.5t41 81h248q-28 -58 -37 -137.5t-9 -169.5v-53h-282z" />
    <glyph glyph-name="Hbar" unicode="&#x126;" 
d="M797 0v1454h316v-1454h-316zM87 0v1454h316v-1454h-316zM297 412v258h599l-3 -258h-596zM-30 833v258h1260l-3 -258h-1257z" />
    <glyph glyph-name="hbar" unicode="&#x127;" 
d="M120 0v1561h302v-470l-16 -311l9 -88l-10 71q12 90 45 170.5t99.5 130.5t180.5 50q148 0 238.5 -96.5t90.5 -294.5v-723h-310v607q0 137 -32.5 195t-106.5 58q-58 0 -103.5 -38.5t-76.5 -100.5v-721h-310zM21 1197v226h671v-226h-671z" />
    <glyph glyph-name="Itilde" unicode="&#x128;" 
d="M135 0v269h308v795q0 60 22 87t67 34h-397v269h930v-269h-309v-795q0 -60 -22 -86.5t-67 -34.5h398v-269h-930zM751 1562q-67 0 -110 22.5t-72 52.5t-52 52.5t-50 22.5q-37 0 -60.5 -40.5t-9.5 -111.5h-197q-19 168 53 254.5t197 86.5q67 0 109.5 -22.5t71 -52.5
t51 -52.5t49.5 -22.5q38 0 62.5 39.5t11.5 110.5h195q20 -167 -52 -253t-197 -86z" />
    <glyph glyph-name="itilde" unicode="&#x129;" 
d="M488 30v649q0 94 27 124.5t82 39.5l-109 78v54l302 116l-2 -1061h-300zM167 0v218h933v-218h-933zM133 843v248h657l-45 -248h-612zM788 1262q-67 0 -110 22.5t-72 52.5t-52 52.5t-50 22.5q-37 0 -60.5 -40.5t-9.5 -111.5h-207q-19 168 52.5 257.5t207.5 89.5
q67 0 109.5 -22.5t71 -52.5t51 -52.5t49.5 -22.5q38 0 62.5 39.5t11.5 110.5h204q19 -172 -52.5 -258.5t-205.5 -86.5z" />
    <glyph glyph-name="Imacron" unicode="&#x12a;" 
d="M135 0v269h308v795q0 60 22 87t67 34h-397v269h930v-269h-309v-795q0 -60 -22 -86.5t-67 -34.5h398v-269h-930zM269 1603v243h662l-3 -243h-659z" />
    <glyph glyph-name="imacron" unicode="&#x12b;" 
d="M488 30v649q0 94 27 124.5t82 39.5l-109 78v54l302 116l-2 -1061h-300zM167 0v218h933v-218h-933zM133 843v248h657l-45 -248h-612zM331 1294v232h612l-3 -232h-609z" />
    <glyph glyph-name="Ibreve" unicode="&#x12c;" 
d="M135 0v269h308v795q0 60 22 87t67 34h-397v269h930v-269h-309v-795q0 -60 -22 -86.5t-67 -34.5h398v-269h-930zM601 1581q-166 0 -263 73t-90 258h229q-8 -80 23 -117.5t101 -37.5q69 0 100.5 37.5t23.5 117.5h228q5 -123 -37.5 -195.5t-123.5 -104t-191 -31.5z" />
    <glyph glyph-name="ibreve" unicode="&#x12d;" 
d="M488 30v649q0 94 27 124.5t82 39.5l-109 78v54l302 116l-2 -1061h-300zM167 0v218h933v-218h-933zM133 843v248h657l-45 -248h-612zM637 1260q-167 0 -263.5 91.5t-81.5 249.5h217q-5 -50 9 -87.5t44.5 -58t74.5 -20.5t74.5 20.5t44.5 58t8 87.5h218
q15 -158 -81.5 -249.5t-263.5 -91.5z" />
    <glyph glyph-name="Iogonek" unicode="&#x12e;" 
d="M135 0v269h308v795q0 60 22 87t67 34h-397v269h930v-269h-309v-795q0 -60 -22 -86.5t-67 -34.5h398v-269h-930zM881 -467q-77 0 -139.5 25t-99 71.5t-36.5 108.5q0 86 56 163.5t167 98.5h236q-102 -52 -150 -88t-48 -96q0 -36 24.5 -57t62.5 -21q54 0 107 28l2 -192
q-43 -20 -86.5 -30.5t-95.5 -10.5z" />
    <glyph glyph-name="iogonek" unicode="&#x12f;" 
d="M488 30v649q0 94 27 124.5t82 39.5l-109 78v54l302 116l-2 -1061h-300zM167 0v218h933v-218h-933zM133 843v248h657l-45 -248h-612zM637 1280q-82 0 -139.5 54t-57.5 146q0 95 58 148.5t139 53.5q82 0 139.5 -53.5t57.5 -148.5q0 -92 -58.5 -146t-138.5 -54zM884 -467
q-115 0 -185 55.5t-70 149.5q0 86 71 163.5t234 98.5h154q-102 -52 -147 -88t-45 -96q0 -36 21.5 -57t59.5 -21q54 0 107 28l2 -192q-43 -20 -96.5 -30.5t-105.5 -10.5z" />
    <glyph glyph-name="Idotaccent" unicode="&#x130;" 
d="M135 0v269h308v795q0 60 22 87t67 34h-397v269h930v-269h-309v-795q0 -60 -22 -86.5t-67 -34.5h398v-269h-930zM600 1572q-67 0 -120 48t-53 127q0 73 53 123t120 50q69 0 121 -50.5t52 -122.5q0 -79 -52.5 -127t-120.5 -48z" />
    <glyph glyph-name="dotlessi" unicode="&#x131;" 
d="M488 30v649q0 94 27 124.5t82 39.5l-109 78v54l302 116l-2 -1061h-300zM167 0v218h933v-218h-933zM133 843v248h657l-45 -248h-612z" />
    <glyph glyph-name="IJ" unicode="&#x132;" 
d="M25 580v282h156v189q0 60 22 87t67 34h-245v282h610v-282h-147v-189q0 -60 -22 -86.5t-67 -34.5h236v-282h-610zM619 -30q-232 0 -367 123.5t-140 391.5h312q-1 -130 42.5 -179.5t146.5 -49.5q62 0 102.5 19t60 67.5t19.5 134.5v977h314v-957q0 -266 -121 -396.5
t-369 -130.5z" />
    <glyph glyph-name="ij" unicode="&#x133;" 
d="M187 0v1051l300 41v-1092h-300zM-59 1091l546 1l-41 -249h-505v248zM-66 238h792v-238h-792v238zM882 -446q-64 0 -126.5 3t-126.5 22v266q17 -7 58.5 -12.5t86.5 -5.5q21 0 38 22t17 82v1118l294 43l-2 -1131q0 -23 0.5 -48t0.5 -44q0 -101 -26 -171.5t-79 -107
t-135 -36.5zM648 1092h475l-97 -248h-378v248zM339 1216q-85 0 -144.5 57.5t-59.5 148.5q0 98 59.5 155t144.5 57t144.5 -57t59.5 -155q0 -92 -60 -149t-144 -57zM975 1216q-85 0 -144.5 57.5t-59.5 148.5q0 98 59.5 155t144.5 57t144.5 -57t59.5 -155q0 -92 -60 -149
t-144 -57z" />
    <glyph glyph-name="uni0136" unicode="&#x136;" 
d="M381 328l2 396l164 258l284 472h362l-450 -659l-110 -126zM102 0v1454h315v-1454h-315zM860 0l-369 736l217 184l513 -920h-361zM475 -526q7 35 13 93t10 125.5t4 128.5v63h276v-73q0 -71 -6.5 -135t-17 -115.5t-22.5 -86.5h-257z" />
    <glyph glyph-name="uni0137" unicode="&#x137;" 
d="M794 0l-377 595l257 38l129 -125l372 -508h-381zM136 0v1561h304v-794l-18 -169v-8l18 -175v-415h-304zM674 562l-257 33l162 234l174 262h386l-341 -419zM461 -526q7 35 13 93t10 125.5t4 128.5v63h276v-73q0 -71 -6.5 -135t-17 -115.5t-22.5 -86.5h-257z" />
    <glyph glyph-name="Lacute" unicode="&#x139;" 
d="M210 0v1454h323v-1356l-193 183h754v-281h-884zM493 1591h-301l204 321h332z" />
    <glyph glyph-name="lacute" unicode="&#x13a;" 
d="M781 1673h-301l204 321h332zM762 -16q-133 0 -215 37.5t-119 110.5t-37 177v889q0 38 22.5 64t61.5 33h-364v266h580l-2 -1146q0 -100 33 -134t132 -34q45 0 115 8.5t131 26.5v-251q-73 -22 -165 -34.5t-173 -12.5z" />
    <glyph glyph-name="uni013B" unicode="&#x13b;" 
d="M210 0v1454h323v-1356l-193 183h754v-281h-884zM483 -526q7 35 13 93t10 125.5t4 128.5v63h276v-73q0 -71 -6.5 -135t-17 -115.5t-22.5 -86.5h-257z" />
    <glyph glyph-name="uni013C" unicode="&#x13c;" 
d="M762 -16q-133 0 -215 37.5t-119 110.5t-37 177v889q0 38 22.5 64t61.5 33h-364v266h580l-2 -1146q0 -100 33 -134t132 -34q45 0 115 8.5t131 26.5v-251q-73 -22 -165 -34.5t-173 -12.5zM555 -526q7 35 13 93t10 125.5t4 128.5v63h276v-73q0 -71 -6.5 -135t-17 -115.5
t-22.5 -86.5h-257z" />
    <glyph glyph-name="Lcaron" unicode="&#x13d;" 
d="M210 0v1454h323v-1356l-193 183h754v-281h-884zM694 1175l2 386h244l-27 -386h-219z" />
    <glyph glyph-name="lcaron" unicode="&#x13e;" 
d="M864 1175l2 386h244l-27 -386h-219zM762 -16q-133 0 -215 37.5t-119 110.5t-37 177v889q0 38 22.5 64t61.5 33h-364v266h580l-2 -1146q0 -100 33 -134t132 -34q45 0 115 8.5t131 26.5v-251q-73 -22 -165 -34.5t-173 -12.5z" />
    <glyph glyph-name="Ldot" unicode="&#x13f;" 
d="M210 0v1454h323v-1356l-193 183h754v-281h-884zM997 497q-80 0 -136.5 59t-56.5 159q0 98 56.5 156.5t136.5 58.5q79 0 135 -58.5t56 -156.5q0 -100 -56 -159t-135 -59z" />
    <glyph glyph-name="ldot" unicode="&#x140;" 
d="M1027 497q-80 0 -136.5 59t-56.5 159q0 98 56.5 156.5t136.5 58.5q79 0 135 -58.5t56 -156.5q0 -100 -56 -159t-135 -59zM762 -16q-133 0 -215 37.5t-119 110.5t-37 177v889q0 38 22.5 64t61.5 33h-364v266h580l-2 -1146q0 -100 33 -134t132 -34q45 0 115 8.5t131 26.5
v-251q-73 -22 -165 -34.5t-173 -12.5z" />
    <glyph glyph-name="Lslash" unicode="&#x141;" 
d="M210 0v1454h323v-1356l-193 183h754v-281h-884zM83 533v243l317 150l133 -22q-1 27 10 56.5t63 54.5l178 86l-4 -255l-391 -191l-140 -47z" />
    <glyph glyph-name="lslash" unicode="&#x142;" 
d="M229 529v264l626 298l-4 -264zM751 -16q-133 0 -215 37.5t-119 110.5t-37 177v889q0 38 22.5 64t61.5 33h-364v266h580l-2 -1146q0 -100 33 -134t132 -34q45 0 115 8.5t131 26.5v-251q-73 -22 -165 -34.5t-173 -12.5z" />
    <glyph glyph-name="Nacute" unicode="&#x143;" 
d="M90 0v1454h398l269 -804l109 -364h6l-58 503v665h296v-1454h-402l-267 804l-104 337h-9l58 -492v-649h-296zM736 1591h-301l204 321h332z" />
    <glyph glyph-name="nacute" unicode="&#x144;" 
d="M155 0v1092h276l25 -412l-12 83q20 175 97.5 263t219.5 88q156 0 234 -102.5t78 -288.5v-723h-308v627q0 120 -30 173.5t-99 53.5q-57 0 -100.5 -34t-72.5 -96v-724h-308zM481 1284l204 339h332l-246 -339h-290z" />
    <glyph glyph-name="uni0145" unicode="&#x145;" 
d="M90 0v1454h398l269 -804l109 -364h6l-58 503v665h296v-1454h-402l-267 804l-104 337h-9l58 -492v-649h-296zM444 -526q7 35 13 93t10 125.5t4 128.5v63h276v-73q0 -71 -6.5 -135t-17 -115.5t-22.5 -86.5h-257z" />
    <glyph glyph-name="uni0146" unicode="&#x146;" 
d="M155 0v1092h276l25 -412l-12 83q20 175 97.5 263t219.5 88q156 0 234 -102.5t78 -288.5v-723h-308v627q0 120 -30 173.5t-99 53.5q-57 0 -100.5 -34t-72.5 -96v-724h-308zM455 -526q7 35 13 93t10 125.5t4 128.5v63h276v-73q0 -71 -6.5 -135t-17 -115.5t-22.5 -86.5h-257
z" />
    <glyph glyph-name="Ncaron" unicode="&#x147;" 
d="M90 0v1454h398l269 -804l109 -364h6l-58 503v665h296v-1454h-402l-267 804l-104 337h-9l58 -492v-649h-296zM461 1585l-272 327h259l146 -168l145 168h258l-270 -327h-266z" />
    <glyph glyph-name="ncaron" unicode="&#x148;" 
d="M155 0v1092h276l25 -412l-12 83q20 175 97.5 263t219.5 88q156 0 234 -102.5t78 -288.5v-723h-308v627q0 120 -30 173.5t-99 53.5q-57 0 -100.5 -34t-72.5 -96v-724h-308zM463 1277l-233 342h244l146 -187l145 187h245l-234 -342h-313z" />
    <glyph glyph-name="Eng" unicode="&#x14a;" 
d="M662 -513q-37 0 -62.5 4.5t-46.5 7.5v257q18 -3 41 -6t62 -3q38 0 55.5 25t20 64.5t-5 83t-19.5 80.5l-265 800l-105 341h-9l57 -493v-648h-295v1454h397l271 -806l135 -470h7l-86 544v732h295v-1454q0 -250 -108.5 -381.5t-338.5 -131.5z" />
    <glyph glyph-name="eng" unicode="&#x14b;" 
d="M799 -446q-68 0 -113.5 7t-89.5 18v266q17 -7 42 -12.5t49 -5.5q23 0 41 22t18 82l-2 676q0 104 -17.5 158.5t-48 74.5t-69.5 20q-64 0 -110 -40.5t-72 -95.5v-724h-310v1092h276l19 -299q14 84 46.5 157.5t96.5 118.5t170 45q155 0 240 -100.5t85 -290.5l2 -762
q0 -23 0.5 -48t0.5 -44q0 -101 -27.5 -171.5t-84 -107t-142.5 -36.5z" />
    <glyph glyph-name="Omacron" unicode="&#x14c;" 
d="M600 -30q-178 0 -297.5 90t-179.5 260.5t-60 414.5q0 358 135.5 553t401.5 195t401.5 -195t135.5 -553q0 -244 -60 -414.5t-179.5 -260.5t-297.5 -90zM600 262q107 0 161 114.5t54 358.5q0 239 -54 347.5t-161 108.5q-106 0 -160.5 -108.5t-54.5 -347.5
q0 -244 54.5 -358.5t160.5 -114.5zM270 1603v243h662l-3 -243h-659z" />
    <glyph glyph-name="omacron" unicode="&#x14d;" 
d="M593 -15q-150 0 -261.5 68t-173 193.5t-61.5 296.5q0 179 65.5 306.5t181 195.5t264.5 68q152 0 263 -69.5t171.5 -195.5t60.5 -296q0 -180 -66 -306.5t-181 -193.5t-263 -67zM602 242q78 0 133 69t55 239q0 173 -56.5 239.5t-135.5 66.5t-133 -66.5t-54 -234.5
q0 -175 57.5 -244t133.5 -69zM295 1294v232h612l-3 -232h-609z" />
    <glyph glyph-name="Obreve" unicode="&#x14e;" 
d="M600 -30q-178 0 -297.5 90t-179.5 260.5t-60 414.5q0 358 135.5 553t401.5 195t401.5 -195t135.5 -553q0 -244 -60 -414.5t-179.5 -260.5t-297.5 -90zM600 262q107 0 161 114.5t54 358.5q0 239 -54 347.5t-161 108.5q-106 0 -160.5 -108.5t-54.5 -347.5
q0 -244 54.5 -358.5t160.5 -114.5zM602 1581q-166 0 -263 73t-90 258h229q-8 -80 23 -117.5t101 -37.5q69 0 100.5 37.5t23.5 117.5h228q5 -123 -37.5 -195.5t-123.5 -104t-191 -31.5z" />
    <glyph glyph-name="obreve" unicode="&#x14f;" 
d="M593 -15q-150 0 -261.5 68t-173 193.5t-61.5 296.5q0 179 65.5 306.5t181 195.5t264.5 68q152 0 263 -69.5t171.5 -195.5t60.5 -296q0 -180 -66 -306.5t-181 -193.5t-263 -67zM602 242q78 0 133 69t55 239q0 173 -56.5 239.5t-135.5 66.5t-133 -66.5t-54 -234.5
q0 -175 57.5 -244t133.5 -69zM601 1260q-167 0 -263.5 91.5t-81.5 249.5h217q-5 -50 9 -87.5t44.5 -58t74.5 -20.5t74.5 20.5t44.5 58t8 87.5h218q15 -158 -81.5 -249.5t-263.5 -91.5z" />
    <glyph glyph-name="Ohungarumlaut" unicode="&#x150;" 
d="M600 -30q-178 0 -297.5 90t-179.5 260.5t-60 414.5q0 358 135.5 553t401.5 195t401.5 -195t135.5 -553q0 -244 -60 -414.5t-179.5 -260.5t-297.5 -90zM600 262q107 0 161 114.5t54 358.5q0 239 -54 347.5t-161 108.5q-106 0 -160.5 -108.5t-54.5 -347.5
q0 -244 54.5 -358.5t160.5 -114.5zM695 1591l165 321h300l-209 -321h-256zM242 1591l147 321h296l-189 -321h-254z" />
    <glyph glyph-name="ohungarumlaut" unicode="&#x151;" 
d="M593 -15q-150 0 -261.5 68t-173 193.5t-61.5 296.5q0 179 65.5 306.5t181 195.5t264.5 68q152 0 263 -69.5t171.5 -195.5t60.5 -296q0 -180 -66 -306.5t-181 -193.5t-263 -67zM602 242q78 0 133 69t55 239q0 173 -56.5 239.5t-135.5 66.5t-133 -66.5t-54 -234.5
q0 -175 57.5 -244t133.5 -69zM675 1284l210 340h283l-231 -340h-262zM257 1284l169 340h287l-202 -340h-254z" />
    <glyph glyph-name="OE" unicode="&#x152;" 
d="M382 -20q-135 0 -219 97t-123.5 268t-39.5 394t39.5 390t123.5 260.5t219 93.5q53 0 94.5 -20.5t73 -58t53.5 -90t35 -116.5l-55 -29v285h594v-277h-371v-300h324v-266h-324v-332h385v-279h-608v306l34 -39q-5 -88 -35 -152.5t-81 -99.5t-119 -35zM410 258q57 0 91.5 50
t50 156.5t15.5 275.5q0 144 -13 243.5t-47 150.5t-96 51q-64 0 -98.5 -44.5t-47.5 -145t-13 -268.5q0 -144 13 -249.5t47 -162.5t98 -57z" />
    <glyph glyph-name="oe" unicode="&#x153;" 
d="M340 -15q-185 0 -295 145t-110 413q0 181 50.5 308.5t143 194.5t216.5 67q101 0 165.5 -47t102.5 -124q48 82 121.5 126.5t173.5 44.5q121 0 203.5 -59.5t124.5 -174t42 -280.5q0 -30 -1 -54t-3 -59h-547q11 -134 53 -197.5t111 -63.5q56 0 87.5 36.5t27.5 94.5h268
q-9 -166 -108 -268.5t-272 -102.5q-99 0 -169.5 44.5t-117.5 124.5q-41 -81 -106.5 -125t-160.5 -44zM353 242q54 0 99.5 67.5t45.5 240.5q0 164 -41.5 235t-100.5 71q-55 0 -100 -69t-45 -238q0 -163 41 -235t101 -72zM724 561q5 54 42 77t96 23h143q-4 104 -33.5 156.5
t-88.5 52.5q-78 0 -119 -81.5t-40 -227.5z" />
    <glyph glyph-name="Racute" unicode="&#x154;" 
d="M883 0l-289 589h-145l-66 15l28 200v32h184q77 0 125.5 24.5t72 70t23.5 109.5q0 73 -30 109t-75 48.5t-92 12.5l-153 1l-72 123l-12 120h77h89h113q205 0 333.5 -106t128.5 -321q0 -72 -23 -141.5t-71 -127t-123.5 -93t-179.5 -39.5l42 16q42 0 75.5 -7t59.5 -26t43 -54
l270 -555h-333zM151 0v1454h316v-1454h-316zM709 1591h-301l204 321h332z" />
    <glyph glyph-name="racute" unicode="&#x155;" 
d="M80 0v218h859v-218h-859zM55 843v249h398v-249h-398zM250 20v659q0 81 23 118.5t83 45.5l-106 65v184h258l19 -299q20 104 67.5 175.5t117.5 108.5t156 37q146 0 223.5 -121.5t67.5 -351.5h-264q-1 110 -36 160t-100 50q-67 0 -127.5 -35t-90.5 -92v-363q0 -59 -19.5 -96
t-56.5 -47l76 -54l3 -144h-294zM509 1284l204 339h332l-246 -339h-290z" />
    <glyph glyph-name="uni0156" unicode="&#x156;" 
d="M883 0l-289 589h-145l-66 15l28 200v32h184q77 0 125.5 24.5t72 70t23.5 109.5q0 73 -30 109t-75 48.5t-92 12.5l-153 1l-72 123l-12 120h77h89h113q205 0 333.5 -106t128.5 -321q0 -72 -23 -141.5t-71 -127t-123.5 -93t-179.5 -39.5l42 16q42 0 75.5 -7t59.5 -26t43 -54
l270 -555h-333zM151 0v1454h316v-1454h-316zM459 -526q7 35 13 93t10 125.5t4 128.5v63h276v-73q0 -71 -6.5 -135t-17 -115.5t-22.5 -86.5h-257z" />
    <glyph glyph-name="uni0157" unicode="&#x157;" 
d="M80 0v218h859v-218h-859zM55 843v249h398v-249h-398zM250 20v659q0 81 23 118.5t83 45.5l-106 65v184h258l19 -299q20 104 67.5 175.5t117.5 108.5t156 37q146 0 223.5 -121.5t67.5 -351.5h-264q-1 110 -36 160t-100 50q-67 0 -127.5 -35t-90.5 -92v-363q0 -59 -19.5 -96
t-56.5 -47l76 -54l3 -144h-294zM292 -526q7 35 13 93t10 125.5t4 128.5v63h276v-73q0 -71 -6.5 -135t-17 -115.5t-22.5 -86.5h-257z" />
    <glyph glyph-name="Rcaron" unicode="&#x158;" 
d="M883 0l-289 589h-145l-66 15l28 200v32h184q77 0 125.5 24.5t72 70t23.5 109.5q0 73 -30 109t-75 48.5t-92 12.5l-153 1l-72 123l-12 120h77h89h113q205 0 333.5 -106t128.5 -321q0 -72 -23 -141.5t-71 -127t-123.5 -93t-179.5 -39.5l42 16q42 0 75.5 -7t59.5 -26t43 -54
l270 -555h-333zM151 0v1454h316v-1454h-316zM434 1585l-272 327h259l146 -168l145 168h258l-270 -327h-266z" />
    <glyph glyph-name="rcaron" unicode="&#x159;" 
d="M80 0v218h859v-218h-859zM55 843v249h398v-249h-398zM250 20v659q0 81 23 118.5t83 45.5l-106 65v184h258l19 -299q20 104 67.5 175.5t117.5 108.5t156 37q146 0 223.5 -121.5t67.5 -351.5h-264q-1 110 -36 160t-100 50q-67 0 -127.5 -35t-90.5 -92v-363q0 -59 -19.5 -96
t-56.5 -47l76 -54l3 -144h-294zM491 1277l-233 342h244l146 -187l145 187h245l-234 -342h-313z" />
    <glyph glyph-name="Sacute" unicode="&#x15a;" 
d="M609 -20q-158 0 -282.5 52.5t-194 162.5t-63.5 281h305q2 -72 25.5 -123t76 -77.5t139.5 -26.5q63 0 108 18.5t68.5 52.5t23.5 80q0 51 -30.5 81t-93.5 57t-160 68q-122 52 -218.5 112t-151.5 144.5t-55 209.5q0 132 61.5 222.5t172 136.5t257.5 46q227 0 347 -113.5
t135 -335.5h-299q-2 58 -25 98t-63 61t-94 21q-82 0 -133 -31.5t-51 -99.5q0 -52 24 -87t79.5 -66t147.5 -72q87 -38 170 -70.5t149 -75t105.5 -111t39.5 -178.5q1 -140 -66 -238t-184.5 -148.5t-269.5 -50.5zM722 1591h-301l204 321h332z" />
    <glyph glyph-name="sacute" unicode="&#x15b;" 
d="M603 -17q-108 0 -194.5 23t-148 69.5t-96 118t-38.5 167.5h300q9 -78 62.5 -117t119.5 -39q69 0 115.5 20t46.5 78q0 43 -28.5 65t-82 37t-128.5 38t-141 49.5t-117 64t-79.5 92.5t-28.5 134q0 117 55.5 189.5t153 105.5t224.5 33q118 0 213 -31t157 -110t79 -223l-301 2
q-11 64 -35 95.5t-55.5 42t-64.5 10.5q-43 0 -72.5 -11t-44.5 -32t-15 -53q0 -33 24.5 -57.5t76.5 -44.5t132 -43q66 -18 133.5 -38.5t124 -53.5t91 -88.5t34.5 -145.5q0 -175 -127.5 -261t-344.5 -86zM458 1284l204 339h332l-246 -339h-290z" />
    <glyph glyph-name="Scedilla" unicode="&#x15e;" 
d="M609 -20q-158 0 -282.5 52.5t-194 162.5t-63.5 281h305q2 -72 25.5 -123t76 -77.5t139.5 -26.5q63 0 108 18.5t68.5 52.5t23.5 80q0 51 -30.5 81t-93.5 57t-160 68q-122 52 -218.5 112t-151.5 144.5t-55 209.5q0 132 61.5 222.5t172 136.5t257.5 46q227 0 347 -113.5
t135 -335.5h-299q-2 58 -25 98t-63 61t-94 21q-82 0 -133 -31.5t-51 -99.5q0 -52 24 -87t79.5 -66t147.5 -72q87 -38 170 -70.5t149 -75t105.5 -111t39.5 -178.5q1 -140 -66 -238t-184.5 -148.5t-269.5 -50.5zM670 -505q-54 0 -108 10.5t-104 33.5l1 199q27 -13 58 -21.5
t57 -8.5q45 0 68 22t23 66q0 57 -52.5 108.5t-153.5 95.5h260q119 -37 167.5 -106t48.5 -150q0 -115 -72.5 -182t-192.5 -67z" />
    <glyph glyph-name="scedilla" unicode="&#x15f;" 
d="M603 -17q-108 0 -194.5 23t-148 69.5t-96 118t-38.5 167.5h300q9 -78 62.5 -117t119.5 -39q69 0 115.5 20t46.5 78q0 43 -28.5 65t-82 37t-128.5 38t-141 49.5t-117 64t-79.5 92.5t-28.5 134q0 117 55.5 189.5t153 105.5t224.5 33q118 0 213 -31t157 -110t79 -223l-301 2
q-11 64 -35 95.5t-55.5 42t-64.5 10.5q-43 0 -72.5 -11t-44.5 -32t-15 -53q0 -33 24.5 -57.5t76.5 -44.5t132 -43q66 -18 133.5 -38.5t124 -53.5t91 -88.5t34.5 -145.5q0 -175 -127.5 -261t-344.5 -86zM574 -490q-66 0 -127.5 12t-104.5 31l1 185q34 -13 67.5 -21.5
t76.5 -8.5q53 0 77 23.5t24 83.5q0 53 -24.5 96.5t-94.5 88.5h179q59 -25 104 -61.5t71 -87t26 -116.5q0 -105 -80 -165t-195 -60z" />
    <glyph glyph-name="Scaron" unicode="&#x160;" 
d="M609 -20q-158 0 -282.5 52.5t-194 162.5t-63.5 281h305q2 -72 25.5 -123t76 -77.5t139.5 -26.5q63 0 108 18.5t68.5 52.5t23.5 80q0 51 -30.5 81t-93.5 57t-160 68q-122 52 -218.5 112t-151.5 144.5t-55 209.5q0 132 61.5 222.5t172 136.5t257.5 46q227 0 347 -113.5
t135 -335.5h-299q-2 58 -25 98t-63 61t-94 21q-82 0 -133 -31.5t-51 -99.5q0 -52 24 -87t79.5 -66t147.5 -72q87 -38 170 -70.5t149 -75t105.5 -111t39.5 -178.5q1 -140 -66 -238t-184.5 -148.5t-269.5 -50.5zM447 1585l-272 327h259l146 -168l145 168h258l-270 -327h-266z
" />
    <glyph glyph-name="scaron" unicode="&#x161;" 
d="M603 -17q-108 0 -194.5 23t-148 69.5t-96 118t-38.5 167.5h300q9 -78 62.5 -117t119.5 -39q69 0 115.5 20t46.5 78q0 43 -28.5 65t-82 37t-128.5 38t-141 49.5t-117 64t-79.5 92.5t-28.5 134q0 117 55.5 189.5t153 105.5t224.5 33q118 0 213 -31t157 -110t79 -223l-301 2
q-11 64 -35 95.5t-55.5 42t-64.5 10.5q-43 0 -72.5 -11t-44.5 -32t-15 -53q0 -33 24.5 -57.5t76.5 -44.5t132 -43q66 -18 133.5 -38.5t124 -53.5t91 -88.5t34.5 -145.5q0 -175 -127.5 -261t-344.5 -86zM440 1277l-233 342h244l146 -187l145 187h245l-234 -342h-313z" />
    <glyph glyph-name="uni0162" unicode="&#x162;" 
d="M441 0v1048q0 54 23.5 86t75.5 39h-466v281h1052v-281h-366v-1173h-319zM670 -505q-54 0 -108 10.5t-104 33.5l1 199q27 -13 58 -21.5t57 -8.5q45 0 68 22t23 66q0 57 -52.5 108.5t-153.5 95.5h260q119 -37 167.5 -106t48.5 -150q0 -115 -72.5 -182t-192.5 -67z" />
    <glyph glyph-name="uni0163" unicode="&#x163;" 
d="M691 -17q-117 0 -194.5 36t-116 109t-39.5 185l-2 456q0 25 13 44.5t38.5 32t61.5 17.5l-113 185v33l70 393h230v-1062q0 -96 31.5 -131t122.5 -35q34 0 77.5 4t88.5 12t83 19v-250q-69 -23 -168 -35.5t-183 -12.5zM125 863v229h881v-229h-881zM658 -490q-66 0 -127.5 12
t-104.5 31l1 185q34 -13 67.5 -21.5t76.5 -8.5q53 0 77 23.5t24 83.5q0 53 -24.5 96.5t-94.5 88.5h179q59 -25 104 -61.5t71 -87t26 -116.5q0 -105 -80 -165t-195 -60z" />
    <glyph glyph-name="Tcaron" unicode="&#x164;" 
d="M441 0v1048q0 54 23.5 86t75.5 39h-466v281h1052v-281h-366v-1173h-319zM468 1585l-272 327h259l146 -168l145 168h258l-270 -327h-266z" />
    <glyph glyph-name="tcaron" unicode="&#x165;" 
d="M691 -17q-117 0 -194.5 36t-116 109t-39.5 185l-2 456q0 25 13 44.5t38.5 32t61.5 17.5l-113 185v33l70 393h230v-1062q0 -96 31.5 -131t122.5 -35q34 0 77.5 4t88.5 12t83 19v-250q-69 -23 -168 -35.5t-183 -12.5zM125 863v229h881v-229h-881zM762 1175l2 386h244
l-27 -386h-219z" />
    <glyph glyph-name="Tbar" unicode="&#x166;" 
d="M441 0v1048q0 54 23.5 86t75.5 39h-466v281h1052v-281h-366v-1173h-319zM189 597v264h827l-4 -264h-823z" />
    <glyph glyph-name="tbar" unicode="&#x167;" 
d="M124 435l-2 244h881l1 -244h-880zM683 -13q-118 0 -194.5 34.5t-113.5 106t-38 181.5l-2 460q0 25 13 44.5t38.5 32t61.5 17.5l-113 185v33l70 393h232v-1059q0 -99 30 -132t119 -33q46 0 118 5.5t135 21.5v-255q-73 -21 -175 -28t-181 -7zM122 863v229h881v-229h-881z
" />
    <glyph glyph-name="Utilde" unicode="&#x168;" 
d="M600 -20q-156 0 -273.5 63.5t-183 188t-65.5 306.5v918h314v-873q0 -84 13.5 -143t39.5 -96.5t65.5 -54.5t91.5 -17q51 0 90 17t64.5 54t38.5 96.5t13 143.5v871h314v-916q0 -179 -64.5 -304t-182 -189.5t-275.5 -64.5zM752 1562q-67 0 -110 22.5t-72 52.5t-52 52.5
t-50 22.5q-37 0 -60.5 -40.5t-9.5 -111.5h-197q-19 168 53 254.5t197 86.5q67 0 109.5 -22.5t71 -52.5t51 -52.5t49.5 -22.5q38 0 62.5 39.5t11.5 110.5h195q20 -167 -52 -253t-197 -86z" />
    <glyph glyph-name="utilde" unicode="&#x169;" 
d="M442 -22q-148 0 -227 98.5t-79 297.5v718h308v-674q0 -119 34.5 -152.5t91.5 -33.5q65 0 112 40t73 96v724h308v-1092h-273l-27 412l11 -83q-14 -114 -56.5 -192.5t-111 -118.5t-164.5 -40zM749 1262q-67 0 -110 22.5t-72 52.5t-52 52.5t-50 22.5q-37 0 -60.5 -40.5
t-9.5 -111.5h-207q-19 168 52.5 257.5t207.5 89.5q67 0 109.5 -22.5t71 -52.5t51 -52.5t49.5 -22.5q38 0 62.5 39.5t11.5 110.5h204q19 -172 -52.5 -258.5t-205.5 -86.5z" />
    <glyph glyph-name="Umacron" unicode="&#x16a;" 
d="M600 -20q-156 0 -273.5 63.5t-183 188t-65.5 306.5v918h314v-873q0 -84 13.5 -143t39.5 -96.5t65.5 -54.5t91.5 -17q51 0 90 17t64.5 54t38.5 96.5t13 143.5v871h314v-916q0 -179 -64.5 -304t-182 -189.5t-275.5 -64.5zM270 1603v243h662l-3 -243h-659z" />
    <glyph glyph-name="umacron" unicode="&#x16b;" 
d="M442 -22q-148 0 -227 98.5t-79 297.5v718h308v-674q0 -119 34.5 -152.5t91.5 -33.5q65 0 112 40t73 96v724h308v-1092h-273l-27 412l11 -83q-14 -114 -56.5 -192.5t-111 -118.5t-164.5 -40zM292 1294v232h612l-3 -232h-609z" />
    <glyph glyph-name="Ubreve" unicode="&#x16c;" 
d="M600 -20q-156 0 -273.5 63.5t-183 188t-65.5 306.5v918h314v-873q0 -84 13.5 -143t39.5 -96.5t65.5 -54.5t91.5 -17q51 0 90 17t64.5 54t38.5 96.5t13 143.5v871h314v-916q0 -179 -64.5 -304t-182 -189.5t-275.5 -64.5zM602 1581q-166 0 -263 73t-90 258h229
q-8 -80 23 -117.5t101 -37.5q69 0 100.5 37.5t23.5 117.5h228q5 -123 -37.5 -195.5t-123.5 -104t-191 -31.5z" />
    <glyph glyph-name="ubreve" unicode="&#x16d;" 
d="M442 -22q-148 0 -227 98.5t-79 297.5v718h308v-674q0 -119 34.5 -152.5t91.5 -33.5q65 0 112 40t73 96v724h308v-1092h-273l-27 412l11 -83q-14 -114 -56.5 -192.5t-111 -118.5t-164.5 -40zM598 1260q-167 0 -263.5 91.5t-81.5 249.5h217q-5 -50 9 -87.5t44.5 -58
t74.5 -20.5t74.5 20.5t44.5 58t8 87.5h218q15 -158 -81.5 -249.5t-263.5 -91.5z" />
    <glyph glyph-name="Uring" unicode="&#x16e;" 
d="M600 -20q-156 0 -273.5 63.5t-183 188t-65.5 306.5v918h314v-873q0 -84 13.5 -143t39.5 -96.5t65.5 -54.5t91.5 -17q51 0 90 17t64.5 54t38.5 96.5t13 143.5v871h314v-916q0 -179 -64.5 -304t-182 -189.5t-275.5 -64.5zM601 1567q-116 0 -178.5 64t-62.5 166
q0 100 62.5 163.5t178.5 63.5t178.5 -63.5t62.5 -163.5q0 -68 -28 -120t-81.5 -81t-131.5 -29zM601 1694q35 0 61 26t26 77q0 50 -26 75t-61 25q-34 0 -59.5 -25t-25.5 -75q0 -51 25.5 -77t59.5 -26z" />
    <glyph glyph-name="uring" unicode="&#x16f;" 
d="M442 -22q-148 0 -227 98.5t-79 297.5v718h308v-674q0 -119 34.5 -152.5t91.5 -33.5q65 0 112 40t73 96v724h308v-1092h-273l-27 412l11 -83q-14 -114 -56.5 -192.5t-111 -118.5t-164.5 -40zM598 1251q-127 0 -197 70.5t-70 182.5q0 111 69.5 181t197.5 70
q127 0 196.5 -70t69.5 -181q0 -112 -69.5 -182.5t-196.5 -70.5zM598 1397q46 0 74.5 27.5t28.5 79.5q0 50 -28.5 77.5t-74.5 27.5t-74.5 -27.5t-28.5 -77.5q0 -52 28.5 -79.5t74.5 -27.5z" />
    <glyph glyph-name="Uhungarumlaut" unicode="&#x170;" 
d="M600 -20q-156 0 -273.5 63.5t-183 188t-65.5 306.5v918h314v-873q0 -84 13.5 -143t39.5 -96.5t65.5 -54.5t91.5 -17q51 0 90 17t64.5 54t38.5 96.5t13 143.5v871h314v-916q0 -179 -64.5 -304t-182 -189.5t-275.5 -64.5zM695 1591l165 321h300l-209 -321h-256zM242 1591
l147 321h296l-189 -321h-254z" />
    <glyph glyph-name="uhungarumlaut" unicode="&#x171;" 
d="M442 -22q-148 0 -227 98.5t-79 297.5v718h308v-674q0 -119 34.5 -152.5t91.5 -33.5q65 0 112 40t73 96v724h308v-1092h-273l-27 412l11 -83q-14 -114 -56.5 -192.5t-111 -118.5t-164.5 -40zM672 1284l210 340h283l-231 -340h-262zM254 1284l169 340h287l-202 -340h-254z
" />
    <glyph glyph-name="Uogonek" unicode="&#x172;" 
d="M682 -20q-172 0 -299.5 68.5t-198 198t-70.5 311.5v898h321v-861q0 -84 15.5 -146t47 -103.5t78 -61.5t108.5 -20q61 0 106.5 20t76 61t46 103.5t15.5 146.5v859h321v-896q0 -179 -70 -309t-197 -199.5t-300 -69.5zM696 -421q-106 0 -170 52t-64 140q0 49 25 100t94 89.5
t199 49.5h103q-87 -43 -130.5 -81.5t-43.5 -96.5q0 -67 73 -67q48 0 98 25l1 -175q-38 -16 -87.5 -26t-97.5 -10z" />
    <glyph glyph-name="uogonek" unicode="&#x173;" 
d="M442 -22q-148 0 -227 98.5t-79 297.5v718h308v-674q0 -119 34.5 -152.5t91.5 -33.5q65 0 112 40t73 96v724h308v-1092h-273l-27 412l11 -83q-14 -114 -56.5 -192.5t-111 -118.5t-164.5 -40zM859 -467q-115 0 -185 55.5t-70 149.5q0 86 71 163.5t234 98.5h154
q-102 -52 -147 -88t-45 -96q0 -36 21.5 -57t59.5 -21q54 0 107 28l2 -192q-43 -20 -96.5 -30.5t-105.5 -10.5z" />
    <glyph glyph-name="Wcircumflex" unicode="&#x174;" 
d="M184 0l-214 1454h291l76 -1049q4 -54 9 -107t9 -107h7l31 342l62 571h291l61 -571l31 -342h8q4 54 8.5 107t8.5 107l77 1049h290l-212 -1454h-307l-62 435q-17 122 -26 229t-20 229h-6q-11 -122 -20 -229t-26 -229l-60 -435h-307zM196 1585l272 327h266l270 -327h-258
l-145 168l-146 -168h-259z" />
    <glyph glyph-name="wcircumflex" unicode="&#x175;" 
d="M193 0l-203 1091h275l46 -522l38 -321h7l39 321l49 349h312l50 -349l39 -324l6 1l37 323l47 522h275l-204 -1091h-299l-68 476l-35 306h-7l-36 -306l-67 -476h-301zM211 1282l233 342h313l234 -342h-245l-145 187l-146 -187h-244z" />
    <glyph glyph-name="Ycircumflex" unicode="&#x176;" 
d="M458 453l-458 1001h336l161 -426l97 -259h11l98 258l161 427h336l-458 -1001h-284zM443 0v645h313v-645h-313zM196 1585l272 327h266l270 -327h-258l-145 168l-146 -168h-259z" />
    <glyph glyph-name="ycircumflex" unicode="&#x177;" 
d="M182 -443v264h100q69 0 110 14.5t63 39t33 53.5q14 34 28.5 50t56.5 22h-151l-375 1091h340l148 -563l58 -212h9l52 211l143 564h338l-359 -1091q-37 -114 -79 -197.5t-99 -138t-138.5 -81t-197.5 -26.5h-80zM201 1282l233 342h313l234 -342h-245l-145 187l-146 -187
h-244z" />
    <glyph glyph-name="Ydieresis" unicode="&#x178;" 
d="M458 453l-458 1001h336l161 -426l97 -259h11l98 258l161 427h336l-458 -1001h-284zM443 0v645h313v-645h-313zM360 1572q-66 0 -116.5 48t-50.5 127q0 72 50.5 122.5t116.5 50.5t117 -50t51 -123q0 -79 -51.5 -127t-116.5 -48zM840 1572q-65 0 -116 48t-51 127
q0 73 51 123t116 50q67 0 117 -50.5t50 -122.5q0 -79 -50.5 -127t-116.5 -48z" />
    <glyph glyph-name="Zacute" unicode="&#x179;" 
d="M78 0l557 1084l83 97l-120 -8h-472v281h1017l-561 -1093l-62 -87l137 7h434v-281h-1013zM765 1591h-301l204 321h332z" />
    <glyph glyph-name="zacute" unicode="&#x17a;" 
d="M116 0l493 769q34 53 73.5 82t91.5 45l31 -18q-67 -9 -138 -20.5t-129 -11.5h-371v245h956l-450 -743q-43 -71 -97 -110t-118 -63l-5 44q65 6 136.5 16t120.5 10h378v-245h-972zM487 1284l204 339h332l-246 -339h-290z" />
    <glyph glyph-name="Zdotaccent" unicode="&#x17b;" 
d="M78 0l557 1084l83 97l-120 -8h-472v281h1017l-561 -1093l-62 -87l137 7h434v-281h-1013zM622 1572q-67 0 -120 48t-53 127q0 73 53 123t120 50q69 0 121 -50.5t52 -122.5q0 -79 -52.5 -127t-120.5 -48z" />
    <glyph glyph-name="zdotaccent" unicode="&#x17c;" 
d="M116 0l493 769q34 53 73.5 82t91.5 45l31 -18q-67 -9 -138 -20.5t-129 -11.5h-371v245h956l-450 -743q-43 -71 -97 -110t-118 -63l-5 44q65 6 136.5 16t120.5 10h378v-245h-972zM626 1280q-82 0 -139.5 54t-57.5 146q0 95 58 148.5t139 53.5q82 0 139.5 -53.5
t57.5 -148.5q0 -92 -58.5 -146t-138.5 -54z" />
    <glyph glyph-name="Zcaron" unicode="&#x17d;" 
d="M78 0l557 1084l83 97l-120 -8h-472v281h1017l-561 -1093l-62 -87l137 7h434v-281h-1013zM490 1585l-272 327h259l146 -168l145 168h258l-270 -327h-266z" />
    <glyph glyph-name="zcaron" unicode="&#x17e;" 
d="M116 0l493 769q34 53 73.5 82t91.5 45l31 -18q-67 -9 -138 -20.5t-129 -11.5h-371v245h956l-450 -743q-43 -71 -97 -110t-118 -63l-5 44q65 6 136.5 16t120.5 10h378v-245h-972zM469 1277l-233 342h244l146 -187l145 187h245l-234 -342h-313z" />
    <glyph glyph-name="uni018F" unicode="&#x18f;" 
d="M602 -28q-96 0 -191.5 34.5t-174 117.5t-125.5 226t-45 360l-2 106l318 -87v-129q2 -164 56.5 -250.5t172.5 -86.5q77 0 121.5 44t63 147t18.5 278q0 171 -18 272t-62 144.5t-123 43.5q-60 0 -97 -20t-58.5 -58.5t-35.5 -95.5h-327q2 80 31.5 161.5t89.5 150t153.5 110
t223.5 41.5q272 0 409.5 -194t137.5 -550q0 -180 -35.5 -322t-104.5 -241t-168.5 -150.5t-227.5 -51.5zM116 596l-52 220h847v-220h-795z" />
    <glyph glyph-name="Gcaron" unicode="&#x1e6;" 
d="M644 -28q-176 0 -306.5 90.5t-202.5 261t-72 411.5q0 237 69.5 403.5t198.5 254t307 88.5q149 1 252.5 -55t159 -165.5t57.5 -270.5h-289q-8 40 -20 85.5t-47 78t-111 32.5q-91 0 -147 -51.5t-82 -152t-26 -247.5q0 -144 25.5 -249t79.5 -162t140 -57q72 0 115.5 21
t68.5 42v209h-198v274h484v-633q-35 -49 -99 -97t-153.5 -79.5t-203.5 -31.5zM477 1585l-272 327h259l146 -168l145 168h258l-270 -327h-266z" />
    <glyph glyph-name="gcaron" unicode="&#x1e7;" 
d="M606 -458q-179 0 -301.5 38t-184.5 108.5t-62 167.5q0 63 34.5 106.5t93.5 66t132 20.5l41 5q-14 -12 -24 -26.5t-15.5 -33.5t-5.5 -42q0 -58 34.5 -95.5t98 -55.5t151.5 -18q122 0 187 27.5t64 85.5q0 44 -33.5 63t-121.5 29l-259 32q-134 17 -201.5 51.5t-90 78
t-22.5 85.5q0 58 35 98.5t86.5 65.5t101 36t78.5 8q-28 -14 -50.5 -33t-22.5 -63q0 -34 27 -50.5t110 -27.5l280 -35q153 -19 233.5 -63t110 -108t29.5 -143q0 -92 -44.5 -162.5t-120.5 -118.5t-171.5 -72.5t-196.5 -24.5zM612 384q-222 0 -344 98.5t-122 266.5
q0 167 122.5 265t345.5 96q131 -1 236 -45.5t166.5 -126t61.5 -194.5q0 -166 -122 -263t-344 -97zM613 594q86 0 128 36t42 115q0 80 -42.5 117.5t-129.5 37.5q-79 0 -125 -36t-46 -114q0 -81 46.5 -118.5t126.5 -37.5zM829 1059l-26 10q9 123 53.5 186.5t104.5 86.5t115 23
q20 0 42.5 -2t34.5 -7v-266q-46 11 -81.5 16t-67.5 5q-25 0 -53.5 -4.5t-59 -16t-62.5 -31.5zM430 1277l-233 342h244l146 -187l145 187h245l-234 -342h-313z" />
    <glyph glyph-name="uni01F4" unicode="&#x1f4;" 
d="M644 -28q-176 0 -306.5 90.5t-202.5 261t-72 411.5q0 237 69.5 403.5t198.5 254t307 88.5q149 1 252.5 -55t159 -165.5t57.5 -270.5h-289q-8 40 -20 85.5t-47 78t-111 32.5q-91 0 -147 -51.5t-82 -152t-26 -247.5q0 -144 25.5 -249t79.5 -162t140 -57q72 0 115.5 21
t68.5 42v209h-198v274h484v-633q-35 -49 -99 -97t-153.5 -79.5t-203.5 -31.5zM752 1591h-301l204 321h332z" />
    <glyph glyph-name="uni01F5" unicode="&#x1f5;" 
d="M606 -458q-179 0 -301.5 38t-184.5 108.5t-62 167.5q0 63 34.5 106.5t93.5 66t132 20.5l41 5q-14 -12 -24 -26.5t-15.5 -33.5t-5.5 -42q0 -58 34.5 -95.5t98 -55.5t151.5 -18q122 0 187 27.5t64 85.5q0 44 -33.5 63t-121.5 29l-259 32q-134 17 -201.5 51.5t-90 78
t-22.5 85.5q0 58 35 98.5t86.5 65.5t101 36t78.5 8q-28 -14 -50.5 -33t-22.5 -63q0 -34 27 -50.5t110 -27.5l280 -35q153 -19 233.5 -63t110 -108t29.5 -143q0 -92 -44.5 -162.5t-120.5 -118.5t-171.5 -72.5t-196.5 -24.5zM612 384q-222 0 -344 98.5t-122 266.5
q0 167 122.5 265t345.5 96q131 -1 236 -45.5t166.5 -126t61.5 -194.5q0 -166 -122 -263t-344 -97zM613 594q86 0 128 36t42 115q0 80 -42.5 117.5t-129.5 37.5q-79 0 -125 -36t-46 -114q0 -81 46.5 -118.5t126.5 -37.5zM829 1059l-26 10q9 123 53.5 186.5t104.5 86.5t115 23
q20 0 42.5 -2t34.5 -7v-266q-46 11 -81.5 16t-67.5 5q-25 0 -53.5 -4.5t-59 -16t-62.5 -31.5zM448 1284l204 339h332l-246 -339h-290z" />
    <glyph glyph-name="Aringacute" unicode="&#x1fa;" 
d="M-11 0l363 1454h496l363 -1454h-334l-107 470l177 -132h-647l10 252h569l-110 -116l-94 473l-65 297h-20l-65 -297l-202 -947h-334zM599 1302q-127 0 -197 70.5t-70 182.5q0 111 69.5 181t197.5 70q127 0 196.5 -70t69.5 -181q0 -112 -69.5 -182.5t-196.5 -70.5z
M599 1448q46 0 74.5 27.5t28.5 79.5q0 50 -28.5 77.5t-74.5 27.5t-74.5 -27.5t-28.5 -77.5q0 -52 28.5 -79.5t74.5 -27.5zM636 1713l124 199h244l-216 -219z" />
    <glyph glyph-name="aringacute" unicode="&#x1fb;" 
d="M449 -12q-150 0 -235 85t-85 229q0 125 74.5 197.5t249.5 110.5q38 8 82 15.5t99.5 14t125.5 12.5v56q0 89 -32 126.5t-117 37.5q-82 0 -123 -40.5t-36 -127.5h-294q-11 126 39.5 217.5t157 141t263.5 49.5q223 0 336 -101.5t113 -296.5v-714h-309l2 255
q-13 -87 -55 -146.5t-107 -90t-149 -30.5zM567 194q43 0 85 19.5t71.5 51.5t36.5 71v172q-25 -5 -52 -10t-50 -9.5t-38 -8.5q-86 -21 -131.5 -58t-45.5 -103q0 -60 36 -92.5t88 -32.5zM549 1713l144 199h244l-196 -199h-192zM619 1251q-127 0 -197 70.5t-70 182.5
q0 111 69.5 181t197.5 70q127 0 196.5 -70t69.5 -181q0 -112 -69.5 -182.5t-196.5 -70.5zM619 1397q46 0 74.5 27.5t28.5 79.5q0 50 -28.5 77.5t-74.5 27.5t-74.5 -27.5t-28.5 -77.5q0 -52 28.5 -79.5t74.5 -27.5z" />
    <glyph glyph-name="AEacute" unicode="&#x1fc;" 
d="M13 0l446 1454h159l87 -27l-87 -246h-4l-29 -112l-302 -1069h-270zM618 0v1454h550v-287h-361l61 74v-417l-61 63h305v-286h-315l71 62v-449l-61 75h348v-289h-537zM202 357l110 259h322v-259h-432zM870 1591h-301l204 321h332z" />
    <glyph glyph-name="aeacute" unicode="&#x1fd;" 
d="M289 -14q-114 0 -180.5 78t-66.5 231q0 131 54 205.5t166 111.5q46 15 96 24t117 16v30q0 119 -14 153.5t-55 34.5q-31 0 -49 -14t-24.5 -46t-6.5 -85h-268q-8 121 33.5 207.5t118.5 133t172 46.5q87 0 151 -38.5t76 -112.5q18 75 86.5 113.5t149.5 38.5
q155 0 238.5 -135.5t83.5 -386.5q0 -25 -1 -47.5t-3 -57.5h-454q0 -108 12 -164.5t34 -76.5t51 -20q45 0 73 33.5t23 97.5h264q-3 -107 -48 -190.5t-118.5 -131.5t-162.5 -48q-56 0 -124 24.5t-123 85t-74 167.5q-19 -136 -68.5 -206.5t-158.5 -70.5zM374 194q25 0 49 19
t41 51.5t21 71.5v172q-28 -7 -38.5 -12t-36.5 -16q-49 -21 -70.5 -57.5t-21.5 -110.5q0 -54 12.5 -86t43.5 -32zM705 560q5 56 33.5 78.5t83.5 22.5h76q2 115 -24.5 162t-65.5 47q-56 0 -80.5 -78t-22.5 -232zM465 1284l204 339h332l-246 -339h-290z" />
    <glyph glyph-name="Oslashacute" unicode="&#x1fe;" 
d="M600 -30q-178 0 -297.5 90t-179.5 260.5t-60 414.5q0 358 135.5 553t401.5 195t401.5 -195t135.5 -553q0 -244 -60 -414.5t-179.5 -260.5t-297.5 -90zM600 262q107 0 161 114.5t54 358.5q0 239 -54 347.5t-161 108.5q-106 0 -160.5 -108.5t-54.5 -347.5
q0 -244 54.5 -358.5t160.5 -114.5zM74 -87l129 246l44 42l557 1107l-2 44l97 183h237l-117 -220l-46 -47l-567 -1128l4 -40l-99 -187h-237zM744 1591h-301l204 321h332z" />
    <glyph glyph-name="oslashacute" unicode="&#x1ff;" 
d="M593 -15q-150 0 -261.5 68t-173 193.5t-61.5 296.5q0 179 65.5 306.5t181 195.5t264.5 68q152 0 263 -69.5t171.5 -195.5t60.5 -296q0 -180 -66 -306.5t-181 -193.5t-263 -67zM602 242q78 0 133 69t55 239q0 173 -56.5 239.5t-135.5 66.5t-133 -66.5t-54 -234.5
q0 -175 57.5 -244t133.5 -69zM143 -54l150 238l49 34l412 713l5 35l111 178h182l-130 -207l-47 -38l-422 -730l-7 -31l-121 -192h-182zM462 1284l204 339h332l-246 -339h-290z" />
    <glyph glyph-name="uni0218" unicode="&#x218;" 
d="M609 -20q-158 0 -282.5 52.5t-194 162.5t-63.5 281h305q2 -72 25.5 -123t76 -77.5t139.5 -26.5q63 0 108 18.5t68.5 52.5t23.5 80q0 51 -30.5 81t-93.5 57t-160 68q-122 52 -218.5 112t-151.5 144.5t-55 209.5q0 132 61.5 222.5t172 136.5t257.5 46q227 0 347 -113.5
t135 -335.5h-299q-2 58 -25 98t-63 61t-94 21q-82 0 -133 -31.5t-51 -99.5q0 -52 24 -87t79.5 -66t147.5 -72q87 -38 170 -70.5t149 -75t105.5 -111t39.5 -178.5q1 -140 -66 -238t-184.5 -148.5t-269.5 -50.5zM444 -526q7 35 13 93t10 125.5t4 128.5v63h276v-73
q0 -71 -6.5 -135t-17 -115.5t-22.5 -86.5h-257z" />
    <glyph glyph-name="uni0219" unicode="&#x219;" 
d="M603 -17q-108 0 -194.5 23t-148 69.5t-96 118t-38.5 167.5h300q9 -78 62.5 -117t119.5 -39q69 0 115.5 20t46.5 78q0 43 -28.5 65t-82 37t-128.5 38t-141 49.5t-117 64t-79.5 92.5t-28.5 134q0 117 55.5 189.5t153 105.5t224.5 33q118 0 213 -31t157 -110t79 -223l-301 2
q-11 64 -35 95.5t-55.5 42t-64.5 10.5q-43 0 -72.5 -11t-44.5 -32t-15 -53q0 -33 24.5 -57.5t76.5 -44.5t132 -43q66 -18 133.5 -38.5t124 -53.5t91 -88.5t34.5 -145.5q0 -175 -127.5 -261t-344.5 -86zM437 -526q7 35 13 93t10 125.5t4 128.5v63h276v-73q0 -71 -6.5 -135
t-17 -115.5t-22.5 -86.5h-257z" />
    <glyph glyph-name="uni021A" unicode="&#x21a;" 
d="M441 0v1048q0 54 23.5 86t75.5 39h-466v281h1052v-281h-366v-1173h-319zM444 -526q7 35 13 93t10 125.5t4 128.5v63h276v-73q0 -71 -6.5 -135t-17 -115.5t-22.5 -86.5h-257z" />
    <glyph glyph-name="uni021B" unicode="&#x21b;" 
d="M691 -17q-117 0 -194.5 36t-116 109t-39.5 185l-2 456q0 25 13 44.5t38.5 32t61.5 17.5l-113 185v33l70 393h230v-1062q0 -96 31.5 -131t122.5 -35q34 0 77.5 4t88.5 12t83 19v-250q-69 -23 -168 -35.5t-183 -12.5zM125 863v229h881v-229h-881zM521 -526q7 35 13 93
t10 125.5t4 128.5v63h276v-73q0 -71 -6.5 -135t-17 -115.5t-22.5 -86.5h-257z" />
    <glyph glyph-name="uni0232" unicode="&#x232;" 
d="M458 453l-458 1001h336l161 -426l97 -259h11l98 258l161 427h336l-458 -1001h-284zM443 0v645h313v-645h-313zM269 1603v243h662l-3 -243h-659z" />
    <glyph glyph-name="uni0233" unicode="&#x233;" 
d="M182 -443v264h100q69 0 110 14.5t63 39t33 53.5q14 34 28.5 50t56.5 22h-151l-375 1091h340l148 -563l58 -212h9l52 211l143 564h338l-359 -1091q-37 -114 -79 -197.5t-99 -138t-138.5 -81t-197.5 -26.5h-80zM285 1294v232h612l-3 -232h-609z" />
    <glyph glyph-name="uni0237" unicode="&#x237;" 
d="M485 -446q-110 0 -183.5 13.5t-120.5 27.5v251q37 -10 102.5 -22t126.5 -12q62 0 103.5 12.5t62.5 51.5t21 117v691q0 68 27 110t73 50l-100 68v109l309 71v-1074q0 -145 -38 -249t-130 -159.5t-253 -55.5zM252 844v248h654l-55 -248h-599z" />
    <glyph glyph-name="uni0259" unicode="&#x259;" 
d="M567 1106q164 0 279 -66t175.5 -191t60.5 -302q0 -185 -64 -312t-180 -192t-271 -65q-223 0 -338 133t-115 374q0 27 1.5 56t3.5 61h656q-7 92 -27.5 150.5t-62 86t-110.5 27.5q-61 0 -101.5 -34.5t-47.5 -96.5h-300q9 113 67 196t154.5 129t219.5 46zM781 530
q-8 -59 -40.5 -79.5t-83.5 -20.5h-242q1 -105 38.5 -157t124.5 -52q107 0 156 73t47 236z" />
    <glyph glyph-name="circumflex" unicode="&#x2c6;" 
d="M301 1282l233 342h313l234 -342h-245l-145 187l-146 -187h-244z" />
    <glyph glyph-name="caron" unicode="&#x2c7;" 
d="M586 1277l-233 342h244l146 -187l145 187h245l-234 -342h-313z" />
    <glyph glyph-name="breve" unicode="&#x2d8;" 
d="M797 1260q-167 0 -263.5 91.5t-81.5 249.5h217q-5 -50 9 -87.5t44.5 -58t74.5 -20.5t74.5 20.5t44.5 58t8 87.5h218q15 -158 -81.5 -249.5t-263.5 -91.5z" />
    <glyph glyph-name="dotaccent" unicode="&#x2d9;" 
d="M600 1280q-82 0 -139.5 54t-57.5 146q0 95 58 148.5t139 53.5q82 0 139.5 -53.5t57.5 -148.5q0 -92 -58.5 -146t-138.5 -54z" />
    <glyph glyph-name="ring" unicode="&#x2da;" 
d="M867 1251q-127 0 -197 70.5t-70 182.5q0 111 69.5 181t197.5 70q127 0 196.5 -70t69.5 -181q0 -112 -69.5 -182.5t-196.5 -70.5zM867 1397q46 0 74.5 27.5t28.5 79.5q0 50 -28.5 77.5t-74.5 27.5t-74.5 -27.5t-28.5 -77.5q0 -52 28.5 -79.5t74.5 -27.5z" />
    <glyph glyph-name="ogonek" unicode="&#x2db;" 
d="M991 -467q-115 0 -185 55.5t-70 149.5q0 86 71 163.5t234 98.5h154q-102 -52 -147 -88t-45 -96q0 -36 21.5 -57t59.5 -21q54 0 107 28l2 -192q-43 -20 -96.5 -30.5t-105.5 -10.5z" />
    <glyph glyph-name="tilde" unicode="&#x2dc;" 
d="M823 1262q-67 0 -110 22.5t-72 52.5t-52 52.5t-50 22.5q-37 0 -60.5 -40.5t-9.5 -111.5h-207q-19 168 52.5 257.5t207.5 89.5q67 0 109.5 -22.5t71 -52.5t51 -52.5t49.5 -22.5q38 0 62.5 39.5t11.5 110.5h204q19 -172 -52.5 -258.5t-205.5 -86.5z" />
    <glyph glyph-name="hungarumlaut" unicode="&#x2dd;" 
d="M663 1284l210 340h283l-231 -340h-262zM245 1284l169 340h287l-202 -340h-254z" />
    <glyph glyph-name="gravecomb" unicode="&#x300;" horiz-adv-x="0" 
d="M734 1284h-289l-246 339h331z" />
    <glyph glyph-name="acutecomb" unicode="&#x301;" horiz-adv-x="0" 
d="M439 1284l204 339h332l-246 -339h-290z" />
    <glyph glyph-name="uni0302" unicode="&#x302;" horiz-adv-x="0" 
d="M210 1282l233 342h313l234 -342h-245l-145 187l-146 -187h-244z" />
    <glyph glyph-name="tildecomb" unicode="&#x303;" horiz-adv-x="0" 
d="M751 1262q-67 0 -110 22.5t-72 52.5t-52 52.5t-50 22.5q-37 0 -60.5 -40.5t-9.5 -111.5h-207q-19 168 52.5 257.5t207.5 89.5q67 0 109.5 -22.5t71 -52.5t51 -52.5t49.5 -22.5q38 0 62.5 39.5t11.5 110.5h204q19 -172 -52.5 -258.5t-205.5 -86.5z" />
    <glyph glyph-name="uni0304" unicode="&#x304;" horiz-adv-x="0" 
d="M294 1294v232h612l-3 -232h-609z" />
    <glyph glyph-name="uni0306" unicode="&#x306;" horiz-adv-x="0" 
d="M600 1260q-167 0 -263.5 91.5t-81.5 249.5h217q-5 -50 9 -87.5t44.5 -58t74.5 -20.5t74.5 20.5t44.5 58t8 87.5h218q15 -158 -81.5 -249.5t-263.5 -91.5z" />
    <glyph glyph-name="uni0307" unicode="&#x307;" horiz-adv-x="0" 
d="M600 1280q-82 0 -139.5 54t-57.5 146q0 95 58 148.5t139 53.5q82 0 139.5 -53.5t57.5 -148.5q0 -92 -58.5 -146t-138.5 -54z" />
    <glyph glyph-name="uni0308" unicode="&#x308;" horiz-adv-x="0" 
d="M370 1264q-66 0 -116.5 48t-50.5 127q0 72 50.5 122.5t116.5 50.5t117 -50t51 -123q0 -79 -51.5 -127t-116.5 -48zM830 1264q-65 0 -116 48t-51 127q0 73 51 123t116 50q67 0 117 -50.5t50 -122.5q0 -79 -50.5 -127t-116.5 -48z" />
    <glyph glyph-name="uni030A" unicode="&#x30a;" horiz-adv-x="0" 
d="M600 1251q-127 0 -197 70.5t-70 182.5q0 111 69.5 181t197.5 70q127 0 196.5 -70t69.5 -181q0 -112 -69.5 -182.5t-196.5 -70.5zM600 1397q46 0 74.5 27.5t28.5 79.5q0 50 -28.5 77.5t-74.5 27.5t-74.5 -27.5t-28.5 -77.5q0 -52 28.5 -79.5t74.5 -27.5z" />
    <glyph glyph-name="uni030B" unicode="&#x30b;" horiz-adv-x="0" 
d="M674 1284l210 340h283l-231 -340h-262zM256 1284l169 340h287l-202 -340h-254z" />
    <glyph glyph-name="uni030C" unicode="&#x30c;" horiz-adv-x="0" 
d="M443 1277l-233 342h244l146 -187l145 187h245l-234 -342h-313z" />
    <glyph glyph-name="uni0312" unicode="&#x312;" horiz-adv-x="0" 
d="M165 1275v52q0 53 10.5 113.5t28.5 113.5t41 81h248q-28 -58 -37 -137.5t-9 -169.5v-53h-282z" />
    <glyph glyph-name="dotbelowcomb" unicode="&#x323;" horiz-adv-x="0" 
d="M600 -559q-82 0 -139.5 54t-57.5 146q0 95 58 148.5t139 53.5q82 0 139.5 -53.5t57.5 -148.5q0 -92 -58.5 -146t-138.5 -54z" />
    <glyph glyph-name="uni0326" unicode="&#x326;" horiz-adv-x="0" 
d="M444 -526q7 35 13 93t10 125.5t4 128.5v63h276v-73q0 -71 -6.5 -135t-17 -115.5t-22.5 -86.5h-257z" />
    <glyph glyph-name="uni0327" unicode="&#x327;" horiz-adv-x="0" 
d="M605 -490q-66 0 -127.5 12t-104.5 31l1 185q34 -13 67.5 -21.5t76.5 -8.5q53 0 77 23.5t24 83.5q0 53 -24.5 96.5t-94.5 88.5h179q59 -25 104 -61.5t71 -87t26 -116.5q0 -105 -80 -165t-195 -60z" />
    <glyph glyph-name="uni0328" unicode="&#x328;" horiz-adv-x="0" 
d="M635 -467q-115 0 -185 55.5t-70 149.5q0 86 71 163.5t234 98.5h154q-102 -52 -147 -88t-45 -96q0 -36 21.5 -57t59.5 -21q54 0 107 28l2 -192q-43 -20 -96.5 -30.5t-105.5 -10.5z" />
    <glyph glyph-name="uni032D" unicode="&#x32d;" horiz-adv-x="0" 
d="M242 -419l228 320h268l220 -320h-214l-140 191l-140 -191h-222z" />
    <glyph glyph-name="uni0331" unicode="&#x331;" horiz-adv-x="0" 
d="M323 -354v219h554l-3 -219h-551z" />
    <glyph glyph-name="Wgrave" unicode="&#x1e80;" 
d="M184 0l-214 1454h291l76 -1049q4 -54 9 -107t9 -107h7l31 342l62 571h291l61 -571l31 -342h8q4 54 8.5 107t8.5 107l77 1049h290l-212 -1454h-307l-62 435q-17 122 -26 229t-20 229h-6q-11 -122 -20 -229t-26 -229l-60 -435h-307zM445 1591l-235 321h332l204 -321h-301z
" />
    <glyph glyph-name="wgrave" unicode="&#x1e81;" 
d="M193 0l-203 1091h275l46 -522l38 -321h7l39 321l49 349h312l50 -349l39 -324l6 1l37 323l47 522h275l-204 -1091h-299l-68 476l-35 306h-7l-36 -306l-67 -476h-301zM757 1284h-289l-246 339h331z" />
    <glyph glyph-name="Wacute" unicode="&#x1e82;" 
d="M184 0l-214 1454h291l76 -1049q4 -54 9 -107t9 -107h7l31 342l62 571h291l61 -571l31 -342h8q4 54 8.5 107t8.5 107l77 1049h290l-212 -1454h-307l-62 435q-17 122 -26 229t-20 229h-6q-11 -122 -20 -229t-26 -229l-60 -435h-307zM743 1591h-301l204 321h332z" />
    <glyph glyph-name="wacute" unicode="&#x1e83;" 
d="M193 0l-203 1091h275l46 -522l38 -321h7l39 321l49 349h312l50 -349l39 -324l6 1l37 323l47 522h275l-204 -1091h-299l-68 476l-35 306h-7l-36 -306l-67 -476h-301zM462 1284l204 339h332l-246 -339h-290z" />
    <glyph glyph-name="Wdieresis" unicode="&#x1e84;" 
d="M184 0l-214 1454h291l76 -1049q4 -54 9 -107t9 -107h7l31 342l62 571h291l61 -571l31 -342h8q4 54 8.5 107t8.5 107l77 1049h290l-212 -1454h-307l-62 435q-17 122 -26 229t-20 229h-6q-11 -122 -20 -229t-26 -229l-60 -435h-307zM360 1572q-66 0 -116.5 48t-50.5 127
q0 72 50.5 122.5t116.5 50.5t117 -50t51 -123q0 -79 -51.5 -127t-116.5 -48zM840 1572q-65 0 -116 48t-51 127q0 73 51 123t116 50q67 0 117 -50.5t50 -122.5q0 -79 -50.5 -127t-116.5 -48z" />
    <glyph glyph-name="wdieresis" unicode="&#x1e85;" 
d="M193 0l-203 1091h275l46 -522l38 -321h7l39 321l49 349h312l50 -349l39 -324l6 1l37 323l47 522h275l-204 -1091h-299l-68 476l-35 306h-7l-36 -306l-67 -476h-301zM371 1264q-66 0 -116.5 48t-50.5 127q0 72 50.5 122.5t116.5 50.5t117 -50t51 -123q0 -79 -51.5 -127
t-116.5 -48zM831 1264q-65 0 -116 48t-51 127q0 73 51 123t116 50q67 0 117 -50.5t50 -122.5q0 -79 -50.5 -127t-116.5 -48z" />
    <glyph glyph-name="uni1E9E" unicode="&#x1e9e;" 
d="M490 -1l-1 299q34 -6 69.5 -9.5t84.5 -3.5q57 0 93 25t53.5 68t17.5 95q0 51 -17 90.5t-69.5 62t-157.5 22.5h-90l211 466l47 79l-56 -10h-271v-1183h-315v1454h1078l-218 -478q-19 -40 -44 -79.5t-79 -50.5q79 -16 137.5 -47.5t96.5 -78t57 -106.5t19 -134
q0 -161 -53 -270.5t-158.5 -165t-264.5 -55.5q-64 0 -101.5 2.5t-68.5 7.5z" />
    <glyph glyph-name="uni1ECA" unicode="&#x1eca;" 
d="M135 0v269h308v795q0 60 22 87t67 34h-397v269h930v-269h-309v-795q0 -60 -22 -86.5t-67 -34.5h398v-269h-930zM600 -559q-82 0 -139.5 54t-57.5 146q0 95 58 148.5t139 53.5q82 0 139.5 -53.5t57.5 -148.5q0 -92 -58.5 -146t-138.5 -54z" />
    <glyph glyph-name="uni1ECB" unicode="&#x1ecb;" 
d="M488 30v649q0 94 27 124.5t82 39.5l-109 78v54l302 116l-2 -1061h-300zM167 0v218h933v-218h-933zM133 843v248h657l-45 -248h-612zM640 1280q-82 0 -139.5 54t-57.5 146q0 93 58 147.5t139 54.5q82 0 139.5 -53.5t57.5 -148.5q0 -92 -58.5 -146t-138.5 -54zM645 -559
q-82 0 -139.5 54t-57.5 146q0 95 58 148.5t139 53.5q82 0 139.5 -53.5t57.5 -148.5q0 -92 -58.5 -146t-138.5 -54z" />
    <glyph glyph-name="uni1ECC" unicode="&#x1ecc;" 
d="M600 -30q-178 0 -297.5 90t-179.5 260.5t-60 414.5q0 358 135.5 553t401.5 195t401.5 -195t135.5 -553q0 -244 -60 -414.5t-179.5 -260.5t-297.5 -90zM600 262q107 0 161 114.5t54 358.5q0 239 -54 347.5t-161 108.5q-106 0 -160.5 -108.5t-54.5 -347.5
q0 -244 54.5 -358.5t160.5 -114.5zM601 -559q-82 0 -139.5 54t-57.5 146q0 95 58 148.5t139 53.5q82 0 139.5 -53.5t57.5 -148.5q0 -92 -58.5 -146t-138.5 -54z" />
    <glyph glyph-name="uni1ECD" unicode="&#x1ecd;" 
d="M593 -15q-150 0 -261.5 68t-173 193.5t-61.5 296.5q0 179 65.5 306.5t181 195.5t264.5 68q152 0 263 -69.5t171.5 -195.5t60.5 -296q0 -180 -66 -306.5t-181 -193.5t-263 -67zM602 242q78 0 133 69t55 239q0 173 -56.5 239.5t-135.5 66.5t-133 -66.5t-54 -234.5
q0 -175 57.5 -244t133.5 -69zM602 -559q-82 0 -139.5 54t-57.5 146q0 95 58 148.5t139 53.5q82 0 139.5 -53.5t57.5 -148.5q0 -92 -58.5 -146t-138.5 -54z" />
    <glyph glyph-name="uni1EE4" unicode="&#x1ee4;" 
d="M600 -20q-156 0 -273.5 63.5t-183 188t-65.5 306.5v918h314v-873q0 -84 13.5 -143t39.5 -96.5t65.5 -54.5t91.5 -17q51 0 90 17t64.5 54t38.5 96.5t13 143.5v871h314v-916q0 -179 -64.5 -304t-182 -189.5t-275.5 -64.5zM600 -559q-82 0 -139.5 54t-57.5 146
q0 95 58 148.5t139 53.5q82 0 139.5 -53.5t57.5 -148.5q0 -92 -58.5 -146t-138.5 -54z" />
    <glyph glyph-name="uni1EE5" unicode="&#x1ee5;" 
d="M442 -22q-148 0 -227 98.5t-79 297.5v718h308v-674q0 -119 34.5 -152.5t91.5 -33.5q65 0 112 40t73 96v724h308v-1092h-273l-27 412l11 -83q-14 -114 -56.5 -192.5t-111 -118.5t-164.5 -40zM610 -559q-82 0 -139.5 54t-57.5 146q0 95 58 148.5t139 53.5q82 0 139.5 -53.5
t57.5 -148.5q0 -92 -58.5 -146t-138.5 -54z" />
    <glyph glyph-name="Ygrave" unicode="&#x1ef2;" 
d="M458 453l-458 1001h336l161 -426l97 -259h11l98 258l161 427h336l-458 -1001h-284zM443 0v645h313v-645h-313zM445 1591l-235 321h332l204 -321h-301z" />
    <glyph glyph-name="ygrave" unicode="&#x1ef3;" 
d="M182 -443v264h100q69 0 110 14.5t63 39t33 53.5q14 34 28.5 50t56.5 22h-151l-375 1091h340l148 -563l58 -212h9l52 211l143 564h338l-359 -1091q-37 -114 -79 -197.5t-99 -138t-138.5 -81t-197.5 -26.5h-80zM747 1284h-289l-246 339h331z" />
    <glyph glyph-name="uni1EF8" unicode="&#x1ef8;" 
d="M458 453l-458 1001h336l161 -426l97 -259h11l98 258l161 427h336l-458 -1001h-284zM443 0v645h313v-645h-313zM751 1562q-67 0 -110 22.5t-72 52.5t-52 52.5t-50 22.5q-37 0 -60.5 -40.5t-9.5 -111.5h-197q-19 168 53 254.5t197 86.5q67 0 109.5 -22.5t71 -52.5t51 -52.5
t49.5 -22.5q38 0 62.5 39.5t11.5 110.5h195q20 -167 -52 -253t-197 -86z" />
    <glyph glyph-name="uni1EF9" unicode="&#x1ef9;" 
d="M182 -443v264h100q69 0 110 14.5t63 39t33 53.5q14 34 28.5 50t56.5 22h-151l-375 1091h340l148 -563l58 -212h9l52 211l143 564h338l-359 -1091q-37 -114 -79 -197.5t-99 -138t-138.5 -81t-197.5 -26.5h-80zM742 1262q-67 0 -110 22.5t-72 52.5t-52 52.5t-50 22.5
q-37 0 -60.5 -40.5t-9.5 -111.5h-207q-19 168 52.5 257.5t207.5 89.5q67 0 109.5 -22.5t71 -52.5t51 -52.5t49.5 -22.5q38 0 62.5 39.5t11.5 110.5h204q19 -172 -52.5 -258.5t-205.5 -86.5z" />
    <glyph glyph-name="uni200B" unicode="&#x200b;" horiz-adv-x="0" 
 />
    <glyph glyph-name="endash" unicode="&#x2013;" 
d="M128 572v286h944v-286h-944z" />
    <glyph glyph-name="emdash" unicode="&#x2014;" 
d="M0 572v286h1200l-2 -286h-1198z" />
    <glyph glyph-name="quoteleft" unicode="&#x2018;" 
d="M810 1561v-205h-56q-31 0 -49.5 -19.5t-26 -51t-7.5 -66.5q0 -60 -20 -92t-70 -32h230v-388h-356v458q0 182 66.5 289t226.5 107h62z" />
    <glyph glyph-name="quoteright" unicode="&#x2019;" 
d="M456 707v205h56q32 0 50 19.5t25.5 51t7.5 66.5q0 60 20.5 92t69.5 32h-230v388h356v-458q0 -181 -66 -288.5t-227 -107.5h-62z" />
    <glyph glyph-name="quotesinglbase" unicode="&#x201a;" 
d="M456 -467v205h56q32 0 50 19.5t25.5 51t7.5 66.5q0 60 20.5 92t69.5 32h-230v388h356v-458q0 -181 -66 -288.5t-227 -107.5h-62z" />
    <glyph glyph-name="quotedblleft" unicode="&#x201c;" 
d="M1026 1560v-205h-56q-31 0 -49.5 -19.5t-26 -51t-7.5 -66.5q0 -60 -20 -92t-70 -32h230v-388h-356v488q0 106 28.5 188.5t93 130t171.5 47.5h62zM528 1560v-205h-56q-31 0 -49.5 -19.5t-26 -51t-7.5 -66.5q0 -60 -20 -92t-70 -32h230v-388h-356v488q0 106 28.5 188.5
t93 130t171.5 47.5h62z" />
    <glyph glyph-name="quotedblright" unicode="&#x201d;" 
d="M174 708v205h56q32 0 50 19.5t25.5 51t7.5 66.5q0 60 20.5 92t69.5 32h-230v388h356v-488q0 -106 -28.5 -188.5t-93 -130t-171.5 -47.5h-62zM672 708v205h56q32 0 50 19.5t25.5 51t7.5 66.5q0 60 20.5 92t69.5 32h-230v388h356v-488q0 -106 -28.5 -188.5t-93 -130
t-171.5 -47.5h-62z" />
    <glyph glyph-name="quotedblbase" unicode="&#x201e;" 
d="M174 -466v205h56q32 0 50 19.5t25.5 51t7.5 66.5q0 60 20.5 92t69.5 32h-230v388h356v-488q0 -106 -28.5 -188.5t-93 -130t-171.5 -47.5h-62zM672 -466v205h56q32 0 50 19.5t25.5 51t7.5 66.5q0 60 20.5 92t69.5 32h-230v388h356v-488q0 -106 -28.5 -188.5t-93 -130
t-171.5 -47.5h-62z" />
    <glyph glyph-name="dagger" unicode="&#x2020;" 
d="M472 153l-13 1454h282l-13 -1454h-256zM190 1244h821v-268h-821v268z" />
    <glyph glyph-name="daggerdbl" unicode="&#x2021;" 
d="M472 153l-13 1454h282l-13 -1454h-256zM190 1260h821v-262h-821v262zM190 761h821v-262h-821v262z" />
    <glyph glyph-name="bullet" unicode="&#x2022;" 
d="M600 477q-112 0 -185 75.5t-73 193.5q0 116 73 192t185 76t185 -76t73 -192q0 -117 -73 -193t-185 -76z" />
    <glyph glyph-name="ellipsis" unicode="&#x2026;" 
d="M181 -15q-85 0 -125.5 55.5t-40.5 172.5q0 116 40.5 170.5t125.5 54.5q86 0 127 -54.5t41 -170.5q0 -117 -41 -172.5t-127 -55.5zM1019 -15q-86 0 -127 55.5t-41 172.5q0 116 41 170.5t127 54.5t126 -54.5t40 -170.5q0 -117 -40 -172.5t-126 -55.5zM597 -15
q-85 0 -125.5 55.5t-40.5 172.5q0 116 40.5 170.5t125.5 54.5q86 0 126.5 -54.5t39.5 -170.5q1 -117 -39.5 -172.5t-126.5 -55.5z" />
    <glyph glyph-name="guilsinglleft" unicode="&#x2039;" 
d="M545 175l-233 374v8l233 375h303l-183 -295q-24 -38 -46 -55.5t-57 -28.5q37 -11 58.5 -28.5t44.5 -55.5l183 -294h-303z" />
    <glyph glyph-name="guilsinglright" unicode="&#x203a;" 
d="M352 175l183 294q23 38 44.5 55.5t58.5 28.5q-35 11 -57 28.5t-46 55.5l-183 295h303l233 -375v-8l-233 -374h-303z" />
    <glyph glyph-name="fraction" unicode="&#x2044;" 
d="M70 0l801 1454h258l-801 -1454h-258z" />
    <glyph glyph-name="uni2070" unicode="&#x2070;" 
d="M603 847q-226 0 -344 117t-118 366q0 251 118 368t344 117q225 0 340.5 -118t115.5 -367q0 -250 -114.5 -366.5t-341.5 -116.5zM603 1043q115 0 165 72.5t50 214.5q0 152 -49.5 220.5t-165.5 68.5q-114 0 -168 -69t-54 -220q0 -142 53.5 -214.5t168.5 -72.5z" />
    <glyph glyph-name="uni2074" unicode="&#x2074;" 
d="M151 995l342 820h283l-283 -591l-28 -37h648l-1 -192h-961zM727 855l1 282l73 50q-39 0 -56.5 26.5t-17.5 87.5v169l233 3v-618h-233z" />
    <glyph glyph-name="uni2075" unicode="&#x2075;" 
d="M601 847q-140 0 -241 38.5t-151.5 109t-41.5 165.5h237q4 -58 52.5 -86.5t150.5 -28.5q101 0 158.5 33t57.5 117q0 66 -50.5 97.5t-159.5 31.5q-55 0 -104 -16.5t-110 -56.5l-209 55l81 499h720v-198h-521l-79 -267q51 83 120.5 117t188.5 34q169 0 266 -78t97 -214
q0 -160 -125 -256t-337 -96z" />
    <glyph glyph-name="uni2076" unicode="&#x2076;" 
d="M601 847q-144 0 -245.5 50t-155.5 140.5t-54 211.5q0 74 31 156t83.5 160.5t119 141.5t137.5 97h339q-91 -49 -174.5 -111.5t-149.5 -129.5t-105 -129t-41 -111l-10 -1q51 92 127.5 138t176.5 46q172 0 271 -85.5t99 -233.5q0 -96 -57.5 -173t-158.5 -122t-233 -45z
M600 1039q101 0 155 41.5t54 106.5q0 78 -53 119.5t-148 41.5q-75 0 -128 -11t-87 -34q-3 -9 -4.5 -32t-1.5 -54q0 -81 59 -129.5t154 -48.5z" />
    <glyph glyph-name="uni2077" unicode="&#x2077;" 
d="M326 857l365 638q42 74 101.5 102.5t153.5 19.5l10 -5h-791v193h904l-469 -948h-274z" />
    <glyph glyph-name="uni2078" unicode="&#x2078;" 
d="M598 847q-212 0 -337.5 74t-125.5 199q0 100 80 161t220 68q-118 15 -185.5 72.5t-67.5 145.5q0 79 50.5 134.5t144 85t223.5 29.5t223.5 -29.5t143.5 -85t50 -134.5q0 -89 -66.5 -147t-184.5 -72q140 -6 219.5 -67.5t79.5 -161.5q0 -83 -57.5 -144t-162 -94.5
t-247.5 -33.5zM599 1030q111 0 167.5 31.5t56.5 84.5q0 56 -59 85.5t-165 29.5q-105 0 -163.5 -29.5t-58.5 -84.5q0 -53 56 -85t166 -32zM597 1429q81 0 131 28.5t50 78.5q0 46 -44.5 73t-135.5 27q-90 0 -133.5 -27t-43.5 -74q0 -50 48 -78t128 -28z" />
    <glyph glyph-name="uni2079" unicode="&#x2079;" 
d="M340 857q91 49 174.5 111.5t149.5 129.5t105 129t41 111l10 1q-51 -92 -127.5 -138t-176.5 -46q-172 0 -271 85.5t-99 233.5q0 97 57.5 173.5t158.5 121.5t233 45q144 0 246 -50t155.5 -140.5t53.5 -211.5q0 -73 -31 -155.5t-83.5 -161t-119 -141.5t-137.5 -97h-339z
M588 1313q75 0 128 11.5t87 33.5q3 9 4.5 32t1.5 54q0 81 -59 129.5t-154 48.5q-101 0 -155 -41.5t-54 -106.5q0 -78 53.5 -119.5t147.5 -41.5z" />
    <glyph glyph-name="uni2080" unicode="&#x2080;" 
d="M603 -453q-226 0 -344 117t-118 366q0 251 118 368t344 117q225 0 340.5 -118t115.5 -367q0 -250 -114.5 -366.5t-341.5 -116.5zM603 -257q115 0 165 72.5t50 214.5q0 152 -49.5 220.5t-165.5 68.5q-114 0 -168 -69t-54 -220q0 -142 53.5 -214.5t168.5 -72.5z" />
    <glyph glyph-name="uni2081" unicode="&#x2081;" 
d="M540 -424l2 534q0 53 5.5 100t18.5 107l14 188h212v-929h-252zM183 -445v198h902v-198h-902zM160 131v253q60 -19 127.5 -19t129.5 17t106 48.5t57 74.5l-14 -188q-23 -81 -88.5 -132.5t-150.5 -66.5t-167 13z" />
    <glyph glyph-name="uni2082" unicode="&#x2082;" 
d="M138 -445q23 52 62.5 100t91 95t112 95.5t125.5 101.5q54 44 98.5 76t76.5 60t49.5 58.5t17.5 72.5q0 44 -41 70t-124 26q-110 0 -161.5 -47t-32.5 -129h-230q-29 183 80.5 282t345.5 99q188 0 298 -66t110 -215q0 -72 -25.5 -125.5t-74 -100t-117.5 -99.5
q-65 -49 -108 -82.5t-70 -55.5t-42 -35.5t-24 -24.5q29 23 71 32.5t112 9.5h286v-198h-886z" />
    <glyph glyph-name="uni2083" unicode="&#x2083;" 
d="M606 -453q-251 0 -359 88t-97 234h235q-4 -61 49 -92.5t164 -31.5q104 0 160 29t56 87q0 51 -49 72.5t-165 21.5h-138l1 169h131q92 0 135 25t43 82q0 45 -44.5 69.5t-127.5 24.5q-85 0 -128.5 -27.5t-39.5 -77.5h-238q0 146 99 221t304 75q191 0 299.5 -64.5
t108.5 -183.5q0 -92 -63 -145.5t-178 -70.5q139 -7 214.5 -63.5t75.5 -156.5q0 -130 -121.5 -207.5t-326.5 -77.5z" />
    <glyph glyph-name="uni2084" unicode="&#x2084;" 
d="M151 -305l342 820h283l-283 -591l-28 -37h648l-1 -192h-961zM727 -445l1 282l73 50q-39 0 -56.5 26.5t-17.5 87.5v169l233 3v-618h-233z" />
    <glyph glyph-name="uni2085" unicode="&#x2085;" 
d="M601 -453q-140 0 -241 38.5t-151.5 109t-41.5 165.5h237q4 -58 52.5 -86.5t150.5 -28.5q101 0 158.5 33t57.5 117q0 66 -50.5 97.5t-159.5 31.5q-55 0 -104 -16.5t-110 -56.5l-209 55l81 499h720v-198h-521l-79 -267q51 83 120.5 117t188.5 34q169 0 266 -78t97 -214
q0 -160 -125 -256t-337 -96z" />
    <glyph glyph-name="uni2086" unicode="&#x2086;" 
d="M601 -453q-144 0 -245.5 50t-155.5 140.5t-54 211.5q0 74 31 156t83.5 160.5t119 141.5t137.5 97h339q-91 -49 -174.5 -111.5t-149.5 -129.5t-105 -129t-41 -111l-10 -1q51 92 127.5 138t176.5 46q172 0 271 -85.5t99 -233.5q0 -96 -57.5 -173t-158.5 -122t-233 -45z
M600 -261q101 0 155 41.5t54 106.5q0 78 -53 119.5t-148 41.5q-75 0 -128 -11t-87 -34q-3 -9 -4.5 -32t-1.5 -54q0 -81 59 -129.5t154 -48.5z" />
    <glyph glyph-name="uni2087" unicode="&#x2087;" 
d="M326 -443l365 638q42 74 101.5 102.5t153.5 19.5l10 -5h-791v193h904l-469 -948h-274z" />
    <glyph glyph-name="uni2088" unicode="&#x2088;" 
d="M598 -453q-212 0 -337.5 74t-125.5 199q0 100 80 161t220 68q-118 15 -185.5 72.5t-67.5 145.5q0 79 50.5 134.5t144 85t223.5 29.5t223.5 -29.5t143.5 -85t50 -134.5q0 -89 -66.5 -147t-184.5 -72q140 -6 219.5 -67.5t79.5 -161.5q0 -83 -57.5 -144t-162 -94.5
t-247.5 -33.5zM599 -270q111 0 167.5 31.5t56.5 84.5q0 56 -59 85.5t-165 29.5q-105 0 -163.5 -29.5t-58.5 -84.5q0 -53 56 -85t166 -32zM597 129q81 0 131 28.5t50 78.5q0 46 -44.5 73t-135.5 27q-90 0 -133.5 -27t-43.5 -74q0 -50 48 -78t128 -28z" />
    <glyph glyph-name="uni2089" unicode="&#x2089;" 
d="M340 -443q91 49 174.5 111.5t149.5 129.5t105 129t41 111l10 1q-51 -92 -127.5 -138t-176.5 -46q-172 0 -271 85.5t-99 233.5q0 97 57.5 173.5t158.5 121.5t233 45q144 0 246 -50t155.5 -140.5t53.5 -211.5q0 -73 -31 -155.5t-83.5 -161t-119 -141.5t-137.5 -97h-339z
M588 13q75 0 128 11.5t87 33.5q3 9 4.5 32t1.5 54q0 81 -59 129.5t-154 48.5q-101 0 -155 -41.5t-54 -106.5q0 -78 53.5 -119.5t147.5 -41.5z" />
    <glyph glyph-name="Euro" unicode="&#x20ac;" 
d="M673 -28q-175 0 -296 91t-184 263.5t-63 416.5q0 238 63 402.5t183.5 250t292.5 85.5q163 0 265.5 -57t155 -158t63.5 -233h-316q2 44 -15 80.5t-55 58.5t-100 22q-99 0 -159 -105.5t-60 -352.5q0 -173 27.5 -278.5t78.5 -153t120 -47.5q55 0 92.5 24t56 53.5t15.5 45.5
h318q5 -105 -54 -198.5t-169.5 -151.5t-259.5 -58zM17 448v204h696v-204h-696zM48 782v204h696v-204h-696z" />
    <glyph glyph-name="trademark" unicode="&#x2122;" 
d="M533 880v574h268l40 -172l19 -80l20 80l40 172h268v-574h-155v329l6 154h-1l-37 -139l-79 -214h-127l-76 214l-36 139h-3l8 -154v-329h-155zM146 880v543h156v-543h-156zM2 1302v152h444v-152h-444z" />
    <glyph glyph-name="estimated" unicode="&#x212e;" 
d="M600 0q-163 0 -288.5 90t-197 253.5t-71.5 386.5q0 220 71.5 384.5t197 256.5t288.5 92q246 0 396 -193.5t160 -558.5h-885q-10 0 -16 -5.5t-6 -32.5v-358q0 -28 25 -71t71.5 -86t111 -72t143.5 -29q105 0 198.5 53t153.5 180h104q-66 -104 -131 -168t-143 -93t-182 -29z
M271 756h654q16 0 20 7.5t4 26.5v351q0 78 -54.5 139t-135.5 96.5t-161 35.5q-100 0 -179 -42.5t-124.5 -102t-45.5 -111.5v-381q0 -19 22 -19z" />
    <glyph glyph-name="minus" unicode="&#x2212;" 
d="M114 629v265h972v-265h-972z" />
    <glyph glyph-name="uni2215" unicode="&#x2215;" 
d="M153 -195l643 1886h251l-643 -1886h-251z" />
    <glyph glyph-name="infinity" unicode="&#x221e;" 
d="M286 403q-125 0 -205 95.5t-80 253.5q0 104 34.5 185.5t94.5 128.5t137 47q88 0 146.5 -33t100.5 -88.5t80 -123.5l20 -44q20 109 67.5 174t109 93.5t122.5 28.5q126 0 206 -95t80 -255q0 -104 -34.5 -183t-94.5 -123.5t-137 -44.5q-124 0 -197 56t-130 159l-20 53
q-20 -108 -67.5 -170t-109 -88t-123.5 -26zM364 606q31 0 67.5 12t69 40.5t48.5 78.5l-18 29q-44 71 -95.5 106.5t-104.5 35.5q-44 0 -72.5 -42.5t-28.5 -113.5q0 -79 41 -112.5t93 -33.5zM875 614q47 0 71 43t24 113q0 80 -38 113.5t-92 33.5q-32 0 -70.5 -10t-71.5 -38
t-50 -82l20 -30q47 -70 98.5 -106.5t108.5 -36.5z" />
    <glyph glyph-name="approxequal" unicode="&#x2248;" 
d="M801 243q-69 0 -116.5 22t-81.5 55t-61.5 65.5t-56 54.5t-66.5 22q-47 0 -71.5 -23t-30.5 -70.5t2 -123.5h-234q-19 128 3 216t71.5 142t112.5 78t126 24q73 0 121.5 -22t82 -54.5t60 -65.5t54.5 -55t66 -22q52 0 76 23t28 71t-6 121h234q21 -128 -1 -216t-72 -141
t-114 -77t-126 -24zM801 746q-69 0 -116.5 22t-81.5 55t-61.5 65.5t-56 54.5t-66.5 22q-47 0 -71.5 -23t-30.5 -70.5t2 -123.5h-234q-19 128 3 216t71.5 142t112.5 78t126 24q73 0 121.5 -22t82 -54.5t60 -65.5t54.5 -55t66 -22q52 0 76 23t28 71t-6 121h234
q21 -128 -1 -216t-72 -141t-114 -77t-126 -24z" />
    <glyph glyph-name="fi" unicode="&#xfb01;" 
d="M61 0v747q0 50 16 72t46 30l-62 198v174q0 128 46 213t123 127.5t169 42.5q65 0 99 -3.5t68 -10.5v-267q-19 8 -50.5 12.5t-67.5 4.5q-28 0 -49.5 -13t-34 -45t-12.5 -91v-1191h-291zM-55 849v243h583v-243h-583zM817 0v1092h290l1 -1092h-291zM587 1091h480v-238h-480
v238zM578 238h756v-238h-756v238zM943 1280q-82 0 -139.5 54t-57.5 146q0 93 58 147.5t139 54.5q82 0 139.5 -53.5t57.5 -148.5q0 -92 -58.5 -146t-138.5 -54z" />
    <glyph glyph-name="fl" unicode="&#xfb02;" 
d="M1044 -13q-105 0 -173.5 19.5t-107 59t-54 100.5t-15.5 143v890q0 47 28 68t56 26h-84q-39 0 -68.5 12t-67 23.5t-102.5 11.5q-38 0 -63.5 -12.5t-38.5 -45t-13 -91.5v-1191h-290v747q0 50 16 72t45 30l-61 198v174q0 128 45.5 213t122 127.5t168.5 42.5q85 0 132.5 -4.5
t77.5 -10.5t59 -12.5t74.5 -11t126.5 -4.5h135l-2 -1146q0 -99 19.5 -132t77.5 -33q21 0 53 5.5t60 21.5v-255q-34 -18 -76 -26.5t-80 -8.5zM-64 849v243h579v-243h-579z" />
    <glyph glyph-name="uni004A0301" 
d="M560 -30q-120 0 -216 31.5t-164.5 100.5t-106 181t-40.5 272h318q0 -91 14.5 -149.5t42 -91t65 -45.5t81.5 -13q72 0 116.5 26.5t65 82.5t20.5 142v947h324v-927q0 -192 -59 -315.5t-174.5 -182.5t-286.5 -59zM1037 1591h-301l204 321h332z" />
    <glyph glyph-name="G.ss06" 
d="M900 200l200 613v-813h-138zM614 -28q-170 0 -293.5 92.5t-190.5 263.5t-67 407q0 234 68.5 400.5t197 255.5t309.5 90q149 1 253 -55t159 -166t57 -270h-289q-14 74 -36 116.5t-56 61t-86 18.5q-87 0 -143.5 -48.5t-84 -148.5t-27.5 -254t27.5 -258t82.5 -157t135 -53
q71 0 121 14.5t93 48.5v209h-228v274h484l-200 -613q-20 -98 -92 -163t-194 -65z" />
    <glyph glyph-name="uni01F4.ss06" 
d="M900 200l200 613v-813h-138zM614 -28q-170 0 -293.5 92.5t-190.5 263.5t-67 407q0 234 68.5 400.5t197 255.5t309.5 90q149 1 253 -55t159 -166t57 -270h-289q-14 74 -36 116.5t-56 61t-86 18.5q-87 0 -143.5 -48.5t-84 -148.5t-27.5 -254t27.5 -258t82.5 -157t135 -53
q71 0 121 14.5t93 48.5v209h-228v274h484l-200 -613q-20 -98 -92 -163t-194 -65zM793 1591h-301l204 321h332z" />
    <glyph glyph-name="Gbreve.ss06" 
d="M900 200l200 613v-813h-138zM614 -28q-170 0 -293.5 92.5t-190.5 263.5t-67 407q0 234 68.5 400.5t197 255.5t309.5 90q149 1 253 -55t159 -166t57 -270h-289q-14 74 -36 116.5t-56 61t-86 18.5q-87 0 -143.5 -48.5t-84 -148.5t-27.5 -254t27.5 -258t82.5 -157t135 -53
q71 0 121 14.5t93 48.5v209h-228v274h484l-200 -613q-20 -98 -92 -163t-194 -65zM651 1581q-166 0 -263 73t-90 258h229q-8 -80 23 -117.5t101 -37.5q69 0 100.5 37.5t23.5 117.5h228q5 -123 -37.5 -195.5t-123.5 -104t-191 -31.5z" />
    <glyph glyph-name="Gcaron.ss06" 
d="M900 200l200 613v-813h-138zM614 -28q-170 0 -293.5 92.5t-190.5 263.5t-67 407q0 234 68.5 400.5t197 255.5t309.5 90q149 1 253 -55t159 -166t57 -270h-289q-14 74 -36 116.5t-56 61t-86 18.5q-87 0 -143.5 -48.5t-84 -148.5t-27.5 -254t27.5 -258t82.5 -157t135 -53
q71 0 121 14.5t93 48.5v209h-228v274h484l-200 -613q-20 -98 -92 -163t-194 -65zM518 1585l-272 327h259l146 -168l145 168h258l-270 -327h-266z" />
    <glyph glyph-name="uni0122.ss06" 
d="M900 200l200 613v-813h-138zM614 -28q-170 0 -293.5 92.5t-190.5 263.5t-67 407q0 234 68.5 400.5t197 255.5t309.5 90q149 1 253 -55t159 -166t57 -270h-289q-14 74 -36 116.5t-56 61t-86 18.5q-87 0 -143.5 -48.5t-84 -148.5t-27.5 -254t27.5 -258t82.5 -157t135 -53
q71 0 121 14.5t93 48.5v209h-228v274h484l-200 -613q-20 -98 -92 -163t-194 -65zM465 -526q7 35 13 93t10 125.5t4 128.5v63h276v-73q0 -71 -6.5 -135t-17 -115.5t-22.5 -86.5h-257z" />
    <glyph glyph-name="Gdotaccent.ss06" 
d="M900 200l200 613v-813h-138zM614 -28q-170 0 -293.5 92.5t-190.5 263.5t-67 407q0 234 68.5 400.5t197 255.5t309.5 90q149 1 253 -55t159 -166t57 -270h-289q-14 74 -36 116.5t-56 61t-86 18.5q-87 0 -143.5 -48.5t-84 -148.5t-27.5 -254t27.5 -258t82.5 -157t135 -53
q71 0 121 14.5t93 48.5v209h-228v274h484l-200 -613q-20 -98 -92 -163t-194 -65zM650 1572q-67 0 -120 48t-53 127q0 73 53 123t120 50q69 0 121 -50.5t52 -122.5q0 -79 -52.5 -127t-120.5 -48z" />
    <glyph glyph-name="J.ss07" 
d="M560 -30q-120 0 -216 30t-164.5 98t-106 180.5t-40.5 276.5h318q0 -91 14.5 -149.5t42 -91t65 -45.5t81.5 -13q72 0 116.5 26.5t65 82.5t20.5 142v668h-335v279h659v-927q0 -192 -59 -315.5t-174.5 -182.5t-286.5 -59z" />
    <glyph glyph-name="uni004A0301.ss07" 
d="M560 -30q-120 0 -216 30t-164.5 98t-106 180.5t-40.5 276.5h318q0 -91 14.5 -149.5t42 -91t65 -45.5t81.5 -13q72 0 116.5 26.5t65 82.5t20.5 142v668h-335v279h659v-927q0 -192 -59 -315.5t-174.5 -182.5t-286.5 -59zM886 1591h-301l204 321h332z" />
    <glyph glyph-name="IJ.ss08" 
d="M382 0h-317v1454h317v-1454zM746 -31q-95 0 -157 13.5t-109 27.5v271q37 -10 90 -22t99 -12q37 0 73 12.5t60 51.5t24 117v587q0 68 28 110t82 50l-110 118v90l309 71v-1021q0 -145 -33 -249t-117.5 -159.5t-238.5 -55.5zM521 1175v279h614l-55 -279h-559z" />
    <glyph glyph-name="J.ss08" 
d="M560 -31q-95 0 -163.5 9.5t-121.5 26t-105 35.5v271q45 -17 94 -31.5t117 -23.5t168 -9q37 0 74 12.5t62 51.5t25 117v587q0 68 28 110t82 50l-114 118l10 90l309 71v-1021q0 -145 -36 -249t-136.5 -159.5t-292.5 -55.5zM381 1175v279h644l-55 -279h-589z" />
    <glyph glyph-name="uni004A0301.ss08" 
d="M560 -31q-95 0 -163.5 9.5t-121.5 26t-105 35.5v271q45 -17 94 -31.5t117 -23.5t168 -9q37 0 74 12.5t62 51.5t25 117v587q0 68 28 110t82 50l-114 118l10 90l309 71v-1021q0 -145 -36 -249t-136.5 -159.5t-292.5 -55.5zM381 1175v279h644l-55 -279h-589zM849 1591h-301
l204 321h332z" />
    <glyph glyph-name="M.ss09" 
d="M29 0l30 1454h430l97 -956l11 -199h7l8 199l97 956h432l30 -1454h-265v735l9 530h-7l-77 -527l-106 -738h-254l-103 738l-76 527h-8l10 -530v-735h-265z" />
    <glyph glyph-name="W.ss10" 
d="M184 0l-214 1454h291l76 -979q5 -72 9.5 -142.5t8.5 -141.5h7l31 454l82 809h251l81 -809l31 -454h8l8 142t9 142l77 979h290l-212 -1454h-307l-62 568q-18 162 -26.5 323.5t-19.5 323.5h-6q-11 -162 -20 -323.5t-26 -323.5l-60 -568h-307z" />
    <glyph glyph-name="Wacute.ss10" 
d="M184 0l-214 1454h291l76 -979q5 -72 9.5 -142.5t8.5 -141.5h7l31 454l82 809h251l81 -809l31 -454h8l8 142t9 142l77 979h290l-212 -1454h-307l-62 568q-18 162 -26.5 323.5t-19.5 323.5h-6q-11 -162 -20 -323.5t-26 -323.5l-60 -568h-307zM743 1591h-301l204 321h332z
" />
    <glyph glyph-name="Wcircumflex.ss10" 
d="M184 0l-214 1454h291l76 -979q5 -72 9.5 -142.5t8.5 -141.5h7l31 454l82 809h251l81 -809l31 -454h8l8 142t9 142l77 979h290l-212 -1454h-307l-62 568q-18 162 -26.5 323.5t-19.5 323.5h-6q-11 -162 -20 -323.5t-26 -323.5l-60 -568h-307zM196 1585l272 327h266
l270 -327h-258l-145 168l-146 -168h-259z" />
    <glyph glyph-name="Wdieresis.ss10" 
d="M184 0l-214 1454h291l76 -979q5 -72 9.5 -142.5t8.5 -141.5h7l31 454l82 809h251l81 -809l31 -454h8l8 142t9 142l77 979h290l-212 -1454h-307l-62 568q-18 162 -26.5 323.5t-19.5 323.5h-6q-11 -162 -20 -323.5t-26 -323.5l-60 -568h-307zM360 1572q-66 0 -116.5 48
t-50.5 127q0 72 50.5 122.5t116.5 50.5t117 -50t51 -123q0 -79 -51.5 -127t-116.5 -48zM840 1572q-65 0 -116 48t-51 127q0 73 51 123t116 50q67 0 117 -50.5t50 -122.5q0 -79 -50.5 -127t-116.5 -48z" />
    <glyph glyph-name="Wgrave.ss10" 
d="M184 0l-214 1454h291l76 -979q5 -72 9.5 -142.5t8.5 -141.5h7l31 454l82 809h251l81 -809l31 -454h8l8 142t9 142l77 979h290l-212 -1454h-307l-62 568q-18 162 -26.5 323.5t-19.5 323.5h-6q-11 -162 -20 -323.5t-26 -323.5l-60 -568h-307zM445 1591l-235 321h332
l204 -321h-301z" />
    <glyph glyph-name="i.loclTRK" 
d="M488 30v649q0 94 27 124.5t82 39.5l-109 78v54l302 116l-2 -1061h-300zM167 0v218h933v-218h-933zM133 843v248h657l-45 -248h-612zM637 1280q-82 0 -139.5 54t-57.5 146q0 95 58 148.5t139 53.5q82 0 139.5 -53.5t57.5 -148.5q0 -92 -58.5 -146t-138.5 -54z" />
    <glyph glyph-name="uni006A0301" 
d="M485 -446q-110 0 -183.5 13.5t-120.5 27.5v251q37 -10 102.5 -22t126.5 -12q62 0 103.5 12.5t62.5 51.5t21 117v691q0 68 27 110t73 50l-100 68v109l309 71v-1074q0 -145 -38 -249t-130 -159.5t-253 -55.5zM252 844v248h654l-55 -248h-599zM609 1284l204 339h332
l-246 -339h-290z" />
    <glyph glyph-name="g.alt" 
d="M606 -458q-179 0 -301.5 38t-184.5 108.5t-62 167.5q0 63 34.5 106.5t93.5 66t132 20.5l41 5q-14 -12 -24 -26.5t-15.5 -33.5t-5.5 -42q0 -58 34.5 -95.5t98 -55.5t151.5 -18q122 0 187 27.5t64 85.5q0 44 -33.5 63t-121.5 29l-259 32q-134 17 -201.5 51.5t-90 78
t-22.5 85.5q0 58 35 98.5t86.5 65.5t101 36t78.5 8q-28 -14 -50.5 -33t-22.5 -63q0 -34 27 -50.5t110 -27.5l280 -35q153 -19 233.5 -63t110 -108t29.5 -143q0 -92 -44.5 -162.5t-120.5 -118.5t-171.5 -72.5t-196.5 -24.5zM612 384q-222 0 -344 98.5t-122 266.5
q0 167 122.5 265t345.5 96q131 -1 236 -45.5t166.5 -126t61.5 -194.5q0 -166 -122 -263t-344 -97zM613 594q86 0 128 36t42 115q0 80 -42.5 117.5t-129.5 37.5q-79 0 -125 -36t-46 -114q0 -81 46.5 -118.5t126.5 -37.5zM829 1059l-26 10q9 123 53.5 186.5t104.5 86.5t115 23
q20 0 42.5 -2t34.5 -7v-266q-46 11 -81.5 16t-67.5 5q-25 0 -53.5 -4.5t-59 -16t-62.5 -31.5z" />
    <glyph glyph-name="r.ss01" 
d="M90 0v218h859v-218h-859zM65 863v229h428v-229h-428zM1089 1091v-333q-39 20 -105.5 31.5t-107.5 11.5q-82 0 -140.5 -11t-96 -34.5t-58.5 -61.5v-333q0 -59 -19.5 -96t-56.5 -47l76 -54l3 -144h-294v679q0 81 20 112t86 52l-106 65v164h258l26 -442l-12 83
q14 101 70 187t143.5 138t192.5 52q36 0 66 -4t55 -15z" />
    <glyph glyph-name="racute.ss01" 
d="M90 0v218h859v-218h-859zM65 863v229h428v-229h-428zM1089 1091v-333q-39 20 -105.5 31.5t-107.5 11.5q-82 0 -140.5 -11t-96 -34.5t-58.5 -61.5v-333q0 -59 -19.5 -96t-56.5 -47l76 -54l3 -144h-294v679q0 81 20 112t86 52l-106 65v164h258l26 -442l-12 83
q14 101 70 187t143.5 138t192.5 52q36 0 66 -4t55 -15zM509 1284l204 339h332l-246 -339h-290z" />
    <glyph glyph-name="rcaron.ss01" 
d="M90 0v218h859v-218h-859zM65 863v229h428v-229h-428zM1089 1091v-333q-39 20 -105.5 31.5t-107.5 11.5q-82 0 -140.5 -11t-96 -34.5t-58.5 -61.5v-333q0 -59 -19.5 -96t-56.5 -47l76 -54l3 -144h-294v679q0 81 20 112t86 52l-106 65v164h258l26 -442l-12 83
q14 101 70 187t143.5 138t192.5 52q36 0 66 -4t55 -15zM491 1277l-233 342h244l146 -187l145 187h245l-234 -342h-313z" />
    <glyph glyph-name="uni0157.ss01" 
d="M90 0v218h859v-218h-859zM65 863v229h428v-229h-428zM1089 1091v-333q-39 20 -105.5 31.5t-107.5 11.5q-82 0 -140.5 -11t-96 -34.5t-58.5 -61.5v-333q0 -59 -19.5 -96t-56.5 -47l76 -54l3 -144h-294v679q0 81 20 112t86 52l-106 65v164h258l26 -442l-12 83
q14 101 70 187t143.5 138t192.5 52q36 0 66 -4t55 -15zM292 -526q7 35 13 93t10 125.5t4 128.5v63h276v-73q0 -71 -6.5 -135t-17 -115.5t-22.5 -86.5h-257z" />
    <glyph glyph-name="i.ss02" 
d="M790 -13q-116 0 -192 34.5t-113 106t-37 181.5v399q0 62 35 92t99 43h-467v248l661 1l-2 -677q0 -99 23.5 -132t95.5 -33q27 0 65 2t79.5 8t78.5 17v-255q-67 -21 -160.5 -28t-165.5 -7zM616 1247q-84 0 -143.5 55.5t-59.5 150.5q0 98 60 153t143 55q84 0 143.5 -55
t59.5 -153q0 -95 -60 -150.5t-143 -55.5z" />
    <glyph glyph-name="dotlessi.ss02" 
d="M790 -13q-116 0 -192 34.5t-113 106t-37 181.5v399q0 62 35 92t99 43h-467v248l661 1l-2 -677q0 -99 23.5 -132t95.5 -33q27 0 65 2t79.5 8t78.5 17v-255q-67 -21 -160.5 -28t-165.5 -7z" />
    <glyph glyph-name="iacute.ss02" 
d="M790 -13q-116 0 -192 34.5t-113 106t-37 181.5v399q0 62 35 92t99 43h-467v248l661 1l-2 -677q0 -99 23.5 -132t95.5 -33q27 0 65 2t79.5 8t78.5 17v-255q-67 -21 -160.5 -28t-165.5 -7zM476 1284l204 339h332l-246 -339h-290z" />
    <glyph glyph-name="ibreve.ss02" 
d="M790 -13q-116 0 -192 34.5t-113 106t-37 181.5v399q0 62 35 92t99 43h-467v248l661 1l-2 -677q0 -99 23.5 -132t95.5 -33q27 0 65 2t79.5 8t78.5 17v-255q-67 -21 -160.5 -28t-165.5 -7zM615 1260q-167 0 -263.5 91.5t-81.5 249.5h217q-5 -50 9 -87.5t44.5 -58
t74.5 -20.5t74.5 20.5t44.5 58t8 87.5h218q15 -158 -81.5 -249.5t-263.5 -91.5z" />
    <glyph glyph-name="icircumflex.ss02" 
d="M790 -13q-116 0 -192 34.5t-113 106t-37 181.5v399q0 62 35 92t99 43h-467v248l661 1l-2 -677q0 -99 23.5 -132t95.5 -33q27 0 65 2t79.5 8t78.5 17v-255q-67 -21 -160.5 -28t-165.5 -7zM225 1282l233 342h313l234 -342h-245l-145 187l-146 -187h-244z" />
    <glyph glyph-name="idieresis.ss02" 
d="M790 -13q-116 0 -192 34.5t-113 106t-37 181.5v399q0 62 35 92t99 43h-467v248l661 1l-2 -677q0 -99 23.5 -132t95.5 -33q27 0 65 2t79.5 8t78.5 17v-255q-67 -21 -160.5 -28t-165.5 -7zM385 1264q-66 0 -116.5 48t-50.5 127q0 72 50.5 122.5t116.5 50.5t117 -50t51 -123
q0 -79 -51.5 -127t-116.5 -48zM845 1264q-65 0 -116 48t-51 127q0 73 51 123t116 50q67 0 117 -50.5t50 -122.5q0 -79 -50.5 -127t-116.5 -48z" />
    <glyph glyph-name="i.loclTRK.ss02" 
d="M790 -13q-116 0 -192 34.5t-113 106t-37 181.5v399q0 62 35 92t99 43h-467v248l661 1l-2 -677q0 -99 23.5 -132t95.5 -33q27 0 65 2t79.5 8t78.5 17v-255q-67 -21 -160.5 -28t-165.5 -7zM615 1280q-82 0 -139.5 54t-57.5 146q0 95 58 148.5t139 53.5q82 0 139.5 -53.5
t57.5 -148.5q0 -92 -58.5 -146t-138.5 -54z" />
    <glyph glyph-name="uni1ECB.ss02" 
d="M488 30v649q0 94 27 124.5t82 39.5l-109 78v54l302 116l-2 -1061h-300zM167 0v218h933v-218h-933zM133 843v248h657l-45 -248h-612zM640 1280q-82 0 -139.5 54t-57.5 146q0 93 58 147.5t139 54.5q82 0 139.5 -53.5t57.5 -148.5q0 -92 -58.5 -146t-138.5 -54zM645 -559
q-82 0 -139.5 54t-57.5 146q0 95 58 148.5t139 53.5q82 0 139.5 -53.5t57.5 -148.5q0 -92 -58.5 -146t-138.5 -54z" />
    <glyph glyph-name="igrave.ss02" 
d="M790 -13q-116 0 -192 34.5t-113 106t-37 181.5v399q0 62 35 92t99 43h-467v248l661 1l-2 -677q0 -99 23.5 -132t95.5 -33q27 0 65 2t79.5 8t78.5 17v-255q-67 -21 -160.5 -28t-165.5 -7zM771 1284h-289l-246 339h331z" />
    <glyph glyph-name="imacron.ss02" 
d="M790 -13q-116 0 -192 34.5t-113 106t-37 181.5v399q0 62 35 92t99 43h-467v248l661 1l-2 -677q0 -99 23.5 -132t95.5 -33q27 0 65 2t79.5 8t78.5 17v-255q-67 -21 -160.5 -28t-165.5 -7zM309 1294v232h612l-3 -232h-609z" />
    <glyph glyph-name="iogonek.ss02" 
d="M790 -13q-116 0 -192 34.5t-113 106t-37 181.5v399q0 62 35 92t99 43h-467v248l661 1l-2 -677q0 -99 23.5 -132t95.5 -33q27 0 65 2t79.5 8t78.5 17v-255q-67 -21 -160.5 -28t-165.5 -7zM615 1280q-82 0 -139.5 54t-57.5 146q0 95 58 148.5t139 53.5q82 0 139.5 -53.5
t57.5 -148.5q0 -92 -58.5 -146t-138.5 -54zM772 -467q-115 0 -185 55.5t-70 149.5q0 86 71 163.5t234 98.5h154q-102 -52 -147 -88t-45 -96q0 -36 21.5 -57t59.5 -21q54 0 107 28l2 -192q-43 -20 -96.5 -30.5t-105.5 -10.5z" />
    <glyph glyph-name="itilde.ss02" 
d="M790 -13q-116 0 -192 34.5t-113 106t-37 181.5v399q0 62 35 92t99 43h-467v248l661 1l-2 -677q0 -99 23.5 -132t95.5 -33q27 0 65 2t79.5 8t78.5 17v-255q-67 -21 -160.5 -28t-165.5 -7zM766 1262q-67 0 -110 22.5t-72 52.5t-52 52.5t-50 22.5q-37 0 -60.5 -40.5
t-9.5 -111.5h-207q-19 168 52.5 257.5t207.5 89.5q67 0 109.5 -22.5t71 -52.5t51 -52.5t49.5 -22.5q38 0 62.5 39.5t11.5 110.5h204q19 -172 -52.5 -258.5t-205.5 -86.5z" />
    <glyph glyph-name="l.ss03" 
d="M474 30v1169q0 47 28 68t56 26l-84 105v163h298l-2 -1531h-296zM148 0v218h938v-218h-938zM113 1293v268h659l-49 -268h-610z" />
    <glyph glyph-name="lacute.ss03" 
d="M781 1673h-301l204 321h332zM474 30v1169q0 47 28 68t56 26l-84 105v163h298l-2 -1531h-296zM148 0v218h938v-218h-938zM113 1293v268h659l-49 -268h-610z" />
    <glyph glyph-name="lcaron.ss03" 
d="M864 1175l2 386h244l-27 -386h-219zM474 30v1169q0 47 28 68t56 26l-84 105v163h298l-2 -1531h-296zM148 0v218h938v-218h-938zM113 1293v268h659l-49 -268h-610z" />
    <glyph glyph-name="uni013C.ss03" 
d="M474 30v1169q0 47 28 68t56 26l-84 105v163h298l-2 -1531h-296zM148 0v218h938v-218h-938zM113 1293v268h659l-49 -268h-610zM488 -526q7 35 13 93t10 125.5t4 128.5v63h276v-73q0 -71 -6.5 -135t-17 -115.5t-22.5 -86.5h-257z" />
    <glyph glyph-name="ldot.ss03" 
d="M1027 497q-80 0 -136.5 59t-56.5 159q0 98 56.5 156.5t136.5 58.5q79 0 135 -58.5t56 -156.5q0 -100 -56 -159t-135 -59zM474 30v1169q0 47 28 68t56 26l-84 105v163h298l-2 -1531h-296zM148 0v218h938v-218h-938zM113 1293v268h659l-49 -268h-610z" />
    <glyph glyph-name="lslash.ss03" 
d="M318 549v264l626 298l-4 -264zM463 30v1169q0 47 28 68t56 26l-84 105v163h298l-2 -1531h-296zM137 0v218h938v-218h-938zM102 1293v268h659l-49 -268h-610z" />
    <glyph glyph-name="r.ss04" 
d="M105 0v218h177v481q0 81 20 112t86 52h-311v229h463l12 -321q24 93 95 169t165 121t188 45q36 0 66 -3t55 -12v-631h-241v361q-31 0 -78.5 -9t-96.5 -26t-88 -40t-54 -52v-333q0 -59 -19.5 -96t-56.5 -47h247v-218h-629z" />
    <glyph glyph-name="racute.ss04" 
d="M105 0v218h177v481q0 81 20 112t86 52h-311v229h463l12 -321q24 93 95 169t165 121t188 45q36 0 66 -3t55 -12v-631h-241v361q-31 0 -78.5 -9t-96.5 -26t-88 -40t-54 -52v-333q0 -59 -19.5 -96t-56.5 -47h247v-218h-629zM509 1284l204 339h332l-246 -339h-290z" />
    <glyph glyph-name="rcaron.ss04" 
d="M491 1277l-233 342h244l146 -187l145 187h245l-234 -342h-313zM105 0v218h177v481q0 81 20 112t86 52h-311v229h463l12 -321q24 93 95 169t165 121t188 45q36 0 66 -3t55 -12v-631h-241v361q-31 0 -78.5 -9t-96.5 -26t-88 -40t-54 -52v-333q0 -59 -19.5 -96t-56.5 -47
h247v-218h-629z" />
    <glyph glyph-name="uni0157.ss04" 
d="M105 0v218h177v481q0 81 20 112t86 52h-311v229h463l12 -321q24 93 95 169t165 121t188 45q36 0 66 -3t55 -12v-631h-241v361q-31 0 -78.5 -9t-96.5 -26t-88 -40t-54 -52v-333q0 -59 -19.5 -96t-56.5 -47h247v-218h-629zM292 -526q7 35 13 93t10 125.5t4 128.5v63h276
v-73q0 -71 -6.5 -135t-17 -115.5t-22.5 -86.5h-257z" />
    <glyph glyph-name="g.ss05" 
d="M596 -501q-147 -2 -250.5 47.5t-153.5 141t-37 213.5h292q-3 -79 43 -118.5t112 -39.5q83 0 118 46t36 168l4 985l11 149h292v-1112q0 -159 -53 -264.5t-156.5 -159t-257.5 -56.5zM487 30q-115 0 -204.5 67t-140 188t-50.5 282q0 165 56 287.5t152 190t214 67.5
q75 0 130 -28t90 -81t50 -127l36 -92l-46 -59q-10 40 -31.5 69t-52.5 45.5t-73 16.5q-92 0 -154.5 -76t-62.5 -213q0 -136 58 -211t153 -75q55 0 96 34t52 91l11 -44l3 -56q-17 -86 -57.5 -148t-99 -95t-129.5 -33z" />
    <glyph glyph-name="uni01F5.ss05" 
d="M596 -501q-147 -2 -250.5 47.5t-153.5 141t-37 213.5h292q-3 -79 43 -118.5t112 -39.5q83 0 118 46t36 168l4 985l11 149h292v-1112q0 -159 -53 -264.5t-156.5 -159t-257.5 -56.5zM487 30q-115 0 -204.5 67t-140 188t-50.5 282q0 165 56 287.5t152 190t214 67.5
q75 0 130 -28t90 -81t50 -127l36 -92l-46 -59q-10 40 -31.5 69t-52.5 45.5t-73 16.5q-92 0 -154.5 -76t-62.5 -213q0 -136 58 -211t153 -75q55 0 96 34t52 91l11 -44l3 -56q-17 -86 -57.5 -148t-99 -95t-129.5 -33zM469 1284l204 339h332l-246 -339h-290z" />
    <glyph glyph-name="gbreve.ss05" 
d="M596 -501q-147 -2 -250.5 47.5t-153.5 141t-37 213.5h292q-3 -79 43 -118.5t112 -39.5q83 0 118 46t36 168l4 985l11 149h292v-1112q0 -159 -53 -264.5t-156.5 -159t-257.5 -56.5zM487 30q-115 0 -204.5 67t-140 188t-50.5 282q0 165 56 287.5t152 190t214 67.5
q75 0 130 -28t90 -81t50 -127l36 -92l-46 -59q-10 40 -31.5 69t-52.5 45.5t-73 16.5q-92 0 -154.5 -76t-62.5 -213q0 -136 58 -211t153 -75q55 0 96 34t52 91l11 -44l3 -56q-17 -86 -57.5 -148t-99 -95t-129.5 -33zM608 1260q-167 0 -263.5 91.5t-81.5 249.5h217
q-5 -50 9 -87.5t44.5 -58t74.5 -20.5t74.5 20.5t44.5 58t8 87.5h218q15 -158 -81.5 -249.5t-263.5 -91.5z" />
    <glyph glyph-name="gcaron.ss05" 
d="M596 -501q-147 -2 -250.5 47.5t-153.5 141t-37 213.5h292q-3 -79 43 -118.5t112 -39.5q83 0 118 46t36 168l4 985l11 149h292v-1112q0 -159 -53 -264.5t-156.5 -159t-257.5 -56.5zM487 30q-115 0 -204.5 67t-140 188t-50.5 282q0 165 56 287.5t152 190t214 67.5
q75 0 130 -28t90 -81t50 -127l36 -92l-46 -59q-10 40 -31.5 69t-52.5 45.5t-73 16.5q-92 0 -154.5 -76t-62.5 -213q0 -136 58 -211t153 -75q55 0 96 34t52 91l11 -44l3 -56q-17 -86 -57.5 -148t-99 -95t-129.5 -33zM451 1277l-233 342h244l146 -187l145 187h245l-234 -342
h-313z" />
    <glyph glyph-name="uni0123.ss05" 
d="M596 -501q-147 -2 -250.5 47.5t-153.5 141t-37 213.5h292q-3 -79 43 -118.5t112 -39.5q83 0 118 46t36 168l4 985l11 149h292v-1112q0 -159 -53 -264.5t-156.5 -159t-257.5 -56.5zM487 30q-115 0 -204.5 67t-140 188t-50.5 282q0 165 56 287.5t152 190t214 67.5
q75 0 130 -28t90 -81t50 -127l36 -92l-46 -59q-10 40 -31.5 69t-52.5 45.5t-73 16.5q-92 0 -154.5 -76t-62.5 -213q0 -136 58 -211t153 -75q55 0 96 34t52 91l11 -44l3 -56q-17 -86 -57.5 -148t-99 -95t-129.5 -33zM444 1275v52q0 53 10.5 113.5t28.5 113.5t41 81h248
q-28 -58 -37 -137.5t-9 -169.5v-53h-282z" />
    <glyph glyph-name="gdotaccent.ss05" 
d="M596 -501q-147 -2 -250.5 47.5t-153.5 141t-37 213.5h292q-3 -79 43 -118.5t112 -39.5q83 0 118 46t36 168l4 985l11 149h292v-1112q0 -159 -53 -264.5t-156.5 -159t-257.5 -56.5zM487 30q-115 0 -204.5 67t-140 188t-50.5 282q0 165 56 287.5t152 190t214 67.5
q75 0 130 -28t90 -81t50 -127l36 -92l-46 -59q-10 40 -31.5 69t-52.5 45.5t-73 16.5q-92 0 -154.5 -76t-62.5 -213q0 -136 58 -211t153 -75q55 0 96 34t52 91l11 -44l3 -56q-17 -86 -57.5 -148t-99 -95t-129.5 -33zM608 1280q-82 0 -139.5 54t-57.5 146q0 95 58 148.5
t139 53.5q82 0 139.5 -53.5t57.5 -148.5q0 -92 -58.5 -146t-138.5 -54z" />
    <glyph glyph-name="zero.zero" 
d="M600 -30q-173 0 -290.5 75.5t-177 241.5t-59.5 440q0 269 60 435.5t177.5 243.5t289.5 77q173 0 290 -77t177 -243.5t60 -435.5q0 -274 -59.5 -440t-177 -241.5t-290.5 -75.5zM600 258q58 0 101 16.5t71.5 65t42.5 141.5t14 246q0 150 -14 243t-42.5 141.5t-71.5 66
t-101 17.5t-101 -17.5t-71.5 -66t-42.5 -141.5t-14 -243q0 -153 14 -246t42.5 -141.5t71.5 -65t101 -16.5zM972 202l-159 -61l-567 1128l169 40z" />
    <glyph glyph-name="zero.ss01" 
d="M600 -30q-173 0 -290.5 75.5t-177 241.5t-59.5 440q0 269 60 435.5t177.5 243.5t289.5 77q173 0 290 -77t177 -243.5t60 -435.5q0 -274 -59.5 -440t-177 -241.5t-290.5 -75.5zM600 258q58 0 101 16.5t71.5 65t42.5 141.5t14 246q0 150 -14 243t-42.5 141.5t-71.5 66
t-101 17.5t-101 -17.5t-71.5 -66t-42.5 -141.5t-14 -243q0 -153 14 -246t42.5 -141.5t71.5 -65t101 -16.5z" />
    <glyph glyph-name="one.ss11" 
d="M450 70v942l12 442h314v-1384h-326zM94 0v284h1019v-284h-1019zM463 1414l55 -434h-331v284h124q36 0 71 8.5t58 40t23 101.5z" />
    <glyph glyph-name="two.ss12" 
d="M129 0v100q0 120 39 214t133 184t258 198q112 74 182.5 160.5t70.5 183.5q0 56 -20.5 96t-62 61t-104.5 21q-90 0 -144 -36t-72.5 -103t-2.5 -161l-285 1q-23 179 26.5 305.5t170 193t309.5 66.5q227 0 353.5 -110t126.5 -312q0 -112 -38 -202.5t-110 -168.5t-174 -152
q-112 -81 -177 -131t-95.5 -82t-39 -59t-8.5 -63v-97q0 108 42 143.5t142 35.5h443v-286h-963z" />
    <glyph glyph-name="four.ss14" 
d="M713 0v260h-713l521 1194h471l-5 -4l1 -936h185v-254h-185l1 -260h-276zM364 463q27 29 51.5 40t63.5 11h352q-64 0 -91 26t-27 110v429l5 176l-49 -164l-238 -486z" />
    <glyph glyph-name="seven.ss17" 
d="M304 0q-11 274 40 503t142 394t200 245q25 18 59 28t78 11h-744v273h898l56 -165q-156 -156 -243.5 -363.5t-120 -444t-25.5 -481.5h-340z" />
    <glyph glyph-name="zero.dnom" 
d="M603 -274q-213 0 -324.5 110.5t-111.5 345.5q0 236 111.5 346.5t324.5 110.5q212 0 321 -111t109 -346q0 -236 -108 -346t-322 -110zM603 -89q108 0 155.5 68.5t47.5 202.5q0 143 -47 207.5t-156 64.5q-108 0 -159 -65t-51 -207q0 -135 50.5 -203t159.5 -68z" />
    <glyph glyph-name="one.dnom" 
d="M537 -246l2 504q0 50 5 94t17 101l13 177h200v-876h-237zM208 -266v187h851v-187h-851zM186 277v239q75 -24 159 -16t148.5 42t80.5 88l-13 -177q-21 -76 -81 -124.5t-138 -63t-156 11.5z" />
    <glyph glyph-name="two.dnom" 
d="M163 -266q22 49 59 94t86 89.5t106 90.5t118 96q51 41 93 71.5t72.5 56.5t47 55.5t16.5 68.5q0 46 -39.5 71.5t-116.5 25.5q-104 0 -153 -45t-30 -128h-217q-28 173 75.5 266.5t325.5 93.5q177 0 281 -62.5t104 -202.5q0 -68 -24 -118.5t-69.5 -94.5t-110.5 -94
q-61 -47 -102 -78.5t-66.5 -52t-39.5 -33.5t-22 -23q26 22 66 31t106 9h270v-187h-836z" />
    <glyph glyph-name="three.dnom" 
d="M606 -273q-237 0 -339 83t-91 221h221q-4 -58 46.5 -87.5t154.5 -29.5q98 0 151 27t53 82q0 48 -46 68.5t-156 20.5h-130l1 159h123q87 0 127.5 24t40.5 77q0 43 -42 66t-120 23q-80 0 -121 -26t-37 -73h-225q0 137 93.5 208t286.5 71q180 0 282.5 -61t102.5 -173
q0 -87 -59.5 -137.5t-167.5 -66.5q131 -6 202 -59.5t71 -147.5q0 -122 -114.5 -195.5t-307.5 -73.5z" />
    <glyph glyph-name="four.dnom" 
d="M178 -133l342 774h267l-286 -558l-27 -35h612l-1 -181h-907zM722 -265l1 266l68 47q-37 0 -53 25t-16 83v159l219 3v-583h-219z" />
    <glyph glyph-name="five.dnom" 
d="M602 -273q-133 0 -227.5 36.5t-142.5 102.5t-40 156h224q4 -55 49.5 -81.5t141.5 -26.5t150 31t54 110q0 62 -47.5 92t-150.5 30q-52 0 -98 -15.5t-104 -53.5l-197 52l76 471h680v-187h-492l-74 -252q48 79 113.5 111t177.5 32q159 0 251 -74t92 -202q0 -151 -118 -241.5
t-318 -90.5z" />
    <glyph glyph-name="six.dnom" 
d="M601 -273q-204 0 -316.5 104t-112.5 275q0 69 29 147t78.5 152t112.5 133.5t130 91.5h319q-114 -62 -214 -144.5t-163 -165t-66 -144.5l-9 -1q48 87 120 130.5t166 43.5q162 0 255.5 -80.5t93.5 -220.5q0 -91 -54 -163.5t-149 -115t-220 -42.5zM600 -92q95 0 146 39.5
t51 100.5q0 74 -50.5 113t-139.5 39q-70 0 -120 -10.5t-82 -32.5q-3 -8 -4.5 -30t-1.5 -51q0 -76 55.5 -122t145.5 -46z" />
    <glyph glyph-name="seven.dnom" 
d="M342 -263l345 602q40 70 96 96.5t144 18.5l10 -5h-746v182h852l-442 -894h-259z" />
    <glyph glyph-name="eight.dnom" 
d="M598 -273q-200 0 -318.5 70t-118.5 188q0 94 75.5 151.5t207.5 64.5q-112 14 -175 68t-63 137q0 111 105 173t289 62t288.5 -62t104.5 -173q0 -84 -62.5 -138t-173.5 -68q131 -6 206.5 -64t75.5 -152q0 -118 -119.5 -187.5t-321.5 -69.5zM599 -100q105 0 158 29.5
t53 79.5q0 53 -55.5 81t-155.5 28q-99 0 -154 -28t-55 -80q0 -50 52.5 -80t156.5 -30zM597 276q77 0 124 27t47 74q0 44 -42 69t-128 25q-85 0 -126 -25.5t-41 -69.5q0 -47 45 -73.5t121 -26.5z" />
    <glyph glyph-name="nine.dnom" 
d="M355 -264q115 62 214.5 144.5t162.5 165.5t66 144l9 1q-48 -87 -120 -130.5t-166 -43.5q-162 0 -255.5 81t-93.5 220q0 91 54 163.5t149.5 115t219.5 42.5q204 0 316.5 -104t112.5 -275q0 -69 -29 -147t-78.5 -152t-112 -133.5t-130.5 -91.5h-319zM589 166q71 0 121 10.5
t81 32.5q3 8 4.5 30t1.5 51q0 77 -55.5 122.5t-145.5 45.5q-95 0 -146 -39t-51 -101q0 -73 50.5 -112.5t139.5 -39.5z" />
    <glyph glyph-name="zero.numr" 
d="M603 817q-213 0 -324.5 110.5t-111.5 345.5q0 236 111.5 346.5t324.5 110.5q212 0 321 -111t109 -346q0 -236 -108 -346t-322 -110zM603 1002q108 0 155.5 68.5t47.5 202.5q0 143 -47 207.5t-156 64.5q-108 0 -159 -65t-51 -207q0 -135 50.5 -203t159.5 -68z" />
    <glyph glyph-name="one.numr" 
d="M537 845l2 504q0 50 5 94t17 101l13 177h200v-876h-237zM208 825v187h851v-187h-851zM186 1368v239q75 -24 159 -16t148.5 42t80.5 88l-13 -177q-21 -76 -81 -124.5t-138 -63t-156 11.5z" />
    <glyph glyph-name="two.numr" 
d="M163 825q22 49 59 94t86 89.5t106 90.5t118 96q51 41 93 71.5t72.5 56.5t47 55.5t16.5 68.5q0 46 -39.5 71.5t-116.5 25.5q-104 0 -153 -45t-30 -128h-217q-28 173 75.5 266.5t325.5 93.5q177 0 281 -62.5t104 -202.5q0 -68 -24 -118.5t-69.5 -94.5t-110.5 -94
q-61 -47 -102 -78.5t-66.5 -52t-39.5 -33.5t-22 -23q26 22 66 31t106 9h270v-187h-836z" />
    <glyph glyph-name="three.numr" 
d="M606 817q-237 0 -339 83t-91 221h221q-4 -58 46.5 -87.5t154.5 -29.5q98 0 151 27t53 82q0 48 -46 68.5t-156 20.5h-130l1 159h123q87 0 127.5 24t40.5 77q0 43 -42 66t-120 23q-80 0 -121 -26t-37 -73h-225q0 137 93.5 208t286.5 71q180 0 282.5 -61t102.5 -173
q0 -87 -59.5 -137.5t-167.5 -66.5q131 -6 202 -59.5t71 -147.5q0 -122 -114.5 -195.5t-307.5 -73.5z" />
    <glyph glyph-name="four.numr" 
d="M178 957l342 774h267l-286 -558l-27 -35h612l-1 -181h-907zM722 825l1 266l68 47q-37 0 -53 25t-16 83v159l219 3v-583h-219z" />
    <glyph glyph-name="five.numr" 
d="M602 817q-133 0 -227.5 36.5t-142.5 102.5t-40 156h224q4 -55 49.5 -81.5t141.5 -26.5t150 31t54 110q0 62 -47.5 92t-150.5 30q-52 0 -98 -15.5t-104 -53.5l-197 52l76 471h680v-187h-492l-74 -252q48 79 113.5 111t177.5 32q159 0 251 -74t92 -202q0 -151 -118 -241.5
t-318 -90.5z" />
    <glyph glyph-name="six.numr" 
d="M601 817q-204 0 -316.5 104t-112.5 275q0 69 29 147t78.5 152t112.5 133.5t130 91.5h319q-114 -62 -214 -144.5t-163 -165t-66 -144.5l-9 -1q48 87 120 130.5t166 43.5q162 0 255.5 -80.5t93.5 -220.5q0 -91 -54 -163.5t-149 -115t-220 -42.5zM600 998q95 0 146 39.5
t51 100.5q0 74 -50.5 113t-139.5 39q-70 0 -120 -10.5t-82 -32.5q-3 -8 -4.5 -30t-1.5 -51q0 -76 55.5 -122t145.5 -46z" />
    <glyph glyph-name="seven.numr" 
d="M342 827l345 602q40 70 96 96.5t144 18.5l10 -5h-746v182h852l-442 -894h-259z" />
    <glyph glyph-name="eight.numr" 
d="M598 817q-200 0 -318.5 70t-118.5 188q0 94 75.5 151.5t207.5 64.5q-112 14 -175 68t-63 137q0 111 105 173t289 62t288.5 -62t104.5 -173q0 -84 -62.5 -138t-173.5 -68q131 -6 206.5 -64t75.5 -152q0 -118 -119.5 -187.5t-321.5 -69.5zM599 990q105 0 158 29.5t53 79.5
q0 53 -55.5 81t-155.5 28q-99 0 -154 -28t-55 -80q0 -50 52.5 -80t156.5 -30zM597 1366q77 0 124 27t47 74q0 44 -42 69t-128 25q-85 0 -126 -25.5t-41 -69.5q0 -47 45 -73.5t121 -26.5z" />
    <glyph glyph-name="nine.numr" 
d="M355 827q115 62 214.5 144.5t162.5 165.5t66 144l9 1q-48 -87 -120 -130.5t-166 -43.5q-162 0 -255.5 81t-93.5 220q0 91 54 163.5t149.5 115t219.5 42.5q204 0 316.5 -104t112.5 -275q0 -69 -29 -147t-78.5 -152t-112 -133.5t-130.5 -91.5h-319zM589 1257q71 0 121 10.5
t81 32.5q3 8 4.5 30t1.5 51q0 77 -55.5 122.5t-145.5 45.5q-95 0 -146 -39t-51 -101q0 -73 50.5 -112.5t139.5 -39.5z" />
    <glyph glyph-name="onehalf.ss18" 
d="M537 845l2 504q0 50 5 94t17 101l13 177h200v-876h-237zM208 825v187h851v-187h-851zM186 1368v239q75 -24 159 -16t148.5 42t80.5 88l-13 -177q-21 -76 -81 -124.5t-138 -63t-156 11.5zM163 -266q22 49 59 94t86 89.5t106 90.5t118 96q51 41 93 71.5t72.5 56.5t47 55.5
t16.5 68.5q0 46 -39.5 71.5t-116.5 25.5q-104 0 -153 -45t-30 -128h-217q-28 173 75.5 266.5t325.5 93.5q177 0 281 -62.5t104 -202.5q0 -68 -24 -118.5t-69.5 -94.5t-110.5 -94q-61 -47 -102 -78.5t-66.5 -52t-39.5 -33.5t-22 -23q26 22 66 31t106 9h270v-187h-836z" />
    <glyph glyph-name="uni2153.ss18" 
d="M537 845l2 504q0 50 5 94t17 101l13 177h200v-876h-237zM208 825v187h851v-187h-851zM186 1368v239q75 -24 159 -16t148.5 42t80.5 88l-13 -177q-21 -76 -81 -124.5t-138 -63t-156 11.5zM606 -273q-237 0 -339 83t-91 221h221q-4 -58 46.5 -87.5t154.5 -29.5q98 0 151 27
t53 82q0 48 -46 68.5t-156 20.5h-130l1 159h123q87 0 127.5 24t40.5 77q0 43 -42 66t-120 23q-80 0 -121 -26t-37 -73h-225q0 137 93.5 208t286.5 71q180 0 282.5 -61t102.5 -173q0 -87 -59.5 -137.5t-167.5 -66.5q131 -6 202 -59.5t71 -147.5q0 -122 -114.5 -195.5
t-307.5 -73.5z" />
    <glyph glyph-name="uni2154.ss18" 
d="M163 825q22 49 59 94t86 89.5t106 90.5t118 96q51 41 93 71.5t72.5 56.5t47 55.5t16.5 68.5q0 46 -39.5 71.5t-116.5 25.5q-104 0 -153 -45t-30 -128h-217q-28 173 75.5 266.5t325.5 93.5q177 0 281 -62.5t104 -202.5q0 -68 -24 -118.5t-69.5 -94.5t-110.5 -94
q-61 -47 -102 -78.5t-66.5 -52t-39.5 -33.5t-22 -23q26 22 66 31t106 9h270v-187h-836zM606 -273q-237 0 -339 83t-91 221h221q-4 -58 46.5 -87.5t154.5 -29.5q98 0 151 27t53 82q0 48 -46 68.5t-156 20.5h-130l1 159h123q87 0 127.5 24t40.5 77q0 43 -42 66t-120 23
q-80 0 -121 -26t-37 -73h-225q0 137 93.5 208t286.5 71q180 0 282.5 -61t102.5 -173q0 -87 -59.5 -137.5t-167.5 -66.5q131 -6 202 -59.5t71 -147.5q0 -122 -114.5 -195.5t-307.5 -73.5z" />
    <glyph glyph-name="onequarter.ss18" 
d="M537 845l2 504q0 50 5 94t17 101l13 177h200v-876h-237zM208 825v187h851v-187h-851zM186 1368v239q75 -24 159 -16t148.5 42t80.5 88l-13 -177q-21 -76 -81 -124.5t-138 -63t-156 11.5zM178 -133l342 774h267l-286 -558l-27 -35h612l-1 -181h-907zM722 -265l1 266l68 47
q-37 0 -53 25t-16 83v159l219 3v-583h-219z" />
    <glyph glyph-name="threequarters.ss18" 
d="M606 817q-237 0 -339 83t-91 221h221q-4 -58 46.5 -87.5t154.5 -29.5q98 0 151 27t53 82q0 48 -46 68.5t-156 20.5h-130l1 159h123q87 0 127.5 24t40.5 77q0 43 -42 66t-120 23q-80 0 -121 -26t-37 -73h-225q0 137 93.5 208t286.5 71q180 0 282.5 -61t102.5 -173
q0 -87 -59.5 -137.5t-167.5 -66.5q131 -6 202 -59.5t71 -147.5q0 -122 -114.5 -195.5t-307.5 -73.5zM181 -133l342 774h267l-286 -558l-27 -35h612l-1 -181h-907zM725 -265l1 266l68 47q-37 0 -53 25t-16 83v159l219 3v-583h-219z" />
    <glyph glyph-name="uni2155.ss18" 
d="M537 845l2 504q0 50 5 94t17 101l13 177h200v-876h-237zM208 825v187h851v-187h-851zM186 1368v239q75 -24 159 -16t148.5 42t80.5 88l-13 -177q-21 -76 -81 -124.5t-138 -63t-156 11.5zM602 -273q-133 0 -227.5 36.5t-142.5 102.5t-40 156h224q4 -55 49.5 -81.5
t141.5 -26.5t150 31t54 110q0 62 -47.5 92t-150.5 30q-52 0 -98 -15.5t-104 -53.5l-197 52l76 471h680v-187h-492l-74 -252q48 79 113.5 111t177.5 32q159 0 251 -74t92 -202q0 -151 -118 -241.5t-318 -90.5z" />
    <glyph glyph-name="uni2159.ss18" 
d="M537 845l2 504q0 50 5 94t17 101l13 177h200v-876h-237zM208 825v187h851v-187h-851zM186 1368v239q75 -24 159 -16t148.5 42t80.5 88l-13 -177q-21 -76 -81 -124.5t-138 -63t-156 11.5zM601 -273q-204 0 -316.5 104t-112.5 275q0 69 29 147t78.5 152t112.5 133.5
t130 91.5h319q-114 -62 -214 -144.5t-163 -165t-66 -144.5l-9 -1q48 87 120 130.5t166 43.5q162 0 255.5 -80.5t93.5 -220.5q0 -91 -54 -163.5t-149 -115t-220 -42.5zM600 -92q95 0 146 39.5t51 100.5q0 74 -50.5 113t-139.5 39q-70 0 -120 -10.5t-82 -32.5q-3 -8 -4.5 -30
t-1.5 -51q0 -76 55.5 -122t145.5 -46z" />
    <glyph glyph-name="oneeighth.ss18" 
d="M537 845l2 504q0 50 5 94t17 101l13 177h200v-876h-237zM208 825v187h851v-187h-851zM186 1368v239q75 -24 159 -16t148.5 42t80.5 88l-13 -177q-21 -76 -81 -124.5t-138 -63t-156 11.5zM598 -273q-200 0 -318.5 70t-118.5 188q0 94 75.5 151.5t207.5 64.5
q-112 14 -175 68t-63 137q0 111 105 173t289 62t288.5 -62t104.5 -173q0 -84 -62.5 -138t-173.5 -68q131 -6 206.5 -64t75.5 -152q0 -118 -119.5 -187.5t-321.5 -69.5zM599 -100q105 0 158 29.5t53 79.5q0 53 -55.5 81t-155.5 28q-99 0 -154 -28t-55 -80q0 -50 52.5 -80
t156.5 -30zM597 276q77 0 124 27t47 74q0 44 -42 69t-128 25q-85 0 -126 -25.5t-41 -69.5q0 -47 45 -73.5t121 -26.5z" />
    <glyph glyph-name="threeeighths.ss18" 
d="M606 817q-237 0 -339 83t-91 221h221q-4 -58 46.5 -87.5t154.5 -29.5q98 0 151 27t53 82q0 48 -46 68.5t-156 20.5h-130l1 159h123q87 0 127.5 24t40.5 77q0 43 -42 66t-120 23q-80 0 -121 -26t-37 -73h-225q0 137 93.5 208t286.5 71q180 0 282.5 -61t102.5 -173
q0 -87 -59.5 -137.5t-167.5 -66.5q131 -6 202 -59.5t71 -147.5q0 -122 -114.5 -195.5t-307.5 -73.5zM598 -273q-200 0 -318.5 70t-118.5 188q0 94 75.5 151.5t207.5 64.5q-112 14 -175 68t-63 137q0 111 105 173t289 62t288.5 -62t104.5 -173q0 -84 -62.5 -138t-173.5 -68
q131 -6 206.5 -64t75.5 -152q0 -118 -119.5 -187.5t-321.5 -69.5zM599 -100q105 0 158 29.5t53 79.5q0 53 -55.5 81t-155.5 28q-99 0 -154 -28t-55 -80q0 -50 52.5 -80t156.5 -30zM597 276q77 0 124 27t47 74q0 44 -42 69t-128 25q-85 0 -126 -25.5t-41 -69.5
q0 -47 45 -73.5t121 -26.5z" />
    <glyph glyph-name="fiveeighths.ss18" 
d="M602 817q-133 0 -227.5 36.5t-142.5 102.5t-40 156h224q4 -55 49.5 -81.5t141.5 -26.5t150 31t54 110q0 62 -47.5 92t-150.5 30q-52 0 -98 -15.5t-104 -53.5l-197 52l76 471h680v-187h-492l-74 -252q48 79 113.5 111t177.5 32q159 0 251 -74t92 -202q0 -151 -118 -241.5
t-318 -90.5zM598 -273q-200 0 -318.5 70t-118.5 188q0 94 75.5 151.5t207.5 64.5q-112 14 -175 68t-63 137q0 111 105 173t289 62t288.5 -62t104.5 -173q0 -84 -62.5 -138t-173.5 -68q131 -6 206.5 -64t75.5 -152q0 -118 -119.5 -187.5t-321.5 -69.5zM599 -100
q105 0 158 29.5t53 79.5q0 53 -55.5 81t-155.5 28q-99 0 -154 -28t-55 -80q0 -50 52.5 -80t156.5 -30zM597 276q77 0 124 27t47 74q0 44 -42 69t-128 25q-85 0 -126 -25.5t-41 -69.5q0 -47 45 -73.5t121 -26.5z" />
    <glyph glyph-name="seveneighths.ss18" 
d="M342 827l345 602q40 70 96 96.5t144 18.5l10 -5h-746v182h852l-442 -894h-259zM598 -273q-200 0 -318.5 70t-118.5 188q0 94 75.5 151.5t207.5 64.5q-112 14 -175 68t-63 137q0 111 105 173t289 62t288.5 -62t104.5 -173q0 -84 -62.5 -138t-173.5 -68q131 -6 206.5 -64
t75.5 -152q0 -118 -119.5 -187.5t-321.5 -69.5zM599 -100q105 0 158 29.5t53 79.5q0 53 -55.5 81t-155.5 28q-99 0 -154 -28t-55 -80q0 -50 52.5 -80t156.5 -30zM597 276q77 0 124 27t47 74q0 44 -42 69t-128 25q-85 0 -126 -25.5t-41 -69.5q0 -47 45 -73.5t121 -26.5z" />
    <glyph glyph-name="onehalf.ss19" 
d="M192 760l1 743l54 217h162v-960h-217zM50 1376v239q25 0 59.5 5.5t59.5 15.5q14 5 39.5 27.5t38.5 56.5l-54 -218q-3 -28 -6.5 -56t-33.5 -50q-19 -14 -41.5 -17t-61.5 -3zM117 0l437 949l298 772h157l-387 -819l-348 -902h-157zM603 0q24 43 54.5 98.5t62.5 113
t60.5 107.5t47.5 81q59 96 84 146.5t31 77t6 51.5q0 29 -8 61t-58 32q-40 0 -57.5 -47t6.5 -128h-190q-18 138 10.5 223t89.5 124t139 39q135 0 196 -77.5t61 -190.5q0 -108 -36 -193t-68 -146q-23 -45 -35.5 -74t-22.5 -54.5t-29 -59.5q17 20 33 29.5t47 9.5h107v-223h-531
z" />
    <glyph glyph-name="uni2153.ss19" 
d="M137 0l437 949l298 772h157l-387 -819l-348 -902h-157zM903 -19q-117 0 -191.5 82.5t-68.5 235.5h181q-1 -63 31 -82.5t56 -19.5q27 0 53 22.5t26 73.5q0 48 -24 71.5t-51 23.5h-73l1 196h60q48 0 58 28t10 55q0 52 -20 72.5t-42 20.5q-24 0 -40.5 -21t-15.5 -69h-188
q3 140 59.5 220.5t186.5 80.5q120 0 180 -72.5t60 -191.5q0 -78 -39.5 -140.5t-86.5 -77.5q58 -6 105 -64t47 -169q0 -74 -29 -136.5t-89.5 -100.5t-155.5 -38zM212 760l1 743l54 217h162v-960h-217zM70 1376v239q25 0 59.5 5.5t59.5 15.5q14 5 39.5 27.5t38.5 56.5
l-54 -218q-3 -28 -6.5 -56t-33.5 -50q-19 -14 -41.5 -17t-61.5 -3z" />
    <glyph glyph-name="uni2154.ss19" 
d="M197 0l437 949l298 772h157l-387 -819l-348 -902h-157zM923 -31q-117 0 -191.5 82.5t-68.5 235.5h181q-1 -63 31 -82.5t56 -19.5q27 0 53 22.5t26 73.5q0 48 -24 71.5t-51 23.5h-73l1 196h60q48 0 58 28t10 55q0 52 -20 72.5t-42 20.5q-24 0 -40.5 -21t-15.5 -69h-188
q3 140 59.5 220.5t186.5 80.5q120 0 180 -72.5t60 -191.5q0 -78 -39.5 -140.5t-86.5 -77.5q58 -6 105 -64t47 -169q0 -74 -29 -136.5t-89.5 -100.5t-155.5 -38zM-17 760q24 43 54.5 98.5t62.5 113t60.5 107.5t47.5 81q54 89 80 138.5t33.5 79t7.5 57.5q0 29 -8 61t-58 32
q-40 0 -57.5 -47t6.5 -128h-190q-18 138 10.5 223t89.5 124t139 39q135 0 196 -77.5t61 -190.5q0 -108 -36 -193t-68 -146q-23 -45 -35.5 -74t-22.5 -54.5t-29 -59.5q17 20 33 29.5t47 9.5h107v-223h-531z" />
    <glyph glyph-name="onequarter.ss19" 
d="M192 760l1 743l54 217h162v-960h-217zM50 1376v239q25 0 59.5 5.5t59.5 15.5q14 5 39.5 27.5t38.5 56.5l-54 -218q-3 -28 -6.5 -56t-33.5 -50q-19 -14 -41.5 -17t-61.5 -3zM871 0l1 162h-372l204 798h354l-3 -3l-2 -597h91v-198h-90v-162h-183zM741 328q11 21 23.5 26.5
t37.5 5.5h122q-31 0 -41.5 24t-10.5 76v124l-1 252l-59 -272l-35 -114zM117 0l437 949l298 772h157l-387 -819l-348 -902h-157z" />
    <glyph glyph-name="threequarters.ss19" 
d="M283 731q-117 0 -191.5 82.5t-68.5 235.5h181q-1 -63 31 -82.5t56 -19.5q27 0 53 22.5t26 73.5q0 48 -24 71.5t-51 23.5h-73l1 196h60q48 0 58 28t10 55q0 52 -20 72.5t-42 20.5q-24 0 -40.5 -21t-15.5 -69h-188q3 140 59.5 220.5t186.5 80.5q120 0 180 -72.5t60 -191.5
q0 -78 -39.5 -140.5t-86.5 -77.5q58 -6 105 -64t47 -169q0 -74 -29 -136.5t-89.5 -100.5t-155.5 -38zM165 0l437 949l298 772h157l-387 -819l-348 -902h-157zM903 0l1 162h-372l204 798h354l-3 -3l-2 -597h91v-198h-90v-162h-183zM773 328q11 21 23.5 26.5t37.5 5.5h122
q-31 0 -41.5 24t-10.5 76v124l-1 252l-59 -272l-35 -114z" />
    <glyph glyph-name="uni2155.ss19" 
d="M192 760l1 743l54 217h162v-960h-217zM50 1376v239q25 0 59.5 5.5t59.5 15.5q14 5 39.5 27.5t38.5 56.5l-54 -218q-3 -28 -6.5 -56t-33.5 -50q-19 -14 -41.5 -17t-61.5 -3zM894 0q-67 0 -130 34t-102 103t-34 175h190q-2 -66 19.5 -89.5t51.5 -23.5q49 0 58 46.5t9 117.5
q0 64 -19 86.5t-38 22.5q-41 0 -55 -25.5t-13 -57.5l-192 64l40 517h427v-206h-277l-37 -277q11 47 33 83t56 57q19 12 40.5 17.5t43.5 5.5q46 0 90.5 -27.5t73.5 -89t29 -163.5q0 -172 -75.5 -271t-188.5 -99zM117 0l437 949l298 772h157l-387 -819l-348 -902h-157z" />
    <glyph glyph-name="uni2159.ss19" 
d="M117 0l437 949l298 772h157l-387 -819l-348 -902h-157zM872 173q48 0 73.5 34.5t25.5 99.5t-24.5 99.5t-69.5 34.5q-31 0 -60 -10t-46 -27q-2 -7 -4 -29.5t-2 -46.5q0 -76 27.5 -115.5t79.5 -39.5zM873 -17q-132 0 -213 106.5t-81 278.5q0 100 30 208.5t83.5 210.5
t124.5 180h226q-71 -64 -130.5 -153.5t-97.5 -186t-47 -182.5q26 76 72.5 115t111.5 39q95 0 152.5 -80t57.5 -211q0 -95 -37 -168.5t-102 -115t-150 -41.5zM192 760l1 742q-6 -52 -13.5 -72t-26.5 -34q-17 -13 -35.5 -16.5t-67.5 -3.5v239q24 0 61 6.5t58 14.5q24 10 46 33
t32 51h162v-960h-217z" />
    <glyph glyph-name="oneeighth.ss19" 
d="M117 0l437 949l298 772h157l-387 -819l-348 -902h-157zM871 189q32 0 59 28t27 83q0 56 -24.5 84t-61.5 28t-61 -26.5t-24 -85.5q0 -54 25.5 -82.5t59.5 -28.5zM192 760l1 742q-3 -28 -6.5 -56t-33.5 -50q-19 -14 -41.5 -17t-61.5 -3v239q25 0 59.5 5.5t59.5 15.5
q14 5 39.5 27.5t38.5 56.5h162v-960h-217zM871 -11q-114 0 -196.5 70.5t-82.5 200.5q0 111 49 171.5t128 68.5q-79 15 -114.5 76.5t-35.5 139.5q0 119 64 191t188 72t188 -72t64 -191q0 -78 -35.5 -140t-113.5 -78q73 -6 124.5 -65.5t51.5 -172.5q0 -87 -38.5 -147.5
t-102 -92t-138.5 -31.5zM871 581q38 0 50.5 31t12.5 79q0 53 -18.5 77t-44.5 24q-28 0 -45.5 -23t-17.5 -78q0 -46 14 -78t49 -32z" />
    <glyph glyph-name="threeeighths.ss19" 
d="M270 731q-117 0 -191.5 82.5t-68.5 235.5h181q-1 -63 31 -82.5t56 -19.5q27 0 53 22.5t26 73.5q0 48 -24 71.5t-51 23.5h-73l1 196h60q48 0 58 28t10 55q0 52 -20 72.5t-42 20.5q-24 0 -40.5 -21t-15.5 -69h-188q3 140 59.5 220.5t186.5 80.5q120 0 180 -72.5t60 -191.5
q0 -78 -39.5 -140.5t-86.5 -77.5q58 -6 105 -64t47 -169q0 -74 -29 -136.5t-89.5 -100.5t-155.5 -38zM157 0l437 949l298 772h157l-387 -819l-348 -902h-157zM911 -11q-114 0 -196.5 70.5t-82.5 200.5q0 111 49 171.5t128 68.5q-79 15 -114.5 76.5t-35.5 139.5q0 119 64 191
t188 72t188 -72t64 -191q0 -78 -35.5 -140t-113.5 -78q73 -6 124.5 -65.5t51.5 -172.5q0 -87 -38.5 -147.5t-102 -92t-138.5 -31.5zM911 189q32 0 59 28t27 83q0 56 -24.5 84t-61.5 28t-61 -26.5t-24 -85.5q0 -54 25.5 -82.5t59.5 -28.5zM911 581q38 0 50.5 31t12.5 79
q0 53 -18.5 77t-44.5 24q-28 0 -45.5 -23t-17.5 -78q0 -46 14 -78t49 -32z" />
    <glyph glyph-name="fiveeighths.ss19" 
d="M248 751q-67 0 -130 34t-102 103t-34 175h190q-2 -66 19.5 -89.5t51.5 -23.5q49 0 58 46.5t9 117.5q0 64 -19 86.5t-38 22.5q-41 0 -55 -25.5t-13 -57.5l-192 64l40 517h427v-206h-277l-37 -277q11 47 33 83t56 57q19 12 40.5 17.5t43.5 5.5q46 0 90.5 -27.5t73.5 -89
t29 -163.5q0 -172 -75.5 -271t-188.5 -99zM112 0l437 949l298 772h157l-387 -819l-348 -902h-157zM887 -11q-114 0 -196.5 70.5t-82.5 200.5q0 111 49 171.5t128 68.5q-79 15 -114.5 76.5t-35.5 139.5q0 119 64 191t188 72t188 -72t64 -191q0 -78 -35.5 -140t-113.5 -78
q73 -6 124.5 -65.5t51.5 -172.5q0 -87 -38.5 -147.5t-102 -92t-138.5 -31.5zM887 189q32 0 59 28t27 83q0 56 -24.5 84t-61.5 28t-61 -26.5t-24 -85.5q0 -54 25.5 -82.5t59.5 -28.5zM887 581q38 0 50.5 31t12.5 79q0 53 -18.5 77t-44.5 24q-28 0 -45.5 -23t-17.5 -78
q0 -46 14 -78t49 -32z" />
    <glyph glyph-name="seveneighths.ss19" 
d="M82 0l437 949l298 772h157l-387 -819l-348 -902h-157zM857 189q32 0 59 28t27 83q0 56 -24.5 84t-61.5 28t-61 -26.5t-24 -85.5q0 -54 25.5 -82.5t59.5 -28.5zM857 -11q-114 0 -196.5 70.5t-82.5 200.5q0 111 49 171.5t128 68.5q-79 15 -114.5 76.5t-35.5 139.5
q0 119 64 191t188 72t188 -72t64 -191q0 -78 -35.5 -140t-113.5 -78q73 -6 124.5 -65.5t51.5 -172.5q0 -87 -38.5 -147.5t-102 -92t-138.5 -31.5zM115 761l176 646q10 38 28.5 60.5t40.5 34.5h-310v219h518l-226 -960h-227zM857 581q38 0 50.5 31t12.5 79q0 53 -18.5 77
t-44.5 24q-28 0 -45.5 -23t-17.5 -78q0 -46 14 -78t49 -32z" />
    <glyph glyph-name="zero_part." 
d="M600 -30q-173 0 -290.5 75.5t-177 241.5t-59.5 440q0 269 60 435.5t177.5 243.5t289.5 77q173 0 290 -77t177 -243.5t60 -435.5q0 -274 -59.5 -440t-177 -241.5t-290.5 -75.5zM600 258q58 0 101 16.5t71.5 65t42.5 141.5t14 246q0 150 -14 243t-42.5 141.5t-71.5 66
t-101 17.5t-101 -17.5t-71.5 -66t-42.5 -141.5t-14 -243q0 -153 14 -246t42.5 -141.5t71.5 -65t101 -16.5z" />
    <glyph glyph-name="asterisk.ss15" 
d="M451 378l86 434l-325 -288l-152 243l420 149l-417 149l149 243l327 -288l-88 434h299l-89 -435l330 286l149 -240l-416 -149l416 -149l-149 -243l-330 288l92 -434h-302z" />
    <glyph glyph-name="asterisk.ss16" 
d="M452 409l86 454l-405 -222l-94 287l461 53l-337 316l244 178l193 -422l193 422l244 -178l-337 -316l461 -53l-94 -287l-405 222l92 -454h-302z" />
    <glyph glyph-name="plus.alt" horiz-adv-x="2400" 
d="M1940 891h401v-259h-401v-436h-278l-1 326q0 43 22.5 75t64.5 35h-1007v-436h-278l-1 326q0 43 22.5 75t64.5 35h-490v259h403v432h279v-432h920v432h279v-432z" />
    <glyph glyph-name="equal.alt" horiz-adv-x="2400" 
d="M2210 1097v-256h-2020v256h2020zM190 642h2020v-256h-2020v256z" />
    <glyph glyph-name="uni030C.alt" horiz-adv-x="0" 
d="M134 1175l2 386h244l-27 -386h-219z" />
    <glyph glyph-name="uni0308.case" horiz-adv-x="0" 
d="M360 1572q-66 0 -116.5 48t-50.5 127q0 72 50.5 122.5t116.5 50.5t117 -50t51 -123q0 -79 -51.5 -127t-116.5 -48zM840 1572q-65 0 -116 48t-51 127q0 73 51 123t116 50q67 0 117 -50.5t50 -122.5q0 -79 -50.5 -127t-116.5 -48z" />
    <glyph glyph-name="uni0307.case" horiz-adv-x="0" 
d="M600 1572q-67 0 -120 48t-53 127q0 73 53 123t120 50q69 0 121 -50.5t52 -122.5q0 -79 -52.5 -127t-120.5 -48z" />
    <glyph glyph-name="gravecomb.case" horiz-adv-x="0" 
d="M445 1591l-235 321h332l204 -321h-301z" />
    <glyph glyph-name="acutecomb.case" horiz-adv-x="0" 
d="M743 1591h-301l204 321h332z" />
    <glyph glyph-name="uni030B.case" horiz-adv-x="0" 
d="M694 1591l165 321h300l-209 -321h-256zM241 1591l147 321h296l-189 -321h-254z" />
    <glyph glyph-name="uni0302.case" horiz-adv-x="0" 
d="M196 1585l272 327h266l270 -327h-258l-145 168l-146 -168h-259z" />
    <glyph glyph-name="uni030C.case" horiz-adv-x="0" 
d="M468 1585l-272 327h259l146 -168l145 168h258l-270 -327h-266z" />
    <glyph glyph-name="uni0306.case" horiz-adv-x="0" 
d="M601 1581q-166 0 -263 73t-90 258h229q-8 -80 23 -117.5t101 -37.5q69 0 100.5 37.5t23.5 117.5h228q5 -123 -37.5 -195.5t-123.5 -104t-191 -31.5z" />
    <glyph glyph-name="uni030A.case" horiz-adv-x="0" 
d="M600 1567q-116 0 -178.5 64t-62.5 166q0 100 62.5 163.5t178.5 63.5t178.5 -63.5t62.5 -163.5q0 -68 -28 -120t-81.5 -81t-131.5 -29zM600 1694q35 0 61 26t26 77q0 50 -26 75t-61 25q-34 0 -59.5 -25t-25.5 -75q0 -51 25.5 -77t59.5 -26z" />
    <glyph glyph-name="tildecomb.case" horiz-adv-x="0" 
d="M751 1562q-67 0 -110 22.5t-72 52.5t-52 52.5t-50 22.5q-37 0 -60.5 -40.5t-9.5 -111.5h-197q-19 168 53 254.5t197 86.5q67 0 109.5 -22.5t71 -52.5t51 -52.5t49.5 -22.5q38 0 62.5 39.5t11.5 110.5h195q20 -167 -52 -253t-197 -86z" />
    <glyph glyph-name="uni0304.case" horiz-adv-x="0" 
d="M269 1603v243h662l-3 -243h-659z" />
    <glyph glyph-name="uni0327.case" horiz-adv-x="0" 
d="M214 -505q-54 0 -108 10.5t-104 33.5l1 199q27 -13 58 -21.5t57 -8.5q45 0 68 22t23 66q0 57 -52.5 108.5t-153.5 95.5h260q119 -37 167.5 -106t48.5 -150q0 -115 -72.5 -182t-192.5 -67z" />
    <glyph glyph-name="uni0328.case" horiz-adv-x="0" 
d="M315 -467q-77 0 -139.5 25t-99 71.5t-36.5 108.5q0 86 56 163.5t167 98.5h236q-102 -52 -150 -88t-48 -96q0 -36 24.5 -57t62.5 -21q54 0 107 28l2 -192q-43 -20 -86.5 -30.5t-95.5 -10.5z" />
    <glyph glyph-name="greaterarrow" horiz-adv-x="2400" 
d="M1868 236l-188 166l364 320l98 -121h-2002v230h2001l-98 -121l-363 326l188 157l482 -479z" />
    <glyph glyph-name="exclamequal" horiz-adv-x="2400" 
d="M753 -195l643 1886h251l-643 -1886h-251zM190 386v256h2020v-256h-2020zM190 841v256h2020v-256h-2020z" />
    <glyph glyph-name="Qtail_part." 
d="M790 -316l-153 363h241q21 0 50 -12t48 -47l163 -304h-349z" />
    <glyph glyph-name="zerodot_part." 
d="M600 577q-55 0 -79.5 32.5t-24.5 117.5t24.5 117t79.5 32q56 0 80 -32t24 -117t-24 -117.5t-80 -32.5z" />
    <glyph glyph-name="ringcomba_part." 
d="M600 1431q-127 0 -197 70.5t-70 182.5q0 111 69.5 181t197.5 70q127 0 196.5 -70t69.5 -181q0 -112 -69.5 -182.5t-196.5 -70.5zM600 1577q46 0 74.5 27.5t28.5 79.5q0 50 -28.5 77.5t-74.5 27.5t-74.5 -27.5t-28.5 -77.5q0 -52 28.5 -79.5t74.5 -27.5z" />
    <glyph glyph-name="Bar_part." 
d="M64 537v248h635l-3 -248h-632z" />
    <glyph glyph-name="ringacutecomb" 
d="M530 1713l144 199h244l-196 -199h-192zM600 1251q-127 0 -197 70.5t-70 182.5q0 111 69.5 181t197.5 70q127 0 196.5 -70t69.5 -181q0 -112 -69.5 -182.5t-196.5 -70.5zM600 1397q46 0 74.5 27.5t28.5 79.5q0 50 -28.5 77.5t-74.5 27.5t-74.5 -27.5t-28.5 -77.5
q0 -52 28.5 -79.5t74.5 -27.5z" />
    <glyph glyph-name="Barmid_part." 
d="M150 529v264h827l-4 -264h-823z" />
    <glyph glyph-name="slashl_part." 
d="M149 529v264l626 298l-4 -264z" />
    <glyph glyph-name="oSlash_part." 
d="M28 128l150 238l49 34l412 713l5 35l111 178h182l-130 -207l-47 -38l-422 -730l-7 -31l-121 -192h-182z" />
    <glyph glyph-name="OSlash_part." 
d="M-55 -87l129 246l44 42l557 1107l-2 44l97 183h237l-117 -220l-46 -47l-567 -1128l4 -40l-99 -187h-237z" />
    <glyph glyph-name="slashL_part." 
d="M190 533v243l317 150l133 -22q-1 27 10 56.5t63 54.5l178 86l-4 -255l-391 -191l-140 -47z" />
    <glyph glyph-name="zeroSlash_part." 
d="M844 201l-159 -61l-567 1128l169 40z" />
    <glyph glyph-name="ringacutecomb.case" 
d="M600 1302q-127 0 -197 70.5t-70 182.5q0 111 69.5 181t197.5 70q127 0 196.5 -70t69.5 -181q0 -112 -69.5 -182.5t-196.5 -70.5zM600 1448q46 0 74.5 27.5t28.5 79.5q0 50 -28.5 77.5t-74.5 27.5t-74.5 -27.5t-28.5 -77.5q0 -52 28.5 -79.5t74.5 -27.5zM637 1713l124 199
h244l-216 -219z" />
    <glyph glyph-name="lessergreater" horiz-adv-x="2400" 
d="M1199 70l-769 579l1 132l768 587l766 -583v-140zM1199 397l450 318l-450 326l-448 -326z" />
    <glyph glyph-name="greatergreaterarrow" horiz-adv-x="2400" 
d="M1868 236l-188 166l364 320l98 -121h-1992v230h1991l-98 -121l-363 326l188 157l482 -479zM1336 236l-188 166l364 320l98 -121l-1 230l-98 -121l-363 326l188 157l482 -479z" />
    <glyph glyph-name="equalequalarrow" horiz-adv-x="2400" 
d="M150 506v186h1976l-294 -186h-1682zM150 791v186h1682l290 -186h-1972zM1868 262l-188 166l364 320l-1 -12l-363 326l188 157l482 -479z" />
    <glyph glyph-name="equalarrow" 
d="M140 506v186h790l-294 -186h-496zM140 791v186h496l290 -186h-786zM672 262l-188 166l364 320l-1 -12l-363 326l188 157l482 -479z" />
  </font>
</defs>
</svg>
