<svg width="108" height="128" viewBox="0 0 108 128" fill="none" xmlns="http://www.w3.org/2000/svg">
<mask id="path-1-inside-1_2384_8947" fill="white">
<path d="M100.846 127.905C97.6429 127.905 94.9353 125.788 94.3823 122.871C93.8485 119.973 95.6408 117.151 98.6535 116.159C99.0157 116.045 99.2636 115.701 99.2636 115.32V114.901C99.2636 114.024 98.9013 113.223 98.253 112.613C97.6238 112.021 96.7658 111.697 95.8887 111.697H60.7092C60.3469 111.697 60.0227 111.926 59.8893 112.269C58.955 114.672 56.4762 116.293 53.7114 116.293C50.9466 116.293 48.4678 114.672 47.5335 112.288C47.4001 111.945 47.0759 111.716 46.6946 111.716H11.5151C9.66552 111.716 8.14012 113.146 8.14012 114.92V115.339C8.14012 115.721 8.388 116.064 8.75028 116.178C11.7629 117.17 13.5553 119.992 13.0214 122.89C12.4875 125.807 9.76086 127.924 6.55752 127.924C3.35418 127.924 0.6466 125.807 0.0936426 122.89C-0.440247 119.992 1.3521 117.17 4.36476 116.178C4.72704 116.064 4.97492 115.721 4.97492 115.339V114.92C4.97492 111.583 7.91131 108.856 11.5341 108.856H46.7327C47.095 108.856 47.4382 108.627 47.5717 108.284C48.239 106.549 49.6691 105.214 51.5377 104.604C51.9 104.49 52.1479 104.147 52.1479 103.765V96.4052C52.1479 95.9094 51.7475 95.509 51.2517 95.509H35.9214C35.5592 95.509 35.2159 95.7378 35.0825 96.081C34.1672 98.5026 31.6885 100.142 28.9046 100.142C28.5233 100.142 28.1419 100.104 27.7796 100.047C24.6335 99.5323 22.3454 97.0344 22.3454 94.079C22.3454 91.1235 24.6335 88.6257 27.7796 88.1108C28.1419 88.0536 28.5233 88.0155 28.9046 88.0155C31.6694 88.0155 34.1482 89.6553 35.0825 92.0769C35.2159 92.4201 35.5401 92.6489 35.9214 92.6489H51.2517C51.7475 92.6489 52.1479 92.2485 52.1479 91.7527V82.4859C52.1479 81.9902 51.7475 81.5898 51.2517 81.5898H26.4449C23.4132 81.5898 20.4386 80.4457 18.284 78.4436C16.1485 76.4606 14.9281 73.7149 14.9281 70.912V61.6452C14.9281 61.1494 14.5277 60.749 14.032 60.749H6.57659C5.69948 60.749 4.99399 60.1198 4.99399 59.3189C4.99399 58.5181 5.69948 57.8889 6.57659 57.8889H14.032C14.5277 57.8889 14.9281 57.4885 14.9281 56.9927V47.7259C14.9281 47.2302 14.5277 46.8297 14.032 46.8297H6.57659C5.69948 46.8297 4.99399 46.2005 4.99399 45.3997C4.99399 44.5988 5.69948 43.9696 6.57659 43.9696H14.032C14.5277 43.9696 14.9281 43.5692 14.9281 43.0734V33.8066C14.9281 33.3109 14.5277 32.9105 14.032 32.9105H6.57659C5.69948 32.9105 4.99399 32.2812 4.99399 31.4804C4.99399 30.6796 5.69948 30.0504 6.57659 30.0504H14.032C14.5277 30.0504 14.9281 29.6499 14.9281 29.1542V19.8874C14.9281 13.9955 20.0954 9.19053 26.4449 9.19053H36.36C36.8558 9.19053 37.2562 8.79011 37.2562 8.29435V1.43006C37.2562 0.648294 37.9617 0 38.8388 0C39.7159 0 40.4214 0.629227 40.4214 1.43006V8.38969C40.4214 8.88545 40.8218 9.28586 41.3175 9.28586H51.2326C51.7284 9.28586 52.1288 8.88545 52.1288 8.38969V1.43006C52.1288 0.648294 52.8343 0 53.7114 0C54.5885 0 55.294 0.629227 55.294 1.43006V8.38969C55.294 8.88545 55.6944 9.28586 56.1902 9.28586H66.1053C66.601 9.28586 67.0014 8.88545 67.0014 8.38969V1.43006C67.0014 0.648294 67.7069 0 68.584 0C69.4612 0 70.1666 0.629227 70.1666 1.43006V8.42783C70.1666 8.92358 70.5671 9.324 71.0628 9.324H80.9779C84.0096 9.324 86.9842 10.468 89.1388 12.4701C91.2743 14.4532 92.4947 17.1989 92.4947 20.0018V29.2686C92.4947 29.7643 92.8951 30.1648 93.3908 30.1648H100.846C101.723 30.1648 102.429 30.794 102.429 31.5948C102.429 32.3957 101.723 33.0249 100.846 33.0249H93.3908C92.8951 33.0249 92.4947 33.4253 92.4947 33.9211V43.1878C92.4947 43.6836 92.8951 44.084 93.3908 44.084H100.846C101.723 44.084 102.429 44.7132 102.429 45.5141C102.429 46.3149 101.723 46.9441 100.846 46.9441H93.3908C92.8951 46.9441 92.4947 47.3446 92.4947 47.8403V57.1071C92.4947 57.6029 92.8951 58.0033 93.3908 58.0033H100.846C101.723 58.0033 102.429 58.6325 102.429 59.4333C102.429 60.2342 101.723 60.8634 100.846 60.8634H93.3908C92.8951 60.8634 92.4947 61.2638 92.4947 61.7596V71.0264C92.4947 73.8293 91.2743 76.575 89.1388 78.558C87.0032 80.5601 84.0287 81.7042 80.9779 81.7042H56.1711C55.6754 81.7042 55.2749 82.1046 55.2749 82.6003V91.8671C55.2749 92.3629 55.6754 92.7633 56.1711 92.7633H71.5014C71.8636 92.7633 72.2069 92.5345 72.3403 92.1913C73.2556 89.7697 75.7343 88.1299 78.5182 88.1299C78.8996 88.1299 79.2809 88.168 79.6432 88.2252C82.7893 88.7401 85.0774 91.2379 85.0774 94.1934C85.0774 97.1488 82.7893 99.6467 79.6432 100.161C79.2809 100.219 78.8996 100.257 78.5182 100.257C75.7534 100.257 73.2746 98.617 72.3403 96.1954C72.2069 95.8522 71.8827 95.6234 71.5014 95.6234H56.1711C55.6754 95.6234 55.2749 96.0238 55.2749 96.5196V103.88C55.2749 104.261 55.5228 104.604 55.8851 104.719C57.7537 105.348 59.1838 106.683 59.8511 108.399C59.9846 108.742 60.3088 108.971 60.6901 108.971H95.8696C99.4924 108.971 102.429 111.697 102.429 115.034V115.454C102.429 115.911 102.791 116.312 103.249 116.331C106.128 117.379 107.825 120.144 107.31 122.966C106.776 125.884 104.05 128 100.846 128V127.905ZM100.541 125.064C100.541 125.064 100.713 125.102 100.808 125.102C101.704 125.102 102.543 124.778 103.172 124.187C103.821 123.576 104.183 122.756 104.183 121.898C104.183 120.564 103.363 119.401 102.086 118.924C101.685 118.771 101.266 118.695 100.827 118.695C99.931 118.695 99.1111 119.019 98.4628 119.61C97.4713 120.545 97.1853 121.917 97.7192 123.138C98.234 124.244 99.3018 124.968 100.522 125.083L100.541 125.064ZM6.27151 125.064C6.27151 125.064 6.44311 125.102 6.53845 125.102C7.43462 125.102 8.27359 124.778 8.90282 124.187C9.55111 123.576 9.9134 122.756 9.9134 121.898C9.9134 120.564 9.09349 119.401 7.81597 118.924C7.41556 118.771 6.99607 118.695 6.55752 118.695C5.66135 118.695 4.84145 119.019 4.19315 119.61C3.20164 120.545 2.91563 121.917 3.44952 123.138C3.96434 124.244 5.03212 124.968 6.25244 125.083L6.27151 125.064ZM53.4063 113.471C53.4063 113.471 53.5779 113.509 53.6733 113.509C54.5694 113.509 55.4084 113.185 56.0376 112.593C56.6859 111.983 57.0482 111.163 57.0482 110.305C57.0482 108.971 56.2283 107.808 54.9508 107.331C54.5504 107.178 54.1309 107.102 53.6923 107.102C52.7962 107.102 51.9572 107.426 51.328 108.017C50.3365 108.952 50.0504 110.324 50.5843 111.545C51.0992 112.651 52.1669 113.375 53.3873 113.49L53.4063 113.471ZM28.5805 97.2632C28.5805 97.2632 28.7521 97.3014 28.8474 97.3014C29.7436 97.3014 30.5826 96.9772 31.2118 96.3861C31.8601 95.776 32.2224 94.9561 32.2224 94.098C32.2224 92.7633 31.4025 91.6002 30.1249 91.1235C29.7245 90.971 29.305 90.8947 28.8665 90.8947C27.9703 90.8947 27.1504 91.2188 26.5021 91.8099C25.5106 92.7442 25.2246 94.1171 25.7585 95.3374C26.2733 96.4433 27.3411 97.1679 28.5614 97.2823L28.5805 97.2632ZM78.5182 90.8566C76.6687 90.8566 75.1433 92.2866 75.1433 94.0599C75.1433 95.3946 75.9632 96.5577 77.2407 97.0344C77.6411 97.187 78.0606 97.2632 78.4991 97.2632C79.3953 97.2632 80.2152 96.9391 80.8635 96.348C81.855 95.4137 82.141 94.0408 81.6071 92.8205C81.0923 91.6955 79.9673 90.9519 78.6898 90.8756C78.6326 90.8756 78.5754 90.8566 78.4991 90.8566H78.5182ZM26.4068 12.1079C21.8115 12.1079 18.0743 15.6163 18.0743 19.9446V70.912C18.0743 75.2403 21.8115 78.7487 26.4068 78.7487H80.997C85.5922 78.7487 89.3295 75.2403 89.3295 70.912V19.9446C89.3295 15.6163 85.5922 12.1079 80.997 12.1079H26.4068ZM36.3219 67.7086C32.699 67.7086 29.7626 64.982 29.7626 61.6452V29.2114C29.7626 25.8746 32.699 23.1479 36.3219 23.1479H71.0628C74.6856 23.1479 77.622 25.8746 77.622 29.2114V61.6452C77.622 64.982 74.6856 67.7086 71.0628 67.7086H36.3219ZM36.3409 26.008C34.4914 26.008 32.966 27.4381 32.966 29.2114V61.6452C32.966 63.4184 34.4723 64.8676 36.3409 64.8676H71.0819C71.9781 64.8676 72.817 64.5434 73.4463 63.9523C74.0945 63.3422 74.4568 62.5223 74.4568 61.6642V29.2304C74.4568 28.3533 74.0945 27.5525 73.4463 26.9424C72.817 26.3513 71.9781 26.0271 71.0819 26.0271H36.3409V26.008Z"/>
</mask>
<path d="M100.846 127.905C97.6429 127.905 94.9353 125.788 94.3823 122.871C93.8485 119.973 95.6408 117.151 98.6535 116.159C99.0157 116.045 99.2636 115.701 99.2636 115.32V114.901C99.2636 114.024 98.9013 113.223 98.253 112.613C97.6238 112.021 96.7658 111.697 95.8887 111.697H60.7092C60.3469 111.697 60.0227 111.926 59.8893 112.269C58.955 114.672 56.4762 116.293 53.7114 116.293C50.9466 116.293 48.4678 114.672 47.5335 112.288C47.4001 111.945 47.0759 111.716 46.6946 111.716H11.5151C9.66552 111.716 8.14012 113.146 8.14012 114.92V115.339C8.14012 115.721 8.388 116.064 8.75028 116.178C11.7629 117.17 13.5553 119.992 13.0214 122.89C12.4875 125.807 9.76086 127.924 6.55752 127.924C3.35418 127.924 0.6466 125.807 0.0936426 122.89C-0.440247 119.992 1.3521 117.17 4.36476 116.178C4.72704 116.064 4.97492 115.721 4.97492 115.339V114.92C4.97492 111.583 7.91131 108.856 11.5341 108.856H46.7327C47.095 108.856 47.4382 108.627 47.5717 108.284C48.239 106.549 49.6691 105.214 51.5377 104.604C51.9 104.49 52.1479 104.147 52.1479 103.765V96.4052C52.1479 95.9094 51.7475 95.509 51.2517 95.509H35.9214C35.5592 95.509 35.2159 95.7378 35.0825 96.081C34.1672 98.5026 31.6885 100.142 28.9046 100.142C28.5233 100.142 28.1419 100.104 27.7796 100.047C24.6335 99.5323 22.3454 97.0344 22.3454 94.079C22.3454 91.1235 24.6335 88.6257 27.7796 88.1108C28.1419 88.0536 28.5233 88.0155 28.9046 88.0155C31.6694 88.0155 34.1482 89.6553 35.0825 92.0769C35.2159 92.4201 35.5401 92.6489 35.9214 92.6489H51.2517C51.7475 92.6489 52.1479 92.2485 52.1479 91.7527V82.4859C52.1479 81.9902 51.7475 81.5898 51.2517 81.5898H26.4449C23.4132 81.5898 20.4386 80.4457 18.284 78.4436C16.1485 76.4606 14.9281 73.7149 14.9281 70.912V61.6452C14.9281 61.1494 14.5277 60.749 14.032 60.749H6.57659C5.69948 60.749 4.99399 60.1198 4.99399 59.3189C4.99399 58.5181 5.69948 57.8889 6.57659 57.8889H14.032C14.5277 57.8889 14.9281 57.4885 14.9281 56.9927V47.7259C14.9281 47.2302 14.5277 46.8297 14.032 46.8297H6.57659C5.69948 46.8297 4.99399 46.2005 4.99399 45.3997C4.99399 44.5988 5.69948 43.9696 6.57659 43.9696H14.032C14.5277 43.9696 14.9281 43.5692 14.9281 43.0734V33.8066C14.9281 33.3109 14.5277 32.9105 14.032 32.9105H6.57659C5.69948 32.9105 4.99399 32.2812 4.99399 31.4804C4.99399 30.6796 5.69948 30.0504 6.57659 30.0504H14.032C14.5277 30.0504 14.9281 29.6499 14.9281 29.1542V19.8874C14.9281 13.9955 20.0954 9.19053 26.4449 9.19053H36.36C36.8558 9.19053 37.2562 8.79011 37.2562 8.29435V1.43006C37.2562 0.648294 37.9617 0 38.8388 0C39.7159 0 40.4214 0.629227 40.4214 1.43006V8.38969C40.4214 8.88545 40.8218 9.28586 41.3175 9.28586H51.2326C51.7284 9.28586 52.1288 8.88545 52.1288 8.38969V1.43006C52.1288 0.648294 52.8343 0 53.7114 0C54.5885 0 55.294 0.629227 55.294 1.43006V8.38969C55.294 8.88545 55.6944 9.28586 56.1902 9.28586H66.1053C66.601 9.28586 67.0014 8.88545 67.0014 8.38969V1.43006C67.0014 0.648294 67.7069 0 68.584 0C69.4612 0 70.1666 0.629227 70.1666 1.43006V8.42783C70.1666 8.92358 70.5671 9.324 71.0628 9.324H80.9779C84.0096 9.324 86.9842 10.468 89.1388 12.4701C91.2743 14.4532 92.4947 17.1989 92.4947 20.0018V29.2686C92.4947 29.7643 92.8951 30.1648 93.3908 30.1648H100.846C101.723 30.1648 102.429 30.794 102.429 31.5948C102.429 32.3957 101.723 33.0249 100.846 33.0249H93.3908C92.8951 33.0249 92.4947 33.4253 92.4947 33.9211V43.1878C92.4947 43.6836 92.8951 44.084 93.3908 44.084H100.846C101.723 44.084 102.429 44.7132 102.429 45.5141C102.429 46.3149 101.723 46.9441 100.846 46.9441H93.3908C92.8951 46.9441 92.4947 47.3446 92.4947 47.8403V57.1071C92.4947 57.6029 92.8951 58.0033 93.3908 58.0033H100.846C101.723 58.0033 102.429 58.6325 102.429 59.4333C102.429 60.2342 101.723 60.8634 100.846 60.8634H93.3908C92.8951 60.8634 92.4947 61.2638 92.4947 61.7596V71.0264C92.4947 73.8293 91.2743 76.575 89.1388 78.558C87.0032 80.5601 84.0287 81.7042 80.9779 81.7042H56.1711C55.6754 81.7042 55.2749 82.1046 55.2749 82.6003V91.8671C55.2749 92.3629 55.6754 92.7633 56.1711 92.7633H71.5014C71.8636 92.7633 72.2069 92.5345 72.3403 92.1913C73.2556 89.7697 75.7343 88.1299 78.5182 88.1299C78.8996 88.1299 79.2809 88.168 79.6432 88.2252C82.7893 88.7401 85.0774 91.2379 85.0774 94.1934C85.0774 97.1488 82.7893 99.6467 79.6432 100.161C79.2809 100.219 78.8996 100.257 78.5182 100.257C75.7534 100.257 73.2746 98.617 72.3403 96.1954C72.2069 95.8522 71.8827 95.6234 71.5014 95.6234H56.1711C55.6754 95.6234 55.2749 96.0238 55.2749 96.5196V103.88C55.2749 104.261 55.5228 104.604 55.8851 104.719C57.7537 105.348 59.1838 106.683 59.8511 108.399C59.9846 108.742 60.3088 108.971 60.6901 108.971H95.8696C99.4924 108.971 102.429 111.697 102.429 115.034V115.454C102.429 115.911 102.791 116.312 103.249 116.331C106.128 117.379 107.825 120.144 107.31 122.966C106.776 125.884 104.05 128 100.846 128V127.905ZM100.541 125.064C100.541 125.064 100.713 125.102 100.808 125.102C101.704 125.102 102.543 124.778 103.172 124.187C103.821 123.576 104.183 122.756 104.183 121.898C104.183 120.564 103.363 119.401 102.086 118.924C101.685 118.771 101.266 118.695 100.827 118.695C99.931 118.695 99.1111 119.019 98.4628 119.61C97.4713 120.545 97.1853 121.917 97.7192 123.138C98.234 124.244 99.3018 124.968 100.522 125.083L100.541 125.064ZM6.27151 125.064C6.27151 125.064 6.44311 125.102 6.53845 125.102C7.43462 125.102 8.27359 124.778 8.90282 124.187C9.55111 123.576 9.9134 122.756 9.9134 121.898C9.9134 120.564 9.09349 119.401 7.81597 118.924C7.41556 118.771 6.99607 118.695 6.55752 118.695C5.66135 118.695 4.84145 119.019 4.19315 119.61C3.20164 120.545 2.91563 121.917 3.44952 123.138C3.96434 124.244 5.03212 124.968 6.25244 125.083L6.27151 125.064ZM53.4063 113.471C53.4063 113.471 53.5779 113.509 53.6733 113.509C54.5694 113.509 55.4084 113.185 56.0376 112.593C56.6859 111.983 57.0482 111.163 57.0482 110.305C57.0482 108.971 56.2283 107.808 54.9508 107.331C54.5504 107.178 54.1309 107.102 53.6923 107.102C52.7962 107.102 51.9572 107.426 51.328 108.017C50.3365 108.952 50.0504 110.324 50.5843 111.545C51.0992 112.651 52.1669 113.375 53.3873 113.49L53.4063 113.471ZM28.5805 97.2632C28.5805 97.2632 28.7521 97.3014 28.8474 97.3014C29.7436 97.3014 30.5826 96.9772 31.2118 96.3861C31.8601 95.776 32.2224 94.9561 32.2224 94.098C32.2224 92.7633 31.4025 91.6002 30.1249 91.1235C29.7245 90.971 29.305 90.8947 28.8665 90.8947C27.9703 90.8947 27.1504 91.2188 26.5021 91.8099C25.5106 92.7442 25.2246 94.1171 25.7585 95.3374C26.2733 96.4433 27.3411 97.1679 28.5614 97.2823L28.5805 97.2632ZM78.5182 90.8566C76.6687 90.8566 75.1433 92.2866 75.1433 94.0599C75.1433 95.3946 75.9632 96.5577 77.2407 97.0344C77.6411 97.187 78.0606 97.2632 78.4991 97.2632C79.3953 97.2632 80.2152 96.9391 80.8635 96.348C81.855 95.4137 82.141 94.0408 81.6071 92.8205C81.0923 91.6955 79.9673 90.9519 78.6898 90.8756C78.6326 90.8756 78.5754 90.8566 78.4991 90.8566H78.5182ZM26.4068 12.1079C21.8115 12.1079 18.0743 15.6163 18.0743 19.9446V70.912C18.0743 75.2403 21.8115 78.7487 26.4068 78.7487H80.997C85.5922 78.7487 89.3295 75.2403 89.3295 70.912V19.9446C89.3295 15.6163 85.5922 12.1079 80.997 12.1079H26.4068ZM36.3219 67.7086C32.699 67.7086 29.7626 64.982 29.7626 61.6452V29.2114C29.7626 25.8746 32.699 23.1479 36.3219 23.1479H71.0628C74.6856 23.1479 77.622 25.8746 77.622 29.2114V61.6452C77.622 64.982 74.6856 67.7086 71.0628 67.7086H36.3219ZM36.3409 26.008C34.4914 26.008 32.966 27.4381 32.966 29.2114V61.6452C32.966 63.4184 34.4723 64.8676 36.3409 64.8676H71.0819C71.9781 64.8676 72.817 64.5434 73.4463 63.9523C74.0945 63.3422 74.4568 62.5223 74.4568 61.6642V29.2304C74.4568 28.3533 74.0945 27.5525 73.4463 26.9424C72.817 26.3513 71.9781 26.0271 71.0819 26.0271H36.3409V26.008Z" fill="black" stroke="black" stroke-width="2" mask="url(#path-1-inside-1_2384_8947)"/>
</svg>
