<svg width="104" height="98" viewBox="0 0 104 98" fill="none" xmlns="http://www.w3.org/2000/svg">
<path d="M103.268 0.5V97.5H0.5V0.5H103.268ZM50.1729 65.1377C50.1729 65.5054 49.8703 65.8095 49.4883 65.8096H29.7637C29.3816 65.8096 29.0781 65.5054 29.0781 65.1377V44.4961H1.86914V96.1699H29.0918V74.9814C29.0918 74.6138 29.3943 74.3096 29.7764 74.3096H66.5107V52.7559C66.5108 52.547 66.5855 52.3667 66.7021 52.25C66.8283 52.1239 67.0133 52.045 67.208 52.0449C67.4157 52.0449 67.59 52.1194 67.7041 52.2402C67.8358 52.3797 67.9062 52.5555 67.9062 52.7559V67.0186H84.7324C84.9255 67.0186 85.107 67.0915 85.2256 67.21L85.2354 67.2197C85.3641 67.3413 85.4306 67.494 85.4307 67.6895V79.2422L85.8291 79.3242C87.5432 79.6789 88.9442 80.9314 89.4492 82.5869C89.9552 84.246 89.5219 86.0465 88.3115 87.2959L88.248 87.3584C87.3388 88.2557 86.1113 88.7636 84.8242 88.7637C83.537 88.7637 82.3087 88.2559 81.3994 87.3584C80.1732 86.1305 79.7052 84.3529 80.1748 82.709C80.6461 81.0595 81.979 79.7725 83.667 79.3594L84.0479 79.2666V68.3613H67.9062V74.9814C67.906 75.3488 67.6034 75.6521 67.2217 75.6523H30.4873V96.1562H41.6426V82.0771C41.6426 81.7095 41.9452 81.4054 42.3271 81.4053H61.6748C62.0569 81.4053 62.3594 81.7095 62.3594 82.0771V96.1562H101.898V56.5137H84.6338L84.5361 56.8857C84.3114 57.7372 83.8625 58.5154 83.2275 59.127L83.2256 59.1289C82.3146 60.0163 81.0844 60.5234 79.8242 60.5234C78.5348 60.5234 77.3082 60.0279 76.4014 59.1338H76.4023C75.492 58.2235 74.9864 57.0091 74.9863 55.751C74.9863 54.4923 75.4917 53.2788 76.3994 52.3828H76.4004C77.6517 51.1433 79.4935 50.6708 81.1914 51.1777L81.1943 51.1787C82.8925 51.674 84.1777 53.0664 84.543 54.7744L84.6279 55.1699H102.604L101.885 54.4492V1.84375H50.1729V65.1377ZM42.999 96.1562H60.9766V82.749H42.999V96.1562ZM84.5508 80.5615L84.5391 80.6084L84.5371 80.5762C83.1866 80.6825 82.0298 81.5617 81.5703 82.8115C81.0972 84.0629 81.4027 85.4671 82.3613 86.4131V86.4141C83.0032 87.056 83.8859 87.4198 84.8105 87.4199C85.7408 87.4199 86.5941 87.0527 87.2432 86.4189L87.3057 86.3564C88.2702 85.361 88.5107 83.8952 87.9785 82.6484L87.8672 82.4131C87.2724 81.2695 86.0925 80.5615 84.7979 80.5615H84.5508ZM1.86914 43.1396H29.75C30.132 43.1396 30.4345 43.4439 30.4346 43.8115V64.4531H48.79V1.84375H1.86914V43.1396ZM83.293 55.7246C83.2929 54.3322 82.4495 53.0971 81.1455 52.5664H81.1445C79.8529 52.0359 78.3802 52.3259 77.3799 53.2959L77.377 53.2988C76.021 54.6395 76.0206 56.8058 77.375 58.1475V58.1484C78.0178 58.7911 78.9137 59.1543 79.8242 59.1543C80.7382 59.1543 81.6025 58.7892 82.252 58.1572C82.8249 57.6122 83.1958 56.8612 83.2568 56.0518L83.293 56.0342V55.7246Z" fill="black" stroke="black"/>
<path d="M34.7637 10.3687C35.1287 10.3689 35.4329 10.6604 35.4482 11.0347V14.3394H39.541C39.923 14.3394 40.2264 14.6437 40.2266 15.0112V32.3276C40.2266 32.6953 39.9231 32.9995 39.541 32.9995H35.4482V36.3452C35.4555 36.5297 35.3925 36.694 35.2559 36.8306C35.1296 36.9568 34.9448 37.0356 34.75 37.0356C34.5511 37.0356 34.3805 36.9669 34.2441 36.8306C34.1174 36.7037 34.0527 36.5382 34.0527 36.3247V33.4995H33.5781V32.9995H29.9717C29.5897 32.9994 29.2871 32.6952 29.2871 32.3276V15.0112C29.2872 14.6437 29.5898 14.3395 29.9717 14.3394H34.0781V11.0347C34.0935 10.6602 34.3985 10.3687 34.7637 10.3687ZM30.6309 31.6558H38.8311V15.6958H30.6309V31.6558Z" fill="black" stroke="black"/>
<path d="M66.3955 36.032H84.373V18.0671H66.3955V36.032ZM79.2178 12.4509L79.2168 12.4402C79.2095 12.2558 79.2727 12.0914 79.4092 11.9548C79.5353 11.8287 79.7203 11.7498 79.915 11.7498C80.1108 11.7498 80.2788 11.8169 80.4141 11.949C80.5436 12.088 80.6133 12.262 80.6133 12.4607V16.7107H85.0977C85.4794 16.7109 85.782 17.0143 85.7822 17.3816V21.781L86.3008 21.7615L90.041 21.6179L90.042 21.6189C90.4306 21.6113 90.738 21.9017 90.7549 22.2673C90.7594 22.6475 90.463 22.9604 90.0898 22.9753L86.2637 23.1189L85.7822 23.1365V30.7458H90.0605L90.1982 30.7625C90.5066 30.8319 90.7295 31.108 90.7295 31.4177C90.7293 31.7591 90.4359 32.0737 90.0508 32.0896H85.7822V36.7039C85.782 37.0712 85.4794 37.3745 85.0977 37.3748H80.8086V41.45C80.8162 41.6428 80.7477 41.8114 80.627 41.9255L80.6211 41.9304L80.6162 41.9353C80.49 42.0615 80.3051 42.1404 80.1104 42.1404C79.914 42.1403 79.7458 42.0731 79.6104 41.9402C79.4816 41.8014 79.4131 41.6275 79.4131 41.4294V37.3748H71.8057L71.7988 37.8679L71.7471 41.6306V41.6384C71.747 41.8256 71.6845 41.9797 71.5527 42.1169C71.4003 42.2491 71.2208 42.3229 71.0361 42.323C70.8617 42.323 70.6868 42.2456 70.5469 42.1072C70.4587 42.0111 70.3998 41.8933 70.376 41.7517L70.3643 41.5994L70.416 37.8826L70.4229 37.3748H65.7109C65.329 37.3748 65.0266 37.0714 65.0264 36.7039V32.0896H60.5215C60.348 32.0968 60.168 32.0313 60.0303 31.9031C59.904 31.7736 59.8311 31.6035 59.8311 31.4177C59.8311 31.2163 59.9011 31.053 60.0254 30.9353C60.1456 30.8222 60.3319 30.7458 60.542 30.7458H61.749L61.7227 30.7195H65V23.1091L64.5166 23.0925L60.6904 22.9626H60.6914C60.2915 22.9468 60.0119 22.6341 60.0264 22.2712C60.0416 21.8946 60.3572 21.603 60.7305 21.6179H60.7314L64.4805 21.7615L65 21.781V17.3816C65.0003 17.0142 65.3027 16.7108 65.6846 16.7107H70.1689V12.4509L70.168 12.4402C70.1607 12.2557 70.2247 12.0914 70.3613 11.9548C70.4875 11.8288 70.6717 11.7499 70.8662 11.7498C71.062 11.7498 71.23 11.8169 71.3652 11.949C71.4948 12.088 71.5645 12.262 71.5645 12.4607V16.7107H79.2178V12.4509Z" fill="black" stroke="black"/>
<path d="M15.9355 10.3687C16.2982 10.3687 16.6009 10.6562 16.6201 11.0269V14.3394H20.7529C21.1349 14.3394 21.4374 14.6437 21.4375 15.0112V32.3276C21.4375 32.6953 21.135 32.9995 20.7529 32.9995H16.6465V36.3579C16.6539 36.5425 16.5908 36.7066 16.4541 36.8433C16.328 36.9694 16.1438 37.0482 15.9492 37.0483C15.7667 37.0483 15.592 36.9774 15.4443 36.8423C15.3189 36.7045 15.2511 36.5337 15.251 36.3384V32.9995H11.1572C10.7753 32.9994 10.4727 32.6952 10.4727 32.3276V15.0112C10.4728 14.6437 10.7753 14.3395 11.1572 14.3394H15.251V11.0347C15.2663 10.6603 15.5704 10.3687 15.9355 10.3687ZM11.8418 31.6558H20.042V15.6958H11.8418V31.6558Z" fill="black" stroke="black"/>
<path d="M103.268 0.5V97.5H0.5V0.5H103.268ZM50.1729 65.1377C50.1729 65.5054 49.8703 65.8095 49.4883 65.8096H29.7637C29.3816 65.8096 29.0781 65.5054 29.0781 65.1377V44.4961H1.86914V96.1699H29.0918V74.9814C29.0918 74.6138 29.3943 74.3096 29.7764 74.3096H66.5107V52.7559C66.5108 52.547 66.5855 52.3667 66.7021 52.25C66.8283 52.1239 67.0133 52.045 67.208 52.0449C67.4157 52.0449 67.59 52.1194 67.7041 52.2402C67.8358 52.3797 67.9062 52.5555 67.9062 52.7559V67.0186H84.7324C84.9255 67.0186 85.107 67.0915 85.2256 67.21L85.2354 67.2197C85.3641 67.3413 85.4306 67.494 85.4307 67.6895V79.2422L85.8291 79.3242C87.5432 79.6789 88.9442 80.9314 89.4492 82.5869C89.9552 84.246 89.5219 86.0465 88.3115 87.2959L88.248 87.3584C87.3388 88.2557 86.1113 88.7636 84.8242 88.7637C83.537 88.7637 82.3087 88.2559 81.3994 87.3584C80.1732 86.1305 79.7052 84.3529 80.1748 82.709C80.6461 81.0595 81.979 79.7725 83.667 79.3594L84.0479 79.2666V68.3613H67.9062V74.9814C67.906 75.3488 67.6034 75.6521 67.2217 75.6523H30.4873V96.1562H41.6426V82.0771C41.6426 81.7095 41.9452 81.4054 42.3271 81.4053H61.6748C62.0569 81.4053 62.3594 81.7095 62.3594 82.0771V96.1562H101.898V56.5137H84.6338L84.5361 56.8857C84.3114 57.7372 83.8625 58.5154 83.2275 59.127L83.2256 59.1289C82.3146 60.0163 81.0844 60.5234 79.8242 60.5234C78.5348 60.5234 77.3082 60.0279 76.4014 59.1338H76.4023C75.492 58.2235 74.9864 57.0091 74.9863 55.751C74.9863 54.4923 75.4917 53.2788 76.3994 52.3828H76.4004C77.6517 51.1433 79.4935 50.6708 81.1914 51.1777L81.1943 51.1787C82.8925 51.674 84.1777 53.0664 84.543 54.7744L84.6279 55.1699H102.604L101.885 54.4492V1.84375H50.1729V65.1377ZM42.999 96.1562H60.9766V82.749H42.999V96.1562ZM84.5508 80.5615L84.5391 80.6084L84.5371 80.5762C83.1866 80.6825 82.0298 81.5617 81.5703 82.8115C81.0972 84.0629 81.4027 85.4671 82.3613 86.4131V86.4141C83.0032 87.056 83.8859 87.4198 84.8105 87.4199C85.7408 87.4199 86.5941 87.0527 87.2432 86.4189L87.3057 86.3564C88.2702 85.361 88.5107 83.8952 87.9785 82.6484L87.8672 82.4131C87.2724 81.2695 86.0925 80.5615 84.7979 80.5615H84.5508ZM1.86914 43.1396H29.75C30.132 43.1396 30.4345 43.4439 30.4346 43.8115V64.4531H48.79V1.84375H1.86914V43.1396ZM83.293 55.7246C83.2929 54.3322 82.4495 53.0971 81.1455 52.5664H81.1445C79.8529 52.0359 78.3802 52.3259 77.3799 53.2959L77.377 53.2988C76.021 54.6395 76.0206 56.8058 77.375 58.1475V58.1484C78.0178 58.7911 78.9137 59.1543 79.8242 59.1543C80.7382 59.1543 81.6025 58.7892 82.252 58.1572C82.8249 57.6122 83.1958 56.8612 83.2568 56.0518L83.293 56.0342V55.7246Z" fill="black" stroke="black"/>
<path d="M34.7637 10.3687C35.1287 10.3689 35.4329 10.6604 35.4482 11.0347V14.3394H39.541C39.923 14.3394 40.2264 14.6437 40.2266 15.0112V32.3276C40.2266 32.6953 39.9231 32.9995 39.541 32.9995H35.4482V36.3452C35.4555 36.5297 35.3925 36.694 35.2559 36.8306C35.1296 36.9568 34.9448 37.0356 34.75 37.0356C34.5511 37.0356 34.3805 36.9669 34.2441 36.8306C34.1174 36.7037 34.0527 36.5382 34.0527 36.3247V33.4995H33.5781V32.9995H29.9717C29.5897 32.9994 29.2871 32.6952 29.2871 32.3276V15.0112C29.2872 14.6437 29.5898 14.3395 29.9717 14.3394H34.0781V11.0347C34.0935 10.6602 34.3985 10.3687 34.7637 10.3687ZM30.6309 31.6558H38.8311V15.6958H30.6309V31.6558Z" fill="black" stroke="black"/>
<path d="M66.3955 36.032H84.373V18.0671H66.3955V36.032ZM79.2178 12.4509L79.2168 12.4402C79.2095 12.2558 79.2727 12.0914 79.4092 11.9548C79.5353 11.8287 79.7203 11.7498 79.915 11.7498C80.1108 11.7498 80.2788 11.8169 80.4141 11.949C80.5436 12.088 80.6133 12.262 80.6133 12.4607V16.7107H85.0977C85.4794 16.7109 85.782 17.0143 85.7822 17.3816V21.781L86.3008 21.7615L90.041 21.6179L90.042 21.6189C90.4306 21.6113 90.738 21.9017 90.7549 22.2673C90.7594 22.6475 90.463 22.9604 90.0898 22.9753L86.2637 23.1189L85.7822 23.1365V30.7458H90.0605L90.1982 30.7625C90.5066 30.8319 90.7295 31.108 90.7295 31.4177C90.7293 31.7591 90.4359 32.0737 90.0508 32.0896H85.7822V36.7039C85.782 37.0712 85.4794 37.3745 85.0977 37.3748H80.8086V41.45C80.8162 41.6428 80.7477 41.8114 80.627 41.9255L80.6211 41.9304L80.6162 41.9353C80.49 42.0615 80.3051 42.1404 80.1104 42.1404C79.914 42.1403 79.7458 42.0731 79.6104 41.9402C79.4816 41.8014 79.4131 41.6275 79.4131 41.4294V37.3748H71.8057L71.7988 37.8679L71.7471 41.6306V41.6384C71.747 41.8256 71.6845 41.9797 71.5527 42.1169C71.4003 42.2491 71.2208 42.3229 71.0361 42.323C70.8617 42.323 70.6868 42.2456 70.5469 42.1072C70.4587 42.0111 70.3998 41.8933 70.376 41.7517L70.3643 41.5994L70.416 37.8826L70.4229 37.3748H65.7109C65.329 37.3748 65.0266 37.0714 65.0264 36.7039V32.0896H60.5215C60.348 32.0968 60.168 32.0313 60.0303 31.9031C59.904 31.7736 59.8311 31.6035 59.8311 31.4177C59.8311 31.2163 59.9011 31.053 60.0254 30.9353C60.1456 30.8222 60.3319 30.7458 60.542 30.7458H61.749L61.7227 30.7195H65V23.1091L64.5166 23.0925L60.6904 22.9626H60.6914C60.2915 22.9468 60.0119 22.6341 60.0264 22.2712C60.0416 21.8946 60.3572 21.603 60.7305 21.6179H60.7314L64.4805 21.7615L65 21.781V17.3816C65.0003 17.0142 65.3027 16.7108 65.6846 16.7107H70.1689V12.4509L70.168 12.4402C70.1607 12.2557 70.2247 12.0914 70.3613 11.9548C70.4875 11.8288 70.6717 11.7499 70.8662 11.7498C71.062 11.7498 71.23 11.8169 71.3652 11.949C71.4948 12.088 71.5645 12.262 71.5645 12.4607V16.7107H79.2178V12.4509Z" fill="black" stroke="black"/>
<path d="M15.9355 10.3687C16.2982 10.3687 16.6009 10.6562 16.6201 11.0269V14.3394H20.7529C21.1349 14.3394 21.4374 14.6437 21.4375 15.0112V32.3276C21.4375 32.6953 21.135 32.9995 20.7529 32.9995H16.6465V36.3579C16.6539 36.5425 16.5908 36.7066 16.4541 36.8433C16.328 36.9694 16.1438 37.0482 15.9492 37.0483C15.7667 37.0483 15.592 36.9774 15.4443 36.8423C15.3189 36.7045 15.2511 36.5337 15.251 36.3384V32.9995H11.1572C10.7753 32.9994 10.4727 32.6952 10.4727 32.3276V15.0112C10.4728 14.6437 10.7753 14.3395 11.1572 14.3394H15.251V11.0347C15.2663 10.6603 15.5704 10.3687 15.9355 10.3687ZM11.8418 31.6558H20.042V15.6958H11.8418V31.6558Z" fill="black" stroke="black"/>
</svg>
