<svg width="85" height="99" viewBox="0 0 85 99" fill="none" xmlns="http://www.w3.org/2000/svg">
<path d="M77.1035 0.5C81.1665 0.500104 84.4999 3.83352 84.5 7.89648V90.1865C84.4999 92.2228 83.6715 94.0641 82.3281 95.4082C80.9818 96.7422 79.1386 97.583 77.1035 97.583H7.89648C3.84603 97.5829 0.500142 94.2489 0.5 90.1865V17.0039L0.929688 15.999L15.999 0.929688L17.0039 0.5H77.1035ZM18.0166 16.8877C18.0166 17.5081 17.5002 18.0166 16.8877 18.0166H2.77051V90.1865C2.77065 92.9886 5.06465 95.3124 7.89648 95.3125H77.0898C78.642 95.3125 79.7074 94.7186 80.6953 93.8281L80.707 93.8184L80.7178 93.8076C81.6381 92.8727 82.2158 91.5886 82.2158 90.1729V7.89648C82.2157 5.09428 79.9218 2.77051 77.0898 2.77051H18.0166V16.8877ZM32.3037 19.8643H70.8613C71.4685 19.8643 71.9773 20.3668 71.9775 20.9922V83.0977C71.9775 83.7101 71.4689 84.2265 70.8486 84.2266H14.1387C13.5262 84.2266 13.0099 83.718 13.0098 83.0977V31.9258C13.0098 31.3132 13.5183 30.7969 14.1387 30.7969H23.5938V33.0674H15.2676V50.916H36.5859V53.1865H15.2676V71.4658H36.5859V73.7363H15.2676V81.9561H47.6328V58.8779H49.9297V81.9688H69.7324V53.1738H48.3232V50.9033H69.7324V22.1084H49.9297V45.1865H47.6582V22.1084H33.4453V32.833H31.1748V20.9795C31.1749 20.3722 31.6782 19.8643 32.3037 19.8643ZM4.38281 15.7588H15.7588V4.38281L4.38281 15.7588Z" fill="black" stroke="black"/>
<path d="M77.1035 0.5C81.1665 0.500104 84.4999 3.83351 84.5 7.89648V90.1865C84.4999 92.2228 83.6715 94.0641 82.3281 95.4082C80.9818 96.7422 79.1386 97.583 77.1035 97.583H7.89648C3.84603 97.5829 0.500142 94.2489 0.5 90.1865V17.0039L0.929688 15.999L15.999 0.929688L17.0039 0.5H77.1035ZM18.0166 16.8877C18.0166 17.5081 17.5002 18.0166 16.8877 18.0166H2.77051V90.1865C2.77065 92.9886 5.06465 95.3124 7.89648 95.3125H77.0898C78.642 95.3125 79.7083 94.7187 80.6963 93.8281L80.707 93.8184L80.7178 93.8076C81.6382 92.8727 82.2158 91.5886 82.2158 90.1729V7.89648C82.2157 5.09428 79.9218 2.77051 77.0898 2.77051H18.0166V16.8877ZM32.3037 19.8643H70.8613C71.4685 19.8643 71.9773 20.3668 71.9775 20.9922V83.0977C71.9775 83.7101 71.4689 84.2265 70.8486 84.2266H14.1387C13.5262 84.2266 13.0099 83.718 13.0098 83.0977V31.9258C13.0098 31.3132 13.5183 30.7969 14.1387 30.7969H23.5938V33.0674H15.2676V50.916H36.5859V53.1865H15.2676V71.4658H36.5859V73.7363H15.2676V81.9561H47.6328V58.8779H49.9297V81.9688H69.7324V53.1738H48.3232V50.9033H69.7324V22.1084H49.9297V45.1865H47.6582V22.1084H33.4453V32.833H31.1748V20.9795C31.1749 20.3722 31.6782 19.8643 32.3037 19.8643ZM4.38281 15.7588H15.7588V4.38281L4.38281 15.7588Z" fill="black" stroke="black"/>
</svg>
