<svg width="104" height="104" viewBox="0 0 104 104" fill="none" xmlns="http://www.w3.org/2000/svg">
<mask id="path-1-inside-1_2384_8939" fill="white">
<path d="M76.3081 79.6679C74.8042 85.9142 64.2356 90.7649 51.4179 90.7649C38.6001 90.7649 28.0316 85.9142 26.5276 79.6679C29.3052 85.3451 39.4131 89.5725 51.4179 89.5725C63.4226 89.5725 73.5305 85.3451 76.3081 79.6679ZM51.4179 64.3164C37.8955 64.3164 26.907 69.7904 26.907 76.5109C26.907 83.2314 37.9091 88.7053 51.4179 88.7053C64.9266 88.7053 75.9288 83.2314 75.9288 76.5109C75.9288 69.7904 64.9266 64.3164 51.4179 64.3164ZM51.4179 63.8828C65.2654 63.8828 76.4978 69.5329 76.4978 76.5109C76.4978 83.4888 65.2654 89.1389 51.4179 89.1389C37.5704 89.1389 26.3379 83.4888 26.3379 76.5109C26.3379 69.5329 37.5704 63.8828 51.4179 63.8828ZM74.3977 77.1883L71.1187 78.6923L72.9343 79.7085L73.3002 79.9118L72.9072 80.0879L69.6418 81.5784L71.471 82.5946L71.8368 82.7978L66.3493 85.3315L65.9564 85.5077L64.5201 86.1716L64.1272 86.3477L62.691 87.0117L62.298 87.2014L61.9322 86.9981L60.0624 85.9548L56.404 87.6349L56.0382 87.4317L54.2361 86.4155L50.9572 87.9195L50.5642 88.0956L50.1984 87.8924L48.3828 86.8762L46.9466 87.5401L46.5536 87.7162L46.1878 87.513L42.1907 85.2909L40.7951 85.9277L40.4022 86.1039L40.0364 85.9006L31.6764 81.2396L31.3105 81.0364L31.7035 80.8602L33.099 80.2234L29.0749 77.9742L28.709 77.771L29.1155 77.5948L30.5518 76.9445L28.7768 75.9553L28.411 75.7521L28.8174 75.576L32.0828 74.0855L30.2672 73.0693L29.9014 72.8661L30.2943 72.6899L33.5733 71.186L31.7577 70.1697L31.3918 69.9665L31.7848 69.7904L40.5512 65.7662L40.9577 65.59L41.3235 65.8068L43.1256 66.823L46.391 65.3191L46.784 65.1429L47.1498 65.3462L48.9654 66.3624L52.2444 64.8584L52.6373 64.6822L53.0031 64.8855L54.8188 65.9017L56.255 65.2378L56.6479 65.0616L57.0138 65.2649L61.0108 67.487L62.4471 66.823L62.84 66.6469L63.2058 66.8501L71.5658 71.5111L71.9317 71.7144L71.5387 71.8905L70.089 72.5544L71.9046 73.5706L72.2704 73.7739L74.086 74.7901L74.4519 75.0069L74.0589 75.183L72.6227 75.8334L74.4248 76.8496L74.7906 77.0528L74.3977 77.229V77.1883ZM71.8639 73.9229L70.4277 74.5869L72.2433 75.6031L73.6796 74.9391L71.8775 73.9229H71.8639ZM70.4006 76.4296L71.8368 75.7657L70.0212 74.7494L68.585 75.4134L70.4006 76.4296ZM67.4333 82.2287L68.8695 81.5648L67.0539 80.5486L65.6176 81.2125L67.4333 82.2287ZM67.7991 84.3018L69.2353 83.6379L67.3926 82.6081L65.9564 83.272L67.7991 84.3018ZM56.0789 85.2096L57.5151 84.5457L55.6995 83.5295L54.2632 84.1934L56.0789 85.2096ZM40.0093 83.7056L41.4455 83.0417L39.6434 82.039L38.2072 82.703L40.0093 83.7056ZM37.8278 82.4862L39.264 81.8222L37.462 80.806L36.0257 81.47L37.8413 82.4726L37.8278 82.4862ZM32.7061 76.3076L31.2699 76.9715L33.1126 78.0013L34.5488 77.3374L32.7061 76.3076ZM34.2237 73.4352L32.7874 74.0991L34.5759 75.0882L36.0122 74.4243L34.2237 73.4352ZM39.0337 66.7959L37.5975 67.4599L39.3995 68.4625L40.8358 67.7986L39.0201 66.7824L39.0337 66.7959ZM47.0685 67.5412L45.6323 68.2051L47.4343 69.2077L48.8706 68.5438L47.0685 67.5412ZM52.9083 67.0805L51.4721 67.7308L53.2877 68.7471L54.7239 68.0831L52.9083 67.0669V67.0805ZM56.9325 67.4599L55.4962 68.1238L57.3119 69.14L58.7481 68.4761L56.946 67.4734L56.9325 67.4599ZM67.1487 69.4245L65.7125 70.0884L67.5281 71.0911L68.9644 70.4272L67.1487 69.411V69.4245ZM67.501 71.484L66.0648 72.148L67.8804 73.1506L69.3166 72.5002L67.501 71.484ZM53.8974 83.9901L55.3336 83.3262L53.518 82.31L52.0818 82.9739L53.8974 83.9901ZM48.0441 84.4644L49.4803 83.8005L47.6647 82.7842L46.2284 83.4482L48.0441 84.4644ZM41.8384 82.8655L43.2747 82.2016L41.459 81.1854L40.0228 81.8493L41.8249 82.852L41.8384 82.8655ZM39.657 81.6461L41.0932 80.9822L39.2776 79.966L37.8413 80.6299L39.6434 81.6461H39.657ZM37.0961 78.7601L35.6599 79.424L37.4755 80.4402L38.9117 79.7763L37.0961 78.7601ZM36.378 74.6411L34.9418 75.305L36.7845 76.3347L38.2207 75.6708L36.378 74.6411ZM41.5539 70.0749L40.1176 70.7388L41.9062 71.7415L43.3424 71.0776L41.5403 70.0749H41.5539ZM49.2364 68.7606L47.8002 69.4245L49.6293 70.4407L51.0656 69.7768L49.2364 68.7606ZM51.8243 69.8039L53.64 70.8201L55.0762 70.1562L53.2741 69.1535L51.8379 69.8175L51.8243 69.8039ZM63.8698 70.9285L65.6854 71.9312L67.1216 71.2672L65.306 70.251L63.8698 70.915V70.9285ZM64.5472 76.8903L65.9835 76.2263L64.1679 75.2101L62.7316 75.874L64.5472 76.8903ZM60.8347 80.806L59.0191 79.7898L57.5828 80.4537L59.3985 81.4564L60.8347 80.7925V80.806ZM49.5345 81.5648L50.9707 80.9009L49.1687 79.8847L47.7324 80.5486L49.548 81.5648H49.5345ZM45.5103 81.1854L46.9466 80.5215L45.1309 79.5053L43.6947 80.1692L45.5103 81.1854ZM43.7218 71.2808L42.2856 71.9312L44.1147 72.9474L45.551 72.2835L43.7218 71.2672V71.2808ZM48.1525 71.484L49.9681 72.5002L51.4043 71.8363L49.5887 70.8201L48.1525 71.484ZM55.442 70.3594L54.0058 71.0234L55.8214 72.0396L57.2577 71.3756L55.4556 70.3594H55.442ZM50.6184 78.8414L48.8164 77.8252L47.3801 78.4891L49.1822 79.5053L50.632 78.8414H50.6184ZM40.8222 74.8443L42.6243 75.8605L44.0605 75.1966L42.2585 74.1939L40.8222 74.8578V74.8443ZM42.6514 74.0042L44.4535 75.0204L45.8897 74.3565L44.0876 73.3403L42.6514 74.0042ZM49.941 72.8796L48.5047 73.5435L50.3204 74.5462L51.7701 73.8823L49.9545 72.8661L49.941 72.8796ZM55.7943 72.4189L54.3581 73.0829L56.1602 74.0991L57.5964 73.4352L55.7808 72.4325L55.7943 72.4189ZM58.3281 75.6844L56.8918 76.3483L58.7074 77.3645L60.1437 76.7006L58.3416 75.6844H58.3281ZM54.2903 77.1612L52.4747 76.145L51.0385 76.809L52.8405 77.8252L54.2903 77.1612ZM48.437 77.6219L46.6214 76.6193L45.1851 77.2832L47.0007 78.2858L48.437 77.6219ZM44.8328 75.2237L46.6349 76.2263L48.0712 75.5624L46.2691 74.5598L44.8328 75.2237ZM44.4399 75.3998L43.0037 76.0637L44.8057 77.0664L46.242 76.4025L44.4399 75.3998ZM48.8299 77.4458L50.2797 76.7819L48.4641 75.7792L47.0278 76.4431L48.8299 77.4458ZM50.6591 76.6057L52.0953 75.9418L50.2797 74.9391L48.8435 75.6031L50.6455 76.6057H50.6591ZM52.5018 75.7657L53.938 75.1017L52.1224 74.0855L50.6862 74.7494L52.5018 75.7657ZM54.6833 76.9851L56.1195 76.3212L54.3039 75.305L52.8676 75.9689L54.6833 76.9851ZM54.7104 75.1288L56.526 76.145L57.9622 75.4811L56.1466 74.4649L54.7104 75.1288ZM55.0491 77.1883L56.8647 78.2045L58.301 77.5406L56.4853 76.538L55.0491 77.2019V77.1883ZM59.7914 74.6411L57.9758 73.6248L56.5395 74.2888L58.3552 75.305L59.7914 74.6411ZM53.9651 73.259L52.5289 73.9229L54.3445 74.9391L55.7808 74.2752L53.9787 73.259H53.9651ZM48.1118 73.7197L46.6756 74.3836L48.4912 75.3998L49.9274 74.7359L48.1118 73.7197ZM47.746 73.5164L45.9303 72.5002L44.4941 73.1642L46.2962 74.1804L47.7324 73.5164H47.746ZM42.6107 76.2399L41.1745 76.8903L42.9901 77.9065L44.4264 77.2425L42.6243 76.2399H42.6107ZM40.768 77.0799L39.3318 77.7439L41.1339 78.7601L42.5701 78.0962L40.7545 77.0935L40.768 77.0799ZM43.3424 78.1233L45.158 79.1395L46.5943 78.4755L44.7922 77.4729L43.356 78.1233H43.3424ZM45.5374 79.3427L47.353 80.3589L48.7893 79.695L46.9872 78.6788L45.551 79.3427H45.5374ZM51.0114 78.6652L52.4612 78.0013L50.6455 76.9851L49.1958 77.649L50.9978 78.6652H51.0114ZM51.3772 78.8685L53.1928 79.8847L54.6291 79.2208L52.827 78.2045L51.3772 78.8685ZM55.0356 79.0446L56.4718 78.3807L54.6562 77.3645L53.2064 78.0284L55.022 79.0446H55.0356ZM57.2306 78.4078L59.0462 79.424L60.4824 78.7601L58.6668 77.7439L57.2306 78.4078ZM59.4256 79.6272L61.2276 80.6299L62.6774 79.966L60.8618 78.9633L59.4256 79.6272ZM60.8889 78.5704L62.3251 77.9065L60.5095 76.8903L59.0733 77.5542L60.8889 78.5704ZM60.5366 76.5244L61.9729 75.8605L60.1572 74.8443L58.721 75.5082L60.5366 76.5244ZM62.3658 75.6708L63.802 75.0069L61.9864 74.0042L60.5502 74.6682L62.3658 75.6708ZM61.6341 73.801L59.8185 72.7848L58.3823 73.4487L60.1979 74.4649L61.6341 73.801ZM62.0271 73.6113L63.4633 72.9474L61.6477 71.9312L60.2114 72.5951L62.0271 73.6113ZM61.2818 71.7415L59.4662 70.7253L58.03 71.3892L59.8321 72.4054L61.2683 71.7415H61.2818ZM57.637 71.5653L56.2008 72.2293L58.0164 73.2455L59.4527 72.5815L57.6506 71.5653H57.637ZM53.6129 71.1995L52.1766 71.8634L53.9922 72.8796L55.4285 72.2157L53.6129 71.213V71.1995ZM51.7837 72.0396L50.3475 72.7035L52.1631 73.7197L53.5993 73.0558L51.7972 72.0396H51.7837ZM47.7595 71.6602L46.3233 72.3241L48.1389 73.3403L49.5751 72.6764L47.7595 71.6602ZM47.3937 71.4569L45.5645 70.4407L44.1283 71.1047L45.9574 72.1209L47.3937 71.4569ZM41.8926 72.1209L40.4564 72.7848L42.2856 73.801L43.7218 73.1371L41.8926 72.1209ZM40.0499 72.9609L38.6137 73.6113L40.4428 74.6411L41.8791 73.9771L40.0499 72.9609ZM38.9795 75.6844L40.7951 76.687L42.2314 76.0231L40.4293 75.0204L38.993 75.6844H38.9795ZM38.5866 75.8605L37.1503 76.5244L38.9659 77.5271L40.4022 76.8632L38.5866 75.8469V75.8605ZM38.9388 77.92L37.5026 78.5839L39.3182 79.5866L40.7545 78.9227L38.9524 77.9065L38.9388 77.92ZM39.6841 79.8034L41.4997 80.8196L42.9359 80.1557L41.1339 79.1395L39.6976 79.8034H39.6841ZM43.3289 79.966L44.7651 79.302L42.9495 78.2858L41.5132 78.9498L43.3153 79.966H43.3289ZM45.8762 81.3887L47.6918 82.4049L49.128 81.7409L47.3124 80.7247L45.8762 81.3887ZM51.3637 80.7247L52.7999 80.0608L50.9978 79.0446L49.5616 79.7085L51.3637 80.7247ZM51.7295 80.928L53.5451 81.9442L54.9814 81.2803L53.1657 80.2641L51.7295 80.928ZM55.3743 81.1041L56.8105 80.4402L54.9949 79.424L53.5587 80.0879L55.3743 81.1041ZM57.217 80.2641L58.6533 79.6001L56.8376 78.5839L55.4014 79.2479L57.217 80.2641ZM61.607 80.8331L63.4091 81.8358L64.8589 81.1719L63.0433 80.1692L61.607 80.8331ZM63.0704 79.7898L64.5066 79.1395L62.7045 78.1233L61.2683 78.7872L63.0704 79.7898ZM62.7181 77.7303L64.1543 77.0664L62.3387 76.0502L60.9025 76.7141L62.7181 77.7303ZM64.2085 74.8307L65.6447 74.1668L63.8291 73.1506L62.3929 73.8145L64.195 74.8307H64.2085ZM66.0377 73.9907L67.4739 73.3268L65.6583 72.3241L64.2221 72.988L66.0377 73.9907ZM63.4904 71.1047L62.0406 71.7686L63.8562 72.7848L65.2925 72.1209L63.4768 71.1047H63.4904ZM63.111 70.9014L61.3089 69.8852L59.8727 70.5491L61.6883 71.5518L63.1246 70.8879L63.111 70.9014ZM59.1004 70.522L57.2983 69.5194L55.8621 70.1833L57.6641 71.186L59.1004 70.522ZM56.9054 69.3026L55.1033 68.2999L53.6671 68.9638L55.4691 69.9665L56.9054 69.3026ZM51.4314 69.98L49.9952 70.644L51.8108 71.6466L53.247 70.9827L51.4314 69.98ZM47.4072 69.6007L45.971 70.251L47.8002 71.2672L49.2364 70.6033L47.4072 69.5871V69.6007ZM45.1987 70.2375L43.3966 69.2348L41.9604 69.8988L43.7624 70.9014L45.2122 70.2375H45.1987ZM43.0308 69.018L41.2151 68.0154L39.7654 68.6793L41.581 69.6955L43.0172 69.0316L43.0308 69.018ZM39.7247 70.915L38.2885 71.5789L40.077 72.5815L41.5132 71.9176L39.7112 70.915H39.7247ZM37.8955 71.755L36.4593 72.4189L38.2478 73.4216L39.6976 72.7577L37.9091 71.755H37.8955ZM38.2207 73.801L36.7845 74.4649L38.6272 75.4947L40.0635 74.8307L38.2343 73.801H38.2207ZM35.3076 77.3645L37.1232 78.3807L38.5595 77.7168L36.7438 76.7006L35.3076 77.3645ZM43.6676 82.0255L45.1038 81.3616L43.2882 80.3454L41.852 81.0093L43.6676 82.0255ZM44.047 82.2287L45.8626 83.2449L47.2988 82.581L45.4832 81.5648L44.047 82.2287ZM49.8732 83.6243L51.3095 82.9604L49.4938 81.9442L48.0576 82.6081L49.8732 83.6243ZM51.7159 82.7842L53.1522 82.1203L51.3366 81.1041L49.9003 81.768L51.7159 82.7842ZM55.7266 83.1501L57.1628 82.4862L55.3607 81.47L53.9245 82.1339L55.7266 83.1501ZM57.5557 82.31L58.992 81.6461L57.1899 80.6299L55.7401 81.2938L57.5557 82.31ZM57.9351 82.5133L59.7372 83.5295L61.187 82.8655L59.3849 81.8493L57.9351 82.5133ZM61.5799 82.6894L63.0162 82.0255L61.2005 81.0093L59.7643 81.6732L61.5664 82.6759L61.5799 82.6894ZM63.7885 82.0526L65.6041 83.0688L67.0403 82.4049L65.2247 81.3887L63.7885 82.0526ZM65.2383 81.0093L66.6745 80.3589L64.8724 79.3427L63.4362 80.0066L65.2383 81.0093ZM64.8995 78.9498L66.3358 78.2858L64.5337 77.2832L63.0975 77.9471L64.9131 78.9498H64.8995ZM66.7287 78.1097L68.1649 77.4458L66.3629 76.4296L64.9266 77.0935L66.7422 78.0962L66.7287 78.1097ZM66.39 76.0502L67.8262 75.3863L66.0106 74.3701L64.5743 75.034L66.39 76.0502ZM68.2191 75.2101L69.6554 74.5462L67.8398 73.53L66.4035 74.1939L68.2191 75.2101ZM66.7829 69.2213L64.9808 68.2051L63.5446 68.869L65.3467 69.8852L66.7829 69.2213ZM63.1381 69.0587L61.7019 69.7226L63.5039 70.7253L64.9402 70.0613L63.1381 69.0451V69.0587ZM62.7587 68.8419L60.9566 67.8257L59.5204 68.4896L61.336 69.5058L62.7723 68.8419H62.7587ZM59.1275 68.6793L57.6777 69.3432L59.4933 70.3594L60.9295 69.6955L59.1275 68.6929V68.6793ZM56.5666 67.2566L54.751 66.2404L53.3148 66.9043L55.1304 67.9205L56.5666 67.2566ZM51.0791 67.9205L49.6429 68.5845L51.4721 69.6007L52.9083 68.9367L51.0927 67.9205H51.0791ZM50.6997 67.7173L48.8977 66.7146L47.4614 67.3786L49.2635 68.3812L50.6997 67.7308V67.7173ZM45.2258 68.3948L43.7895 69.0587L45.5916 70.0613L47.0278 69.3974L45.2258 68.3948ZM44.8599 68.178L43.0443 67.1753L41.6081 67.8257L43.4237 68.8419L44.8599 68.178ZM39.3724 68.8555L37.9362 69.5194L39.7518 70.5356L41.1881 69.8717L39.3724 68.8555ZM37.5433 69.6955L36.107 70.3594L37.9226 71.3756L39.3589 70.7117L37.5433 69.6955ZM35.7141 70.5356L34.2778 71.1995L36.0935 72.2157L37.5297 71.5518L35.7141 70.5356ZM36.0664 72.5951L34.6301 73.259L36.4051 74.2481L37.8413 73.5977L36.0528 72.5951H36.0664ZM34.5353 75.4676L33.099 76.1315L34.9418 77.1612L36.378 76.4973L34.5353 75.4676ZM33.4784 78.2045L35.2805 79.2208L36.7167 78.5568L34.9011 77.5406L33.4649 78.2045H33.4784ZM35.267 79.6001L33.8307 80.2641L35.6328 81.2667L37.069 80.6163L35.267 79.6001ZM40.3751 83.9224L42.1772 84.9386L43.6134 84.2747L41.7978 83.2585L40.3615 83.9224H40.3751ZM44.0199 84.085L45.4561 83.4211L43.6405 82.4049L42.2043 83.0688L44.0199 84.085ZM44.3993 84.2882L46.2149 85.3044L47.6511 84.6405L45.8355 83.6243L44.3993 84.2882ZM46.5807 85.5077L48.3828 86.5239L49.819 85.86L48.0034 84.8573L46.5672 85.5212L46.5807 85.5077ZM50.2255 85.6838L51.6617 85.0199L49.8597 84.0037L48.4234 84.6676L50.2391 85.6838H50.2255ZM52.0547 84.8302L53.4909 84.1663L51.6753 83.1501L50.2391 83.814L52.0547 84.8302ZM52.4341 85.047L54.2361 86.0632L55.6724 85.3993L53.8703 84.3966L52.4341 85.0606V85.047ZM57.908 84.3695L59.3443 83.7056L57.5422 82.6894L56.106 83.3533L57.908 84.3695ZM58.2739 84.5728L60.0759 85.589L61.5257 84.9251L59.7101 83.9089L58.2739 84.5728ZM61.9187 84.7489L63.3684 84.085L61.5528 83.0688L60.1166 83.7327L61.9187 84.7489ZM63.7614 83.9089L65.1976 83.2449L63.382 82.2423L61.9458 82.9062L63.7478 83.9224L63.7614 83.9089ZM67.081 80.1692L68.5172 79.5053L66.7151 78.5026L65.2789 79.1666L67.0945 80.1692H67.081ZM68.9237 79.3291L70.3599 78.6652L68.5443 77.649L67.1081 78.3129L68.9237 79.3291ZM68.5714 77.2696L70.0077 76.6057L68.192 75.6031L66.7558 76.267L68.5579 77.2832L68.5714 77.2696ZM69.6825 72.7035L68.2462 73.3674L70.0619 74.3836L71.4981 73.7197L69.6825 72.7035ZM71.1458 71.6602L69.3302 70.644L67.894 71.3079L69.7096 72.3241L71.1458 71.6602ZM61.3496 67.6496L63.1652 68.6658L64.6014 68.0018L62.7994 66.9856L61.3631 67.6496H61.3496ZM60.5773 67.6225L58.7616 66.6062L57.3254 67.2702L59.1275 68.2864L60.5637 67.6225H60.5773ZM55.144 66.0643L56.9596 67.0805L58.3958 66.4166L56.5802 65.4004L55.144 66.0507V66.0643ZM51.1333 65.6849L52.9354 66.6875L54.3852 66.0236L52.5831 65.021L51.1333 65.6849ZM49.3042 66.5249L51.1062 67.5276L52.5425 66.8637L50.7404 65.861L49.3042 66.5249ZM45.28 66.1456L47.0956 67.1618L48.5318 66.4979L46.7162 65.4816L45.28 66.1456ZM43.4508 66.9992L45.2529 68.0018L46.6891 67.3515L44.8735 66.3353L43.4373 66.9992H43.4508ZM39.4402 66.6198L41.2422 67.6225L42.6785 66.9585L40.8764 65.9423L39.4402 66.6062V66.6198ZM35.7547 68.2999L37.5704 69.3161L39.0066 68.6522L37.191 67.636L35.7547 68.2999ZM33.9256 69.14L35.7412 70.1562L37.1774 69.4923L35.3618 68.4761L33.9256 69.14ZM33.8985 70.9963L35.3347 70.3323L33.5191 69.3161L32.0828 69.98L33.8985 70.9963ZM32.4351 72.0396L34.2507 73.0558L35.687 72.3918L33.8714 71.3756L32.4351 72.026V72.0396ZM32.408 73.8958L33.8443 73.2319L32.0286 72.2157L30.5924 72.8796L32.408 73.8958ZM30.9582 74.9391L32.7468 75.9282L34.183 75.2643L32.3945 74.2752L30.9582 74.9391ZM30.8905 76.7683L32.3267 76.1044L30.5518 75.1153L29.1155 75.7792L30.8905 76.7683ZM29.4272 77.8116L31.2699 78.8414L32.7061 78.1775L30.8634 77.1477L29.4272 77.7981V77.8116ZM33.4649 80.0608L34.9011 79.3969L33.0855 78.3807L31.6493 79.0446L33.4649 80.0608ZM32.0422 81.0906L33.8443 82.1068L35.2399 81.47L33.4378 80.4673L32.0422 81.1041V81.0906ZM34.2237 82.31L36.0257 83.3262L37.4213 82.6894L35.6192 81.6868L34.2237 82.3236V82.31ZM36.4051 83.5159L38.2072 84.5186L39.6028 83.8818L37.8007 82.8791L36.4051 83.5159ZM41.7978 85.1147L39.9822 84.0985L38.5866 84.7354L40.3886 85.7516L41.7842 85.1147H41.7978ZM42.5565 85.1283L44.3722 86.1445L45.8084 85.4806L43.9928 84.4644L42.5565 85.1283ZM47.9899 86.7L46.1878 85.6838L44.7515 86.3477L46.5536 87.3639L47.9899 86.7ZM52.014 87.0794L50.1984 86.0632L48.7622 86.7271L50.5642 87.7433L52.0005 87.0794H52.014ZM53.8432 86.2258L52.0276 85.2231L50.5913 85.8871L52.3934 86.8897L53.8432 86.2258ZM56.4176 87.2691L57.8538 86.6052L56.0518 85.6025L54.6155 86.2664L56.4311 87.2691H56.4176ZM59.6966 85.7651L57.8945 84.7489L56.4582 85.4128L58.2603 86.4155L59.6966 85.7516V85.7651ZM63.7614 86.1716L61.9051 85.1418L60.4553 85.8058L62.3251 86.8491L63.7614 86.1852V86.1716ZM65.5905 85.3315L63.7478 84.3018L62.298 84.9657L64.1543 85.9955L65.5905 85.3315ZM67.4197 84.4779L65.577 83.4482L64.1408 84.1121L65.997 85.1418L67.4333 84.4779H67.4197ZM69.2353 81.768L67.7991 82.432L69.6283 83.4482L71.0645 82.7842L69.2353 81.768ZM70.7122 80.7247L68.8966 79.7085L67.4604 80.3589L69.276 81.3751L70.7122 80.7247ZM70.7258 78.8685L69.2895 79.5324L71.1052 80.5486L72.5414 79.8847L70.7258 78.8685ZM72.1891 77.8252L70.3735 76.8225L68.9373 77.4864L70.7393 78.5026L72.1756 77.8387L72.1891 77.8252ZM74.0318 76.9851L72.2162 75.9689L70.78 76.6328L72.5956 77.649L74.0318 76.9851Z"/>
</mask>
<path d="M76.3081 79.6679C74.8042 85.9142 64.2356 90.7649 51.4179 90.7649C38.6001 90.7649 28.0316 85.9142 26.5276 79.6679C29.3052 85.3451 39.4131 89.5725 51.4179 89.5725C63.4226 89.5725 73.5305 85.3451 76.3081 79.6679ZM51.4179 64.3164C37.8955 64.3164 26.907 69.7904 26.907 76.5109C26.907 83.2314 37.9091 88.7053 51.4179 88.7053C64.9266 88.7053 75.9288 83.2314 75.9288 76.5109C75.9288 69.7904 64.9266 64.3164 51.4179 64.3164ZM51.4179 63.8828C65.2654 63.8828 76.4978 69.5329 76.4978 76.5109C76.4978 83.4888 65.2654 89.1389 51.4179 89.1389C37.5704 89.1389 26.3379 83.4888 26.3379 76.5109C26.3379 69.5329 37.5704 63.8828 51.4179 63.8828ZM74.3977 77.1883L71.1187 78.6923L72.9343 79.7085L73.3002 79.9118L72.9072 80.0879L69.6418 81.5784L71.471 82.5946L71.8368 82.7978L66.3493 85.3315L65.9564 85.5077L64.5201 86.1716L64.1272 86.3477L62.691 87.0117L62.298 87.2014L61.9322 86.9981L60.0624 85.9548L56.404 87.6349L56.0382 87.4317L54.2361 86.4155L50.9572 87.9195L50.5642 88.0956L50.1984 87.8924L48.3828 86.8762L46.9466 87.5401L46.5536 87.7162L46.1878 87.513L42.1907 85.2909L40.7951 85.9277L40.4022 86.1039L40.0364 85.9006L31.6764 81.2396L31.3105 81.0364L31.7035 80.8602L33.099 80.2234L29.0749 77.9742L28.709 77.771L29.1155 77.5948L30.5518 76.9445L28.7768 75.9553L28.411 75.7521L28.8174 75.576L32.0828 74.0855L30.2672 73.0693L29.9014 72.8661L30.2943 72.6899L33.5733 71.186L31.7577 70.1697L31.3918 69.9665L31.7848 69.7904L40.5512 65.7662L40.9577 65.59L41.3235 65.8068L43.1256 66.823L46.391 65.3191L46.784 65.1429L47.1498 65.3462L48.9654 66.3624L52.2444 64.8584L52.6373 64.6822L53.0031 64.8855L54.8188 65.9017L56.255 65.2378L56.6479 65.0616L57.0138 65.2649L61.0108 67.487L62.4471 66.823L62.84 66.6469L63.2058 66.8501L71.5658 71.5111L71.9317 71.7144L71.5387 71.8905L70.089 72.5544L71.9046 73.5706L72.2704 73.7739L74.086 74.7901L74.4519 75.0069L74.0589 75.183L72.6227 75.8334L74.4248 76.8496L74.7906 77.0528L74.3977 77.229V77.1883ZM71.8639 73.9229L70.4277 74.5869L72.2433 75.6031L73.6796 74.9391L71.8775 73.9229H71.8639ZM70.4006 76.4296L71.8368 75.7657L70.0212 74.7494L68.585 75.4134L70.4006 76.4296ZM67.4333 82.2287L68.8695 81.5648L67.0539 80.5486L65.6176 81.2125L67.4333 82.2287ZM67.7991 84.3018L69.2353 83.6379L67.3926 82.6081L65.9564 83.272L67.7991 84.3018ZM56.0789 85.2096L57.5151 84.5457L55.6995 83.5295L54.2632 84.1934L56.0789 85.2096ZM40.0093 83.7056L41.4455 83.0417L39.6434 82.039L38.2072 82.703L40.0093 83.7056ZM37.8278 82.4862L39.264 81.8222L37.462 80.806L36.0257 81.47L37.8413 82.4726L37.8278 82.4862ZM32.7061 76.3076L31.2699 76.9715L33.1126 78.0013L34.5488 77.3374L32.7061 76.3076ZM34.2237 73.4352L32.7874 74.0991L34.5759 75.0882L36.0122 74.4243L34.2237 73.4352ZM39.0337 66.7959L37.5975 67.4599L39.3995 68.4625L40.8358 67.7986L39.0201 66.7824L39.0337 66.7959ZM47.0685 67.5412L45.6323 68.2051L47.4343 69.2077L48.8706 68.5438L47.0685 67.5412ZM52.9083 67.0805L51.4721 67.7308L53.2877 68.7471L54.7239 68.0831L52.9083 67.0669V67.0805ZM56.9325 67.4599L55.4962 68.1238L57.3119 69.14L58.7481 68.4761L56.946 67.4734L56.9325 67.4599ZM67.1487 69.4245L65.7125 70.0884L67.5281 71.0911L68.9644 70.4272L67.1487 69.411V69.4245ZM67.501 71.484L66.0648 72.148L67.8804 73.1506L69.3166 72.5002L67.501 71.484ZM53.8974 83.9901L55.3336 83.3262L53.518 82.31L52.0818 82.9739L53.8974 83.9901ZM48.0441 84.4644L49.4803 83.8005L47.6647 82.7842L46.2284 83.4482L48.0441 84.4644ZM41.8384 82.8655L43.2747 82.2016L41.459 81.1854L40.0228 81.8493L41.8249 82.852L41.8384 82.8655ZM39.657 81.6461L41.0932 80.9822L39.2776 79.966L37.8413 80.6299L39.6434 81.6461H39.657ZM37.0961 78.7601L35.6599 79.424L37.4755 80.4402L38.9117 79.7763L37.0961 78.7601ZM36.378 74.6411L34.9418 75.305L36.7845 76.3347L38.2207 75.6708L36.378 74.6411ZM41.5539 70.0749L40.1176 70.7388L41.9062 71.7415L43.3424 71.0776L41.5403 70.0749H41.5539ZM49.2364 68.7606L47.8002 69.4245L49.6293 70.4407L51.0656 69.7768L49.2364 68.7606ZM51.8243 69.8039L53.64 70.8201L55.0762 70.1562L53.2741 69.1535L51.8379 69.8175L51.8243 69.8039ZM63.8698 70.9285L65.6854 71.9312L67.1216 71.2672L65.306 70.251L63.8698 70.915V70.9285ZM64.5472 76.8903L65.9835 76.2263L64.1679 75.2101L62.7316 75.874L64.5472 76.8903ZM60.8347 80.806L59.0191 79.7898L57.5828 80.4537L59.3985 81.4564L60.8347 80.7925V80.806ZM49.5345 81.5648L50.9707 80.9009L49.1687 79.8847L47.7324 80.5486L49.548 81.5648H49.5345ZM45.5103 81.1854L46.9466 80.5215L45.1309 79.5053L43.6947 80.1692L45.5103 81.1854ZM43.7218 71.2808L42.2856 71.9312L44.1147 72.9474L45.551 72.2835L43.7218 71.2672V71.2808ZM48.1525 71.484L49.9681 72.5002L51.4043 71.8363L49.5887 70.8201L48.1525 71.484ZM55.442 70.3594L54.0058 71.0234L55.8214 72.0396L57.2577 71.3756L55.4556 70.3594H55.442ZM50.6184 78.8414L48.8164 77.8252L47.3801 78.4891L49.1822 79.5053L50.632 78.8414H50.6184ZM40.8222 74.8443L42.6243 75.8605L44.0605 75.1966L42.2585 74.1939L40.8222 74.8578V74.8443ZM42.6514 74.0042L44.4535 75.0204L45.8897 74.3565L44.0876 73.3403L42.6514 74.0042ZM49.941 72.8796L48.5047 73.5435L50.3204 74.5462L51.7701 73.8823L49.9545 72.8661L49.941 72.8796ZM55.7943 72.4189L54.3581 73.0829L56.1602 74.0991L57.5964 73.4352L55.7808 72.4325L55.7943 72.4189ZM58.3281 75.6844L56.8918 76.3483L58.7074 77.3645L60.1437 76.7006L58.3416 75.6844H58.3281ZM54.2903 77.1612L52.4747 76.145L51.0385 76.809L52.8405 77.8252L54.2903 77.1612ZM48.437 77.6219L46.6214 76.6193L45.1851 77.2832L47.0007 78.2858L48.437 77.6219ZM44.8328 75.2237L46.6349 76.2263L48.0712 75.5624L46.2691 74.5598L44.8328 75.2237ZM44.4399 75.3998L43.0037 76.0637L44.8057 77.0664L46.242 76.4025L44.4399 75.3998ZM48.8299 77.4458L50.2797 76.7819L48.4641 75.7792L47.0278 76.4431L48.8299 77.4458ZM50.6591 76.6057L52.0953 75.9418L50.2797 74.9391L48.8435 75.6031L50.6455 76.6057H50.6591ZM52.5018 75.7657L53.938 75.1017L52.1224 74.0855L50.6862 74.7494L52.5018 75.7657ZM54.6833 76.9851L56.1195 76.3212L54.3039 75.305L52.8676 75.9689L54.6833 76.9851ZM54.7104 75.1288L56.526 76.145L57.9622 75.4811L56.1466 74.4649L54.7104 75.1288ZM55.0491 77.1883L56.8647 78.2045L58.301 77.5406L56.4853 76.538L55.0491 77.2019V77.1883ZM59.7914 74.6411L57.9758 73.6248L56.5395 74.2888L58.3552 75.305L59.7914 74.6411ZM53.9651 73.259L52.5289 73.9229L54.3445 74.9391L55.7808 74.2752L53.9787 73.259H53.9651ZM48.1118 73.7197L46.6756 74.3836L48.4912 75.3998L49.9274 74.7359L48.1118 73.7197ZM47.746 73.5164L45.9303 72.5002L44.4941 73.1642L46.2962 74.1804L47.7324 73.5164H47.746ZM42.6107 76.2399L41.1745 76.8903L42.9901 77.9065L44.4264 77.2425L42.6243 76.2399H42.6107ZM40.768 77.0799L39.3318 77.7439L41.1339 78.7601L42.5701 78.0962L40.7545 77.0935L40.768 77.0799ZM43.3424 78.1233L45.158 79.1395L46.5943 78.4755L44.7922 77.4729L43.356 78.1233H43.3424ZM45.5374 79.3427L47.353 80.3589L48.7893 79.695L46.9872 78.6788L45.551 79.3427H45.5374ZM51.0114 78.6652L52.4612 78.0013L50.6455 76.9851L49.1958 77.649L50.9978 78.6652H51.0114ZM51.3772 78.8685L53.1928 79.8847L54.6291 79.2208L52.827 78.2045L51.3772 78.8685ZM55.0356 79.0446L56.4718 78.3807L54.6562 77.3645L53.2064 78.0284L55.022 79.0446H55.0356ZM57.2306 78.4078L59.0462 79.424L60.4824 78.7601L58.6668 77.7439L57.2306 78.4078ZM59.4256 79.6272L61.2276 80.6299L62.6774 79.966L60.8618 78.9633L59.4256 79.6272ZM60.8889 78.5704L62.3251 77.9065L60.5095 76.8903L59.0733 77.5542L60.8889 78.5704ZM60.5366 76.5244L61.9729 75.8605L60.1572 74.8443L58.721 75.5082L60.5366 76.5244ZM62.3658 75.6708L63.802 75.0069L61.9864 74.0042L60.5502 74.6682L62.3658 75.6708ZM61.6341 73.801L59.8185 72.7848L58.3823 73.4487L60.1979 74.4649L61.6341 73.801ZM62.0271 73.6113L63.4633 72.9474L61.6477 71.9312L60.2114 72.5951L62.0271 73.6113ZM61.2818 71.7415L59.4662 70.7253L58.03 71.3892L59.8321 72.4054L61.2683 71.7415H61.2818ZM57.637 71.5653L56.2008 72.2293L58.0164 73.2455L59.4527 72.5815L57.6506 71.5653H57.637ZM53.6129 71.1995L52.1766 71.8634L53.9922 72.8796L55.4285 72.2157L53.6129 71.213V71.1995ZM51.7837 72.0396L50.3475 72.7035L52.1631 73.7197L53.5993 73.0558L51.7972 72.0396H51.7837ZM47.7595 71.6602L46.3233 72.3241L48.1389 73.3403L49.5751 72.6764L47.7595 71.6602ZM47.3937 71.4569L45.5645 70.4407L44.1283 71.1047L45.9574 72.1209L47.3937 71.4569ZM41.8926 72.1209L40.4564 72.7848L42.2856 73.801L43.7218 73.1371L41.8926 72.1209ZM40.0499 72.9609L38.6137 73.6113L40.4428 74.6411L41.8791 73.9771L40.0499 72.9609ZM38.9795 75.6844L40.7951 76.687L42.2314 76.0231L40.4293 75.0204L38.993 75.6844H38.9795ZM38.5866 75.8605L37.1503 76.5244L38.9659 77.5271L40.4022 76.8632L38.5866 75.8469V75.8605ZM38.9388 77.92L37.5026 78.5839L39.3182 79.5866L40.7545 78.9227L38.9524 77.9065L38.9388 77.92ZM39.6841 79.8034L41.4997 80.8196L42.9359 80.1557L41.1339 79.1395L39.6976 79.8034H39.6841ZM43.3289 79.966L44.7651 79.302L42.9495 78.2858L41.5132 78.9498L43.3153 79.966H43.3289ZM45.8762 81.3887L47.6918 82.4049L49.128 81.7409L47.3124 80.7247L45.8762 81.3887ZM51.3637 80.7247L52.7999 80.0608L50.9978 79.0446L49.5616 79.7085L51.3637 80.7247ZM51.7295 80.928L53.5451 81.9442L54.9814 81.2803L53.1657 80.2641L51.7295 80.928ZM55.3743 81.1041L56.8105 80.4402L54.9949 79.424L53.5587 80.0879L55.3743 81.1041ZM57.217 80.2641L58.6533 79.6001L56.8376 78.5839L55.4014 79.2479L57.217 80.2641ZM61.607 80.8331L63.4091 81.8358L64.8589 81.1719L63.0433 80.1692L61.607 80.8331ZM63.0704 79.7898L64.5066 79.1395L62.7045 78.1233L61.2683 78.7872L63.0704 79.7898ZM62.7181 77.7303L64.1543 77.0664L62.3387 76.0502L60.9025 76.7141L62.7181 77.7303ZM64.2085 74.8307L65.6447 74.1668L63.8291 73.1506L62.3929 73.8145L64.195 74.8307H64.2085ZM66.0377 73.9907L67.4739 73.3268L65.6583 72.3241L64.2221 72.988L66.0377 73.9907ZM63.4904 71.1047L62.0406 71.7686L63.8562 72.7848L65.2925 72.1209L63.4768 71.1047H63.4904ZM63.111 70.9014L61.3089 69.8852L59.8727 70.5491L61.6883 71.5518L63.1246 70.8879L63.111 70.9014ZM59.1004 70.522L57.2983 69.5194L55.8621 70.1833L57.6641 71.186L59.1004 70.522ZM56.9054 69.3026L55.1033 68.2999L53.6671 68.9638L55.4691 69.9665L56.9054 69.3026ZM51.4314 69.98L49.9952 70.644L51.8108 71.6466L53.247 70.9827L51.4314 69.98ZM47.4072 69.6007L45.971 70.251L47.8002 71.2672L49.2364 70.6033L47.4072 69.5871V69.6007ZM45.1987 70.2375L43.3966 69.2348L41.9604 69.8988L43.7624 70.9014L45.2122 70.2375H45.1987ZM43.0308 69.018L41.2151 68.0154L39.7654 68.6793L41.581 69.6955L43.0172 69.0316L43.0308 69.018ZM39.7247 70.915L38.2885 71.5789L40.077 72.5815L41.5132 71.9176L39.7112 70.915H39.7247ZM37.8955 71.755L36.4593 72.4189L38.2478 73.4216L39.6976 72.7577L37.9091 71.755H37.8955ZM38.2207 73.801L36.7845 74.4649L38.6272 75.4947L40.0635 74.8307L38.2343 73.801H38.2207ZM35.3076 77.3645L37.1232 78.3807L38.5595 77.7168L36.7438 76.7006L35.3076 77.3645ZM43.6676 82.0255L45.1038 81.3616L43.2882 80.3454L41.852 81.0093L43.6676 82.0255ZM44.047 82.2287L45.8626 83.2449L47.2988 82.581L45.4832 81.5648L44.047 82.2287ZM49.8732 83.6243L51.3095 82.9604L49.4938 81.9442L48.0576 82.6081L49.8732 83.6243ZM51.7159 82.7842L53.1522 82.1203L51.3366 81.1041L49.9003 81.768L51.7159 82.7842ZM55.7266 83.1501L57.1628 82.4862L55.3607 81.47L53.9245 82.1339L55.7266 83.1501ZM57.5557 82.31L58.992 81.6461L57.1899 80.6299L55.7401 81.2938L57.5557 82.31ZM57.9351 82.5133L59.7372 83.5295L61.187 82.8655L59.3849 81.8493L57.9351 82.5133ZM61.5799 82.6894L63.0162 82.0255L61.2005 81.0093L59.7643 81.6732L61.5664 82.6759L61.5799 82.6894ZM63.7885 82.0526L65.6041 83.0688L67.0403 82.4049L65.2247 81.3887L63.7885 82.0526ZM65.2383 81.0093L66.6745 80.3589L64.8724 79.3427L63.4362 80.0066L65.2383 81.0093ZM64.8995 78.9498L66.3358 78.2858L64.5337 77.2832L63.0975 77.9471L64.9131 78.9498H64.8995ZM66.7287 78.1097L68.1649 77.4458L66.3629 76.4296L64.9266 77.0935L66.7422 78.0962L66.7287 78.1097ZM66.39 76.0502L67.8262 75.3863L66.0106 74.3701L64.5743 75.034L66.39 76.0502ZM68.2191 75.2101L69.6554 74.5462L67.8398 73.53L66.4035 74.1939L68.2191 75.2101ZM66.7829 69.2213L64.9808 68.2051L63.5446 68.869L65.3467 69.8852L66.7829 69.2213ZM63.1381 69.0587L61.7019 69.7226L63.5039 70.7253L64.9402 70.0613L63.1381 69.0451V69.0587ZM62.7587 68.8419L60.9566 67.8257L59.5204 68.4896L61.336 69.5058L62.7723 68.8419H62.7587ZM59.1275 68.6793L57.6777 69.3432L59.4933 70.3594L60.9295 69.6955L59.1275 68.6929V68.6793ZM56.5666 67.2566L54.751 66.2404L53.3148 66.9043L55.1304 67.9205L56.5666 67.2566ZM51.0791 67.9205L49.6429 68.5845L51.4721 69.6007L52.9083 68.9367L51.0927 67.9205H51.0791ZM50.6997 67.7173L48.8977 66.7146L47.4614 67.3786L49.2635 68.3812L50.6997 67.7308V67.7173ZM45.2258 68.3948L43.7895 69.0587L45.5916 70.0613L47.0278 69.3974L45.2258 68.3948ZM44.8599 68.178L43.0443 67.1753L41.6081 67.8257L43.4237 68.8419L44.8599 68.178ZM39.3724 68.8555L37.9362 69.5194L39.7518 70.5356L41.1881 69.8717L39.3724 68.8555ZM37.5433 69.6955L36.107 70.3594L37.9226 71.3756L39.3589 70.7117L37.5433 69.6955ZM35.7141 70.5356L34.2778 71.1995L36.0935 72.2157L37.5297 71.5518L35.7141 70.5356ZM36.0664 72.5951L34.6301 73.259L36.4051 74.2481L37.8413 73.5977L36.0528 72.5951H36.0664ZM34.5353 75.4676L33.099 76.1315L34.9418 77.1612L36.378 76.4973L34.5353 75.4676ZM33.4784 78.2045L35.2805 79.2208L36.7167 78.5568L34.9011 77.5406L33.4649 78.2045H33.4784ZM35.267 79.6001L33.8307 80.2641L35.6328 81.2667L37.069 80.6163L35.267 79.6001ZM40.3751 83.9224L42.1772 84.9386L43.6134 84.2747L41.7978 83.2585L40.3615 83.9224H40.3751ZM44.0199 84.085L45.4561 83.4211L43.6405 82.4049L42.2043 83.0688L44.0199 84.085ZM44.3993 84.2882L46.2149 85.3044L47.6511 84.6405L45.8355 83.6243L44.3993 84.2882ZM46.5807 85.5077L48.3828 86.5239L49.819 85.86L48.0034 84.8573L46.5672 85.5212L46.5807 85.5077ZM50.2255 85.6838L51.6617 85.0199L49.8597 84.0037L48.4234 84.6676L50.2391 85.6838H50.2255ZM52.0547 84.8302L53.4909 84.1663L51.6753 83.1501L50.2391 83.814L52.0547 84.8302ZM52.4341 85.047L54.2361 86.0632L55.6724 85.3993L53.8703 84.3966L52.4341 85.0606V85.047ZM57.908 84.3695L59.3443 83.7056L57.5422 82.6894L56.106 83.3533L57.908 84.3695ZM58.2739 84.5728L60.0759 85.589L61.5257 84.9251L59.7101 83.9089L58.2739 84.5728ZM61.9187 84.7489L63.3684 84.085L61.5528 83.0688L60.1166 83.7327L61.9187 84.7489ZM63.7614 83.9089L65.1976 83.2449L63.382 82.2423L61.9458 82.9062L63.7478 83.9224L63.7614 83.9089ZM67.081 80.1692L68.5172 79.5053L66.7151 78.5026L65.2789 79.1666L67.0945 80.1692H67.081ZM68.9237 79.3291L70.3599 78.6652L68.5443 77.649L67.1081 78.3129L68.9237 79.3291ZM68.5714 77.2696L70.0077 76.6057L68.192 75.6031L66.7558 76.267L68.5579 77.2832L68.5714 77.2696ZM69.6825 72.7035L68.2462 73.3674L70.0619 74.3836L71.4981 73.7197L69.6825 72.7035ZM71.1458 71.6602L69.3302 70.644L67.894 71.3079L69.7096 72.3241L71.1458 71.6602ZM61.3496 67.6496L63.1652 68.6658L64.6014 68.0018L62.7994 66.9856L61.3631 67.6496H61.3496ZM60.5773 67.6225L58.7616 66.6062L57.3254 67.2702L59.1275 68.2864L60.5637 67.6225H60.5773ZM55.144 66.0643L56.9596 67.0805L58.3958 66.4166L56.5802 65.4004L55.144 66.0507V66.0643ZM51.1333 65.6849L52.9354 66.6875L54.3852 66.0236L52.5831 65.021L51.1333 65.6849ZM49.3042 66.5249L51.1062 67.5276L52.5425 66.8637L50.7404 65.861L49.3042 66.5249ZM45.28 66.1456L47.0956 67.1618L48.5318 66.4979L46.7162 65.4816L45.28 66.1456ZM43.4508 66.9992L45.2529 68.0018L46.6891 67.3515L44.8735 66.3353L43.4373 66.9992H43.4508ZM39.4402 66.6198L41.2422 67.6225L42.6785 66.9585L40.8764 65.9423L39.4402 66.6062V66.6198ZM35.7547 68.2999L37.5704 69.3161L39.0066 68.6522L37.191 67.636L35.7547 68.2999ZM33.9256 69.14L35.7412 70.1562L37.1774 69.4923L35.3618 68.4761L33.9256 69.14ZM33.8985 70.9963L35.3347 70.3323L33.5191 69.3161L32.0828 69.98L33.8985 70.9963ZM32.4351 72.0396L34.2507 73.0558L35.687 72.3918L33.8714 71.3756L32.4351 72.026V72.0396ZM32.408 73.8958L33.8443 73.2319L32.0286 72.2157L30.5924 72.8796L32.408 73.8958ZM30.9582 74.9391L32.7468 75.9282L34.183 75.2643L32.3945 74.2752L30.9582 74.9391ZM30.8905 76.7683L32.3267 76.1044L30.5518 75.1153L29.1155 75.7792L30.8905 76.7683ZM29.4272 77.8116L31.2699 78.8414L32.7061 78.1775L30.8634 77.1477L29.4272 77.7981V77.8116ZM33.4649 80.0608L34.9011 79.3969L33.0855 78.3807L31.6493 79.0446L33.4649 80.0608ZM32.0422 81.0906L33.8443 82.1068L35.2399 81.47L33.4378 80.4673L32.0422 81.1041V81.0906ZM34.2237 82.31L36.0257 83.3262L37.4213 82.6894L35.6192 81.6868L34.2237 82.3236V82.31ZM36.4051 83.5159L38.2072 84.5186L39.6028 83.8818L37.8007 82.8791L36.4051 83.5159ZM41.7978 85.1147L39.9822 84.0985L38.5866 84.7354L40.3886 85.7516L41.7842 85.1147H41.7978ZM42.5565 85.1283L44.3722 86.1445L45.8084 85.4806L43.9928 84.4644L42.5565 85.1283ZM47.9899 86.7L46.1878 85.6838L44.7515 86.3477L46.5536 87.3639L47.9899 86.7ZM52.014 87.0794L50.1984 86.0632L48.7622 86.7271L50.5642 87.7433L52.0005 87.0794H52.014ZM53.8432 86.2258L52.0276 85.2231L50.5913 85.8871L52.3934 86.8897L53.8432 86.2258ZM56.4176 87.2691L57.8538 86.6052L56.0518 85.6025L54.6155 86.2664L56.4311 87.2691H56.4176ZM59.6966 85.7651L57.8945 84.7489L56.4582 85.4128L58.2603 86.4155L59.6966 85.7516V85.7651ZM63.7614 86.1716L61.9051 85.1418L60.4553 85.8058L62.3251 86.8491L63.7614 86.1852V86.1716ZM65.5905 85.3315L63.7478 84.3018L62.298 84.9657L64.1543 85.9955L65.5905 85.3315ZM67.4197 84.4779L65.577 83.4482L64.1408 84.1121L65.997 85.1418L67.4333 84.4779H67.4197ZM69.2353 81.768L67.7991 82.432L69.6283 83.4482L71.0645 82.7842L69.2353 81.768ZM70.7122 80.7247L68.8966 79.7085L67.4604 80.3589L69.276 81.3751L70.7122 80.7247ZM70.7258 78.8685L69.2895 79.5324L71.1052 80.5486L72.5414 79.8847L70.7258 78.8685ZM72.1891 77.8252L70.3735 76.8225L68.9373 77.4864L70.7393 78.5026L72.1756 77.8387L72.1891 77.8252ZM74.0318 76.9851L72.2162 75.9689L70.78 76.6328L72.5956 77.649L74.0318 76.9851Z" fill="black" stroke="black" stroke-width="2" mask="url(#path-1-inside-1_2384_8939)"/>
<path d="M1.62327 102.986C1.28454 102.986 1 102.702 1 102.363V94.2335C1 94.098 1.04065 93.9761 1.1084 93.8677L25.4838 59.7503C25.6057 59.5877 25.7954 59.4928 25.9987 59.4928H48.4636L43.369 52.3523C43.2335 52.1626 43.22 51.9187 43.3148 51.7155L46.1196 46.1196H43.8839C43.6807 46.1196 43.5045 46.0247 43.3826 45.8757L28.7628 26.3781C28.7628 26.3781 28.7357 26.3374 28.7357 26.3103L28.7086 26.2561C28.7086 26.2561 28.6815 26.2155 28.6679 26.1884C28.6679 26.1477 28.6408 26.08 28.6408 26.0122C28.6408 25.9716 28.6408 25.9309 28.6408 25.8903V13.6281H16.2702C15.9315 13.6281 15.6469 13.3435 15.6469 13.0048V3.2492C15.6469 2.91047 15.9315 2.62593 16.2702 2.62593H46.5125V1.62327C46.5125 1.28454 46.797 1 47.1358 1H56.8913C57.2301 1 57.5146 1.28454 57.5146 1.62327V2.62593H87.7569C88.0956 2.62593 88.3802 2.91047 88.3802 3.2492V13.0048C88.3802 13.3435 88.0956 13.6281 87.7569 13.6281H75.3863V25.9174V26.0122C75.3863 26.08 75.3863 26.1477 75.3592 26.1884C75.3592 26.2155 75.3321 26.229 75.3186 26.2561C75.3186 26.2561 75.2779 26.3645 75.2644 26.3916L60.6581 45.8757C60.5361 46.0383 60.36 46.1196 60.1567 46.1196H57.9211L60.7258 51.7155C60.8342 51.9187 60.8071 52.1626 60.6716 52.3523L55.5771 59.4928H78.042C78.2452 59.4928 78.4349 59.5877 78.5569 59.7638L102.932 93.8812C103 93.9896 103.041 94.1116 103.041 94.2471V95.2497V102.377C103.041 102.715 102.756 103 102.417 103H1.62327V102.986ZM2.24655 101.74H101.74V94.8704H2.24655V101.74ZM2.82917 93.6103H101.144L77.6626 60.7394H54.6286L52.6097 63.5577V74.7359C52.6097 75.0747 52.3252 75.3592 51.9865 75.3592C51.6477 75.3592 51.3632 75.0747 51.3632 74.7359V63.5577L49.3443 60.7394H26.3103L2.82917 93.6103ZM44.602 51.9323L52 62.284L59.398 51.9323L56.4849 46.1196H47.5151L44.602 51.9323ZM44.182 44.873H59.8045L73.4894 26.6219H30.4835L44.1684 44.873H44.182ZM68.2458 20.4976C68.5845 20.4976 68.869 20.7821 68.869 21.1209V25.3754H74.1262V13.6281H57.5011V14.6307C57.5011 14.9694 57.2165 15.254 56.8778 15.254H47.1222C46.7835 15.254 46.4989 14.9694 46.4989 14.6307V13.6281H29.8738V25.3754H35.1174V21.1209C35.1174 20.7821 35.402 20.4976 35.7407 20.4976C36.0794 20.4976 36.364 20.7821 36.364 21.1209V25.3754H43.2335V21.1209C43.2335 20.7821 43.5181 20.4976 43.8568 20.4976C44.1955 20.4976 44.4801 20.7821 44.4801 21.1209V25.3754H51.3496V21.1209C51.3496 20.7821 51.6342 20.4976 51.9729 20.4976C52.3116 20.4976 52.5962 20.7821 52.5962 21.1209V25.3754H59.4657V21.1209C59.4657 20.7821 59.7503 20.4976 60.089 20.4976C60.4277 20.4976 60.7123 20.7821 60.7123 21.1209V25.3754H67.5818V21.1209C67.5818 20.7821 67.8664 20.4976 68.2051 20.4976H68.2458ZM47.7455 13.9939H56.241V2.24655H47.7455V13.9939ZM57.4875 12.368H87.1065V3.87248H57.4875V12.368ZM16.8664 12.368H46.4854V3.87248H16.8664V12.368ZM69.8717 54.2357C69.533 54.2357 69.2484 53.9511 69.2484 53.6124C69.2484 53.2737 69.533 52.9891 69.8717 52.9891H73.1235C73.4623 52.9891 73.7468 53.2737 73.7468 53.6124C73.7468 53.9511 73.4623 54.2357 73.1235 54.2357H69.8717ZM30.8765 54.2357C30.5377 54.2357 30.2532 53.9511 30.2532 53.6124C30.2532 53.2737 30.5377 52.9891 30.8765 52.9891H34.1283C34.4671 52.9891 34.7516 53.2737 34.7516 53.6124C34.7516 53.9511 34.4671 54.2357 34.1283 54.2357H30.8765ZM68.2458 47.7455C68.0832 47.7455 67.9206 47.6777 67.7986 47.5693C67.5547 47.3255 67.5547 46.9325 67.7986 46.6886L69.4246 45.0627C69.5465 44.9408 69.6955 44.8866 69.8717 44.8866C70.0478 44.8866 70.1969 44.9543 70.3188 45.0627C70.5627 45.3066 70.5627 45.6995 70.3188 45.9434L68.6929 47.5693C68.5303 47.7319 68.3541 47.7455 68.2458 47.7455ZM35.7407 47.7455C35.5781 47.7455 35.4155 47.6777 35.2936 47.5693L33.6676 45.9434C33.4238 45.6995 33.4238 45.3066 33.6676 45.0627C33.7896 44.9408 33.9386 44.8866 34.1148 44.8866C34.2909 44.8866 34.44 44.9543 34.5619 45.0627L36.1878 46.6886C36.4317 46.9325 36.4317 47.3255 36.1878 47.5693C36.0252 47.7319 35.8491 47.7455 35.7407 47.7455Z" fill="black" stroke="black" stroke-width="0.56" stroke-miterlimit="10"/>
</svg>
