<svg width="98" height="104" viewBox="0 0 98 104" fill="none" xmlns="http://www.w3.org/2000/svg">
<path d="M64.9121 78.9797C65.1305 78.9797 65.3416 79.0508 65.5146 79.1799L65.5859 79.2385C65.7477 79.3964 65.8349 79.608 65.835 79.8059C65.835 80.0062 65.7455 80.2206 65.5801 80.3792L49.3037 95.509L49.3008 95.512C49.139 95.6652 48.9079 95.7594 48.6426 95.761C48.4268 95.7595 48.218 95.6903 48.0469 95.5627L47.9756 95.5032L31.7051 80.3792C31.5397 80.2207 31.4502 80.0061 31.4502 79.8059C31.4503 79.6043 31.5414 79.3885 31.709 79.2297C31.8704 79.0769 32.1164 78.9798 32.373 78.9797C32.6194 78.9797 32.8564 79.0704 33.04 79.2327H33.041L48.2949 93.4231L48.6357 93.7395L48.9766 93.4231L64.2441 79.2327L64.2471 79.2297C64.4085 79.0768 64.6553 78.9797 64.9121 78.9797Z" fill="black" stroke="black"/>
<path d="M4.84961 88.7764H40.9375L42.7197 90.4297H4.84961C3.52031 90.4297 2.3605 91.4452 2.36035 92.7666V99.4814C2.36035 100.801 3.50407 101.819 4.84961 101.819H92.3936C93.723 101.819 94.8828 100.803 94.8828 99.4814V92.7666C94.8827 91.4452 93.7229 90.4297 92.3936 90.4297H55.4492L57.2314 88.7764H92.4072C94.8338 88.7764 96.7566 90.6044 96.7568 92.7803V99.4961C96.7429 101.676 94.843 103.5 92.4072 103.5H4.84961C2.42309 103.5 0.500235 101.672 0.5 99.4961V92.7832C0.511883 90.6699 2.29604 88.8903 4.62305 88.7812L4.84961 88.7764Z" fill="black" stroke="black"/>
<path d="M44.3086 55.9424C44.2943 59.6502 45.6972 63.2372 48.25 66.0752L48.6221 66.4883L48.9932 66.0752C51.5469 63.2361 52.9355 59.6495 52.9355 55.9443V48.7988H44.3086V55.9424ZM38.5186 44.7939C38.5186 46.1133 39.6632 47.1318 41.0088 47.1318H56.2344C57.5774 47.1318 58.7246 46.1295 58.7246 44.7939V44.2939H58.7109V40.0254H38.5186V44.7939ZM38.5332 38.3721H58.7246V24.6465H38.5332V38.3721ZM3.86328 14.209L10.0391 22.0439L10.0449 22.0508C10.5148 22.625 11.2658 22.9804 12.0342 22.9805H85.209C85.9707 22.9804 86.7277 22.6436 87.2031 22.0449L87.2041 22.0439L93.3809 14.209L94.0186 13.3994H3.22461L3.86328 14.209ZM4.84961 2.16699C3.52036 2.16705 2.36059 3.18262 2.36035 4.50391V11.7334H94.8828V4.50391C94.8826 3.18475 93.739 2.16699 92.3936 2.16699H4.84961ZM47.6846 68.0322L47.5352 67.8848C44.2566 64.6598 42.4482 60.3931 42.4482 55.958V48.8125H41.0225C38.5978 48.8125 36.6867 46.9862 36.6865 44.8086V24.6465H12.0479C10.6566 24.6463 9.3416 24.0314 8.53125 23L8.53027 22.999L0.682617 13.0508L0.675781 13.043C0.552322 12.893 0.5 12.7414 0.5 12.5732V4.50391C0.500238 2.32809 2.42309 0.500062 4.84961 0.5H92.3799L92.6055 0.504883C94.9245 0.614012 96.7293 2.39594 96.7295 4.50391V12.5732C96.7295 12.7245 96.6657 12.9057 96.5518 13.0459L96.5469 13.0508L88.7002 22.998C87.8872 24.0204 86.5831 24.6464 85.1816 24.6465H60.543V44.8086C60.5427 46.9871 58.6445 48.8125 56.207 48.8125H54.7676V55.96C54.781 60.3803 52.9725 64.6601 49.6807 67.8848L49.5312 68.0312V86.6045C49.5312 87.0254 49.1415 87.4307 48.6074 87.4307C48.0736 87.4304 47.6847 87.0253 47.6846 86.6045V68.0322Z" fill="black" stroke="black"/>
<path d="M64.9121 78.9797C65.1305 78.9797 65.3416 79.0508 65.5146 79.1799L65.5859 79.2385C65.7477 79.3964 65.8349 79.608 65.835 79.8059C65.835 80.0062 65.7455 80.2206 65.5801 80.3792L49.3037 95.509L49.3008 95.512C49.139 95.6652 48.9079 95.7594 48.6426 95.761C48.4268 95.7595 48.218 95.6903 48.0469 95.5627L47.9756 95.5032L31.7051 80.3792C31.5397 80.2207 31.4502 80.0061 31.4502 79.8059C31.4503 79.6043 31.5414 79.3885 31.709 79.2297C31.8704 79.0769 32.1164 78.9798 32.373 78.9797C32.6194 78.9797 32.8564 79.0704 33.04 79.2327H33.041L48.2949 93.4231L48.6357 93.7395L48.9766 93.4231L64.2441 79.2327L64.2471 79.2297C64.4085 79.0768 64.6553 78.9797 64.9121 78.9797Z" fill="black" stroke="black"/>
<path d="M4.84961 88.7764H40.9375L42.7197 90.4297H4.84961C3.52031 90.4297 2.3605 91.4452 2.36035 92.7666V99.4814C2.36035 100.801 3.50407 101.819 4.84961 101.819H92.3936C93.723 101.819 94.8828 100.803 94.8828 99.4814V92.7666C94.8827 91.4452 93.7229 90.4297 92.3936 90.4297H55.4492L57.2314 88.7764H92.4072C94.8338 88.7764 96.7566 90.6044 96.7568 92.7803V99.4961C96.7429 101.676 94.843 103.5 92.4072 103.5H4.84961C2.42309 103.5 0.500235 101.672 0.5 99.4961V92.7832C0.511883 90.6699 2.29604 88.8903 4.62305 88.7812L4.84961 88.7764Z" fill="black" stroke="black"/>
<path d="M44.3086 55.9424C44.2943 59.6502 45.6972 63.2372 48.25 66.0752L48.6221 66.4883L48.9932 66.0752C51.5469 63.2361 52.9355 59.6495 52.9355 55.9443V48.7988H44.3086V55.9424ZM38.5186 44.7939C38.5186 46.1133 39.6632 47.1318 41.0088 47.1318H56.2344C57.5774 47.1318 58.7246 46.1295 58.7246 44.7939V44.2939H58.7109V40.0254H38.5186V44.7939ZM38.5332 38.3721H58.7246V24.6465H38.5332V38.3721ZM3.86328 14.209L10.0391 22.0439L10.0449 22.0508C10.5148 22.625 11.2658 22.9804 12.0342 22.9805H85.209C85.9707 22.9804 86.7277 22.6436 87.2031 22.0449L87.2041 22.0439L93.3809 14.209L94.0186 13.3994H3.22461L3.86328 14.209ZM4.84961 2.16699C3.52036 2.16705 2.36059 3.18262 2.36035 4.50391V11.7334H94.8828V4.50391C94.8826 3.18475 93.739 2.16699 92.3936 2.16699H4.84961ZM47.6846 68.0322L47.5352 67.8848C44.2566 64.6598 42.4482 60.3931 42.4482 55.958V48.8125H41.0225C38.5978 48.8125 36.6867 46.9862 36.6865 44.8086V24.6465H12.0479C10.6566 24.6463 9.3416 24.0314 8.53125 23L8.53027 22.999L0.682617 13.0508L0.675781 13.043C0.552322 12.893 0.5 12.7414 0.5 12.5732V4.50391C0.500238 2.32809 2.42309 0.500062 4.84961 0.5H92.3799L92.6055 0.504883C94.9245 0.614012 96.7293 2.39594 96.7295 4.50391V12.5732C96.7295 12.7245 96.6657 12.9057 96.5518 13.0459L96.5469 13.0508L88.7002 22.998C87.8872 24.0204 86.5831 24.6464 85.1816 24.6465H60.543V44.8086C60.5427 46.9871 58.6445 48.8125 56.207 48.8125H54.7676V55.96C54.781 60.3803 52.9725 64.6601 49.6807 67.8848L49.5312 68.0312V86.6045C49.5312 87.0254 49.1415 87.4307 48.6074 87.4307C48.0736 87.4304 47.6847 87.0253 47.6846 86.6045V68.0322Z" fill="black" stroke="black"/>
</svg>
