<svg width="112" height="112" viewBox="0 0 112 112" fill="none" xmlns="http://www.w3.org/2000/svg">
<path d="M23.6348 88.5049H88.5264V23.5537H23.6348V88.5049ZM38.0039 74.1055H74.1406V37.9395H38.0039V74.1055ZM35.8213 36.8379C35.8112 36.3035 36.1597 35.8583 36.6689 35.7412H75.2627C75.876 35.7413 76.3691 36.2432 76.3691 36.8477V75.2119C76.3691 75.8253 75.8672 76.3183 75.2627 76.3184H36.9277C36.3143 76.3184 35.8213 75.8165 35.8213 75.2119V36.8379ZM74.1562 1.64258L74.1553 1.63379C74.1347 1.05758 74.5528 0.568269 75.0908 0.5H75.29L75.3994 0.508789C75.9394 0.584243 76.3593 1.0755 76.3398 1.64941L76.3389 1.65723V21.3408H89.6172C90.2305 21.3408 90.7244 21.8429 90.7246 22.4473V35.7256H110.443C111.018 35.7256 111.501 36.2167 111.506 36.8389C111.496 37.4482 111 37.9236 110.385 37.9238H90.709V54.916H110.429C111.004 54.916 111.487 55.4069 111.491 56.0293C111.481 56.6385 110.984 57.1143 110.369 57.1143H90.6943V74.1055H110.414C110.991 74.1055 111.475 74.6006 111.476 75.2266C111.461 75.8322 110.967 76.3037 110.354 76.3037H90.6797V89.582C90.6797 90.1954 90.1777 90.6884 89.5732 90.6885H76.2949V110.415C76.2847 111.024 75.7879 111.5 75.1729 111.5C74.5956 111.5 74.1115 111.005 74.1113 110.379V90.6885H57.1494V110.423C57.1351 111.028 56.6407 111.5 56.0283 111.5C55.4509 111.5 54.966 111.005 54.9658 110.379V90.6885H38.0039V110.423C37.9895 111.028 37.4953 111.5 36.8828 111.5C36.3054 111.5 35.8215 111.005 35.8213 110.379V90.6885H22.543C21.9296 90.6885 21.4355 90.1866 21.4355 89.582V76.3037H1.72461L1.7041 76.3057C1.09691 76.3571 0.554573 75.9016 0.503906 75.3037C0.452885 74.7012 0.901091 74.1632 1.49219 74.1055H21.4355V57.1143H1.72461L1.7041 57.1162C1.09701 57.1677 0.554716 56.712 0.503906 56.1143C0.452871 55.512 0.900582 54.9742 1.49121 54.916H21.4355V37.9238H1.74023L1.71875 37.9258C1.11161 37.9772 0.569219 37.5217 0.518555 36.9238V36.916L0.512695 36.8037C0.514246 36.2527 0.940276 35.7769 1.49805 35.7256H21.4355V22.4473C21.4357 21.834 21.9385 21.3408 22.543 21.3408H35.8213V1.64258L35.8203 1.63379C35.7997 1.05758 36.2178 0.568267 36.7559 0.5H37L37.1094 0.508789C37.6492 0.584382 38.0683 1.0756 38.0488 1.64941V21.3408H55.0107V1.63379C54.9902 1.0577 55.4074 0.56843 55.9453 0.5H56.1445L56.2549 0.508789C56.7946 0.584535 57.2138 1.07571 57.1943 1.64941V21.3408H74.1562V1.64258Z" fill="black" stroke="black"/>
<path d="M23.6348 88.5049H88.5264V23.5537H23.6348V88.5049ZM38.0039 74.1055H74.1406V37.9395H38.0039V74.1055ZM35.8213 36.8379C35.8112 36.3035 36.1597 35.8583 36.6689 35.7412H75.2627C75.876 35.7413 76.3691 36.2432 76.3691 36.8477V75.2119C76.3691 75.8253 75.8672 76.3183 75.2627 76.3184H36.9277C36.3143 76.3184 35.8213 75.8165 35.8213 75.2119V36.8379ZM74.1562 1.64258L74.1553 1.63379C74.1347 1.05758 74.5528 0.568269 75.0908 0.5H75.29L75.3994 0.508789C75.9394 0.584243 76.3593 1.0755 76.3398 1.64941L76.3389 1.65723V21.3408H89.6172C90.2305 21.3408 90.7244 21.8429 90.7246 22.4473V35.7256H110.443C111.018 35.7256 111.501 36.2167 111.506 36.8389C111.496 37.4482 111 37.9236 110.385 37.9238H90.709V54.916H110.429C111.004 54.916 111.487 55.4069 111.491 56.0293C111.481 56.6385 110.984 57.1143 110.369 57.1143H90.6943V74.1055H110.414C110.991 74.1055 111.475 74.6006 111.476 75.2266C111.461 75.8322 110.967 76.3037 110.354 76.3037H90.6797V89.582C90.6797 90.1954 90.1777 90.6884 89.5732 90.6885H76.2949V110.415C76.2847 111.024 75.7879 111.5 75.1729 111.5C74.5956 111.5 74.1115 111.005 74.1113 110.379V90.6885H57.1494V110.423C57.1351 111.028 56.6407 111.5 56.0283 111.5C55.4509 111.5 54.966 111.005 54.9658 110.379V90.6885H38.0039V110.423C37.9895 111.028 37.4953 111.5 36.8828 111.5C36.3054 111.5 35.8215 111.005 35.8213 110.379V90.6885H22.543C21.9296 90.6885 21.4355 90.1866 21.4355 89.582V76.3037H1.72461L1.7041 76.3057C1.09691 76.3571 0.554573 75.9016 0.503906 75.3037C0.452885 74.7012 0.901091 74.1632 1.49219 74.1055H21.4355V57.1143H1.72461L1.7041 57.1162C1.09701 57.1677 0.554716 56.712 0.503906 56.1143C0.452871 55.512 0.900582 54.9742 1.49121 54.916H21.4355V37.9238H1.74023L1.71875 37.9258C1.11161 37.9772 0.569219 37.5217 0.518555 36.9238V36.916L0.512695 36.8037C0.514246 36.2527 0.940276 35.7769 1.49805 35.7256H21.4355V22.4473C21.4357 21.834 21.9385 21.3408 22.543 21.3408H35.8213V1.64258L35.8203 1.63379C35.7997 1.05758 36.2178 0.568267 36.7559 0.5H37L37.1094 0.508789C37.6492 0.584382 38.0683 1.0756 38.0488 1.64941V21.3408H55.0107V1.63379C54.9902 1.0577 55.4074 0.56843 55.9453 0.5H56.1445L56.2549 0.508789C56.7946 0.584535 57.2138 1.07571 57.1943 1.64941V21.3408H74.1562V1.64258Z" fill="black" stroke="black"/>
</svg>
