<svg width="20" height="20" viewBox="0 0 20 20" fill="none" xmlns="http://www.w3.org/2000/svg">
<path fill-rule="evenodd" clip-rule="evenodd" d="M7.58524 19.4843H11.3737L11.3494 13.579C11.3494 11.6371 11.6041 10.0695 13.6343 10.0036C15.7182 9.93607 15.9174 11.6978 15.9174 13.579L15.8983 19.4843H19.7128C19.6798 16.7958 19.7942 14.045 19.7838 11.3479C19.7699 7.70492 17.2824 5.88259 13.6291 6.54951C12.6209 6.74352 11.7582 7.41737 11.3512 7.93012L11.3442 6.44731L7.56099 6.4577L7.58351 19.4825L7.58524 19.4843ZM5.12371 19.4808L5.15143 6.44731H1.21921C1.22094 10.745 1.22267 15.2298 1.22267 19.4843L5.12371 19.4808ZM3.17146 5.17237C4.45852 5.17237 5.50308 4.12955 5.50308 2.84595C5.50308 1.56235 4.46025 0.519531 3.17146 0.519531C1.88266 0.519531 0.839844 1.56235 0.839844 2.84595C0.839844 4.12955 1.88266 5.17237 3.17146 5.17237Z" fill="black"/>
</svg>
