<svg width="23" height="17" viewBox="0 0 23 17" fill="none" xmlns="http://www.w3.org/2000/svg">
<path fill-rule="evenodd" clip-rule="evenodd" d="M9.32017 11.5534C9.32017 9.42096 9.32017 6.95249 9.32017 4.87379L15.2133 8.07499C15.0591 8.16854 9.41024 11.5014 9.3219 11.5534H9.32017ZM3.21224 0.740628C1.91131 0.95716 1.01054 1.71415 0.743773 3.04626C0.270868 5.40386 0.0543357 11.6434 0.960305 13.9265C1.47132 15.2119 2.60595 15.5705 3.93805 15.7212C7.94476 16.0451 15.9131 16.2686 19.9424 15.5895C21.2727 15.399 22.0973 14.5813 22.3502 13.2614C22.8491 10.6335 22.9565 6.11062 22.4541 3.39791C22.1163 1.73321 21.1896 0.976214 19.828 0.685195C16.561 0.0217415 6.8517 0.0511904 3.21224 0.740628Z" fill="black"/>
</svg>
