<svg width="73" height="74" viewBox="0 0 73 74" fill="none" xmlns="http://www.w3.org/2000/svg">
<path d="M47.8105 56.7085C46.4766 56.6993 45.37 55.6758 45.2594 54.3479H33.2725C31.5021 54.3387 30.0698 52.9095 30.0605 51.1391V48.4527C30.0667 46.6823 31.499 45.2469 33.2725 45.2377H45.2594C45.3301 44.3617 45.8434 43.5841 46.621 43.1753C47.3986 42.7665 48.33 42.788 49.0891 43.2275L56.6195 47.5798V47.5767C57.4125 48.0347 57.9012 48.8799 57.9012 49.7928C57.9012 50.7057 57.4125 51.5509 56.6195 52.0089L49.0891 56.3611V56.358C48.7019 56.5855 48.2592 56.7054 47.8105 56.7085ZM46.4027 52.0027L46.4058 51.9997C47.039 52.0027 47.5553 52.5191 47.5584 53.1554V54.1451C47.5553 54.2342 47.6045 54.3172 47.6844 54.3633C47.7613 54.4094 47.8596 54.4094 47.9395 54.3633L55.4699 50.0111V50.0142C55.5468 49.9681 55.596 49.8851 55.596 49.7929C55.596 49.7006 55.5468 49.6177 55.4699 49.5716L47.9395 45.2193V45.2224C47.8596 45.1763 47.7613 45.1763 47.6844 45.2224C47.6045 45.2685 47.5553 45.3515 47.5584 45.4406V46.4303C47.5584 46.7776 47.4016 47.1065 47.1342 47.3247C46.8668 47.546 46.5134 47.6321 46.1752 47.5614C46.1138 47.5491 46.0554 47.543 45.9939 47.543H33.2721C32.768 47.543 32.3623 47.9518 32.3623 48.4559V51.1392C32.3623 51.6433 32.768 52.0489 33.2721 52.0489H45.9907C46.0491 52.052 46.1106 52.0459 46.169 52.0305C46.2458 52.0151 46.3258 52.0028 46.4026 51.9998L46.4027 52.0027Z" fill="black"/>
<path d="M25.1884 69.0095C24.7396 69.0095 24.2971 68.8897 23.9098 68.6653L16.3794 64.3131C15.5864 63.8551 15.0977 63.0099 15.0977 62.097C15.0977 61.1841 15.5864 60.3388 16.3794 59.8809L23.9098 55.5286C24.6689 55.0891 25.6002 55.0707 26.3779 55.4795C27.1555 55.8883 27.6688 56.6659 27.7395 57.5419H39.7264C41.4999 57.548 42.9383 58.9834 42.9414 60.7599V63.434C42.9383 65.2075 41.4999 66.6459 39.7264 66.652H27.7395C27.675 67.4911 27.1986 68.2442 26.467 68.6591C26.0798 68.8866 25.6371 69.0095 25.1884 69.0095ZM25.1884 57.4837C25.1423 57.4868 25.0993 57.4991 25.0593 57.5237L17.5289 61.8759C17.4521 61.922 17.406 62.005 17.406 62.0941C17.406 62.1864 17.4521 62.2693 17.5289 62.3154L25.0593 66.6677C25.1392 66.7107 25.2345 66.7107 25.3144 66.6646C25.3913 66.6216 25.4404 66.5355 25.4404 66.4464V65.4567C25.4404 65.1094 25.5972 64.7835 25.8646 64.5623C26.132 64.344 26.4855 64.258 26.8236 64.3256C26.8851 64.3379 26.9435 64.3471 27.005 64.344H39.7268C40.2278 64.341 40.6335 63.9352 40.6335 63.4343V60.7602C40.6335 60.2562 40.2247 59.8473 39.7206 59.8473H27.0019C26.9435 59.8473 26.882 59.8535 26.8236 59.8658C26.4855 59.9365 26.1321 59.8473 25.8646 59.6291C25.5941 59.4109 25.4404 59.082 25.4404 58.7347V57.7481C25.4466 57.6559 25.3974 57.5698 25.3144 57.5268H25.3114C25.2745 57.5052 25.2314 57.4899 25.1884 57.4868L25.1884 57.4837Z" fill="black"/>
<path d="M65.9889 73.5H7.01198C3.14224 73.4969 0.00412397 70.3587 0.000976562 66.489V7.5121C0.00405079 3.64237 3.14224 0.504246 7.01198 0.501099H65.9889C69.8586 0.504173 72.9967 3.64237 72.9999 7.5121V66.489C72.9968 70.3587 69.8586 73.4968 65.9889 73.5ZM7.01198 2.8061C4.41474 2.80918 2.30928 4.91463 2.30622 7.51187V66.4887C2.30929 69.086 4.41474 71.1914 7.01198 71.1945H65.9889C68.5861 71.1914 70.6916 69.086 70.6946 66.4887V7.51187C70.6916 4.91463 68.5861 2.80917 65.9889 2.8061H7.01198Z" fill="black"/>
<path d="M39.2785 40.6887H33.7213C31.1363 40.6856 29.0402 38.5894 29.0371 36.0045V1.65368C29.0371 1.01744 29.5535 0.501099 30.1897 0.501099H42.81C43.1143 0.501099 43.4094 0.624044 43.6245 0.839201C43.8397 1.05436 43.9627 1.34943 43.9627 1.65375V36.0108C43.9565 38.5958 41.8633 40.6856 39.2785 40.6887ZM31.3423 2.80571V36.0101C31.3484 37.3195 32.4119 38.3798 33.7212 38.3829H39.2784C40.5908 38.3798 41.6543 37.3163 41.6573 36.0039V2.80587L31.3423 2.80571Z" fill="black"/>
<path d="M36.4993 25.6033C35.863 25.6033 35.3467 25.09 35.3467 24.4538V1.65319C35.3467 1.01695 35.8631 0.50061 36.4993 0.50061C37.1355 0.50061 37.6518 1.01698 37.6518 1.65319V24.4538C37.6518 24.7581 37.5289 25.0501 37.3137 25.2683C37.0986 25.4835 36.8036 25.6033 36.4993 25.6033Z" fill="black"/>
<path d="M12.4297 37.7385H1.15258C0.51634 37.7385 0 37.2221 0 36.5859C0 35.9466 0.516371 35.4333 1.15258 35.4333H11.277V21.2944C11.277 20.8795 11.4952 20.5014 11.8548 20.2955L19.4683 15.9002L19.4652 1.65429C19.4652 1.01805 19.9816 0.501709 20.6178 0.501709C21.2571 0.501709 21.7703 1.01808 21.7703 1.65429V16.5612C21.7703 16.9731 21.5521 17.3542 21.1956 17.5601L13.5822 21.9554V36.5829C13.5822 36.8903 13.4623 37.1823 13.2441 37.3975C13.0289 37.6157 12.7371 37.7385 12.4297 37.7385Z" fill="black"/>
<path d="M71.8465 37.7381H60.5662C59.93 37.7381 59.4167 37.2217 59.4167 36.5855V21.9579L51.8064 17.5626H51.8033C51.4467 17.3536 51.2285 16.9756 51.2285 16.5637V1.65368C51.2285 1.01744 51.7418 0.501099 52.3811 0.501099C53.0173 0.501099 53.5337 1.01747 53.5337 1.65368V15.8973L61.144 20.2925C61.5006 20.4985 61.7188 20.8796 61.7219 21.2914V35.4304H71.8463C72.4825 35.4304 72.9989 35.9468 72.9989 36.583C72.9989 37.2192 72.4825 37.7355 71.8463 37.7355L71.8465 37.7381Z" fill="black"/>
</svg>
