<svg width="84" height="84" viewBox="0 0 84 84" fill="none" xmlns="http://www.w3.org/2000/svg">
<g clip-path="url(#clip0_2738_10483)">
<path d="M61.8716 64.6343C60.6439 69.7443 52.0046 73.7034 41.5237 73.7034C31.0429 73.7034 22.4035 69.7443 21.1759 64.6343C23.447 69.284 31.7028 72.7366 41.5237 72.7366C51.3447 72.7366 59.6005 69.284 61.8716 64.6343ZM41.5237 52.0819C30.4751 52.0819 21.4828 56.5474 21.4828 62.041C21.4828 67.5346 30.4751 72.0001 41.5237 72.0001C52.5723 72.0001 61.5647 67.5346 61.5647 62.041C61.5647 56.5474 52.5723 52.0819 41.5237 52.0819ZM41.5237 51.7136C52.8485 51.7136 62.025 56.3325 62.025 62.041C62.025 67.7494 52.8485 72.3684 41.5237 72.3684C30.1989 72.3684 21.0225 67.7494 21.0225 62.041C21.0225 56.3325 30.1989 51.7136 41.5237 51.7136ZM60.3217 62.5934L57.6363 63.821L59.1248 64.6497L59.4317 64.8185L59.1094 64.9719L56.4393 66.1996L57.9278 67.0282L58.2347 67.197L53.7539 69.2686L53.4317 69.4221L52.2654 69.9591L51.9432 70.0973L50.7769 70.6343L50.4547 70.7878L50.1478 70.619L48.6286 69.775L45.6363 71.1407L45.3294 70.9719L43.8562 70.1433L41.1708 71.3709L40.8485 71.5244L40.5416 71.3556L39.0531 70.5269L37.8716 71.064L37.5493 71.2021L37.2424 71.0333L33.9739 69.2072L32.8383 69.729L32.5161 69.8824L32.2245 69.7136L25.3805 65.908L25.0736 65.7392L25.3959 65.6011L26.5314 65.0794L23.2475 63.2379L22.9406 63.0691L23.2629 62.9157L24.4291 62.3786L22.9713 61.5653L22.6644 61.3965L22.9867 61.243L25.6567 60.0154L24.1682 59.1868L23.8613 59.018L24.1836 58.8645L26.869 57.6369L25.3805 56.8083L25.089 56.6395L25.4112 56.486L32.5774 53.1868L32.8997 53.0333L33.2066 53.2021L34.6797 54.0308L37.3498 52.8031L37.6721 52.6497L37.979 52.8185L39.4675 53.6471L42.1529 52.4195L42.4751 52.2661L42.782 52.4349L44.2705 53.2635L45.4521 52.7264L45.7744 52.573L46.0813 52.7418L49.3498 54.5678L50.5314 54.0308L50.8537 53.8773L51.1606 54.0461L57.9892 57.8517L58.2961 58.0205L57.9739 58.174L56.7923 58.7264L58.2808 59.5551L58.5877 59.7239L60.0762 60.5525L60.3831 60.7213L60.0608 60.8748L58.8946 61.4118L60.3677 62.2405L60.6746 62.4093L60.3524 62.5627L60.3217 62.5934ZM58.2501 59.9233L57.0685 60.4604L58.557 61.2891L59.7232 60.752L58.2501 59.9233ZM57.0531 61.9796L58.2347 61.4425L56.7462 60.6139L55.5647 61.151L57.0378 61.9796H57.0531ZM54.6286 66.7213L55.7948 66.1842L54.3063 65.3556L53.1401 65.8926L54.6132 66.7213H54.6286ZM54.9202 68.4093L56.1017 67.8722L54.5979 67.0282L53.4163 67.5653L54.9202 68.4093ZM45.3447 69.1612L46.511 68.6241L45.0225 67.7955L43.8562 68.3325L45.3294 69.1612H45.3447ZM32.1938 67.9336L33.3754 67.3965L31.9023 66.5678L30.7207 67.1049L32.1938 67.9336ZM30.4138 66.9361L31.58 66.399L30.1069 65.5704L28.9253 66.1075L30.4138 66.9361ZM26.2245 61.8875L25.0429 62.4246L26.5468 63.2686L27.7283 62.7315L26.2245 61.8875ZM27.4675 59.5397L26.2859 60.0768L27.7437 60.8901L28.9253 60.353L27.4675 59.5397ZM31.3959 54.1075L30.2143 54.6446L31.6874 55.4732L32.869 54.9361L31.3805 54.1075H31.3959ZM37.9636 54.7213L36.7974 55.2584L38.2705 56.087L39.4521 55.5499L37.979 54.7213H37.9636ZM42.7514 54.3377L41.5698 54.8747L43.0583 55.7034L44.2398 55.1663L42.7514 54.3377ZM46.0352 54.6446L44.8537 55.1817L46.3268 56.0103L47.5084 55.4732L46.0352 54.6446ZM54.3984 56.2558L53.2168 56.7929L54.7053 57.6216L55.8869 57.0845L54.4138 56.2558H54.3984ZM54.6746 57.9285L53.493 58.4655L54.9815 59.2942L56.1631 58.7571L54.6746 57.9285ZM43.5493 68.1638L44.7156 67.6267L43.2271 66.798L42.0608 67.3351L43.534 68.1638H43.5493ZM38.7616 68.5474L39.9432 68.0103L38.4547 67.1817L37.2731 67.7187L38.7616 68.5474ZM33.6977 67.243L34.8792 66.706L33.4061 65.8773L32.2245 66.4144L33.6977 67.243ZM31.9176 66.2456L33.0992 65.7085L31.626 64.8799L30.4445 65.4169L31.9176 66.2456ZM29.8306 63.8824L28.6491 64.4195L30.1375 65.2482L31.3038 64.7111L29.8306 63.8824ZM29.2322 60.5065L28.0506 61.0435L29.5544 61.8875L30.736 61.3504L29.2322 60.5065ZM33.4675 56.7776L32.3012 57.3146L33.759 58.1279L34.9406 57.5909L33.4675 56.7776ZM39.7437 55.7034L38.5621 56.2405L40.0506 57.0691L41.2322 56.532L39.7437 55.7034ZM41.8613 56.5627L43.3345 57.3914L44.5007 56.8543L43.0276 56.0256L41.846 56.5627H41.8613ZM51.713 57.4834L53.2015 58.3121L54.3831 57.775L52.9099 56.9464L51.7283 57.4834H51.713ZM52.2654 62.3632L53.447 61.8262L51.9585 60.9975L50.7769 61.5346L52.2501 62.3632H52.2654ZM49.2271 65.5551L47.7539 64.7264L46.5723 65.2635L48.0608 66.0921L49.2424 65.5551H49.2271ZM39.9892 66.1689L41.1555 65.6318L39.6823 64.8031L38.5007 65.3402L39.9739 66.1689H39.9892ZM36.69 65.862L37.8716 65.3249L36.3984 64.4962L35.2168 65.0333L36.69 65.862ZM35.2322 57.775L34.0506 58.3121L35.5544 59.1561L36.736 58.619L35.2475 57.7903L35.2322 57.775ZM38.8537 57.9285L40.3268 58.7571L41.5084 58.22L40.0352 57.3914L38.8537 57.9285ZM44.823 57.0077L43.6567 57.5448L45.1299 58.3735L46.3115 57.8364L44.8383 57.0077H44.823ZM40.8792 63.9591L39.4061 63.1305L38.2245 63.6676L39.6977 64.4962L40.8792 63.9591ZM32.8537 60.6906L34.3268 61.5192L35.5084 60.9822L34.0352 60.1535L32.8537 60.6906ZM34.3575 60.0001L35.8306 60.8287L37.0122 60.2916L35.5391 59.463L34.3575 60.0001ZM40.3268 59.0794L39.1452 59.6164L40.6184 60.4451L41.8 59.908L40.3268 59.0794ZM45.1145 58.6957L43.9329 59.2328L45.4061 60.0614L46.5877 59.5244L45.1145 58.6957ZM47.1708 61.3658L45.9892 61.9029L47.4777 62.7315L48.6439 62.1944L47.1708 61.3658ZM43.8716 62.5781L42.3984 61.7494L41.2168 62.2865L42.69 63.1152L43.8716 62.5781ZM39.0992 62.9617L37.6107 62.1331L36.4291 62.6701L37.9176 63.4988L39.0992 62.9617ZM36.1529 60.9975L37.626 61.8262L38.8076 61.2891L37.3345 60.4604L36.1529 60.9975ZM35.8306 61.1356L34.6491 61.6727L36.1222 62.5013L37.3038 61.9643L35.8306 61.1356ZM39.4061 62.8082L40.5877 62.2712L39.0992 61.4425L37.9176 61.9796L39.3907 62.8082H39.4061ZM40.9099 62.1177L42.0915 61.5806L40.6184 60.752L39.4368 61.2891L40.9099 62.1177ZM42.4138 61.4272L43.5953 60.8901L42.1222 60.0614L40.9406 60.5985L42.4138 61.4272ZM44.1938 62.4246L45.3754 61.8875L43.9023 61.0589L42.7207 61.596L44.1938 62.4246ZM44.2092 60.9208L45.6823 61.7494L46.8639 61.2123L45.3907 60.3837L44.2092 60.9208ZM44.5007 62.5934L45.9892 63.4221L47.1708 62.885L45.6976 62.0563L44.5161 62.5934H44.5007ZM48.3677 60.5218L46.8946 59.6932L45.713 60.2302L47.1861 61.0589L48.3677 60.5218ZM43.6107 59.3863L42.4291 59.9233L43.9023 60.752L45.0838 60.2149L43.6107 59.3863ZM38.823 59.7699L37.6414 60.307L39.1299 61.1356L40.3115 60.5985L38.8383 59.7699H38.823ZM38.5161 59.6011L37.0429 58.7724L35.8613 59.3095L37.3345 60.1382L38.5161 59.6011ZM34.3268 61.8262L33.1606 62.3632L34.6337 63.1919L35.8153 62.6548L34.3422 61.8262H34.3268ZM32.823 62.5167L31.6414 63.0538L33.1145 63.8824L34.2961 63.3453L32.823 62.5167ZM34.9253 63.3607L36.3984 64.1893L37.58 63.6522L36.1069 62.8236L34.9406 63.3607H34.9253ZM36.7207 64.3581L38.1938 65.1868L39.3754 64.6497L37.9023 63.821L36.7207 64.3581ZM41.2015 63.8057L42.3831 63.2686L40.9099 62.44L39.7283 62.977L41.2015 63.8057ZM41.493 63.9745L42.9815 64.8031L44.1631 64.2661L42.69 63.4374L41.5084 63.9745H41.493ZM44.4854 64.1126L45.667 63.5755L44.1785 62.7469L42.9969 63.284L44.4854 64.1126ZM46.2808 63.5909L47.7693 64.4195L48.9508 63.8824L47.4624 63.0538L46.2808 63.5909ZM48.0762 64.5883L49.5493 65.4169L50.7309 64.8799L49.2578 64.0512L48.0762 64.5883ZM49.2731 63.729L50.4393 63.1919L48.9508 62.3632L47.7846 62.9003L49.2578 63.729H49.2731ZM48.9815 62.0563L50.1631 61.5192L48.6746 60.6906L47.493 61.2277L48.9815 62.0563ZM50.4854 61.3658L51.667 60.8287L50.1938 60.0001L49.0122 60.5372L50.4854 61.3658ZM49.8716 59.8313L48.3984 59.0026L47.2168 59.5397L48.69 60.3684L49.8716 59.8313ZM50.1938 59.6778L51.3754 59.1407L49.9023 58.3121L48.7207 58.8492L50.1938 59.6778ZM49.5953 58.1433L48.1069 57.3146L46.9406 57.8517L48.4138 58.6804L49.5953 58.1433ZM46.603 58.0052L45.4214 58.5423L46.9099 59.3709L48.0915 58.8338L46.6184 58.0052H46.603ZM43.3191 57.6983L42.1375 58.2354L43.626 59.064L44.7923 58.5269L43.3191 57.6983ZM41.8306 58.3888L40.6491 58.9259L42.1222 59.7545L43.2884 59.2175L41.8153 58.3888H41.8306ZM38.5468 58.0819L37.3652 58.619L38.8383 59.4476L40.0199 58.9106L38.5314 58.0819H38.5468ZM38.2398 57.9131L36.7514 57.0845L35.5698 57.6216L37.0583 58.4502L38.2398 57.9131ZM33.7437 58.4502L32.5621 58.9873L34.0659 59.8159L35.2475 59.2788L33.7437 58.4502ZM32.2399 59.1407L31.0583 59.6778L32.5621 60.5218L33.7437 59.9847L32.2399 59.1561V59.1407ZM31.3652 61.3658L32.8383 62.1944L34.0046 61.6574L32.5314 60.8287L31.3498 61.3658H31.3652ZM31.0429 61.5192L29.8613 62.0563L31.3345 62.885L32.5161 62.3479L31.0429 61.5192ZM31.3191 63.1919L30.1375 63.729L31.6107 64.5576L32.7923 64.0205L31.3191 63.1919ZM31.9329 64.7264L33.4061 65.5551L34.5877 65.018L33.1145 64.1893L31.9329 64.7264ZM34.9099 64.8645L36.0915 64.3274L34.6184 63.4988L33.4368 64.0359L34.9099 64.8645ZM36.9969 66.0308L38.4854 66.8594L39.667 66.3223L38.1785 65.4937L36.9969 66.0308ZM41.4777 65.4783L42.6593 64.9412L41.1861 64.1126L40.0046 64.6497L41.4777 65.4783ZM41.7846 65.6625L43.2731 66.4911L44.4547 65.954L42.9662 65.1254L41.7846 65.6625ZM44.7616 65.8006L45.9432 65.2635L44.4547 64.4348L43.2731 64.9719L44.7616 65.8006ZM46.2654 65.11L47.447 64.573L45.9585 63.7443L44.7769 64.2814L46.2654 65.11ZM49.8562 65.5857L51.3294 66.4144L52.511 65.8773L51.0378 65.0487L49.8562 65.5857ZM51.0532 64.7264L52.2194 64.1893L50.7462 63.3607L49.5647 63.8978L51.0378 64.7264H51.0532ZM50.7769 63.0384L51.9585 62.5013L50.47 61.6727L49.3038 62.2098L50.7769 63.0384ZM51.9739 60.6753L53.1554 60.1382L51.6823 59.3095L50.5007 59.8466L51.9739 60.6753ZM53.4777 59.9847L54.6593 59.4476L53.1861 58.619L52.0046 59.1561L53.4777 59.9847ZM51.3907 57.6216L50.2092 58.1586L51.6823 58.9873L52.8639 58.4502L51.3907 57.6216ZM51.0838 57.4528L49.6107 56.6241L48.4291 57.1612L49.9023 57.9898L51.0838 57.4528ZM47.8 57.1458L46.3268 56.3172L45.1452 56.8543L46.6184 57.6829L47.8 57.1458ZM46.0199 56.1484L44.5468 55.3198L43.3652 55.8568L44.8383 56.6855L46.0046 56.1484H46.0199ZM41.5391 56.7008L40.3575 57.2379L41.8306 58.0666L43.0122 57.5295L41.5391 56.7008ZM38.2398 56.3939L37.0583 56.931L38.5468 57.7597L39.7283 57.2226L38.2398 56.3939ZM36.4445 56.9157L34.9713 56.1024L33.7897 56.6395L35.2629 57.4528L36.4445 56.9157ZM34.6644 55.9182L33.1913 55.0896L32.0097 55.6267L33.4828 56.4553L34.6644 55.9182ZM31.9636 57.4681L30.7974 58.0052L32.2552 58.8185L33.4368 58.2814L31.9636 57.4681ZM30.4751 58.1586L29.2936 58.6957L30.7514 59.509L31.9329 58.9719L30.4598 58.1586H30.4751ZM30.736 59.8159L29.5544 60.353L31.0583 61.197L32.2399 60.6599L30.736 59.8159ZM28.3575 62.7469L29.8306 63.5755L31.0122 63.0384L29.5391 62.2098L28.3575 62.7469ZM35.2015 66.5525L36.3831 66.0154L34.9099 65.1868L33.7283 65.7239L35.2015 66.5525ZM35.5084 66.7213L36.9815 67.5499L38.1631 67.0129L36.6746 66.1842L35.493 66.7213H35.5084ZM40.2654 67.8568L41.447 67.3198L39.9585 66.4911L38.7769 67.0282L40.2654 67.8568ZM41.7693 67.1663L42.9355 66.6292L41.447 65.8006L40.2654 66.3377L41.7539 67.1663H41.7693ZM45.0531 67.4732L46.2347 66.9361L44.7616 66.1075L43.58 66.6446L45.0531 67.4732ZM46.557 66.7827L47.7386 66.2456L46.2654 65.4169L45.0838 65.954L46.5723 66.7827H46.557ZM46.8485 66.9515L48.3217 67.7801L49.5033 67.243L48.0301 66.4144L46.8485 66.9515ZM49.8409 67.0896L51.0225 66.5525L49.5493 65.7239L48.3831 66.2609L49.8562 67.0896H49.8409ZM51.6363 66.5832L53.1094 67.4118L54.291 66.8747L52.8179 66.0461L51.6363 66.5832ZM52.8332 65.7239L54.0148 65.1868L52.5416 64.3581L51.3601 64.8952L52.8332 65.7239ZM52.557 64.0359L53.7232 63.4988L52.2501 62.6701L51.0685 63.2072L52.5416 64.0359H52.557ZM54.0455 63.3453L55.2271 62.8082L53.7539 61.9796L52.5723 62.5167L54.0455 63.3453ZM53.7693 61.6727L54.9508 61.1356L53.4777 60.307L52.2961 60.8441L53.7693 61.6727ZM55.2731 60.9822L56.4547 60.4451L54.9662 59.6164L53.7846 60.1535L55.2731 60.9822ZM54.0915 56.087L52.6184 55.2584L51.4368 55.7955L52.9099 56.6241L54.0915 56.087ZM51.1145 55.9489L49.9329 56.486L51.4061 57.3146L52.5877 56.7776L51.1145 55.9489ZM50.8076 55.7801L49.3345 54.9515L48.1529 55.4886L49.6414 56.3172L50.8076 55.7801ZM47.8306 55.642L46.6491 56.1791L48.1222 57.0077L49.3038 56.4707L47.8306 55.642ZM45.7437 54.4758L44.2552 53.6471L43.0736 54.1842L44.5621 55.0129L45.7437 54.4758ZM41.2475 55.0129L40.0659 55.5499L41.5544 56.3786L42.736 55.8415L41.2475 55.0129ZM40.9406 54.8594L39.4675 54.0308L38.2859 54.5678L39.759 55.3811L40.9406 54.8441V54.8594ZM36.4751 55.3965L35.2936 55.9336L36.7667 56.7469L37.9483 56.2098L36.4751 55.3811V55.3965ZM36.1682 55.2277L34.6797 54.399L33.5135 54.9361L34.9867 55.7648L36.1682 55.2277ZM31.6874 55.7801L30.5212 56.3172L32.0097 57.1458L33.1759 56.6088L31.7028 55.7801H31.6874ZM30.1836 56.4707L29.002 57.0077L30.4905 57.8364L31.6721 57.2993L30.1836 56.4707ZM28.6951 57.1612L27.5135 57.6983L29.002 58.5269L30.1836 57.9898L28.6951 57.1612ZM28.9713 58.8492L27.7897 59.3863L29.2475 60.1996L30.4291 59.6625L28.9713 58.8492ZM27.7283 61.197L26.5468 61.7341L28.0506 62.5781L29.2322 62.041L27.7283 61.197ZM26.869 63.4374L28.3422 64.2661L29.5237 63.729L28.0506 62.9003L26.869 63.4374ZM28.3268 64.573L27.1606 65.11L28.6337 65.9387L29.8 65.4016L28.3268 64.573ZM32.5007 68.1024L33.9739 68.931L35.1555 68.3939L33.667 67.5653L32.4854 68.1024H32.5007ZM35.4777 68.2405L36.6593 67.7034L35.1708 66.8747L33.9892 67.4118L35.4624 68.2405H35.4777ZM35.7846 68.4093L37.2731 69.2379L38.4547 68.7008L36.9662 67.8722L35.7846 68.4093ZM37.58 69.3914L39.0531 70.22L40.2347 69.6829L38.7616 68.8543L37.58 69.3914ZM40.557 69.5448L41.7386 69.0077L40.2654 68.1791L39.0838 68.7162L40.5723 69.5448H40.557ZM42.0455 68.8543L43.2271 68.3172L41.7539 67.4886L40.5723 68.0256L42.0455 68.8543ZM42.3524 69.0231L43.8255 69.8517L45.0071 69.3146L43.534 68.486L42.3524 69.0231ZM46.8332 68.4707L48.0148 67.9336L46.5416 67.1049L45.3601 67.642L46.8332 68.4707ZM47.1401 68.6395L48.6132 69.4681L49.7948 68.931L48.3063 68.1024L47.1248 68.6395H47.1401ZM50.1171 68.7776L51.2987 68.2405L49.8102 67.4118L48.6286 67.9489L50.1017 68.7776H50.1171ZM51.6209 68.087L52.8025 67.5499L51.3294 66.7213L50.1478 67.2584L51.6209 68.087ZM54.337 65.0333L55.5033 64.4962L54.0301 63.6676L52.8485 64.2047L54.337 65.0333ZM55.8409 64.3428L57.0225 63.8057L55.534 62.977L54.3677 63.5141L55.8409 64.3428ZM55.5493 62.6701L56.7309 62.1331L55.2578 61.3044L54.0762 61.8415L55.5493 62.6701ZM56.47 58.9259L55.2884 59.463L56.7769 60.2916L57.9585 59.7545L56.47 58.9259ZM57.667 58.0819L56.1785 57.2533L54.9969 57.7903L56.4854 58.619L57.667 58.0819ZM49.6414 54.798L51.1299 55.6267L52.2961 55.0896L50.823 54.2609L49.6414 54.798ZM49.0276 54.7827L47.5544 53.954L46.3728 54.4911L47.846 55.3198L49.0276 54.7827ZM44.5774 53.4937L46.0659 54.3223L47.2475 53.7852L45.759 52.9566L44.5774 53.4937ZM41.2936 53.1868L42.7667 54.0154L43.9483 53.4783L42.4751 52.6497L41.2936 53.1868ZM39.7897 53.8773L41.2629 54.706L42.4445 54.1689L40.9713 53.3402L39.8051 53.8773H39.7897ZM36.5058 53.5704L37.979 54.399L39.1606 53.862L37.6721 53.0333L36.4905 53.5704H36.5058ZM35.0173 54.2609L36.4905 55.0896L37.6721 54.5525L36.1989 53.7239L35.0173 54.2609ZM31.7335 53.954L33.2066 54.7827L34.3728 54.2456L32.8997 53.4169L31.7181 53.954H31.7335ZM28.7258 55.3351L30.2143 56.1638L31.3805 55.6267L29.9074 54.798L28.7258 55.3351ZM27.2219 56.0103L28.7104 56.8389L29.892 56.3019L28.4035 55.4732L27.2219 56.0103ZM27.2066 57.5295L28.3882 56.9924L26.8997 56.1638L25.7181 56.7008L27.2066 57.5295ZM26.0097 58.3888L27.4982 59.2175L28.6797 58.6804L27.1913 57.8517L26.0097 58.3888ZM25.9943 59.908L27.1759 59.3709L25.6874 58.5423L24.5058 59.0794L25.979 59.908H25.9943ZM24.7974 60.752L26.2552 61.5653L27.4368 61.0282L25.979 60.2149L24.7974 60.752ZM24.7514 62.2558L25.9329 61.7187L24.4751 60.9054L23.2936 61.4425L24.7514 62.2558ZM23.5544 63.1152L25.0736 63.9591L26.2552 63.4221L24.7514 62.5781L23.5698 63.1152H23.5544ZM26.8383 64.9412L28.0046 64.4042L26.5314 63.5755L25.3498 64.1126L26.8383 64.9412ZM25.6874 65.7852L27.1606 66.6139L28.2961 66.0921L26.823 65.2635L25.6874 65.7852ZM27.4675 66.7827L28.9406 67.6113L30.0915 67.0896L28.6184 66.2609L27.4828 66.7827H27.4675ZM29.2475 67.7801L30.7207 68.6088L31.8562 68.087L30.3831 67.2584L29.2475 67.7801ZM33.667 69.0691L32.1785 68.2405L31.0429 68.7622L32.5161 69.5909L33.6516 69.0691H33.667ZM34.2808 69.0845L35.7693 69.9131L36.9508 69.376L35.4624 68.5474L34.2808 69.0845ZM38.7309 70.3735L37.2578 69.5448L36.0762 70.0819L37.5493 70.9106L38.7309 70.3735ZM42.0148 70.6804L40.5416 69.8517L39.3754 70.3888L40.8485 71.2175L42.0301 70.6804H42.0148ZM43.5186 69.9898L42.0301 69.1612L40.8485 69.6983L42.3217 70.5269L43.5033 69.9898H43.5186ZM45.6209 70.8338L46.8025 70.2967L45.3294 69.4681L44.1478 70.0052L45.6209 70.8338ZM48.291 69.6062L46.8179 68.7776L45.6516 69.3146L47.1248 70.1433L48.3063 69.6062H48.291ZM51.6209 69.9438L50.1017 69.0998L48.9202 69.6369L50.4393 70.4809L51.6209 69.9438ZM53.1094 69.2533L51.6056 68.4093L50.424 68.9464L51.9432 69.7903L53.1248 69.2533H53.1094ZM54.6132 68.5627L53.1094 67.7187L51.9278 68.2558L53.447 69.0998L54.6132 68.5627ZM56.1017 66.3377L54.9202 66.8747L56.424 67.7187L57.5902 67.1817L56.0864 66.3377H56.1017ZM57.2987 65.4937L55.8255 64.665L54.6593 65.2021L56.1478 66.0308L57.314 65.4937H57.2987ZM57.314 63.9745L56.1324 64.5116L57.6056 65.3402L58.7872 64.8031L57.2987 63.9745H57.314ZM58.5109 63.1152L57.0378 62.2865L55.8562 62.8236L57.3294 63.6522L58.5109 63.1152ZM60.0148 62.4246L58.5416 61.596L57.3601 62.1331L58.8332 62.9617L60.0148 62.4246Z" fill="#231F20"/>
<mask id="path-2-outside-1_2738_10483" maskUnits="userSpaceOnUse" x="-0.693359" y="-0.677734" width="85" height="85" fill="black">
<rect fill="white" x="-0.693359" y="-0.677734" width="85" height="85"/>
<path d="M0.813034 83.6931C0.53682 83.6931 0.306641 83.4629 0.306641 83.1867V76.5422C0.306641 76.4348 0.337331 76.3274 0.398712 76.2506L20.3322 48.353C20.4243 48.2148 20.5777 48.1381 20.7465 48.1381H39.1148L34.9409 42.3069C34.8335 42.1535 34.8181 41.954 34.8949 41.7852L37.1813 37.2123H35.3552C35.1864 37.2123 35.0483 37.1356 34.9563 37.0128L23.0023 21.0691C23.0023 21.0537 22.9869 21.0384 22.9716 21.0077V20.9617C22.9409 20.9463 22.9256 20.931 22.9256 20.9003C22.9256 20.8696 22.9102 20.8082 22.9102 20.7622C22.9102 20.7315 22.9102 20.7008 22.9102 20.6547V10.6189H12.7977C12.5215 10.6189 12.2913 10.3888 12.2913 10.1125V2.14835C12.2913 1.87214 12.5215 1.64196 12.7977 1.64196H37.5189V0.828659C37.5189 0.552445 37.7491 0.322266 38.0253 0.322266H45.9895C46.2657 0.322266 46.4959 0.552445 46.4959 0.828659V1.64196H71.2171C71.4933 1.64196 71.7235 1.87214 71.7235 2.14835V10.1125C71.7235 10.3888 71.4933 10.6189 71.2171 10.6189H61.1046V20.6394C61.1046 20.6547 61.1046 20.7468 61.1046 20.7468C61.1046 20.8082 61.1046 20.8542 61.0892 20.8849C61.0892 20.9003 61.0739 20.9156 61.0586 20.9463C61.0432 20.9923 61.0279 21.0384 61.0125 21.0537L49.0739 36.9821C48.9818 37.1049 48.8284 37.1816 48.6596 37.1816H46.8335L49.1199 41.7545C49.1967 41.9233 49.1967 42.1228 49.0739 42.2762L44.9 48.1074H63.2683C63.4371 48.1074 63.5905 48.1842 63.6826 48.3223L83.6161 76.22C83.6775 76.312 83.7082 76.4041 83.7082 76.5115V77.3248V83.156C83.7082 83.4322 83.478 83.6624 83.2018 83.6624H0.813034V83.6931ZM1.33477 82.665H82.68V77.0486H1.33477V82.665ZM1.81048 76.0358H82.189L62.9921 49.1663H44.1634L42.5061 51.468V60.5985C42.5061 60.8747 42.276 61.1049 41.9997 61.1049C41.7235 61.1049 41.4933 60.8747 41.4933 60.5985V51.468L39.8361 49.1663H21.0074L1.81048 76.0358ZM35.9537 41.954L41.9997 50.4246L48.0458 41.954L45.6673 37.1969H38.3322L35.9537 41.954ZM35.6161 36.1688H48.3834L59.5701 21.2532H24.4141L35.6008 36.1688H35.6161ZM55.2887 16.2507C55.5649 16.2507 55.7951 16.4808 55.7951 16.757V20.2251H60.0918V10.6189H46.4959V11.4322C46.4959 11.7085 46.2657 11.9386 45.9895 11.9386H38.0253C37.7491 11.9386 37.5189 11.7085 37.5189 11.4322V10.6189H23.923V20.2251H28.2197V16.7417C28.2197 16.4655 28.4499 16.2353 28.7261 16.2353C29.0023 16.2353 29.2325 16.4655 29.2325 16.7417V20.2251H34.8488V16.7417C34.8488 16.4655 35.079 16.2353 35.3552 16.2353C35.6314 16.2353 35.8616 16.4655 35.8616 16.7417V20.2251H41.478V16.7417C41.478 16.4655 41.7082 16.2353 41.9844 16.2353C42.2606 16.2353 42.4908 16.4655 42.4908 16.7417V20.2251H48.1072V16.7417C48.1072 16.4655 48.3373 16.2353 48.6135 16.2353C48.8898 16.2353 49.1199 16.4655 49.1199 16.7417V20.2251H54.7363V16.7417C54.7363 16.4655 54.9665 16.2353 55.2427 16.2353L55.2887 16.2507ZM38.5317 10.9412H45.4831V1.33505H38.5317V10.9412ZM46.4959 9.60615H70.7107V2.65475H46.4959V9.60615ZM13.2887 9.60615H37.5036V2.65475H13.2887V9.60615ZM56.6084 43.8414C56.3322 43.8414 56.102 43.6113 56.102 43.335C56.102 43.0588 56.3322 42.8287 56.6084 42.8287H59.2632C59.5394 42.8287 59.7696 43.0588 59.7696 43.335C59.7696 43.6113 59.5394 43.8414 59.2632 43.8414H56.6084ZM24.7363 43.8414C24.4601 43.8414 24.2299 43.6113 24.2299 43.335C24.2299 43.0588 24.4601 42.8287 24.7363 42.8287H27.391C27.6673 42.8287 27.8974 43.0588 27.8974 43.335C27.8974 43.6113 27.6673 43.8414 27.391 43.8414H24.7363ZM55.2887 38.5166C55.1506 38.5166 55.0279 38.4706 54.9204 38.3632C54.721 38.1637 54.721 37.8414 54.9204 37.642L56.2555 36.3069C56.3476 36.2148 56.4857 36.1535 56.6238 36.1535C56.7619 36.1535 56.8846 36.1995 56.9921 36.3069C57.1915 36.5064 57.1915 36.8287 56.9921 37.0281L55.657 38.3632C55.5343 38.4859 55.3808 38.5166 55.2887 38.5166ZM28.7107 38.5166C28.5726 38.5166 28.4499 38.4706 28.3424 38.3632L27.0074 37.0281C26.8079 36.8287 26.8079 36.5064 27.0074 36.3069C27.0995 36.2148 27.2376 36.1535 27.3757 36.1535C27.5138 36.1535 27.6366 36.1995 27.744 36.3069L29.079 37.642C29.2785 37.8414 29.2785 38.1637 29.079 38.3632C28.9563 38.4859 28.8028 38.5166 28.7107 38.5166Z"/>
</mask>
<path d="M0.813034 83.6931C0.53682 83.6931 0.306641 83.4629 0.306641 83.1867V76.5422C0.306641 76.4348 0.337331 76.3274 0.398712 76.2506L20.3322 48.353C20.4243 48.2148 20.5777 48.1381 20.7465 48.1381H39.1148L34.9409 42.3069C34.8335 42.1535 34.8181 41.954 34.8949 41.7852L37.1813 37.2123H35.3552C35.1864 37.2123 35.0483 37.1356 34.9563 37.0128L23.0023 21.0691C23.0023 21.0537 22.9869 21.0384 22.9716 21.0077V20.9617C22.9409 20.9463 22.9256 20.931 22.9256 20.9003C22.9256 20.8696 22.9102 20.8082 22.9102 20.7622C22.9102 20.7315 22.9102 20.7008 22.9102 20.6547V10.6189H12.7977C12.5215 10.6189 12.2913 10.3888 12.2913 10.1125V2.14835C12.2913 1.87214 12.5215 1.64196 12.7977 1.64196H37.5189V0.828659C37.5189 0.552445 37.7491 0.322266 38.0253 0.322266H45.9895C46.2657 0.322266 46.4959 0.552445 46.4959 0.828659V1.64196H71.2171C71.4933 1.64196 71.7235 1.87214 71.7235 2.14835V10.1125C71.7235 10.3888 71.4933 10.6189 71.2171 10.6189H61.1046V20.6394C61.1046 20.6547 61.1046 20.7468 61.1046 20.7468C61.1046 20.8082 61.1046 20.8542 61.0892 20.8849C61.0892 20.9003 61.0739 20.9156 61.0586 20.9463C61.0432 20.9923 61.0279 21.0384 61.0125 21.0537L49.0739 36.9821C48.9818 37.1049 48.8284 37.1816 48.6596 37.1816H46.8335L49.1199 41.7545C49.1967 41.9233 49.1967 42.1228 49.0739 42.2762L44.9 48.1074H63.2683C63.4371 48.1074 63.5905 48.1842 63.6826 48.3223L83.6161 76.22C83.6775 76.312 83.7082 76.4041 83.7082 76.5115V77.3248V83.156C83.7082 83.4322 83.478 83.6624 83.2018 83.6624H0.813034V83.6931ZM1.33477 82.665H82.68V77.0486H1.33477V82.665ZM1.81048 76.0358H82.189L62.9921 49.1663H44.1634L42.5061 51.468V60.5985C42.5061 60.8747 42.276 61.1049 41.9997 61.1049C41.7235 61.1049 41.4933 60.8747 41.4933 60.5985V51.468L39.8361 49.1663H21.0074L1.81048 76.0358ZM35.9537 41.954L41.9997 50.4246L48.0458 41.954L45.6673 37.1969H38.3322L35.9537 41.954ZM35.6161 36.1688H48.3834L59.5701 21.2532H24.4141L35.6008 36.1688H35.6161ZM55.2887 16.2507C55.5649 16.2507 55.7951 16.4808 55.7951 16.757V20.2251H60.0918V10.6189H46.4959V11.4322C46.4959 11.7085 46.2657 11.9386 45.9895 11.9386H38.0253C37.7491 11.9386 37.5189 11.7085 37.5189 11.4322V10.6189H23.923V20.2251H28.2197V16.7417C28.2197 16.4655 28.4499 16.2353 28.7261 16.2353C29.0023 16.2353 29.2325 16.4655 29.2325 16.7417V20.2251H34.8488V16.7417C34.8488 16.4655 35.079 16.2353 35.3552 16.2353C35.6314 16.2353 35.8616 16.4655 35.8616 16.7417V20.2251H41.478V16.7417C41.478 16.4655 41.7082 16.2353 41.9844 16.2353C42.2606 16.2353 42.4908 16.4655 42.4908 16.7417V20.2251H48.1072V16.7417C48.1072 16.4655 48.3373 16.2353 48.6135 16.2353C48.8898 16.2353 49.1199 16.4655 49.1199 16.7417V20.2251H54.7363V16.7417C54.7363 16.4655 54.9665 16.2353 55.2427 16.2353L55.2887 16.2507ZM38.5317 10.9412H45.4831V1.33505H38.5317V10.9412ZM46.4959 9.60615H70.7107V2.65475H46.4959V9.60615ZM13.2887 9.60615H37.5036V2.65475H13.2887V9.60615ZM56.6084 43.8414C56.3322 43.8414 56.102 43.6113 56.102 43.335C56.102 43.0588 56.3322 42.8287 56.6084 42.8287H59.2632C59.5394 42.8287 59.7696 43.0588 59.7696 43.335C59.7696 43.6113 59.5394 43.8414 59.2632 43.8414H56.6084ZM24.7363 43.8414C24.4601 43.8414 24.2299 43.6113 24.2299 43.335C24.2299 43.0588 24.4601 42.8287 24.7363 42.8287H27.391C27.6673 42.8287 27.8974 43.0588 27.8974 43.335C27.8974 43.6113 27.6673 43.8414 27.391 43.8414H24.7363ZM55.2887 38.5166C55.1506 38.5166 55.0279 38.4706 54.9204 38.3632C54.721 38.1637 54.721 37.8414 54.9204 37.642L56.2555 36.3069C56.3476 36.2148 56.4857 36.1535 56.6238 36.1535C56.7619 36.1535 56.8846 36.1995 56.9921 36.3069C57.1915 36.5064 57.1915 36.8287 56.9921 37.0281L55.657 38.3632C55.5343 38.4859 55.3808 38.5166 55.2887 38.5166ZM28.7107 38.5166C28.5726 38.5166 28.4499 38.4706 28.3424 38.3632L27.0074 37.0281C26.8079 36.8287 26.8079 36.5064 27.0074 36.3069C27.0995 36.2148 27.2376 36.1535 27.3757 36.1535C27.5138 36.1535 27.6366 36.1995 27.744 36.3069L29.079 37.642C29.2785 37.8414 29.2785 38.1637 29.079 38.3632C28.9563 38.4859 28.8028 38.5166 28.7107 38.5166Z" fill="#231F20"/>
<path d="M0.813034 83.6931C0.53682 83.6931 0.306641 83.4629 0.306641 83.1867V76.5422C0.306641 76.4348 0.337331 76.3274 0.398712 76.2506L20.3322 48.353C20.4243 48.2148 20.5777 48.1381 20.7465 48.1381H39.1148L34.9409 42.3069C34.8335 42.1535 34.8181 41.954 34.8949 41.7852L37.1813 37.2123H35.3552C35.1864 37.2123 35.0483 37.1356 34.9563 37.0128L23.0023 21.0691C23.0023 21.0537 22.9869 21.0384 22.9716 21.0077V20.9617C22.9409 20.9463 22.9256 20.931 22.9256 20.9003C22.9256 20.8696 22.9102 20.8082 22.9102 20.7622C22.9102 20.7315 22.9102 20.7008 22.9102 20.6547V10.6189H12.7977C12.5215 10.6189 12.2913 10.3888 12.2913 10.1125V2.14835C12.2913 1.87214 12.5215 1.64196 12.7977 1.64196H37.5189V0.828659C37.5189 0.552445 37.7491 0.322266 38.0253 0.322266H45.9895C46.2657 0.322266 46.4959 0.552445 46.4959 0.828659V1.64196H71.2171C71.4933 1.64196 71.7235 1.87214 71.7235 2.14835V10.1125C71.7235 10.3888 71.4933 10.6189 71.2171 10.6189H61.1046V20.6394C61.1046 20.6547 61.1046 20.7468 61.1046 20.7468C61.1046 20.8082 61.1046 20.8542 61.0892 20.8849C61.0892 20.9003 61.0739 20.9156 61.0586 20.9463C61.0432 20.9923 61.0279 21.0384 61.0125 21.0537L49.0739 36.9821C48.9818 37.1049 48.8284 37.1816 48.6596 37.1816H46.8335L49.1199 41.7545C49.1967 41.9233 49.1967 42.1228 49.0739 42.2762L44.9 48.1074H63.2683C63.4371 48.1074 63.5905 48.1842 63.6826 48.3223L83.6161 76.22C83.6775 76.312 83.7082 76.4041 83.7082 76.5115V77.3248V83.156C83.7082 83.4322 83.478 83.6624 83.2018 83.6624H0.813034V83.6931ZM1.33477 82.665H82.68V77.0486H1.33477V82.665ZM1.81048 76.0358H82.189L62.9921 49.1663H44.1634L42.5061 51.468V60.5985C42.5061 60.8747 42.276 61.1049 41.9997 61.1049C41.7235 61.1049 41.4933 60.8747 41.4933 60.5985V51.468L39.8361 49.1663H21.0074L1.81048 76.0358ZM35.9537 41.954L41.9997 50.4246L48.0458 41.954L45.6673 37.1969H38.3322L35.9537 41.954ZM35.6161 36.1688H48.3834L59.5701 21.2532H24.4141L35.6008 36.1688H35.6161ZM55.2887 16.2507C55.5649 16.2507 55.7951 16.4808 55.7951 16.757V20.2251H60.0918V10.6189H46.4959V11.4322C46.4959 11.7085 46.2657 11.9386 45.9895 11.9386H38.0253C37.7491 11.9386 37.5189 11.7085 37.5189 11.4322V10.6189H23.923V20.2251H28.2197V16.7417C28.2197 16.4655 28.4499 16.2353 28.7261 16.2353C29.0023 16.2353 29.2325 16.4655 29.2325 16.7417V20.2251H34.8488V16.7417C34.8488 16.4655 35.079 16.2353 35.3552 16.2353C35.6314 16.2353 35.8616 16.4655 35.8616 16.7417V20.2251H41.478V16.7417C41.478 16.4655 41.7082 16.2353 41.9844 16.2353C42.2606 16.2353 42.4908 16.4655 42.4908 16.7417V20.2251H48.1072V16.7417C48.1072 16.4655 48.3373 16.2353 48.6135 16.2353C48.8898 16.2353 49.1199 16.4655 49.1199 16.7417V20.2251H54.7363V16.7417C54.7363 16.4655 54.9665 16.2353 55.2427 16.2353L55.2887 16.2507ZM38.5317 10.9412H45.4831V1.33505H38.5317V10.9412ZM46.4959 9.60615H70.7107V2.65475H46.4959V9.60615ZM13.2887 9.60615H37.5036V2.65475H13.2887V9.60615ZM56.6084 43.8414C56.3322 43.8414 56.102 43.6113 56.102 43.335C56.102 43.0588 56.3322 42.8287 56.6084 42.8287H59.2632C59.5394 42.8287 59.7696 43.0588 59.7696 43.335C59.7696 43.6113 59.5394 43.8414 59.2632 43.8414H56.6084ZM24.7363 43.8414C24.4601 43.8414 24.2299 43.6113 24.2299 43.335C24.2299 43.0588 24.4601 42.8287 24.7363 42.8287H27.391C27.6673 42.8287 27.8974 43.0588 27.8974 43.335C27.8974 43.6113 27.6673 43.8414 27.391 43.8414H24.7363ZM55.2887 38.5166C55.1506 38.5166 55.0279 38.4706 54.9204 38.3632C54.721 38.1637 54.721 37.8414 54.9204 37.642L56.2555 36.3069C56.3476 36.2148 56.4857 36.1535 56.6238 36.1535C56.7619 36.1535 56.8846 36.1995 56.9921 36.3069C57.1915 36.5064 57.1915 36.8287 56.9921 37.0281L55.657 38.3632C55.5343 38.4859 55.3808 38.5166 55.2887 38.5166ZM28.7107 38.5166C28.5726 38.5166 28.4499 38.4706 28.3424 38.3632L27.0074 37.0281C26.8079 36.8287 26.8079 36.5064 27.0074 36.3069C27.0995 36.2148 27.2376 36.1535 27.3757 36.1535C27.5138 36.1535 27.6366 36.1995 27.744 36.3069L29.079 37.642C29.2785 37.8414 29.2785 38.1637 29.079 38.3632C28.9563 38.4859 28.8028 38.5166 28.7107 38.5166Z" stroke="black" mask="url(#path-2-outside-1_2738_10483)"/>
</g>
<defs>
<clipPath id="clip0_2738_10483">
<rect width="84" height="84" fill="white"/>
</clipPath>
</defs>
</svg>
