<svg width="69" height="81" viewBox="0 0 69 81" fill="none" xmlns="http://www.w3.org/2000/svg">
<g clip-path="url(#clip0_2738_10480)">
<path d="M62.093 21.9069V14.3984H68.1388C68.6133 14.3984 69 14.0255 69 13.5679V1.33063C69 0.873003 68.6133 0.500122 68.1388 0.500122H0.861182C0.386653 0.500122 0 0.873003 0 1.33063V13.5849C0 14.0425 0.386653 14.4154 0.861182 14.4154H6.90703V21.9239C6.90703 22.3815 7.29368 22.7544 7.76821 22.7544H23.4101V37.5849C23.4101 38.0425 23.7967 38.4154 24.2713 38.4154H27.2942L30.4401 46.6357C30.5632 46.9578 30.8795 47.1781 31.2486 47.1781H33.4279V69.4493L30.0886 63.0086C29.8777 62.6018 29.3681 62.4323 28.9287 62.6357C28.5069 62.8391 28.3311 63.3306 28.542 63.7544L32.268 70.9578L14.3589 66.3306C13.9019 66.212 13.4274 66.4832 13.3044 66.9239C13.1814 67.3645 13.445 67.8222 13.9195 67.9408L29.8426 72.0594H0.861182C0.386653 72.0594 0 72.4323 0 72.89V79.7035C0 80.1611 0.386653 80.534 0.861182 80.534H68.1388C68.6133 80.534 69 80.1611 69 79.7035V72.89C69 72.4323 68.6133 72.0594 68.1388 72.0594H38.8235L54.7466 67.9408C55.2035 67.8222 55.4847 67.3645 55.3617 66.9239C55.2387 66.4832 54.7641 66.2289 54.3072 66.3306L36.3981 70.9578L40.124 63.7544C40.3349 63.3476 40.1592 62.8391 39.7374 62.6357C39.3156 62.4323 38.7883 62.6018 38.5774 63.0086L35.1327 69.6527V47.1781H37.312C37.6635 47.1781 37.9799 46.9747 38.1029 46.6696L41.6707 38.4154H44.7112C45.1857 38.4154 45.5723 38.0425 45.5723 37.5849V22.7544H61.2142C61.6887 22.7544 62.0754 22.3815 62.0754 21.9239L62.093 21.9069ZM67.2776 78.8391H1.72236V73.6866H67.2776V78.8391ZM1.72236 2.16114H67.2776V12.7544H1.72236V2.16114ZM36.7496 45.5001H31.8286L29.1044 38.3984H39.8077L36.732 45.5001H36.7496ZM43.8675 36.7374H25.1149V22.7374H43.8675V36.7374ZM8.62939 21.0933V14.4154H60.3706V21.0933H8.62939ZM26.9251 67.6357L21.8811 62.89C21.5471 62.5679 21.5295 62.0425 21.8811 61.7205C22.215 61.3984 22.7598 61.3815 23.0937 61.7205L28.1378 66.4662C28.4717 66.7883 28.4893 67.3137 28.1378 67.6357C27.962 67.8052 27.7511 67.89 27.5227 67.89C27.2942 67.89 27.0833 67.8052 26.9251 67.6527V67.6357ZM46.6972 61.7205C47.0311 62.0425 47.0135 62.5679 46.6972 62.89L41.6531 67.6357C41.4949 67.7883 41.2664 67.873 41.0555 67.873C40.8446 67.873 40.5986 67.7883 40.4404 67.6188C40.1065 67.2967 40.124 66.7713 40.4404 66.4493L45.4845 61.7035C45.8184 61.3815 46.3632 61.3815 46.6972 61.7035V61.7205ZM20.6156 11.2798C22.795 11.2798 24.57 9.56792 24.57 7.46622C24.57 5.36453 22.795 3.65266 20.6156 3.65266C18.4363 3.65266 16.6612 5.36453 16.6612 7.46622C16.6612 9.56792 18.4363 11.2798 20.6156 11.2798ZM20.6156 5.29673C21.8459 5.29673 22.8653 6.26283 22.8653 7.46622C22.8653 8.66961 21.8635 9.63572 20.6156 9.63572C19.3678 9.63572 18.366 8.66961 18.366 7.46622C18.366 6.26283 19.3678 5.29673 20.6156 5.29673ZM34.5 11.2798C36.6793 11.2798 38.4544 9.56792 38.4544 7.46622C38.4544 5.36453 36.6793 3.65266 34.5 3.65266C32.3207 3.65266 30.5456 5.36453 30.5456 7.46622C30.5456 9.56792 32.3207 11.2798 34.5 11.2798ZM34.5 5.29673C35.7303 5.29673 36.7496 6.26283 36.7496 7.46622C36.7496 8.66961 35.7478 9.63572 34.5 9.63572C33.2522 9.63572 32.2504 8.66961 32.2504 7.46622C32.2504 6.26283 33.2522 5.29673 34.5 5.29673ZM48.3844 11.2798C50.5637 11.2798 52.3388 9.56792 52.3388 7.46622C52.3388 5.36453 50.5637 3.65266 48.3844 3.65266C46.205 3.65266 44.43 5.36453 44.43 7.46622C44.43 9.56792 46.205 11.2798 48.3844 11.2798ZM48.3844 5.29673C49.6146 5.29673 50.634 6.26283 50.634 7.46622C50.634 8.66961 49.6322 9.63572 48.3844 9.63572C47.1365 9.63572 46.1347 8.66961 46.1347 7.46622C46.1347 6.26283 47.1365 5.29673 48.3844 5.29673Z" fill="black"/>
</g>
<defs>
<clipPath id="clip0_2738_10480">
<rect width="69" height="80" fill="white" transform="translate(0 0.500122)"/>
</clipPath>
</defs>
</svg>
