<svg width="74" height="75" viewBox="0 0 74 75" fill="none" xmlns="http://www.w3.org/2000/svg">
<path d="M54.4203 59.4692C54.2688 59.4591 54.1168 59.479 53.973 59.5276C53.8292 59.5763 53.6964 59.6528 53.5822 59.7528C53.4679 59.8527 53.3745 59.9742 53.3072 60.1103C53.24 60.2464 53.2001 60.3944 53.1901 60.5459C53.18 60.6973 53.1998 60.8493 53.2485 60.9931C53.2971 61.1369 53.3736 61.2697 53.4736 61.3839C53.5736 61.4982 53.6951 61.5916 53.8311 61.6589C53.9672 61.7262 54.1152 61.766 54.2667 61.7761C54.3141 61.7794 54.3615 61.7811 54.4101 61.7811C55.6482 61.7811 57.1347 60.7581 58.1374 59.773C58.6946 59.2259 60.4798 57.3159 60.0626 55.7097C59.987 55.4182 59.8006 55.1677 59.5431 55.0115C59.2856 54.8552 58.9773 54.8057 58.6839 54.8733C58.3904 54.9409 58.1348 55.1203 57.9716 55.3734C57.8084 55.6265 57.7504 55.9333 57.8099 56.2286C57.555 56.9639 57.1085 57.618 56.5165 58.1233C55.9583 58.7602 55.2317 59.2267 54.4203 59.4692Z" fill="black"/>
<path d="M37 0.5C28.2805 0.500546 19.8412 3.58038 13.1709 9.19622C6.50065 14.8121 2.02787 22.6031 0.541584 31.1951C-0.944703 39.787 0.650995 48.6278 5.0472 56.158C9.44341 63.6882 16.3577 69.424 24.5704 72.3536V69.8756C24.4464 69.8279 24.3252 69.7747 24.2019 69.7256C24.3216 69.68 24.4419 69.6342 24.5704 69.5882V67.2023C23.4768 67.5328 22.4119 67.9516 21.3861 68.4545C18.1313 66.8058 15.1553 64.6567 12.5667 62.0854C13.1712 61.9289 13.7206 61.608 14.154 61.1585C15.5535 59.6815 15.2978 57.2635 15.1233 56.2924C15.0405 55.4961 15.1124 54.6913 15.3351 53.9223L15.3622 53.7947C15.4708 53.3365 15.6101 52.8862 15.7792 52.4467C15.0112 52.3271 14.2719 52.0667 13.5986 51.6784C13.3944 52.2122 13.2276 52.7595 13.0993 53.3165L13.0728 53.4424C12.7784 54.5025 12.7016 55.6112 12.847 56.7017C13.0745 57.9647 12.9283 59.0893 12.4755 59.5675C12.2692 59.7349 12.0267 59.8519 11.7672 59.9089C11.5077 59.966 11.2385 59.9616 10.981 59.896C10.8428 59.8796 10.7028 59.8883 10.5677 59.9216C7.39468 56.2031 5.0482 51.8528 3.68373 47.1588C2.31925 42.4649 1.96794 37.5345 2.65308 32.6945C2.75965 32.7328 2.87132 32.7549 2.98442 32.7604C4.13897 32.799 7.88831 33.0918 8.02042 35.2304C7.88331 36.8875 7.90449 38.554 8.08366 40.2071C8.30084 42.1012 9.42396 43.4131 10.6316 44.5201C10.8441 43.7323 11.207 42.993 11.7002 42.3429C10.9983 41.7186 10.5327 40.8717 10.3815 39.9446C10.2166 38.416 10.1998 36.8751 10.3312 35.3433C10.3349 35.3003 10.336 35.2571 10.3346 35.214C10.2449 32.3798 7.52643 30.5986 3.06234 30.449C3.05264 30.4487 3.04367 30.4511 3.03401 30.451C3.36264 28.8703 3.80223 27.3147 4.34952 25.7958C4.80452 26.1504 5.35908 26.3537 5.93545 26.3773C5.97158 26.3784 6.00656 26.3793 6.04215 26.3793C7.91767 26.3793 9.66164 24.5893 10.9777 23.0183C11.9933 21.8059 13.2659 21.2176 14.74 20.5364C14.9828 20.4244 15.2272 20.3112 15.4728 20.1946C16.7273 19.5987 18.4775 18.5683 19.186 16.5124C19.5539 15.2009 19.5846 13.8178 19.2752 12.4913C19.2442 12.3092 19.2154 12.0746 19.1821 11.8115C19.0016 10.3839 18.8009 9.12971 18.26 8.33356C22.568 5.55247 27.4424 3.76808 32.5277 3.11056C32.7752 3.63817 32.9005 4.21478 32.8944 4.79752C32.9012 5.89054 32.8679 6.63747 32.3733 7.04594C31.9244 7.36175 31.4292 7.60611 30.9054 7.77031C30.5961 7.88774 30.2878 8.00574 29.9937 8.14067C28.5188 8.73335 27.1637 9.5887 25.9942 10.6652C25.079 11.6009 24.8148 12.5237 25.21 13.4082C25.3299 13.6764 25.5474 13.889 25.8184 14.0027C26.0894 14.1164 26.3935 14.1226 26.6689 14.0201C26.9443 13.9176 27.1703 13.7141 27.3011 13.451C27.4319 13.1878 27.4575 12.8847 27.3729 12.6034C27.4542 12.488 27.5461 12.3805 27.6473 12.2821C28.6233 11.4152 29.7431 10.7252 30.9563 10.2431C31.2047 10.1291 31.4649 10.0314 31.7263 9.93205C32.489 9.68494 33.2051 9.31239 33.8451 8.82971C35.2244 7.69125 35.2142 6.01078 35.2069 4.782C35.2087 4.13724 35.112 3.49598 34.9202 2.8804C35.6089 2.83946 36.3013 2.8125 37 2.8125C40.0406 2.81253 43.068 3.21336 46.0038 4.00463C44.85 5.21236 43.6624 7.09546 44.2288 9.42762C44.2367 9.45952 44.2469 9.49396 44.2571 9.52501C44.5027 10.2584 44.6049 11.3108 44.3587 11.6478C44.2825 11.7523 44.0764 11.7765 43.9048 11.7771C42.9631 11.7045 36.5862 11.3458 36.1159 15.1222L36.1199 15.1225C36.1081 15.1937 36.1002 15.2655 36.0962 15.3376C36.012 16.7722 35.6976 17.4166 35.452 17.7012C35.256 17.8439 35.0467 17.9675 34.827 18.0701C34.2116 18.3245 33.6772 18.7418 33.2812 19.2772C32.8378 19.9281 32.5646 20.6798 32.4866 21.4635C33.6266 20.3124 35.1642 19.6417 36.7835 19.5891C36.935 19.4805 37.0743 19.3556 37.1988 19.2168C38.2573 17.9914 38.368 16.0955 38.4047 15.4728L38.407 15.4341L38.4103 15.4079C38.5504 14.2852 41.6595 13.9118 43.7586 14.0854C43.7845 14.0876 43.8111 14.0887 43.837 14.0893C44.2951 14.1266 44.7551 14.0467 45.1737 13.8573C45.5924 13.6678 45.956 13.3749 46.2303 13.0062C47.264 11.5832 46.6492 9.39798 46.4657 8.83877C46.048 6.98654 47.7462 5.43269 48.5683 4.80337C53.9547 6.72142 58.786 9.93626 62.6355 14.164C66.485 18.3917 69.2343 23.5023 70.6406 29.0444C68.7278 28.1986 66.4542 28.5723 65.0769 28.8004C64.6857 28.8651 64.1787 28.9486 63.8885 28.9639C62.7415 27.7655 61.1719 27.0625 59.5142 27.0045C58.9764 26.9718 58.4385 27.0659 57.9438 27.2793C57.4492 27.4927 57.0116 27.8194 56.6664 28.233C56.3132 28.6475 56.0619 29.1389 55.9326 29.6679C55.8033 30.1969 55.7996 30.7488 55.9218 31.2795C56.0402 31.7031 56.2069 32.1117 56.4186 32.4973C56.5811 32.8049 56.7203 33.1242 56.8353 33.4525C56.6639 33.5525 56.4731 33.6149 56.2758 33.6354C55.6914 33.7374 55.0899 33.6276 54.5792 33.3258C54.412 33.1488 54.1926 33.0297 53.9531 32.9858C54.5 33.8593 54.8247 34.8535 54.8985 35.8814C55.2249 35.9416 55.556 35.9726 55.8879 35.9739C56.1289 35.9746 56.3697 35.9579 56.6083 35.924C57.0942 35.8864 57.5635 35.7304 57.9753 35.4696C58.387 35.2089 58.7287 34.8513 58.9705 34.4281C59.4673 33.4441 58.9264 32.3505 58.4917 31.472C58.3708 31.2454 58.2657 31.0108 58.1772 30.7697C58.1354 30.5878 58.1367 30.3986 58.1811 30.2172C58.2255 30.0359 58.3118 29.8675 58.433 29.7255C58.5472 29.585 58.6936 29.4742 58.8598 29.4025C59.026 29.3308 59.2071 29.3003 59.3877 29.3137C60.3813 29.3681 61.6471 29.7865 62.2343 30.5975C62.8914 31.5053 64.0793 31.3092 65.454 31.0819C68.2944 30.6122 70.5341 30.4809 71.3697 33.3391C71.3915 33.4129 71.4205 33.4844 71.4564 33.5524C72.3441 41.1939 70.6605 48.9132 66.6716 55.4911C62.6828 62.069 56.616 67.1303 49.4297 69.8756V72.3536C57.6424 69.424 64.5566 63.6882 68.9529 56.158C73.3491 48.6278 74.9448 39.787 73.4585 31.1951C71.9722 22.6031 67.4994 14.8121 60.8291 9.19622C54.1588 3.58038 45.7196 0.500546 37 0.5ZM16.8876 12.1012C16.9255 12.4007 16.9599 12.668 16.9943 12.8752C17.2281 13.8221 17.23 14.8115 17 15.7593C16.6674 16.7231 15.9143 17.4248 14.4797 18.106C14.242 18.2192 14.0049 18.3287 13.7701 18.4374C12.1881 19.1682 10.5531 19.9239 9.2049 21.5332C7.33051 23.7704 6.39671 24.0814 6.02014 24.0662C5.94392 24.0634 5.76608 24.0572 5.5137 23.7077C5.44878 23.6202 5.37166 23.5424 5.28469 23.4767C7.72352 17.9896 11.5372 13.2248 16.3568 9.64318C16.6227 10.0088 16.8151 11.5244 16.8876 12.1012Z" fill="black"/>
<path d="M41.0469 25.9378C41.0472 25.1872 40.8388 24.4513 40.4449 23.8124C40.051 23.1734 39.4871 22.6566 38.8164 22.3197C38.1456 21.9828 37.3944 21.8391 36.6467 21.9046C35.8989 21.9701 35.1842 22.2423 34.5822 22.6908C33.9803 23.1392 33.515 23.7462 33.2382 24.444C32.9615 25.1417 32.8842 25.9026 33.0151 26.6417C33.146 27.3808 33.4799 28.069 33.9794 28.6292C34.4789 29.1895 35.1244 29.5998 35.8437 29.8142V73.344C35.8437 73.6507 35.9656 73.9448 36.1824 74.1616C36.3992 74.3784 36.6933 74.5003 37 74.5003C37.3067 74.5003 37.6008 74.3784 37.8176 74.1616C38.0344 73.9448 38.1562 73.6507 38.1562 73.344V29.8142C38.9906 29.5645 39.7224 29.0526 40.243 28.3544C40.7637 27.6561 41.0456 26.8088 41.0469 25.9378ZM37 27.6722C36.657 27.6722 36.3216 27.5705 36.0364 27.3799C35.7512 27.1893 35.5289 26.9184 35.3976 26.6015C35.2664 26.2846 35.232 25.9359 35.2989 25.5994C35.3659 25.263 35.5311 24.954 35.7736 24.7114C36.0162 24.4689 36.3252 24.3037 36.6616 24.2368C36.9981 24.1698 37.3468 24.2042 37.6637 24.3355C37.9806 24.4667 38.2515 24.689 38.4421 24.9742C38.6327 25.2595 38.7344 25.5948 38.7344 25.9378C38.7339 26.3976 38.551 26.8385 38.2258 27.1636C37.9007 27.4888 37.4598 27.6717 37 27.6722Z" fill="black"/>
<path d="M27.9714 39.4941C28.7138 38.8951 29.2204 38.0528 29.4017 37.1163C29.583 36.1798 29.4272 35.2093 28.962 34.3766C28.4968 33.5438 27.752 32.9024 26.8595 32.5658C25.967 32.2292 24.9842 32.219 24.0849 32.5372C23.1856 32.8553 22.4278 33.4812 21.9454 34.3042C21.4631 35.1271 21.2874 36.0942 21.4493 37.0342C21.6112 37.9743 22.1003 38.8268 22.8302 39.441C23.5601 40.0552 24.4836 40.3915 25.4375 40.3904C25.5706 40.3904 25.7019 40.3831 25.8318 40.3705L30.7908 52.526C31.0741 53.2193 31.2195 53.9613 31.2188 54.7103V73.3435C31.2188 73.6502 31.3406 73.9443 31.5574 74.1611C31.7742 74.378 32.0683 74.4998 32.375 74.4998C32.6817 74.4998 32.9758 74.378 33.1926 74.1611C33.4094 73.9443 33.5313 73.6502 33.5313 73.3435V54.7103C33.5323 53.6618 33.3286 52.6231 32.9317 51.6526L27.9714 39.4941ZM23.7031 36.3436C23.7031 36.0005 23.8049 35.6652 23.9954 35.38C24.186 35.0948 24.4569 34.8725 24.7738 34.7412C25.0907 34.61 25.4394 34.5756 25.7759 34.6425C26.1123 34.7094 26.4213 34.8746 26.6639 35.1172C26.9065 35.3597 27.0716 35.6688 27.1386 36.0052C27.2055 36.3417 27.1711 36.6904 27.0399 37.0073C26.9086 37.3242 26.6863 37.5951 26.4011 37.7857C26.1159 37.9762 25.7805 38.0779 25.4375 38.0779C24.9777 38.0774 24.5368 37.8946 24.2117 37.5694C23.8865 37.2443 23.7036 36.8034 23.7031 36.3436Z" fill="black"/>
<path d="M27.4813 52.6976L20.4865 47.7585C20.8702 46.8627 20.9186 45.8586 20.6229 44.93C20.3272 44.0014 19.7071 43.2102 18.8761 42.7012C18.045 42.1921 17.0585 41.9992 16.0969 42.1576C15.1353 42.3161 14.2629 42.8154 13.6392 43.5642C13.0154 44.313 12.682 45.2613 12.6999 46.2357C12.7178 47.2101 13.0858 48.1455 13.7367 48.8709C14.3875 49.5962 15.2777 50.0631 16.2445 50.1861C17.2113 50.3092 18.19 50.0801 19.0018 49.5409L26.1478 54.5867C26.3744 54.747 26.5594 54.9592 26.6871 55.2057C26.8148 55.4521 26.8815 55.7256 26.8817 56.0032V73.3436C26.8817 73.6502 27.0035 73.9443 27.2204 74.1612C27.4372 74.378 27.7313 74.4998 28.038 74.4998C28.3446 74.4998 28.6387 74.378 28.8556 74.1612C29.0724 73.9443 29.1942 73.6502 29.1942 73.3436V56.0032C29.1939 55.3554 29.0382 54.7171 28.7401 54.1419C28.4421 53.5667 28.0104 53.0715 27.4813 52.6976ZM15.0302 46.1717C15.0302 45.8287 15.1319 45.4934 15.3225 45.2082C15.513 44.9229 15.7839 44.7006 16.1008 44.5694C16.4177 44.4381 16.7665 44.4038 17.1029 44.4707C17.4393 44.5376 17.7484 44.7028 17.9909 44.9453C18.2335 45.1879 18.3987 45.4969 18.4656 45.8334C18.5325 46.1698 18.4982 46.5185 18.3669 46.8354C18.2356 47.1524 18.0133 47.4232 17.7281 47.6138C17.4429 47.8044 17.1076 47.9061 16.7645 47.9061C16.3047 47.9056 15.8639 47.7227 15.5387 47.3976C15.2136 47.0724 15.0307 46.6316 15.0302 46.1717Z" fill="black"/>
<path d="M48.5625 40.3903C49.5201 40.3926 50.4476 40.0559 51.1809 39.44C51.9142 38.8241 52.4059 37.9686 52.569 37.025C52.7321 36.0813 52.5561 35.1104 52.0721 34.2841C51.5882 33.4578 50.8275 32.8293 49.9247 32.5099C49.0219 32.1906 48.0352 32.2009 47.1393 32.5391C46.2434 32.8773 45.4961 33.5216 45.0295 34.3579C44.563 35.1942 44.4074 36.1686 44.5903 37.1086C44.7731 38.0486 45.2826 38.8936 46.0286 39.494L41.0683 51.653C40.6713 52.6233 40.4677 53.6618 40.4688 54.7102V73.3434C40.4688 73.6501 40.5906 73.9442 40.8074 74.161C41.0242 74.3779 41.3183 74.4997 41.625 74.4997C41.9317 74.4997 42.2258 74.3779 42.4426 74.161C42.6594 73.9442 42.7813 73.6501 42.7813 73.3434V54.7102C42.7805 53.9614 42.9258 53.2196 43.2092 52.5264L48.1683 40.3704C48.2981 40.383 48.4294 40.3903 48.5625 40.3903ZM48.5625 34.6091C48.9055 34.6091 49.2408 34.7108 49.5261 34.9014C49.8113 35.092 50.0336 35.3628 50.1648 35.6797C50.2961 35.9967 50.3305 36.3454 50.2635 36.6818C50.1966 37.0183 50.0314 37.3273 49.7889 37.5699C49.5463 37.8124 49.2373 37.9776 48.9009 38.0445C48.5644 38.1114 48.2157 38.0771 47.8988 37.9458C47.5819 37.8145 47.311 37.5922 47.1204 37.307C46.9298 37.0218 46.8281 36.6865 46.8281 36.3435C46.8286 35.8836 47.0115 35.4428 47.3367 35.1176C47.6618 34.7925 48.1027 34.6096 48.5625 34.6091Z" fill="black"/>
<path d="M57.2344 50.2185C58.105 50.219 58.9527 49.9389 59.6516 49.4197C60.3505 48.9005 60.8635 48.1698 61.1144 47.3361C61.3653 46.5024 61.3408 45.61 61.0445 44.7912C60.7482 43.9725 60.196 43.2711 59.4696 42.791C58.7433 42.3109 57.8815 42.0778 57.0122 42.126C56.1429 42.1743 55.3123 42.5016 54.6436 43.0591C53.9749 43.6167 53.5037 44.375 53.2999 45.2215C53.0962 46.068 53.1707 46.9576 53.5124 47.7584L46.5176 52.6975C45.9885 53.0714 45.5568 53.5666 45.2588 54.1418C44.9607 54.717 44.805 55.3553 44.8047 56.0031V73.3435C44.8047 73.6501 44.9265 73.9442 45.1433 74.1611C45.3602 74.3779 45.6543 74.4997 45.9609 74.4997C46.2676 74.4997 46.5617 74.3779 46.7785 74.1611C46.9954 73.9442 47.1172 73.6501 47.1172 73.3435V56.0031C47.1174 55.7255 47.1841 55.452 47.3118 55.2056C47.4395 54.9591 47.6245 54.7468 47.8511 54.5866L54.9971 49.5407C55.6593 49.9832 56.438 50.2191 57.2344 50.2185ZM57.2344 44.4372C57.5774 44.4372 57.9127 44.539 58.1979 44.7295C58.4831 44.9201 58.7054 45.191 58.8367 45.5079C58.968 45.8248 59.0023 46.1735 58.9354 46.51C58.8685 46.8464 58.7033 47.1555 58.4607 47.398C58.2182 47.6406 57.9092 47.8057 57.5727 47.8727C57.2363 47.9396 56.8876 47.9052 56.5706 47.774C56.2537 47.6427 55.9829 47.4204 55.7923 47.1352C55.6017 46.85 55.5 46.5146 55.5 46.1716C55.5005 45.7118 55.6834 45.2709 56.0085 44.9458C56.3337 44.6206 56.7745 44.4378 57.2344 44.4372Z" fill="black"/>
</svg>
